<?xml version="1.0" encoding="UTF-8" standalone="no"?>
<svg
   version="1.2"
   width="172.35052mm"
   height="105.9262mm"
   viewBox="0 0 172.35052 105.9262"
   stroke="none"
   fill="#000000"
   stroke-width="0.3"
   font-size="3.88px"
   id="svg1419"
   sodipodi:docname="pheromone-plot-proportional-run-01.svg"
   inkscape:version="1.1.1 (3bf5ae0d25, 2021-09-20)"
   xmlns:inkscape="http://www.inkscape.org/namespaces/inkscape"
   xmlns:sodipodi="http://sodipodi.sourceforge.net/DTD/sodipodi-0.dtd"
   xmlns="http://www.w3.org/2000/svg"
   xmlns:svg="http://www.w3.org/2000/svg">
  <sodipodi:namedview
     id="namedview1421"
     pagecolor="#505050"
     bordercolor="#eeeeee"
     borderopacity="1"
     inkscape:pageshadow="0"
     inkscape:pageopacity="0"
     inkscape:pagecheckerboard="0"
     inkscape:document-units="mm"
     showgrid="false"
     inkscape:zoom="0.44020053"
     inkscape:cx="-219.21828"
     inkscape:cy="110.17706"
     inkscape:window-width="1920"
     inkscape:window-height="1050"
     inkscape:window-x="0"
     inkscape:window-y="0"
     inkscape:window-maximized="1"
     inkscape:current-layer="img-4a779045-1" />
  <defs
     id="defs1225">
    <marker
       id="arrow"
       markerWidth="15"
       markerHeight="7"
       refX="5"
       refY="3.5"
       orient="auto"
       markerUnits="strokeWidth">
      <path
         d="M 0,0 15,3.5 0,7 Z"
         stroke="context-stroke"
         fill="context-stroke"
         id="path1222" />
    </marker>
  </defs>
  <g
     class="plotroot xscalable yscalable"
     id="img-4a779045-1"
     transform="translate(-5.18948,-5)">
    <g
       font-size="3.88px"
       font-family="'PT Sans', 'Helvetica Neue', Helvetica, sans-serif"
       fill="#564a55"
       stroke="#000000"
       stroke-opacity="0"
       id="img-4a779045-2">
      <g
         transform="translate(98.59,108.39)"
         id="g1231">
        <g
           class="primitive"
           id="g1229">
          <text
             text-anchor="middle"
             dy="0.60000002em"
             id="text1227">Pheromone Value</text>
        </g>
      </g>
    </g>
    <g
       class="guide xlabels"
       font-size="2.82px"
       font-family="'PT Sans Caption', 'Helvetica Neue', Helvetica, sans-serif"
       fill="#6c606b"
       id="img-4a779045-3">
      <g
         transform="translate(21.63,101.72)"
         id="g1238">
        <g
           class="primitive"
           id="g1236">
          <text
             text-anchor="middle"
             dy="0.60000002em"
             id="text1234">0.00</text>
        </g>
      </g>
      <g
         transform="translate(47.47,101.72)"
         id="g1244">
        <g
           class="primitive"
           id="g1242">
          <text
             text-anchor="middle"
             dy="0.60000002em"
             id="text1240">0.01</text>
        </g>
      </g>
      <g
         transform="translate(73.31,101.72)"
         id="g1250">
        <g
           class="primitive"
           id="g1248">
          <text
             text-anchor="middle"
             dy="0.60000002em"
             id="text1246">0.02</text>
        </g>
      </g>
      <g
         transform="translate(99.15,101.72)"
         id="g1256">
        <g
           class="primitive"
           id="g1254">
          <text
             text-anchor="middle"
             dy="0.60000002em"
             id="text1252">0.03</text>
        </g>
      </g>
      <g
         transform="translate(124.98,101.72)"
         id="g1262">
        <g
           class="primitive"
           id="g1260">
          <text
             text-anchor="middle"
             dy="0.60000002em"
             id="text1258">0.04</text>
        </g>
      </g>
      <g
         transform="translate(150.82,101.72)"
         id="g1268">
        <g
           class="primitive"
           id="g1266">
          <text
             text-anchor="middle"
             dy="0.60000002em"
             id="text1264">0.05</text>
        </g>
      </g>
    </g>
    <g
       class="guide colorkey"
       id="img-4a779045-4"
       transform="translate(-23.60875,-10.723563)">
      <g
         fill="#4c404b"
         font-size="2.82px"
         font-family="'PT Sans', 'Helvetica Neue', Helvetica, sans-serif"
         id="img-4a779045-5">
        <g
           transform="translate(181.35,47.42)"
           id="img-4a779045-6"
           class="color_Area_1">
          <g
             class="primitive"
             id="g1273">
            <text
               dy="0.34999999em"
               id="text1271">Area 1</text>
          </g>
        </g>
        <g
           transform="translate(181.35,51.04)"
           id="img-4a779045-7"
           class="color_Area_2:_2x2">
          <g
             class="primitive"
             id="g1278">
            <text
               dy="0.34999999em"
               id="text1276">Area 2: 2x2</text>
          </g>
        </g>
        <g
           transform="translate(181.35,54.67)"
           id="img-4a779045-8"
           class="color_Area_2:_4x4">
          <g
             class="primitive"
             id="g1283">
            <text
               dy="0.34999999em"
               id="text1281">Area 2: 4x4</text>
          </g>
        </g>
        <g
           transform="translate(181.35,58.3)"
           id="img-4a779045-9"
           class="color_Area_3">
          <g
             class="primitive"
             id="g1288">
            <text
               dy="0.34999999em"
               id="text1286">Area 3</text>
          </g>
        </g>
        <g
           transform="translate(181.35,61.92)"
           id="img-4a779045-10"
           class="color_Area_4">
          <g
             class="primitive"
             id="g1293">
            <text
               dy="0.34999999em"
               id="text1291">Area 4</text>
          </g>
        </g>
      </g>
      <g
         fill-opacity="1"
         id="img-4a779045-11">
        <g
           transform="translate(179.45,47.42)"
           id="img-4a779045-12"
           stroke="#ffffff"
           class="color_Area_1"
           fill="#ff6347">
          <path
             d="M -0.91,-0.91 H 0.91 V 0.91 H -0.91 Z"
             class="primitive"
             id="path1297" />
        </g>
        <g
           transform="translate(179.45,51.04)"
           id="img-4a779045-13"
           stroke="#ffffff"
           class="color_Area_2:_2x2"
           fill="#4169e1">
          <path
             d="M -0.91,-0.91 H 0.91 V 0.91 H -0.91 Z"
             class="primitive"
             id="path1300" />
        </g>
        <g
           transform="translate(179.45,54.67)"
           id="img-4a779045-14"
           stroke="#ffffff"
           class="color_Area_2:_4x4"
           fill="#404040">
          <path
             d="M -0.91,-0.91 H 0.91 V 0.91 H -0.91 Z"
             class="primitive"
             id="path1303" />
        </g>
        <g
           transform="translate(179.45,58.3)"
           id="img-4a779045-15"
           stroke="#ffffff"
           class="color_Area_3"
           fill="#b23aee">
          <path
             d="M -0.91,-0.91 H 0.91 V 0.91 H -0.91 Z"
             class="primitive"
             id="path1306" />
        </g>
        <g
           transform="translate(179.45,61.92)"
           id="img-4a779045-16"
           stroke="#ffffff"
           class="color_Area_4"
           fill="#00cd66">
          <path
             d="M -0.91,-0.91 H 0.91 V 0.91 H -0.91 Z"
             class="primitive"
             id="path1309" />
        </g>
      </g>
      <g
         fill="#362a35"
         font-size="3.88px"
         font-family="'PT Sans', 'Helvetica Neue', Helvetica, sans-serif"
         stroke="#000000"
         stroke-opacity="0"
         id="img-4a779045-17">
        <g
           transform="translate(178.54,43.6)"
           id="img-4a779045-18">
          <g
             class="primitive"
             id="g1315">
            <text
               dy="0em"
               id="text1313">Area</text>
          </g>
        </g>
      </g>
    </g>
    <g
       clip-path="url(#img-4a779045-19)"
       id="g1379">
      <g
         id="img-4a779045-20">
        <g
           pointer-events="visible"
           stroke-width="0.3"
           fill="#000000"
           fill-opacity="0"
           stroke="#000000"
           stroke-opacity="0"
           class="guide background"
           id="img-4a779045-21">
          <g
             transform="translate(98.59,52.86)"
             id="img-4a779045-22">
            <path
               d="M -78.95,-47.86 H 78.95 V 47.86 H -78.95 Z"
               class="primitive"
               id="path1320" />
          </g>
        </g>
        <g
           class="guide ygridlines xfixed"
           stroke-dasharray="0.5, 0.5"
           stroke-width="0.2"
           stroke="#d0d0e0"
           id="img-4a779045-23">
          <g
             transform="translate(98.59,98.71)"
             id="img-4a779045-24">
            <path
               fill="none"
               d="M -78.95,0 H 78.95"
               class="primitive"
               id="path1324" />
          </g>
          <g
             transform="translate(98.59,75.79)"
             id="img-4a779045-25">
            <path
               fill="none"
               d="M -78.95,0 H 78.95"
               class="primitive"
               id="path1327" />
          </g>
          <g
             transform="translate(98.59,52.86)"
             id="img-4a779045-26">
            <path
               fill="none"
               d="M -78.95,0 H 78.95"
               class="primitive"
               id="path1330" />
          </g>
          <g
             transform="translate(98.59,29.93)"
             id="img-4a779045-27">
            <path
               fill="none"
               d="M -78.95,0 H 78.95"
               class="primitive"
               id="path1333" />
          </g>
          <g
             transform="translate(98.59,7)"
             id="img-4a779045-28">
            <path
               fill="none"
               d="M -78.95,0 H 78.95"
               class="primitive"
               id="path1336" />
          </g>
        </g>
        <g
           class="guide xgridlines yfixed"
           stroke-dasharray="0.5, 0.5"
           stroke-width="0.2"
           stroke="#d0d0e0"
           id="img-4a779045-29">
          <g
             transform="translate(21.63,52.86)"
             id="img-4a779045-30">
            <path
               fill="none"
               d="M 0,-47.86 V 47.86"
               class="primitive"
               id="path1340" />
          </g>
          <g
             transform="translate(47.47,52.86)"
             id="img-4a779045-31">
            <path
               fill="none"
               d="M 0,-47.86 V 47.86"
               class="primitive"
               id="path1343" />
          </g>
          <g
             transform="translate(73.31,52.86)"
             id="img-4a779045-32">
            <path
               fill="none"
               d="M 0,-47.86 V 47.86"
               class="primitive"
               id="path1346" />
          </g>
          <g
             transform="translate(99.15,52.86)"
             id="img-4a779045-33">
            <path
               fill="none"
               d="M 0,-47.86 V 47.86"
               class="primitive"
               id="path1349" />
          </g>
          <g
             transform="translate(124.98,52.86)"
             id="img-4a779045-34">
            <path
               fill="none"
               d="M 0,-47.86 V 47.86"
               class="primitive"
               id="path1352" />
          </g>
          <g
             transform="translate(150.82,52.86)"
             id="img-4a779045-35">
            <path
               fill="none"
               d="M 0,-47.86 V 47.86"
               class="primitive"
               id="path1355" />
          </g>
        </g>
        <g
           class="plotpanel"
           id="img-4a779045-36">
          <metadata
             id="metadata1359">
            <boundingbox
               value="19.63166666666669mm 5.0mm 157.90833333333333mm 95.715mm" />
            <unitbox
               value="-0.0007740551208222413 204.3613367497138 0.06111487701858604 -208.7226734994276" />
          </metadata>
          <g
             stroke-width="0.3"
             fill="#000000"
             fill-opacity="0"
             class="geometry"
             id="img-4a779045-37">
            <g
               transform="translate(66.72,88.52)"
               id="img-4a779045-38"
               stroke-dasharray="none"
               stroke="#ff6347"
               class="color_Area_1">
              <path
                 fill="none"
                 d="m -57.89,10.19 h 0.45 0.46 0.45 l 0.46,-0.01 h 0.45 l 0.45,-0.01 0.46,-0.02 0.45,-0.02 0.46,-0.03 0.45,-0.05 0.45,-0.08 0.46,-0.1 0.45,-0.14 0.46,-0.2 0.45,-0.26 0.45,-0.34 0.46,-0.43 0.45,-0.55 0.46,-0.68 0.45,-0.81 0.45,-0.97 0.46,-1.12 0.45,-1.28 0.46,-1.42 0.45,-1.57 0.45,-1.67 0.46,-1.77 0.45,-1.82 0.46,-1.85 0.45,-1.83 0.45,-1.78 0.46,-1.7 0.45,-1.59 0.46,-1.47 0.45,-1.31 0.45,-1.15 0.46,-1 0.45,-0.83 0.46,-0.68 0.45,-0.54 0.46,-0.41 0.45,-0.3 0.45,-0.19 0.46,-0.11 0.45,-0.05 0.46,0.01 0.45,0.05 0.45,0.08 0.46,0.08 0.45,0.09 0.46,0.07 0.45,0.05 0.45,0.03 0.46,-0.01 0.45,-0.03 0.46,-0.06 0.45,-0.08 0.45,-0.09 0.46,-0.1 0.45,-0.1 0.46,-0.07 0.45,-0.05 0.45,-0.02 0.46,0.04 0.45,0.08 0.46,0.14 0.45,0.2 0.45,0.26 0.46,0.3 0.45,0.36 0.46,0.4 0.45,0.43 0.45,0.46 0.46,0.47 0.45,0.48 0.46,0.47 0.45,0.47 0.45,0.45 0.46,0.44 0.45,0.41 0.46,0.38 0.45,0.37 0.45,0.34 0.46,0.33 0.45,0.32 0.46,0.32 0.45,0.33 0.46,0.33 0.45,0.34 0.45,0.37 0.46,0.4 0.45,0.41 0.46,0.45 0.45,0.47 0.45,0.5 0.46,0.51 0.45,0.53 0.46,0.54 0.45,0.54 0.45,0.54 0.46,0.54 0.45,0.52 0.46,0.51 0.45,0.5 0.45,0.49 0.46,0.48 0.45,0.46 0.46,0.46 0.45,0.45 0.45,0.45 0.46,0.45 0.45,0.45 0.46,0.45 0.45,0.45 0.45,0.44 0.46,0.43 0.45,0.42 0.46,0.4 0.45,0.38 0.45,0.36 0.46,0.32 0.45,0.29 0.46,0.25 0.45,0.22 0.45,0.19 0.46,0.15 0.45,0.13 0.46,0.11 0.45,0.09 0.46,0.08 0.45,0.09 0.45,0.09 0.46,0.1 0.45,0.11 0.46,0.13 0.45,0.15 0.45,0.17 0.46,0.19 0.45,0.2 0.46,0.22 0.45,0.22 0.45,0.23 0.46,0.23 0.45,0.22 0.46,0.21 0.45,0.21 0.45,0.2 0.46,0.18 0.45,0.17 0.46,0.16 0.45,0.16 0.45,0.14 0.46,0.14 0.45,0.14 0.46,0.13 0.45,0.14 0.45,0.13 0.46,0.14 0.45,0.13 0.46,0.14 0.45,0.13 0.45,0.14 0.46,0.13 0.45,0.12 0.46,0.12 0.45,0.12 0.45,0.11 0.46,0.1 0.45,0.09 0.46,0.09 0.45,0.08 0.46,0.08 0.45,0.07 0.45,0.07 0.46,0.07 0.45,0.07 0.46,0.06 0.45,0.07 0.45,0.07 0.46,0.06 0.45,0.06 0.46,0.05 0.45,0.06 0.45,0.04 0.46,0.04 0.45,0.03 0.46,0.03 0.45,0.02 0.45,0.01 0.46,0.01 h 0.45 l 0.46,-0.01 0.45,-0.01 0.45,-0.02 0.46,-0.02 0.45,-0.02 0.46,-0.02 0.45,-0.02 0.45,-0.02 0.46,-0.02 0.45,-0.02 0.46,-0.02 0.45,-0.01 0.45,-0.01 0.46,-0.01 0.45,-0.01 0.46,-0.01 h 0.45 L 37,9.81 37.46,9.8 37.91,9.79 38.37,9.78 38.82,9.77 39.27,9.76 39.73,9.75 40.18,9.74 40.64,9.73 41.09,9.72 41.55,9.71 H 42 42.45 l 0.46,0.01 0.45,0.01 0.46,0.02 0.45,0.02 0.45,0.02 0.46,0.03 0.45,0.03 0.46,0.03 0.45,0.03 0.45,0.04 0.46,0.03 0.45,0.03 0.46,0.03 0.45,0.03 0.45,0.02 0.46,0.02 0.45,0.02 0.46,0.01 0.45,0.02 0.45,0.01 h 0.46 l 0.45,0.01 h 0.46 l 0.45,0.01 h 0.45 0.46 0.45 0.46 0.45 0.45 0.46 0.45 0.46 0.45"
                 class="primitive"
                 id="path1361" />
            </g>
            <g
               transform="translate(67.2,88.61)"
               id="img-4a779045-39"
               stroke-dasharray="none"
               stroke="#b23aee"
               class="color_Area_3">
              <path
                 fill="none"
                 d="m -58.39,10.11 h 0.46 l 0.46,-0.01 h 0.45 0.46 l 0.46,-0.01 0.46,-0.01 0.46,-0.01 0.45,-0.02 0.46,-0.03 0.46,-0.05 0.46,-0.06 0.46,-0.1 0.45,-0.13 0.46,-0.18 0.46,-0.24 0.46,-0.31 0.46,-0.4 0.45,-0.5 0.46,-0.62 0.46,-0.75 0.46,-0.88 0.46,-1.03 0.45,-1.16 0.46,-1.3 0.46,-1.41 0.46,-1.52 0.46,-1.59 0.45,-1.63 0.46,-1.65 0.46,-1.63 0.46,-1.58 0.46,-1.5 0.45,-1.4 0.46,-1.27 0.46,-1.14 0.46,-1 0.46,-0.85 0.45,-0.71 0.46,-0.57 0.46,-0.45 0.46,-0.34 0.45,-0.23 0.46,-0.15 0.46,-0.08 0.46,-0.02 0.46,0.02 0.45,0.05 0.46,0.07 0.46,0.07 0.46,0.07 0.46,0.06 0.45,0.04 0.46,0.01 0.46,-0.02 0.46,-0.05 0.46,-0.07 0.45,-0.09 0.46,-0.11 0.46,-0.11 0.46,-0.1 0.46,-0.09 0.45,-0.07 0.46,-0.04 h 0.46 l 0.46,0.03 0.46,0.08 0.45,0.11 0.46,0.16 0.46,0.19 0.46,0.21 0.46,0.24 0.45,0.24 0.46,0.24 0.46,0.24 0.46,0.22 0.46,0.19 0.45,0.16 0.46,0.13 0.46,0.08 0.46,0.05 0.46,0.01 0.45,-0.02 0.46,-0.05 0.46,-0.07 0.46,-0.08 0.45,-0.09 0.46,-0.07 0.46,-0.05 0.46,-0.02 0.46,0.02 0.45,0.08 0.46,0.13 0.46,0.2 0.46,0.28 0.46,0.34 0.45,0.42 0.46,0.49 0.46,0.56 0.46,0.62 0.46,0.66 0.45,0.72 0.46,0.74 0.46,0.76 0.46,0.77 0.46,0.77 0.45,0.76 0.46,0.74 0.46,0.71 0.46,0.69 0.46,0.66 0.45,0.63 0.46,0.6 0.46,0.57 0.46,0.55 0.46,0.53 0.45,0.5 0.46,0.49 0.46,0.47 0.46,0.44 0.46,0.43 0.45,0.4 0.46,0.38 0.46,0.35 0.46,0.33 0.46,0.31 0.45,0.29 0.46,0.26 0.46,0.25 0.46,0.24 0.45,0.23 0.46,0.22 0.46,0.22 0.46,0.21 0.46,0.22 0.45,0.22 0.46,0.22 0.46,0.22 0.46,0.22 0.46,0.23 0.45,0.22 0.46,0.21 0.46,0.2 0.46,0.19 0.46,0.18 0.45,0.16 0.46,0.15 0.46,0.13 0.46,0.13 0.46,0.11 0.45,0.1 0.46,0.09 0.46,0.09 0.46,0.09 0.46,0.09 0.45,0.09 0.46,0.09 0.46,0.1 0.46,0.1 0.46,0.1 0.45,0.11 0.46,0.11 0.46,0.1 0.46,0.11 0.46,0.11 0.45,0.1 0.46,0.11 0.46,0.1 0.46,0.1 0.46,0.09 0.45,0.09 0.46,0.09 0.46,0.08 0.46,0.07 0.45,0.07 0.46,0.07 0.46,0.07 0.46,0.06 0.46,0.06 0.45,0.06 0.46,0.06 0.46,0.07 0.46,0.06 0.46,0.06 0.45,0.07 0.46,0.06 0.46,0.05 0.46,0.06 0.46,0.04 0.45,0.05 0.46,0.03 0.46,0.03 0.46,0.03 0.46,0.02 0.45,0.01 h 0.46 l 0.46,0.01 h 0.46 l 0.46,-0.01 h 0.45 L 33.2,9.78 33.66,9.77 34.12,9.76 34.58,9.75 35.03,9.74 35.49,9.73 35.95,9.72 h 0.46 0.46 l 0.45,-0.01 0.46,0.01 h 0.46 0.46 l 0.46,0.01 0.45,0.01 0.46,0.01 h 0.46 l 0.46,0.01 h 0.45 0.46 0.46 l 0.46,0.01 0.46,-0.01 0.45,0.01 h 0.46 0.46 l 0.46,0.01 0.46,0.01 0.45,0.01 0.46,0.02 0.46,0.02 0.46,0.03 0.46,0.02 0.45,0.03 0.46,0.02 0.46,0.03 0.46,0.02 0.46,0.02 0.45,0.02 0.46,0.02 0.46,0.01 0.46,0.01 0.46,0.01 0.45,0.01 h 0.46 l 0.46,0.01 h 0.46 0.46 0.45 0.46 l 0.46,0.01 h 0.46 0.46 0.45 0.46 0.46"
                 class="primitive"
                 id="path1364" />
            </g>
            <g
               transform="translate(43.98,78.62)"
               id="img-4a779045-40"
               stroke-dasharray="none"
               stroke="#4169e1"
               class="color_Area_2:_2x2">
              <path
                 fill="none"
                 d="m -29.37,20.09 h 0.23 0.23 0.23 l 0.23,-0.01 0.23,-0.01 0.23,-0.01 0.23,-0.02 0.23,-0.03 0.24,-0.04 0.23,-0.06 0.23,-0.09 0.23,-0.12 0.23,-0.18 0.23,-0.23 0.23,-0.3 0.23,-0.41 0.23,-0.51 0.23,-0.66 0.23,-0.81 0.23,-1 0.23,-1.2 0.23,-1.42 0.23,-1.65 0.23,-1.88 0.23,-2.12 0.23,-2.35 0.23,-2.55 0.23,-2.73 0.23,-2.87 0.23,-2.97 0.23,-3.02 0.23,-3.03 0.23,-2.99 0.23,-2.89 0.23,-2.77 0.23,-2.6 0.23,-2.41 0.23,-2.19 0.24,-1.97 0.23,-1.75 0.23,-1.52 0.23,-1.32 0.23,-1.11 0.23,-0.94 0.23,-0.78 0.23,-0.63 0.23,-0.52 0.23,-0.41 0.23,-0.33 0.23,-0.27 0.23,-0.2 0.23,-0.17 0.23,-0.13 0.23,-0.11 0.23,-0.09 0.23,-0.08 0.23,-0.06 0.23,-0.04 0.23,-0.04 0.23,-0.01 0.23,0.02 0.23,0.04 0.23,0.09 0.23,0.12 0.23,0.17 0.23,0.22 0.23,0.28 0.24,0.33 0.23,0.39 0.23,0.43 0.23,0.47 0.23,0.5 0.23,0.53 0.23,0.53 0.23,0.53 0.23,0.5 0.23,0.48 0.23,0.44 0.23,0.39 0.23,0.34 0.23,0.29 0.23,0.24 0.23,0.19 0.23,0.16 0.23,0.13 0.23,0.12 0.23,0.13 0.23,0.14 0.23,0.18 0.23,0.22 0.23,0.28 0.23,0.34 0.23,0.41 0.23,0.48 0.23,0.57 0.23,0.64 0.23,0.72 0.24,0.79 0.23,0.87 0.23,0.93 0.23,1 0.23,1.07 0.23,1.11 0.23,1.17 0.23,1.2 0.23,1.24 0.23,1.25 0.23,1.28 0.23,1.27 0.23,1.27 0.23,1.26 0.23,1.23 0.23,1.21 0.23,1.19 0.23,1.15 0.23,1.11 0.23,1.08 0.23,1.04 0.23,1.01 0.23,0.96 0.23,0.93 0.23,0.89 0.23,0.86 0.23,0.81 0.23,0.78 0.23,0.75 0.23,0.7 0.24,0.67 0.23,0.63 0.23,0.6 0.23,0.55 0.23,0.52 0.23,0.47 0.23,0.44 0.23,0.4 0.23,0.37 0.23,0.33 0.23,0.3 0.23,0.27 0.23,0.26 0.23,0.24 0.23,0.24 0.23,0.24 0.23,0.24 0.23,0.26 0.23,0.27 0.23,0.28 0.23,0.3 0.23,0.32 0.23,0.34 0.23,0.35 0.23,0.36 0.23,0.38 0.23,0.39 0.23,0.39 0.23,0.4 0.23,0.41 0.24,0.41 0.23,0.42 0.23,0.42 0.23,0.41 0.23,0.41 0.23,0.4 0.23,0.39 0.23,0.38 0.23,0.35 0.23,0.33 0.23,0.3 0.23,0.28 0.23,0.24 0.23,0.21 0.23,0.19 0.23,0.15 0.23,0.13 0.23,0.1 0.23,0.08 0.23,0.05 0.23,0.04 0.23,0.02 h 0.23 l 0.23,-0.01 0.23,-0.02 0.23,-0.04 0.23,-0.04 0.23,-0.04 0.23,-0.05 0.23,-0.06 0.24,-0.05 0.23,-0.05 0.23,-0.04 0.23,-0.04 0.23,-0.02 0.23,-0.02 h 0.23 l 0.23,0.01 0.23,0.01 0.23,0.03 0.23,0.04 0.23,0.04 0.23,0.05 0.23,0.05 0.23,0.05 0.23,0.05 0.23,0.04 0.23,0.03 0.23,0.03 0.23,0.02 h 0.23 0.23 l 0.23,-0.01 0.23,-0.03 0.23,-0.03 0.23,-0.03 0.23,-0.05 0.23,-0.04 0.23,-0.05 0.24,-0.05 0.23,-0.04 0.23,-0.04 0.23,-0.03 0.23,-0.03 0.23,-0.01 H 22 l 0.23,0.01 0.23,0.02 0.23,0.03 0.23,0.04 0.23,0.05 0.23,0.05 0.23,0.05 0.23,0.05 0.23,0.06 0.23,0.05 0.23,0.05 0.23,0.04 0.23,0.04 0.23,0.03 0.23,0.03 0.23,0.02 0.23,0.02 0.23,0.02 0.23,0.01 0.23,0.01 0.23,0.01 h 0.23 l 0.23,0.01 h 0.24 0.23 0.23 0.23 0.23 0.23 0.23 0.23 0.23"
                 class="primitive"
                 id="path1367" />
            </g>
            <g
               transform="translate(94.04,91.47)"
               id="img-4a779045-41"
               stroke-dasharray="none"
               stroke="#00cd66"
               class="color_Area_4">
              <path
                 fill="none"
                 d="m -81.5,7.24 h 0.64 l 0.64,-0.01 0.64,-0.02 0.64,-0.06 0.64,-0.11 0.64,-0.24 0.64,-0.45 0.64,-0.8 0.64,-1.3 0.63,-1.98 0.64,-2.78 0.64,-3.6 0.64,-4.35 0.64,-4.86 0.64,-5.04 0.64,-4.85 0.64,-4.34 0.64,-3.61 0.64,-2.81 0.64,-2.03 0.64,-1.38 0.63,-0.87 0.64,-0.5 0.64,-0.22 0.64,-0.01 0.64,0.19 0.64,0.35 0.64,0.5 0.64,0.58 0.64,0.58 0.64,0.48 0.64,0.29 0.64,0.07 0.64,-0.15 0.63,-0.3 0.64,-0.36 0.64,-0.29 0.64,-0.13 0.64,0.11 0.64,0.41 0.64,0.73 0.64,1.05 0.64,1.37 0.64,1.67 0.64,1.94 0.64,2.16 0.63,2.32 0.64,2.4 0.64,2.42 0.64,2.36 0.64,2.26 0.64,2.09 0.64,1.89 0.64,1.65 0.64,1.4 0.64,1.15 0.64,0.93 0.64,0.78 0.64,0.7 0.63,0.69 0.64,0.73 0.64,0.78 0.64,0.81 0.64,0.82 0.64,0.76 0.64,0.67 0.64,0.55 0.64,0.43 0.64,0.35 0.64,0.28 0.64,0.27 0.63,0.27 0.64,0.32 0.64,0.37 0.64,0.44 0.64,0.47 0.64,0.5 0.64,0.48 0.64,0.45 0.64,0.39 0.64,0.31 0.64,0.23 0.64,0.16 0.63,0.09 0.64,0.04 h 0.64 l 0.64,-0.01 0.64,-0.02 0.64,-0.01 0.64,0.02 0.64,0.05 0.64,0.09 0.64,0.12 0.64,0.14 0.64,0.13 0.64,0.1 0.63,0.07 0.64,0.03 0.64,-0.02 0.64,-0.04 0.64,-0.08 0.64,-0.07 0.64,-0.07 0.64,-0.05 0.64,-0.01 0.64,0.01 0.64,0.04 0.64,0.04 0.63,0.03 0.64,-0.01 0.64,-0.04 0.64,-0.08 0.64,-0.11 0.64,-0.12 0.64,-0.1 0.64,-0.07 0.64,-0.04 0.64,0.01 0.64,0.04 0.64,0.06 0.64,0.05 0.63,0.05 0.64,0.03 0.64,0.02 0.64,0.01 0.64,0.01 L -0.32,6.5 0.32,6.54 0.96,6.61 1.6,6.7 2.24,6.79 2.88,6.88 3.52,6.95 4.15,7 4.79,7.02 H 5.43 L 6.07,7.01 h 0.64 l 0.64,0.01 0.64,0.01 0.64,0.01 0.64,0.01 0.64,-0.01 0.64,-0.02 0.64,-0.05 0.64,-0.05 0.63,-0.06 0.64,-0.04 0.64,-0.01 0.64,0.01 0.64,0.05 0.64,0.07 0.64,0.07 0.64,0.07 0.64,0.06 0.64,0.04 0.64,0.03 0.64,0.01 0.63,0.01 0.64,0.01 h 0.64 0.64 0.64 0.64 0.64 0.64 0.64 0.64 0.64 0.64 0.64 0.63 0.64 0.64 0.64 0.64 0.64 0.64 0.64 0.64 0.64 0.64 0.64 0.63 0.64 0.64 0.64 0.64 0.64 0.64 0.64 0.64 0.64 0.64 0.64 0.63 0.64 0.64 0.64 0.64 0.64 0.64 0.64 0.64 0.64 0.64 0.64 0.64 0.63 0.64 0.64 0.64 0.64 0.64 0.64 0.64 0.64 0.64 0.64 0.64 0.63 0.64 0.64 0.64 0.64 0.64 0.64 0.64 0.64 0.64 0.64 L 66.8,7.23 67.44,7.22 68.07,7.21 68.71,7.18 69.35,7.15 69.99,7.12 70.63,7.08 71.27,7.05 71.91,7.03 h 0.64 l 0.64,0.01 0.64,0.02 0.64,0.04 0.64,0.03 0.63,0.04 0.64,0.02 0.64,0.02 0.64,0.02 h 0.64 l 0.64,0.01 h 0.64 0.64 0.64 0.64"
                 class="primitive"
                 id="path1370" />
            </g>
            <g
               transform="translate(45.02,78.66)"
               id="img-4a779045-42"
               stroke-dasharray="none"
               stroke="#404040"
               class="color_Area_2:_4x4">
              <path
                 fill="none"
                 d="m -29.42,20.06 h 0.23 l 0.23,-0.01 h 0.23 l 0.23,-0.01 0.24,-0.02 0.23,-0.03 0.23,-0.04 0.23,-0.07 0.23,-0.11 0.23,-0.16 0.23,-0.24 0.23,-0.34 0.23,-0.47 0.23,-0.64 0.23,-0.86 0.23,-1.11 0.23,-1.43 0.23,-1.76 0.24,-2.15 0.23,-2.56 0.23,-2.97 0.23,-3.38 0.23,-3.75 0.23,-4.07 0.23,-4.33 0.23,-4.49 0.23,-4.57 0.23,-4.54 0.23,-4.41 0.23,-4.2 0.23,-3.92 0.23,-3.58 0.24,-3.21 0.23,-2.82 0.23,-2.43 0.23,-2.06 0.23,-1.72 0.23,-1.41 0.23,-1.14 0.23,-0.92 0.23,-0.72 0.23,-0.56 0.23,-0.43 0.23,-0.33 0.23,-0.24 0.24,-0.19 0.23,-0.14 0.23,-0.1 0.23,-0.09 0.23,-0.07 0.23,-0.07 0.23,-0.07 0.23,-0.06 0.23,-0.06 0.23,-0.03 0.23,-0.01 0.23,0.05 0.23,0.11 0.23,0.19 0.24,0.3 0.23,0.42 0.23,0.56 0.23,0.69 0.23,0.86 0.23,1 0.23,1.14 0.23,1.29 0.23,1.4 0.23,1.49 0.23,1.57 0.23,1.62 0.23,1.63 0.23,1.64 0.24,1.61 0.23,1.58 0.23,1.53 0.23,1.48 0.23,1.43 0.23,1.4 0.23,1.37 0.23,1.36 0.23,1.37 0.23,1.4 0.23,1.43 0.23,1.49 0.23,1.55 0.24,1.61 0.23,1.67 0.23,1.73 0.23,1.77 0.23,1.81 0.23,1.82 0.23,1.82 0.23,1.8 0.23,1.76 0.23,1.7 0.23,1.62 0.23,1.53 0.23,1.42 0.23,1.31 0.24,1.19 0.23,1.07 0.23,0.97 0.23,0.86 0.23,0.77 0.23,0.71 0.23,0.66 0.23,0.63 0.23,0.62 0.23,0.63 0.23,0.63 0.23,0.65 0.23,0.67 0.24,0.67 0.23,0.67 0.23,0.66 0.23,0.64 0.23,0.6 0.23,0.56 0.23,0.51 0.23,0.46 0.23,0.41 0.23,0.37 0.23,0.32 0.23,0.28 0.23,0.24 0.23,0.22 0.24,0.17 0.23,0.15 0.23,0.11 0.23,0.08 0.23,0.03 0.23,0.01 0.23,-0.03 0.23,-0.06 0.23,-0.08 0.23,-0.09 0.23,-0.08 0.23,-0.08 0.23,-0.06 0.23,-0.04 h 0.24 l 0.23,0.02 0.23,0.06 0.23,0.09 0.23,0.11 0.23,0.13 0.23,0.14 0.23,0.16 0.23,0.16 0.23,0.17 0.23,0.16 0.23,0.16 0.23,0.16 0.24,0.16 0.23,0.16 0.23,0.15 0.23,0.15 0.23,0.15 0.23,0.14 0.23,0.14 0.23,0.12 0.23,0.12 0.23,0.1 0.23,0.09 0.23,0.08 0.23,0.06 0.23,0.06 0.24,0.05 0.23,0.04 0.23,0.04 0.23,0.04 0.23,0.04 0.23,0.05 0.23,0.04 0.23,0.05 0.23,0.04 0.23,0.04 0.23,0.03 0.23,0.02 0.23,0.01 h 0.24 l 0.23,-0.01 0.23,-0.02 0.23,-0.02 0.23,-0.03 0.23,-0.04 0.23,-0.03 0.23,-0.03 0.23,-0.02 0.23,-0.01 0.23,-0.01 h 0.23 l 0.23,0.01 h 0.23 0.24 0.23 l 0.23,-0.01 0.23,-0.02 0.23,-0.04 0.23,-0.04 0.23,-0.06 0.23,-0.06 0.23,-0.06 0.23,-0.07 0.23,-0.05 0.23,-0.04 0.23,-0.03 0.23,-0.01 0.24,0.01 0.23,0.03 0.23,0.05 0.23,0.06 0.23,0.07 0.23,0.07 0.23,0.07 0.23,0.07 0.23,0.06 0.23,0.04 0.23,0.03 0.23,0.02 h 0.23 0.24 l 0.23,-0.02 0.23,-0.01 0.23,-0.02 0.23,-0.01 0.23,-0.01 h 0.23 l 0.23,0.02 0.23,0.02 0.23,0.03 0.23,0.05 0.23,0.04 0.23,0.05 0.23,0.06 0.24,0.05 0.23,0.04 0.23,0.04 0.23,0.04 0.23,0.03 0.23,0.03 0.23,0.02 0.23,0.01 0.23,0.01 0.23,0.01 0.23,0.01 h 0.23 0.23 l 0.23,0.01 h 0.24 0.23 0.23 0.23 0.23"
                 class="primitive"
                 id="path1373" />
            </g>
          </g>
        </g>
      </g>
    </g>
    <g
       class="guide ylabels"
       font-size="2.82px"
       font-family="'PT Sans Caption', 'Helvetica Neue', Helvetica, sans-serif"
       fill="#6c606b"
       id="img-4a779045-43">
      <g
         transform="translate(18.63,98.71)"
         id="img-4a779045-44">
        <g
           class="primitive"
           id="g1383">
          <text
             text-anchor="end"
             dy="0.34999999em"
             id="text1381">0</text>
        </g>
      </g>
      <g
         transform="translate(18.63,75.79)"
         id="img-4a779045-45">
        <g
           class="primitive"
           id="g1388">
          <text
             text-anchor="end"
             dy="0.34999999em"
             id="text1386">50</text>
        </g>
      </g>
      <g
         transform="translate(18.63,52.86)"
         id="img-4a779045-46">
        <g
           class="primitive"
           id="g1393">
          <text
             text-anchor="end"
             dy="0.34999999em"
             id="text1391">100</text>
        </g>
      </g>
      <g
         transform="translate(18.63,29.93)"
         id="img-4a779045-47">
        <g
           class="primitive"
           id="g1398">
          <text
             text-anchor="end"
             dy="0.34999999em"
             id="text1396">150</text>
        </g>
      </g>
      <g
         transform="translate(18.63,7)"
         id="img-4a779045-48">
        <g
           class="primitive"
           id="g1403">
          <text
             text-anchor="end"
             dy="0.34999999em"
             id="text1401">200</text>
        </g>
      </g>
    </g>
    <g
       font-size="3.88px"
       font-family="'PT Sans', 'Helvetica Neue', Helvetica, sans-serif"
       fill="#564a55"
       stroke="#000000"
       stroke-opacity="0"
       id="img-4a779045-49">
      <g
         transform="translate(8.81,50.86)"
         id="img-4a779045-50">
        <g
           class="primitive"
           id="g1409">
          <text
             text-anchor="middle"
             dy="0.34999999em"
             transform="rotate(-90,0,2)"
             id="text1407">Density</text>
        </g>
      </g>
    </g>
  </g>
  <defs
     id="defs1417">
    <clipPath
       id="img-4a779045-19">
      <path
         d="m 19.63,5 h 157.91 v 95.72 H 19.63"
         id="path1414" />
    </clipPath>
  </defs>
</svg>
