<?xml version="1.0" encoding="UTF-8" standalone="no"?>
<svg
   version="1.2"
   width="172.35052mm"
   height="105.9262mm"
   viewBox="0 0 172.35052 105.9262"
   stroke="none"
   fill="#000000"
   stroke-width="0.3"
   font-size="3.88px"
   id="svg4156"
   sodipodi:docname="pheromone-plot-proportional-run-05.svg"
   inkscape:version="1.1.1 (3bf5ae0d25, 2021-09-20)"
   xmlns:inkscape="http://www.inkscape.org/namespaces/inkscape"
   xmlns:sodipodi="http://sodipodi.sourceforge.net/DTD/sodipodi-0.dtd"
   xmlns="http://www.w3.org/2000/svg"
   xmlns:svg="http://www.w3.org/2000/svg">
  <sodipodi:namedview
     id="namedview4158"
     pagecolor="#505050"
     bordercolor="#eeeeee"
     borderopacity="1"
     inkscape:pageshadow="0"
     inkscape:pageopacity="0"
     inkscape:pagecheckerboard="0"
     inkscape:document-units="mm"
     showgrid="false"
     inkscape:zoom="0.83740625"
     inkscape:cx="311.0796"
     inkscape:cy="270.47804"
     inkscape:window-width="1920"
     inkscape:window-height="1050"
     inkscape:window-x="0"
     inkscape:window-y="0"
     inkscape:window-maximized="1"
     inkscape:current-layer="img-ddcaa813-1" />
  <defs
     id="defs3998">
    <marker
       id="arrow"
       markerWidth="15"
       markerHeight="7"
       refX="5"
       refY="3.5"
       orient="auto"
       markerUnits="strokeWidth">
      <path
         d="M 0,0 15,3.5 0,7 Z"
         stroke="context-stroke"
         fill="context-stroke"
         id="path3995" />
    </marker>
  </defs>
  <g
     class="plotroot xscalable yscalable"
     id="img-ddcaa813-1"
     transform="translate(-5.18948,-5)">
    <g
       font-size="3.88px"
       font-family="'PT Sans', 'Helvetica Neue', Helvetica, sans-serif"
       fill="#564a55"
       stroke="#000000"
       stroke-opacity="0"
       id="img-ddcaa813-2">
      <g
         transform="translate(98.59,108.39)"
         id="g4004">
        <g
           class="primitive"
           id="g4002">
          <text
             text-anchor="middle"
             dy="0.60000002em"
             id="text4000">Pheromone Value</text>
        </g>
      </g>
    </g>
    <g
       class="guide xlabels"
       font-size="2.82px"
       font-family="'PT Sans Caption', 'Helvetica Neue', Helvetica, sans-serif"
       fill="#6c606b"
       id="img-ddcaa813-3">
      <g
         transform="translate(21.63,101.72)"
         id="g4011">
        <g
           class="primitive"
           id="g4009">
          <text
             text-anchor="middle"
             dy="0.60000002em"
             id="text4007">0.00</text>
        </g>
      </g>
      <g
         transform="translate(105.61,101.72)"
         id="g4017">
        <g
           class="primitive"
           id="g4015">
          <text
             text-anchor="middle"
             dy="0.60000002em"
             id="text4013">0.05</text>
        </g>
      </g>
    </g>
    <g
       class="guide colorkey"
       id="img-ddcaa813-4"
       transform="translate(-23.60875,-10.723563)">
      <g
         fill="#4c404b"
         font-size="2.82px"
         font-family="'PT Sans', 'Helvetica Neue', Helvetica, sans-serif"
         id="img-ddcaa813-5">
        <g
           transform="translate(181.35,47.42)"
           id="img-ddcaa813-6"
           class="color_Area_1">
          <g
             class="primitive"
             id="g4022">
            <text
               dy="0.34999999em"
               id="text4020">Area 1</text>
          </g>
        </g>
        <g
           transform="translate(181.35,51.04)"
           id="img-ddcaa813-7"
           class="color_Area_2:_2x2">
          <g
             class="primitive"
             id="g4027">
            <text
               dy="0.34999999em"
               id="text4025">Area 2: 2x2</text>
          </g>
        </g>
        <g
           transform="translate(181.35,54.67)"
           id="img-ddcaa813-8"
           class="color_Area_2:_4x4">
          <g
             class="primitive"
             id="g4032">
            <text
               dy="0.34999999em"
               id="text4030">Area 2: 4x4</text>
          </g>
        </g>
        <g
           transform="translate(181.35,58.3)"
           id="img-ddcaa813-9"
           class="color_Area_3">
          <g
             class="primitive"
             id="g4037">
            <text
               dy="0.34999999em"
               id="text4035">Area 3</text>
          </g>
        </g>
        <g
           transform="translate(181.35,61.92)"
           id="img-ddcaa813-10"
           class="color_Area_4">
          <g
             class="primitive"
             id="g4042">
            <text
               dy="0.34999999em"
               id="text4040">Area 4</text>
          </g>
        </g>
      </g>
      <g
         fill-opacity="1"
         id="img-ddcaa813-11">
        <g
           transform="translate(179.45,47.42)"
           id="img-ddcaa813-12"
           stroke="#ffffff"
           class="color_Area_1"
           fill="#ff6347">
          <path
             d="M -0.91,-0.91 H 0.91 V 0.91 H -0.91 Z"
             class="primitive"
             id="path4046" />
        </g>
        <g
           transform="translate(179.45,51.04)"
           id="img-ddcaa813-13"
           stroke="#ffffff"
           class="color_Area_2:_2x2"
           fill="#4169e1">
          <path
             d="M -0.91,-0.91 H 0.91 V 0.91 H -0.91 Z"
             class="primitive"
             id="path4049" />
        </g>
        <g
           transform="translate(179.45,54.67)"
           id="img-ddcaa813-14"
           stroke="#ffffff"
           class="color_Area_2:_4x4"
           fill="#404040">
          <path
             d="M -0.91,-0.91 H 0.91 V 0.91 H -0.91 Z"
             class="primitive"
             id="path4052" />
        </g>
        <g
           transform="translate(179.45,58.3)"
           id="img-ddcaa813-15"
           stroke="#ffffff"
           class="color_Area_3"
           fill="#b23aee">
          <path
             d="M -0.91,-0.91 H 0.91 V 0.91 H -0.91 Z"
             class="primitive"
             id="path4055" />
        </g>
        <g
           transform="translate(179.45,61.92)"
           id="img-ddcaa813-16"
           stroke="#ffffff"
           class="color_Area_4"
           fill="#00cd66">
          <path
             d="M -0.91,-0.91 H 0.91 V 0.91 H -0.91 Z"
             class="primitive"
             id="path4058" />
        </g>
      </g>
      <g
         fill="#362a35"
         font-size="3.88px"
         font-family="'PT Sans', 'Helvetica Neue', Helvetica, sans-serif"
         stroke="#000000"
         stroke-opacity="0"
         id="img-ddcaa813-17">
        <g
           transform="translate(178.54,43.6)"
           id="img-ddcaa813-18">
          <g
             class="primitive"
             id="g4064">
            <text
               dy="0em"
               id="text4062">Area</text>
          </g>
        </g>
      </g>
    </g>
    <g
       clip-path="url(#img-ddcaa813-19)"
       id="g4116">
      <g
         id="img-ddcaa813-20">
        <g
           pointer-events="visible"
           stroke-width="0.3"
           fill="#000000"
           fill-opacity="0"
           stroke="#000000"
           stroke-opacity="0"
           class="guide background"
           id="img-ddcaa813-21">
          <g
             transform="translate(98.59,52.86)"
             id="img-ddcaa813-22">
            <path
               d="M -78.95,-47.86 H 78.95 V 47.86 H -78.95 Z"
               class="primitive"
               id="path4069" />
          </g>
        </g>
        <g
           class="guide ygridlines xfixed"
           stroke-dasharray="0.5, 0.5"
           stroke-width="0.2"
           stroke="#d0d0e0"
           id="img-ddcaa813-23">
          <g
             transform="translate(98.59,98.71)"
             id="img-ddcaa813-24">
            <path
               fill="none"
               d="M -78.95,0 H 78.95"
               class="primitive"
               id="path4073" />
          </g>
          <g
             transform="translate(98.59,75.79)"
             id="img-ddcaa813-25">
            <path
               fill="none"
               d="M -78.95,0 H 78.95"
               class="primitive"
               id="path4076" />
          </g>
          <g
             transform="translate(98.59,52.86)"
             id="img-ddcaa813-26">
            <path
               fill="none"
               d="M -78.95,0 H 78.95"
               class="primitive"
               id="path4079" />
          </g>
          <g
             transform="translate(98.59,29.93)"
             id="img-ddcaa813-27">
            <path
               fill="none"
               d="M -78.95,0 H 78.95"
               class="primitive"
               id="path4082" />
          </g>
          <g
             transform="translate(98.59,7)"
             id="img-ddcaa813-28">
            <path
               fill="none"
               d="M -78.95,0 H 78.95"
               class="primitive"
               id="path4085" />
          </g>
        </g>
        <g
           class="guide xgridlines yfixed"
           stroke-dasharray="0.5, 0.5"
           stroke-width="0.2"
           stroke="#d0d0e0"
           id="img-ddcaa813-29">
          <g
             transform="translate(21.63,52.86)"
             id="img-ddcaa813-30">
            <path
               fill="none"
               d="M 0,-47.86 V 47.86"
               class="primitive"
               id="path4089" />
          </g>
          <g
             transform="translate(105.61,52.86)"
             id="img-ddcaa813-31">
            <path
               fill="none"
               d="M 0,-47.86 V 47.86"
               class="primitive"
               id="path4092" />
          </g>
        </g>
        <g
           class="plotpanel"
           id="img-ddcaa813-32">
          <metadata
             id="metadata4096">
            <boundingbox
               value="19.63166666666669mm 5.0mm 157.90833333333333mm 95.715mm" />
            <unitbox
               value="-0.00119078391047088 204.3613367497138 0.09401735133130294 -208.7226734994276" />
          </metadata>
          <g
             stroke-width="0.3"
             fill="#000000"
             fill-opacity="0"
             class="geometry"
             id="img-ddcaa813-33">
            <g
               transform="translate(94.46,93.98)"
               id="img-ddcaa813-34"
               stroke-dasharray="none"
               stroke="#ff6347"
               class="color_Area_1">
              <path
                 fill="none"
                 d="m -81.08,4.73 h 0.63 l 0.64,-0.01 0.64,-0.02 0.63,-0.06 0.64,-0.13 0.63,-0.27 0.64,-0.53 0.64,-0.94 0.63,-1.49 0.64,-2.19 0.63,-2.92 0.64,-3.55 0.63,-3.96 0.64,-4.03 0.64,-3.73 0.63,-3.17 0.64,-2.43 0.63,-1.69 0.64,-1.01 0.64,-0.49 0.63,-0.11 0.64,0.11 0.63,0.19 0.64,0.14 0.64,0.01 0.63,-0.12 0.64,-0.24 0.63,-0.25 0.64,-0.16 0.64,0.02 0.63,0.27 0.64,0.53 0.63,0.77 0.64,0.95 0.64,1.06 0.63,1.1 0.64,1.1 0.63,1.07 0.64,1.03 0.64,1 0.63,0.99 0.64,0.99 0.63,1.03 0.64,1.06 0.63,1.07 0.64,1.07 0.64,1.03 0.63,0.98 0.64,0.91 0.63,0.86 0.64,0.84 0.64,0.81 0.63,0.8 0.64,0.78 0.63,0.76 0.64,0.75 0.64,0.74 0.63,0.72 0.64,0.7 0.63,0.67 0.64,0.65 0.64,0.62 0.63,0.58 0.64,0.53 0.63,0.46 0.64,0.39 0.64,0.31 0.63,0.25 0.64,0.18 0.63,0.15 0.64,0.1 0.64,0.08 0.63,0.06 0.64,0.07 0.63,0.1 0.64,0.14 0.64,0.18 0.63,0.2 0.64,0.21 0.63,0.19 0.64,0.17 0.63,0.14 0.64,0.11 0.64,0.09 0.63,0.09 0.64,0.08 0.63,0.07 0.64,0.07 0.64,0.07 0.63,0.07 0.64,0.06 0.63,0.04 0.64,0.03 0.64,0.02 0.63,0.02 h 0.64 l 0.63,0.01 h 0.64 0.64 0.63 0.64 0.63 0.64 0.64 0.63 0.64 0.63 l 0.64,-0.01 0.64,-0.01 0.63,-0.01 0.64,-0.03 0.63,-0.03 0.64,-0.04 0.63,-0.04 0.64,-0.03 0.64,-0.01 h 0.63 l 0.64,0.02 0.63,0.03 0.64,0.04 0.64,0.03 0.63,0.03 0.64,0.03 0.63,0.01 0.64,0.01 0.64,0.01 H -0.32 0.32 0.95 1.59 2.23 2.86 3.5 4.13 4.77 5.41 L 6.04,4.72 H 6.68 L 7.31,4.71 7.95,4.69 8.59,4.67 9.22,4.65 9.86,4.64 10.49,4.62 h 0.64 l 0.63,0.01 0.64,0.01 0.64,0.02 0.63,0.02 0.64,0.02 0.63,0.01 0.64,0.01 0.64,0.01 h 0.63 0.64 0.63 0.64 0.64 0.63 0.64 0.63 0.64 0.64 0.63 0.64 0.63 0.64 0.64 0.63 0.64 0.63 0.64 0.64 0.63 0.64 0.63 0.64 0.63 0.64 0.64 0.63 0.64 0.63 0.64 0.64 0.63 0.64 0.63 0.64 0.64 0.63 0.64 0.63 0.64 0.64 0.63 0.64 0.63 0.64 0.64 0.63 0.64 0.63 0.64 0.64 0.63 0.64 0.63 0.64 0.64 0.63 0.64 0.63 0.64 0.63 0.64 0.64 0.63 0.64 0.63 0.64 0.64 0.63 0.64 0.63 0.64 0.64 0.63 0.64 0.63 0.64 0.64 0.63 L 67.73,4.72 68.36,4.71 69,4.69 l 0.64,-0.03 0.63,-0.04 0.64,-0.04 0.63,-0.04 0.64,-0.02 0.64,-0.01 0.63,0.01 0.64,0.03 0.63,0.04 0.64,0.04 0.63,0.03 0.64,0.03 0.64,0.02 0.63,0.01 0.64,0.01 h 0.63 0.64 0.64 0.63"
                 class="primitive"
                 id="path4098" />
            </g>
            <g
               transform="translate(51.18,88.59)"
               id="img-ddcaa813-35"
               stroke-dasharray="none"
               stroke="#b23aee"
               class="color_Area_3">
              <path
                 fill="none"
                 d="m -37.9,10.12 h 0.3 0.3 0.29 l 0.3,-0.01 h 0.3 l 0.29,-0.01 0.3,-0.01 0.3,-0.02 0.3,-0.04 0.29,-0.04 0.3,-0.07 0.3,-0.09 0.3,-0.13 0.29,-0.18 0.3,-0.23 0.3,-0.31 0.29,-0.4 0.3,-0.5 0.3,-0.61 0.3,-0.74 0.29,-0.88 0.3,-1.01 0.3,-1.16 0.3,-1.29 0.29,-1.41 0.3,-1.51 0.3,-1.58 0.29,-1.64 0.3,-1.65 0.3,-1.63 0.3,-1.59 0.29,-1.51 0.3,-1.4 0.3,-1.29 0.3,-1.16 0.29,-1.01 0.3,-0.86 0.3,-0.73 0.29,-0.58 0.3,-0.46 0.3,-0.35 0.3,-0.25 0.29,-0.16 0.3,-0.08 0.3,-0.03 0.29,0.02 0.3,0.05 0.3,0.06 0.3,0.08 0.29,0.07 0.3,0.06 0.3,0.03 0.3,0.02 0.29,-0.02 0.3,-0.04 0.3,-0.07 0.29,-0.09 0.3,-0.1 0.3,-0.11 0.3,-0.11 0.29,-0.09 0.3,-0.07 0.3,-0.05 0.3,-0.01 0.29,0.03 0.3,0.08 0.3,0.11 0.29,0.15 0.3,0.18 0.3,0.21 0.3,0.24 0.29,0.24 0.3,0.25 0.3,0.24 0.29,0.23 0.3,0.21 0.3,0.19 0.3,0.15 0.29,0.13 0.3,0.09 0.3,0.07 0.3,0.05 0.29,0.03 0.3,0.02 0.3,0.03 0.29,0.04 0.3,0.05 0.3,0.08 0.3,0.11 0.29,0.15 0.3,0.19 0.3,0.23 0.3,0.27 0.29,0.31 0.3,0.35 0.3,0.38 0.29,0.41 0.3,0.44 0.3,0.45 0.3,0.48 0.29,0.5 0.3,0.5 0.3,0.52 0.29,0.52 0.3,0.53 0.3,0.53 0.3,0.53 0.29,0.53 0.3,0.53 0.3,0.52 0.3,0.52 0.29,0.52 0.3,0.51 0.3,0.5 0.29,0.5 0.3,0.48 0.3,0.49 0.3,0.47 0.29,0.47 0.3,0.46 0.3,0.45 0.3,0.44 0.29,0.43 0.3,0.43 0.3,0.41 0.29,0.41 0.3,0.39 0.3,0.38 0.3,0.37 0.29,0.36 0.3,0.35 0.3,0.33 0.29,0.32 0.3,0.3 0.3,0.28 0.3,0.27 0.29,0.24 0.3,0.23 0.3,0.21 0.3,0.2 0.29,0.18 0.3,0.16 0.3,0.16 0.29,0.15 0.3,0.15 0.3,0.15 0.3,0.15 0.29,0.16 0.3,0.16 0.3,0.16 0.3,0.18 0.29,0.18 0.3,0.19 0.3,0.19 0.29,0.19 0.3,0.19 0.3,0.19 0.3,0.17 0.29,0.17 0.3,0.16 0.3,0.14 0.29,0.12 0.3,0.11 0.3,0.1 0.3,0.08 0.29,0.08 0.3,0.06 0.3,0.05 0.3,0.04 0.29,0.04 0.3,0.03 0.3,0.04 0.29,0.03 0.3,0.02 0.3,0.03 0.3,0.03 0.29,0.03 0.3,0.04 0.3,0.03 0.3,0.03 0.29,0.03 0.3,0.04 0.3,0.03 0.29,0.04 0.3,0.03 0.3,0.04 0.3,0.03 0.29,0.03 0.3,0.03 0.3,0.03 0.29,0.02 0.3,0.02 0.3,0.01 0.3,0.01 h 0.29 0.3 l 0.3,-0.01 0.3,-0.02 0.29,-0.02 0.3,-0.03 0.3,-0.04 0.29,-0.03 0.3,-0.05 0.3,-0.04 0.3,-0.04 0.29,-0.05 0.3,-0.05 0.3,-0.04 0.3,-0.04 0.29,-0.04 0.3,-0.03 0.3,-0.03 0.29,-0.01 0.3,-0.01 h 0.3 l 0.3,0.01 0.29,0.02 0.3,0.03 0.3,0.03 0.29,0.05 0.3,0.05 0.3,0.05 0.3,0.06 0.29,0.06 0.3,0.05 0.3,0.06 0.3,0.05 0.29,0.04 0.3,0.05 0.3,0.03 0.29,0.04 0.3,0.03 0.3,0.02 0.3,0.03 0.29,0.02 0.3,0.01 0.3,0.01 0.3,0.02 h 0.29 l 0.3,0.01 0.3,0.01 h 0.29 0.3 l 0.3,0.01 h 0.3 0.29 0.3 0.3 0.3 0.29 0.3 0.3 0.29 0.3 0.3"
                 class="primitive"
                 id="path4101" />
            </g>
            <g
               transform="translate(47.97,86.39)"
               id="img-ddcaa813-36"
               stroke-dasharray="none"
               stroke="#4169e1"
               class="color_Area_2:_2x2">
              <path
                 fill="none"
                 d="m -31.12,12.32 h 0.24 0.25 l 0.24,-0.01 0.25,-0.02 0.24,-0.04 0.24,-0.08 0.25,-0.12 0.24,-0.22 0.25,-0.34 0.24,-0.54 0.24,-0.81 0.25,-1.16 0.24,-1.6 0.25,-2.11 0.24,-2.69 0.24,-3.28 0.25,-3.84 0.24,-4.33 0.25,-4.69 0.24,-4.87 0.24,-4.88 0.25,-4.69 0.24,-4.35 0.25,-3.88 0.24,-3.34 0.25,-2.77 0.24,-2.23 0.24,-1.72 0.25,-1.3 0.24,-0.95 0.25,-0.68 0.24,-0.48 0.24,-0.33 0.25,-0.23 0.24,-0.15 0.25,-0.1 0.24,-0.03 0.24,0.03 0.25,0.13 0.24,0.23 0.25,0.38 0.24,0.52 0.24,0.67 0.25,0.81 0.24,0.93 0.25,0.99 0.24,1.01 0.24,0.99 0.25,0.92 0.24,0.82 0.25,0.73 0.24,0.65 0.25,0.62 0.24,0.64 0.24,0.75 0.25,0.89 0.24,1.11 0.25,1.33 0.24,1.57 0.24,1.77 0.25,1.92 0.24,2.01 0.25,2.03 0.24,2.01 0.24,1.93 0.25,1.83 0.24,1.73 0.25,1.64 0.24,1.56 0.24,1.52 0.25,1.49 0.24,1.47 0.25,1.46 0.24,1.43 0.25,1.38 0.24,1.31 0.24,1.2 0.25,1.08 0.24,0.94 0.25,0.79 0.24,0.67 0.24,0.55 0.25,0.46 0.24,0.4 0.25,0.37 0.24,0.36 0.24,0.37 0.25,0.41 0.24,0.44 0.25,0.48 0.24,0.51 0.24,0.54 0.25,0.55 0.24,0.56 0.25,0.53 0.24,0.5 0.25,0.43 0.24,0.35 0.24,0.26 0.25,0.18 0.24,0.1 0.25,0.05 0.24,0.02 0.24,0.03 0.25,0.06 0.24,0.1 0.25,0.16 0.24,0.2 0.24,0.24 0.25,0.26 0.24,0.27 0.25,0.25 0.24,0.24 0.24,0.22 0.25,0.19 0.24,0.18 0.25,0.16 0.24,0.13 0.25,0.11 0.24,0.1 0.24,0.06 0.25,0.05 0.24,0.03 0.25,0.03 0.24,0.02 0.24,0.04 0.25,0.04 0.24,0.07 0.25,0.08 0.24,0.09 0.24,0.11 0.25,0.1 0.24,0.1 0.25,0.1 0.24,0.08 0.24,0.08 0.25,0.08 0.24,0.06 0.25,0.05 0.24,0.04 0.25,0.03 0.24,0.02 H 3.78 4.03 L 4.27,12.01 4.52,11.99 4.76,11.97 5,11.96 h 0.25 l 0.24,0.01 0.25,0.02 0.24,0.03 0.24,0.05 0.25,0.04 0.24,0.04 0.25,0.04 0.24,0.04 0.24,0.03 0.25,0.02 0.24,0.02 0.25,0.01 h 0.24 l 0.25,0.01 h 0.24 0.24 l 0.25,0.01 h 0.24 0.25 0.24 0.24 0.25 0.24 0.25 0.24 0.24 0.25 0.24 0.25 0.24 0.24 0.25 0.24 0.25 0.24 0.25 0.24 0.24 0.25 0.24 0.25 0.24 0.24 0.25 0.24 0.25 0.24 0.24 0.25 0.24 0.25 0.24 0.24 0.25 0.24 0.25 0.24 0.25 0.24 0.24 0.25 0.24 0.25 0.24 0.24 0.25 0.24 0.25 0.24 l 0.24,-0.01 h 0.25 0.24 0.25 l 0.24,-0.01 0.24,-0.01 0.25,-0.01 0.24,-0.02 0.25,-0.03 0.24,-0.03 0.24,-0.04 0.25,-0.04 0.24,-0.05 0.25,-0.04 0.24,-0.03 0.25,-0.03 0.24,-0.01 h 0.24 l 0.25,0.02 0.24,0.02 0.25,0.04 0.24,0.04 0.24,0.05 0.25,0.04 0.24,0.04 0.25,0.03 0.24,0.02 0.24,0.02 0.25,0.01 0.24,0.01 0.25,0.01 h 0.24 0.24 0.25 l 0.24,0.01 h 0.25 0.24"
                 class="primitive"
                 id="path4104" />
            </g>
            <g
               transform="translate(49.42,87.22)"
               id="img-ddcaa813-37"
               stroke-dasharray="none"
               stroke="#00cd66"
               class="color_Area_4">
              <path
                 fill="none"
                 d="m -33.38,11.49 h 0.26 l 0.26,-0.01 h 0.26 l 0.26,-0.01 0.27,-0.03 0.26,-0.04 0.26,-0.07 0.26,-0.11 0.26,-0.18 0.27,-0.28 0.26,-0.42 0.26,-0.6 0.26,-0.84 0.26,-1.13 0.26,-1.47 0.27,-1.85 0.26,-2.24 0.26,-2.64 0.26,-2.99 0.26,-3.28 0.27,-3.48 0.26,-3.58 0.26,-3.55 0.26,-3.4 0.26,-3.18 0.26,-2.85 0.27,-2.49 0.26,-2.11 0.26,-1.73 0.26,-1.38 0.26,-1.07 0.27,-0.81 0.26,-0.59 0.26,-0.42 0.26,-0.29 0.26,-0.18 0.26,-0.09 0.27,-0.01 0.26,0.06 0.26,0.15 0.26,0.22 0.26,0.3 0.27,0.36 0.26,0.4 0.26,0.44 0.26,0.42 0.26,0.39 0.26,0.31 0.27,0.22 0.26,0.11 0.26,-0.01 0.26,-0.12 0.26,-0.21 0.27,-0.26 0.26,-0.26 0.26,-0.23 0.26,-0.14 0.26,-0.02 0.26,0.14 0.27,0.32 0.26,0.51 0.26,0.71 0.26,0.89 0.26,1.05 0.27,1.2 0.26,1.31 0.26,1.41 0.26,1.47 0.26,1.51 0.27,1.54 0.26,1.54 0.26,1.54 0.26,1.52 0.26,1.5 0.26,1.46 0.27,1.43 0.26,1.38 0.26,1.32 0.26,1.27 0.26,1.2 0.27,1.13 0.26,1.07 0.26,1 0.26,0.94 0.26,0.88 0.26,0.83 0.27,0.77 0.26,0.71 0.26,0.66 0.26,0.61 0.26,0.55 0.27,0.5 0.26,0.45 0.26,0.42 0.26,0.4 0.26,0.39 0.26,0.4 0.27,0.41 0.26,0.44 0.26,0.47 0.26,0.51 0.26,0.53 0.27,0.55 0.26,0.55 0.26,0.55 0.26,0.53 0.26,0.49 0.26,0.45 0.27,0.4 0.26,0.35 0.26,0.29 0.26,0.24 0.26,0.2 0.27,0.15 0.26,0.12 0.26,0.09 0.26,0.06 0.26,0.04 0.26,0.02 0.27,0.01 0.26,0.01 h 0.26 l 0.26,0.01 0.26,0.01 0.27,0.02 0.26,0.04 0.26,0.04 0.26,0.04 0.26,0.06 0.26,0.06 0.27,0.06 0.26,0.05 0.26,0.05 0.26,0.05 0.26,0.04 0.27,0.04 0.26,0.04 0.26,0.03 0.26,0.04 0.26,0.03 0.26,0.03 0.27,0.03 0.26,0.02 0.26,0.01 0.26,0.01 h 0.26 l 0.27,-0.01 h 0.26 0.26 l 0.26,0.01 0.26,0.02 0.26,0.04 0.27,0.06 0.26,0.07 0.26,0.09 0.26,0.09 0.26,0.1 0.27,0.1 0.26,0.09 0.26,0.09 0.26,0.07 0.26,0.06 0.26,0.06 0.27,0.04 0.26,0.03 0.26,0.02 0.26,0.01 0.26,0.01 0.27,0.01 h 0.26 l 0.26,0.01 h 0.26 0.26 l 0.26,-0.01 h 0.27 l 0.26,-0.01 0.26,-0.01 0.26,-0.01 0.26,-0.02 0.27,-0.02 0.26,-0.03 0.26,-0.04 0.26,-0.04 0.26,-0.05 0.26,-0.05 0.27,-0.04 0.26,-0.04 0.26,-0.04 0.26,-0.02 0.26,-0.02 h 0.27 l 0.26,0.01 0.26,0.03 0.26,0.03 0.26,0.04 0.27,0.05 0.26,0.04 0.26,0.04 0.26,0.03 0.26,0.03 0.26,0.01 0.27,0.01 0.26,-0.01 0.26,-0.01 0.26,-0.02 0.26,-0.02 0.27,-0.02 0.26,-0.01 0.26,-0.02 h 0.26 0.26 l 0.26,0.01 0.27,0.02 0.26,0.02 0.26,0.02 0.26,0.03 0.26,0.03 0.27,0.02 0.26,0.02 0.26,0.01 0.26,0.01 H 24.74 25 l 0.27,-0.01 0.26,-0.01 0.26,-0.02 0.26,-0.02 0.26,-0.03 0.27,-0.03 0.26,-0.02 0.26,-0.02 0.26,-0.02 0.26,-0.01 h 0.26 l 0.27,0.01 0.26,0.01 0.26,0.02 0.26,0.03 0.26,0.02 0.27,0.03 0.26,0.03 0.26,0.02 0.26,0.02 0.26,0.01 0.26,0.02 h 0.27 l 0.26,0.01 h 0.26 l 0.26,0.01 h 0.26 0.27 0.26 0.26 0.26 0.26"
                 class="primitive"
                 id="path4107" />
            </g>
            <g
               transform="translate(41.48,82.42)"
               id="img-ddcaa813-38"
               stroke-dasharray="none"
               stroke="#404040"
               class="color_Area_2:_4x4">
              <path
                 fill="none"
                 d="m -23.54,16.29 h 0.18 l 0.19,-0.01 0.18,-0.01 0.19,-0.02 0.18,-0.05 0.19,-0.08 0.18,-0.15 0.18,-0.25 0.19,-0.4 0.18,-0.62 0.19,-0.94 0.18,-1.33 0.19,-1.86 0.18,-2.46 0.19,-3.15 0.18,-3.87 0.19,-4.59 0.18,-5.24 0.19,-5.74 0.18,-6.06 0.19,-6.17 0.18,-6.05 0.18,-5.72 0.19,-5.22 0.18,-4.6 0.19,-3.93 0.18,-3.24 0.19,-2.61 0.18,-2.05 0.19,-1.57 0.18,-1.18 0.19,-0.88 0.18,-0.63 0.19,-0.45 0.18,-0.31 0.18,-0.2 0.19,-0.14 0.18,-0.09 0.19,-0.08 0.18,-0.08 0.19,-0.09 0.18,-0.1 0.19,-0.09 0.18,-0.07 0.19,-0.01 0.18,0.09 0.19,0.24 0.18,0.43 0.19,0.66 0.18,0.92 0.18,1.2 0.19,1.49 0.18,1.78 0.19,2.02 0.18,2.24 0.19,2.41 0.18,2.51 0.19,2.55 0.18,2.53 0.19,2.48 0.18,2.39 0.19,2.28 0.18,2.18 0.18,2.12 0.19,2.09 0.18,2.11 0.19,2.16 0.18,2.25 0.19,2.33 0.18,2.4 0.19,2.42 0.18,2.4 0.19,2.31 0.18,2.16 0.19,1.97 0.18,1.76 0.19,1.53 0.18,1.31 0.18,1.13 0.19,0.98 0.18,0.89 0.19,0.85 0.18,0.85 0.19,0.87 0.18,0.92 0.19,0.94 0.18,0.94 0.19,0.93 0.18,0.87 0.19,0.78 0.18,0.69 0.19,0.59 0.18,0.5 0.18,0.43 0.19,0.37 0.18,0.34 0.19,0.33 0.18,0.34 0.19,0.35 0.18,0.36 0.19,0.38 0.18,0.38 0.19,0.37 0.18,0.36 0.19,0.33 0.18,0.31 0.18,0.28 0.19,0.24 0.18,0.22 0.19,0.2 0.18,0.18 0.19,0.15 0.18,0.15 0.19,0.12 0.18,0.09 0.19,0.07 0.18,0.04 0.19,0.02 0.18,-0.01 0.19,-0.03 0.18,-0.04 0.18,-0.03 0.19,-0.02 0.18,-0.01 0.19,0.02 0.18,0.04 0.19,0.05 0.18,0.07 0.19,0.06 0.18,0.05 0.19,0.03 0.18,0.02 0.19,-0.01 H 1.2 l 0.18,-0.01 0.19,0.01 0.18,0.04 0.19,0.07 0.18,0.1 0.19,0.12 0.18,0.14 0.19,0.15 0.18,0.15 0.19,0.13 0.18,0.11 0.19,0.09 0.18,0.06 0.19,0.04 0.18,0.02 H 4.15 L 4.34,16.15 4.52,16.11 4.71,16.06 4.89,15.99 5.08,15.92 5.26,15.85 5.45,15.79 5.63,15.73 5.82,15.7 6,15.68 l 0.19,0.02 0.18,0.03 0.18,0.05 0.19,0.07 0.18,0.07 0.19,0.08 0.18,0.06 0.19,0.06 0.18,0.05 0.19,0.04 0.18,0.03 0.19,0.02 0.18,0.01 0.19,0.01 0.18,0.01 h 0.19 0.18 0.18 0.19 0.18 0.19 0.18 0.19 0.18 l 0.19,-0.01 h 0.18 l 0.19,-0.02 0.18,-0.01 0.19,-0.03 0.18,-0.03 0.19,-0.05 0.18,-0.05 0.18,-0.07 0.19,-0.07 0.18,-0.07 0.19,-0.07 0.18,-0.06 0.19,-0.04 0.18,-0.02 h 0.19 l 0.18,0.03 0.19,0.04 0.18,0.06 0.19,0.07 0.18,0.07 0.18,0.06 0.19,0.06 0.18,0.04 0.19,0.02 0.18,0.01 0.19,-0.02 0.18,-0.03 0.19,-0.05 0.18,-0.06 0.19,-0.07 0.18,-0.07 0.19,-0.06 0.18,-0.06 0.19,-0.04 0.18,-0.01 h 0.18 l 0.19,0.03 0.18,0.04 0.19,0.04 0.18,0.05 0.19,0.03 0.18,0.02 h 0.19 l 0.18,-0.02 0.19,-0.03 0.18,-0.05 0.19,-0.04 0.18,-0.04 0.18,-0.03 h 0.19 l 0.18,0.01 0.19,0.04 0.18,0.06 0.19,0.06 0.18,0.08 0.19,0.07 0.18,0.07 0.19,0.06 0.18,0.04 0.19,0.04 0.18,0.03 0.19,0.02 0.18,0.01 0.18,0.01 0.19,0.01 h 0.18 0.19 0.18 0.19 0.18"
                 class="primitive"
                 id="path4110" />
            </g>
          </g>
        </g>
      </g>
    </g>
    <g
       class="guide ylabels"
       font-size="2.82px"
       font-family="'PT Sans Caption', 'Helvetica Neue', Helvetica, sans-serif"
       fill="#6c606b"
       id="img-ddcaa813-39">
      <g
         transform="translate(18.63,98.71)"
         id="img-ddcaa813-40">
        <g
           class="primitive"
           id="g4120">
          <text
             text-anchor="end"
             dy="0.34999999em"
             id="text4118">0</text>
        </g>
      </g>
      <g
         transform="translate(18.63,75.79)"
         id="img-ddcaa813-41">
        <g
           class="primitive"
           id="g4125">
          <text
             text-anchor="end"
             dy="0.34999999em"
             id="text4123">50</text>
        </g>
      </g>
      <g
         transform="translate(18.63,52.86)"
         id="img-ddcaa813-42">
        <g
           class="primitive"
           id="g4130">
          <text
             text-anchor="end"
             dy="0.34999999em"
             id="text4128">100</text>
        </g>
      </g>
      <g
         transform="translate(18.63,29.93)"
         id="img-ddcaa813-43">
        <g
           class="primitive"
           id="g4135">
          <text
             text-anchor="end"
             dy="0.34999999em"
             id="text4133">150</text>
        </g>
      </g>
      <g
         transform="translate(18.63,7)"
         id="img-ddcaa813-44">
        <g
           class="primitive"
           id="g4140">
          <text
             text-anchor="end"
             dy="0.34999999em"
             id="text4138">200</text>
        </g>
      </g>
    </g>
    <g
       font-size="3.88px"
       font-family="'PT Sans', 'Helvetica Neue', Helvetica, sans-serif"
       fill="#564a55"
       stroke="#000000"
       stroke-opacity="0"
       id="img-ddcaa813-45">
      <g
         transform="translate(8.81,50.86)"
         id="img-ddcaa813-46">
        <g
           class="primitive"
           id="g4146">
          <text
             text-anchor="middle"
             dy="0.34999999em"
             transform="rotate(-90,0,2)"
             id="text4144">Density</text>
        </g>
      </g>
    </g>
  </g>
  <defs
     id="defs4154">
    <clipPath
       id="img-ddcaa813-19">
      <path
         d="m 19.63,5 h 157.91 v 95.72 H 19.63"
         id="path4151" />
    </clipPath>
  </defs>
</svg>
