<?xml version="1.0" encoding="UTF-8" standalone="no"?>
<svg
   version="1.2"
   width="172.35052mm"
   height="105.9262mm"
   viewBox="0 0 172.35052 105.9262"
   stroke="none"
   fill="#000000"
   stroke-width="0.3"
   font-size="3.88px"
   id="svg3505"
   sodipodi:docname="pheromone-plot-proportional-run-04.svg"
   inkscape:version="1.1.1 (3bf5ae0d25, 2021-09-20)"
   xmlns:inkscape="http://www.inkscape.org/namespaces/inkscape"
   xmlns:sodipodi="http://sodipodi.sourceforge.net/DTD/sodipodi-0.dtd"
   xmlns="http://www.w3.org/2000/svg"
   xmlns:svg="http://www.w3.org/2000/svg">
  <sodipodi:namedview
     id="namedview3507"
     pagecolor="#505050"
     bordercolor="#eeeeee"
     borderopacity="1"
     inkscape:pageshadow="0"
     inkscape:pageopacity="0"
     inkscape:pagecheckerboard="0"
     inkscape:document-units="mm"
     showgrid="false"
     inkscape:zoom="1.6748125"
     inkscape:cx="409.29955"
     inkscape:cy="208.08299"
     inkscape:window-width="1920"
     inkscape:window-height="1050"
     inkscape:window-x="0"
     inkscape:window-y="0"
     inkscape:window-maximized="1"
     inkscape:current-layer="img-caeb64e2-1" />
  <defs
     id="defs3320">
    <marker
       id="arrow"
       markerWidth="15"
       markerHeight="7"
       refX="5"
       refY="3.5"
       orient="auto"
       markerUnits="strokeWidth">
      <path
         d="M 0,0 15,3.5 0,7 Z"
         stroke="context-stroke"
         fill="context-stroke"
         id="path3317" />
    </marker>
  </defs>
  <g
     class="plotroot xscalable yscalable"
     id="img-caeb64e2-1"
     transform="translate(-5.18948,-5)">
    <g
       font-size="3.88px"
       font-family="'PT Sans', 'Helvetica Neue', Helvetica, sans-serif"
       fill="#564a55"
       stroke="#000000"
       stroke-opacity="0"
       id="img-caeb64e2-2">
      <g
         transform="translate(98.59,108.39)"
         id="g3326">
        <g
           class="primitive"
           id="g3324">
          <text
             text-anchor="middle"
             dy="0.60000002em"
             id="text3322">Pheromone Value</text>
        </g>
      </g>
    </g>
    <g
       class="guide xlabels"
       font-size="2.82px"
       font-family="'PT Sans Caption', 'Helvetica Neue', Helvetica, sans-serif"
       fill="#6c606b"
       id="img-caeb64e2-3">
      <g
         transform="translate(21.63,101.72)"
         id="g3333">
        <g
           class="primitive"
           id="g3331">
          <text
             text-anchor="middle"
             dy="0.60000002em"
             id="text3329">0.00</text>
        </g>
      </g>
      <g
         transform="translate(54.44,101.72)"
         id="g3339">
        <g
           class="primitive"
           id="g3337">
          <text
             text-anchor="middle"
             dy="0.60000002em"
             id="text3335">0.01</text>
        </g>
      </g>
      <g
         transform="translate(87.25,101.72)"
         id="g3345">
        <g
           class="primitive"
           id="g3343">
          <text
             text-anchor="middle"
             dy="0.60000002em"
             id="text3341">0.02</text>
        </g>
      </g>
      <g
         transform="translate(120.06,101.72)"
         id="g3351">
        <g
           class="primitive"
           id="g3349">
          <text
             text-anchor="middle"
             dy="0.60000002em"
             id="text3347">0.03</text>
        </g>
      </g>
      <g
         transform="translate(152.87,101.72)"
         id="g3357">
        <g
           class="primitive"
           id="g3355">
          <text
             text-anchor="middle"
             dy="0.60000002em"
             id="text3353">0.04</text>
        </g>
      </g>
    </g>
    <g
       class="guide colorkey"
       id="img-caeb64e2-4"
       transform="translate(-23.60875,-10.723563)">
      <g
         fill="#4c404b"
         font-size="2.82px"
         font-family="'PT Sans', 'Helvetica Neue', Helvetica, sans-serif"
         id="img-caeb64e2-5">
        <g
           transform="translate(181.35,47.42)"
           id="img-caeb64e2-6"
           class="color_Area_1">
          <g
             class="primitive"
             id="g3362">
            <text
               dy="0.34999999em"
               id="text3360">Area 1</text>
          </g>
        </g>
        <g
           transform="translate(181.35,51.04)"
           id="img-caeb64e2-7"
           class="color_Area_2:_2x2">
          <g
             class="primitive"
             id="g3367">
            <text
               dy="0.34999999em"
               id="text3365">Area 2: 2x2</text>
          </g>
        </g>
        <g
           transform="translate(181.35,54.67)"
           id="img-caeb64e2-8"
           class="color_Area_2:_4x4">
          <g
             class="primitive"
             id="g3372">
            <text
               dy="0.34999999em"
               id="text3370">Area 2: 4x4</text>
          </g>
        </g>
        <g
           transform="translate(181.35,58.3)"
           id="img-caeb64e2-9"
           class="color_Area_3">
          <g
             class="primitive"
             id="g3377">
            <text
               dy="0.34999999em"
               id="text3375">Area 3</text>
          </g>
        </g>
        <g
           transform="translate(181.35,61.92)"
           id="img-caeb64e2-10"
           class="color_Area_4">
          <g
             class="primitive"
             id="g3382">
            <text
               dy="0.34999999em"
               id="text3380">Area 4</text>
          </g>
        </g>
      </g>
      <g
         fill-opacity="1"
         id="img-caeb64e2-11">
        <g
           transform="translate(179.45,47.42)"
           id="img-caeb64e2-12"
           stroke="#ffffff"
           class="color_Area_1"
           fill="#ff6347">
          <path
             d="M -0.91,-0.91 H 0.91 V 0.91 H -0.91 Z"
             class="primitive"
             id="path3386" />
        </g>
        <g
           transform="translate(179.45,51.04)"
           id="img-caeb64e2-13"
           stroke="#ffffff"
           class="color_Area_2:_2x2"
           fill="#4169e1">
          <path
             d="M -0.91,-0.91 H 0.91 V 0.91 H -0.91 Z"
             class="primitive"
             id="path3389" />
        </g>
        <g
           transform="translate(179.45,54.67)"
           id="img-caeb64e2-14"
           stroke="#ffffff"
           class="color_Area_2:_4x4"
           fill="#404040">
          <path
             d="M -0.91,-0.91 H 0.91 V 0.91 H -0.91 Z"
             class="primitive"
             id="path3392" />
        </g>
        <g
           transform="translate(179.45,58.3)"
           id="img-caeb64e2-15"
           stroke="#ffffff"
           class="color_Area_3"
           fill="#b23aee">
          <path
             d="M -0.91,-0.91 H 0.91 V 0.91 H -0.91 Z"
             class="primitive"
             id="path3395" />
        </g>
        <g
           transform="translate(179.45,61.92)"
           id="img-caeb64e2-16"
           stroke="#ffffff"
           class="color_Area_4"
           fill="#00cd66">
          <path
             d="M -0.91,-0.91 H 0.91 V 0.91 H -0.91 Z"
             class="primitive"
             id="path3398" />
        </g>
      </g>
      <g
         fill="#362a35"
         font-size="3.88px"
         font-family="'PT Sans', 'Helvetica Neue', Helvetica, sans-serif"
         stroke="#000000"
         stroke-opacity="0"
         id="img-caeb64e2-17">
        <g
           transform="translate(178.54,43.6)"
           id="img-caeb64e2-18">
          <g
             class="primitive"
             id="g3404">
            <text
               dy="0em"
               id="text3402">Area</text>
          </g>
        </g>
      </g>
    </g>
    <g
       clip-path="url(#img-caeb64e2-19)"
       id="g3465">
      <g
         id="img-caeb64e2-20">
        <g
           pointer-events="visible"
           stroke-width="0.3"
           fill="#000000"
           fill-opacity="0"
           stroke="#000000"
           stroke-opacity="0"
           class="guide background"
           id="img-caeb64e2-21">
          <g
             transform="translate(98.59,52.86)"
             id="img-caeb64e2-22">
            <path
               d="M -78.95,-47.86 H 78.95 V 47.86 H -78.95 Z"
               class="primitive"
               id="path3409" />
          </g>
        </g>
        <g
           class="guide ygridlines xfixed"
           stroke-dasharray="0.5, 0.5"
           stroke-width="0.2"
           stroke="#d0d0e0"
           id="img-caeb64e2-23">
          <g
             transform="translate(98.59,98.71)"
             id="img-caeb64e2-24">
            <path
               fill="none"
               d="M -78.95,0 H 78.95"
               class="primitive"
               id="path3413" />
          </g>
          <g
             transform="translate(98.59,75.79)"
             id="img-caeb64e2-25">
            <path
               fill="none"
               d="M -78.95,0 H 78.95"
               class="primitive"
               id="path3416" />
          </g>
          <g
             transform="translate(98.59,52.86)"
             id="img-caeb64e2-26">
            <path
               fill="none"
               d="M -78.95,0 H 78.95"
               class="primitive"
               id="path3419" />
          </g>
          <g
             transform="translate(98.59,29.93)"
             id="img-caeb64e2-27">
            <path
               fill="none"
               d="M -78.95,0 H 78.95"
               class="primitive"
               id="path3422" />
          </g>
          <g
             transform="translate(98.59,7)"
             id="img-caeb64e2-28">
            <path
               fill="none"
               d="M -78.95,0 H 78.95"
               class="primitive"
               id="path3425" />
          </g>
        </g>
        <g
           class="guide xgridlines yfixed"
           stroke-dasharray="0.5, 0.5"
           stroke-width="0.2"
           stroke="#d0d0e0"
           id="img-caeb64e2-29">
          <g
             transform="translate(21.63,52.86)"
             id="img-caeb64e2-30">
            <path
               fill="none"
               d="M 0,-47.86 V 47.86"
               class="primitive"
               id="path3429" />
          </g>
          <g
             transform="translate(54.44,52.86)"
             id="img-caeb64e2-31">
            <path
               fill="none"
               d="M 0,-47.86 V 47.86"
               class="primitive"
               id="path3432" />
          </g>
          <g
             transform="translate(87.25,52.86)"
             id="img-caeb64e2-32">
            <path
               fill="none"
               d="M 0,-47.86 V 47.86"
               class="primitive"
               id="path3435" />
          </g>
          <g
             transform="translate(120.06,52.86)"
             id="img-caeb64e2-33">
            <path
               fill="none"
               d="M 0,-47.86 V 47.86"
               class="primitive"
               id="path3438" />
          </g>
          <g
             transform="translate(152.87,52.86)"
             id="img-caeb64e2-34">
            <path
               fill="none"
               d="M 0,-47.86 V 47.86"
               class="primitive"
               id="path3441" />
          </g>
        </g>
        <g
           class="plotpanel"
           id="img-caeb64e2-35">
          <metadata
             id="metadata3445">
            <boundingbox
               value="19.63166666666669mm 5.0mm 157.90833333333333mm 95.715mm" />
            <unitbox
               value="-0.0006095583532861548 204.3613367497138 0.04812717181841395 -208.7226734994276" />
          </metadata>
          <g
             stroke-width="0.3"
             fill="#000000"
             fill-opacity="0"
             class="geometry"
             id="img-caeb64e2-36">
            <g
               transform="translate(79.54,88.67)"
               id="img-caeb64e2-37"
               stroke-dasharray="none"
               stroke="#ff6347"
               class="color_Area_1">
              <path
                 fill="none"
                 d="M -74.58,10.05 H -74 l 0.59,-0.01 h 0.58 0.59 l 0.58,-0.01 0.59,-0.01 0.58,-0.01 0.59,-0.02 0.58,-0.03 0.59,-0.05 0.58,-0.07 0.59,-0.09 0.58,-0.14 0.59,-0.18 0.58,-0.24 0.59,-0.31 0.58,-0.41 0.59,-0.5 0.58,-0.63 0.59,-0.76 0.58,-0.9 0.59,-1.05 0.58,-1.2 0.59,-1.35 0.58,-1.47 0.59,-1.6 0.58,-1.68 0.59,-1.75 0.58,-1.78 0.59,-1.77 0.58,-1.74 0.59,-1.67 0.58,-1.58 0.59,-1.45 0.58,-1.32 0.59,-1.17 0.58,-1.01 0.59,-0.86 0.58,-0.71 0.59,-0.57 0.58,-0.44 0.59,-0.32 0.58,-0.22 0.59,-0.14 0.58,-0.06 0.59,-0.01 0.58,0.03 0.59,0.05 0.58,0.07 0.59,0.07 0.58,0.06 0.59,0.04 0.58,0.02 h 0.59 l 0.58,-0.04 0.59,-0.05 0.58,-0.08 0.59,-0.09 0.58,-0.1 0.59,-0.09 0.58,-0.07 0.59,-0.05 0.58,-0.02 0.59,0.03 0.58,0.08 0.59,0.12 0.58,0.18 0.59,0.23 0.58,0.28 0.59,0.32 0.58,0.36 0.58,0.39 0.59,0.41 0.58,0.42 0.59,0.43 0.58,0.42 0.59,0.41 0.58,0.4 0.59,0.38 0.58,0.36 0.59,0.34 0.58,0.32 0.59,0.31 0.58,0.31 0.59,0.3 0.58,0.32 0.59,0.33 0.58,0.34 0.59,0.38 0.58,0.39 0.59,0.43 0.58,0.45 0.59,0.48 0.58,0.5 0.59,0.51 0.58,0.52 0.59,0.53 0.58,0.52 0.59,0.52 0.58,0.52 0.59,0.5 0.58,0.49 0.59,0.47 0.58,0.47 0.59,0.45 0.58,0.44 0.59,0.44 0.58,0.43 0.59,0.42 0.58,0.41 0.59,0.41 0.58,0.41 0.59,0.4 0.58,0.39 0.59,0.38 0.58,0.37 0.59,0.36 0.58,0.35 0.59,0.34 0.58,0.32 0.59,0.31 0.58,0.3 0.59,0.29 0.58,0.28 0.59,0.28 0.58,0.28 0.59,0.28 L 0.29,2.6 0.88,2.89 1.46,3.17 2.05,3.46 2.63,3.74 3.22,4.02 3.8,4.29 4.39,4.54 4.97,4.78 5.56,5 6.14,5.2 6.73,5.37 7.31,5.53 7.9,5.66 l 0.58,0.12 0.59,0.1 0.58,0.09 0.59,0.08 0.58,0.07 0.59,0.07 0.58,0.07 0.59,0.07 0.58,0.07 0.59,0.07 0.58,0.07 0.59,0.08 0.58,0.09 0.59,0.09 0.58,0.09 0.59,0.1 0.58,0.11 0.59,0.11 0.58,0.12 0.59,0.13 0.58,0.13 0.59,0.14 0.58,0.14 0.59,0.14 0.58,0.14 0.59,0.14 0.58,0.13 0.59,0.13 0.58,0.12 0.59,0.11 0.58,0.1 0.59,0.09 0.58,0.08 0.59,0.07 0.58,0.05 0.59,0.05 0.58,0.03 0.59,0.03 0.58,0.02 0.59,0.02 0.58,0.01 0.59,0.01 h 0.58 l 0.58,0.01 h 0.59 0.58 0.59 l 0.58,0.01 h 0.59 0.58 0.59 l 0.58,0.01 h 0.59 l 0.58,0.01 0.59,0.01 h 0.58 l 0.59,0.02 0.58,0.01 0.59,0.01 0.58,0.01 0.59,0.02 0.58,0.01 0.59,0.01 0.58,0.02 0.59,0.01 0.58,0.01 0.59,0.01 0.58,0.01 0.59,0.01 0.58,0.01 0.59,0.01 0.58,0.01 0.59,0.01 0.58,0.02 0.59,0.01 0.58,0.02 0.59,0.02 0.58,0.01 0.59,0.02 0.58,0.02 0.59,0.02 0.58,0.02 0.59,0.02 0.58,0.02 0.59,0.02 0.58,0.02 0.59,0.02 0.58,0.02 0.59,0.02 0.58,0.02 0.59,0.02 0.58,0.02 0.59,0.01 0.58,0.02 0.59,0.01 0.58,0.01 0.59,0.01 0.58,0.01 0.59,0.01 h 0.58 l 0.59,0.01 h 0.58 0.59 0.58 0.59 l 0.58,0.01 h 0.59 0.58 0.59 0.58 0.59 0.58 0.59 0.58"
                 class="primitive"
                 id="path3447" />
            </g>
            <g
               transform="translate(77.25,88.24)"
               id="img-caeb64e2-38"
               stroke-dasharray="none"
               stroke="#b23aee"
               class="color_Area_3">
              <path
                 fill="none"
                 d="m -71.56,10.47 h 0.56 0.56 0.56 l 0.56,-0.01 h 0.56 l 0.56,-0.01 0.57,-0.01 0.56,-0.02 0.56,-0.03 0.56,-0.04 0.56,-0.07 0.56,-0.08 0.56,-0.12 0.57,-0.17 0.56,-0.22 0.56,-0.29 0.56,-0.37 0.56,-0.46 0.56,-0.58 0.56,-0.69 0.56,-0.82 0.57,-0.96 0.56,-1.09 0.56,-1.23 0.56,-1.34 0.56,-1.45 0.56,-1.53 0.56,-1.59 0.56,-1.61 0.57,-1.61 0.56,-1.57 0.56,-1.51 0.56,-1.42 0.56,-1.31 0.56,-1.18 0.56,-1.06 0.56,-0.91 0.57,-0.77 0.56,-0.64 0.56,-0.52 0.56,-0.39 0.56,-0.3 0.56,-0.2 0.56,-0.13 0.56,-0.06 h 0.57 l 0.56,0.03 0.56,0.06 0.56,0.08 0.56,0.08 0.56,0.08 0.56,0.06 0.56,0.05 0.57,0.01 h 0.56 l 0.56,-0.04 0.56,-0.07 0.56,-0.08 0.56,-0.11 0.56,-0.11 0.57,-0.11 0.56,-0.11 0.56,-0.09 0.56,-0.06 0.56,-0.03 h 0.56 l 0.56,0.04 0.56,0.09 0.57,0.12 0.56,0.16 0.56,0.19 0.56,0.22 0.56,0.23 0.56,0.24 0.56,0.25 0.56,0.23 0.57,0.22 0.56,0.2 0.56,0.17 0.56,0.13 0.56,0.1 0.56,0.06 0.56,0.03 h 0.56 l 0.57,-0.03 0.56,-0.05 0.56,-0.05 0.56,-0.05 0.56,-0.05 0.56,-0.02 0.56,0.01 0.56,0.04 0.57,0.08 0.56,0.13 0.56,0.19 0.56,0.23 0.56,0.29 0.56,0.34 0.56,0.39 0.56,0.43 0.57,0.48 0.56,0.5 0.56,0.54 0.56,0.56 0.56,0.57 0.56,0.58 0.56,0.58 0.57,0.58 0.56,0.57 0.56,0.55 0.56,0.54 0.56,0.52 0.56,0.49 0.56,0.48 0.56,0.46 0.57,0.44 0.56,0.42 0.56,0.42 0.56,0.4 0.56,0.4 0.56,0.39 0.56,0.39 0.56,0.38 0.57,0.39 0.56,0.39 0.56,0.39 0.56,0.4 0.56,0.4 0.56,0.4 0.56,0.4 0.56,0.4 0.57,0.41 0.56,0.41 0.56,0.41 0.56,0.4 0.56,0.41 0.56,0.39 0.56,0.39 0.56,0.38 0.57,0.37 0.56,0.37 0.56,0.34 0.56,0.34 0.56,0.32 0.56,0.31 0.56,0.3 0.56,0.27 0.57,0.26 0.56,0.25 0.56,0.23 0.56,0.2 0.56,0.2 0.56,0.17 0.56,0.16 0.57,0.14 0.56,0.13 0.56,0.12 0.56,0.1 0.56,0.09 0.56,0.09 0.56,0.07 0.56,0.07 0.57,0.05 0.56,0.05 0.56,0.04 0.56,0.02 0.56,0.02 0.56,0.02 h 0.56 0.56 0.57 L 24.98,9 h 0.56 L 26.1,8.99 h 0.56 l 0.56,0.01 0.56,0.01 0.56,0.02 0.57,0.03 0.56,0.03 0.56,0.03 0.56,0.04 0.56,0.04 0.56,0.04 0.56,0.04 0.56,0.04 0.57,0.03 0.56,0.03 0.56,0.02 0.56,0.01 0.56,0.02 h 0.56 l 0.56,0.01 0.56,0.01 0.57,0.01 0.56,0.02 0.56,0.02 0.56,0.02 0.56,0.04 0.56,0.03 0.56,0.05 0.57,0.05 0.56,0.05 0.56,0.05 0.56,0.06 0.56,0.05 0.56,0.05 0.56,0.05 0.56,0.04 0.57,0.05 0.56,0.03 0.56,0.03 0.56,0.03 0.56,0.02 0.56,0.02 0.56,0.01 0.56,0.02 0.57,0.01 0.56,0.01 0.56,0.01 h 0.56 l 0.56,0.01 0.56,0.01 0.56,0.01 h 0.56 l 0.57,0.01 0.56,0.01 0.56,0.01 0.56,0.01 0.56,0.01 0.56,0.02 0.56,0.01 0.56,0.01 0.57,0.01 0.56,0.01 0.56,0.01 0.56,0.01 h 0.56 l 0.56,0.01 h 0.56 l 0.56,0.01 h 0.57 0.56 l 0.56,0.01 h 0.56 0.56 0.56 0.56 0.57 0.56 0.56 0.56 0.56 0.56 0.56"
                 class="primitive"
                 id="path3450" />
            </g>
            <g
               transform="translate(77.8,87.28)"
               id="img-caeb64e2-39"
               stroke-dasharray="none"
               stroke="#4169e1"
               class="color_Area_2:_2x2">
              <path
                 fill="none"
                 d="m -65.52,11.43 h 0.51 0.51 l 0.52,-0.02 0.51,-0.02 0.51,-0.06 0.52,-0.1 0.51,-0.17 0.52,-0.31 0.51,-0.5 0.51,-0.79 0.52,-1.17 0.51,-1.66 0.52,-2.24 0.51,-2.91 0.51,-3.59 0.52,-4.23 0.51,-4.76 0.52,-5.12 0.51,-5.25 0.51,-5.15 0.52,-4.83 0.51,-4.35 0.52,-3.74 0.51,-3.09 0.51,-2.45 0.52,-1.87 0.51,-1.38 0.51,-0.98 0.52,-0.69 0.51,-0.46 0.52,-0.31 0.51,-0.21 0.51,-0.14 0.52,-0.08 0.51,-0.01 0.52,0.08 0.51,0.19 0.51,0.33 0.52,0.49 0.51,0.65 0.52,0.81 0.51,0.93 0.51,1.01 0.52,1.04 0.51,1.02 0.52,0.95 0.51,0.86 0.51,0.77 0.52,0.69 0.51,0.68 0.52,0.72 0.51,0.84 0.51,1.01 0.52,1.24 0.51,1.51 0.51,1.77 0.52,2.03 0.51,2.25 0.52,2.41 0.51,2.52 0.51,2.55 0.52,2.52 0.51,2.43 0.52,2.28 0.51,2.09 0.51,1.87 0.52,1.64 0.51,1.39 0.52,1.18 0.51,0.97 0.51,0.82 0.52,0.69 0.51,0.62 0.52,0.59 0.51,0.6 0.51,0.64 0.52,0.7 0.51,0.77 0.51,0.84 0.52,0.87 0.51,0.89 0.52,0.87 0.51,0.82 0.51,0.75 0.52,0.65 0.51,0.55 0.52,0.46 0.51,0.36 0.51,0.29 0.52,0.22 0.51,0.16 0.52,0.12 0.51,0.1 0.51,0.07 0.52,0.06 0.51,0.04 0.52,0.04 0.51,0.03 0.51,0.03 0.52,0.04 0.51,0.05 0.52,0.06 0.51,0.08 0.51,0.1 0.52,0.12 0.51,0.14 0.51,0.16 0.52,0.17 0.51,0.17 0.52,0.17 0.51,0.17 0.51,0.15 0.52,0.14 0.51,0.11 0.52,0.09 0.51,0.06 0.51,0.03 h 0.52 l 0.51,-0.02 0.52,-0.02 0.51,-0.02 0.51,-0.01 0.52,0.01 0.51,0.03 0.52,0.04 0.51,0.04 0.51,0.04 0.52,0.01 L 0.77,10.26 1.28,10.2 1.8,10.11 2.31,9.98 2.83,9.85 3.34,9.72 3.85,9.62 4.37,9.57 4.88,9.58 5.4,9.64 l 0.51,0.1 0.51,0.13 0.52,0.14 0.51,0.13 0.52,0.1 0.51,0.08 0.51,0.06 0.52,0.03 0.51,0.03 0.52,0.02 0.51,0.04 0.51,0.05 0.52,0.07 0.51,0.08 0.51,0.09 0.52,0.09 0.51,0.08 0.52,0.07 0.51,0.06 0.51,0.03 0.52,0.01 h 0.51 l 0.52,-0.02 0.51,-0.02 0.51,-0.01 0.52,-0.01 0.51,0.01 0.52,0.02 0.51,0.03 0.51,0.04 0.52,0.04 0.51,0.03 0.52,0.03 0.51,0.01 0.51,-0.01 0.52,-0.02 0.51,-0.03 0.52,-0.03 0.51,-0.04 0.51,-0.04 0.52,-0.02 0.51,-0.01 h 0.51 l 0.52,0.03 0.51,0.03 0.52,0.04 0.51,0.05 0.51,0.05 0.52,0.04 0.51,0.03 0.52,0.03 0.51,0.02 0.51,0.01 0.52,0.01 0.51,0.01 h 0.52 0.51 l 0.51,0.01 h 0.52 0.51 0.52 0.51 0.51 0.52 0.51 0.51 0.52 0.51 0.52 0.51 0.51 0.52 0.51 0.52 0.51 0.51 0.52 0.51 0.52 0.51 0.51 0.52 0.51 l 0.52,-0.01 h 0.51 0.51 l 0.52,-0.01 0.51,-0.01 0.52,-0.01 0.51,-0.02 0.51,-0.03 0.52,-0.03 0.51,-0.04 0.51,-0.05 0.52,-0.05 0.51,-0.04 0.52,-0.03 0.51,-0.03 h 0.51 l 0.52,0.01 0.51,0.03 0.52,0.04 0.51,0.04 0.51,0.05 0.52,0.04 0.51,0.04 0.52,0.04 0.51,0.02 0.51,0.02 0.52,0.01 0.51,0.01 h 0.52 0.51 0.51 l 0.52,0.01 h 0.51 0.51"
                 class="primitive"
                 id="path3453" />
            </g>
            <g
               transform="translate(93.03,89.63)"
               id="img-caeb64e2-40"
               stroke-dasharray="none"
               stroke="#00cd66"
               class="color_Area_4">
              <path
                 fill="none"
                 d="m -82.51,9.08 h 0.64 l 0.65,-0.01 0.65,-0.01 0.65,-0.03 0.64,-0.05 0.65,-0.1 0.65,-0.19 0.64,-0.32 0.65,-0.53 0.65,-0.84 0.65,-1.23 0.64,-1.72 0.65,-2.3 0.65,-2.9 0.64,-3.48 0.65,-3.96 0.65,-4.28 0.65,-4.39 0.64,-4.29 0.65,-3.97 0.65,-3.5 0.65,-2.95 0.64,-2.36 0.65,-1.81 0.65,-1.32 0.64,-0.93 0.65,-0.62 0.65,-0.39 0.65,-0.22 0.64,-0.07 0.65,0.06 0.65,0.18 0.64,0.3 0.65,0.41 0.65,0.49 0.65,0.53 0.64,0.51 0.65,0.44 0.65,0.31 0.64,0.16 0.65,-0.01 0.65,-0.14 0.65,-0.23 0.64,-0.24 0.65,-0.18 0.65,-0.05 0.64,0.13 0.65,0.34 0.65,0.58 0.65,0.82 0.64,1.05 0.65,1.27 0.65,1.46 0.64,1.64 0.65,1.8 0.65,1.93 0.65,2.02 0.64,2.07 0.65,2.08 0.65,2.04 0.64,1.96 0.65,1.84 0.65,1.69 0.65,1.53 0.64,1.38 0.65,1.25 0.65,1.12 0.64,1.05 0.65,0.98 0.65,0.94 0.65,0.9 0.64,0.86 0.65,0.82 0.65,0.78 0.64,0.73 0.65,0.69 0.65,0.63 0.65,0.57 0.64,0.5 0.65,0.42 0.65,0.34 0.64,0.27 0.65,0.22 0.65,0.18 0.65,0.15 0.64,0.15 0.65,0.15 0.65,0.16 0.64,0.17 0.65,0.19 0.65,0.2 0.65,0.21 0.64,0.23 0.65,0.25 0.65,0.25 0.64,0.25 0.65,0.25 0.65,0.24 0.65,0.22 0.64,0.2 0.65,0.18 0.65,0.14 0.64,0.11 0.65,0.08 0.65,0.04 0.65,0.02 h 0.64 l 0.65,-0.01 0.65,-0.01 h 0.64 l 0.65,0.02 0.65,0.04 0.65,0.07 0.64,0.09 0.65,0.11 0.65,0.13 0.64,0.13 0.65,0.14 0.65,0.13 0.65,0.12 0.64,0.1 0.65,0.08 0.65,0.05 0.64,0.04 0.65,0.01 0.65,0.01 h 0.65 0.64 0.65 0.65 L 2.27,8.83 2.91,8.84 3.56,8.85 H 4.21 L 4.85,8.84 H 5.5 L 6.15,8.83 6.8,8.82 h 0.64 0.65 l 0.65,0.01 0.64,0.01 0.65,0.01 0.65,0.01 0.65,-0.01 h 0.64 L 12.62,8.83 13.27,8.82 13.91,8.81 14.56,8.8 h 0.65 0.65 0.64 0.65 0.65 0.64 0.65 0.65 0.65 0.64 l 0.65,0.01 0.65,-0.01 0.64,-0.02 0.65,-0.02 0.65,-0.04 0.65,-0.04 0.64,-0.04 0.65,-0.03 0.65,-0.01 0.64,0.01 0.65,0.04 0.65,0.05 0.65,0.06 0.64,0.07 0.65,0.06 0.65,0.06 0.64,0.04 0.65,0.03 0.65,0.03 0.65,0.01 0.64,0.01 0.65,0.01 h 0.65 0.64 0.65 0.65 0.65 0.64 0.65 0.65 0.64 l 0.65,-0.01 0.65,-0.01 0.65,-0.01 0.64,-0.02 0.65,-0.02 0.65,-0.03 0.64,-0.03 0.65,-0.03 0.65,-0.03 0.65,-0.03 0.64,-0.01 h 0.65 l 0.65,0.01 0.64,0.02 0.65,0.03 0.65,0.03 0.65,0.03 0.64,0.03 0.65,0.03 0.65,0.02 0.64,0.01 0.65,0.01 h 0.65 l 0.65,0.01 h 0.64 0.65 0.65 0.64 0.65 0.65 0.65 0.64 0.65 0.65 l 0.64,-0.01 0.65,-0.01 0.65,-0.01 0.65,-0.03 0.64,-0.03 0.65,-0.05 0.65,-0.05 0.64,-0.06 0.65,-0.07 0.65,-0.06 0.65,-0.05 0.64,-0.03 0.65,-0.01 0.65,0.02 0.65,0.04 0.64,0.06 0.65,0.06 0.65,0.07 0.64,0.06 0.65,0.05 0.65,0.04 0.65,0.02 0.64,0.02 0.65,0.02 h 0.65 l 0.64,0.01 h 0.65 0.65 0.65 0.64"
                 class="primitive"
                 id="path3456" />
            </g>
            <g
               transform="translate(48.03,76.44)"
               id="img-caeb64e2-41"
               stroke-dasharray="none"
               stroke="#404040"
               class="color_Area_2:_4x4">
              <path
                 fill="none"
                 d="m -33.65,22.27 h 0.27 l 0.26,-0.01 h 0.27 l 0.26,-0.01 0.26,-0.01 0.27,-0.03 0.26,-0.03 0.26,-0.06 0.27,-0.09 0.26,-0.13 0.27,-0.18 0.26,-0.27 0.26,-0.37 0.27,-0.5 0.26,-0.67 0.27,-0.88 0.26,-1.12 0.26,-1.4 0.27,-1.73 0.26,-2.08 0.27,-2.45 0.26,-2.82 0.26,-3.2 0.27,-3.54 0.26,-3.84 0.26,-4.09 0.27,-4.26 0.26,-4.35 0.27,-4.36 0.26,-4.28 0.26,-4.12 0.27,-3.9 0.26,-3.61 0.27,-3.29 0.26,-2.94 0.26,-2.59 0.27,-2.24 0.26,-1.91 0.27,-1.6 0.26,-1.34 0.26,-1.09 0.27,-0.89 0.26,-0.72 0.26,-0.57 0.27,-0.46 0.26,-0.35 0.27,-0.27 0.26,-0.2 0.26,-0.15 0.27,-0.11 0.26,-0.09 0.27,-0.06 0.26,-0.06 0.26,-0.05 0.27,-0.06 0.26,-0.07 0.27,-0.08 0.26,-0.08 0.26,-0.08 0.27,-0.07 0.26,-0.06 0.26,-0.02 0.27,0.03 0.26,0.09 0.27,0.17 0.26,0.27 0.26,0.38 0.27,0.5 0.26,0.63 0.27,0.77 0.26,0.91 0.26,1.05 0.27,1.17 0.26,1.3 0.27,1.38 0.26,1.47 0.26,1.52 0.27,1.54 0.26,1.55 0.26,1.52 0.27,1.48 0.26,1.42 0.27,1.35 0.26,1.28 0.26,1.21 0.27,1.16 0.26,1.11 0.27,1.1 0.26,1.11 0.26,1.13 0.27,1.18 0.26,1.24 0.27,1.32 0.26,1.39 0.26,1.47 0.27,1.53 0.26,1.58 0.27,1.61 0.26,1.61 0.26,1.61 0.27,1.57 0.26,1.52 0.26,1.47 0.27,1.42 0.26,1.35 0.27,1.31 0.26,1.25 0.26,1.23 0.27,1.2 0.26,1.18 0.27,1.18 0.26,1.17 0.26,1.17 0.27,1.16 0.26,1.15 0.27,1.14 0.26,1.11 0.26,1.07 0.27,1.02 0.26,0.97 0.26,0.91 0.27,0.84 0.26,0.76 0.27,0.69 0.26,0.62 0.26,0.54 0.27,0.46 0.26,0.41 0.27,0.34 0.26,0.3 0.26,0.26 0.27,0.23 0.26,0.21 0.27,0.21 0.26,0.21 0.26,0.23 0.27,0.23 0.26,0.26 0.26,0.27 0.27,0.29 0.26,0.3 0.27,0.3 0.26,0.3 0.26,0.3 0.27,0.28 0.26,0.26 0.27,0.24 0.26,0.21 0.26,0.17 0.27,0.15 0.26,0.12 0.27,0.09 0.26,0.06 0.26,0.04 0.27,0.03 0.26,0.01 H 7.78 L 8.05,21.28 8.31,21.26 8.58,21.24 8.84,21.21 9.1,21.18 9.37,21.16 9.63,21.13 9.9,21.1 l 0.26,-0.03 0.26,-0.02 0.27,-0.02 0.26,-0.01 0.27,-0.01 h 0.26 l 0.26,0.01 0.27,0.02 0.26,0.02 0.27,0.02 0.26,0.04 0.26,0.03 0.27,0.04 0.26,0.04 0.26,0.04 0.27,0.05 0.26,0.06 0.27,0.05 0.26,0.06 0.26,0.07 0.27,0.06 0.26,0.07 0.27,0.07 0.26,0.07 0.26,0.07 0.27,0.06 0.26,0.05 0.27,0.05 0.26,0.05 0.26,0.03 0.27,0.03 0.26,0.03 0.26,0.02 0.27,0.01 0.26,0.01 0.27,0.01 0.26,0.01 h 0.26 0.27 l 0.26,0.01 h 0.27 l 0.26,-0.01 h 0.26 0.27 l 0.26,-0.01 0.27,-0.01 0.26,-0.01 0.26,-0.02 0.27,-0.02 0.26,-0.03 0.26,-0.03 0.27,-0.04 0.26,-0.04 0.27,-0.05 0.26,-0.05 0.26,-0.05 0.27,-0.05 0.26,-0.05 0.27,-0.04 0.26,-0.04 0.26,-0.02 0.27,-0.01 h 0.26 l 0.27,0.01 0.26,0.02 0.26,0.04 0.27,0.04 0.26,0.04 0.26,0.05 0.27,0.06 0.26,0.05 0.27,0.04 0.26,0.05 0.26,0.04 0.27,0.03 0.26,0.03 0.27,0.02 0.26,0.01 0.26,0.02 0.27,0.01 0.26,0.01 h 0.27 0.26 l 0.26,0.01 h 0.27 0.26 0.26 0.27 0.26 0.27"
                 class="primitive"
                 id="path3459" />
            </g>
          </g>
        </g>
      </g>
    </g>
    <g
       class="guide ylabels"
       font-size="2.82px"
       font-family="'PT Sans Caption', 'Helvetica Neue', Helvetica, sans-serif"
       fill="#6c606b"
       id="img-caeb64e2-42">
      <g
         transform="translate(18.63,98.71)"
         id="img-caeb64e2-43">
        <g
           class="primitive"
           id="g3469">
          <text
             text-anchor="end"
             dy="0.34999999em"
             id="text3467">0</text>
        </g>
      </g>
      <g
         transform="translate(18.63,75.79)"
         id="img-caeb64e2-44">
        <g
           class="primitive"
           id="g3474">
          <text
             text-anchor="end"
             dy="0.34999999em"
             id="text3472">50</text>
        </g>
      </g>
      <g
         transform="translate(18.63,52.86)"
         id="img-caeb64e2-45">
        <g
           class="primitive"
           id="g3479">
          <text
             text-anchor="end"
             dy="0.34999999em"
             id="text3477">100</text>
        </g>
      </g>
      <g
         transform="translate(18.63,29.93)"
         id="img-caeb64e2-46">
        <g
           class="primitive"
           id="g3484">
          <text
             text-anchor="end"
             dy="0.34999999em"
             id="text3482">150</text>
        </g>
      </g>
      <g
         transform="translate(18.63,7)"
         id="img-caeb64e2-47">
        <g
           class="primitive"
           id="g3489">
          <text
             text-anchor="end"
             dy="0.34999999em"
             id="text3487">200</text>
        </g>
      </g>
    </g>
    <g
       font-size="3.88px"
       font-family="'PT Sans', 'Helvetica Neue', Helvetica, sans-serif"
       fill="#564a55"
       stroke="#000000"
       stroke-opacity="0"
       id="img-caeb64e2-48">
      <g
         transform="translate(8.81,50.86)"
         id="img-caeb64e2-49">
        <g
           class="primitive"
           id="g3495">
          <text
             text-anchor="middle"
             dy="0.34999999em"
             transform="rotate(-90,0,2)"
             id="text3493">Density</text>
        </g>
      </g>
    </g>
  </g>
  <defs
     id="defs3503">
    <clipPath
       id="img-caeb64e2-19">
      <path
         d="m 19.63,5 h 157.91 v 95.72 H 19.63"
         id="path3500" />
    </clipPath>
  </defs>
</svg>
