<?xml version="1.0" encoding="UTF-8" standalone="no"?>
<svg
   version="1.2"
   width="172.35052mm"
   height="105.9262mm"
   viewBox="0 0 172.35052 105.9262"
   stroke="none"
   fill="#000000"
   stroke-width="0.3"
   font-size="3.88px"
   id="svg2139"
   sodipodi:docname="pheromone-plot-proportional-run-02.svg"
   inkscape:version="1.1.1 (3bf5ae0d25, 2021-09-20)"
   xmlns:inkscape="http://www.inkscape.org/namespaces/inkscape"
   xmlns:sodipodi="http://sodipodi.sourceforge.net/DTD/sodipodi-0.dtd"
   xmlns="http://www.w3.org/2000/svg"
   xmlns:svg="http://www.w3.org/2000/svg">
  <sodipodi:namedview
     id="namedview2141"
     pagecolor="#505050"
     bordercolor="#eeeeee"
     borderopacity="1"
     inkscape:pageshadow="0"
     inkscape:pageopacity="0"
     inkscape:pagecheckerboard="0"
     inkscape:document-units="mm"
     showgrid="false"
     inkscape:zoom="1.6748125"
     inkscape:cx="409.29955"
     inkscape:cy="208.08299"
     inkscape:window-width="1920"
     inkscape:window-height="1050"
     inkscape:window-x="0"
     inkscape:window-y="0"
     inkscape:window-maximized="1"
     inkscape:current-layer="img-5484df24-1" />
  <defs
     id="defs1963">
    <marker
       id="arrow"
       markerWidth="15"
       markerHeight="7"
       refX="5"
       refY="3.5"
       orient="auto"
       markerUnits="strokeWidth">
      <path
         d="M 0,0 15,3.5 0,7 Z"
         stroke="context-stroke"
         fill="context-stroke"
         id="path1960" />
    </marker>
  </defs>
  <g
     class="plotroot xscalable yscalable"
     id="img-5484df24-1"
     transform="translate(-5.18948,-5)">
    <g
       font-size="3.88px"
       font-family="'PT Sans', 'Helvetica Neue', Helvetica, sans-serif"
       fill="#564a55"
       stroke="#000000"
       stroke-opacity="0"
       id="img-5484df24-2">
      <g
         transform="translate(98.59,108.39)"
         id="g1969">
        <g
           class="primitive"
           id="g1967">
          <text
             text-anchor="middle"
             dy="0.60000002em"
             id="text1965">Pheromone Value</text>
        </g>
      </g>
    </g>
    <g
       class="guide xlabels"
       font-size="2.82px"
       font-family="'PT Sans Caption', 'Helvetica Neue', Helvetica, sans-serif"
       fill="#6c606b"
       id="img-5484df24-3">
      <g
         transform="translate(21.63,101.72)"
         id="g1976">
        <g
           class="primitive"
           id="g1974">
          <text
             text-anchor="middle"
             dy="0.60000002em"
             id="text1972">0.00</text>
        </g>
      </g>
      <g
         transform="translate(65.2,101.72)"
         id="g1982">
        <g
           class="primitive"
           id="g1980">
          <text
             text-anchor="middle"
             dy="0.60000002em"
             id="text1978">0.02</text>
        </g>
      </g>
      <g
         transform="translate(108.76,101.72)"
         id="g1988">
        <g
           class="primitive"
           id="g1986">
          <text
             text-anchor="middle"
             dy="0.60000002em"
             id="text1984">0.04</text>
        </g>
      </g>
      <g
         transform="translate(152.33,101.72)"
         id="g1994">
        <g
           class="primitive"
           id="g1992">
          <text
             text-anchor="middle"
             dy="0.60000002em"
             id="text1990">0.06</text>
        </g>
      </g>
    </g>
    <g
       class="guide colorkey"
       id="img-5484df24-4"
       transform="translate(-23.60875,-10.723563)">
      <g
         fill="#4c404b"
         font-size="2.82px"
         font-family="'PT Sans', 'Helvetica Neue', Helvetica, sans-serif"
         id="img-5484df24-5">
        <g
           transform="translate(181.35,47.42)"
           id="img-5484df24-6"
           class="color_Area_1">
          <g
             class="primitive"
             id="g1999">
            <text
               dy="0.34999999em"
               id="text1997">Area 1</text>
          </g>
        </g>
        <g
           transform="translate(181.35,51.04)"
           id="img-5484df24-7"
           class="color_Area_2:_2x2">
          <g
             class="primitive"
             id="g2004">
            <text
               dy="0.34999999em"
               id="text2002">Area 2: 2x2</text>
          </g>
        </g>
        <g
           transform="translate(181.35,54.67)"
           id="img-5484df24-8"
           class="color_Area_2:_4x4">
          <g
             class="primitive"
             id="g2009">
            <text
               dy="0.34999999em"
               id="text2007">Area 2: 4x4</text>
          </g>
        </g>
        <g
           transform="translate(181.35,58.3)"
           id="img-5484df24-9"
           class="color_Area_3">
          <g
             class="primitive"
             id="g2014">
            <text
               dy="0.34999999em"
               id="text2012">Area 3</text>
          </g>
        </g>
        <g
           transform="translate(181.35,61.92)"
           id="img-5484df24-10"
           class="color_Area_4">
          <g
             class="primitive"
             id="g2019">
            <text
               dy="0.34999999em"
               id="text2017">Area 4</text>
          </g>
        </g>
      </g>
      <g
         fill-opacity="1"
         id="img-5484df24-11">
        <g
           transform="translate(179.45,47.42)"
           id="img-5484df24-12"
           stroke="#ffffff"
           class="color_Area_1"
           fill="#ff6347">
          <path
             d="M -0.91,-0.91 H 0.91 V 0.91 H -0.91 Z"
             class="primitive"
             id="path2023" />
        </g>
        <g
           transform="translate(179.45,51.04)"
           id="img-5484df24-13"
           stroke="#ffffff"
           class="color_Area_2:_2x2"
           fill="#4169e1">
          <path
             d="M -0.91,-0.91 H 0.91 V 0.91 H -0.91 Z"
             class="primitive"
             id="path2026" />
        </g>
        <g
           transform="translate(179.45,54.67)"
           id="img-5484df24-14"
           stroke="#ffffff"
           class="color_Area_2:_4x4"
           fill="#404040">
          <path
             d="M -0.91,-0.91 H 0.91 V 0.91 H -0.91 Z"
             class="primitive"
             id="path2029" />
        </g>
        <g
           transform="translate(179.45,58.3)"
           id="img-5484df24-15"
           stroke="#ffffff"
           class="color_Area_3"
           fill="#b23aee">
          <path
             d="M -0.91,-0.91 H 0.91 V 0.91 H -0.91 Z"
             class="primitive"
             id="path2032" />
        </g>
        <g
           transform="translate(179.45,61.92)"
           id="img-5484df24-16"
           stroke="#ffffff"
           class="color_Area_4"
           fill="#00cd66">
          <path
             d="M -0.91,-0.91 H 0.91 V 0.91 H -0.91 Z"
             class="primitive"
             id="path2035" />
        </g>
      </g>
      <g
         fill="#362a35"
         font-size="3.88px"
         font-family="'PT Sans', 'Helvetica Neue', Helvetica, sans-serif"
         stroke="#000000"
         stroke-opacity="0"
         id="img-5484df24-17">
        <g
           transform="translate(178.54,43.6)"
           id="img-5484df24-18">
          <g
             class="primitive"
             id="g2041">
            <text
               dy="0em"
               id="text2039">Area</text>
          </g>
        </g>
      </g>
    </g>
    <g
       clip-path="url(#img-5484df24-19)"
       id="g2099">
      <g
         id="img-5484df24-20">
        <g
           pointer-events="visible"
           stroke-width="0.3"
           fill="#000000"
           fill-opacity="0"
           stroke="#000000"
           stroke-opacity="0"
           class="guide background"
           id="img-5484df24-21">
          <g
             transform="translate(98.59,52.86)"
             id="img-5484df24-22">
            <path
               d="M -78.95,-47.86 H 78.95 V 47.86 H -78.95 Z"
               class="primitive"
               id="path2046" />
          </g>
        </g>
        <g
           class="guide ygridlines xfixed"
           stroke-dasharray="0.5, 0.5"
           stroke-width="0.2"
           stroke="#d0d0e0"
           id="img-5484df24-23">
          <g
             transform="translate(98.59,98.71)"
             id="img-5484df24-24">
            <path
               fill="none"
               d="M -78.95,0 H 78.95"
               class="primitive"
               id="path2050" />
          </g>
          <g
             transform="translate(98.59,75.79)"
             id="img-5484df24-25">
            <path
               fill="none"
               d="M -78.95,0 H 78.95"
               class="primitive"
               id="path2053" />
          </g>
          <g
             transform="translate(98.59,52.86)"
             id="img-5484df24-26">
            <path
               fill="none"
               d="M -78.95,0 H 78.95"
               class="primitive"
               id="path2056" />
          </g>
          <g
             transform="translate(98.59,29.93)"
             id="img-5484df24-27">
            <path
               fill="none"
               d="M -78.95,0 H 78.95"
               class="primitive"
               id="path2059" />
          </g>
          <g
             transform="translate(98.59,7)"
             id="img-5484df24-28">
            <path
               fill="none"
               d="M -78.95,0 H 78.95"
               class="primitive"
               id="path2062" />
          </g>
        </g>
        <g
           class="guide xgridlines yfixed"
           stroke-dasharray="0.5, 0.5"
           stroke-width="0.2"
           stroke="#d0d0e0"
           id="img-5484df24-29">
          <g
             transform="translate(21.63,52.86)"
             id="img-5484df24-30">
            <path
               fill="none"
               d="M 0,-47.86 V 47.86"
               class="primitive"
               id="path2066" />
          </g>
          <g
             transform="translate(65.2,52.86)"
             id="img-5484df24-31">
            <path
               fill="none"
               d="M 0,-47.86 V 47.86"
               class="primitive"
               id="path2069" />
          </g>
          <g
             transform="translate(108.76,52.86)"
             id="img-5484df24-32">
            <path
               fill="none"
               d="M 0,-47.86 V 47.86"
               class="primitive"
               id="path2072" />
          </g>
          <g
             transform="translate(152.33,52.86)"
             id="img-5484df24-33">
            <path
               fill="none"
               d="M 0,-47.86 V 47.86"
               class="primitive"
               id="path2075" />
          </g>
        </g>
        <g
           class="plotpanel"
           id="img-5484df24-34">
          <metadata
             id="metadata2079">
            <boundingbox
               value="19.63166666666669mm 5.0mm 157.90833333333333mm 95.715mm" />
            <unitbox
               value="-0.000918179191609629 204.3613367497138 0.07249407292421191 -208.7226734994276" />
          </metadata>
          <g
             stroke-width="0.3"
             fill="#000000"
             fill-opacity="0"
             class="geometry"
             id="img-5484df24-35">
            <g
               transform="translate(68.79,90.13)"
               id="img-5484df24-36"
               stroke-dasharray="none"
               stroke="#ff6347"
               class="color_Area_1">
              <path
                 fill="none"
                 d="m -57.95,8.58 h 0.46 0.45 0.46 l 0.45,-0.01 0.46,-0.01 0.45,-0.02 0.46,-0.03 0.45,-0.04 0.46,-0.08 0.45,-0.11 0.45,-0.17 0.46,-0.25 0.45,-0.34 0.46,-0.47 0.45,-0.61 0.46,-0.79 0.45,-0.99 0.46,-1.21 0.45,-1.43 0.45,-1.64 0.46,-1.84 0.45,-2 0.46,-2.12 0.45,-2.19 0.46,-2.19 0.45,-2.14 0.46,-2.02 0.45,-1.88 0.45,-1.67 0.46,-1.47 0.45,-1.23 0.46,-1.01 0.45,-0.79 0.46,-0.6 0.45,-0.42 0.46,-0.27 0.45,-0.15 0.45,-0.04 0.46,0.02 0.45,0.07 0.46,0.1 0.45,0.1 0.46,0.09 0.45,0.05 0.46,0.02 0.45,-0.03 0.46,-0.07 0.45,-0.11 0.45,-0.13 0.46,-0.15 0.45,-0.13 0.46,-0.1 0.45,-0.07 h 0.46 l 0.45,0.07 0.46,0.15 0.45,0.22 0.45,0.31 0.46,0.38 0.45,0.45 0.46,0.51 0.45,0.54 0.46,0.58 0.45,0.58 0.46,0.59 0.45,0.58 0.45,0.57 0.46,0.55 0.45,0.52 0.46,0.52 0.45,0.5 0.46,0.5 0.45,0.51 0.46,0.52 0.45,0.55 0.45,0.56 0.46,0.59 0.45,0.61 0.46,0.63 0.45,0.65 0.46,0.65 0.45,0.65 0.46,0.65 0.45,0.64 0.45,0.63 0.46,0.61 0.45,0.6 0.46,0.59 0.45,0.57 0.46,0.56 0.45,0.54 0.46,0.54 0.45,0.52 0.46,0.51 0.45,0.5 0.45,0.49 0.46,0.48 0.45,0.47 0.46,0.45 0.45,0.42 0.46,0.41 0.45,0.38 0.46,0.36 0.45,0.33 0.45,0.29 0.46,0.27 0.45,0.24 0.46,0.21 0.45,0.19 0.46,0.17 0.45,0.15 0.46,0.13 0.45,0.12 0.45,0.12 0.46,0.11 0.45,0.11 0.46,0.12 0.45,0.12 0.46,0.13 0.45,0.15 0.46,0.15 0.45,0.17 0.45,0.17 0.46,0.18 0.45,0.18 0.46,0.18 0.45,0.18 L 0.23,5.3 0.68,5.44 1.14,5.57 1.59,5.68 2.05,5.77 2.5,5.84 2.95,5.89 3.41,5.93 3.86,5.95 4.32,5.96 H 4.77 5.23 5.68 6.14 L 6.59,5.97 7.04,6 7.5,6.04 7.95,6.1 l 0.46,0.07 0.45,0.09 0.46,0.1 0.45,0.11 0.46,0.11 0.45,0.12 0.45,0.12 0.46,0.11 0.45,0.11 0.46,0.11 0.45,0.1 0.46,0.09 0.45,0.09 0.46,0.08 0.45,0.09 0.45,0.08 0.46,0.09 0.45,0.08 0.46,0.09 0.45,0.09 0.46,0.08 0.45,0.07 0.46,0.07 0.45,0.06 0.46,0.05 0.45,0.04 0.45,0.03 0.46,0.03 0.45,0.01 h 0.46 0.45 0.46 L 22.95,8.46 23.41,8.45 23.86,8.43 24.31,8.42 24.77,8.41 25.22,8.4 25.68,8.39 26.13,8.38 h 0.46 l 0.45,-0.01 h 0.46 0.45 L 28.4,8.36 h 0.46 l 0.45,-0.01 h 0.46 L 30.22,8.34 30.68,8.33 31.13,8.32 31.59,8.31 32.04,8.3 h 0.45 l 0.46,-0.01 h 0.45 l 0.46,0.01 h 0.45 l 0.46,0.02 0.45,0.01 0.46,0.02 0.45,0.03 0.45,0.02 0.46,0.03 0.45,0.02 0.46,0.03 0.45,0.02 0.46,0.02 0.45,0.01 0.46,0.01 0.45,0.01 0.46,0.01 h 0.45 0.45 0.46 0.45 L 42.95,8.55 43.4,8.54 43.86,8.53 44.31,8.52 44.77,8.51 45.22,8.5 45.67,8.49 46.13,8.48 h 0.45 0.46 0.45 0.46 l 0.45,0.01 0.46,0.01 0.45,0.01 0.45,0.01 0.46,0.01 0.45,0.01 0.46,0.01 0.45,0.01 h 0.46 l 0.45,0.01 h 0.46 l 0.45,0.01 h 0.45 0.46 0.45 0.46 0.45 l 0.46,0.01 h 0.45 0.46 0.45 0.46"
                 class="primitive"
                 id="path2081" />
            </g>
            <g
               transform="translate(60.45,88.66)"
               id="img-5484df24-37"
               stroke-dasharray="none"
               stroke="#b23aee"
               class="color_Area_3">
              <path
                 fill="none"
                 d="m -49.49,10.05 h 0.39 0.39 0.39 l 0.38,-0.01 h 0.39 l 0.39,-0.01 0.39,-0.02 0.39,-0.02 0.39,-0.03 0.38,-0.05 0.39,-0.08 0.39,-0.1 0.39,-0.15 0.39,-0.19 0.38,-0.27 0.39,-0.34 0.39,-0.45 0.39,-0.55 0.39,-0.68 0.38,-0.82 0.39,-0.96 0.39,-1.11 0.39,-1.25 0.39,-1.39 0.39,-1.5 0.38,-1.59 0.39,-1.66 0.39,-1.7 0.39,-1.68 0.39,-1.66 0.38,-1.58 0.39,-1.48 0.39,-1.37 0.39,-1.22 0.39,-1.08 0.38,-0.93 0.39,-0.78 0.39,-0.64 0.39,-0.5 0.39,-0.38 0.39,-0.27 0.38,-0.18 0.39,-0.1 0.39,-0.03 0.39,0.02 0.39,0.05 0.38,0.07 0.39,0.08 0.39,0.08 0.39,0.07 0.39,0.05 0.39,0.02 0.38,-0.01 0.39,-0.04 0.39,-0.07 0.39,-0.09 0.39,-0.11 0.38,-0.11 0.39,-0.12 0.39,-0.1 0.39,-0.08 0.39,-0.06 0.38,-0.02 0.39,0.03 0.39,0.06 0.39,0.11 0.39,0.15 0.39,0.18 0.38,0.22 0.39,0.23 0.39,0.25 0.39,0.26 0.39,0.24 0.38,0.23 0.39,0.21 0.39,0.17 0.39,0.14 0.39,0.1 0.39,0.06 0.38,0.03 h 0.39 l 0.39,-0.02 0.39,-0.04 0.39,-0.04 0.38,-0.04 0.39,-0.02 h 0.39 l 0.39,0.03 0.39,0.08 0.38,0.12 0.39,0.17 0.39,0.22 0.39,0.27 0.39,0.33 0.39,0.38 0.38,0.43 0.39,0.48 0.39,0.52 0.39,0.57 0.39,0.61 0.38,0.64 0.39,0.67 0.39,0.69 0.39,0.72 0.39,0.72 0.38,0.73 0.39,0.73 0.39,0.72 0.39,0.7 0.39,0.69 0.39,0.66 0.38,0.63 0.39,0.6 0.39,0.57 0.39,0.53 0.39,0.5 0.38,0.46 0.39,0.44 0.39,0.4 0.39,0.39 0.39,0.36 0.39,0.34 0.38,0.32 0.39,0.31 0.39,0.3 0.39,0.29 0.39,0.28 L 0.19,2.25 0.58,2.51 0.97,2.76 1.36,3 1.75,3.23 2.13,3.45 2.52,3.67 2.91,3.88 3.3,4.09 3.69,4.3 4.08,4.51 4.46,4.73 4.85,4.94 5.24,5.17 5.63,5.39 6.02,5.63 6.4,5.86 6.79,6.1 l 0.39,0.24 0.39,0.23 0.39,0.24 0.39,0.22 0.38,0.22 0.39,0.21 0.39,0.2 0.39,0.19 0.39,0.17 0.38,0.17 0.39,0.15 0.39,0.14 0.39,0.12 0.39,0.11 0.38,0.1 0.39,0.09 0.39,0.07 0.39,0.07 0.39,0.05 0.39,0.05 0.38,0.05 0.39,0.04 0.39,0.04 0.39,0.04 0.39,0.03 0.38,0.03 0.39,0.03 0.39,0.03 0.39,0.03 0.39,0.03 0.38,0.02 0.39,0.02 0.39,0.02 0.39,0.01 0.39,0.01 0.39,0.01 0.38,0.01 h 0.39 0.39 l 0.39,-0.01 h 0.39 L 23.09,9.57 23.48,9.55 23.87,9.54 24.26,9.52 24.65,9.49 25.04,9.47 25.42,9.45 25.81,9.42 26.2,9.4 26.59,9.38 26.98,9.36 27.36,9.35 h 0.39 0.39 0.39 l 0.39,0.01 0.38,0.02 0.39,0.02 0.39,0.02 0.39,0.02 0.39,0.02 0.39,0.02 0.38,0.02 0.39,0.01 0.39,0.01 0.39,0.01 h 0.39 l 0.38,0.01 h 0.39 l 0.39,0.01 h 0.39 l 0.39,0.01 0.39,0.01 0.38,0.02 0.39,0.01 0.39,0.02 0.39,0.03 0.39,0.02 0.38,0.03 0.39,0.03 0.39,0.03 0.39,0.03 0.39,0.03 0.38,0.03 0.39,0.03 0.39,0.02 0.39,0.03 0.39,0.02 0.39,0.02 0.38,0.01 0.39,0.02 0.39,0.01 0.39,0.01 0.39,0.01 h 0.38 l 0.39,0.01 h 0.39 l 0.39,0.01 h 0.39 0.38 0.39 0.39 0.39 0.39 0.39 0.38 0.39 0.39 0.39"
                 class="primitive"
                 id="path2084" />
            </g>
            <g
               transform="translate(45.81,82.17)"
               id="img-5484df24-38"
               stroke-dasharray="none"
               stroke="#4169e1"
               class="color_Area_2:_2x2">
              <path
                 fill="none"
                 d="m -30.07,16.54 h 0.24 0.24 l 0.23,-0.01 h 0.24 l 0.23,-0.02 0.24,-0.03 0.23,-0.04 0.24,-0.07 0.24,-0.11 0.23,-0.16 0.24,-0.24 0.23,-0.35 0.24,-0.48 0.23,-0.66 0.24,-0.87 0.24,-1.14 0.23,-1.43 0.24,-1.77 0.23,-2.12 0.24,-2.49 0.24,-2.86 0.23,-3.18 0.24,-3.47 0.23,-3.68 0.24,-3.82 0.23,-3.86 0.24,-3.82 0.24,-3.68 0.23,-3.47 0.24,-3.2 0.23,-2.87 0.24,-2.54 0.24,-2.18 0.23,-1.84 0.24,-1.53 0.23,-1.23 0.24,-0.99 0.23,-0.77 0.24,-0.6 0.24,-0.45 0.23,-0.34 0.24,-0.26 0.23,-0.2 0.24,-0.15 0.24,-0.12 0.23,-0.09 0.24,-0.08 0.23,-0.05 0.24,-0.03 0.23,0.01 0.24,0.05 0.24,0.11 0.23,0.19 0.24,0.26 0.23,0.35 0.24,0.43 0.24,0.53 0.23,0.6 0.24,0.67 0.23,0.72 0.24,0.74 0.23,0.75 0.24,0.72 0.24,0.68 0.23,0.61 0.24,0.53 0.23,0.44 0.24,0.36 0.23,0.29 0.24,0.23 0.24,0.21 0.23,0.21 0.24,0.24 0.23,0.32 0.24,0.41 0.24,0.54 0.23,0.69 0.24,0.84 0.23,0.99 0.24,1.15 0.23,1.28 0.24,1.39 0.24,1.48 0.23,1.54 0.24,1.58 0.23,1.58 0.24,1.57 0.24,1.55 0.23,1.5 0.24,1.46 0.23,1.43 0.24,1.39 0.23,1.36 0.24,1.34 0.24,1.33 0.23,1.33 0.24,1.32 0.23,1.31 0.24,1.3 0.24,1.27 0.23,1.23 0.24,1.18 0.23,1.1 0.24,1.03 0.23,0.95 0.24,0.87 0.24,0.78 0.23,0.71 0.24,0.65 0.23,0.6 0.24,0.57 0.23,0.54 0.24,0.52 0.24,0.51 0.23,0.5 0.24,0.48 0.23,0.48 0.24,0.45 0.24,0.44 0.23,0.42 0.24,0.4 0.23,0.39 0.24,0.37 0.23,0.36 0.24,0.36 0.24,0.36 0.23,0.36 0.24,0.36 0.23,0.35 0.24,0.35 0.24,0.34 0.23,0.32 0.24,0.29 0.23,0.27 0.24,0.23 0.23,0.19 0.24,0.16 0.24,0.12 0.23,0.07 0.24,0.05 0.23,0.01 0.24,-0.01 0.24,-0.03 0.23,-0.04 0.24,-0.05 0.23,-0.06 0.24,-0.05 0.23,-0.04 0.24,-0.02 0.24,-0.01 0.23,0.01 0.24,0.03 0.23,0.05 0.24,0.06 0.23,0.06 0.24,0.08 0.24,0.07 0.23,0.07 0.24,0.06 0.23,0.06 0.24,0.05 0.24,0.04 0.23,0.04 0.24,0.02 0.23,0.02 0.24,0.02 0.23,0.01 h 0.24 l 0.24,0.01 h 0.23 0.24 0.23 0.24 0.24 0.23 0.24 0.23 0.24 l 0.23,-0.01 0.24,-0.01 0.24,-0.01 0.23,-0.01 0.24,-0.02 0.23,-0.02 0.24,-0.02 0.24,-0.03 0.23,-0.03 0.24,-0.04 0.23,-0.04 0.24,-0.03 0.23,-0.04 0.24,-0.03 0.24,-0.02 0.23,-0.01 0.24,-0.01 0.23,0.01 0.24,0.01 0.23,0.03 0.24,0.03 0.24,0.03 0.23,0.04 0.24,0.03 0.23,0.04 0.24,0.03 0.24,0.03 0.23,0.03 0.24,0.02 0.23,0.01 0.24,0.01 0.23,0.01 h 0.24 0.24 0.23 l 0.24,-0.01 0.23,-0.01 0.24,-0.02 0.24,-0.03 0.23,-0.03 0.24,-0.05 0.23,-0.05 0.24,-0.06 0.23,-0.06 0.24,-0.08 0.24,-0.07 0.23,-0.07 0.24,-0.07 0.23,-0.05 0.24,-0.05 0.24,-0.02 0.23,-0.01 0.24,0.02 0.23,0.03 0.24,0.05 0.23,0.06 0.24,0.07 0.24,0.07 0.23,0.07 0.24,0.07 0.23,0.07 0.24,0.05 0.24,0.05 0.23,0.04 0.24,0.03 0.23,0.03 0.24,0.02 0.23,0.01 0.24,0.01 0.24,0.01 h 0.23 0.24 0.23 0.24 l 0.23,0.01 h 0.24 0.24"
                 class="primitive"
                 id="path2087" />
            </g>
            <g
               transform="translate(94.81,92.55)"
               id="img-5484df24-39"
               stroke-dasharray="none"
               stroke="#00cd66"
               class="color_Area_4">
              <path
                 fill="none"
                 d="m -80.73,6.16 h 0.63 l 0.64,-0.02 0.63,-0.04 0.63,-0.11 0.64,-0.27 0.63,-0.58 0.63,-1.13 0.63,-1.95 0.64,-3.02 0.63,-4.24 0.63,-5.31 0.64,-6 0.63,-6.1 0.63,-5.59 0.64,-4.63 0.63,-3.46 0.63,-2.37 0.64,-1.46 0.63,-0.82 0.63,-0.38 0.64,-0.06 0.63,0.21 0.63,0.46 0.64,0.64 0.63,0.73 0.63,0.64 0.64,0.4 0.63,0.1 0.63,-0.17 0.63,-0.31 0.64,-0.22 0.63,0.06 0.63,0.5 0.64,1.04 0.63,1.57 0.63,2.02 0.64,2.36 0.63,2.54 0.63,2.58 0.64,2.53 0.63,2.42 0.63,2.29 0.64,2.18 0.63,2.06 0.63,1.92 0.64,1.79 0.63,1.63 0.63,1.49 0.64,1.33 0.63,1.21 0.63,1.1 0.63,0.98 0.64,0.86 0.63,0.75 0.63,0.66 0.64,0.59 0.63,0.55 0.63,0.54 0.64,0.53 0.63,0.51 0.63,0.46 0.64,0.39 0.63,0.3 0.63,0.23 0.64,0.18 0.63,0.16 0.63,0.16 0.64,0.14 0.63,0.1 0.63,0.04 0.64,-0.02 0.63,-0.03 h 0.63 l 0.63,0.07 0.64,0.16 0.63,0.24 0.63,0.28 0.64,0.29 0.63,0.27 0.63,0.22 0.64,0.15 0.63,0.09 0.63,0.02 0.64,-0.03 0.63,-0.07 0.63,-0.09 0.64,-0.1 0.63,-0.09 0.63,-0.07 0.64,-0.05 0.63,-0.01 0.63,0.04 0.64,0.11 0.63,0.15 0.63,0.16 0.63,0.15 0.64,0.11 0.63,0.07 0.63,0.03 0.64,0.01 0.63,0.01 0.63,0.02 0.64,0.04 0.63,0.04 0.63,0.03 0.64,0.01 0.63,-0.01 0.63,-0.02 0.64,-0.04 0.63,-0.03 0.63,-0.02 h 0.64 l 0.63,0.03 0.63,0.04 0.64,0.05 0.63,0.04 0.63,0.02 0.63,0.02 0.64,0.01 0.63,0.01 h 0.63 L -3.48,6.15 -2.85,6.14 -2.22,6.12 -1.58,6.09 -0.95,6.05 -0.32,6 0.32,5.97 0.95,5.94 H 1.58 L 2.22,5.97 2.85,6 3.48,6.05 4.12,6.09 4.75,6.12 5.38,6.14 6.02,6.15 6.65,6.14 7.28,6.13 7.91,6.11 8.55,6.08 9.18,6.03 9.81,5.99 10.45,5.95 11.08,5.93 h 0.63 l 0.64,0.01 0.63,0.02 0.63,0.01 0.64,-0.01 0.63,-0.02 0.63,-0.01 h 0.64 l 0.63,0.02 0.63,0.04 0.64,0.04 0.63,0.05 0.63,0.03 0.64,0.02 0.63,0.02 0.63,0.01 h 0.63 0.64 0.63 0.63 0.64 0.63 0.63 0.64 0.63 0.63 0.64 0.63 0.63 0.64 0.63 0.63 0.64 0.63 0.63 0.64 0.63 0.63 0.63 0.64 0.63 0.63 0.64 0.63 0.63 0.64 0.63 0.63 0.64 0.63 0.63 0.64 0.63 0.63 0.64 0.63 0.63 0.64 0.63 0.63 0.63 0.64 0.63 0.63 0.64 0.63 0.63 0.64 0.63 0.63 0.64 0.63 0.63 0.64 0.63 0.63 0.64 0.63 0.63 0.64 0.63 0.63 0.63 0.64 0.63 0.63 0.64 0.63 0.63 L 68.07,6.15 68.7,6.13 69.33,6.1 69.97,6.05 70.6,5.98 71.23,5.89 71.87,5.8 72.5,5.74 l 0.63,-0.03 0.64,0.03 0.63,0.06 0.63,0.09 0.64,0.09 0.63,0.07 0.63,0.05 0.63,0.03 0.64,0.02 0.63,0.01 h 0.63 0.64 0.63"
                 class="primitive"
                 id="path2090" />
            </g>
            <g
               transform="translate(34.16,70.7)"
               id="img-5484df24-40"
               stroke-dasharray="none"
               stroke="#404040"
               class="color_Area_2:_4x4">
              <path
                 fill="none"
                 d="m -17.75,28.02 h 0.13 l 0.14,-0.01 h 0.14 0.14 L -17.06,28 h 0.14 l 0.14,-0.02 0.14,-0.01 0.14,-0.03 0.14,-0.03 0.14,-0.04 0.14,-0.06 0.14,-0.08 0.13,-0.1 0.14,-0.13 0.14,-0.18 0.14,-0.22 0.14,-0.29 0.14,-0.35 0.14,-0.44 0.14,-0.54 0.14,-0.65 0.14,-0.77 0.14,-0.92 0.14,-1.08 0.14,-1.25 0.13,-1.42 0.14,-1.61 0.14,-1.81 0.14,-2 0.14,-2.19 0.14,-2.37 0.14,-2.54 0.14,-2.69 0.14,-2.82 0.14,-2.92 0.14,-3 0.14,-3.05 0.14,-3.05 0.14,-3.03 0.13,-2.98 0.14,-2.9 0.14,-2.79 0.14,-2.66 0.14,-2.51 0.14,-2.35 0.14,-2.17 0.14,-1.99 0.14,-1.8 0.14,-1.63 0.14,-1.45 0.14,-1.29 0.14,-1.13 0.13,-0.99 0.14,-0.85 0.14,-0.73 0.14,-0.63 0.14,-0.53 0.14,-0.45 0.14,-0.37 0.14,-0.31 0.14,-0.26 0.14,-0.21 0.14,-0.17 0.14,-0.15 0.14,-0.11 0.14,-0.1 0.13,-0.08 0.14,-0.06 0.14,-0.06 0.14,-0.06 0.14,-0.05 0.14,-0.05 0.14,-0.04 0.14,-0.04 0.14,-0.04 0.14,-0.02 0.14,-0.02 h 0.14 l 0.14,0.03 0.13,0.05 0.14,0.08 0.14,0.12 0.14,0.17 0.14,0.21 0.14,0.27 0.14,0.32 0.14,0.38 0.14,0.45 0.14,0.51 0.14,0.57 0.14,0.63 0.14,0.68 0.13,0.75 0.14,0.79 0.14,0.83 0.14,0.87 0.14,0.91 0.14,0.93 0.14,0.96 0.14,0.97 0.14,0.99 0.14,1 0.14,1.01 0.14,1.02 0.14,1.03 0.14,1.04 0.13,1.06 0.14,1.07 0.14,1.08 0.14,1.11 0.14,1.12 0.14,1.14 0.14,1.16 0.14,1.18 0.14,1.19 0.14,1.2 0.14,1.2 0.14,1.21 0.14,1.19 0.13,1.18 0.14,1.15 0.14,1.13 0.14,1.1 0.14,1.06 0.14,1.01 0.14,0.98 0.14,0.93 0.14,0.89 0.14,0.85 0.14,0.82 0.14,0.78 0.14,0.76 0.14,0.73 0.13,0.72 0.14,0.69 0.14,0.69 0.14,0.67 0.14,0.66 0.14,0.65 0.14,0.64 0.14,0.62 0.14,0.6 0.14,0.59 0.14,0.57 0.14,0.54 0.14,0.51 0.13,0.49 0.14,0.47 0.14,0.43 0.14,0.42 0.14,0.39 0.14,0.38 0.14,0.37 0.14,0.36 0.14,0.35 0.14,0.36 0.14,0.37 0.14,0.38 0.14,0.38 0.14,0.41 0.13,0.42 0.14,0.43 0.14,0.45 0.14,0.45 0.14,0.46 0.14,0.47 0.14,0.46 0.14,0.46 0.14,0.45 0.14,0.44 0.14,0.43 0.14,0.42 0.14,0.4 0.13,0.39 0.14,0.37 0.14,0.37 0.14,0.36 0.14,0.35 0.14,0.35 0.14,0.35 0.14,0.35 0.14,0.34 0.14,0.34 0.14,0.33 0.14,0.33 0.14,0.32 0.13,0.3 0.14,0.28 0.14,0.26 0.14,0.23 0.14,0.2 0.14,0.16 0.14,0.13 0.14,0.1 0.14,0.06 0.14,0.03 h 0.14 l 0.14,-0.02 0.14,-0.05 0.14,-0.05 0.13,-0.06 0.14,-0.06 0.14,-0.05 0.14,-0.03 0.14,-0.02 0.14,0.01 0.14,0.04 0.14,0.07 0.14,0.09 0.14,0.13 0.14,0.15 0.14,0.18 0.14,0.2 0.13,0.22 0.14,0.24 0.14,0.24 0.14,0.25 0.14,0.25 0.14,0.24 0.14,0.23 0.14,0.23 0.14,0.21 0.14,0.2 0.14,0.18 0.14,0.16 0.14,0.15 0.14,0.13 0.13,0.11 0.14,0.1 0.14,0.09 0.14,0.07 0.14,0.06 0.14,0.05 0.14,0.04 0.14,0.04 0.14,0.02 0.14,0.03 0.14,0.01 0.14,0.02 0.14,0.01 0.13,0.01 h 0.14 l 0.14,0.01 h 0.14 0.14 l 0.14,0.01 h 0.14 0.14 0.14 0.14 0.14 0.14 0.14 0.13"
                 class="primitive"
                 id="path2093" />
            </g>
          </g>
        </g>
      </g>
    </g>
    <g
       class="guide ylabels"
       font-size="2.82px"
       font-family="'PT Sans Caption', 'Helvetica Neue', Helvetica, sans-serif"
       fill="#6c606b"
       id="img-5484df24-41">
      <g
         transform="translate(18.63,98.71)"
         id="img-5484df24-42">
        <g
           class="primitive"
           id="g2103">
          <text
             text-anchor="end"
             dy="0.34999999em"
             id="text2101">0</text>
        </g>
      </g>
      <g
         transform="translate(18.63,75.79)"
         id="img-5484df24-43">
        <g
           class="primitive"
           id="g2108">
          <text
             text-anchor="end"
             dy="0.34999999em"
             id="text2106">50</text>
        </g>
      </g>
      <g
         transform="translate(18.63,52.86)"
         id="img-5484df24-44">
        <g
           class="primitive"
           id="g2113">
          <text
             text-anchor="end"
             dy="0.34999999em"
             id="text2111">100</text>
        </g>
      </g>
      <g
         transform="translate(18.63,29.93)"
         id="img-5484df24-45">
        <g
           class="primitive"
           id="g2118">
          <text
             text-anchor="end"
             dy="0.34999999em"
             id="text2116">150</text>
        </g>
      </g>
      <g
         transform="translate(18.63,7)"
         id="img-5484df24-46">
        <g
           class="primitive"
           id="g2123">
          <text
             text-anchor="end"
             dy="0.34999999em"
             id="text2121">200</text>
        </g>
      </g>
    </g>
    <g
       font-size="3.88px"
       font-family="'PT Sans', 'Helvetica Neue', Helvetica, sans-serif"
       fill="#564a55"
       stroke="#000000"
       stroke-opacity="0"
       id="img-5484df24-47">
      <g
         transform="translate(8.81,50.86)"
         id="img-5484df24-48">
        <g
           class="primitive"
           id="g2129">
          <text
             text-anchor="middle"
             dy="0.34999999em"
             transform="rotate(-90,0,2)"
             id="text2127">Density</text>
        </g>
      </g>
    </g>
  </g>
  <defs
     id="defs2137">
    <clipPath
       id="img-5484df24-19">
      <path
         d="m 19.63,5 h 157.91 v 95.72 H 19.63"
         id="path2134" />
    </clipPath>
  </defs>
</svg>
