<?xml version="1.0" encoding="UTF-8" standalone="no"?>
<svg
   version="1.2"
   width="172.35052mm"
   height="105.9262mm"
   viewBox="0 0 172.35052 105.9262"
   stroke="none"
   fill="#000000"
   stroke-width="0.3"
   font-size="3.88px"
   id="svg2810"
   sodipodi:docname="pheromone-plot-proportional-run-03.svg"
   inkscape:version="1.1.1 (3bf5ae0d25, 2021-09-20)"
   xmlns:inkscape="http://www.inkscape.org/namespaces/inkscape"
   xmlns:sodipodi="http://sodipodi.sourceforge.net/DTD/sodipodi-0.dtd"
   xmlns="http://www.w3.org/2000/svg"
   xmlns:svg="http://www.w3.org/2000/svg">
  <sodipodi:namedview
     id="namedview2812"
     pagecolor="#505050"
     bordercolor="#eeeeee"
     borderopacity="1"
     inkscape:pageshadow="0"
     inkscape:pageopacity="0"
     inkscape:pagecheckerboard="0"
     inkscape:document-units="mm"
     showgrid="false"
     inkscape:zoom="1.6748125"
     inkscape:cx="339.73952"
     inkscape:cy="163.89894"
     inkscape:window-width="1920"
     inkscape:window-height="1050"
     inkscape:window-x="0"
     inkscape:window-y="0"
     inkscape:window-maximized="1"
     inkscape:current-layer="img-8397a389-1" />
  <defs
     id="defs2634">
    <marker
       id="arrow"
       markerWidth="15"
       markerHeight="7"
       refX="5"
       refY="3.5"
       orient="auto"
       markerUnits="strokeWidth">
      <path
         d="M 0,0 15,3.5 0,7 Z"
         stroke="context-stroke"
         fill="context-stroke"
         id="path2631" />
    </marker>
  </defs>
  <g
     class="plotroot xscalable yscalable"
     id="img-8397a389-1"
     transform="translate(-5.18948,-5)">
    <g
       font-size="3.88px"
       font-family="'PT Sans', 'Helvetica Neue', Helvetica, sans-serif"
       fill="#564a55"
       stroke="#000000"
       stroke-opacity="0"
       id="img-8397a389-2">
      <g
         transform="translate(98.59,108.39)"
         id="g2640">
        <g
           class="primitive"
           id="g2638">
          <text
             text-anchor="middle"
             dy="0.60000002em"
             id="text2636">Pheromone Value</text>
        </g>
      </g>
    </g>
    <g
       class="guide xlabels"
       font-size="2.82px"
       font-family="'PT Sans Caption', 'Helvetica Neue', Helvetica, sans-serif"
       fill="#6c606b"
       id="img-8397a389-3">
      <g
         transform="translate(21.63,101.72)"
         id="g2647">
        <g
           class="primitive"
           id="g2645">
          <text
             text-anchor="middle"
             dy="0.60000002em"
             id="text2643">0.00</text>
        </g>
      </g>
      <g
         transform="translate(72.26,101.72)"
         id="g2653">
        <g
           class="primitive"
           id="g2651">
          <text
             text-anchor="middle"
             dy="0.60000002em"
             id="text2649">0.02</text>
        </g>
      </g>
      <g
         transform="translate(122.89,101.72)"
         id="g2659">
        <g
           class="primitive"
           id="g2657">
          <text
             text-anchor="middle"
             dy="0.60000002em"
             id="text2655">0.04</text>
        </g>
      </g>
      <g
         transform="translate(173.52,101.72)"
         id="g2665">
        <g
           class="primitive"
           id="g2663">
          <text
             text-anchor="middle"
             dy="0.60000002em"
             id="text2661">0.06</text>
        </g>
      </g>
    </g>
    <g
       class="guide colorkey"
       id="img-8397a389-4"
       transform="translate(-23.60875,-10.723563)">
      <g
         fill="#4c404b"
         font-size="2.82px"
         font-family="'PT Sans', 'Helvetica Neue', Helvetica, sans-serif"
         id="img-8397a389-5">
        <g
           transform="translate(181.35,47.42)"
           id="img-8397a389-6"
           class="color_Area_1">
          <g
             class="primitive"
             id="g2670">
            <text
               dy="0.34999999em"
               id="text2668">Area 1</text>
          </g>
        </g>
        <g
           transform="translate(181.35,51.04)"
           id="img-8397a389-7"
           class="color_Area_2:_2x2">
          <g
             class="primitive"
             id="g2675">
            <text
               dy="0.34999999em"
               id="text2673">Area 2: 2x2</text>
          </g>
        </g>
        <g
           transform="translate(181.35,54.67)"
           id="img-8397a389-8"
           class="color_Area_2:_4x4">
          <g
             class="primitive"
             id="g2680">
            <text
               dy="0.34999999em"
               id="text2678">Area 2: 4x4</text>
          </g>
        </g>
        <g
           transform="translate(181.35,58.3)"
           id="img-8397a389-9"
           class="color_Area_3">
          <g
             class="primitive"
             id="g2685">
            <text
               dy="0.34999999em"
               id="text2683">Area 3</text>
          </g>
        </g>
        <g
           transform="translate(181.35,61.92)"
           id="img-8397a389-10"
           class="color_Area_4">
          <g
             class="primitive"
             id="g2690">
            <text
               dy="0.34999999em"
               id="text2688">Area 4</text>
          </g>
        </g>
      </g>
      <g
         fill-opacity="1"
         id="img-8397a389-11">
        <g
           transform="translate(179.45,47.42)"
           id="img-8397a389-12"
           stroke="#ffffff"
           class="color_Area_1"
           fill="#ff6347">
          <path
             d="M -0.91,-0.91 H 0.91 V 0.91 H -0.91 Z"
             class="primitive"
             id="path2694" />
        </g>
        <g
           transform="translate(179.45,51.04)"
           id="img-8397a389-13"
           stroke="#ffffff"
           class="color_Area_2:_2x2"
           fill="#4169e1">
          <path
             d="M -0.91,-0.91 H 0.91 V 0.91 H -0.91 Z"
             class="primitive"
             id="path2697" />
        </g>
        <g
           transform="translate(179.45,54.67)"
           id="img-8397a389-14"
           stroke="#ffffff"
           class="color_Area_2:_4x4"
           fill="#404040">
          <path
             d="M -0.91,-0.91 H 0.91 V 0.91 H -0.91 Z"
             class="primitive"
             id="path2700" />
        </g>
        <g
           transform="translate(179.45,58.3)"
           id="img-8397a389-15"
           stroke="#ffffff"
           class="color_Area_3"
           fill="#b23aee">
          <path
             d="M -0.91,-0.91 H 0.91 V 0.91 H -0.91 Z"
             class="primitive"
             id="path2703" />
        </g>
        <g
           transform="translate(179.45,61.92)"
           id="img-8397a389-16"
           stroke="#ffffff"
           class="color_Area_4"
           fill="#00cd66">
          <path
             d="M -0.91,-0.91 H 0.91 V 0.91 H -0.91 Z"
             class="primitive"
             id="path2706" />
        </g>
      </g>
      <g
         fill="#362a35"
         font-size="3.88px"
         font-family="'PT Sans', 'Helvetica Neue', Helvetica, sans-serif"
         stroke="#000000"
         stroke-opacity="0"
         id="img-8397a389-17">
        <g
           transform="translate(178.54,43.6)"
           id="img-8397a389-18">
          <g
             class="primitive"
             id="g2712">
            <text
               dy="0em"
               id="text2710">Area</text>
          </g>
        </g>
      </g>
    </g>
    <g
       clip-path="url(#img-8397a389-19)"
       id="g2770">
      <g
         id="img-8397a389-20">
        <g
           pointer-events="visible"
           stroke-width="0.3"
           fill="#000000"
           fill-opacity="0"
           stroke="#000000"
           stroke-opacity="0"
           class="guide background"
           id="img-8397a389-21">
          <g
             transform="translate(98.59,52.86)"
             id="img-8397a389-22">
            <path
               d="M -78.95,-47.86 H 78.95 V 47.86 H -78.95 Z"
               class="primitive"
               id="path2717" />
          </g>
        </g>
        <g
           class="guide ygridlines xfixed"
           stroke-dasharray="0.5, 0.5"
           stroke-width="0.2"
           stroke="#d0d0e0"
           id="img-8397a389-23">
          <g
             transform="translate(98.59,98.71)"
             id="img-8397a389-24">
            <path
               fill="none"
               d="M -78.95,0 H 78.95"
               class="primitive"
               id="path2721" />
          </g>
          <g
             transform="translate(98.59,75.79)"
             id="img-8397a389-25">
            <path
               fill="none"
               d="M -78.95,0 H 78.95"
               class="primitive"
               id="path2724" />
          </g>
          <g
             transform="translate(98.59,52.86)"
             id="img-8397a389-26">
            <path
               fill="none"
               d="M -78.95,0 H 78.95"
               class="primitive"
               id="path2727" />
          </g>
          <g
             transform="translate(98.59,29.93)"
             id="img-8397a389-27">
            <path
               fill="none"
               d="M -78.95,0 H 78.95"
               class="primitive"
               id="path2730" />
          </g>
          <g
             transform="translate(98.59,7)"
             id="img-8397a389-28">
            <path
               fill="none"
               d="M -78.95,0 H 78.95"
               class="primitive"
               id="path2733" />
          </g>
        </g>
        <g
           class="guide xgridlines yfixed"
           stroke-dasharray="0.5, 0.5"
           stroke-width="0.2"
           stroke="#d0d0e0"
           id="img-8397a389-29">
          <g
             transform="translate(21.63,52.86)"
             id="img-8397a389-30">
            <path
               fill="none"
               d="M 0,-47.86 V 47.86"
               class="primitive"
               id="path2737" />
          </g>
          <g
             transform="translate(72.26,52.86)"
             id="img-8397a389-31">
            <path
               fill="none"
               d="M 0,-47.86 V 47.86"
               class="primitive"
               id="path2740" />
          </g>
          <g
             transform="translate(122.89,52.86)"
             id="img-8397a389-32">
            <path
               fill="none"
               d="M 0,-47.86 V 47.86"
               class="primitive"
               id="path2743" />
          </g>
          <g
             transform="translate(173.52,52.86)"
             id="img-8397a389-33">
            <path
               fill="none"
               d="M 0,-47.86 V 47.86"
               class="primitive"
               id="path2746" />
          </g>
        </g>
        <g
           class="plotpanel"
           id="img-8397a389-34">
          <metadata
             id="metadata2750">
            <boundingbox
               value="19.63166666666669mm 5.0mm 157.90833333333333mm 95.715mm" />
            <unitbox
               value="-0.000790030961700236 204.3613367497138 0.062376236221907376 -208.7226734994276" />
          </metadata>
          <g
             stroke-width="0.3"
             fill="#000000"
             fill-opacity="0"
             class="geometry"
             id="img-8397a389-35">
            <g
               transform="translate(65.71,88.5)"
               id="img-8397a389-36"
               stroke-dasharray="none"
               stroke="#ff6347"
               class="color_Area_1">
              <path
                 fill="none"
                 d="m -56.58,10.22 h 0.44 0.44 l 0.45,-0.01 h 0.44 l 0.45,-0.01 0.44,-0.01 0.44,-0.01 0.45,-0.02 0.44,-0.04 0.44,-0.04 0.45,-0.07 0.44,-0.1 0.45,-0.14 0.44,-0.19 0.44,-0.26 0.45,-0.33 0.44,-0.42 0.44,-0.53 0.45,-0.66 0.44,-0.79 0.45,-0.94 0.44,-1.09 0.44,-1.24 0.45,-1.38 0.44,-1.52 0.45,-1.63 0.44,-1.71 0.44,-1.77 0.45,-1.79 0.44,-1.78 0.44,-1.73 0.45,-1.65 0.44,-1.54 0.45,-1.42 0.44,-1.27 0.44,-1.12 0.45,-0.96 0.44,-0.81 0.44,-0.66 0.45,-0.52 0.44,-0.4 0.45,-0.28 0.44,-0.19 0.44,-0.11 0.45,-0.04 0.44,0.01 0.44,0.05 0.45,0.08 0.44,0.08 0.45,0.08 0.44,0.07 0.44,0.05 0.45,0.02 h 0.44 l 0.45,-0.04 0.44,-0.06 0.44,-0.09 0.45,-0.11 0.44,-0.11 0.44,-0.11 0.45,-0.1 0.44,-0.08 0.45,-0.05 0.44,-0.01 0.44,0.04 0.45,0.1 0.44,0.14 0.44,0.2 0.45,0.25 0.44,0.29 0.45,0.34 0.44,0.36 0.44,0.4 0.45,0.4 0.44,0.41 0.44,0.42 0.45,0.4 0.44,0.38 0.45,0.37 0.44,0.35 0.44,0.33 0.45,0.3 0.44,0.3 0.45,0.28 0.44,0.27 0.44,0.28 0.45,0.28 0.44,0.29 0.44,0.3 0.45,0.32 0.44,0.35 0.45,0.37 0.44,0.4 0.44,0.43 0.45,0.46 0.44,0.5 0.44,0.52 0.45,0.56 0.44,0.6 0.45,0.61 0.44,0.64 0.44,0.66 0.45,0.67 0.44,0.67 0.44,0.67 0.45,0.65 0.44,0.62 0.45,0.59 0.44,0.56 0.44,0.5 0.45,0.47 0.44,0.41 0.45,0.37 0.44,0.32 0.44,0.27 0.45,0.24 0.44,0.21 0.44,0.18 0.45,0.17 0.44,0.15 0.45,0.14 0.44,0.13 L -2,0.74 -1.55,0.87 -1.11,1 -0.67,1.13 -0.22,1.27 0.22,1.41 0.67,1.55 1.11,1.71 1.55,1.88 2,2.06 2.44,2.27 2.88,2.49 3.33,2.73 3.77,3 4.22,3.28 4.66,3.59 5.1,3.9 5.55,4.23 5.99,4.56 6.43,4.89 6.88,5.2 l 0.44,0.3 0.45,0.28 0.44,0.26 0.44,0.22 0.45,0.2 0.44,0.16 0.45,0.14 0.44,0.11 0.44,0.09 0.45,0.07 0.44,0.06 0.44,0.05 0.45,0.04 0.44,0.04 0.45,0.04 0.44,0.05 0.44,0.06 0.45,0.07 0.44,0.07 0.44,0.09 0.45,0.1 0.44,0.11 0.45,0.12 0.44,0.13 0.44,0.12 0.45,0.13 0.44,0.13 0.44,0.12 0.45,0.12 0.44,0.1 0.45,0.1 0.44,0.08 0.44,0.06 0.45,0.06 0.44,0.04 0.45,0.03 0.44,0.03 0.44,0.02 0.45,0.02 0.44,0.02 0.44,0.02 0.45,0.02 0.44,0.03 0.45,0.03 0.44,0.04 0.44,0.05 0.45,0.05 0.44,0.05 0.44,0.06 0.45,0.05 0.44,0.06 0.45,0.06 0.44,0.05 0.44,0.05 0.45,0.05 0.44,0.05 0.44,0.04 0.45,0.03 0.44,0.04 0.45,0.02 0.44,0.03 0.44,0.02 0.45,0.01 0.44,0.02 0.45,0.01 0.44,0.01 h 0.44 l 0.45,0.01 h 0.44 0.44 l 0.45,-0.01 h 0.44 l 0.45,-0.01 h 0.44 l 0.44,-0.01 0.45,-0.01 0.44,-0.01 0.44,-0.01 0.45,-0.01 h 0.44 l 0.45,-0.01 h 0.44 l 0.44,-0.01 h 0.45 0.44 l 0.44,0.01 h 0.45 l 0.44,0.01 0.45,0.01 0.44,0.01 h 0.44 l 0.45,0.01 0.44,0.01 0.45,0.01 0.44,0.01 h 0.44 l 0.45,0.01 h 0.44 l 0.44,0.01 h 0.45 0.44 0.45 l 0.44,0.01 h 0.44 0.45 0.44 0.44 0.45 0.44 0.45 0.44 0.44"
                 class="primitive"
                 id="path2752" />
            </g>
            <g
               transform="translate(91.95,91.8)"
               id="img-8397a389-37"
               stroke-dasharray="none"
               stroke="#b23aee"
               class="color_Area_3">
              <path
                 fill="none"
                 d="m -83.59,6.92 0.65,-0.01 h 0.66 0.65 l 0.66,-0.01 0.65,-0.02 0.66,-0.03 0.65,-0.05 0.66,-0.09 0.66,-0.15 0.65,-0.22 0.66,-0.33 0.65,-0.48 0.66,-0.67 0.65,-0.88 0.66,-1.14 0.66,-1.4 0.65,-1.66 0.66,-1.91 0.65,-2.09 0.66,-2.23 0.65,-2.27 0.66,-2.23 0.66,-2.11 0.65,-1.92 0.66,-1.67 0.65,-1.41 0.66,-1.13 0.65,-0.86 0.66,-0.61 0.65,-0.4 0.66,-0.23 0.66,-0.1 h 0.65 l 0.66,0.05 0.65,0.06 0.66,0.06 0.65,0.03 0.66,-0.02 0.66,-0.06 0.65,-0.1 0.66,-0.12 0.65,-0.12 0.66,-0.1 0.65,-0.06 0.66,0.01 0.65,0.07 0.66,0.16 0.66,0.21 0.65,0.27 0.66,0.31 0.65,0.31 0.66,0.3 0.65,0.27 0.66,0.22 0.66,0.16 0.65,0.1 0.66,0.06 0.65,0.02 0.66,0.01 0.65,0.02 0.66,0.05 0.66,0.11 0.65,0.19 0.66,0.27 0.65,0.36 0.66,0.45 0.65,0.54 0.66,0.62 0.65,0.7 0.66,0.76 0.66,0.83 0.65,0.88 0.66,0.92 0.65,0.95 0.66,0.96 0.65,0.97 0.66,0.96 0.66,0.92 0.65,0.88 0.66,0.82 0.65,0.75 0.66,0.68 0.65,0.61 0.66,0.54 0.66,0.49 0.65,0.44 0.66,0.42 0.65,0.41 0.66,0.42 0.65,0.44 0.66,0.45 0.65,0.49 0.66,0.5 0.66,0.51 0.65,0.5 0.66,0.48 0.65,0.46 0.66,0.41 0.65,0.36 0.66,0.31 0.66,0.26 0.65,0.22 0.66,0.17 0.65,0.15 0.66,0.11 0.65,0.1 0.66,0.08 0.65,0.07 0.66,0.06 0.66,0.05 0.65,0.04 0.66,0.04 0.65,0.03 0.66,0.03 0.65,0.03 0.66,0.03 0.66,0.04 0.65,0.05 0.66,0.06 0.65,0.07 0.66,0.08 0.65,0.09 0.66,0.09 0.66,0.09 0.65,0.09 0.66,0.08 0.65,0.08 L 0.33,5.91 0.98,5.97 1.64,6.03 2.29,6.08 2.95,6.12 3.61,6.14 4.26,6.15 4.92,6.16 5.57,6.15 6.23,6.13 6.88,6.11 7.54,6.09 8.2,6.08 8.85,6.07 l 0.66,0.01 0.65,0.02 0.66,0.03 0.65,0.05 0.66,0.05 0.66,0.06 0.65,0.07 0.66,0.06 0.65,0.06 0.66,0.06 0.65,0.06 0.66,0.05 0.65,0.04 0.66,0.04 0.66,0.03 0.65,0.03 0.66,0.02 0.65,0.02 0.66,0.02 0.65,0.02 0.66,0.01 0.66,0.01 0.65,0.01 h 0.66 l 0.65,0.01 h 0.66 0.65 0.66 l 0.65,0.01 h 0.66 l 0.66,-0.01 h 0.65 0.66 0.65 L 31.8,6.9 h 0.65 L 33.11,6.89 33.77,6.87 34.42,6.86 35.08,6.84 35.73,6.82 36.39,6.8 37.04,6.77 37.7,6.75 38.36,6.73 39.01,6.72 39.67,6.71 40.32,6.7 h 0.66 0.65 l 0.66,0.01 h 0.65 l 0.66,0.01 h 0.66 0.65 l 0.66,0.01 h 0.65 l 0.66,0.01 0.65,0.01 0.66,0.01 0.66,0.01 0.65,0.02 0.66,0.02 0.65,0.01 0.66,0.02 0.65,0.02 0.66,0.01 0.66,0.01 0.65,0.01 0.66,0.01 0.65,0.01 h 0.66 0.65 0.66 0.65 l 0.66,0.01 h 0.66 0.65 0.66 L 61.3,6.91 h 0.66 0.65 0.66 L 63.93,6.9 h 0.65 L 65.24,6.89 65.89,6.88 66.55,6.87 67.2,6.86 67.86,6.85 68.51,6.84 69.17,6.83 h 0.66 0.65 0.66 0.65 l 0.66,0.01 0.65,0.01 0.66,0.01 0.66,0.01 0.65,0.01 0.66,0.01 0.65,0.01 h 0.66 l 0.65,0.01 h 0.66 0.66 0.65 l 0.66,0.01 h 0.65 0.66 0.65 0.66 0.65"
                 class="primitive"
                 id="path2755" />
            </g>
            <g
               transform="translate(54.91,84.55)"
               id="img-8397a389-38"
               stroke-dasharray="none"
               stroke="#4169e1"
               class="color_Area_2:_2x2">
              <path
                 fill="none"
                 d="m -40.82,14.16 h 0.32 0.32 l 0.32,-0.01 0.32,-0.01 0.33,-0.02 0.32,-0.03 0.32,-0.05 0.32,-0.09 0.32,-0.13 0.32,-0.21 0.32,-0.3 0.32,-0.44 0.32,-0.61 0.32,-0.83 0.32,-1.1 0.32,-1.41 0.32,-1.77 0.32,-2.14 0.32,-2.54 0.32,-2.91 0.32,-3.25 0.32,-3.53 0.32,-3.74 0.32,-3.84 0.32,-3.84 0.32,-3.74 0.32,-3.56 0.32,-3.28 0.32,-2.95 0.32,-2.59 0.32,-2.22 0.32,-1.85 0.32,-1.52 0.32,-1.2 0.32,-0.95 0.32,-0.72 0.32,-0.55 0.32,-0.4 0.32,-0.3 0.32,-0.22 0.32,-0.16 0.32,-0.1 0.32,-0.06 0.32,-0.02 0.32,0.04 0.32,0.1 0.32,0.17 0.32,0.25 0.32,0.32 0.32,0.41 0.32,0.48 0.32,0.54 0.32,0.59 0.32,0.61 0.32,0.6 0.32,0.59 0.32,0.55 0.32,0.49 0.32,0.44 0.32,0.39 0.32,0.36 0.32,0.34 0.32,0.36 0.32,0.41 0.32,0.48 0.32,0.58 0.32,0.69 0.32,0.81 0.32,0.92 0.32,1.03 0.32,1.12 0.32,1.19 0.32,1.24 0.32,1.27 0.32,1.29 0.32,1.3 0.32,1.31 0.32,1.33 0.32,1.35 0.32,1.38 0.32,1.42 0.32,1.45 0.32,1.5 0.32,1.52 0.32,1.52 0.32,1.53 0.33,1.49 0.32,1.44 0.32,1.38 0.32,1.3 0.32,1.21 0.32,1.13 0.32,1.03 0.32,0.94 0.32,0.86 0.32,0.77 0.32,0.7 0.32,0.63 0.32,0.55 0.32,0.5 0.32,0.44 0.32,0.39 0.32,0.35 0.32,0.32 0.32,0.31 0.32,0.29 0.32,0.31 0.32,0.31 0.32,0.34 0.32,0.36 0.32,0.38 0.32,0.41 0.32,0.42 0.32,0.44 0.32,0.43 0.32,0.41 0.32,0.4 0.32,0.36 0.32,0.34 0.32,0.29 0.32,0.26 0.32,0.23 0.32,0.21 0.32,0.19 0.32,0.18 0.32,0.18 0.32,0.18 0.32,0.18 0.32,0.18 0.32,0.17 0.32,0.17 0.32,0.16 0.32,0.15 0.32,0.14 0.32,0.11 0.32,0.11 0.32,0.08 0.32,0.08 0.32,0.06 0.32,0.04 0.32,0.04 0.32,0.04 0.32,0.02 0.32,0.03 0.32,0.02 0.32,0.02 0.32,0.02 0.32,0.03 0.32,0.02 0.32,0.02 0.32,0.03 0.32,0.01 0.32,0.01 h 0.32 l 0.32,-0.02 0.32,-0.03 0.32,-0.05 0.32,-0.06 0.32,-0.08 0.32,-0.08 0.32,-0.08 0.32,-0.08 0.32,-0.07 0.32,-0.05 0.32,-0.03 h 0.32 l 0.32,0.02 0.32,0.05 0.33,0.06 0.32,0.09 0.32,0.09 0.32,0.09 0.32,0.1 0.32,0.09 0.32,0.07 0.32,0.07 0.32,0.05 0.32,0.03 0.32,0.02 0.32,0.01 0.32,-0.01 0.32,-0.02 0.32,-0.03 0.32,-0.04 0.32,-0.05 0.32,-0.07 0.32,-0.06 0.32,-0.07 0.32,-0.07 0.32,-0.06 0.32,-0.05 0.32,-0.05 0.32,-0.03 0.32,-0.02 0.32,-0.01 h 0.32 l 0.32,0.01 0.32,0.01 h 0.32 l 0.32,0.01 h 0.32 l 0.32,0.01 h 0.32 l 0.32,0.01 0.32,0.02 0.32,0.02 0.32,0.03 0.32,0.04 0.32,0.05 0.32,0.05 0.32,0.06 0.32,0.06 0.32,0.06 0.32,0.05 0.32,0.05 0.32,0.03 0.32,0.03 0.32,0.01 h 0.32 l 0.32,-0.01 0.32,-0.03 0.32,-0.04 0.32,-0.04 0.32,-0.06 0.32,-0.06 0.32,-0.07 0.32,-0.06 0.32,-0.05 0.32,-0.04 0.32,-0.03 0.32,-0.01 0.32,0.01 0.32,0.02 0.32,0.04 0.32,0.06 0.32,0.06 0.32,0.07 0.32,0.06 0.32,0.06 0.32,0.06 0.32,0.05 0.32,0.04 0.32,0.03 0.32,0.03 0.32,0.02 0.32,0.01 0.32,0.01 0.32,0.01 h 0.32 0.32 0.33 0.32 0.32 l 0.32,0.01 0.32,-0.01"
                 class="primitive"
                 id="path2758" />
            </g>
            <g
               transform="translate(51.87,83.79)"
               id="img-8397a389-39"
               stroke-dasharray="none"
               stroke="#00cd66"
               class="color_Area_4">
              <path
                 fill="none"
                 d="m -38.74,14.92 h 0.3 0.3 0.31 l 0.3,-0.01 0.31,-0.01 0.3,-0.01 0.3,-0.03 0.31,-0.03 0.3,-0.05 0.3,-0.08 0.31,-0.11 0.3,-0.15 0.31,-0.22 0.3,-0.29 0.3,-0.39 0.31,-0.51 0.3,-0.66 0.31,-0.83 0.3,-1.01 0.3,-1.23 0.31,-1.45 0.3,-1.68 0.3,-1.91 0.31,-2.13 0.3,-2.33 0.31,-2.5 0.3,-2.62 0.3,-2.7 0.31,-2.73 0.3,-2.7 0.31,-2.63 0.3,-2.51 0.3,-2.35 0.31,-2.15 0.3,-1.95 0.31,-1.72 0.3,-1.5 0.3,-1.28 0.31,-1.07 0.3,-0.89 0.3,-0.72 0.31,-0.58 0.3,-0.45 0.31,-0.35 0.3,-0.27 0.3,-0.19 0.31,-0.14 0.3,-0.07 0.31,-0.03 0.3,0.01 0.3,0.07 0.31,0.11 0.3,0.15 0.31,0.2 0.3,0.24 0.3,0.28 0.31,0.31 0.3,0.32 0.3,0.33 0.31,0.33 0.3,0.3 0.31,0.27 0.3,0.22 0.3,0.16 0.31,0.1 0.3,0.04 0.31,-0.02 0.3,-0.08 0.3,-0.11 0.31,-0.15 0.3,-0.15 0.3,-0.15 0.31,-0.12 0.3,-0.08 0.31,-0.02 0.3,0.05 0.3,0.13 0.31,0.21 0.3,0.3 0.31,0.39 0.3,0.49 0.3,0.58 0.31,0.67 0.3,0.76 0.31,0.85 0.3,0.94 0.3,1.02 0.31,1.1 0.3,1.17 0.3,1.24 0.31,1.28 0.3,1.33 0.31,1.35 0.3,1.37 0.3,1.35 0.31,1.33 0.3,1.29 0.31,1.23 0.3,1.17 0.3,1.09 0.31,1.01 0.3,0.92 0.31,0.84 0.3,0.75 0.3,0.67 0.31,0.6 0.3,0.54 0.3,0.49 0.31,0.45 0.3,0.43 0.31,0.42 0.3,0.42 0.3,0.44 0.31,0.45 0.3,0.47 0.31,0.51 0.3,0.53 0.3,0.55 0.31,0.58 0.3,0.59 0.3,0.59 0.31,0.6 0.3,0.59 0.31,0.57 0.3,0.55 0.3,0.52 0.31,0.49 0.3,0.46 0.31,0.42 0.3,0.38 0.3,0.35 0.31,0.31 0.3,0.28 0.31,0.25 0.3,0.22 0.3,0.2 0.31,0.18 0.3,0.17 0.3,0.15 0.31,0.14 0.3,0.13 0.31,0.13 0.3,0.13 0.3,0.13 0.31,0.14 0.3,0.14 0.31,0.15 0.3,0.16 0.3,0.16 0.31,0.16 0.3,0.16 0.3,0.16 0.31,0.16 0.3,0.15 0.31,0.15 0.3,0.14 0.3,0.14 0.31,0.13 0.3,0.13 0.31,0.13 0.3,0.12 0.3,0.12 0.31,0.12 0.3,0.12 0.31,0.11 0.3,0.1 0.3,0.09 0.31,0.08 0.3,0.07 0.3,0.06 0.31,0.04 0.3,0.03 0.31,0.01 0.3,0.01 0.3,-0.01 0.31,-0.02 0.3,-0.02 0.31,-0.03 0.3,-0.03 0.3,-0.04 0.31,-0.03 0.3,-0.04 0.31,-0.03 0.3,-0.02 0.3,-0.02 0.31,-0.02 h 0.3 0.3 0.31 l 0.3,0.01 0.31,0.02 0.3,0.02 0.3,0.02 0.31,0.02 0.3,0.01 0.31,0.02 0.3,0.02 0.3,0.02 0.31,0.01 0.3,0.03 0.3,0.03 0.31,0.03 0.3,0.05 0.31,0.05 0.3,0.05 0.3,0.06 0.31,0.07 0.3,0.07 0.31,0.07 0.3,0.06 0.3,0.06 0.31,0.05 0.3,0.05 0.31,0.03 0.3,0.02 0.3,0.01 h 0.31 l 0.3,-0.01 0.3,-0.02 0.31,-0.03 0.3,-0.02 0.31,-0.03 0.3,-0.03 0.3,-0.03 0.31,-0.02 0.3,-0.01 h 0.31 l 0.3,0.01 0.3,0.01 0.31,0.03 0.3,0.03 0.31,0.03 0.3,0.04 0.3,0.04 0.31,0.05 0.3,0.04 0.3,0.03 0.31,0.04 0.3,0.02 0.31,0.03 0.3,0.02 0.3,0.02 0.31,0.01 0.3,0.01 0.31,0.01 h 0.3 l 0.3,0.01 h 0.31 0.3 0.3 0.31 0.3 0.31 0.3 0.3"
                 class="primitive"
                 id="path2761" />
            </g>
            <g
               transform="translate(39.14,73.51)"
               id="img-8397a389-40"
               stroke-dasharray="none"
               stroke="#404040"
               class="color_Area_2:_4x4">
              <path
                 fill="none"
                 d="m -22.94,25.2 h 0.18 0.18 0.18 l 0.18,-0.01 0.18,-0.01 0.18,-0.02 0.18,-0.03 0.18,-0.04 0.18,-0.06 0.18,-0.09 0.18,-0.12 0.18,-0.18 0.18,-0.24 0.18,-0.33 0.18,-0.43 0.18,-0.58 0.18,-0.73 0.18,-0.94 0.18,-1.15 0.18,-1.42 0.18,-1.7 0.18,-2.01 0.18,-2.34 0.18,-2.66 0.18,-2.98 0.18,-3.3 0.18,-3.57 0.18,-3.81 0.18,-4 0.18,-4.12 0.18,-4.18 0.18,-4.17 0.18,-4.09 0.18,-3.96 0.18,-3.76 0.18,-3.52 0.18,-3.24 0.18,-2.95 0.18,-2.64 0.18,-2.33 0.18,-2.03 0.18,-1.76 0.18,-1.49 0.18,-1.26 0.18,-1.06 0.18,-0.88 0.18,-0.72 0.18,-0.6 0.18,-0.48 0.18,-0.39 0.18,-0.31 0.18,-0.25 0.18,-0.19 0.18,-0.14 0.18,-0.11 0.18,-0.08 0.18,-0.06 0.18,-0.04 0.18,-0.04 0.18,-0.04 0.18,-0.04 0.18,-0.04 0.18,-0.05 0.18,-0.06 0.18,-0.05 0.18,-0.04 0.18,-0.03 h 0.18 l 0.18,0.04 0.18,0.09 0.18,0.15 0.18,0.23 0.18,0.3 0.17,0.41 0.18,0.5 0.18,0.6 0.18,0.7 0.18,0.81 0.18,0.91 0.18,1 0.18,1.09 0.18,1.17 0.18,1.23 0.18,1.3 0.18,1.34 0.18,1.38 0.18,1.42 0.18,1.44 0.18,1.46 0.18,1.47 0.18,1.49 0.18,1.49 0.18,1.5 0.18,1.51 0.18,1.51 0.18,1.52 0.18,1.53 0.18,1.55 0.18,1.56 0.18,1.58 0.18,1.6 0.18,1.62 0.18,1.65 0.18,1.66 0.18,1.68 0.18,1.69 0.18,1.68 0.18,1.68 0.18,1.65 0.18,1.62 0.18,1.58 0.18,1.51 0.18,1.45 0.18,1.38 0.18,1.31 0.18,1.23 0.18,1.16 0.18,1.1 0.18,1.04 0.18,1 0.18,0.97 0.18,0.93 0.18,0.93 0.18,0.92 0.18,0.91 0.18,0.91 0.18,0.91 0.18,0.91 0.18,0.9 0.18,0.88 0.18,0.85 0.18,0.83 0.18,0.78 0.18,0.73 0.18,0.67 0.18,0.6 0.18,0.54 0.18,0.46 0.18,0.39 0.18,0.32 0.18,0.24 0.18,0.19 0.18,0.12 0.18,0.06 0.18,0.02 0.18,-0.03 0.18,-0.06 0.18,-0.09 0.18,-0.11 0.18,-0.12 0.18,-0.13 0.18,-0.12 0.18,-0.11 0.18,-0.09 0.18,-0.08 0.18,-0.04 0.18,-0.01 0.18,0.01 0.18,0.06 0.18,0.08 0.18,0.12 0.18,0.14 0.18,0.17 0.18,0.2 0.18,0.23 0.18,0.24 0.18,0.25 0.18,0.27 0.18,0.28 0.18,0.28 0.18,0.28 0.18,0.28 0.18,0.28 0.18,0.26 0.18,0.25 0.18,0.24 0.18,0.22 0.18,0.19 0.18,0.18 0.18,0.16 0.18,0.14 0.17,0.12 0.18,0.1 0.18,0.08 0.18,0.06 0.18,0.06 0.18,0.04 0.18,0.02 0.18,0.02 0.18,0.01 h 0.18 0.18 l 0.18,-0.02 0.18,-0.02 0.18,-0.03 0.18,-0.03 0.18,-0.05 0.18,-0.05 0.18,-0.05 0.18,-0.07 0.18,-0.07 0.18,-0.07 0.18,-0.08 0.18,-0.08 0.18,-0.08 0.18,-0.08 0.18,-0.08 0.18,-0.07 0.18,-0.07 0.18,-0.06 0.18,-0.05 0.18,-0.04 0.18,-0.04 0.18,-0.03 0.18,-0.02 0.18,-0.01 0.18,-0.01 0.18,0.01 0.18,0.01 0.18,0.03 0.18,0.03 0.18,0.04 0.18,0.05 0.18,0.06 0.18,0.07 0.18,0.07 0.18,0.08 0.18,0.08 0.18,0.08 0.18,0.08 0.18,0.08 0.18,0.08 0.18,0.07 0.18,0.07 0.18,0.06 0.18,0.06 0.18,0.04 0.18,0.04 0.18,0.04 0.18,0.03 0.18,0.02 0.18,0.02 0.18,0.01 0.18,0.01 0.18,0.01 h 0.18 l 0.18,0.01 h 0.18 0.18 0.18 0.18 0.18 l 0.18,0.01 h 0.18 l 0.18,-0.01"
                 class="primitive"
                 id="path2764" />
            </g>
          </g>
        </g>
      </g>
    </g>
    <g
       class="guide ylabels"
       font-size="2.82px"
       font-family="'PT Sans Caption', 'Helvetica Neue', Helvetica, sans-serif"
       fill="#6c606b"
       id="img-8397a389-41">
      <g
         transform="translate(18.63,98.71)"
         id="img-8397a389-42">
        <g
           class="primitive"
           id="g2774">
          <text
             text-anchor="end"
             dy="0.34999999em"
             id="text2772">0</text>
        </g>
      </g>
      <g
         transform="translate(18.63,75.79)"
         id="img-8397a389-43">
        <g
           class="primitive"
           id="g2779">
          <text
             text-anchor="end"
             dy="0.34999999em"
             id="text2777">50</text>
        </g>
      </g>
      <g
         transform="translate(18.63,52.86)"
         id="img-8397a389-44">
        <g
           class="primitive"
           id="g2784">
          <text
             text-anchor="end"
             dy="0.34999999em"
             id="text2782">100</text>
        </g>
      </g>
      <g
         transform="translate(18.63,29.93)"
         id="img-8397a389-45">
        <g
           class="primitive"
           id="g2789">
          <text
             text-anchor="end"
             dy="0.34999999em"
             id="text2787">150</text>
        </g>
      </g>
      <g
         transform="translate(18.63,7)"
         id="img-8397a389-46">
        <g
           class="primitive"
           id="g2794">
          <text
             text-anchor="end"
             dy="0.34999999em"
             id="text2792">200</text>
        </g>
      </g>
    </g>
    <g
       font-size="3.88px"
       font-family="'PT Sans', 'Helvetica Neue', Helvetica, sans-serif"
       fill="#564a55"
       stroke="#000000"
       stroke-opacity="0"
       id="img-8397a389-47">
      <g
         transform="translate(8.81,50.86)"
         id="img-8397a389-48">
        <g
           class="primitive"
           id="g2800">
          <text
             text-anchor="middle"
             dy="0.34999999em"
             transform="rotate(-90,0,2)"
             id="text2798">Density</text>
        </g>
      </g>
    </g>
  </g>
  <defs
     id="defs2808">
    <clipPath
       id="img-8397a389-19">
      <path
         d="m 19.63,5 h 157.91 v 95.72 H 19.63"
         id="path2805" />
    </clipPath>
  </defs>
</svg>
