<?xml version="1.0" encoding="UTF-8"?>
<svg xmlns="http://www.w3.org/2000/svg"
     xmlns:xlink="http://www.w3.org/1999/xlink"
     xmlns:gadfly="http://www.gadflyjl.org/ns"
     version="1.2"
     width="200mm" height="120mm" viewBox="0 0 200 120"
     stroke="none"
     fill="#000000"
     stroke-width="0.3"
     font-size="3.88"
>
<defs>
  <marker id="arrow" markerWidth="15" markerHeight="7" refX="5" refY="3.5" orient="auto" markerUnits="strokeWidth">
    <path d="M0,0 L15,3.5 L0,7 z" stroke="context-stroke" fill="context-stroke"/>
  </marker>
</defs>
<g class="plotroot xscalable yscalable" id="img-f826cbcc-1">
  <g font-size="3.53" font-family="CMU Serif" fill="#564A55" stroke="#000000" stroke-opacity="0.000" id="img-f826cbcc-2">
    <g transform="translate(100.81,108.71)">
      <g class="primitive">
        <text text-anchor="middle" dy="0.6em">Parallax (mas)</text>
      </g>
    </g>
  </g>
  <g class="guide xlabels" font-size="3.53" font-family="CMU Serif" fill="#6C606B" id="img-f826cbcc-3">
    <g transform="translate(23.15,101.42)">
      <g class="primitive">
        <text text-anchor="middle" dy="0.6em">0</text>
      </g>
    </g>
    <g transform="translate(64.66,101.42)">
      <g class="primitive">
        <text text-anchor="middle" dy="0.6em">200</text>
      </g>
    </g>
    <g transform="translate(106.17,101.42)">
      <g class="primitive">
        <text text-anchor="middle" dy="0.6em">400</text>
      </g>
    </g>
    <g transform="translate(147.68,101.42)">
      <g class="primitive">
        <text text-anchor="middle" dy="0.6em">600</text>
      </g>
    </g>
  </g>
  <g class="guide colorkey" id="img-f826cbcc-4">
    <g fill="#4C404B" font-size="3.53" font-family="CMU Serif" id="img-f826cbcc-5">
      <g transform="translate(184.62,48.42)" id="img-f826cbcc-6" class="color_Area_1">
        <g class="primitive">
          <text dy="0.35em">Area 1</text>
        </g>
      </g>
      <g transform="translate(184.62,52.71)" id="img-f826cbcc-7" class="color_Area_2">
        <g class="primitive">
          <text dy="0.35em">Area 2</text>
        </g>
      </g>
      <g transform="translate(184.62,57)" id="img-f826cbcc-8" class="color_Area_3">
        <g class="primitive">
          <text dy="0.35em">Area 3</text>
        </g>
      </g>
      <g transform="translate(184.62,61.29)" id="img-f826cbcc-9" class="color_Area_4">
        <g class="primitive">
          <text dy="0.35em">Area 4</text>
        </g>
      </g>
    </g>
    <g fill-opacity="1" id="img-f826cbcc-10">
      <g transform="translate(182.55,48.42)" id="img-f826cbcc-11" stroke="#FFFFFF" class="color_Area_1" fill="#FF6347">
        <path d="M-1.07,-1.07 L1.07,-1.07 1.07,1.07 -1.07,1.07  z" class="primitive"/>
      </g>
      <g transform="translate(182.55,52.71)" id="img-f826cbcc-12" stroke="#FFFFFF" class="color_Area_2" fill="#4169E1">
        <path d="M-1.07,-1.07 L1.07,-1.07 1.07,1.07 -1.07,1.07  z" class="primitive"/>
      </g>
      <g transform="translate(182.55,57)" id="img-f826cbcc-13" stroke="#FFFFFF" class="color_Area_3" fill="#B23AEE">
        <path d="M-1.07,-1.07 L1.07,-1.07 1.07,1.07 -1.07,1.07  z" class="primitive"/>
      </g>
      <g transform="translate(182.55,61.29)" id="img-f826cbcc-14" stroke="#FFFFFF" class="color_Area_4" fill="#00CD66">
        <path d="M-1.07,-1.07 L1.07,-1.07 1.07,1.07 -1.07,1.07  z" class="primitive"/>
      </g>
    </g>
    <g fill="#362A35" font-size="4.23" font-family="CMU Serif" stroke="#000000" stroke-opacity="0.000" id="img-f826cbcc-15">
      <g transform="translate(181.48,44.1)" id="img-f826cbcc-16">
        <g class="primitive">
          <text dy="-0em">Area</text>
        </g>
      </g>
    </g>
  </g>
  <g clip-path="url(#img-f826cbcc-17)">
    <g id="img-f826cbcc-18">
      <g pointer-events="visible" stroke-width="0.3" fill="#000000" fill-opacity="0.000" stroke="#000000" stroke-opacity="0.000" class="guide background" id="img-f826cbcc-19">
        <g transform="translate(100.81,52.71)" id="img-f826cbcc-20">
          <path d="M-79.66,-47.71 L79.66,-47.71 79.66,47.71 -79.66,47.71  z" class="primitive"/>
        </g>
      </g>
      <g class="guide ygridlines xfixed" stroke-dasharray="0.5,0.5" stroke-width="0.2" stroke="#D0D0E0" id="img-f826cbcc-21">
        <g transform="translate(100.81,98.42)" id="img-f826cbcc-22">
          <path fill="none" d="M-79.66,0 L79.66,0 " class="primitive"/>
        </g>
        <g transform="translate(100.81,75.56)" id="img-f826cbcc-23">
          <path fill="none" d="M-79.66,0 L79.66,0 " class="primitive"/>
        </g>
        <g transform="translate(100.81,52.71)" id="img-f826cbcc-24">
          <path fill="none" d="M-79.66,0 L79.66,0 " class="primitive"/>
        </g>
        <g transform="translate(100.81,29.85)" id="img-f826cbcc-25">
          <path fill="none" d="M-79.66,0 L79.66,0 " class="primitive"/>
        </g>
        <g transform="translate(100.81,7)" id="img-f826cbcc-26">
          <path fill="none" d="M-79.66,0 L79.66,0 " class="primitive"/>
        </g>
      </g>
      <g class="guide xgridlines yfixed" stroke-dasharray="0.5,0.5" stroke-width="0.2" stroke="#D0D0E0" id="img-f826cbcc-27">
        <g transform="translate(23.15,52.71)" id="img-f826cbcc-28">
          <path fill="none" d="M0,-47.71 L0,47.71 " class="primitive"/>
        </g>
        <g transform="translate(64.66,52.71)" id="img-f826cbcc-29">
          <path fill="none" d="M0,-47.71 L0,47.71 " class="primitive"/>
        </g>
        <g transform="translate(106.17,52.71)" id="img-f826cbcc-30">
          <path fill="none" d="M0,-47.71 L0,47.71 " class="primitive"/>
        </g>
        <g transform="translate(147.68,52.71)" id="img-f826cbcc-31">
          <path fill="none" d="M0,-47.71 L0,47.71 " class="primitive"/>
        </g>
      </g>
      <g class="plotpanel" id="img-f826cbcc-32">
        <metadata>
          <boundingbox value="21.150000000000006mm 5.0mm 159.32916666666665mm 95.41666666666667mm"/>
          <unitbox value="-9.636247319488703 0.04087511394712853 767.6676276040178 -0.041750227894257065"/>
        </metadata>
        <g stroke-width="0.3" fill="#000000" fill-opacity="0.000" class="geometry" id="img-f826cbcc-33">
          <g transform="translate(53.9,91.29)" id="img-f826cbcc-34" stroke-dasharray="none" stroke="#FF6347" class="color_Area_1">
            <path fill="none" d="M-33.13,7.13 L-32.87,7.12 -32.61,7.07 -32.35,6.91 -32.09,6.41 -31.83,5.15 -31.57,2.46 -31.31,-2.28 -31.05,-9.27 -30.79,-17.86 -30.53,-26.67 -30.27,-34.22 -30.01,-39.64 -29.75,-42.91 -29.49,-44.58 -29.23,-45.33 -28.97,-45.72 -28.71,-46.04 -28.45,-46.33 -28.19,-46.41 -27.93,-46.09 -27.67,-45.34 -27.41,-44.4 -27.16,-43.66 -26.9,-43.49 -26.64,-43.94 -26.38,-44.78 -26.12,-45.59 -25.86,-45.99 -25.6,-45.76 -25.34,-44.81 -25.08,-43.18 -24.82,-40.96 -24.56,-38.29 -24.3,-35.35 -24.04,-32.29 -23.78,-29.25 -23.52,-26.33 -23.26,-23.62 -23,-21.17 -22.74,-19.01 -22.48,-17.09 -22.22,-15.33 -21.96,-13.63 -21.7,-11.94 -21.44,-10.27 -21.18,-8.67 -20.92,-7.19 -20.66,-5.9 -20.4,-4.84 -20.14,-4.06 -19.88,-3.47 -19.62,-2.95 -19.36,-2.37 -19.1,-1.67 -18.84,-0.86 -18.58,-0.01 -18.32,0.84 -18.06,1.63 -17.8,2.33 -17.54,2.89 -17.28,3.27 -17.02,3.49 -16.76,3.6 -16.5,3.65 -16.24,3.71 -15.98,3.79 -15.72,3.92 -15.46,4.09 -15.2,4.31 -14.94,4.58 -14.68,4.89 -14.42,5.18 -14.16,5.41 -13.9,5.53 -13.64,5.53 -13.38,5.44 -13.12,5.34 -12.86,5.29 -12.6,5.3 -12.34,5.37 -12.08,5.51 -11.82,5.69 -11.56,5.89 -11.3,6.08 -11.04,6.21 -10.78,6.28 -10.52,6.29 -10.26,6.27 -10,6.26 -9.74,6.28 -9.48,6.33 -9.22,6.39 -8.97,6.43 -8.71,6.45 -8.45,6.47 -8.19,6.5 -7.93,6.55 -7.67,6.6 -7.41,6.63 -7.15,6.66 -6.89,6.68 -6.63,6.73 -6.37,6.8 -6.11,6.87 -5.85,6.92 -5.59,6.92 -5.33,6.9 -5.07,6.89 -4.81,6.9 -4.55,6.94 -4.29,6.98 -4.03,7 -3.77,7 -3.51,6.99 -3.25,6.99 -2.99,7 -2.73,7.02 -2.47,7.05 -2.21,7.06 -1.95,7.05 -1.69,7.01 -1.43,6.96 -1.17,6.9 -0.91,6.86 -0.65,6.82 -0.39,6.8 -0.13,6.8 0.13,6.82 0.39,6.86 0.65,6.89 0.91,6.89 1.17,6.87 1.43,6.85 1.69,6.85 1.95,6.89 2.21,6.94 2.47,7 2.73,7.06 2.99,7.09 3.25,7.12 3.51,7.12 3.77,7.13 4.03,7.13 4.29,7.13 4.55,7.13 4.81,7.13 5.07,7.13 5.33,7.13 5.59,7.13 5.85,7.13 6.11,7.12 6.37,7.11 6.63,7.1 6.89,7.08 7.15,7.06 7.41,7.05 7.67,7.06 7.93,7.07 8.19,7.09 8.45,7.09 8.71,7.08 8.97,7.06 9.22,7.02 9.48,6.98 9.74,6.97 10,6.98 10.26,6.99 10.52,7 10.78,6.98 11.04,6.96 11.3,6.94 11.56,6.93 11.82,6.95 12.08,6.99 12.34,7.03 12.6,7.07 12.86,7.1 13.12,7.12 13.38,7.13 13.64,7.13 13.9,7.13 14.16,7.13 14.42,7.13 14.68,7.13 14.94,7.13 15.2,7.13 15.46,7.13 15.72,7.13 15.98,7.13 16.24,7.13 16.5,7.13 16.76,7.13 17.02,7.13 17.28,7.13 17.54,7.13 17.8,7.13 18.06,7.13 18.32,7.13 18.58,7.13 18.84,7.13 19.1,7.13 19.36,7.13 19.62,7.13 19.88,7.13 20.14,7.13 20.4,7.13 20.66,7.13 20.92,7.13 21.18,7.13 21.44,7.13 21.7,7.13 21.96,7.13 22.22,7.13 22.48,7.13 22.74,7.13 23,7.13 23.26,7.13 23.52,7.13 23.78,7.13 24.04,7.13 24.3,7.13 24.56,7.13 24.82,7.13 25.08,7.13 25.34,7.13 25.6,7.13 25.86,7.12 26.12,7.12 26.38,7.1 26.64,7.08 26.9,7.06 27.16,7.05 27.41,7.06 27.67,7.07 27.93,7.09 28.19,7.11 28.45,7.12 28.71,7.13 28.97,7.13 29.23,7.13 29.49,7.12 29.75,7.11 30.01,7.09 30.27,7.07 30.53,7.06 30.79,7.05 31.05,7.06 31.31,7.08 31.57,7.1 31.83,7.12 32.09,7.12 32.35,7.13 32.61,7.13 32.87,7.13 33.13,7.13 " class="primitive"/>
          </g>
          <g transform="translate(51.4,90.59)" id="img-f826cbcc-35" stroke-dasharray="none" stroke="#B23AEE" class="color_Area_3">
            <path fill="none" d="M-30.2,7.82 L-29.96,7.8 -29.72,7.71 -29.49,7.36 -29.25,6.25 -29.01,3.4 -28.78,-2.41 -28.54,-11.87 -28.3,-24.19 -28.07,-37 -27.83,-47.65 -27.59,-54.76 -27.36,-58.65 -27.12,-60.42 -26.88,-61.05 -26.65,-61.2 -26.41,-61.35 -26.17,-61.79 -25.93,-62.44 -25.7,-62.87 -25.46,-62.58 -25.22,-61.36 -24.99,-59.45 -24.75,-57.44 -24.51,-55.95 -24.28,-55.2 -24.04,-54.91 -23.8,-54.38 -23.57,-52.94 -23.33,-50.28 -23.09,-46.54 -22.86,-42.17 -22.62,-37.62 -22.38,-33.13 -22.15,-28.71 -21.91,-24.32 -21.67,-20.03 -21.43,-16.03 -21.2,-12.6 -20.96,-9.97 -20.72,-8.16 -20.49,-6.97 -20.25,-6.05 -20.01,-5.13 -19.78,-4.19 -19.54,-3.37 -19.3,-2.76 -19.07,-2.22 -18.83,-1.57 -18.59,-0.73 -18.36,0.23 -18.12,1.18 -17.88,2.03 -17.64,2.76 -17.41,3.31 -17.17,3.64 -16.93,3.73 -16.7,3.67 -16.46,3.63 -16.22,3.78 -15.99,4.17 -15.75,4.73 -15.51,5.34 -15.28,5.86 -15.04,6.2 -14.8,6.33 -14.57,6.32 -14.33,6.27 -14.09,6.27 -13.86,6.33 -13.62,6.41 -13.38,6.46 -13.14,6.46 -12.91,6.45 -12.67,6.47 -12.43,6.53 -12.2,6.6 -11.96,6.64 -11.72,6.65 -11.49,6.67 -11.25,6.75 -11.01,6.88 -10.78,7.04 -10.54,7.17 -10.3,7.24 -10.07,7.24 -9.83,7.21 -9.59,7.17 -9.36,7.17 -9.12,7.23 -8.88,7.32 -8.64,7.4 -8.41,7.45 -8.17,7.45 -7.93,7.45 -7.7,7.45 -7.46,7.46 -7.22,7.46 -6.99,7.47 -6.75,7.48 -6.51,7.49 -6.28,7.5 -6.04,7.53 -5.8,7.57 -5.57,7.61 -5.33,7.63 -5.09,7.61 -4.86,7.57 -4.62,7.54 -4.38,7.53 -4.14,7.51 -3.91,7.48 -3.67,7.41 -3.43,7.31 -3.2,7.23 -2.96,7.22 -2.72,7.31 -2.49,7.44 -2.25,7.56 -2.01,7.63 -1.78,7.67 -1.54,7.71 -1.3,7.75 -1.07,7.78 -0.83,7.8 -0.59,7.79 -0.36,7.77 -0.12,7.72 0.12,7.68 0.36,7.64 0.59,7.62 0.83,7.62 1.07,7.64 1.3,7.66 1.54,7.67 1.78,7.68 2.01,7.7 2.25,7.73 2.49,7.76 2.72,7.79 2.96,7.8 3.2,7.79 3.43,7.77 3.67,7.74 3.91,7.71 4.14,7.7 4.38,7.72 4.62,7.76 4.86,7.79 5.09,7.8 5.33,7.8 5.57,7.78 5.8,7.75 6.04,7.72 6.28,7.7 6.51,7.71 6.75,7.74 6.99,7.77 7.22,7.8 7.46,7.81 7.7,7.82 7.93,7.82 8.17,7.82 8.41,7.82 8.64,7.82 8.88,7.82 9.12,7.82 9.36,7.82 9.59,7.82 9.83,7.82 10.07,7.82 10.3,7.82 10.54,7.82 10.78,7.82 11.01,7.82 11.25,7.82 11.49,7.82 11.72,7.82 11.96,7.82 12.2,7.82 12.43,7.82 12.67,7.82 12.91,7.82 13.14,7.82 13.38,7.81 13.62,7.78 13.86,7.75 14.09,7.72 14.33,7.7 14.57,7.71 14.8,7.74 15.04,7.78 15.28,7.8 15.51,7.82 15.75,7.82 15.99,7.82 16.22,7.82 16.46,7.82 16.7,7.81 16.93,7.78 17.17,7.75 17.41,7.72 17.64,7.7 17.88,7.71 18.12,7.74 18.36,7.77 18.59,7.78 18.83,7.77 19.07,7.74 19.3,7.71 19.54,7.7 19.78,7.72 20.01,7.75 20.25,7.78 20.49,7.81 20.72,7.82 20.96,7.82 21.2,7.82 21.43,7.82 21.67,7.82 21.91,7.82 22.15,7.82 22.38,7.82 22.62,7.82 22.86,7.82 23.09,7.82 23.33,7.82 23.57,7.82 23.8,7.82 24.04,7.82 24.28,7.82 24.51,7.82 24.75,7.82 24.99,7.82 25.22,7.82 25.46,7.82 25.7,7.82 25.93,7.82 26.17,7.82 26.41,7.82 26.65,7.82 26.88,7.82 27.12,7.81 27.36,7.8 27.59,7.77 27.83,7.74 28.07,7.71 28.3,7.7 28.54,7.72 28.78,7.75 29.01,7.79 29.25,7.81 29.49,7.82 29.72,7.82 29.96,7.82 30.2,7.82 " class="primitive"/>
          </g>
          <g transform="translate(99.87,95.41)" id="img-f826cbcc-36" stroke-dasharray="none" stroke="#4169E1" class="color_Area_2">
            <path fill="none" d="M-78.61,2.98 L-77.99,2.48 -77.38,-5.11 -76.76,-29.62 -76.14,-56.27 -75.53,-65.57 -74.91,-66.24 -74.29,-67.67 -73.68,-66.3 -73.06,-62.72 -72.44,-62.54 -71.83,-59.55 -71.21,-49.09 -70.59,-36.82 -69.98,-26.17 -69.36,-17.26 -68.74,-10.91 -68.13,-6.97 -67.51,-4.4 -66.89,-2.4 -66.28,-1.18 -65.66,-0.29 -65.04,1.01 -64.43,1.79 -63.81,1.87 -63.2,2.2 -62.58,2.55 -61.96,2.72 -61.35,2.69 -60.73,2.69 -60.11,2.77 -59.5,2.72 -58.88,2.73 -58.26,2.76 -57.65,2.68 -57.03,2.71 -56.41,2.81 -55.8,2.9 -55.18,2.88 -54.56,2.86 -53.95,2.79 -53.33,2.85 -52.71,2.96 -52.1,2.96 -51.48,2.88 -50.86,2.86 -50.25,2.88 -49.63,2.96 -49.01,3 -48.4,3 -47.78,3.01 -47.17,3 -46.55,3 -45.93,2.94 -45.32,2.81 -44.7,2.8 -44.08,2.86 -43.47,2.91 -42.85,2.98 -42.23,3 -41.62,3.01 -41,3.01 -40.38,3.01 -39.77,3.01 -39.15,3 -38.53,2.98 -37.92,2.92 -37.3,2.91 -36.68,2.97 -36.07,3 -35.45,3 -34.83,2.95 -34.22,2.89 -33.6,2.94 -32.98,2.94 -32.37,2.88 -31.75,2.95 -31.14,3 -30.52,3 -29.9,3.01 -29.29,3.01 -28.67,3.01 -28.05,3.01 -27.44,3.01 -26.82,3.01 -26.2,3.01 -25.59,3.01 -24.97,3.01 -24.35,3.01 -23.74,3.01 -23.12,3.01 -22.5,3.01 -21.89,3.01 -21.27,3.01 -20.65,3.01 -20.04,3.01 -19.42,3.01 -18.8,3.01 -18.19,3.01 -17.57,3.01 -16.95,3.01 -16.34,3.01 -15.72,3.01 -15.11,3.01 -14.49,3.01 -13.87,3.01 -13.26,3.01 -12.64,3.01 -12.02,3.01 -11.41,3 -10.79,3 -10.17,2.97 -9.56,2.9 -8.94,2.93 -8.32,2.98 -7.71,3 -7.09,3.01 -6.47,3.01 -5.86,3.01 -5.24,3.01 -4.62,3.01 -4.01,3.01 -3.39,3.01 -2.77,3.01 -2.16,3.01 -1.54,3.01 -0.92,3.01 -0.31,3.01 0.31,3.01 0.92,3.01 1.54,3.01 2.16,3.01 2.77,3.01 3.39,3.01 4.01,3.01 4.62,3.01 5.24,3.01 5.86,3.01 6.47,3.01 7.09,3.01 7.71,3.01 8.32,3.01 8.94,3.01 9.56,3.01 10.17,3.01 10.79,3.01 11.41,3.01 12.02,3.01 12.64,3.01 13.26,3.01 13.87,3.01 14.49,3.01 15.11,3.01 15.72,3.01 16.34,3.01 16.95,3.01 17.57,3.01 18.19,3.01 18.8,3.01 19.42,3.01 20.04,3.01 20.65,3.01 21.27,3.01 21.89,3.01 22.5,3.01 23.12,3.01 23.74,3.01 24.35,3.01 24.97,3.01 25.59,3.01 26.2,3.01 26.82,3.01 27.44,3.01 28.05,3.01 28.67,3.01 29.29,3.01 29.9,3.01 30.52,3.01 31.14,3.01 31.75,3.01 32.37,3.01 32.98,3.01 33.6,3.01 34.22,3.01 34.83,3.01 35.45,3.01 36.07,3.01 36.68,3.01 37.3,3.01 37.92,3.01 38.53,3.01 39.15,3.01 39.77,3.01 40.38,3.01 41,3.01 41.62,3.01 42.23,3.01 42.85,3.01 43.47,3.01 44.08,3.01 44.7,3.01 45.32,3.01 45.93,3.01 46.55,3.01 47.17,3.01 47.78,3.01 48.4,3.01 49.01,3.01 49.63,3.01 50.25,3.01 50.86,3.01 51.48,3.01 52.1,3.01 52.71,3.01 53.33,3.01 53.95,3.01 54.56,3.01 55.18,3.01 55.8,3.01 56.41,3.01 57.03,3.01 57.65,3.01 58.26,3.01 58.88,3.01 59.5,3.01 60.11,3.01 60.73,3.01 61.35,3.01 61.96,3.01 62.58,3.01 63.2,3.01 63.81,3.01 64.43,3.01 65.04,3.01 65.66,3.01 66.28,3.01 66.89,3.01 67.51,3.01 68.13,3.01 68.74,3.01 69.36,3.01 69.98,3.01 70.59,3.01 71.21,3.01 71.83,3.01 72.44,3.01 73.06,3.01 73.68,3.01 74.29,3.01 74.91,3 75.53,3 76.14,2.95 76.76,2.88 77.38,2.95 77.99,3 78.61,3.01 " class="primitive"/>
          </g>
          <g transform="translate(52.29,90.78)" id="img-f826cbcc-37" stroke-dasharray="none" stroke="#00CD66" class="color_Area_4">
            <path fill="none" d="M-30.93,7.63 L-30.68,7.61 -30.44,7.46 -30.2,6.81 -29.96,4.68 -29.71,-0.66 -29.47,-10.8 -29.23,-25.45 -28.99,-41.49 -28.74,-54.81 -28.5,-63.23 -28.26,-67.42 -28.02,-69.16 -27.77,-69.7 -27.53,-69.7 -27.29,-69.75 -27.05,-70.31 -26.8,-71.26 -26.56,-71.89 -26.32,-71.45 -26.07,-69.6 -25.83,-66.57 -25.59,-63.1 -25.35,-60.06 -25.1,-57.85 -24.86,-56.09 -24.62,-53.81 -24.38,-50.15 -24.13,-44.91 -23.89,-38.72 -23.65,-32.57 -23.41,-27.21 -23.16,-22.79 -22.92,-19.04 -22.68,-15.67 -22.44,-12.63 -22.19,-9.99 -21.95,-7.77 -21.71,-5.86 -21.47,-4.22 -21.22,-2.86 -20.98,-1.8 -20.74,-1.06 -20.5,-0.6 -20.25,-0.31 -20.01,-0.03 -19.77,0.37 -19.53,0.92 -19.28,1.59 -19.04,2.35 -18.8,3.14 -18.56,3.85 -18.31,4.42 -18.07,4.87 -17.83,5.21 -17.59,5.38 -17.34,5.37 -17.1,5.31 -16.86,5.42 -16.62,5.81 -16.37,6.37 -16.13,6.88 -15.89,7.13 -15.64,7.09 -15.4,6.85 -15.16,6.58 -14.92,6.46 -14.67,6.53 -14.43,6.72 -14.19,6.86 -13.95,6.87 -13.7,6.8 -13.46,6.78 -13.22,6.86 -12.98,7.01 -12.73,7.15 -12.49,7.21 -12.25,7.2 -12.01,7.13 -11.76,7.02 -11.52,6.89 -11.28,6.75 -11.04,6.64 -10.79,6.59 -10.55,6.6 -10.31,6.68 -10.07,6.83 -9.82,7 -9.58,7.12 -9.34,7.17 -9.1,7.13 -8.85,7.02 -8.61,6.89 -8.37,6.8 -8.13,6.84 -7.88,7 -7.64,7.22 -7.4,7.38 -7.16,7.45 -6.91,7.47 -6.67,7.5 -6.43,7.54 -6.19,7.59 -5.94,7.62 -5.7,7.63 -5.46,7.64 -5.21,7.63 -4.97,7.62 -4.73,7.59 -4.49,7.54 -4.24,7.5 -4,7.49 -3.76,7.52 -3.52,7.57 -3.27,7.61 -3.03,7.63 -2.79,7.64 -2.55,7.64 -2.3,7.64 -2.06,7.64 -1.82,7.64 -1.58,7.64 -1.33,7.64 -1.09,7.64 -0.85,7.64 -0.61,7.64 -0.36,7.64 -0.12,7.64 0.12,7.64 0.36,7.64 0.61,7.64 0.85,7.64 1.09,7.64 1.33,7.64 1.58,7.64 1.82,7.64 2.06,7.64 2.3,7.64 2.55,7.64 2.79,7.64 3.03,7.64 3.27,7.64 3.52,7.64 3.76,7.64 4,7.64 4.24,7.64 4.49,7.64 4.73,7.63 4.97,7.62 5.21,7.58 5.46,7.53 5.7,7.46 5.94,7.41 6.19,7.39 6.43,7.42 6.67,7.48 6.91,7.55 7.16,7.6 7.4,7.62 7.64,7.64 7.88,7.64 8.13,7.64 8.37,7.64 8.61,7.64 8.85,7.64 9.1,7.64 9.34,7.64 9.58,7.64 9.82,7.64 10.07,7.64 10.31,7.64 10.55,7.64 10.79,7.64 11.04,7.64 11.28,7.64 11.52,7.64 11.76,7.64 12.01,7.64 12.25,7.64 12.49,7.64 12.73,7.64 12.98,7.64 13.22,7.64 13.46,7.64 13.7,7.64 13.95,7.64 14.19,7.64 14.43,7.64 14.67,7.64 14.92,7.64 15.16,7.64 15.4,7.63 15.64,7.61 15.89,7.58 16.13,7.53 16.37,7.5 16.62,7.5 16.86,7.53 17.1,7.58 17.34,7.61 17.59,7.63 17.83,7.64 18.07,7.64 18.31,7.64 18.56,7.64 18.8,7.64 19.04,7.64 19.28,7.64 19.53,7.64 19.77,7.64 20.01,7.64 20.25,7.64 20.5,7.64 20.74,7.64 20.98,7.64 21.22,7.64 21.47,7.64 21.71,7.64 21.95,7.64 22.19,7.64 22.44,7.64 22.68,7.64 22.92,7.64 23.16,7.64 23.41,7.64 23.65,7.64 23.89,7.64 24.13,7.64 24.38,7.64 24.62,7.64 24.86,7.64 25.1,7.64 25.35,7.64 25.59,7.64 25.83,7.64 26.07,7.64 26.32,7.64 26.56,7.64 26.8,7.64 27.05,7.64 27.29,7.64 27.53,7.64 27.77,7.63 28.02,7.62 28.26,7.59 28.5,7.52 28.74,7.43 28.99,7.36 29.23,7.35 29.47,7.42 29.71,7.51 29.96,7.58 30.2,7.62 30.44,7.63 30.68,7.64 30.93,7.64 " class="primitive"/>
          </g>
        </g>
      </g>
    </g>
  </g>
  <g class="guide ylabels" font-size="3.53" font-family="CMU Serif" fill="#6C606B" id="img-f826cbcc-38">
    <g transform="translate(20.15,98.42)" id="img-f826cbcc-39">
      <g class="primitive">
        <text text-anchor="end" dy="0.35em">0.00</text>
      </g>
    </g>
    <g transform="translate(20.15,75.56)" id="img-f826cbcc-40">
      <g class="primitive">
        <text text-anchor="end" dy="0.35em">0.01</text>
      </g>
    </g>
    <g transform="translate(20.15,52.71)" id="img-f826cbcc-41">
      <g class="primitive">
        <text text-anchor="end" dy="0.35em">0.02</text>
      </g>
    </g>
    <g transform="translate(20.15,29.85)" id="img-f826cbcc-42">
      <g class="primitive">
        <text text-anchor="end" dy="0.35em">0.03</text>
      </g>
    </g>
    <g transform="translate(20.15,7)" id="img-f826cbcc-43">
      <g class="primitive">
        <text text-anchor="end" dy="0.35em">0.04</text>
      </g>
    </g>
  </g>
  <g font-size="3.53" font-family="CMU Serif" fill="#564A55" stroke="#000000" stroke-opacity="0.000" id="img-f826cbcc-44">
    <g transform="translate(8.65,50.71)" id="img-f826cbcc-45">
      <g class="primitive">
        <text text-anchor="middle" dy="0.35em" transform="rotate(-90,0, 2)">Density</text>
      </g>
    </g>
  </g>
</g>
<defs>
  <clipPath id="img-f826cbcc-17">
    <path d="M21.15,5 L180.48,5 180.48,100.42 21.15,100.42 " />
  </clipPath>
</defs>
</svg>
