<?xml version="1.0" encoding="UTF-8"?>
<svg xmlns="http://www.w3.org/2000/svg"
     xmlns:xlink="http://www.w3.org/1999/xlink"
     xmlns:gadfly="http://www.gadflyjl.org/ns"
     version="1.2"
     width="200mm" height="120mm" viewBox="0 0 200 120"
     stroke="none"
     fill="#000000"
     stroke-width="0.3"
     font-size="3.88"
>
<defs>
  <marker id="arrow" markerWidth="15" markerHeight="7" refX="5" refY="3.5" orient="auto" markerUnits="strokeWidth">
    <path d="M0,0 L15,3.5 L0,7 z" stroke="context-stroke" fill="context-stroke"/>
  </marker>
</defs>
<g class="plotroot xscalable yscalable" id="img-1f933ac3-1">
  <g font-size="3.88" font-family="'PT Sans','Helvetica Neue','Helvetica',sans-serif" fill="#564A55" stroke="#000000" stroke-opacity="0.000" id="img-1f933ac3-2">
    <g transform="translate(101.04,108.39)">
      <g class="primitive">
        <text text-anchor="middle" dy="0.6em">Pheromone Value</text>
      </g>
    </g>
  </g>
  <g class="guide xlabels" font-size="2.82" font-family="'PT Sans Caption','Helvetica Neue','Helvetica',sans-serif" fill="#6C606B" id="img-1f933ac3-3">
    <g transform="translate(20.63,101.72)">
      <g class="primitive">
        <text text-anchor="middle" dy="0.6em">0</text>
      </g>
    </g>
    <g transform="translate(119.35,101.72)">
      <g class="primitive">
        <text text-anchor="middle" dy="0.6em">5</text>
      </g>
    </g>
  </g>
  <g class="guide colorkey" id="img-1f933ac3-4">
    <g fill="#4C404B" font-size="2.82" font-family="'PT Sans','Helvetica Neue','Helvetica',sans-serif" id="img-1f933ac3-5">
      <g transform="translate(187.26,49.23)" id="img-1f933ac3-6" class="color_Area_1">
        <g class="primitive">
          <text dy="0.35em">Area 1</text>
        </g>
      </g>
      <g transform="translate(187.26,52.86)" id="img-1f933ac3-7" class="color_Area_2">
        <g class="primitive">
          <text dy="0.35em">Area 2</text>
        </g>
      </g>
      <g transform="translate(187.26,56.48)" id="img-1f933ac3-8" class="color_Area_3">
        <g class="primitive">
          <text dy="0.35em">Area 3</text>
        </g>
      </g>
      <g transform="translate(187.26,60.11)" id="img-1f933ac3-9" class="color_Area_4">
        <g class="primitive">
          <text dy="0.35em">Area 4</text>
        </g>
      </g>
    </g>
    <g fill-opacity="1" id="img-1f933ac3-10">
      <g transform="translate(185.35,49.23)" id="img-1f933ac3-11" stroke="#FFFFFF" class="color_Area_1" fill="#FF6347">
        <path d="M-0.91,-0.91 L0.91,-0.91 0.91,0.91 -0.91,0.91  z" class="primitive"/>
      </g>
      <g transform="translate(185.35,52.86)" id="img-1f933ac3-12" stroke="#FFFFFF" class="color_Area_2" fill="#4169E1">
        <path d="M-0.91,-0.91 L0.91,-0.91 0.91,0.91 -0.91,0.91  z" class="primitive"/>
      </g>
      <g transform="translate(185.35,56.48)" id="img-1f933ac3-13" stroke="#FFFFFF" class="color_Area_3" fill="#B23AEE">
        <path d="M-0.91,-0.91 L0.91,-0.91 0.91,0.91 -0.91,0.91  z" class="primitive"/>
      </g>
      <g transform="translate(185.35,60.11)" id="img-1f933ac3-14" stroke="#FFFFFF" class="color_Area_4" fill="#00CD66">
        <path d="M-0.91,-0.91 L0.91,-0.91 0.91,0.91 -0.91,0.91  z" class="primitive"/>
      </g>
    </g>
    <g fill="#362A35" font-size="3.88" font-family="'PT Sans','Helvetica Neue','Helvetica',sans-serif" stroke="#000000" stroke-opacity="0.000" id="img-1f933ac3-15">
      <g transform="translate(184.45,45.41)" id="img-1f933ac3-16">
        <g class="primitive">
          <text dy="-0em">Area</text>
        </g>
      </g>
    </g>
  </g>
  <g clip-path="url(#img-1f933ac3-17)">
    <g id="img-1f933ac3-18">
      <g pointer-events="visible" stroke-width="0.3" fill="#000000" fill-opacity="0.000" stroke="#000000" stroke-opacity="0.000" class="guide background" id="img-1f933ac3-19">
        <g transform="translate(101.04,52.86)" id="img-1f933ac3-20">
          <path d="M-82.41,-47.86 L82.41,-47.86 82.41,47.86 -82.41,47.86  z" class="primitive"/>
        </g>
      </g>
      <g class="guide ygridlines xfixed" stroke-dasharray="0.5,0.5" stroke-width="0.2" stroke="#D0D0E0" id="img-1f933ac3-21">
        <g transform="translate(101.04,98.71)" id="img-1f933ac3-22">
          <path fill="none" d="M-82.41,0 L82.41,0 " class="primitive"/>
        </g>
        <g transform="translate(101.04,80.37)" id="img-1f933ac3-23">
          <path fill="none" d="M-82.41,0 L82.41,0 " class="primitive"/>
        </g>
        <g transform="translate(101.04,62.03)" id="img-1f933ac3-24">
          <path fill="none" d="M-82.41,0 L82.41,0 " class="primitive"/>
        </g>
        <g transform="translate(101.04,43.69)" id="img-1f933ac3-25">
          <path fill="none" d="M-82.41,0 L82.41,0 " class="primitive"/>
        </g>
        <g transform="translate(101.04,25.34)" id="img-1f933ac3-26">
          <path fill="none" d="M-82.41,0 L82.41,0 " class="primitive"/>
        </g>
        <g transform="translate(101.04,7)" id="img-1f933ac3-27">
          <path fill="none" d="M-82.41,0 L82.41,0 " class="primitive"/>
        </g>
      </g>
      <g class="guide xgridlines yfixed" stroke-dasharray="0.5,0.5" stroke-width="0.2" stroke="#D0D0E0" id="img-1f933ac3-28">
        <g transform="translate(20.63,52.86)" id="img-1f933ac3-29">
          <path fill="none" d="M0,-47.86 L0,47.86 " class="primitive"/>
        </g>
        <g transform="translate(119.35,52.86)" id="img-1f933ac3-30">
          <path fill="none" d="M0,-47.86 L0,47.86 " class="primitive"/>
        </g>
      </g>
      <g class="plotpanel" id="img-1f933ac3-31">
        <metadata>
          <boundingbox value="18.63166666666669mm 5.0mm 164.815mm 95.715mm"/>
          <unitbox value="-0.10129916004926383 0.5109033418742844 8.347810531759709 -0.521806683748569"/>
        </metadata>
        <g stroke-width="0.3" fill="#000000" fill-opacity="0.000" class="geometry" id="img-1f933ac3-32">
          <g transform="translate(51.23,70.14)" id="img-1f933ac3-33" stroke-dasharray="none" stroke="#FF6347" class="color_Area_1">
            <path fill="none" d="M-63.13,28.57 L-62.63,28.57 -62.14,28.57 -61.64,28.56 -61.15,28.56 -60.65,28.56 -60.16,28.56 -59.66,28.55 -59.17,28.55 -58.67,28.54 -58.18,28.54 -57.68,28.53 -57.19,28.52 -56.69,28.51 -56.2,28.49 -55.7,28.47 -55.21,28.45 -54.71,28.42 -54.22,28.39 -53.72,28.36 -53.22,28.31 -52.73,28.26 -52.23,28.2 -51.74,28.13 -51.24,28.05 -50.75,27.95 -50.25,27.84 -49.76,27.72 -49.26,27.57 -48.77,27.41 -48.27,27.22 -47.78,27.01 -47.28,26.77 -46.79,26.5 -46.29,26.2 -45.8,25.86 -45.3,25.48 -44.81,25.06 -44.31,24.6 -43.82,24.09 -43.32,23.54 -42.83,22.93 -42.33,22.27 -41.84,21.55 -41.34,20.78 -40.85,19.95 -40.35,19.05 -39.86,18.1 -39.36,17.09 -38.87,16.01 -38.37,14.87 -37.88,13.68 -37.38,12.42 -36.89,11.11 -36.39,9.75 -35.9,8.34 -35.4,6.88 -34.91,5.38 -34.41,3.84 -33.92,2.27 -33.42,0.67 -32.93,-0.96 -32.43,-2.59 -31.93,-4.24 -31.44,-5.9 -30.94,-7.55 -30.45,-9.19 -29.95,-10.82 -29.46,-12.43 -28.96,-14.01 -28.47,-15.57 -27.97,-17.08 -27.48,-18.56 -26.98,-19.99 -26.49,-21.38 -25.99,-22.71 -25.5,-23.98 -25,-25.2 -24.51,-26.36 -24.01,-27.46 -23.52,-28.5 -23.02,-29.48 -22.53,-30.39 -22.03,-31.25 -21.54,-32.05 -21.04,-32.78 -20.55,-33.47 -20.05,-34.09 -19.56,-34.67 -19.06,-35.2 -18.57,-35.67 -18.07,-36.11 -17.58,-36.5 -17.08,-36.85 -16.59,-37.16 -16.09,-37.44 -15.6,-37.69 -15.1,-37.91 -14.61,-38.1 -14.11,-38.27 -13.62,-38.41 -13.12,-38.54 -12.63,-38.64 -12.13,-38.73 -11.64,-38.8 -11.14,-38.86 -10.64,-38.9 -10.15,-38.93 -9.65,-38.95 -9.16,-38.95 -8.66,-38.94 -8.17,-38.92 -7.67,-38.89 -7.18,-38.85 -6.68,-38.79 -6.19,-38.72 -5.69,-38.64 -5.2,-38.54 -4.7,-38.43 -4.21,-38.3 -3.71,-38.15 -3.22,-37.98 -2.72,-37.79 -2.23,-37.58 -1.73,-37.35 -1.24,-37.1 -0.74,-36.81 -0.25,-36.51 0.25,-36.17 0.74,-35.81 1.24,-35.42 1.73,-34.99 2.23,-34.54 2.72,-34.05 3.22,-33.54 3.71,-32.99 4.21,-32.41 4.7,-31.8 5.2,-31.16 5.69,-30.5 6.19,-29.8 6.68,-29.08 7.18,-28.33 7.67,-27.57 8.17,-26.78 8.66,-25.98 9.16,-25.16 9.65,-24.32 10.15,-23.48 10.64,-22.63 11.14,-21.77 11.64,-20.92 12.13,-20.06 12.63,-19.21 13.12,-18.36 13.62,-17.52 14.11,-16.68 14.61,-15.86 15.1,-15.05 15.6,-14.25 16.09,-13.47 16.59,-12.7 17.08,-11.94 17.58,-11.2 18.07,-10.47 18.57,-9.75 19.06,-9.05 19.56,-8.35 20.05,-7.67 20.55,-6.99 21.04,-6.31 21.54,-5.64 22.03,-4.97 22.53,-4.3 23.02,-3.62 23.52,-2.94 24.01,-2.25 24.51,-1.55 25,-0.85 25.5,-0.13 25.99,0.61 26.49,1.35 26.98,2.11 27.48,2.89 27.97,3.67 28.47,4.48 28.96,5.29 29.46,6.11 29.95,6.95 30.45,7.79 30.94,8.65 31.44,9.5 31.93,10.36 32.43,11.22 32.93,12.07 33.42,12.92 33.92,13.76 34.41,14.59 34.91,15.4 35.4,16.2 35.9,16.99 36.39,17.75 36.89,18.49 37.38,19.2 37.88,19.89 38.37,20.55 38.87,21.18 39.36,21.78 39.86,22.35 40.35,22.89 40.85,23.4 41.34,23.87 41.84,24.32 42.33,24.74 42.83,25.12 43.32,25.48 43.82,25.81 44.31,26.11 44.81,26.38 45.3,26.63 45.8,26.86 46.29,27.07 46.79,27.25 47.28,27.42 47.78,27.57 48.27,27.7 48.77,27.82 49.26,27.92 49.76,28.01 50.25,28.09 50.75,28.16 51.24,28.22 51.74,28.28 52.23,28.32 52.73,28.36 53.22,28.4 53.72,28.43 54.22,28.45 54.71,28.47 55.21,28.49 55.7,28.5 56.2,28.52 56.69,28.53 57.19,28.53 57.68,28.54 58.18,28.55 58.67,28.55 59.17,28.56 59.66,28.56 60.16,28.56 60.65,28.56 61.15,28.56 61.64,28.57 62.14,28.57 62.63,28.57 63.13,28.57 " class="primitive"/>
          </g>
          <g transform="translate(58.14,75.1)" id="img-1f933ac3-34" stroke-dasharray="none" stroke="#B23AEE" class="color_Area_3">
            <path fill="none" d="M-76.39,23.61 L-75.79,23.61 -75.19,23.61 -74.59,23.61 -73.99,23.61 -73.39,23.6 -72.79,23.6 -72.2,23.6 -71.6,23.6 -71,23.59 -70.4,23.59 -69.8,23.58 -69.2,23.57 -68.6,23.56 -68,23.55 -67.4,23.54 -66.8,23.52 -66.2,23.51 -65.61,23.48 -65.01,23.46 -64.41,23.42 -63.81,23.39 -63.21,23.34 -62.61,23.29 -62.01,23.23 -61.41,23.16 -60.81,23.08 -60.21,22.99 -59.61,22.88 -59.01,22.76 -58.42,22.62 -57.82,22.46 -57.22,22.28 -56.62,22.08 -56.02,21.85 -55.42,21.6 -54.82,21.32 -54.22,21 -53.62,20.66 -53.02,20.28 -52.42,19.86 -51.82,19.4 -51.23,18.91 -50.63,18.37 -50.03,17.79 -49.43,17.16 -48.83,16.49 -48.23,15.78 -47.63,15.02 -47.03,14.21 -46.43,13.36 -45.83,12.46 -45.23,11.52 -44.64,10.54 -44.04,9.52 -43.44,8.47 -42.84,7.38 -42.24,6.26 -41.64,5.11 -41.04,3.94 -40.44,2.75 -39.84,1.55 -39.24,0.34 -38.64,-0.88 -38.04,-2.1 -37.45,-3.32 -36.85,-4.53 -36.25,-5.73 -35.65,-6.9 -35.05,-8.06 -34.45,-9.2 -33.85,-10.3 -33.25,-11.37 -32.65,-12.41 -32.05,-13.41 -31.45,-14.37 -30.86,-15.28 -30.26,-16.16 -29.66,-16.98 -29.06,-17.77 -28.46,-18.51 -27.86,-19.2 -27.26,-19.84 -26.66,-20.45 -26.06,-21.01 -25.46,-21.52 -24.86,-22 -24.26,-22.43 -23.67,-22.83 -23.07,-23.19 -22.47,-23.52 -21.87,-23.82 -21.27,-24.08 -20.67,-24.32 -20.07,-24.54 -19.47,-24.72 -18.87,-24.89 -18.27,-25.04 -17.67,-25.17 -17.08,-25.28 -16.48,-25.38 -15.88,-25.47 -15.28,-25.54 -14.68,-25.61 -14.08,-25.66 -13.48,-25.71 -12.88,-25.74 -12.28,-25.77 -11.68,-25.8 -11.08,-25.82 -10.48,-25.83 -9.89,-25.85 -9.29,-25.85 -8.69,-25.85 -8.09,-25.85 -7.49,-25.85 -6.89,-25.84 -6.29,-25.83 -5.69,-25.81 -5.09,-25.79 -4.49,-25.77 -3.89,-25.74 -3.3,-25.71 -2.7,-25.67 -2.1,-25.63 -1.5,-25.58 -0.9,-25.52 -0.3,-25.46 0.3,-25.39 0.9,-25.32 1.5,-25.24 2.1,-25.14 2.7,-25.05 3.3,-24.94 3.89,-24.82 4.49,-24.7 5.09,-24.56 5.69,-24.42 6.29,-24.26 6.89,-24.1 7.49,-23.93 8.09,-23.75 8.69,-23.56 9.29,-23.36 9.89,-23.15 10.48,-22.93 11.08,-22.71 11.68,-22.48 12.28,-22.24 12.88,-22 13.48,-21.75 14.08,-21.49 14.68,-21.22 15.28,-20.95 15.88,-20.68 16.48,-20.39 17.08,-20.1 17.67,-19.8 18.27,-19.5 18.87,-19.19 19.47,-18.86 20.07,-18.53 20.67,-18.19 21.27,-17.83 21.87,-17.46 22.47,-17.07 23.07,-16.67 23.67,-16.25 24.26,-15.8 24.86,-15.34 25.46,-14.85 26.06,-14.34 26.66,-13.8 27.26,-13.23 27.86,-12.63 28.46,-12 29.06,-11.35 29.66,-10.66 30.26,-9.94 30.86,-9.19 31.45,-8.41 32.05,-7.59 32.65,-6.75 33.25,-5.88 33.85,-4.99 34.45,-4.07 35.05,-3.13 35.65,-2.17 36.25,-1.19 36.85,-0.2 37.45,0.8 38.04,1.8 38.64,2.81 39.24,3.82 39.84,4.83 40.44,5.82 41.04,6.81 41.64,7.78 42.24,8.74 42.84,9.67 43.44,10.59 44.04,11.47 44.64,12.33 45.23,13.15 45.83,13.94 46.43,14.7 47.03,15.42 47.63,16.11 48.23,16.76 48.83,17.37 49.43,17.95 50.03,18.49 50.63,18.99 51.23,19.45 51.82,19.88 52.42,20.28 53.02,20.64 53.62,20.97 54.22,21.28 54.82,21.55 55.42,21.8 56.02,22.03 56.62,22.23 57.22,22.41 57.82,22.57 58.42,22.71 59.01,22.83 59.61,22.94 60.21,23.04 60.81,23.12 61.41,23.2 62.01,23.26 62.61,23.32 63.21,23.36 63.81,23.4 64.41,23.44 65.01,23.47 65.61,23.49 66.2,23.51 66.8,23.53 67.4,23.54 68,23.56 68.6,23.57 69.2,23.58 69.8,23.58 70.4,23.59 71,23.59 71.6,23.6 72.2,23.6 72.79,23.6 73.39,23.6 73.99,23.61 74.59,23.61 75.19,23.61 75.79,23.61 76.39,23.61 " class="primitive"/>
          </g>
          <g transform="translate(40.38,56.95)" id="img-1f933ac3-35" stroke-dasharray="none" stroke="#4169E1" class="color_Area_2">
            <path fill="none" d="M-43.18,41.76 L-42.85,41.76 -42.51,41.76 -42.17,41.75 -41.83,41.75 -41.49,41.75 -41.15,41.75 -40.81,41.74 -40.47,41.73 -40.14,41.73 -39.8,41.72 -39.46,41.71 -39.12,41.69 -38.78,41.68 -38.44,41.66 -38.1,41.63 -37.77,41.61 -37.43,41.57 -37.09,41.54 -36.75,41.49 -36.41,41.44 -36.07,41.38 -35.73,41.3 -35.39,41.22 -35.06,41.12 -34.72,41.01 -34.38,40.88 -34.04,40.73 -33.7,40.57 -33.36,40.37 -33.02,40.16 -32.68,39.91 -32.35,39.64 -32.01,39.33 -31.67,38.98 -31.33,38.59 -30.99,38.16 -30.65,37.69 -30.31,37.16 -29.98,36.58 -29.64,35.95 -29.3,35.26 -28.96,34.5 -28.62,33.69 -28.28,32.8 -27.94,31.85 -27.6,30.82 -27.27,29.72 -26.93,28.55 -26.59,27.31 -26.25,25.98 -25.91,24.59 -25.57,23.12 -25.23,21.58 -24.89,19.97 -24.56,18.29 -24.22,16.54 -23.88,14.73 -23.54,12.87 -23.2,10.95 -22.86,8.99 -22.52,6.98 -22.18,4.94 -21.85,2.86 -21.51,0.77 -21.17,-1.35 -20.83,-3.47 -20.49,-5.59 -20.15,-7.71 -19.81,-9.82 -19.48,-11.91 -19.14,-13.97 -18.8,-16 -18.46,-17.99 -18.12,-19.93 -17.78,-21.83 -17.44,-23.67 -17.1,-25.45 -16.77,-27.17 -16.43,-28.82 -16.09,-30.4 -15.75,-31.92 -15.41,-33.35 -15.07,-34.72 -14.73,-36.01 -14.39,-37.22 -14.06,-38.36 -13.72,-39.43 -13.38,-40.43 -13.04,-41.35 -12.7,-42.21 -12.36,-43 -12.02,-43.73 -11.69,-44.4 -11.35,-45.01 -11.01,-45.56 -10.67,-46.07 -10.33,-46.52 -9.99,-46.93 -9.65,-47.3 -9.31,-47.64 -8.98,-47.93 -8.64,-48.2 -8.3,-48.43 -7.96,-48.64 -7.62,-48.82 -7.28,-48.98 -6.94,-49.12 -6.6,-49.24 -6.27,-49.34 -5.93,-49.43 -5.59,-49.51 -5.25,-49.58 -4.91,-49.63 -4.57,-49.68 -4.23,-49.72 -3.9,-49.75 -3.56,-49.78 -3.22,-49.8 -2.88,-49.82 -2.54,-49.83 -2.2,-49.84 -1.86,-49.84 -1.52,-49.84 -1.19,-49.84 -0.85,-49.83 -0.51,-49.81 -0.17,-49.8 0.17,-49.78 0.51,-49.75 0.85,-49.72 1.19,-49.68 1.52,-49.63 1.86,-49.58 2.2,-49.51 2.54,-49.44 2.88,-49.35 3.22,-49.26 3.56,-49.15 3.9,-49.02 4.23,-48.88 4.57,-48.71 4.91,-48.53 5.25,-48.32 5.59,-48.09 5.93,-47.84 6.27,-47.55 6.6,-47.23 6.94,-46.88 7.28,-46.49 7.62,-46.07 7.96,-45.6 8.3,-45.09 8.64,-44.54 8.98,-43.93 9.31,-43.28 9.65,-42.58 9.99,-41.83 10.33,-41.02 10.67,-40.15 11.01,-39.23 11.35,-38.24 11.69,-37.2 12.02,-36.1 12.36,-34.95 12.7,-33.73 13.04,-32.45 13.38,-31.12 13.72,-29.72 14.06,-28.28 14.39,-26.78 14.73,-25.23 15.07,-23.63 15.41,-21.99 15.75,-20.3 16.09,-18.58 16.43,-16.81 16.77,-15.02 17.1,-13.2 17.44,-11.36 17.78,-9.5 18.12,-7.63 18.46,-5.75 18.8,-3.86 19.14,-1.97 19.48,-0.09 19.81,1.78 20.15,3.64 20.49,5.47 20.83,7.29 21.17,9.07 21.51,10.82 21.85,12.54 22.18,14.22 22.52,15.85 22.86,17.44 23.2,18.97 23.54,20.46 23.88,21.89 24.22,23.27 24.56,24.59 24.89,25.85 25.23,27.06 25.57,28.2 25.91,29.29 26.25,30.31 26.59,31.28 26.93,32.19 27.27,33.04 27.6,33.84 27.94,34.58 28.28,35.27 28.62,35.91 28.96,36.5 29.3,37.04 29.64,37.54 29.98,37.99 30.31,38.41 30.65,38.79 30.99,39.13 31.33,39.44 31.67,39.72 32.01,39.97 32.35,40.2 32.68,40.4 33.02,40.57 33.36,40.73 33.7,40.87 34.04,41 34.38,41.1 34.72,41.2 35.06,41.28 35.39,41.35 35.73,41.42 36.07,41.47 36.41,41.52 36.75,41.56 37.09,41.59 37.43,41.62 37.77,41.64 38.1,41.66 38.44,41.68 38.78,41.7 39.12,41.71 39.46,41.72 39.8,41.73 40.14,41.74 40.47,41.74 40.81,41.75 41.15,41.75 41.49,41.75 41.83,41.75 42.17,41.76 42.51,41.76 42.85,41.76 43.18,41.76 " class="primitive"/>
          </g>
          <g transform="translate(78.87,81.13)" id="img-1f933ac3-36" stroke-dasharray="none" stroke="#00CD66" class="color_Area_4">
            <path fill="none" d="M-102.57,17.58 L-101.77,17.58 -100.96,17.58 -100.16,17.58 -99.35,17.58 -98.55,17.57 -97.74,17.57 -96.94,17.56 -96.14,17.56 -95.33,17.55 -94.53,17.54 -93.72,17.53 -92.92,17.51 -92.11,17.49 -91.31,17.47 -90.5,17.44 -89.7,17.4 -88.9,17.36 -88.09,17.31 -87.29,17.24 -86.48,17.16 -85.68,17.07 -84.87,16.96 -84.07,16.82 -83.26,16.67 -82.46,16.49 -81.66,16.28 -80.85,16.03 -80.05,15.75 -79.24,15.42 -78.44,15.05 -77.63,14.63 -76.83,14.16 -76.02,13.63 -75.22,13.04 -74.41,12.38 -73.61,11.65 -72.81,10.85 -72,9.98 -71.2,9.03 -70.39,8 -69.59,6.9 -68.78,5.72 -67.98,4.46 -67.17,3.12 -66.37,1.72 -65.57,0.24 -64.76,-1.29 -63.96,-2.88 -63.15,-4.52 -62.35,-6.21 -61.54,-7.93 -60.74,-9.67 -59.93,-11.43 -59.13,-13.2 -58.33,-14.97 -57.52,-16.73 -56.72,-18.46 -55.91,-20.17 -55.11,-21.83 -54.3,-23.46 -53.5,-25.02 -52.69,-26.53 -51.89,-27.97 -51.08,-29.33 -50.28,-30.63 -49.48,-31.84 -48.67,-32.96 -47.87,-34.01 -47.06,-34.96 -46.26,-35.83 -45.45,-36.61 -44.65,-37.31 -43.84,-37.92 -43.04,-38.45 -42.24,-38.9 -41.43,-39.26 -40.63,-39.55 -39.82,-39.76 -39.02,-39.9 -38.21,-39.97 -37.41,-39.97 -36.6,-39.91 -35.8,-39.78 -35,-39.59 -34.19,-39.34 -33.39,-39.03 -32.58,-38.67 -31.78,-38.25 -30.97,-37.78 -30.17,-37.27 -29.36,-36.71 -28.56,-36.11 -27.75,-35.47 -26.95,-34.79 -26.15,-34.07 -25.34,-33.33 -24.54,-32.56 -23.73,-31.76 -22.93,-30.94 -22.12,-30.1 -21.32,-29.24 -20.51,-28.37 -19.71,-27.49 -18.91,-26.6 -18.1,-25.71 -17.3,-24.81 -16.49,-23.91 -15.69,-23.01 -14.88,-22.11 -14.08,-21.21 -13.27,-20.32 -12.47,-19.43 -11.67,-18.54 -10.86,-17.66 -10.06,-16.78 -9.25,-15.91 -8.45,-15.05 -7.64,-14.18 -6.84,-13.33 -6.03,-12.47 -5.23,-11.63 -4.42,-10.78 -3.62,-9.94 -2.82,-9.1 -2.01,-8.27 -1.21,-7.44 -0.4,-6.62 0.4,-5.8 1.21,-4.98 2.01,-4.16 2.82,-3.36 3.62,-2.55 4.42,-1.76 5.23,-0.97 6.03,-0.19 6.84,0.58 7.64,1.34 8.45,2.08 9.25,2.81 10.06,3.52 10.86,4.22 11.67,4.89 12.47,5.54 13.27,6.16 14.08,6.76 14.88,7.33 15.69,7.86 16.49,8.37 17.3,8.84 18.1,9.27 18.91,9.67 19.71,10.03 20.51,10.36 21.32,10.65 22.12,10.9 22.93,11.12 23.73,11.31 24.54,11.46 25.34,11.59 26.15,11.69 26.95,11.76 27.75,11.81 28.56,11.84 29.36,11.85 30.17,11.85 30.97,11.83 31.78,11.8 32.58,11.75 33.39,11.7 34.19,11.64 35,11.57 35.8,11.5 36.6,11.42 37.41,11.32 38.21,11.23 39.02,11.12 39.82,11 40.63,10.88 41.43,10.74 42.24,10.6 43.04,10.44 43.84,10.28 44.65,10.11 45.45,9.94 46.26,9.76 47.06,9.57 47.87,9.39 48.67,9.21 49.48,9.04 50.28,8.88 51.08,8.73 51.89,8.6 52.69,8.49 53.5,8.4 54.3,8.34 55.11,8.31 55.91,8.31 56.72,8.35 57.52,8.43 58.33,8.53 59.13,8.68 59.93,8.86 60.74,9.08 61.54,9.33 62.35,9.6 63.15,9.91 63.96,10.24 64.76,10.58 65.57,10.95 66.37,11.32 67.17,11.71 67.98,12.1 68.78,12.49 69.59,12.87 70.39,13.25 71.2,13.62 72,13.97 72.81,14.31 73.61,14.64 74.41,14.94 75.22,15.23 76.02,15.49 76.83,15.74 77.63,15.96 78.44,16.17 79.24,16.35 80.05,16.52 80.85,16.67 81.66,16.8 82.46,16.92 83.26,17.02 84.07,17.11 84.87,17.19 85.68,17.25 86.48,17.31 87.29,17.36 88.09,17.4 88.9,17.43 89.7,17.46 90.5,17.48 91.31,17.5 92.11,17.52 92.92,17.53 93.72,17.54 94.53,17.55 95.33,17.56 96.14,17.57 96.94,17.57 97.74,17.57 98.55,17.58 99.35,17.58 100.16,17.58 100.96,17.58 101.77,17.58 102.57,17.58 " class="primitive"/>
          </g>
        </g>
      </g>
    </g>
  </g>
  <g class="guide ylabels" font-size="2.82" font-family="'PT Sans Caption','Helvetica Neue','Helvetica',sans-serif" fill="#6C606B" id="img-1f933ac3-37">
    <g transform="translate(17.63,98.71)" id="img-1f933ac3-38">
      <g class="primitive">
        <text text-anchor="end" dy="0.35em">0.0</text>
      </g>
    </g>
    <g transform="translate(17.63,80.37)" id="img-1f933ac3-39">
      <g class="primitive">
        <text text-anchor="end" dy="0.35em">0.1</text>
      </g>
    </g>
    <g transform="translate(17.63,62.03)" id="img-1f933ac3-40">
      <g class="primitive">
        <text text-anchor="end" dy="0.35em">0.2</text>
      </g>
    </g>
    <g transform="translate(17.63,43.69)" id="img-1f933ac3-41">
      <g class="primitive">
        <text text-anchor="end" dy="0.35em">0.3</text>
      </g>
    </g>
    <g transform="translate(17.63,25.34)" id="img-1f933ac3-42">
      <g class="primitive">
        <text text-anchor="end" dy="0.35em">0.4</text>
      </g>
    </g>
    <g transform="translate(17.63,7)" id="img-1f933ac3-43">
      <g class="primitive">
        <text text-anchor="end" dy="0.35em">0.5</text>
      </g>
    </g>
  </g>
  <g font-size="3.88" font-family="'PT Sans','Helvetica Neue','Helvetica',sans-serif" fill="#564A55" stroke="#000000" stroke-opacity="0.000" id="img-1f933ac3-44">
    <g transform="translate(8.81,50.86)" id="img-1f933ac3-45">
      <g class="primitive">
        <text text-anchor="middle" dy="0.35em" transform="rotate(-90,0, 2)">Density</text>
      </g>
    </g>
  </g>
</g>
<defs>
  <clipPath id="img-1f933ac3-17">
    <path d="M18.63,5 L183.45,5 183.45,100.72 18.63,100.72 " />
  </clipPath>
</defs>
</svg>
