<?xml version="1.0" encoding="UTF-8"?>
<svg xmlns="http://www.w3.org/2000/svg"
     xmlns:xlink="http://www.w3.org/1999/xlink"
     xmlns:gadfly="http://www.gadflyjl.org/ns"
     version="1.2"
     width="200mm" height="120mm" viewBox="0 0 200 120"
     stroke="none"
     fill="#000000"
     stroke-width="0.3"
     font-size="3.88"
>
<defs>
  <marker id="arrow" markerWidth="15" markerHeight="7" refX="5" refY="3.5" orient="auto" markerUnits="strokeWidth">
    <path d="M0,0 L15,3.5 L0,7 z" stroke="context-stroke" fill="context-stroke"/>
  </marker>
</defs>
<g class="plotroot xscalable yscalable" id="img-cfccbbc8-1">
  <g font-size="3.53" font-family="CMU Serif" fill="#564A55" stroke="#000000" stroke-opacity="0.000" id="img-cfccbbc8-2">
    <g transform="translate(101.79,108.71)">
      <g class="primitive">
        <text text-anchor="middle" dy="0.6em">Proper Motion Declination (mas/yr)</text>
      </g>
    </g>
  </g>
  <g class="guide xlabels" font-size="3.53" font-family="CMU Serif" fill="#6C606B" id="img-cfccbbc8-3">
    <g transform="translate(25.11,101.42)">
      <g class="primitive">
        <text text-anchor="middle" dy="0.6em">-500</text>
      </g>
    </g>
    <g transform="translate(63.45,101.42)">
      <g class="primitive">
        <text text-anchor="middle" dy="0.6em">0</text>
      </g>
    </g>
    <g transform="translate(101.79,101.42)">
      <g class="primitive">
        <text text-anchor="middle" dy="0.6em">500</text>
      </g>
    </g>
    <g transform="translate(140.14,101.42)">
      <g class="primitive">
        <text text-anchor="middle" dy="0.6em">1000</text>
      </g>
    </g>
    <g transform="translate(178.48,101.42)">
      <g class="primitive">
        <text text-anchor="middle" dy="0.6em">1500</text>
      </g>
    </g>
  </g>
  <g class="guide colorkey" id="img-cfccbbc8-4">
    <g fill="#4C404B" font-size="3.53" font-family="CMU Serif" id="img-cfccbbc8-5">
      <g transform="translate(184.62,48.42)" id="img-cfccbbc8-6" class="color_Area_1">
        <g class="primitive">
          <text dy="0.35em">Area 1</text>
        </g>
      </g>
      <g transform="translate(184.62,52.71)" id="img-cfccbbc8-7" class="color_Area_2">
        <g class="primitive">
          <text dy="0.35em">Area 2</text>
        </g>
      </g>
      <g transform="translate(184.62,57)" id="img-cfccbbc8-8" class="color_Area_3">
        <g class="primitive">
          <text dy="0.35em">Area 3</text>
        </g>
      </g>
      <g transform="translate(184.62,61.29)" id="img-cfccbbc8-9" class="color_Area_4">
        <g class="primitive">
          <text dy="0.35em">Area 4</text>
        </g>
      </g>
    </g>
    <g fill-opacity="1" id="img-cfccbbc8-10">
      <g transform="translate(182.55,48.42)" id="img-cfccbbc8-11" stroke="#FFFFFF" class="color_Area_1" fill="#FF6347">
        <path d="M-1.07,-1.07 L1.07,-1.07 1.07,1.07 -1.07,1.07  z" class="primitive"/>
      </g>
      <g transform="translate(182.55,52.71)" id="img-cfccbbc8-12" stroke="#FFFFFF" class="color_Area_2" fill="#4169E1">
        <path d="M-1.07,-1.07 L1.07,-1.07 1.07,1.07 -1.07,1.07  z" class="primitive"/>
      </g>
      <g transform="translate(182.55,57)" id="img-cfccbbc8-13" stroke="#FFFFFF" class="color_Area_3" fill="#B23AEE">
        <path d="M-1.07,-1.07 L1.07,-1.07 1.07,1.07 -1.07,1.07  z" class="primitive"/>
      </g>
      <g transform="translate(182.55,61.29)" id="img-cfccbbc8-14" stroke="#FFFFFF" class="color_Area_4" fill="#00CD66">
        <path d="M-1.07,-1.07 L1.07,-1.07 1.07,1.07 -1.07,1.07  z" class="primitive"/>
      </g>
    </g>
    <g fill="#362A35" font-size="4.23" font-family="CMU Serif" stroke="#000000" stroke-opacity="0.000" id="img-cfccbbc8-15">
      <g transform="translate(181.48,44.1)" id="img-cfccbbc8-16">
        <g class="primitive">
          <text dy="-0em">Area</text>
        </g>
      </g>
    </g>
  </g>
  <g clip-path="url(#img-cfccbbc8-17)">
    <g id="img-cfccbbc8-18">
      <g pointer-events="visible" stroke-width="0.3" fill="#000000" fill-opacity="0.000" stroke="#000000" stroke-opacity="0.000" class="guide background" id="img-cfccbbc8-19">
        <g transform="translate(101.79,52.71)" id="img-cfccbbc8-20">
          <path d="M-78.69,-47.71 L78.69,-47.71 78.69,47.71 -78.69,47.71  z" class="primitive"/>
        </g>
      </g>
      <g class="guide ygridlines xfixed" stroke-dasharray="0.5,0.5" stroke-width="0.2" stroke="#D0D0E0" id="img-cfccbbc8-21">
        <g transform="translate(101.79,98.42)" id="img-cfccbbc8-22">
          <path fill="none" d="M-78.69,0 L78.69,0 " class="primitive"/>
        </g>
        <g transform="translate(101.79,67.94)" id="img-cfccbbc8-23">
          <path fill="none" d="M-78.69,0 L78.69,0 " class="primitive"/>
        </g>
        <g transform="translate(101.79,37.47)" id="img-cfccbbc8-24">
          <path fill="none" d="M-78.69,0 L78.69,0 " class="primitive"/>
        </g>
        <g transform="translate(101.79,7)" id="img-cfccbbc8-25">
          <path fill="none" d="M-78.69,0 L78.69,0 " class="primitive"/>
        </g>
      </g>
      <g class="guide xgridlines yfixed" stroke-dasharray="0.5,0.5" stroke-width="0.2" stroke="#D0D0E0" id="img-cfccbbc8-26">
        <g transform="translate(25.11,52.71)" id="img-cfccbbc8-27">
          <path fill="none" d="M0,-47.71 L0,47.71 " class="primitive"/>
        </g>
        <g transform="translate(63.45,52.71)" id="img-cfccbbc8-28">
          <path fill="none" d="M0,-47.71 L0,47.71 " class="primitive"/>
        </g>
        <g transform="translate(101.79,52.71)" id="img-cfccbbc8-29">
          <path fill="none" d="M0,-47.71 L0,47.71 " class="primitive"/>
        </g>
        <g transform="translate(140.14,52.71)" id="img-cfccbbc8-30">
          <path fill="none" d="M0,-47.71 L0,47.71 " class="primitive"/>
        </g>
        <g transform="translate(178.48,52.71)" id="img-cfccbbc8-31">
          <path fill="none" d="M0,-47.71 L0,47.71 " class="primitive"/>
        </g>
      </g>
      <g class="plotpanel" id="img-cfccbbc8-32">
        <metadata>
          <boundingbox value="23.10833333333332mm 5.0mm 157.37083333333334mm 95.41666666666667mm"/>
          <unitbox value="-526.0805781194816 0.0153281677301732 2052.1611562389635 -0.015656335460346397"/>
        </metadata>
        <g stroke-width="0.3" fill="#000000" fill-opacity="0.000" class="geometry" id="img-cfccbbc8-33">
          <g transform="translate(113.25,94.16)" id="img-cfccbbc8-34" stroke-dasharray="none" stroke="#FF6347" class="color_Area_1">
            <path fill="none" d="M-54.67,4.26 L-54.25,4.25 -53.82,4.24 -53.39,4.21 -52.96,4.11 -52.53,3.86 -52.1,3.34 -51.67,2.32 -51.24,0.6 -50.81,-2.01 -50.39,-5.48 -49.96,-9.58 -49.53,-13.86 -49.1,-17.81 -48.67,-21.04 -48.24,-23.37 -47.81,-24.87 -47.38,-25.71 -46.96,-26.13 -46.53,-26.32 -46.1,-26.39 -45.67,-26.42 -45.24,-26.42 -44.81,-26.42 -44.38,-26.41 -43.95,-26.4 -43.53,-26.37 -43.1,-26.32 -42.67,-26.22 -42.24,-26.05 -41.81,-25.77 -41.38,-25.32 -40.95,-24.68 -40.52,-23.82 -40.09,-22.76 -39.67,-21.56 -39.24,-20.27 -38.81,-18.93 -38.38,-17.61 -37.95,-16.32 -37.52,-15.11 -37.09,-13.96 -36.66,-12.86 -36.24,-11.77 -35.81,-10.7 -35.38,-9.63 -34.95,-8.57 -34.52,-7.56 -34.09,-6.62 -33.66,-5.77 -33.23,-5 -32.8,-4.32 -32.38,-3.7 -31.95,-3.13 -31.52,-2.61 -31.09,-2.11 -30.66,-1.64 -30.23,-1.2 -29.8,-0.8 -29.37,-0.44 -28.95,-0.13 -28.52,0.16 -28.09,0.46 -27.66,0.77 -27.23,1.07 -26.8,1.35 -26.37,1.59 -25.94,1.79 -25.51,1.95 -25.09,2.11 -24.66,2.27 -24.23,2.44 -23.8,2.59 -23.37,2.72 -22.94,2.82 -22.51,2.9 -22.08,2.97 -21.66,3.03 -21.23,3.09 -20.8,3.16 -20.37,3.26 -19.94,3.37 -19.51,3.51 -19.08,3.65 -18.65,3.78 -18.22,3.89 -17.8,3.96 -17.37,4.01 -16.94,4.03 -16.51,4.06 -16.08,4.08 -15.65,4.1 -15.22,4.11 -14.79,4.1 -14.37,4.07 -13.94,4 -13.51,3.93 -13.08,3.86 -12.65,3.81 -12.22,3.78 -11.79,3.79 -11.36,3.82 -10.93,3.86 -10.51,3.91 -10.08,3.96 -9.65,4.01 -9.22,4.04 -8.79,4.07 -8.36,4.08 -7.93,4.09 -7.5,4.08 -7.08,4.09 -6.65,4.1 -6.22,4.13 -5.79,4.16 -5.36,4.19 -4.93,4.22 -4.5,4.23 -4.07,4.24 -3.64,4.24 -3.22,4.23 -2.79,4.21 -2.36,4.2 -1.93,4.19 -1.5,4.18 -1.07,4.18 -0.64,4.2 -0.21,4.21 0.21,4.22 0.64,4.23 1.07,4.23 1.5,4.22 1.93,4.2 2.36,4.16 2.79,4.13 3.22,4.1 3.64,4.08 4.07,4.07 4.5,4.08 4.93,4.1 5.36,4.12 5.79,4.15 6.22,4.18 6.65,4.2 7.08,4.22 7.5,4.24 7.93,4.25 8.36,4.25 8.79,4.26 9.22,4.26 9.65,4.26 10.08,4.26 10.51,4.26 10.93,4.26 11.36,4.26 11.79,4.26 12.22,4.26 12.65,4.26 13.08,4.26 13.51,4.26 13.94,4.26 14.37,4.26 14.79,4.25 15.22,4.25 15.65,4.24 16.08,4.23 16.51,4.22 16.94,4.2 17.37,4.19 17.8,4.18 18.22,4.18 18.65,4.19 19.08,4.21 19.51,4.23 19.94,4.24 20.37,4.25 20.8,4.25 21.23,4.25 21.66,4.24 22.08,4.23 22.51,4.22 22.94,4.2 23.37,4.19 23.8,4.18 24.23,4.18 24.66,4.19 25.09,4.21 25.51,4.23 25.94,4.24 26.37,4.25 26.8,4.25 27.23,4.26 27.66,4.26 28.09,4.26 28.52,4.26 28.95,4.26 29.37,4.26 29.8,4.26 30.23,4.26 30.66,4.26 31.09,4.26 31.52,4.26 31.95,4.26 32.38,4.26 32.8,4.26 33.23,4.26 33.66,4.26 34.09,4.26 34.52,4.26 34.95,4.26 35.38,4.26 35.81,4.26 36.24,4.26 36.66,4.26 37.09,4.26 37.52,4.26 37.95,4.26 38.38,4.26 38.81,4.26 39.24,4.26 39.67,4.26 40.09,4.26 40.52,4.26 40.95,4.26 41.38,4.26 41.81,4.26 42.24,4.26 42.67,4.26 43.1,4.26 43.53,4.26 43.95,4.26 44.38,4.26 44.81,4.26 45.24,4.26 45.67,4.26 46.1,4.26 46.53,4.26 46.96,4.25 47.38,4.25 47.81,4.24 48.24,4.23 48.67,4.21 49.1,4.19 49.53,4.18 49.96,4.18 50.39,4.19 50.81,4.2 51.24,4.22 51.67,4.23 52.1,4.24 52.53,4.25 52.96,4.25 53.39,4.26 53.82,4.26 54.25,4.26 54.67,4.26 " class="primitive"/>
          </g>
          <g transform="translate(110.94,94.08)" id="img-cfccbbc8-35" stroke-dasharray="none" stroke="#B23AEE" class="color_Area_3">
            <path fill="none" d="M-53.61,4.34 L-53.19,4.34 -52.77,4.34 -52.35,4.34 -51.93,4.33 -51.51,4.31 -51.09,4.26 -50.67,4.14 -50.25,3.88 -49.83,3.35 -49.41,2.41 -48.99,0.88 -48.57,-1.35 -48.15,-4.27 -47.73,-7.73 -47.31,-11.41 -46.89,-14.92 -46.47,-17.94 -46.04,-20.27 -45.62,-21.88 -45.2,-22.89 -44.78,-23.46 -44.36,-23.74 -43.94,-23.87 -43.52,-23.92 -43.1,-23.94 -42.68,-23.95 -42.26,-23.95 -41.84,-23.95 -41.42,-23.94 -41,-23.93 -40.58,-23.9 -40.16,-23.85 -39.74,-23.75 -39.32,-23.59 -38.9,-23.34 -38.48,-22.98 -38.06,-22.51 -37.63,-21.93 -37.21,-21.25 -36.79,-20.48 -36.37,-19.63 -35.95,-18.7 -35.53,-17.67 -35.11,-16.53 -34.69,-15.3 -34.27,-14.01 -33.85,-12.7 -33.43,-11.42 -33.01,-10.22 -32.59,-9.13 -32.17,-8.19 -31.75,-7.41 -31.33,-6.74 -30.91,-6.14 -30.49,-5.56 -30.07,-4.97 -29.65,-4.35 -29.22,-3.74 -28.8,-3.16 -28.38,-2.63 -27.96,-2.18 -27.54,-1.8 -27.12,-1.48 -26.7,-1.18 -26.28,-0.86 -25.86,-0.49 -25.44,-0.07 -25.02,0.38 -24.6,0.84 -24.18,1.26 -23.76,1.61 -23.34,1.88 -22.92,2.07 -22.5,2.18 -22.08,2.26 -21.66,2.32 -21.24,2.37 -20.81,2.44 -20.39,2.51 -19.97,2.59 -19.55,2.69 -19.13,2.82 -18.71,2.97 -18.29,3.13 -17.87,3.29 -17.45,3.43 -17.03,3.52 -16.61,3.57 -16.19,3.56 -15.77,3.52 -15.35,3.47 -14.93,3.43 -14.51,3.42 -14.09,3.44 -13.67,3.48 -13.25,3.54 -12.83,3.61 -12.4,3.68 -11.98,3.74 -11.56,3.78 -11.14,3.8 -10.72,3.8 -10.3,3.79 -9.88,3.79 -9.46,3.8 -9.04,3.84 -8.62,3.91 -8.2,3.99 -7.78,4.07 -7.36,4.14 -6.94,4.19 -6.52,4.22 -6.1,4.24 -5.68,4.25 -5.26,4.25 -4.84,4.25 -4.42,4.23 -3.99,4.21 -3.57,4.19 -3.15,4.16 -2.73,4.13 -2.31,4.11 -1.89,4.1 -1.47,4.08 -1.05,4.06 -0.63,4.03 -0.21,3.98 0.21,3.93 0.63,3.89 1.05,3.86 1.47,3.86 1.89,3.88 2.31,3.93 2.73,4 3.15,4.08 3.57,4.15 3.99,4.21 4.42,4.26 4.84,4.29 5.26,4.29 5.68,4.28 6.1,4.25 6.52,4.21 6.94,4.16 7.36,4.12 7.78,4.08 8.2,4.06 8.62,4.06 9.04,4.08 9.46,4.12 9.88,4.16 10.3,4.2 10.72,4.25 11.14,4.28 11.56,4.3 11.98,4.32 12.4,4.33 12.83,4.34 13.25,4.34 13.67,4.34 14.09,4.34 14.51,4.34 14.93,4.34 15.35,4.34 15.77,4.34 16.19,4.34 16.61,4.34 17.03,4.34 17.45,4.34 17.87,4.34 18.29,4.34 18.71,4.33 19.13,4.33 19.55,4.31 19.97,4.3 20.39,4.29 20.81,4.28 21.24,4.27 21.66,4.28 22.08,4.29 22.5,4.3 22.92,4.31 23.34,4.32 23.76,4.33 24.18,4.34 24.6,4.34 25.02,4.34 25.44,4.34 25.86,4.34 26.28,4.34 26.7,4.34 27.12,4.34 27.54,4.34 27.96,4.34 28.38,4.34 28.8,4.34 29.22,4.34 29.65,4.34 30.07,4.34 30.49,4.34 30.91,4.34 31.33,4.34 31.75,4.34 32.17,4.34 32.59,4.34 33.01,4.34 33.43,4.34 33.85,4.34 34.27,4.34 34.69,4.34 35.11,4.34 35.53,4.34 35.95,4.34 36.37,4.34 36.79,4.34 37.21,4.34 37.63,4.34 38.06,4.34 38.48,4.34 38.9,4.34 39.32,4.34 39.74,4.33 40.16,4.32 40.58,4.31 41,4.3 41.42,4.28 41.84,4.28 42.26,4.27 42.68,4.28 43.1,4.29 43.52,4.3 43.94,4.32 44.36,4.33 44.78,4.33 45.2,4.34 45.62,4.33 46.04,4.33 46.47,4.32 46.89,4.31 47.31,4.3 47.73,4.29 48.15,4.28 48.57,4.27 48.99,4.28 49.41,4.29 49.83,4.3 50.25,4.31 50.67,4.32 51.09,4.33 51.51,4.34 51.93,4.34 52.35,4.34 52.77,4.34 53.19,4.34 53.61,4.34 " class="primitive"/>
          </g>
          <g transform="translate(78.69,85.55)" id="img-cfccbbc8-36" stroke-dasharray="none" stroke="#4169E1" class="color_Area_2">
            <path fill="none" d="M-18.09,12.87 L-17.95,12.87 -17.8,12.87 -17.66,12.86 -17.52,12.86 -17.38,12.84 -17.24,12.81 -17.09,12.74 -16.95,12.62 -16.81,12.4 -16.67,12.02 -16.53,11.4 -16.38,10.41 -16.24,8.95 -16.1,6.87 -15.96,4.06 -15.82,0.43 -15.68,-4.01 -15.53,-9.18 -15.39,-14.92 -15.25,-20.97 -15.11,-27.03 -14.97,-32.82 -14.82,-38.06 -14.68,-42.58 -14.54,-46.28 -14.4,-49.17 -14.26,-51.31 -14.11,-52.81 -13.97,-53.81 -13.83,-54.45 -13.69,-54.84 -13.55,-55.05 -13.41,-55.17 -13.26,-55.22 -13.12,-55.22 -12.98,-55.2 -12.84,-55.15 -12.7,-55.07 -12.55,-54.96 -12.41,-54.8 -12.27,-54.59 -12.13,-54.31 -11.99,-53.96 -11.85,-53.53 -11.7,-53 -11.56,-52.37 -11.42,-51.62 -11.28,-50.76 -11.14,-49.77 -10.99,-48.65 -10.85,-47.38 -10.71,-45.94 -10.57,-44.33 -10.43,-42.51 -10.28,-40.47 -10.14,-38.2 -10,-35.72 -9.86,-33.06 -9.72,-30.27 -9.58,-27.41 -9.43,-24.58 -9.29,-21.84 -9.15,-19.25 -9.01,-16.87 -8.87,-14.71 -8.72,-12.77 -8.58,-11.05 -8.44,-9.52 -8.3,-8.14 -8.16,-6.89 -8.01,-5.74 -7.87,-4.7 -7.73,-3.77 -7.59,-2.96 -7.45,-2.29 -7.31,-1.77 -7.16,-1.39 -7.02,-1.13 -6.88,-0.94 -6.74,-0.77 -6.6,-0.56 -6.45,-0.27 -6.31,0.13 -6.17,0.64 -6.03,1.26 -5.89,1.95 -5.75,2.68 -5.6,3.41 -5.46,4.11 -5.32,4.75 -5.18,5.32 -5.04,5.81 -4.89,6.21 -4.75,6.53 -4.61,6.78 -4.47,6.97 -4.33,7.11 -4.18,7.23 -4.04,7.34 -3.9,7.46 -3.76,7.59 -3.62,7.74 -3.48,7.9 -3.33,8.08 -3.19,8.25 -3.05,8.41 -2.91,8.57 -2.77,8.71 -2.62,8.85 -2.48,9 -2.34,9.15 -2.2,9.31 -2.06,9.47 -1.92,9.63 -1.77,9.77 -1.63,9.89 -1.49,9.98 -1.35,10.04 -1.21,10.1 -1.06,10.16 -0.92,10.24 -0.78,10.35 -0.64,10.5 -0.5,10.68 -0.35,10.89 -0.21,11.12 -0.07,11.34 0.07,11.55 0.21,11.73 0.35,11.87 0.5,11.97 0.64,12.02 0.78,12.04 0.92,12.03 1.06,12 1.21,11.96 1.35,11.92 1.49,11.89 1.63,11.88 1.77,11.9 1.92,11.95 2.06,12.01 2.2,12.09 2.34,12.15 2.48,12.2 2.62,12.21 2.77,12.19 2.91,12.13 3.05,12.06 3.19,11.98 3.33,11.91 3.48,11.87 3.62,11.87 3.76,11.91 3.9,12 4.04,12.11 4.18,12.25 4.33,12.38 4.47,12.5 4.61,12.61 4.75,12.69 4.89,12.76 5.04,12.8 5.18,12.83 5.32,12.85 5.46,12.86 5.6,12.86 5.75,12.87 5.89,12.87 6.03,12.87 6.17,12.87 6.31,12.87 6.45,12.87 6.6,12.87 6.74,12.87 6.88,12.87 7.02,12.86 7.16,12.86 7.31,12.85 7.45,12.83 7.59,12.81 7.73,12.79 7.87,12.75 8.01,12.71 8.16,12.67 8.3,12.62 8.44,12.58 8.58,12.55 8.72,12.54 8.87,12.54 9.01,12.56 9.15,12.59 9.29,12.63 9.43,12.67 9.58,12.72 9.72,12.76 9.86,12.79 10,12.82 10.14,12.84 10.28,12.85 10.43,12.86 10.57,12.86 10.71,12.87 10.85,12.87 10.99,12.87 11.14,12.87 11.28,12.87 11.42,12.87 11.56,12.87 11.7,12.87 11.85,12.87 11.99,12.87 12.13,12.87 12.27,12.87 12.41,12.87 12.55,12.87 12.7,12.87 12.84,12.87 12.98,12.87 13.12,12.87 13.26,12.87 13.41,12.86 13.55,12.86 13.69,12.85 13.83,12.83 13.97,12.8 14.11,12.76 14.26,12.69 14.4,12.61 14.54,12.51 14.68,12.38 14.82,12.25 14.97,12.13 15.11,12.01 15.25,11.93 15.39,11.89 15.53,11.9 15.68,11.95 15.82,12.05 15.96,12.16 16.1,12.3 16.24,12.42 16.38,12.54 16.53,12.64 16.67,12.71 16.81,12.77 16.95,12.81 17.09,12.83 17.24,12.85 17.38,12.86 17.52,12.86 17.66,12.87 17.8,12.87 17.95,12.87 18.09,12.87 " class="primitive"/>
          </g>
          <g transform="translate(86.24,89.64)" id="img-cfccbbc8-37" stroke-dasharray="none" stroke="#00CD66" class="color_Area_4">
            <path fill="none" d="M-26.53,8.77 L-26.32,8.77 -26.12,8.77 -25.91,8.77 -25.7,8.77 -25.49,8.76 -25.28,8.73 -25.08,8.68 -24.87,8.56 -24.66,8.34 -24.45,7.91 -24.24,7.16 -24.04,5.91 -23.83,3.98 -23.62,1.2 -23.41,-2.53 -23.2,-7.19 -22.99,-12.6 -22.79,-18.43 -22.58,-24.27 -22.37,-29.69 -22.16,-34.37 -21.95,-38.11 -21.75,-40.9 -21.54,-42.81 -21.33,-44.04 -21.12,-44.77 -20.91,-45.17 -20.71,-45.38 -20.5,-45.47 -20.29,-45.51 -20.08,-45.53 -19.87,-45.53 -19.67,-45.51 -19.46,-45.48 -19.25,-45.42 -19.04,-45.32 -18.83,-45.15 -18.62,-44.89 -18.42,-44.5 -18.21,-43.94 -18,-43.19 -17.79,-42.23 -17.58,-41.06 -17.38,-39.67 -17.17,-38.09 -16.96,-36.35 -16.75,-34.45 -16.54,-32.41 -16.34,-30.25 -16.13,-27.98 -15.92,-25.66 -15.71,-23.31 -15.5,-21.02 -15.3,-18.83 -15.09,-16.81 -14.88,-14.98 -14.67,-13.36 -14.46,-11.96 -14.25,-10.77 -14.05,-9.75 -13.84,-8.89 -13.63,-8.12 -13.42,-7.39 -13.21,-6.65 -13.01,-5.85 -12.8,-4.96 -12.59,-4 -12.38,-3 -12.17,-2.01 -11.97,-1.09 -11.76,-0.27 -11.55,0.43 -11.34,1.02 -11.13,1.52 -10.93,1.98 -10.72,2.42 -10.51,2.85 -10.3,3.27 -10.09,3.65 -9.88,3.99 -9.68,4.28 -9.47,4.53 -9.26,4.76 -9.05,4.99 -8.84,5.24 -8.64,5.51 -8.43,5.81 -8.22,6.13 -8.01,6.44 -7.8,6.74 -7.6,6.99 -7.39,7.19 -7.18,7.33 -6.97,7.41 -6.76,7.43 -6.56,7.42 -6.35,7.38 -6.14,7.36 -5.93,7.35 -5.72,7.37 -5.51,7.43 -5.31,7.5 -5.1,7.58 -4.89,7.64 -4.68,7.67 -4.47,7.67 -4.27,7.65 -4.06,7.6 -3.85,7.56 -3.64,7.53 -3.43,7.53 -3.23,7.56 -3.02,7.63 -2.81,7.72 -2.6,7.81 -2.39,7.9 -2.19,7.98 -1.98,8.04 -1.77,8.07 -1.56,8.09 -1.35,8.1 -1.14,8.08 -0.94,8.05 -0.73,7.99 -0.52,7.9 -0.31,7.81 -0.1,7.7 0.1,7.59 0.31,7.5 0.52,7.42 0.73,7.38 0.94,7.37 1.14,7.4 1.35,7.47 1.56,7.57 1.77,7.69 1.98,7.8 2.19,7.89 2.39,7.96 2.6,7.99 2.81,8.01 3.02,8.03 3.23,8.06 3.43,8.11 3.64,8.17 3.85,8.23 4.06,8.28 4.27,8.32 4.47,8.33 4.68,8.33 4.89,8.33 5.1,8.34 5.31,8.36 5.51,8.4 5.72,8.45 5.93,8.51 6.14,8.57 6.35,8.63 6.56,8.66 6.76,8.68 6.97,8.68 7.18,8.66 7.39,8.62 7.6,8.57 7.8,8.5 8.01,8.44 8.22,8.39 8.43,8.36 8.64,8.36 8.84,8.38 9.05,8.42 9.26,8.47 9.47,8.52 9.68,8.56 9.88,8.58 10.09,8.59 10.3,8.58 10.51,8.56 10.72,8.55 10.93,8.55 11.13,8.56 11.34,8.58 11.55,8.61 11.76,8.65 11.97,8.68 12.17,8.71 12.38,8.72 12.59,8.72 12.8,8.71 13.01,8.68 13.21,8.65 13.42,8.62 13.63,8.58 13.84,8.56 14.05,8.55 14.25,8.56 14.46,8.58 14.67,8.62 14.88,8.65 15.09,8.69 15.3,8.72 15.5,8.74 15.71,8.75 15.92,8.76 16.13,8.77 16.34,8.77 16.54,8.77 16.75,8.77 16.96,8.77 17.17,8.77 17.38,8.76 17.58,8.75 17.79,8.73 18,8.7 18.21,8.67 18.42,8.64 18.62,8.6 18.83,8.57 19.04,8.56 19.25,8.56 19.46,8.57 19.67,8.6 19.87,8.63 20.08,8.67 20.29,8.7 20.5,8.73 20.71,8.74 20.91,8.75 21.12,8.76 21.33,8.76 21.54,8.75 21.75,8.73 21.95,8.69 22.16,8.65 22.37,8.59 22.58,8.52 22.79,8.45 22.99,8.39 23.2,8.35 23.41,8.34 23.62,8.36 23.83,8.41 24.04,8.47 24.24,8.54 24.45,8.61 24.66,8.66 24.87,8.71 25.08,8.73 25.28,8.75 25.49,8.76 25.7,8.77 25.91,8.77 26.12,8.77 26.32,8.77 26.53,8.77 " class="primitive"/>
          </g>
        </g>
      </g>
    </g>
  </g>
  <g class="guide ylabels" font-size="3.53" font-family="CMU Serif" fill="#6C606B" id="img-cfccbbc8-38">
    <g transform="translate(22.11,98.42)" id="img-cfccbbc8-39">
      <g class="primitive">
        <text text-anchor="end" dy="0.35em">0.000</text>
      </g>
    </g>
    <g transform="translate(22.11,67.94)" id="img-cfccbbc8-40">
      <g class="primitive">
        <text text-anchor="end" dy="0.35em">0.005</text>
      </g>
    </g>
    <g transform="translate(22.11,37.47)" id="img-cfccbbc8-41">
      <g class="primitive">
        <text text-anchor="end" dy="0.35em">0.010</text>
      </g>
    </g>
    <g transform="translate(22.11,7)" id="img-cfccbbc8-42">
      <g class="primitive">
        <text text-anchor="end" dy="0.35em">0.015</text>
      </g>
    </g>
  </g>
  <g font-size="3.53" font-family="CMU Serif" fill="#564A55" stroke="#000000" stroke-opacity="0.000" id="img-cfccbbc8-43">
    <g transform="translate(8.65,50.71)" id="img-cfccbbc8-44">
      <g class="primitive">
        <text text-anchor="middle" dy="0.35em" transform="rotate(-90,0, 2)">Density</text>
      </g>
    </g>
  </g>
</g>
<defs>
  <clipPath id="img-cfccbbc8-17">
    <path d="M23.11,5 L180.48,5 180.48,100.42 23.11,100.42 " />
  </clipPath>
</defs>
</svg>
