<?xml version="1.0" encoding="UTF-8"?>
<svg xmlns="http://www.w3.org/2000/svg"
     xmlns:xlink="http://www.w3.org/1999/xlink"
     xmlns:gadfly="http://www.gadflyjl.org/ns"
     version="1.2"
     width="200mm" height="120mm" viewBox="0 0 200 120"
     stroke="none"
     fill="#000000"
     stroke-width="0.3"
     font-size="3.88"
>
<defs>
  <marker id="arrow" markerWidth="15" markerHeight="7" refX="5" refY="3.5" orient="auto" markerUnits="strokeWidth">
    <path d="M0,0 L15,3.5 L0,7 z" stroke="context-stroke" fill="context-stroke"/>
  </marker>
</defs>
<g class="plotroot xscalable yscalable" id="img-7c4ea377-1">
  <g font-size="3.53" font-family="CMU Serif" fill="#564A55" stroke="#000000" stroke-opacity="0.000" id="img-7c4ea377-2">
    <g transform="translate(101.79,108.71)">
      <g class="primitive">
        <text text-anchor="middle" dy="0.6em">Proper Motion Right Ascension (mas/yr)</text>
      </g>
    </g>
  </g>
  <g class="guide xlabels" font-size="3.53" font-family="CMU Serif" fill="#6C606B" id="img-7c4ea377-3">
    <g transform="translate(25.11,101.42)">
      <g class="primitive">
        <text text-anchor="middle" dy="0.6em">-2.00×10³</text>
      </g>
    </g>
    <g transform="translate(63.45,101.42)">
      <g class="primitive">
        <text text-anchor="middle" dy="0.6em">0</text>
      </g>
    </g>
    <g transform="translate(101.79,101.42)">
      <g class="primitive">
        <text text-anchor="middle" dy="0.6em">2.00×10³</text>
      </g>
    </g>
    <g transform="translate(140.14,101.42)">
      <g class="primitive">
        <text text-anchor="middle" dy="0.6em">4.00×10³</text>
      </g>
    </g>
    <g transform="translate(178.48,101.42)">
      <g class="primitive">
        <text text-anchor="middle" dy="0.6em">6.00×10³</text>
      </g>
    </g>
  </g>
  <g class="guide colorkey" id="img-7c4ea377-4">
    <g fill="#4C404B" font-size="3.53" font-family="CMU Serif" id="img-7c4ea377-5">
      <g transform="translate(184.62,48.42)" id="img-7c4ea377-6" class="color_Area_1">
        <g class="primitive">
          <text dy="0.35em">Area 1</text>
        </g>
      </g>
      <g transform="translate(184.62,52.71)" id="img-7c4ea377-7" class="color_Area_2">
        <g class="primitive">
          <text dy="0.35em">Area 2</text>
        </g>
      </g>
      <g transform="translate(184.62,57)" id="img-7c4ea377-8" class="color_Area_3">
        <g class="primitive">
          <text dy="0.35em">Area 3</text>
        </g>
      </g>
      <g transform="translate(184.62,61.29)" id="img-7c4ea377-9" class="color_Area_4">
        <g class="primitive">
          <text dy="0.35em">Area 4</text>
        </g>
      </g>
    </g>
    <g fill-opacity="1" id="img-7c4ea377-10">
      <g transform="translate(182.55,48.42)" id="img-7c4ea377-11" stroke="#FFFFFF" class="color_Area_1" fill="#FF6347">
        <path d="M-1.07,-1.07 L1.07,-1.07 1.07,1.07 -1.07,1.07  z" class="primitive"/>
      </g>
      <g transform="translate(182.55,52.71)" id="img-7c4ea377-12" stroke="#FFFFFF" class="color_Area_2" fill="#4169E1">
        <path d="M-1.07,-1.07 L1.07,-1.07 1.07,1.07 -1.07,1.07  z" class="primitive"/>
      </g>
      <g transform="translate(182.55,57)" id="img-7c4ea377-13" stroke="#FFFFFF" class="color_Area_3" fill="#B23AEE">
        <path d="M-1.07,-1.07 L1.07,-1.07 1.07,1.07 -1.07,1.07  z" class="primitive"/>
      </g>
      <g transform="translate(182.55,61.29)" id="img-7c4ea377-14" stroke="#FFFFFF" class="color_Area_4" fill="#00CD66">
        <path d="M-1.07,-1.07 L1.07,-1.07 1.07,1.07 -1.07,1.07  z" class="primitive"/>
      </g>
    </g>
    <g fill="#362A35" font-size="4.23" font-family="CMU Serif" stroke="#000000" stroke-opacity="0.000" id="img-7c4ea377-15">
      <g transform="translate(181.48,44.1)" id="img-7c4ea377-16">
        <g class="primitive">
          <text dy="-0em">Area</text>
        </g>
      </g>
    </g>
  </g>
  <g clip-path="url(#img-7c4ea377-17)">
    <g id="img-7c4ea377-18">
      <g pointer-events="visible" stroke-width="0.3" fill="#000000" fill-opacity="0.000" stroke="#000000" stroke-opacity="0.000" class="guide background" id="img-7c4ea377-19">
        <g transform="translate(101.79,52.71)" id="img-7c4ea377-20">
          <path d="M-78.69,-47.71 L78.69,-47.71 78.69,47.71 -78.69,47.71  z" class="primitive"/>
        </g>
      </g>
      <g class="guide ygridlines xfixed" stroke-dasharray="0.5,0.5" stroke-width="0.2" stroke="#D0D0E0" id="img-7c4ea377-21">
        <g transform="translate(101.79,98.42)" id="img-7c4ea377-22">
          <path fill="none" d="M-78.69,0 L78.69,0 " class="primitive"/>
        </g>
        <g transform="translate(101.79,52.71)" id="img-7c4ea377-23">
          <path fill="none" d="M-78.69,0 L78.69,0 " class="primitive"/>
        </g>
        <g transform="translate(101.79,7)" id="img-7c4ea377-24">
          <path fill="none" d="M-78.69,0 L78.69,0 " class="primitive"/>
        </g>
      </g>
      <g class="guide xgridlines yfixed" stroke-dasharray="0.5,0.5" stroke-width="0.2" stroke="#D0D0E0" id="img-7c4ea377-25">
        <g transform="translate(25.11,52.71)" id="img-7c4ea377-26">
          <path fill="none" d="M0,-47.71 L0,47.71 " class="primitive"/>
        </g>
        <g transform="translate(63.45,52.71)" id="img-7c4ea377-27">
          <path fill="none" d="M0,-47.71 L0,47.71 " class="primitive"/>
        </g>
        <g transform="translate(101.79,52.71)" id="img-7c4ea377-28">
          <path fill="none" d="M0,-47.71 L0,47.71 " class="primitive"/>
        </g>
        <g transform="translate(140.14,52.71)" id="img-7c4ea377-29">
          <path fill="none" d="M0,-47.71 L0,47.71 " class="primitive"/>
        </g>
        <g transform="translate(178.48,52.71)" id="img-7c4ea377-30">
          <path fill="none" d="M0,-47.71 L0,47.71 " class="primitive"/>
        </g>
      </g>
      <g class="plotpanel" id="img-7c4ea377-31">
        <metadata>
          <boundingbox value="23.10833333333332mm 5.0mm 157.37083333333334mm 95.41666666666667mm"/>
          <unitbox value="-2104.3223124779265 0.010218778486782133 8208.644624955854 -0.010437556973564266"/>
        </metadata>
        <g stroke-width="0.3" fill="#000000" fill-opacity="0.000" class="geometry" id="img-7c4ea377-32">
          <g transform="translate(101.79,96.22)" id="img-7c4ea377-33" stroke-dasharray="none" stroke="#FF6347" class="color_Area_1">
            <path fill="none" d="M-39.72,2.19 L-39.41,2.14 -39.1,1.54 -38.79,-1.88 -38.48,-11.69 -38.17,-25.43 -37.85,-34.62 -37.54,-37.57 -37.23,-38.05 -36.92,-38.09 -36.61,-38.06 -36.3,-37.82 -35.98,-36.92 -35.67,-34.83 -35.36,-31.44 -35.05,-26.98 -34.74,-22.31 -34.43,-18.49 -34.12,-15.33 -33.8,-11.85 -33.49,-8.14 -33.18,-5.45 -32.87,-3.99 -32.56,-3.07 -32.25,-2.31 -31.93,-1.44 -31.62,-0.7 -31.31,-0.4 -31,-0.27 -30.69,0.05 -30.38,0.58 -30.07,0.97 -29.75,1.16 -29.44,1.34 -29.13,1.51 -28.82,1.61 -28.51,1.74 -28.2,1.79 -27.88,1.72 -27.57,1.55 -27.26,1.28 -26.95,1.13 -26.64,1.22 -26.33,1.49 -26.02,1.77 -25.7,1.94 -25.39,2.04 -25.08,2.09 -24.77,2.13 -24.46,2.13 -24.15,2.11 -23.83,2.11 -23.52,2.07 -23.21,2.02 -22.9,2.06 -22.59,2.14 -22.28,2.19 -21.96,2.18 -21.65,2.13 -21.34,2.05 -21.03,2.04 -20.72,2.12 -20.41,2.18 -20.1,2.2 -19.78,2.2 -19.47,2.2 -19.16,2.2 -18.85,2.2 -18.54,2.19 -18.23,2.17 -17.91,2.13 -17.6,2.11 -17.29,2.12 -16.98,2.12 -16.67,2.09 -16.36,2.09 -16.05,2.07 -15.73,2.06 -15.42,2.09 -15.11,2.15 -14.8,2.19 -14.49,2.2 -14.18,2.2 -13.86,2.2 -13.55,2.2 -13.24,2.2 -12.93,2.2 -12.62,2.2 -12.31,2.2 -11.99,2.2 -11.68,2.2 -11.37,2.2 -11.06,2.2 -10.75,2.2 -10.44,2.2 -10.13,2.2 -9.81,2.2 -9.5,2.2 -9.19,2.2 -8.88,2.2 -8.57,2.2 -8.26,2.2 -7.94,2.2 -7.63,2.2 -7.32,2.2 -7.01,2.2 -6.7,2.2 -6.39,2.2 -6.08,2.2 -5.76,2.2 -5.45,2.2 -5.14,2.19 -4.83,2.17 -4.52,2.13 -4.21,2.11 -3.89,2.15 -3.58,2.19 -3.27,2.2 -2.96,2.2 -2.65,2.2 -2.34,2.2 -2.03,2.2 -1.71,2.2 -1.4,2.2 -1.09,2.2 -0.78,2.2 -0.47,2.2 -0.16,2.2 0.16,2.2 0.47,2.2 0.78,2.2 1.09,2.2 1.4,2.2 1.71,2.2 2.03,2.2 2.34,2.2 2.65,2.2 2.96,2.2 3.27,2.2 3.58,2.2 3.89,2.2 4.21,2.2 4.52,2.2 4.83,2.2 5.14,2.2 5.45,2.2 5.76,2.2 6.08,2.2 6.39,2.2 6.7,2.2 7.01,2.2 7.32,2.2 7.63,2.2 7.94,2.2 8.26,2.2 8.57,2.2 8.88,2.2 9.19,2.2 9.5,2.2 9.81,2.2 10.13,2.2 10.44,2.2 10.75,2.2 11.06,2.2 11.37,2.2 11.68,2.2 11.99,2.2 12.31,2.2 12.62,2.2 12.93,2.2 13.24,2.2 13.55,2.2 13.86,2.2 14.18,2.2 14.49,2.2 14.8,2.2 15.11,2.2 15.42,2.2 15.73,2.2 16.05,2.2 16.36,2.2 16.67,2.2 16.98,2.2 17.29,2.2 17.6,2.2 17.91,2.2 18.23,2.2 18.54,2.2 18.85,2.2 19.16,2.2 19.47,2.2 19.78,2.2 20.1,2.2 20.41,2.2 20.72,2.2 21.03,2.2 21.34,2.2 21.65,2.2 21.96,2.2 22.28,2.2 22.59,2.2 22.9,2.2 23.21,2.2 23.52,2.2 23.83,2.2 24.15,2.2 24.46,2.2 24.77,2.2 25.08,2.2 25.39,2.2 25.7,2.2 26.02,2.2 26.33,2.2 26.64,2.2 26.95,2.2 27.26,2.2 27.57,2.2 27.88,2.2 28.2,2.2 28.51,2.2 28.82,2.2 29.13,2.2 29.44,2.2 29.75,2.2 30.07,2.2 30.38,2.2 30.69,2.2 31,2.2 31.31,2.2 31.62,2.2 31.93,2.2 32.25,2.2 32.56,2.2 32.87,2.2 33.18,2.2 33.49,2.2 33.8,2.2 34.12,2.2 34.43,2.2 34.74,2.2 35.05,2.2 35.36,2.2 35.67,2.2 35.98,2.2 36.3,2.2 36.61,2.2 36.92,2.2 37.23,2.2 37.54,2.19 37.85,2.17 38.17,2.13 38.48,2.11 38.79,2.15 39.1,2.19 39.41,2.2 39.72,2.2 " class="primitive"/>
          </g>
          <g transform="translate(117.45,96.85)" id="img-7c4ea377-34" stroke-dasharray="none" stroke="#B23AEE" class="color_Area_3">
            <path fill="none" d="M-55.75,1.56 L-55.32,1.5 -54.88,0.71 -54.44,-3.35 -54.01,-12.27 -53.57,-21.37 -53.13,-25.65 -52.69,-26.5 -52.26,-26.57 -51.82,-26.57 -51.38,-26.54 -50.94,-26.33 -50.51,-25.64 -50.07,-24.12 -49.63,-21.65 -49.2,-18.56 -48.76,-15.32 -48.32,-12.09 -47.88,-9.19 -47.45,-7 -47.01,-5.42 -46.57,-4.28 -46.13,-3.33 -45.7,-2.36 -45.26,-1.53 -44.82,-0.94 -44.39,-0.52 -43.95,-0.12 -43.51,0.16 -43.07,0.38 -42.64,0.54 -42.2,0.5 -41.76,0.53 -41.32,0.62 -40.89,0.72 -40.45,0.93 -40.01,1.06 -39.57,1.09 -39.14,1.21 -38.7,1.36 -38.26,1.43 -37.83,1.4 -37.39,1.31 -36.95,1.28 -36.51,1.37 -36.08,1.46 -35.64,1.47 -35.2,1.44 -34.76,1.41 -34.33,1.4 -33.89,1.42 -33.45,1.44 -33.02,1.45 -32.58,1.48 -32.14,1.52 -31.7,1.55 -31.27,1.56 -30.83,1.54 -30.39,1.5 -29.95,1.49 -29.52,1.51 -29.08,1.51 -28.64,1.48 -28.21,1.48 -27.77,1.5 -27.33,1.51 -26.89,1.53 -26.46,1.54 -26.02,1.52 -25.58,1.53 -25.14,1.55 -24.71,1.56 -24.27,1.57 -23.83,1.57 -23.4,1.57 -22.96,1.57 -22.52,1.56 -22.08,1.55 -21.65,1.52 -21.21,1.5 -20.77,1.5 -20.33,1.53 -19.9,1.55 -19.46,1.54 -19.02,1.52 -18.58,1.53 -18.15,1.56 -17.71,1.56 -17.27,1.57 -16.84,1.57 -16.4,1.57 -15.96,1.57 -15.52,1.57 -15.09,1.57 -14.65,1.57 -14.21,1.56 -13.77,1.54 -13.34,1.52 -12.9,1.53 -12.46,1.55 -12.03,1.56 -11.59,1.57 -11.15,1.57 -10.71,1.57 -10.28,1.57 -9.84,1.56 -9.4,1.55 -8.96,1.53 -8.53,1.53 -8.09,1.55 -7.65,1.56 -7.22,1.57 -6.78,1.57 -6.34,1.57 -5.9,1.57 -5.47,1.57 -5.03,1.57 -4.59,1.57 -4.15,1.57 -3.72,1.57 -3.28,1.57 -2.84,1.57 -2.41,1.57 -1.97,1.57 -1.53,1.57 -1.09,1.57 -0.66,1.57 -0.22,1.57 0.22,1.57 0.66,1.57 1.09,1.57 1.53,1.57 1.97,1.57 2.41,1.57 2.84,1.56 3.28,1.56 3.72,1.54 4.15,1.52 4.59,1.54 5.03,1.56 5.47,1.56 5.9,1.57 6.34,1.57 6.78,1.57 7.22,1.57 7.65,1.57 8.09,1.57 8.53,1.57 8.96,1.57 9.4,1.57 9.84,1.57 10.28,1.57 10.71,1.57 11.15,1.57 11.59,1.57 12.03,1.57 12.46,1.57 12.9,1.57 13.34,1.57 13.77,1.57 14.21,1.57 14.65,1.57 15.09,1.57 15.52,1.57 15.96,1.57 16.4,1.57 16.84,1.57 17.27,1.57 17.71,1.57 18.15,1.57 18.58,1.57 19.02,1.57 19.46,1.57 19.9,1.57 20.33,1.57 20.77,1.57 21.21,1.57 21.65,1.57 22.08,1.57 22.52,1.57 22.96,1.57 23.4,1.57 23.83,1.57 24.27,1.57 24.71,1.57 25.14,1.57 25.58,1.57 26.02,1.57 26.46,1.57 26.89,1.57 27.33,1.57 27.77,1.57 28.21,1.57 28.64,1.57 29.08,1.57 29.52,1.57 29.95,1.57 30.39,1.57 30.83,1.57 31.27,1.57 31.7,1.57 32.14,1.57 32.58,1.57 33.02,1.57 33.45,1.57 33.89,1.57 34.33,1.57 34.76,1.57 35.2,1.57 35.64,1.57 36.08,1.57 36.51,1.57 36.95,1.57 37.39,1.57 37.83,1.57 38.26,1.57 38.7,1.57 39.14,1.57 39.57,1.57 40.01,1.57 40.45,1.57 40.89,1.57 41.32,1.57 41.76,1.57 42.2,1.57 42.64,1.57 43.07,1.57 43.51,1.57 43.95,1.57 44.39,1.57 44.82,1.57 45.26,1.57 45.7,1.57 46.13,1.57 46.57,1.57 47.01,1.57 47.45,1.57 47.88,1.57 48.32,1.57 48.76,1.57 49.2,1.57 49.63,1.57 50.07,1.57 50.51,1.57 50.94,1.57 51.38,1.57 51.82,1.57 52.26,1.57 52.69,1.56 53.13,1.56 53.57,1.54 54.01,1.52 54.44,1.54 54.88,1.56 55.32,1.57 55.75,1.57 " class="primitive"/>
          </g>
          <g transform="translate(66.91,77.7)" id="img-7c4ea377-35" stroke-dasharray="none" stroke="#4169E1" class="color_Area_2">
            <path fill="none" d="M-4.21,20.72 L-4.18,20.72 -4.15,20.71 -4.11,20.71 -4.08,20.69 -4.05,20.67 -4.01,20.63 -3.98,20.55 -3.95,20.42 -3.92,20.22 -3.88,19.89 -3.85,19.4 -3.82,18.67 -3.78,17.63 -3.75,16.19 -3.72,14.27 -3.68,11.77 -3.65,8.65 -3.62,4.87 -3.58,0.43 -3.55,-4.62 -3.52,-10.17 -3.49,-16.08 -3.45,-22.16 -3.42,-28.23 -3.39,-34.08 -3.35,-39.55 -3.32,-44.5 -3.29,-48.82 -3.25,-52.48 -3.22,-55.49 -3.19,-57.87 -3.16,-59.7 -3.12,-61.05 -3.09,-62.03 -3.06,-62.71 -3.02,-63.17 -2.99,-63.47 -2.96,-63.66 -2.92,-63.77 -2.89,-63.84 -2.86,-63.88 -2.82,-63.89 -2.79,-63.9 -2.76,-63.9 -2.73,-63.89 -2.69,-63.86 -2.66,-63.83 -2.63,-63.78 -2.59,-63.7 -2.56,-63.59 -2.53,-63.43 -2.49,-63.22 -2.46,-62.94 -2.43,-62.58 -2.4,-62.13 -2.36,-61.58 -2.33,-60.91 -2.3,-60.14 -2.26,-59.25 -2.23,-58.24 -2.2,-57.14 -2.16,-55.93 -2.13,-54.62 -2.1,-53.22 -2.06,-51.73 -2.03,-50.13 -2,-48.44 -1.97,-46.64 -1.93,-44.72 -1.9,-42.69 -1.87,-40.55 -1.83,-38.3 -1.8,-35.96 -1.77,-33.55 -1.73,-31.1 -1.7,-28.64 -1.67,-26.21 -1.64,-23.85 -1.6,-21.6 -1.57,-19.48 -1.54,-17.51 -1.5,-15.7 -1.47,-14.05 -1.44,-12.54 -1.4,-11.14 -1.37,-9.84 -1.34,-8.59 -1.31,-7.38 -1.27,-6.19 -1.24,-5.02 -1.21,-3.87 -1.17,-2.75 -1.14,-1.67 -1.11,-0.63 -1.07,0.35 -1.04,1.29 -1.01,2.18 -0.97,3.03 -0.94,3.84 -0.91,4.63 -0.88,5.4 -0.84,6.15 -0.81,6.89 -0.78,7.6 -0.74,8.29 -0.71,8.95 -0.68,9.56 -0.64,10.12 -0.61,10.63 -0.58,11.06 -0.55,11.42 -0.51,11.7 -0.48,11.89 -0.45,12.01 -0.41,12.04 -0.38,12.01 -0.35,11.91 -0.31,11.78 -0.28,11.64 -0.25,11.5 -0.21,11.4 -0.18,11.36 -0.15,11.41 -0.12,11.54 -0.08,11.78 -0.05,12.12 -0.02,12.55 0.02,13.05 0.05,13.6 0.08,14.16 0.12,14.72 0.15,15.26 0.18,15.74 0.21,16.17 0.25,16.54 0.28,16.85 0.31,17.1 0.35,17.32 0.38,17.52 0.41,17.7 0.45,17.88 0.48,18.06 0.51,18.25 0.55,18.43 0.58,18.6 0.61,18.76 0.64,18.89 0.68,19 0.71,19.07 0.74,19.11 0.78,19.12 0.81,19.11 0.84,19.08 0.88,19.04 0.91,18.99 0.94,18.96 0.97,18.94 1.01,18.93 1.04,18.94 1.07,18.97 1.11,19 1.14,19.05 1.17,19.1 1.21,19.15 1.24,19.2 1.27,19.25 1.31,19.31 1.34,19.36 1.37,19.42 1.4,19.49 1.44,19.57 1.47,19.65 1.5,19.75 1.54,19.84 1.57,19.94 1.6,20.02 1.64,20.1 1.67,20.17 1.7,20.22 1.73,20.25 1.77,20.28 1.8,20.29 1.83,20.3 1.87,20.32 1.9,20.33 1.93,20.35 1.97,20.38 2,20.41 2.03,20.45 2.06,20.49 2.1,20.53 2.13,20.57 2.16,20.6 2.2,20.63 2.23,20.66 2.26,20.68 2.3,20.69 2.33,20.7 2.36,20.71 2.4,20.71 2.43,20.72 2.46,20.72 2.49,20.72 2.53,20.72 2.56,20.72 2.59,20.72 2.63,20.72 2.66,20.72 2.69,20.72 2.73,20.72 2.76,20.71 2.79,20.71 2.82,20.7 2.86,20.68 2.89,20.67 2.92,20.65 2.96,20.62 2.99,20.58 3.02,20.54 3.06,20.5 3.09,20.45 3.12,20.39 3.16,20.34 3.19,20.29 3.22,20.25 3.25,20.21 3.29,20.18 3.32,20.16 3.35,20.15 3.39,20.15 3.42,20.16 3.45,20.18 3.49,20.21 3.52,20.25 3.55,20.3 3.58,20.35 3.62,20.4 3.65,20.45 3.68,20.5 3.72,20.55 3.75,20.59 3.78,20.62 3.82,20.65 3.85,20.67 3.88,20.69 3.92,20.7 3.95,20.71 3.98,20.71 4.01,20.72 4.05,20.72 4.08,20.72 4.11,20.72 4.15,20.72 4.18,20.72 4.21,20.72 " class="primitive"/>
          </g>
          <g transform="translate(91.15,95.44)" id="img-7c4ea377-36" stroke-dasharray="none" stroke="#00CD66" class="color_Area_4">
            <path fill="none" d="M-29.32,2.98 L-29.09,2.97 -28.86,2.91 -28.63,2.64 -28.4,1.66 -28.17,-0.87 -27.94,-5.68 -27.71,-12.4 -27.48,-19.29 -27.25,-24.48 -27.02,-27.34 -26.79,-28.49 -26.56,-28.83 -26.33,-28.9 -26.1,-28.91 -25.87,-28.91 -25.64,-28.9 -25.41,-28.86 -25.18,-28.74 -24.95,-28.46 -24.72,-27.95 -24.49,-27.2 -24.26,-26.23 -24.03,-24.95 -23.8,-23.26 -23.57,-21.13 -23.34,-18.71 -23.11,-16.21 -22.88,-13.87 -22.65,-11.88 -22.42,-10.29 -22.19,-8.96 -21.96,-7.71 -21.73,-6.41 -21.5,-5.11 -21.27,-3.89 -21.04,-2.88 -20.81,-2.2 -20.58,-1.79 -20.35,-1.47 -20.12,-1.02 -19.89,-0.39 -19.66,0.27 -19.43,0.77 -19.2,1.07 -18.97,1.3 -18.74,1.52 -18.51,1.7 -18.28,1.84 -18.05,1.95 -17.82,2.04 -17.59,2.1 -17.36,2.11 -17.13,2.04 -16.9,1.92 -16.67,1.82 -16.44,1.84 -16.21,1.95 -15.98,2.08 -15.75,2.15 -15.52,2.21 -15.29,2.29 -15.06,2.38 -14.83,2.46 -14.6,2.51 -14.37,2.52 -14.14,2.49 -13.91,2.44 -13.68,2.41 -13.45,2.43 -13.22,2.47 -12.99,2.52 -12.76,2.57 -12.53,2.65 -12.3,2.73 -12.07,2.79 -11.84,2.81 -11.61,2.79 -11.38,2.75 -11.15,2.69 -10.92,2.63 -10.69,2.6 -10.46,2.64 -10.23,2.72 -10,2.81 -9.77,2.89 -9.54,2.93 -9.31,2.95 -9.08,2.94 -8.85,2.92 -8.62,2.9 -8.39,2.88 -8.16,2.86 -7.93,2.84 -7.7,2.82 -7.47,2.81 -7.24,2.81 -7.01,2.82 -6.78,2.85 -6.55,2.86 -6.32,2.85 -6.09,2.84 -5.86,2.83 -5.63,2.84 -5.4,2.88 -5.17,2.93 -4.94,2.96 -4.71,2.97 -4.48,2.98 -4.25,2.98 -4.02,2.98 -3.79,2.98 -3.56,2.98 -3.33,2.98 -3.1,2.98 -2.87,2.98 -2.64,2.98 -2.41,2.97 -2.18,2.97 -1.95,2.96 -1.72,2.94 -1.49,2.92 -1.26,2.92 -1.03,2.93 -0.8,2.95 -0.57,2.97 -0.34,2.97 -0.11,2.98 0.11,2.98 0.34,2.98 0.57,2.98 0.8,2.98 1.03,2.97 1.26,2.96 1.49,2.93 1.72,2.88 1.95,2.83 2.18,2.81 2.41,2.83 2.64,2.89 2.87,2.93 3.1,2.96 3.33,2.97 3.56,2.98 3.79,2.98 4.02,2.97 4.25,2.96 4.48,2.95 4.71,2.93 4.94,2.91 5.17,2.92 5.4,2.92 5.63,2.92 5.86,2.92 6.09,2.92 6.32,2.93 6.55,2.95 6.78,2.97 7.01,2.97 7.24,2.98 7.47,2.98 7.7,2.98 7.93,2.98 8.16,2.98 8.39,2.98 8.62,2.98 8.85,2.98 9.08,2.98 9.31,2.98 9.54,2.98 9.77,2.98 10,2.98 10.23,2.98 10.46,2.98 10.69,2.98 10.92,2.98 11.15,2.98 11.38,2.98 11.61,2.98 11.84,2.98 12.07,2.98 12.3,2.98 12.53,2.98 12.76,2.98 12.99,2.98 13.22,2.98 13.45,2.98 13.68,2.98 13.91,2.98 14.14,2.98 14.37,2.98 14.6,2.98 14.83,2.98 15.06,2.98 15.29,2.98 15.52,2.98 15.75,2.98 15.98,2.98 16.21,2.98 16.44,2.98 16.67,2.98 16.9,2.98 17.13,2.98 17.36,2.98 17.59,2.98 17.82,2.98 18.05,2.98 18.28,2.98 18.51,2.98 18.74,2.98 18.97,2.98 19.2,2.98 19.43,2.98 19.66,2.98 19.89,2.98 20.12,2.98 20.35,2.98 20.58,2.98 20.81,2.98 21.04,2.98 21.27,2.98 21.5,2.98 21.73,2.98 21.96,2.98 22.19,2.98 22.42,2.98 22.65,2.98 22.88,2.98 23.11,2.98 23.34,2.98 23.57,2.98 23.8,2.98 24.03,2.98 24.26,2.98 24.49,2.98 24.72,2.98 24.95,2.98 25.18,2.98 25.41,2.98 25.64,2.98 25.87,2.98 26.1,2.97 26.33,2.97 26.56,2.96 26.79,2.94 27.02,2.91 27.25,2.89 27.48,2.88 27.71,2.89 27.94,2.91 28.17,2.94 28.4,2.96 28.63,2.97 28.86,2.98 29.09,2.98 29.32,2.98 " class="primitive"/>
          </g>
        </g>
      </g>
    </g>
  </g>
  <g class="guide ylabels" font-size="3.53" font-family="CMU Serif" fill="#6C606B" id="img-7c4ea377-37">
    <g transform="translate(22.11,98.42)" id="img-7c4ea377-38">
      <g class="primitive">
        <text text-anchor="end" dy="0.35em">0.000</text>
      </g>
    </g>
    <g transform="translate(22.11,52.71)" id="img-7c4ea377-39">
      <g class="primitive">
        <text text-anchor="end" dy="0.35em">0.005</text>
      </g>
    </g>
    <g transform="translate(22.11,7)" id="img-7c4ea377-40">
      <g class="primitive">
        <text text-anchor="end" dy="0.35em">0.010</text>
      </g>
    </g>
  </g>
  <g font-size="3.53" font-family="CMU Serif" fill="#564A55" stroke="#000000" stroke-opacity="0.000" id="img-7c4ea377-41">
    <g transform="translate(8.65,50.71)" id="img-7c4ea377-42">
      <g class="primitive">
        <text text-anchor="middle" dy="0.35em" transform="rotate(-90,0, 2)">Density</text>
      </g>
    </g>
  </g>
</g>
<defs>
  <clipPath id="img-7c4ea377-17">
    <path d="M23.11,5 L180.48,5 180.48,100.42 23.11,100.42 " />
  </clipPath>
</defs>
</svg>
