<?xml version="1.0" encoding="UTF-8"?>
<svg xmlns="http://www.w3.org/2000/svg"
     xmlns:xlink="http://www.w3.org/1999/xlink"
     xmlns:gadfly="http://www.gadflyjl.org/ns"
     version="1.2"
     width="300mm" height="120mm" viewBox="0 0 300 120"
     stroke="none"
     fill="#000000"
     stroke-width="0.3"
     font-size="3.88"
>
<defs>
  <marker id="arrow" markerWidth="15" markerHeight="7" refX="5" refY="3.5" orient="auto" markerUnits="strokeWidth">
    <path d="M0,0 L15,3.5 L0,7 z" stroke="context-stroke" fill="context-stroke"/>
  </marker>
</defs>
<g class="plotroot xscalable yscalable" id="img-4a779045-1">
  <g font-size="4.59" font-family="CMU Serif" fill="#564A55" stroke="#000000" stroke-opacity="0.000" id="img-4a779045-2">
    <g transform="translate(226.81,107.72)">
      <g class="primitive">
        <text text-anchor="middle" dy="0.6em">Proper Motion Declination (mas/yr)</text>
      </g>
    </g>
  </g>
  <g class="guide xlabels" font-size="4.59" font-family="CMU Serif" fill="#6C606B" id="img-4a779045-3">
    <g transform="translate(179.02,99.44)">
      <g class="primitive">
        <text text-anchor="middle" dy="0.6em">0</text>
      </g>
    </g>
    <g transform="translate(214.2,99.44)">
      <g class="primitive">
        <text text-anchor="middle" dy="0.6em">500</text>
      </g>
    </g>
    <g transform="translate(249.38,99.44)">
      <g class="primitive">
        <text text-anchor="middle" dy="0.6em">1000</text>
      </g>
    </g>
  </g>
  <g class="guide colorkey" id="img-4a779045-4">
    <g fill="#4C404B" font-size="4.59" font-family="CMU Serif" id="img-4a779045-5">
      <g transform="translate(281.51,46.44)" id="img-4a779045-6" class="color_Area_1">
        <g class="primitive">
          <text dy="0.35em">Area 1</text>
        </g>
      </g>
      <g transform="translate(281.51,51.72)" id="img-4a779045-7" class="color_Area_2">
        <g class="primitive">
          <text dy="0.35em">Area 2</text>
        </g>
      </g>
      <g transform="translate(281.51,57)" id="img-4a779045-8" class="color_Area_3">
        <g class="primitive">
          <text dy="0.35em">Area 3</text>
        </g>
      </g>
      <g transform="translate(281.51,62.28)" id="img-4a779045-9" class="color_Area_4">
        <g class="primitive">
          <text dy="0.35em">Area 4</text>
        </g>
      </g>
    </g>
    <g fill-opacity="1" id="img-4a779045-10">
      <g transform="translate(279.19,46.44)" id="img-4a779045-11" stroke="#FFFFFF" class="color_Area_1" fill="#FF6347">
        <path d="M-1.32,-1.32 L1.32,-1.32 1.32,1.32 -1.32,1.32  z" class="primitive"/>
      </g>
      <g transform="translate(279.19,51.72)" id="img-4a779045-12" stroke="#FFFFFF" class="color_Area_2" fill="#4169E1">
        <path d="M-1.32,-1.32 L1.32,-1.32 1.32,1.32 -1.32,1.32  z" class="primitive"/>
      </g>
      <g transform="translate(279.19,57)" id="img-4a779045-13" stroke="#FFFFFF" class="color_Area_3" fill="#B23AEE">
        <path d="M-1.32,-1.32 L1.32,-1.32 1.32,1.32 -1.32,1.32  z" class="primitive"/>
      </g>
      <g transform="translate(279.19,62.28)" id="img-4a779045-14" stroke="#FFFFFF" class="color_Area_4" fill="#00CD66">
        <path d="M-1.32,-1.32 L1.32,-1.32 1.32,1.32 -1.32,1.32  z" class="primitive"/>
      </g>
    </g>
    <g fill="#362A35" font-size="5.29" font-family="CMU Serif" stroke="#000000" stroke-opacity="0.000" id="img-4a779045-15">
      <g transform="translate(277.87,41.63)" id="img-4a779045-16">
        <g class="primitive">
          <text dy="-0em">Area</text>
        </g>
      </g>
    </g>
  </g>
  <g clip-path="url(#img-4a779045-17)">
    <g id="img-4a779045-18">
      <g pointer-events="visible" stroke-width="0.3" fill="#000000" fill-opacity="0.000" stroke="#000000" stroke-opacity="0.000" class="guide background" id="img-4a779045-19">
        <g transform="translate(226.81,51.72)" id="img-4a779045-20">
          <path d="M-50.07,-46.72 L50.07,-46.72 50.07,46.72 -50.07,46.72  z" class="primitive"/>
        </g>
      </g>
      <g class="guide ygridlines xfixed" stroke-dasharray="0.5,0.5" stroke-width="0.2" stroke="#D0D0E0" id="img-4a779045-21">
        <g transform="translate(226.81,96.44)" id="img-4a779045-22">
          <path fill="none" d="M-50.07,0 L50.07,0 " class="primitive"/>
        </g>
        <g transform="translate(226.81,66.63)" id="img-4a779045-23">
          <path fill="none" d="M-50.07,0 L50.07,0 " class="primitive"/>
        </g>
        <g transform="translate(226.81,36.81)" id="img-4a779045-24">
          <path fill="none" d="M-50.07,0 L50.07,0 " class="primitive"/>
        </g>
        <g transform="translate(226.81,7)" id="img-4a779045-25">
          <path fill="none" d="M-50.07,0 L50.07,0 " class="primitive"/>
        </g>
      </g>
      <g class="guide xgridlines yfixed" stroke-dasharray="0.5,0.5" stroke-width="0.2" stroke="#D0D0E0" id="img-4a779045-26">
        <g transform="translate(179.02,51.72)" id="img-4a779045-27">
          <path fill="none" d="M0,-46.72 L0,46.72 " class="primitive"/>
        </g>
        <g transform="translate(214.2,51.72)" id="img-4a779045-28">
          <path fill="none" d="M0,-46.72 L0,46.72 " class="primitive"/>
        </g>
        <g transform="translate(249.38,51.72)" id="img-4a779045-29">
          <path fill="none" d="M0,-46.72 L0,46.72 " class="primitive"/>
        </g>
      </g>
      <g class="plotpanel" id="img-4a779045-30">
        <metadata>
          <boundingbox value="176.74083333333334mm 5.0mm 100.13208333333334mm 93.44166666666666mm"/>
          <unitbox value="-32.42795189700209 0.015335414143296375 1423.2750241733027 -0.01567082828659275"/>
        </metadata>
        <g stroke-width="0.3" fill="#000000" fill-opacity="0.000" class="geometry" id="img-4a779045-31">
          <g transform="translate(224.71,92.28)" id="img-4a779045-32" stroke-dasharray="none" stroke="#FF6347" class="color_Area_1">
            <path fill="none" d="M-50.16,4.16 L-49.77,4.16 -49.37,4.15 -48.98,4.12 -48.59,4.02 -48.19,3.78 -47.8,3.27 -47.41,2.27 -47.01,0.58 -46.62,-1.97 -46.23,-5.36 -45.83,-9.37 -45.44,-13.56 -45.05,-17.43 -44.65,-20.58 -44.26,-22.87 -43.87,-24.33 -43.47,-25.16 -43.08,-25.57 -42.68,-25.75 -42.29,-25.82 -41.9,-25.85 -41.5,-25.85 -41.11,-25.85 -40.72,-25.84 -40.32,-25.83 -39.93,-25.8 -39.54,-25.75 -39.14,-25.65 -38.75,-25.49 -38.36,-25.21 -37.96,-24.77 -37.57,-24.14 -37.18,-23.3 -36.78,-22.27 -36.39,-21.1 -36,-19.83 -35.6,-18.52 -35.21,-17.23 -34.82,-15.97 -34.42,-14.78 -34.03,-13.66 -33.64,-12.58 -33.24,-11.52 -32.85,-10.47 -32.46,-9.42 -32.06,-8.39 -31.67,-7.4 -31.28,-6.48 -30.88,-5.64 -30.49,-4.89 -30.1,-4.22 -29.7,-3.62 -29.31,-3.07 -28.92,-2.55 -28.52,-2.07 -28.13,-1.61 -27.74,-1.17 -27.34,-0.78 -26.95,-0.43 -26.56,-0.13 -26.16,0.16 -25.77,0.45 -25.37,0.75 -24.98,1.04 -24.59,1.32 -24.19,1.55 -23.8,1.75 -23.41,1.91 -23.01,2.07 -22.62,2.22 -22.23,2.38 -21.83,2.53 -21.44,2.66 -21.05,2.76 -20.65,2.84 -20.26,2.9 -19.87,2.96 -19.47,3.02 -19.08,3.1 -18.69,3.19 -18.29,3.3 -17.9,3.43 -17.51,3.57 -17.11,3.7 -16.72,3.81 -16.33,3.88 -15.93,3.92 -15.54,3.95 -15.15,3.97 -14.75,3.99 -14.36,4.01 -13.97,4.03 -13.57,4.02 -13.18,3.98 -12.79,3.92 -12.39,3.85 -12,3.78 -11.61,3.73 -11.21,3.7 -10.82,3.71 -10.43,3.73 -10.03,3.78 -9.64,3.82 -9.25,3.87 -8.85,3.92 -8.46,3.96 -8.06,3.98 -7.67,4 -7.28,4 -6.88,3.99 -6.49,4 -6.1,4.01 -5.7,4.04 -5.31,4.07 -4.92,4.1 -4.52,4.13 -4.13,4.14 -3.74,4.15 -3.34,4.15 -2.95,4.14 -2.56,4.12 -2.16,4.11 -1.77,4.09 -1.38,4.09 -0.98,4.09 -0.59,4.1 -0.2,4.12 0.2,4.13 0.59,4.14 0.98,4.14 1.38,4.13 1.77,4.1 2.16,4.07 2.56,4.04 2.95,4.01 3.34,3.99 3.74,3.98 4.13,3.99 4.52,4.01 4.92,4.03 5.31,4.06 5.7,4.09 6.1,4.11 6.49,4.13 6.88,4.15 7.28,4.16 7.67,4.16 8.06,4.16 8.46,4.16 8.85,4.17 9.25,4.17 9.64,4.17 10.03,4.17 10.43,4.17 10.82,4.17 11.21,4.17 11.61,4.17 12,4.17 12.39,4.17 12.79,4.16 13.18,4.16 13.57,4.16 13.97,4.16 14.36,4.15 14.75,4.14 15.15,4.13 15.54,4.11 15.93,4.1 16.33,4.09 16.72,4.09 17.11,4.1 17.51,4.12 17.9,4.13 18.29,4.15 18.69,4.15 19.08,4.16 19.47,4.16 19.87,4.15 20.26,4.14 20.65,4.12 21.05,4.11 21.44,4.1 21.83,4.09 22.23,4.09 22.62,4.1 23.01,4.12 23.41,4.13 23.8,4.15 24.19,4.16 24.59,4.16 24.98,4.16 25.37,4.16 25.77,4.17 26.16,4.17 26.56,4.17 26.95,4.17 27.34,4.17 27.74,4.17 28.13,4.17 28.52,4.17 28.92,4.17 29.31,4.17 29.7,4.17 30.1,4.17 30.49,4.17 30.88,4.17 31.28,4.17 31.67,4.17 32.06,4.17 32.46,4.17 32.85,4.17 33.24,4.17 33.64,4.17 34.03,4.17 34.42,4.17 34.82,4.17 35.21,4.17 35.6,4.17 36,4.17 36.39,4.17 36.78,4.17 37.18,4.17 37.57,4.17 37.96,4.17 38.36,4.17 38.75,4.17 39.14,4.17 39.54,4.17 39.93,4.17 40.32,4.17 40.72,4.17 41.11,4.17 41.5,4.17 41.9,4.17 42.29,4.16 42.68,4.16 43.08,4.16 43.47,4.16 43.87,4.15 44.26,4.13 44.65,4.12 45.05,4.1 45.44,4.09 45.83,4.09 46.23,4.1 46.62,4.11 47.01,4.13 47.41,4.14 47.8,4.15 48.19,4.16 48.59,4.16 48.98,4.16 49.37,4.16 49.77,4.17 50.16,4.17 " class="primitive"/>
          </g>
          <g transform="translate(222.59,92.19)" id="img-4a779045-33" stroke-dasharray="none" stroke="#B23AEE" class="color_Area_3">
            <path fill="none" d="M-49.19,4.25 L-48.8,4.25 -48.42,4.25 -48.03,4.24 -47.64,4.24 -47.26,4.22 -46.87,4.17 -46.49,4.05 -46.1,3.8 -45.71,3.28 -45.33,2.36 -44.94,0.86 -44.56,-1.32 -44.17,-4.18 -43.79,-7.56 -43.4,-11.16 -43.01,-14.6 -42.63,-17.55 -42.24,-19.83 -41.86,-21.41 -41.47,-22.4 -41.09,-22.95 -40.7,-23.23 -40.31,-23.36 -39.93,-23.41 -39.54,-23.43 -39.16,-23.43 -38.77,-23.43 -38.38,-23.43 -38,-23.43 -37.61,-23.41 -37.23,-23.38 -36.84,-23.33 -36.46,-23.24 -36.07,-23.08 -35.68,-22.83 -35.3,-22.48 -34.91,-22.02 -34.53,-21.45 -34.14,-20.79 -33.76,-20.04 -33.37,-19.21 -32.98,-18.3 -32.6,-17.29 -32.21,-16.17 -31.83,-14.97 -31.44,-13.71 -31.06,-12.43 -30.67,-11.17 -30.28,-10 -29.9,-8.93 -29.51,-8.02 -29.13,-7.25 -28.74,-6.59 -28.35,-6.01 -27.97,-5.44 -27.58,-4.86 -27.2,-4.26 -26.81,-3.66 -26.43,-3.09 -26.04,-2.57 -25.65,-2.13 -25.27,-1.76 -24.88,-1.45 -24.5,-1.16 -24.11,-0.84 -23.73,-0.48 -23.34,-0.07 -22.95,0.37 -22.57,0.82 -22.18,1.23 -21.8,1.58 -21.41,1.84 -21.02,2.02 -20.64,2.14 -20.25,2.21 -19.87,2.27 -19.48,2.32 -19.1,2.38 -18.71,2.45 -18.32,2.54 -17.94,2.64 -17.55,2.76 -17.17,2.9 -16.78,3.06 -16.4,3.22 -16.01,3.35 -15.62,3.45 -15.24,3.49 -14.85,3.48 -14.47,3.44 -14.08,3.39 -13.7,3.36 -13.31,3.35 -12.92,3.36 -12.54,3.4 -12.15,3.46 -11.77,3.53 -11.38,3.6 -10.99,3.66 -10.61,3.7 -10.22,3.72 -9.84,3.72 -9.45,3.71 -9.07,3.7 -8.68,3.72 -8.29,3.76 -7.91,3.82 -7.52,3.9 -7.14,3.98 -6.75,4.05 -6.37,4.1 -5.98,4.13 -5.59,4.15 -5.21,4.16 -4.82,4.16 -4.44,4.15 -4.05,4.14 -3.66,4.12 -3.28,4.1 -2.89,4.07 -2.51,4.04 -2.12,4.03 -1.74,4.01 -1.35,4 -0.96,3.97 -0.58,3.94 -0.19,3.89 0.19,3.84 0.58,3.8 0.96,3.78 1.35,3.77 1.74,3.8 2.12,3.85 2.51,3.91 2.89,3.99 3.28,4.06 3.66,4.12 4.05,4.17 4.44,4.19 4.82,4.2 5.21,4.19 5.59,4.16 5.98,4.12 6.37,4.07 6.75,4.03 7.14,3.99 7.52,3.97 7.91,3.97 8.29,3.99 8.68,4.03 9.07,4.07 9.45,4.11 9.84,4.15 10.22,4.19 10.61,4.21 10.99,4.23 11.38,4.24 11.77,4.24 12.15,4.25 12.54,4.25 12.92,4.25 13.31,4.25 13.7,4.25 14.08,4.25 14.47,4.25 14.85,4.25 15.24,4.25 15.62,4.25 16.01,4.25 16.4,4.25 16.78,4.24 17.17,4.24 17.55,4.23 17.94,4.22 18.32,4.21 18.71,4.2 19.1,4.19 19.48,4.18 19.87,4.18 20.25,4.19 20.64,4.21 21.02,4.22 21.41,4.23 21.8,4.24 22.18,4.24 22.57,4.25 22.95,4.25 23.34,4.25 23.73,4.25 24.11,4.25 24.5,4.25 24.88,4.25 25.27,4.25 25.65,4.25 26.04,4.25 26.43,4.25 26.81,4.25 27.2,4.25 27.58,4.25 27.97,4.25 28.35,4.25 28.74,4.25 29.13,4.25 29.51,4.25 29.9,4.25 30.28,4.25 30.67,4.25 31.06,4.25 31.44,4.25 31.83,4.25 32.21,4.25 32.6,4.25 32.98,4.25 33.37,4.25 33.76,4.25 34.14,4.25 34.53,4.25 34.91,4.25 35.3,4.25 35.68,4.24 36.07,4.24 36.46,4.24 36.84,4.23 37.23,4.22 37.61,4.2 38,4.19 38.38,4.18 38.77,4.18 39.16,4.19 39.54,4.2 39.93,4.21 40.31,4.22 40.7,4.23 41.09,4.24 41.47,4.24 41.86,4.24 42.24,4.24 42.63,4.23 43.01,4.22 43.4,4.21 43.79,4.19 44.17,4.18 44.56,4.18 44.94,4.19 45.33,4.2 45.71,4.21 46.1,4.22 46.49,4.23 46.87,4.24 47.26,4.24 47.64,4.25 48.03,4.25 48.42,4.25 48.8,4.25 49.19,4.25 " class="primitive"/>
          </g>
          <g transform="translate(193,83.85)" id="img-4a779045-34" stroke-dasharray="none" stroke="#4169E1" class="color_Area_2">
            <path fill="none" d="M-16.59,12.59 L-16.46,12.59 -16.33,12.59 -16.2,12.59 -16.07,12.58 -15.94,12.56 -15.81,12.53 -15.68,12.47 -15.55,12.35 -15.42,12.13 -15.29,11.76 -15.16,11.15 -15.03,10.19 -14.9,8.76 -14.77,6.72 -14.64,3.97 -14.51,0.42 -14.38,-3.92 -14.25,-8.98 -14.12,-14.59 -13.99,-20.51 -13.86,-26.45 -13.73,-32.11 -13.6,-37.24 -13.47,-41.66 -13.34,-45.28 -13.21,-48.11 -13.08,-50.2 -12.95,-51.67 -12.82,-52.65 -12.69,-53.27 -12.56,-53.65 -12.43,-53.86 -12.3,-53.97 -12.17,-54.02 -12.04,-54.03 -11.91,-54.01 -11.78,-53.96 -11.65,-53.88 -11.52,-53.77 -11.39,-53.61 -11.26,-53.41 -11.13,-53.14 -11,-52.8 -10.87,-52.37 -10.74,-51.85 -10.61,-51.23 -10.48,-50.51 -10.35,-49.66 -10.22,-48.69 -10.09,-47.59 -9.96,-46.35 -9.83,-44.95 -9.7,-43.37 -9.57,-41.59 -9.44,-39.6 -9.31,-37.38 -9.18,-34.95 -9.05,-32.34 -8.91,-29.61 -8.78,-26.82 -8.65,-24.05 -8.52,-21.37 -8.39,-18.84 -8.26,-16.5 -8.13,-14.39 -8,-12.5 -7.87,-10.81 -7.74,-9.31 -7.61,-7.96 -7.48,-6.74 -7.35,-5.62 -7.22,-4.6 -7.09,-3.69 -6.96,-2.9 -6.83,-2.24 -6.7,-1.73 -6.57,-1.36 -6.44,-1.1 -6.31,-0.92 -6.18,-0.75 -6.05,-0.55 -5.92,-0.27 -5.79,0.12 -5.66,0.63 -5.53,1.23 -5.4,1.91 -5.27,2.62 -5.14,3.33 -5.01,4.02 -4.88,4.65 -4.75,5.21 -4.62,5.68 -4.49,6.08 -4.36,6.39 -4.23,6.63 -4.1,6.82 -3.97,6.96 -3.84,7.07 -3.71,7.18 -3.58,7.3 -3.45,7.42 -3.32,7.57 -3.19,7.73 -3.06,7.9 -2.93,8.07 -2.8,8.23 -2.67,8.38 -2.54,8.53 -2.41,8.66 -2.28,8.8 -2.15,8.95 -2.02,9.11 -1.89,9.26 -1.76,9.42 -1.63,9.56 -1.5,9.67 -1.37,9.76 -1.24,9.83 -1.11,9.88 -0.98,9.94 -0.85,10.02 -0.72,10.12 -0.59,10.27 -0.46,10.45 -0.33,10.66 -0.2,10.88 -0.07,11.1 0.07,11.3 0.2,11.47 0.33,11.61 0.46,11.71 0.59,11.76 0.72,11.78 0.85,11.77 0.98,11.74 1.11,11.7 1.24,11.66 1.37,11.63 1.5,11.62 1.63,11.64 1.76,11.69 1.89,11.75 2.02,11.82 2.15,11.89 2.28,11.93 2.41,11.95 2.54,11.92 2.67,11.87 2.8,11.8 2.93,11.72 3.06,11.65 3.19,11.61 3.32,11.61 3.45,11.66 3.58,11.74 3.71,11.85 3.84,11.98 3.97,12.11 4.1,12.23 4.23,12.34 4.36,12.42 4.49,12.48 4.62,12.52 4.75,12.55 4.88,12.57 5.01,12.58 5.14,12.59 5.27,12.59 5.4,12.59 5.53,12.59 5.66,12.59 5.79,12.59 5.92,12.59 6.05,12.59 6.18,12.59 6.31,12.59 6.44,12.58 6.57,12.58 6.7,12.57 6.83,12.56 6.96,12.54 7.09,12.51 7.22,12.48 7.35,12.44 7.48,12.39 7.61,12.35 7.74,12.31 7.87,12.28 8,12.27 8.13,12.27 8.26,12.29 8.39,12.32 8.52,12.36 8.65,12.4 8.78,12.44 8.91,12.48 9.05,12.52 9.18,12.54 9.31,12.56 9.44,12.57 9.57,12.58 9.7,12.59 9.83,12.59 9.96,12.59 10.09,12.59 10.22,12.59 10.35,12.59 10.48,12.59 10.61,12.59 10.74,12.59 10.87,12.59 11,12.59 11.13,12.59 11.26,12.59 11.39,12.59 11.52,12.59 11.65,12.59 11.78,12.59 11.91,12.59 12.04,12.59 12.17,12.59 12.3,12.59 12.43,12.58 12.56,12.57 12.69,12.55 12.82,12.52 12.95,12.48 13.08,12.42 13.21,12.34 13.34,12.24 13.47,12.12 13.6,11.99 13.73,11.86 13.86,11.75 13.99,11.67 14.12,11.63 14.25,11.64 14.38,11.7 14.51,11.79 14.64,11.9 14.77,12.03 14.9,12.16 15.03,12.27 15.16,12.37 15.29,12.44 15.42,12.5 15.55,12.53 15.68,12.56 15.81,12.57 15.94,12.58 16.07,12.59 16.2,12.59 16.33,12.59 16.46,12.59 16.59,12.59 " class="primitive"/>
          </g>
          <g transform="translate(199.93,87.86)" id="img-4a779045-35" stroke-dasharray="none" stroke="#00CD66" class="color_Area_4">
            <path fill="none" d="M-24.34,8.58 L-24.15,8.58 -23.96,8.58 -23.77,8.58 -23.58,8.58 -23.39,8.57 -23.2,8.54 -23,8.49 -22.81,8.38 -22.62,8.16 -22.43,7.74 -22.24,7 -22.05,5.78 -21.86,3.89 -21.67,1.17 -21.48,-2.48 -21.29,-7.04 -21.1,-12.33 -20.9,-18.03 -20.71,-23.74 -20.52,-29.05 -20.33,-33.62 -20.14,-37.29 -19.95,-40.01 -19.76,-41.89 -19.57,-43.09 -19.38,-43.8 -19.19,-44.2 -19,-44.4 -18.8,-44.49 -18.61,-44.53 -18.42,-44.54 -18.23,-44.54 -18.04,-44.53 -17.85,-44.5 -17.66,-44.44 -17.47,-44.34 -17.28,-44.18 -17.09,-43.92 -16.9,-43.53 -16.7,-42.99 -16.51,-42.26 -16.32,-41.32 -16.13,-40.17 -15.94,-38.81 -15.75,-37.27 -15.56,-35.56 -15.37,-33.7 -15.18,-31.71 -14.99,-29.59 -14.8,-27.38 -14.6,-25.1 -14.41,-22.81 -14.22,-20.57 -14.03,-18.43 -13.84,-16.45 -13.65,-14.66 -13.46,-13.08 -13.27,-11.71 -13.08,-10.54 -12.89,-9.54 -12.7,-8.7 -12.5,-7.94 -12.31,-7.23 -12.12,-6.51 -11.93,-5.72 -11.74,-4.85 -11.55,-3.91 -11.36,-2.94 -11.17,-1.97 -10.98,-1.06 -10.79,-0.26 -10.6,0.42 -10.4,1 -10.21,1.49 -10.02,1.94 -9.83,2.37 -9.64,2.79 -9.45,3.2 -9.26,3.57 -9.07,3.9 -8.88,4.18 -8.69,4.43 -8.5,4.65 -8.3,4.88 -8.11,5.12 -7.92,5.39 -7.73,5.69 -7.54,6 -7.35,6.3 -7.16,6.59 -6.97,6.84 -6.78,7.03 -6.59,7.17 -6.4,7.25 -6.2,7.27 -6.01,7.26 -5.82,7.22 -5.63,7.2 -5.44,7.19 -5.25,7.21 -5.06,7.27 -4.87,7.34 -4.68,7.41 -4.49,7.47 -4.3,7.51 -4.1,7.51 -3.91,7.48 -3.72,7.44 -3.53,7.4 -3.34,7.37 -3.15,7.37 -2.96,7.4 -2.77,7.46 -2.58,7.55 -2.39,7.64 -2.2,7.73 -2,7.81 -1.81,7.86 -1.62,7.9 -1.43,7.92 -1.24,7.92 -1.05,7.91 -0.86,7.87 -0.67,7.81 -0.48,7.73 -0.29,7.64 -0.1,7.53 0.1,7.43 0.29,7.34 0.48,7.26 0.67,7.22 0.86,7.21 1.05,7.24 1.24,7.31 1.43,7.41 1.62,7.52 1.81,7.63 2,7.72 2.2,7.78 2.39,7.82 2.58,7.84 2.77,7.86 2.96,7.89 3.15,7.93 3.34,7.99 3.53,8.05 3.72,8.1 3.91,8.14 4.1,8.15 4.3,8.15 4.49,8.15 4.68,8.16 4.87,8.18 5.06,8.22 5.25,8.27 5.44,8.33 5.63,8.39 5.82,8.44 6.01,8.48 6.2,8.49 6.4,8.49 6.59,8.47 6.78,8.43 6.97,8.38 7.16,8.32 7.35,8.26 7.54,8.21 7.73,8.18 7.92,8.18 8.11,8.2 8.3,8.24 8.5,8.29 8.69,8.34 8.88,8.38 9.07,8.4 9.26,8.4 9.45,8.39 9.64,8.38 9.83,8.37 10.02,8.36 10.21,8.37 10.4,8.4 10.6,8.43 10.79,8.46 10.98,8.49 11.17,8.52 11.36,8.53 11.55,8.53 11.74,8.52 11.93,8.5 12.12,8.46 12.31,8.43 12.5,8.4 12.7,8.38 12.89,8.37 13.08,8.38 13.27,8.4 13.46,8.43 13.65,8.47 13.84,8.5 14.03,8.53 14.22,8.55 14.41,8.56 14.6,8.57 14.8,8.58 14.99,8.58 15.18,8.58 15.37,8.58 15.56,8.58 15.75,8.58 15.94,8.57 16.13,8.56 16.32,8.54 16.51,8.52 16.7,8.49 16.9,8.45 17.09,8.42 17.28,8.39 17.47,8.37 17.66,8.37 17.85,8.39 18.04,8.41 18.23,8.45 18.42,8.48 18.61,8.51 18.8,8.54 19,8.56 19.19,8.57 19.38,8.57 19.57,8.57 19.76,8.56 19.95,8.54 20.14,8.51 20.33,8.46 20.52,8.4 20.71,8.34 20.9,8.27 21.1,8.21 21.29,8.17 21.48,8.16 21.67,8.18 21.86,8.23 22.05,8.29 22.24,8.36 22.43,8.42 22.62,8.48 22.81,8.52 23,8.55 23.2,8.56 23.39,8.57 23.58,8.58 23.77,8.58 23.96,8.58 24.15,8.58 24.34,8.58 " class="primitive"/>
          </g>
        </g>
      </g>
    </g>
  </g>
  <g class="guide ylabels" font-size="4.59" font-family="CMU Serif" fill="#6C606B" id="img-4a779045-36">
    <g transform="translate(175.74,96.44)" id="img-4a779045-37">
      <g class="primitive">
        <text text-anchor="end" dy="0.35em">0.000</text>
      </g>
    </g>
    <g transform="translate(175.74,66.63)" id="img-4a779045-38">
      <g class="primitive">
        <text text-anchor="end" dy="0.35em">0.005</text>
      </g>
    </g>
    <g transform="translate(175.74,36.81)" id="img-4a779045-39">
      <g class="primitive">
        <text text-anchor="end" dy="0.35em">0.010</text>
      </g>
    </g>
    <g transform="translate(175.74,7)" id="img-4a779045-40">
      <g class="primitive">
        <text text-anchor="end" dy="0.35em">0.015</text>
      </g>
    </g>
  </g>
  <g font-size="4.59" font-family="CMU Serif" fill="#564A55" stroke="#000000" stroke-opacity="0.000" id="img-4a779045-41">
    <g transform="translate(159.14,49.72)" id="img-4a779045-42">
      <g class="primitive">
        <text text-anchor="middle" dy="0.35em" transform="rotate(-90,0, 2)">Density</text>
      </g>
    </g>
  </g>
</g>
<g class="plotroot xscalable yscalable" id="img-4a779045-43">
  <g font-size="4.59" font-family="CMU Serif" fill="#564A55" stroke="#000000" stroke-opacity="0.000" id="img-4a779045-44">
    <g transform="translate(85.87,107.72)" id="img-4a779045-45">
      <g class="primitive">
        <text text-anchor="middle" dy="0.6em">Proper Motion Right Ascension (mas/yr)</text>
      </g>
    </g>
  </g>
  <g class="guide xlabels" font-size="4.59" font-family="CMU Serif" fill="#6C606B" id="img-4a779045-46">
    <g transform="translate(28.82,99.44)" id="img-4a779045-47">
      <g class="primitive">
        <text text-anchor="middle" dy="0.6em">0</text>
      </g>
    </g>
    <g transform="translate(68.71,99.44)" id="img-4a779045-48">
      <g class="primitive">
        <text text-anchor="middle" dy="0.6em">2.00×10³</text>
      </g>
    </g>
    <g transform="translate(108.6,99.44)" id="img-4a779045-49">
      <g class="primitive">
        <text text-anchor="middle" dy="0.6em">4.00×10³</text>
      </g>
    </g>
  </g>
  <g clip-path="url(#img-4a779045-50)">
    <g id="img-4a779045-51">
      <g pointer-events="visible" stroke-width="0.3" fill="#000000" fill-opacity="0.000" stroke="#000000" stroke-opacity="0.000" class="guide background" id="img-4a779045-52">
        <g transform="translate(85.87,51.72)" id="img-4a779045-53">
          <path d="M-59.13,-46.72 L59.13,-46.72 59.13,46.72 -59.13,46.72  z" class="primitive"/>
        </g>
      </g>
      <g class="guide ygridlines xfixed" stroke-dasharray="0.5,0.5" stroke-width="0.2" stroke="#D0D0E0" id="img-4a779045-54">
        <g transform="translate(85.87,96.44)" id="img-4a779045-55">
          <path fill="none" d="M-59.13,0 L59.13,0 " class="primitive"/>
        </g>
        <g transform="translate(85.87,66.63)" id="img-4a779045-56">
          <path fill="none" d="M-59.13,0 L59.13,0 " class="primitive"/>
        </g>
        <g transform="translate(85.87,36.81)" id="img-4a779045-57">
          <path fill="none" d="M-59.13,0 L59.13,0 " class="primitive"/>
        </g>
        <g transform="translate(85.87,7)" id="img-4a779045-58">
          <path fill="none" d="M-59.13,0 L59.13,0 " class="primitive"/>
        </g>
      </g>
      <g class="guide xgridlines yfixed" stroke-dasharray="0.5,0.5" stroke-width="0.2" stroke="#D0D0E0" id="img-4a779045-59">
        <g transform="translate(28.82,51.72)" id="img-4a779045-60">
          <path fill="none" d="M0,-46.72 L0,46.72 " class="primitive"/>
        </g>
        <g transform="translate(68.71,51.72)" id="img-4a779045-61">
          <path fill="none" d="M0,-46.72 L0,46.72 " class="primitive"/>
        </g>
        <g transform="translate(108.6,51.72)" id="img-4a779045-62">
          <path fill="none" d="M0,-46.72 L0,46.72 " class="primitive"/>
        </g>
      </g>
      <g class="plotpanel" id="img-4a779045-63">
        <metadata>
          <boundingbox value="26.740833333333327mm 5.0mm 118.25916666666667mm 93.44166666666666mm"/>
          <unitbox value="-104.27510438996187 0.015335414143296375 5929.225141284949 -0.01567082828659275"/>
        </metadata>
        <g stroke-width="0.3" fill="#000000" fill-opacity="0.000" class="geometry" id="img-4a779045-64">
          <g transform="translate(68.7,95.01)" id="img-4a779045-65" stroke-dasharray="none" stroke="#FF6347" class="color_Area_1">
            <path fill="none" d="M-41.33,1.43 L-41,1.4 -40.68,1 -40.35,-1.23 -40.03,-7.62 -39.71,-16.58 -39.38,-22.58 -39.06,-24.51 -38.73,-24.82 -38.41,-24.84 -38.09,-24.82 -37.76,-24.67 -37.44,-24.08 -37.11,-22.72 -36.79,-20.51 -36.46,-17.6 -36.14,-14.55 -35.82,-12.06 -35.49,-10 -35.17,-7.73 -34.84,-5.31 -34.52,-3.56 -34.2,-2.6 -33.87,-2 -33.55,-1.5 -33.22,-0.94 -32.9,-0.45 -32.58,-0.26 -32.25,-0.18 -31.93,0.03 -31.6,0.38 -31.28,0.63 -30.95,0.75 -30.63,0.88 -30.31,0.98 -29.98,1.05 -29.66,1.14 -29.33,1.17 -29.01,1.12 -28.69,1.01 -28.36,0.84 -28.04,0.74 -27.71,0.79 -27.39,0.97 -27.07,1.15 -26.74,1.26 -26.42,1.33 -26.09,1.36 -25.77,1.39 -25.44,1.39 -25.12,1.37 -24.8,1.37 -24.47,1.35 -24.15,1.32 -23.82,1.34 -23.5,1.4 -23.18,1.43 -22.85,1.42 -22.53,1.39 -22.2,1.34 -21.88,1.33 -21.55,1.38 -21.23,1.42 -20.91,1.43 -20.58,1.43 -20.26,1.43 -19.93,1.43 -19.61,1.43 -19.29,1.43 -18.96,1.42 -18.64,1.39 -18.31,1.37 -17.99,1.38 -17.67,1.38 -17.34,1.37 -17.02,1.36 -16.69,1.35 -16.37,1.34 -16.04,1.36 -15.72,1.4 -15.4,1.43 -15.07,1.43 -14.75,1.43 -14.42,1.43 -14.1,1.43 -13.78,1.43 -13.45,1.43 -13.13,1.43 -12.8,1.43 -12.48,1.43 -12.15,1.43 -11.83,1.43 -11.51,1.43 -11.18,1.43 -10.86,1.43 -10.53,1.43 -10.21,1.43 -9.89,1.43 -9.56,1.43 -9.24,1.43 -8.91,1.43 -8.59,1.43 -8.27,1.43 -7.94,1.43 -7.62,1.43 -7.29,1.43 -6.97,1.43 -6.64,1.43 -6.32,1.43 -6,1.43 -5.67,1.43 -5.35,1.43 -5.02,1.42 -4.7,1.39 -4.38,1.38 -4.05,1.4 -3.73,1.43 -3.4,1.43 -3.08,1.43 -2.76,1.43 -2.43,1.43 -2.11,1.43 -1.78,1.43 -1.46,1.43 -1.13,1.43 -0.81,1.43 -0.49,1.43 -0.16,1.43 0.16,1.43 0.49,1.43 0.81,1.43 1.13,1.43 1.46,1.43 1.78,1.43 2.11,1.43 2.43,1.43 2.76,1.43 3.08,1.43 3.4,1.43 3.73,1.43 4.05,1.43 4.38,1.43 4.7,1.43 5.02,1.43 5.35,1.43 5.67,1.43 6,1.43 6.32,1.43 6.64,1.43 6.97,1.43 7.29,1.43 7.62,1.43 7.94,1.43 8.27,1.43 8.59,1.43 8.91,1.43 9.24,1.43 9.56,1.43 9.89,1.43 10.21,1.43 10.53,1.43 10.86,1.43 11.18,1.43 11.51,1.43 11.83,1.43 12.15,1.43 12.48,1.43 12.8,1.43 13.13,1.43 13.45,1.43 13.78,1.43 14.1,1.43 14.42,1.43 14.75,1.43 15.07,1.43 15.4,1.43 15.72,1.43 16.04,1.43 16.37,1.43 16.69,1.43 17.02,1.43 17.34,1.43 17.67,1.43 17.99,1.43 18.31,1.43 18.64,1.43 18.96,1.43 19.29,1.43 19.61,1.43 19.93,1.43 20.26,1.43 20.58,1.43 20.91,1.43 21.23,1.43 21.55,1.43 21.88,1.43 22.2,1.43 22.53,1.43 22.85,1.43 23.18,1.43 23.5,1.43 23.82,1.43 24.15,1.43 24.47,1.43 24.8,1.43 25.12,1.43 25.44,1.43 25.77,1.43 26.09,1.43 26.42,1.43 26.74,1.43 27.07,1.43 27.39,1.43 27.71,1.43 28.04,1.43 28.36,1.43 28.69,1.43 29.01,1.43 29.33,1.43 29.66,1.43 29.98,1.43 30.31,1.43 30.63,1.43 30.95,1.43 31.28,1.43 31.6,1.43 31.93,1.43 32.25,1.43 32.58,1.43 32.9,1.43 33.22,1.43 33.55,1.43 33.87,1.43 34.2,1.43 34.52,1.43 34.84,1.43 35.17,1.43 35.49,1.43 35.82,1.43 36.14,1.43 36.46,1.43 36.79,1.43 37.11,1.43 37.44,1.43 37.76,1.43 38.09,1.43 38.41,1.43 38.73,1.43 39.06,1.43 39.38,1.42 39.71,1.39 40.03,1.38 40.35,1.4 40.68,1.43 41,1.43 41.33,1.43 " class="primitive"/>
          </g>
          <g transform="translate(85,95.42)" id="img-4a779045-66" stroke-dasharray="none" stroke="#B23AEE" class="color_Area_3">
            <path fill="none" d="M-58,1.02 L-57.55,0.98 -57.1,0.46 -56.64,-2.18 -56.19,-8 -55.73,-13.94 -55.28,-16.73 -54.82,-17.29 -54.37,-17.33 -53.91,-17.33 -53.46,-17.31 -53,-17.17 -52.55,-16.72 -52.09,-15.73 -51.64,-14.12 -51.18,-12.11 -50.73,-9.99 -50.27,-7.88 -49.82,-5.99 -49.36,-4.56 -48.91,-3.54 -48.45,-2.79 -48,-2.17 -47.54,-1.54 -47.09,-0.99 -46.63,-0.61 -46.18,-0.34 -45.72,-0.08 -45.27,0.1 -44.81,0.24 -44.36,0.35 -43.9,0.33 -43.45,0.35 -42.99,0.4 -42.54,0.47 -42.08,0.61 -41.63,0.69 -41.17,0.71 -40.72,0.79 -40.26,0.89 -39.81,0.93 -39.35,0.91 -38.9,0.85 -38.44,0.83 -37.99,0.89 -37.53,0.95 -37.08,0.96 -36.62,0.94 -36.17,0.92 -35.71,0.91 -35.26,0.93 -34.8,0.94 -34.35,0.95 -33.89,0.97 -33.44,0.99 -32.98,1.01 -32.53,1.02 -32.07,1 -31.62,0.98 -31.16,0.97 -30.71,0.98 -30.25,0.99 -29.8,0.97 -29.34,0.96 -28.89,0.98 -28.43,0.98 -27.98,1 -27.52,1 -27.07,0.99 -26.61,1 -26.16,1.01 -25.7,1.02 -25.25,1.02 -24.79,1.02 -24.34,1.02 -23.88,1.02 -23.43,1.02 -22.97,1.01 -22.52,0.99 -22.06,0.98 -21.61,0.98 -21.15,1 -20.7,1.01 -20.24,1 -19.79,0.99 -19.33,1 -18.88,1.02 -18.43,1.02 -17.97,1.02 -17.52,1.02 -17.06,1.02 -16.61,1.02 -16.15,1.02 -15.7,1.02 -15.24,1.02 -14.79,1.02 -14.33,1 -13.88,0.99 -13.42,1 -12.97,1.01 -12.51,1.02 -12.06,1.02 -11.6,1.02 -11.15,1.02 -10.69,1.02 -10.24,1.02 -9.78,1.01 -9.33,1 -8.87,1 -8.42,1.01 -7.96,1.02 -7.51,1.02 -7.05,1.02 -6.6,1.02 -6.14,1.02 -5.69,1.02 -5.23,1.02 -4.78,1.02 -4.32,1.02 -3.87,1.02 -3.41,1.02 -2.96,1.02 -2.5,1.02 -2.05,1.02 -1.59,1.02 -1.14,1.02 -0.68,1.02 -0.23,1.02 0.23,1.02 0.68,1.02 1.14,1.02 1.59,1.02 2.05,1.02 2.5,1.02 2.96,1.02 3.41,1.02 3.87,1 4.32,0.99 4.78,1 5.23,1.02 5.69,1.02 6.14,1.02 6.6,1.02 7.05,1.02 7.51,1.02 7.96,1.02 8.42,1.02 8.87,1.02 9.33,1.02 9.78,1.02 10.24,1.02 10.69,1.02 11.15,1.02 11.6,1.02 12.06,1.02 12.51,1.02 12.97,1.02 13.42,1.02 13.88,1.02 14.33,1.02 14.79,1.02 15.24,1.02 15.7,1.02 16.15,1.02 16.61,1.02 17.06,1.02 17.52,1.02 17.97,1.02 18.43,1.02 18.88,1.02 19.33,1.02 19.79,1.02 20.24,1.02 20.7,1.02 21.15,1.02 21.61,1.02 22.06,1.02 22.52,1.02 22.97,1.02 23.43,1.02 23.88,1.02 24.34,1.02 24.79,1.02 25.25,1.02 25.7,1.02 26.16,1.02 26.61,1.02 27.07,1.02 27.52,1.02 27.98,1.02 28.43,1.02 28.89,1.02 29.34,1.02 29.8,1.02 30.25,1.02 30.71,1.02 31.16,1.02 31.62,1.02 32.07,1.02 32.53,1.02 32.98,1.02 33.44,1.02 33.89,1.02 34.35,1.02 34.8,1.02 35.26,1.02 35.71,1.02 36.17,1.02 36.62,1.02 37.08,1.02 37.53,1.02 37.99,1.02 38.44,1.02 38.9,1.02 39.35,1.02 39.81,1.02 40.26,1.02 40.72,1.02 41.17,1.02 41.63,1.02 42.08,1.02 42.54,1.02 42.99,1.02 43.45,1.02 43.9,1.02 44.36,1.02 44.81,1.02 45.27,1.02 45.72,1.02 46.18,1.02 46.63,1.02 47.09,1.02 47.54,1.02 48,1.02 48.45,1.02 48.91,1.02 49.36,1.02 49.82,1.02 50.27,1.02 50.73,1.02 51.18,1.02 51.64,1.02 52.09,1.02 52.55,1.02 53,1.02 53.46,1.02 53.91,1.02 54.37,1.02 54.82,1.02 55.28,1.02 55.73,1 56.19,0.99 56.64,1 57.1,1.02 57.55,1.02 58,1.02 " class="primitive"/>
          </g>
          <g transform="translate(32.41,82.93)" id="img-4a779045-67" stroke-dasharray="none" stroke="#4169E1" class="color_Area_2">
            <path fill="none" d="M-4.38,13.51 L-4.35,13.51 -4.31,13.51 -4.28,13.51 -4.25,13.5 -4.21,13.48 -4.18,13.45 -4.14,13.4 -4.11,13.32 -4.07,13.19 -4.04,12.98 -4,12.65 -3.97,12.18 -3.94,11.5 -3.9,10.56 -3.87,9.3 -3.83,7.68 -3.8,5.64 -3.76,3.18 -3.73,0.28 -3.7,-3.01 -3.66,-6.63 -3.63,-10.49 -3.59,-14.46 -3.56,-18.41 -3.52,-22.23 -3.49,-25.8 -3.45,-29.02 -3.42,-31.84 -3.39,-34.23 -3.35,-36.19 -3.32,-37.74 -3.28,-38.94 -3.25,-39.82 -3.21,-40.46 -3.18,-40.9 -3.15,-41.2 -3.11,-41.4 -3.08,-41.52 -3.04,-41.6 -3.01,-41.64 -2.97,-41.66 -2.94,-41.68 -2.9,-41.68 -2.87,-41.68 -2.84,-41.67 -2.8,-41.66 -2.77,-41.63 -2.73,-41.6 -2.7,-41.55 -2.66,-41.48 -2.63,-41.37 -2.6,-41.24 -2.56,-41.06 -2.53,-40.82 -2.49,-40.53 -2.46,-40.17 -2.42,-39.73 -2.39,-39.23 -2.35,-38.64 -2.32,-37.99 -2.29,-37.27 -2.25,-36.48 -2.22,-35.63 -2.18,-34.71 -2.15,-33.74 -2.11,-32.7 -2.08,-31.59 -2.05,-30.42 -2.01,-29.17 -1.98,-27.84 -1.94,-26.45 -1.91,-24.98 -1.87,-23.45 -1.84,-21.88 -1.8,-20.29 -1.77,-18.68 -1.74,-17.1 -1.7,-15.56 -1.67,-14.09 -1.63,-12.7 -1.6,-11.42 -1.56,-10.24 -1.53,-9.16 -1.5,-8.18 -1.46,-7.27 -1.43,-6.42 -1.39,-5.6 -1.36,-4.81 -1.32,-4.04 -1.29,-3.28 -1.25,-2.53 -1.22,-1.8 -1.19,-1.09 -1.15,-0.41 -1.12,0.23 -1.08,0.84 -1.05,1.42 -1.01,1.98 -0.98,2.51 -0.95,3.02 -0.91,3.52 -0.88,4.01 -0.84,4.49 -0.81,4.96 -0.77,5.41 -0.74,5.84 -0.7,6.24 -0.67,6.6 -0.64,6.93 -0.6,7.21 -0.57,7.45 -0.53,7.63 -0.5,7.76 -0.46,7.83 -0.43,7.85 -0.4,7.83 -0.36,7.77 -0.33,7.69 -0.29,7.59 -0.26,7.5 -0.22,7.44 -0.19,7.41 -0.15,7.44 -0.12,7.53 -0.09,7.69 -0.05,7.91 -0.02,8.19 0.02,8.51 0.05,8.87 0.09,9.24 0.12,9.6 0.15,9.95 0.19,10.27 0.22,10.55 0.26,10.79 0.29,10.99 0.33,11.16 0.36,11.3 0.4,11.43 0.43,11.55 0.46,11.66 0.5,11.78 0.53,11.9 0.57,12.02 0.6,12.13 0.64,12.24 0.67,12.32 0.7,12.39 0.74,12.44 0.77,12.46 0.81,12.47 0.84,12.46 0.88,12.44 0.91,12.42 0.95,12.39 0.98,12.37 1.01,12.35 1.05,12.35 1.08,12.35 1.12,12.37 1.15,12.39 1.19,12.42 1.22,12.46 1.25,12.49 1.29,12.53 1.32,12.56 1.36,12.59 1.39,12.63 1.43,12.67 1.46,12.71 1.5,12.76 1.53,12.82 1.56,12.88 1.6,12.94 1.63,13 1.67,13.06 1.7,13.11 1.74,13.15 1.77,13.19 1.8,13.21 1.84,13.22 1.87,13.24 1.91,13.24 1.94,13.25 1.98,13.26 2.01,13.27 2.05,13.29 2.08,13.31 2.11,13.34 2.15,13.36 2.18,13.39 2.22,13.42 2.25,13.44 2.29,13.46 2.32,13.47 2.35,13.49 2.39,13.5 2.42,13.5 2.46,13.51 2.49,13.51 2.53,13.51 2.56,13.51 2.6,13.51 2.63,13.51 2.66,13.52 2.7,13.52 2.73,13.51 2.77,13.51 2.8,13.51 2.84,13.51 2.87,13.51 2.9,13.51 2.94,13.5 2.97,13.49 3.01,13.48 3.04,13.47 3.08,13.45 3.11,13.43 3.15,13.4 3.18,13.37 3.21,13.34 3.25,13.3 3.28,13.27 3.32,13.24 3.35,13.21 3.39,13.18 3.42,13.16 3.45,13.15 3.49,13.14 3.52,13.14 3.56,13.15 3.59,13.16 3.63,13.18 3.66,13.21 3.7,13.24 3.73,13.27 3.76,13.31 3.8,13.34 3.83,13.37 3.87,13.4 3.9,13.43 3.94,13.45 3.97,13.47 4,13.48 4.04,13.49 4.07,13.5 4.11,13.51 4.14,13.51 4.18,13.51 4.21,13.51 4.25,13.51 4.28,13.51 4.31,13.52 4.35,13.52 4.38,13.52 " class="primitive"/>
          </g>
          <g transform="translate(57.63,94.5)" id="img-4a779045-68" stroke-dasharray="none" stroke="#00CD66" class="color_Area_4">
            <path fill="none" d="M-30.51,1.94 L-30.27,1.94 -30.03,1.9 -29.79,1.72 -29.55,1.08 -29.31,-0.57 -29.07,-3.71 -28.83,-8.09 -28.59,-12.58 -28.35,-15.97 -28.12,-17.83 -27.88,-18.58 -27.64,-18.8 -27.4,-18.85 -27.16,-18.86 -26.92,-18.86 -26.68,-18.85 -26.44,-18.82 -26.2,-18.75 -25.96,-18.56 -25.72,-18.23 -25.48,-17.74 -25.24,-17.11 -25,-16.27 -24.77,-15.17 -24.53,-13.78 -24.29,-12.2 -24.05,-10.57 -23.81,-9.05 -23.57,-7.75 -23.33,-6.71 -23.09,-5.85 -22.85,-5.03 -22.61,-4.18 -22.37,-3.33 -22.13,-2.54 -21.89,-1.88 -21.65,-1.43 -21.42,-1.17 -21.18,-0.96 -20.94,-0.67 -20.7,-0.25 -20.46,0.18 -20.22,0.5 -19.98,0.7 -19.74,0.85 -19.5,0.99 -19.26,1.11 -19.02,1.2 -18.78,1.27 -18.54,1.33 -18.3,1.37 -18.07,1.37 -17.83,1.33 -17.59,1.25 -17.35,1.19 -17.11,1.2 -16.87,1.27 -16.63,1.35 -16.39,1.4 -16.15,1.44 -15.91,1.49 -15.67,1.55 -15.43,1.6 -15.19,1.64 -14.95,1.64 -14.72,1.63 -14.48,1.59 -14.24,1.57 -14,1.58 -13.76,1.61 -13.52,1.64 -13.28,1.68 -13.04,1.73 -12.8,1.78 -12.56,1.82 -12.32,1.83 -12.08,1.82 -11.84,1.79 -11.61,1.75 -11.37,1.71 -11.13,1.7 -10.89,1.72 -10.65,1.78 -10.41,1.84 -10.17,1.88 -9.93,1.91 -9.69,1.92 -9.45,1.92 -9.21,1.9 -8.97,1.89 -8.73,1.88 -8.49,1.87 -8.26,1.85 -8.02,1.84 -7.78,1.84 -7.54,1.83 -7.3,1.84 -7.06,1.86 -6.82,1.86 -6.58,1.86 -6.34,1.85 -6.1,1.85 -5.86,1.86 -5.62,1.88 -5.38,1.91 -5.14,1.93 -4.91,1.94 -4.67,1.94 -4.43,1.94 -4.19,1.94 -3.95,1.94 -3.71,1.94 -3.47,1.94 -3.23,1.94 -2.99,1.94 -2.75,1.94 -2.51,1.94 -2.27,1.94 -2.03,1.93 -1.79,1.92 -1.56,1.91 -1.32,1.9 -1.08,1.91 -0.84,1.93 -0.6,1.94 -0.36,1.94 -0.12,1.94 0.12,1.94 0.36,1.94 0.6,1.94 0.84,1.94 1.08,1.94 1.32,1.93 1.56,1.91 1.79,1.88 2.03,1.84 2.27,1.83 2.51,1.85 2.75,1.88 2.99,1.91 3.23,1.93 3.47,1.94 3.71,1.94 3.95,1.94 4.19,1.94 4.43,1.93 4.67,1.92 4.91,1.91 5.14,1.9 5.38,1.9 5.62,1.91 5.86,1.91 6.1,1.9 6.34,1.9 6.58,1.91 6.82,1.93 7.06,1.94 7.3,1.94 7.54,1.94 7.78,1.94 8.02,1.94 8.26,1.94 8.49,1.94 8.73,1.94 8.97,1.94 9.21,1.94 9.45,1.94 9.69,1.94 9.93,1.94 10.17,1.94 10.41,1.94 10.65,1.94 10.89,1.94 11.13,1.94 11.37,1.94 11.61,1.94 11.84,1.94 12.08,1.94 12.32,1.94 12.56,1.94 12.8,1.94 13.04,1.94 13.28,1.94 13.52,1.94 13.76,1.94 14,1.94 14.24,1.94 14.48,1.94 14.72,1.94 14.95,1.94 15.19,1.94 15.43,1.94 15.67,1.94 15.91,1.94 16.15,1.94 16.39,1.94 16.63,1.94 16.87,1.94 17.11,1.94 17.35,1.94 17.59,1.94 17.83,1.94 18.07,1.94 18.3,1.94 18.54,1.94 18.78,1.94 19.02,1.94 19.26,1.94 19.5,1.94 19.74,1.94 19.98,1.94 20.22,1.94 20.46,1.94 20.7,1.94 20.94,1.94 21.18,1.94 21.42,1.94 21.65,1.94 21.89,1.94 22.13,1.94 22.37,1.94 22.61,1.94 22.85,1.94 23.09,1.94 23.33,1.94 23.57,1.94 23.81,1.94 24.05,1.94 24.29,1.94 24.53,1.94 24.77,1.94 25,1.94 25.24,1.94 25.48,1.94 25.72,1.94 25.96,1.94 26.2,1.94 26.44,1.94 26.68,1.94 26.92,1.94 27.16,1.94 27.4,1.94 27.64,1.93 27.88,1.92 28.12,1.9 28.35,1.88 28.59,1.88 28.83,1.88 29.07,1.9 29.31,1.92 29.55,1.93 29.79,1.94 30.03,1.94 30.27,1.94 30.51,1.94 " class="primitive"/>
          </g>
        </g>
      </g>
    </g>
  </g>
  <g class="guide ylabels" font-size="4.59" font-family="CMU Serif" fill="#6C606B" id="img-4a779045-69">
    <g transform="translate(25.74,96.44)" id="img-4a779045-70">
      <g class="primitive">
        <text text-anchor="end" dy="0.35em">0.000</text>
      </g>
    </g>
    <g transform="translate(25.74,66.63)" id="img-4a779045-71">
      <g class="primitive">
        <text text-anchor="end" dy="0.35em">0.005</text>
      </g>
    </g>
    <g transform="translate(25.74,36.81)" id="img-4a779045-72">
      <g class="primitive">
        <text text-anchor="end" dy="0.35em">0.010</text>
      </g>
    </g>
    <g transform="translate(25.74,7)" id="img-4a779045-73">
      <g class="primitive">
        <text text-anchor="end" dy="0.35em">0.015</text>
      </g>
    </g>
  </g>
  <g font-size="4.59" font-family="CMU Serif" fill="#564A55" stroke="#000000" stroke-opacity="0.000" id="img-4a779045-74">
    <g transform="translate(9.14,49.72)" id="img-4a779045-75">
      <g class="primitive">
        <text text-anchor="middle" dy="0.35em" transform="rotate(-90,0, 2)">Density</text>
      </g>
    </g>
  </g>
</g>
<defs>
  <clipPath id="img-4a779045-17">
    <path d="M176.74,5 L276.87,5 276.87,98.44 176.74,98.44 " />
  </clipPath>
  <clipPath id="img-4a779045-50">
    <path d="M26.74,5 L145,5 145,98.44 26.74,98.44 " />
  </clipPath>
</defs>
</svg>
