<?xml version="1.0" encoding="UTF-8"?>
<svg xmlns="http://www.w3.org/2000/svg"
     xmlns:xlink="http://www.w3.org/1999/xlink"
     xmlns:gadfly="http://www.gadflyjl.org/ns"
     version="1.2"
     width="300mm" height="120mm" viewBox="0 0 300 120"
     stroke="none"
     fill="#000000"
     stroke-width="0.3"
     font-size="3.88"
>
<defs>
  <marker id="arrow" markerWidth="15" markerHeight="7" refX="5" refY="3.5" orient="auto" markerUnits="strokeWidth">
    <path d="M0,0 L15,3.5 L0,7 z" stroke="context-stroke" fill="context-stroke"/>
  </marker>
</defs>
<g class="plotroot xscalable yscalable" id="img-81268be4-1">
  <g font-size="3.88" font-family="'PT Sans','Helvetica Neue','Helvetica',sans-serif" fill="#564A55" stroke="#000000" stroke-opacity="0.000" id="img-81268be4-2">
    <g transform="translate(148.59,108.39)">
      <g class="primitive">
        <text text-anchor="middle" dy="0.6em">Pheromone Value</text>
      </g>
    </g>
  </g>
  <g class="guide xlabels" font-size="2.82" font-family="'PT Sans Caption','Helvetica Neue','Helvetica',sans-serif" fill="#6C606B" id="img-81268be4-3">
    <g transform="translate(21.63,101.72)">
      <g class="primitive">
        <text text-anchor="middle" dy="0.6em">0.00</text>
      </g>
    </g>
    <g transform="translate(105.16,101.72)">
      <g class="primitive">
        <text text-anchor="middle" dy="0.6em">0.02</text>
      </g>
    </g>
    <g transform="translate(188.69,101.72)">
      <g class="primitive">
        <text text-anchor="middle" dy="0.6em">0.04</text>
      </g>
    </g>
    <g transform="translate(272.21,101.72)">
      <g class="primitive">
        <text text-anchor="middle" dy="0.6em">0.06</text>
      </g>
    </g>
  </g>
  <g class="guide colorkey" id="img-81268be4-4">
    <g fill="#4C404B" font-size="2.82" font-family="'PT Sans','Helvetica Neue','Helvetica',sans-serif" id="img-81268be4-5">
      <g transform="translate(281.35,47.42)" id="img-81268be4-6" class="color_Area_1">
        <g class="primitive">
          <text dy="0.35em">Area 1</text>
        </g>
      </g>
      <g transform="translate(281.35,51.04)" id="img-81268be4-7" class="color_Area_2:_2x2">
        <g class="primitive">
          <text dy="0.35em">Area 2: 2x2</text>
        </g>
      </g>
      <g transform="translate(281.35,54.67)" id="img-81268be4-8" class="color_Area_2:_4x4">
        <g class="primitive">
          <text dy="0.35em">Area 2: 4x4</text>
        </g>
      </g>
      <g transform="translate(281.35,58.3)" id="img-81268be4-9" class="color_Area_3">
        <g class="primitive">
          <text dy="0.35em">Area 3</text>
        </g>
      </g>
      <g transform="translate(281.35,61.92)" id="img-81268be4-10" class="color_Area_4">
        <g class="primitive">
          <text dy="0.35em">Area 4</text>
        </g>
      </g>
    </g>
    <g fill-opacity="1" id="img-81268be4-11">
      <g transform="translate(279.45,47.42)" id="img-81268be4-12" stroke="#FFFFFF" class="color_Area_1" fill="#FF6347">
        <path d="M-0.91,-0.91 L0.91,-0.91 0.91,0.91 -0.91,0.91  z" class="primitive"/>
      </g>
      <g transform="translate(279.45,51.04)" id="img-81268be4-13" stroke="#FFFFFF" class="color_Area_2:_2x2" fill="#4169E1">
        <path d="M-0.91,-0.91 L0.91,-0.91 0.91,0.91 -0.91,0.91  z" class="primitive"/>
      </g>
      <g transform="translate(279.45,54.67)" id="img-81268be4-14" stroke="#FFFFFF" class="color_Area_2:_4x4" fill="#404040">
        <path d="M-0.91,-0.91 L0.91,-0.91 0.91,0.91 -0.91,0.91  z" class="primitive"/>
      </g>
      <g transform="translate(279.45,58.3)" id="img-81268be4-15" stroke="#FFFFFF" class="color_Area_3" fill="#B23AEE">
        <path d="M-0.91,-0.91 L0.91,-0.91 0.91,0.91 -0.91,0.91  z" class="primitive"/>
      </g>
      <g transform="translate(279.45,61.92)" id="img-81268be4-16" stroke="#FFFFFF" class="color_Area_4" fill="#00CD66">
        <path d="M-0.91,-0.91 L0.91,-0.91 0.91,0.91 -0.91,0.91  z" class="primitive"/>
      </g>
    </g>
    <g fill="#362A35" font-size="3.88" font-family="'PT Sans','Helvetica Neue','Helvetica',sans-serif" stroke="#000000" stroke-opacity="0.000" id="img-81268be4-17">
      <g transform="translate(278.54,43.6)" id="img-81268be4-18">
        <g class="primitive">
          <text dy="-0em">Area</text>
        </g>
      </g>
    </g>
  </g>
  <g clip-path="url(#img-81268be4-19)">
    <g id="img-81268be4-20">
      <g pointer-events="visible" stroke-width="0.3" fill="#000000" fill-opacity="0.000" stroke="#000000" stroke-opacity="0.000" class="guide background" id="img-81268be4-21">
        <g transform="translate(148.59,52.86)" id="img-81268be4-22">
          <path d="M-128.95,-47.86 L128.95,-47.86 128.95,47.86 -128.95,47.86  z" class="primitive"/>
        </g>
      </g>
      <g class="guide ygridlines xfixed" stroke-dasharray="0.5,0.5" stroke-width="0.2" stroke="#D0D0E0" id="img-81268be4-23">
        <g transform="translate(148.59,98.71)" id="img-81268be4-24">
          <path fill="none" d="M-128.95,0 L128.95,0 " class="primitive"/>
        </g>
        <g transform="translate(148.59,75.79)" id="img-81268be4-25">
          <path fill="none" d="M-128.95,0 L128.95,0 " class="primitive"/>
        </g>
        <g transform="translate(148.59,52.86)" id="img-81268be4-26">
          <path fill="none" d="M-128.95,0 L128.95,0 " class="primitive"/>
        </g>
        <g transform="translate(148.59,29.93)" id="img-81268be4-27">
          <path fill="none" d="M-128.95,0 L128.95,0 " class="primitive"/>
        </g>
        <g transform="translate(148.59,7)" id="img-81268be4-28">
          <path fill="none" d="M-128.95,0 L128.95,0 " class="primitive"/>
        </g>
      </g>
      <g class="guide xgridlines yfixed" stroke-dasharray="0.5,0.5" stroke-width="0.2" stroke="#D0D0E0" id="img-81268be4-29">
        <g transform="translate(21.63,52.86)" id="img-81268be4-30">
          <path fill="none" d="M0,-47.86 L0,47.86 " class="primitive"/>
        </g>
        <g transform="translate(105.16,52.86)" id="img-81268be4-31">
          <path fill="none" d="M0,-47.86 L0,47.86 " class="primitive"/>
        </g>
        <g transform="translate(188.69,52.86)" id="img-81268be4-32">
          <path fill="none" d="M0,-47.86 L0,47.86 " class="primitive"/>
        </g>
        <g transform="translate(272.21,52.86)" id="img-81268be4-33">
          <path fill="none" d="M0,-47.86 L0,47.86 " class="primitive"/>
        </g>
      </g>
      <g class="plotpanel" id="img-81268be4-34">
        <metadata>
          <boundingbox value="19.63166666666666mm 5.0mm 257.9083333333333mm 95.715mm"/>
          <unitbox value="-0.0004788828590252933 204.3613367497138 0.0617539400165575 -208.7226734994276"/>
        </metadata>
        <g stroke-width="0.3" fill="#000000" fill-opacity="0.000" class="geometry" id="img-81268be4-35">
          <g transform="translate(94.34,88.5)" id="img-81268be4-36" stroke-dasharray="none" stroke="#FF6347" class="color_Area_1">
            <path fill="none" d="M-93.35,10.22 L-92.62,10.22 -91.88,10.22 -91.15,10.21 -90.42,10.21 -89.69,10.2 -88.95,10.19 -88.22,10.18 -87.49,10.16 -86.76,10.12 -86.03,10.08 -85.29,10.01 -84.56,9.91 -83.83,9.77 -83.1,9.58 -82.37,9.32 -81.63,8.99 -80.9,8.57 -80.17,8.04 -79.44,7.38 -78.71,6.59 -77.97,5.65 -77.24,4.56 -76.51,3.32 -75.78,1.94 -75.04,0.42 -74.31,-1.21 -73.58,-2.92 -72.85,-4.69 -72.12,-6.48 -71.38,-8.26 -70.65,-9.99 -69.92,-11.64 -69.19,-13.18 -68.46,-14.6 -67.72,-15.87 -66.99,-16.99 -66.26,-17.95 -65.53,-18.76 -64.79,-19.42 -64.06,-19.94 -63.33,-20.34 -62.6,-20.62 -61.87,-20.81 -61.13,-20.92 -60.4,-20.96 -59.67,-20.95 -58.94,-20.9 -58.21,-20.82 -57.47,-20.74 -56.74,-20.66 -56.01,-20.59 -55.28,-20.54 -54.54,-20.52 -53.81,-20.52 -53.08,-20.56 -52.35,-20.62 -51.62,-20.71 -50.88,-20.82 -50.15,-20.93 -49.42,-21.04 -48.69,-21.14 -47.96,-21.22 -47.22,-21.27 -46.49,-21.28 -45.76,-21.24 -45.03,-21.14 -44.29,-21 -43.56,-20.8 -42.83,-20.55 -42.1,-20.26 -41.37,-19.92 -40.63,-19.56 -39.9,-19.16 -39.17,-18.76 -38.44,-18.35 -37.71,-17.93 -36.97,-17.53 -36.24,-17.15 -35.51,-16.78 -34.78,-16.43 -34.04,-16.1 -33.31,-15.8 -32.58,-15.5 -31.85,-15.22 -31.12,-14.95 -30.38,-14.67 -29.65,-14.39 -28.92,-14.1 -28.19,-13.8 -27.46,-13.48 -26.72,-13.13 -25.99,-12.76 -25.26,-12.36 -24.53,-11.93 -23.79,-11.47 -23.06,-10.97 -22.33,-10.45 -21.6,-9.89 -20.87,-9.29 -20.13,-8.68 -19.4,-8.04 -18.67,-7.38 -17.94,-6.71 -17.21,-6.04 -16.47,-5.37 -15.74,-4.72 -15.01,-4.1 -14.28,-3.51 -13.54,-2.95 -12.81,-2.45 -12.08,-1.98 -11.35,-1.57 -10.62,-1.2 -9.88,-0.88 -9.15,-0.61 -8.42,-0.37 -7.69,-0.16 -6.96,0.02 -6.22,0.19 -5.49,0.34 -4.76,0.48 -4.03,0.61 -3.29,0.74 -2.56,0.87 -1.83,1 -1.1,1.13 -0.37,1.27 0.37,1.41 1.1,1.55 1.83,1.71 2.56,1.88 3.29,2.06 4.03,2.27 4.76,2.49 5.49,2.73 6.22,3 6.96,3.28 7.69,3.59 8.42,3.9 9.15,4.23 9.88,4.56 10.62,4.89 11.35,5.2 12.08,5.5 12.81,5.78 13.54,6.04 14.28,6.26 15.01,6.46 15.74,6.62 16.47,6.76 17.21,6.87 17.94,6.96 18.67,7.03 19.4,7.09 20.13,7.14 20.87,7.18 21.6,7.22 22.33,7.26 23.06,7.31 23.79,7.37 24.53,7.44 25.26,7.51 25.99,7.6 26.72,7.7 27.46,7.81 28.19,7.93 28.92,8.06 29.65,8.18 30.38,8.31 31.12,8.44 31.85,8.56 32.58,8.68 33.31,8.78 34.04,8.88 34.78,8.96 35.51,9.02 36.24,9.08 36.97,9.12 37.71,9.15 38.44,9.18 39.17,9.2 39.9,9.22 40.63,9.24 41.37,9.26 42.1,9.28 42.83,9.31 43.56,9.34 44.29,9.38 45.03,9.43 45.76,9.48 46.49,9.53 47.22,9.59 47.96,9.64 48.69,9.7 49.42,9.76 50.15,9.81 50.88,9.86 51.62,9.91 52.35,9.96 53.08,10 53.81,10.03 54.54,10.07 55.28,10.09 56.01,10.12 56.74,10.14 57.47,10.15 58.21,10.17 58.94,10.18 59.67,10.19 60.4,10.19 61.13,10.2 61.87,10.2 62.6,10.2 63.33,10.19 64.06,10.19 64.79,10.18 65.53,10.18 66.26,10.17 66.99,10.16 67.72,10.15 68.46,10.14 69.19,10.13 69.92,10.13 70.65,10.12 71.38,10.12 72.12,10.11 72.85,10.11 73.58,10.11 74.31,10.12 75.04,10.12 75.78,10.13 76.51,10.14 77.24,10.15 77.97,10.15 78.71,10.16 79.44,10.17 80.17,10.18 80.9,10.19 81.63,10.19 82.37,10.2 83.1,10.2 83.83,10.21 84.56,10.21 85.29,10.21 86.03,10.21 86.76,10.22 87.49,10.22 88.22,10.22 88.95,10.22 89.69,10.22 90.42,10.22 91.15,10.22 91.88,10.22 92.62,10.22 93.35,10.22 " class="primitive"/>
          </g>
          <g transform="translate(137.63,91.8)" id="img-81268be4-37" stroke-dasharray="none" stroke="#B23AEE" class="color_Area_3">
            <path fill="none" d="M-137.91,6.92 L-136.83,6.91 -135.75,6.91 -134.66,6.91 -133.58,6.9 -132.5,6.88 -131.42,6.85 -130.34,6.8 -129.26,6.71 -128.17,6.56 -127.09,6.34 -126.01,6.01 -124.93,5.53 -123.85,4.86 -122.77,3.98 -121.68,2.84 -120.6,1.44 -119.52,-0.22 -118.44,-2.13 -117.36,-4.22 -116.28,-6.45 -115.19,-8.72 -114.11,-10.95 -113.03,-13.06 -111.95,-14.98 -110.87,-16.65 -109.79,-18.06 -108.7,-19.19 -107.62,-20.05 -106.54,-20.66 -105.46,-21.06 -104.38,-21.29 -103.3,-21.39 -102.22,-21.39 -101.13,-21.34 -100.05,-21.28 -98.97,-21.22 -97.89,-21.19 -96.81,-21.21 -95.73,-21.27 -94.64,-21.37 -93.56,-21.49 -92.48,-21.61 -91.4,-21.71 -90.32,-21.77 -89.24,-21.76 -88.15,-21.69 -87.07,-21.53 -85.99,-21.32 -84.91,-21.05 -83.83,-20.74 -82.75,-20.43 -81.66,-20.13 -80.58,-19.86 -79.5,-19.64 -78.42,-19.48 -77.34,-19.38 -76.26,-19.32 -75.17,-19.3 -74.09,-19.29 -73.01,-19.27 -71.93,-19.22 -70.85,-19.11 -69.77,-18.92 -68.68,-18.65 -67.6,-18.29 -66.52,-17.84 -65.44,-17.3 -64.36,-16.68 -63.28,-15.98 -62.19,-15.22 -61.11,-14.39 -60.03,-13.51 -58.95,-12.59 -57.87,-11.64 -56.79,-10.68 -55.7,-9.71 -54.62,-8.75 -53.54,-7.83 -52.46,-6.95 -51.38,-6.13 -50.3,-5.38 -49.21,-4.7 -48.13,-4.09 -47.05,-3.55 -45.97,-3.06 -44.89,-2.62 -43.81,-2.2 -42.72,-1.79 -41.64,-1.37 -40.56,-0.93 -39.48,-0.48 -38.4,0.01 -37.32,0.51 -36.23,1.02 -35.15,1.52 -34.07,2 -32.99,2.46 -31.91,2.87 -30.83,3.23 -29.75,3.54 -28.66,3.8 -27.58,4.02 -26.5,4.19 -25.42,4.34 -24.34,4.45 -23.26,4.55 -22.17,4.63 -21.09,4.7 -20.01,4.76 -18.93,4.81 -17.85,4.85 -16.77,4.89 -15.68,4.92 -14.6,4.95 -13.52,4.98 -12.44,5.01 -11.36,5.05 -10.28,5.1 -9.19,5.16 -8.11,5.23 -7.03,5.31 -5.95,5.4 -4.87,5.49 -3.79,5.58 -2.7,5.67 -1.62,5.75 -0.54,5.83 0.54,5.91 1.62,5.97 2.7,6.03 3.79,6.08 4.87,6.12 5.95,6.14 7.03,6.15 8.11,6.16 9.19,6.15 10.28,6.13 11.36,6.11 12.44,6.09 13.52,6.08 14.6,6.07 15.68,6.08 16.77,6.1 17.85,6.13 18.93,6.18 20.01,6.23 21.09,6.29 22.17,6.36 23.26,6.42 24.34,6.48 25.42,6.54 26.5,6.6 27.58,6.65 28.66,6.69 29.75,6.73 30.83,6.76 31.91,6.79 32.99,6.81 34.07,6.83 35.15,6.85 36.23,6.87 37.32,6.88 38.4,6.89 39.48,6.9 40.56,6.9 41.64,6.91 42.72,6.91 43.81,6.91 44.89,6.91 45.97,6.92 47.05,6.92 48.13,6.91 49.21,6.91 50.3,6.91 51.38,6.91 52.46,6.9 53.54,6.9 54.62,6.89 55.7,6.87 56.79,6.86 57.87,6.84 58.95,6.82 60.03,6.8 61.11,6.77 62.19,6.75 63.28,6.73 64.36,6.72 65.44,6.71 66.52,6.7 67.6,6.7 68.68,6.7 69.77,6.71 70.85,6.71 71.93,6.72 73.01,6.72 74.09,6.72 75.17,6.73 76.26,6.73 77.34,6.74 78.42,6.75 79.5,6.76 80.58,6.77 81.66,6.79 82.75,6.81 83.83,6.82 84.91,6.84 85.99,6.86 87.07,6.87 88.15,6.88 89.24,6.89 90.32,6.9 91.4,6.91 92.48,6.91 93.56,6.91 94.64,6.91 95.73,6.91 96.81,6.92 97.89,6.92 98.97,6.92 100.05,6.92 101.13,6.91 102.22,6.91 103.3,6.91 104.38,6.91 105.46,6.9 106.54,6.9 107.62,6.89 108.7,6.88 109.79,6.87 110.87,6.86 111.95,6.85 113.03,6.84 114.11,6.83 115.19,6.83 116.28,6.83 117.36,6.83 118.44,6.83 119.52,6.84 120.6,6.85 121.68,6.86 122.77,6.87 123.85,6.88 124.93,6.89 126.01,6.9 127.09,6.9 128.17,6.91 129.26,6.91 130.34,6.91 131.42,6.91 132.5,6.92 133.58,6.92 134.66,6.92 135.75,6.92 136.83,6.92 137.91,6.92 " class="primitive"/>
          </g>
          <g transform="translate(76.53,84.55)" id="img-81268be4-38" stroke-dasharray="none" stroke="#4169E1" class="color_Area_2:_2x2">
            <path fill="none" d="M-67.33,14.16 L-66.81,14.16 -66.28,14.16 -65.75,14.15 -65.22,14.14 -64.69,14.12 -64.17,14.09 -63.64,14.04 -63.11,13.95 -62.58,13.82 -62.05,13.61 -61.53,13.31 -61,12.87 -60.47,12.26 -59.94,11.43 -59.41,10.33 -58.89,8.92 -58.36,7.15 -57.83,5.01 -57.3,2.47 -56.77,-0.44 -56.24,-3.69 -55.72,-7.22 -55.19,-10.96 -54.66,-14.8 -54.13,-18.64 -53.6,-22.38 -53.08,-25.94 -52.55,-29.22 -52.02,-32.17 -51.49,-34.76 -50.96,-36.98 -50.44,-38.83 -49.91,-40.35 -49.38,-41.55 -48.85,-42.5 -48.32,-43.22 -47.79,-43.77 -47.27,-44.17 -46.74,-44.47 -46.21,-44.69 -45.68,-44.85 -45.15,-44.95 -44.63,-45.01 -44.1,-45.03 -43.57,-44.99 -43.04,-44.89 -42.51,-44.72 -41.99,-44.47 -41.46,-44.15 -40.93,-43.74 -40.4,-43.26 -39.87,-42.72 -39.34,-42.13 -38.82,-41.52 -38.29,-40.92 -37.76,-40.33 -37.23,-39.78 -36.7,-39.29 -36.18,-38.85 -35.65,-38.46 -35.12,-38.1 -34.59,-37.76 -34.06,-37.4 -33.54,-36.99 -33.01,-36.51 -32.48,-35.93 -31.95,-35.24 -31.42,-34.43 -30.89,-33.51 -30.37,-32.48 -29.84,-31.36 -29.31,-30.17 -28.78,-28.93 -28.25,-27.66 -27.73,-26.37 -27.2,-25.07 -26.67,-23.76 -26.14,-22.43 -25.61,-21.08 -25.09,-19.7 -24.56,-18.28 -24.03,-16.83 -23.5,-15.33 -22.97,-13.81 -22.44,-12.29 -21.92,-10.76 -21.39,-9.27 -20.86,-7.83 -20.33,-6.45 -19.8,-5.15 -19.28,-3.94 -18.75,-2.81 -18.22,-1.78 -17.69,-0.84 -17.16,0.02 -16.64,0.79 -16.11,1.49 -15.58,2.12 -15.05,2.67 -14.52,3.17 -14,3.61 -13.47,4 -12.94,4.35 -12.41,4.67 -11.88,4.98 -11.35,5.27 -10.83,5.58 -10.3,5.89 -9.77,6.23 -9.24,6.59 -8.71,6.97 -8.19,7.38 -7.66,7.8 -7.13,8.24 -6.6,8.67 -6.07,9.08 -5.55,9.48 -5.02,9.84 -4.49,10.18 -3.96,10.47 -3.43,10.73 -2.9,10.96 -2.38,11.17 -1.85,11.36 -1.32,11.54 -0.79,11.72 -0.26,11.9 0.26,12.08 0.79,12.26 1.32,12.43 1.85,12.6 2.38,12.76 2.9,12.91 3.43,13.05 3.96,13.16 4.49,13.27 5.02,13.35 5.55,13.43 6.07,13.49 6.6,13.53 7.13,13.57 7.66,13.61 8.19,13.63 8.71,13.66 9.24,13.68 9.77,13.7 10.3,13.72 10.83,13.75 11.35,13.77 11.88,13.79 12.41,13.82 12.94,13.83 13.47,13.84 14,13.84 14.52,13.82 15.05,13.79 15.58,13.74 16.11,13.68 16.64,13.6 17.16,13.52 17.69,13.44 18.22,13.36 18.75,13.29 19.28,13.24 19.8,13.21 20.33,13.21 20.86,13.23 21.39,13.28 21.92,13.34 22.44,13.43 22.97,13.52 23.5,13.61 24.03,13.71 24.56,13.8 25.09,13.87 25.61,13.94 26.14,13.99 26.67,14.02 27.2,14.04 27.73,14.05 28.25,14.04 28.78,14.02 29.31,13.99 29.84,13.95 30.37,13.9 30.89,13.83 31.42,13.77 31.95,13.7 32.48,13.63 33.01,13.57 33.54,13.52 34.06,13.47 34.59,13.44 35.12,13.42 35.65,13.41 36.18,13.41 36.7,13.42 37.23,13.43 37.76,13.43 38.29,13.44 38.82,13.44 39.34,13.45 39.87,13.45 40.4,13.46 40.93,13.48 41.46,13.5 41.99,13.53 42.51,13.57 43.04,13.62 43.57,13.67 44.1,13.73 44.63,13.79 45.15,13.85 45.68,13.9 46.21,13.95 46.74,13.98 47.27,14.01 47.79,14.02 48.32,14.02 48.85,14.01 49.38,13.98 49.91,13.94 50.44,13.9 50.96,13.84 51.49,13.78 52.02,13.71 52.55,13.65 53.08,13.6 53.6,13.56 54.13,13.53 54.66,13.52 55.19,13.53 55.72,13.55 56.24,13.59 56.77,13.65 57.3,13.71 57.83,13.78 58.36,13.84 58.89,13.9 59.41,13.96 59.94,14.01 60.47,14.05 61,14.08 61.53,14.11 62.05,14.13 62.58,14.14 63.11,14.15 63.64,14.16 64.17,14.16 64.69,14.16 65.22,14.16 65.75,14.16 66.28,14.16 66.81,14.17 67.33,14.16 " class="primitive"/>
          </g>
          <g transform="translate(71.52,83.79)" id="img-81268be4-39" stroke-dasharray="none" stroke="#00CD66" class="color_Area_4">
            <path fill="none" d="M-63.92,14.92 L-63.42,14.92 -62.92,14.92 -62.41,14.92 -61.91,14.91 -61.41,14.9 -60.91,14.89 -60.41,14.86 -59.91,14.83 -59.41,14.78 -58.9,14.7 -58.4,14.59 -57.9,14.44 -57.4,14.22 -56.9,13.93 -56.4,13.54 -55.9,13.03 -55.4,12.37 -54.89,11.54 -54.39,10.53 -53.89,9.3 -53.39,7.85 -52.89,6.17 -52.39,4.26 -51.89,2.13 -51.39,-0.2 -50.88,-2.7 -50.38,-5.32 -49.88,-8.02 -49.38,-10.75 -48.88,-13.45 -48.38,-16.08 -47.88,-18.59 -47.37,-20.94 -46.87,-23.09 -46.37,-25.04 -45.87,-26.76 -45.37,-28.26 -44.87,-29.54 -44.37,-30.61 -43.87,-31.5 -43.36,-32.22 -42.86,-32.8 -42.36,-33.25 -41.86,-33.6 -41.36,-33.87 -40.86,-34.06 -40.36,-34.2 -39.85,-34.27 -39.35,-34.3 -38.85,-34.29 -38.35,-34.22 -37.85,-34.11 -37.35,-33.96 -36.85,-33.76 -36.35,-33.52 -35.84,-33.24 -35.34,-32.93 -34.84,-32.61 -34.34,-32.28 -33.84,-31.95 -33.34,-31.65 -32.84,-31.38 -32.33,-31.16 -31.83,-31 -31.33,-30.9 -30.83,-30.86 -30.33,-30.88 -29.83,-30.96 -29.33,-31.07 -28.83,-31.22 -28.32,-31.37 -27.82,-31.52 -27.32,-31.64 -26.82,-31.72 -26.32,-31.74 -25.82,-31.69 -25.32,-31.56 -24.82,-31.35 -24.31,-31.05 -23.81,-30.66 -23.31,-30.17 -22.81,-29.59 -22.31,-28.92 -21.81,-28.16 -21.31,-27.31 -20.8,-26.37 -20.3,-25.35 -19.8,-24.25 -19.3,-23.08 -18.8,-21.84 -18.3,-20.56 -17.8,-19.23 -17.3,-17.88 -16.79,-16.51 -16.29,-15.16 -15.79,-13.83 -15.29,-12.54 -14.79,-11.31 -14.29,-10.14 -13.79,-9.05 -13.28,-8.04 -12.78,-7.12 -12.28,-6.28 -11.78,-5.53 -11.28,-4.86 -10.78,-4.26 -10.28,-3.72 -9.78,-3.23 -9.27,-2.78 -8.77,-2.35 -8.27,-1.93 -7.77,-1.51 -7.27,-1.07 -6.77,-0.62 -6.27,-0.15 -5.77,0.36 -5.26,0.89 -4.76,1.44 -4.26,2.02 -3.76,2.61 -3.26,3.2 -2.76,3.8 -2.26,4.39 -1.75,4.96 -1.25,5.51 -0.75,6.03 -0.25,6.52 0.25,6.98 0.75,7.4 1.25,7.78 1.75,8.13 2.26,8.44 2.76,8.72 3.26,8.97 3.76,9.19 4.26,9.39 4.76,9.57 5.26,9.74 5.77,9.89 6.27,10.03 6.77,10.16 7.27,10.29 7.77,10.42 8.27,10.55 8.77,10.69 9.27,10.83 9.78,10.98 10.28,11.14 10.78,11.3 11.28,11.46 11.78,11.62 12.28,11.78 12.78,11.94 13.28,12.09 13.79,12.24 14.29,12.38 14.79,12.52 15.29,12.65 15.79,12.78 16.29,12.91 16.79,13.03 17.3,13.15 17.8,13.27 18.3,13.39 18.8,13.5 19.3,13.6 19.8,13.69 20.3,13.77 20.8,13.84 21.31,13.9 21.81,13.94 22.31,13.97 22.81,13.98 23.31,13.99 23.81,13.98 24.31,13.96 24.82,13.94 25.32,13.91 25.82,13.88 26.32,13.84 26.82,13.81 27.32,13.77 27.82,13.74 28.32,13.72 28.83,13.7 29.33,13.68 29.83,13.68 30.33,13.68 30.83,13.68 31.33,13.69 31.83,13.71 32.33,13.73 32.84,13.75 33.34,13.77 33.84,13.78 34.34,13.8 34.84,13.82 35.34,13.84 35.84,13.85 36.35,13.88 36.85,13.91 37.35,13.94 37.85,13.99 38.35,14.04 38.85,14.09 39.35,14.15 39.85,14.22 40.36,14.29 40.86,14.36 41.36,14.42 41.86,14.48 42.36,14.53 42.86,14.58 43.36,14.61 43.87,14.63 44.37,14.64 44.87,14.64 45.37,14.63 45.87,14.61 46.37,14.58 46.87,14.56 47.37,14.53 47.88,14.5 48.38,14.47 48.88,14.45 49.38,14.44 49.88,14.44 50.38,14.45 50.88,14.46 51.39,14.49 51.89,14.52 52.39,14.55 52.89,14.59 53.39,14.63 53.89,14.68 54.39,14.72 54.89,14.75 55.4,14.79 55.9,14.81 56.4,14.84 56.9,14.86 57.4,14.88 57.9,14.89 58.4,14.9 58.9,14.91 59.41,14.91 59.91,14.92 60.41,14.92 60.91,14.92 61.41,14.92 61.91,14.92 62.41,14.92 62.92,14.92 63.42,14.92 63.92,14.92 " class="primitive"/>
          </g>
          <g transform="translate(50.51,73.51)" id="img-81268be4-40" stroke-dasharray="none" stroke="#404040" class="color_Area_2:_4x4">
            <path fill="none" d="M-37.84,25.2 L-37.55,25.2 -37.25,25.2 -36.95,25.2 -36.65,25.19 -36.36,25.18 -36.06,25.16 -35.76,25.13 -35.47,25.09 -35.17,25.03 -34.87,24.94 -34.58,24.82 -34.28,24.64 -33.98,24.4 -33.69,24.07 -33.39,23.64 -33.09,23.06 -32.8,22.33 -32.5,21.39 -32.2,20.24 -31.91,18.82 -31.61,17.12 -31.31,15.11 -31.02,12.77 -30.72,10.11 -30.42,7.13 -30.13,3.83 -29.83,0.26 -29.53,-3.55 -29.23,-7.55 -28.94,-11.67 -28.64,-15.85 -28.34,-20.02 -28.05,-24.11 -27.75,-28.07 -27.45,-31.83 -27.16,-35.35 -26.86,-38.59 -26.56,-41.54 -26.27,-44.18 -25.97,-46.51 -25.67,-48.54 -25.38,-50.3 -25.08,-51.79 -24.78,-53.05 -24.49,-54.11 -24.19,-54.99 -23.89,-55.71 -23.6,-56.31 -23.3,-56.79 -23,-57.18 -22.71,-57.49 -22.41,-57.74 -22.11,-57.93 -21.81,-58.07 -21.52,-58.18 -21.22,-58.26 -20.92,-58.32 -20.63,-58.36 -20.33,-58.4 -20.03,-58.44 -19.74,-58.48 -19.44,-58.52 -19.14,-58.57 -18.85,-58.63 -18.55,-58.68 -18.25,-58.72 -17.96,-58.75 -17.66,-58.75 -17.36,-58.71 -17.07,-58.62 -16.77,-58.47 -16.47,-58.24 -16.18,-57.94 -15.88,-57.53 -15.58,-57.03 -15.29,-56.43 -14.99,-55.73 -14.69,-54.92 -14.39,-54.01 -14.1,-53.01 -13.8,-51.92 -13.5,-50.75 -13.21,-49.52 -12.91,-48.22 -12.61,-46.88 -12.32,-45.5 -12.02,-44.08 -11.72,-42.64 -11.43,-41.18 -11.13,-39.71 -10.83,-38.22 -10.54,-36.73 -10.24,-35.23 -9.94,-33.72 -9.65,-32.21 -9.35,-30.69 -9.05,-29.16 -8.76,-27.61 -8.46,-26.05 -8.16,-24.47 -7.87,-22.87 -7.57,-21.25 -7.27,-19.6 -6.97,-17.94 -6.68,-16.26 -6.38,-14.57 -6.08,-12.89 -5.79,-11.21 -5.49,-9.56 -5.19,-7.94 -4.9,-6.36 -4.6,-4.85 -4.3,-3.4 -4.01,-2.02 -3.71,-0.71 -3.41,0.52 -3.12,1.68 -2.82,2.78 -2.52,3.82 -2.23,4.82 -1.93,5.79 -1.63,6.72 -1.34,7.65 -1.04,8.57 -0.74,9.48 -0.45,10.39 -0.15,11.3 0.15,12.21 0.45,13.11 0.74,13.99 1.04,14.84 1.34,15.67 1.63,16.45 1.93,17.18 2.23,17.85 2.52,18.45 2.82,18.99 3.12,19.45 3.41,19.84 3.71,20.16 4.01,20.4 4.3,20.59 4.6,20.71 4.9,20.77 5.19,20.79 5.49,20.76 5.79,20.7 6.08,20.61 6.38,20.5 6.68,20.38 6.97,20.25 7.27,20.13 7.57,20.02 7.87,19.93 8.16,19.85 8.46,19.81 8.76,19.8 9.05,19.81 9.35,19.87 9.65,19.95 9.94,20.07 10.24,20.21 10.54,20.38 10.83,20.58 11.13,20.81 11.43,21.05 11.72,21.3 12.02,21.57 12.32,21.85 12.61,22.13 12.91,22.41 13.21,22.69 13.5,22.97 13.8,23.23 14.1,23.48 14.39,23.72 14.69,23.94 14.99,24.13 15.29,24.31 15.58,24.47 15.88,24.61 16.18,24.73 16.47,24.83 16.77,24.91 17.07,24.97 17.36,25.03 17.66,25.07 17.96,25.09 18.25,25.11 18.55,25.12 18.85,25.12 19.14,25.12 19.44,25.1 19.74,25.08 20.03,25.05 20.33,25.02 20.63,24.97 20.92,24.92 21.22,24.87 21.52,24.8 21.81,24.73 22.11,24.66 22.41,24.58 22.71,24.5 23,24.42 23.3,24.34 23.6,24.26 23.89,24.19 24.19,24.12 24.49,24.06 24.78,24.01 25.08,23.97 25.38,23.93 25.67,23.9 25.97,23.88 26.27,23.87 26.56,23.86 26.86,23.87 27.16,23.88 27.45,23.91 27.75,23.94 28.05,23.98 28.34,24.03 28.64,24.09 28.94,24.16 29.23,24.23 29.53,24.31 29.83,24.39 30.13,24.47 30.42,24.55 30.72,24.63 31.02,24.71 31.31,24.78 31.61,24.85 31.91,24.91 32.2,24.97 32.5,25.01 32.8,25.05 33.09,25.09 33.39,25.12 33.69,25.14 33.98,25.16 34.28,25.17 34.58,25.18 34.87,25.19 35.17,25.19 35.47,25.2 35.76,25.2 36.06,25.2 36.36,25.2 36.65,25.2 36.95,25.2 37.25,25.21 37.55,25.21 37.84,25.2 " class="primitive"/>
          </g>
        </g>
      </g>
    </g>
  </g>
  <g class="guide ylabels" font-size="2.82" font-family="'PT Sans Caption','Helvetica Neue','Helvetica',sans-serif" fill="#6C606B" id="img-81268be4-41">
    <g transform="translate(18.63,98.71)" id="img-81268be4-42">
      <g class="primitive">
        <text text-anchor="end" dy="0.35em">0</text>
      </g>
    </g>
    <g transform="translate(18.63,75.79)" id="img-81268be4-43">
      <g class="primitive">
        <text text-anchor="end" dy="0.35em">50</text>
      </g>
    </g>
    <g transform="translate(18.63,52.86)" id="img-81268be4-44">
      <g class="primitive">
        <text text-anchor="end" dy="0.35em">100</text>
      </g>
    </g>
    <g transform="translate(18.63,29.93)" id="img-81268be4-45">
      <g class="primitive">
        <text text-anchor="end" dy="0.35em">150</text>
      </g>
    </g>
    <g transform="translate(18.63,7)" id="img-81268be4-46">
      <g class="primitive">
        <text text-anchor="end" dy="0.35em">200</text>
      </g>
    </g>
  </g>
  <g font-size="3.88" font-family="'PT Sans','Helvetica Neue','Helvetica',sans-serif" fill="#564A55" stroke="#000000" stroke-opacity="0.000" id="img-81268be4-47">
    <g transform="translate(8.81,50.86)" id="img-81268be4-48">
      <g class="primitive">
        <text text-anchor="middle" dy="0.35em" transform="rotate(-90,0, 2)">Density</text>
      </g>
    </g>
  </g>
</g>
<defs>
  <clipPath id="img-81268be4-19">
    <path d="M19.63,5 L277.54,5 277.54,100.72 19.63,100.72 " />
  </clipPath>
</defs>
</svg>
