<?xml version="1.0" encoding="UTF-8"?>
<svg xmlns="http://www.w3.org/2000/svg"
     xmlns:xlink="http://www.w3.org/1999/xlink"
     xmlns:gadfly="http://www.gadflyjl.org/ns"
     version="1.2"
     width="200mm" height="120mm" viewBox="0 0 200 120"
     stroke="none"
     fill="#000000"
     stroke-width="0.3"
     font-size="3.88"
>
<defs>
  <marker id="arrow" markerWidth="15" markerHeight="7" refX="5" refY="3.5" orient="auto" markerUnits="strokeWidth">
    <path d="M0,0 L15,3.5 L0,7 z" stroke="context-stroke" fill="context-stroke"/>
  </marker>
</defs>
<g class="plotroot xscalable yscalable" id="img-8397a389-1">
  <g font-size="3.88" font-family="'PT Sans','Helvetica Neue','Helvetica',sans-serif" fill="#564A55" stroke="#000000" stroke-opacity="0.000" id="img-8397a389-2">
    <g transform="translate(98.59,108.39)">
      <g class="primitive">
        <text text-anchor="middle" dy="0.6em">Pheromone Value</text>
      </g>
    </g>
  </g>
  <g class="guide xlabels" font-size="2.82" font-family="'PT Sans Caption','Helvetica Neue','Helvetica',sans-serif" fill="#6C606B" id="img-8397a389-3">
    <g transform="translate(21.63,101.72)">
      <g class="primitive">
        <text text-anchor="middle" dy="0.6em">0.00</text>
      </g>
    </g>
    <g transform="translate(72.26,101.72)">
      <g class="primitive">
        <text text-anchor="middle" dy="0.6em">0.02</text>
      </g>
    </g>
    <g transform="translate(122.89,101.72)">
      <g class="primitive">
        <text text-anchor="middle" dy="0.6em">0.04</text>
      </g>
    </g>
    <g transform="translate(173.52,101.72)">
      <g class="primitive">
        <text text-anchor="middle" dy="0.6em">0.06</text>
      </g>
    </g>
  </g>
  <g class="guide colorkey" id="img-8397a389-4">
    <g fill="#4C404B" font-size="2.82" font-family="'PT Sans','Helvetica Neue','Helvetica',sans-serif" id="img-8397a389-5">
      <g transform="translate(181.35,47.42)" id="img-8397a389-6" class="color_Area_1">
        <g class="primitive">
          <text dy="0.35em">Area 1</text>
        </g>
      </g>
      <g transform="translate(181.35,51.04)" id="img-8397a389-7" class="color_Area_2:_2x2">
        <g class="primitive">
          <text dy="0.35em">Area 2: 2x2</text>
        </g>
      </g>
      <g transform="translate(181.35,54.67)" id="img-8397a389-8" class="color_Area_2:_4x4">
        <g class="primitive">
          <text dy="0.35em">Area 2: 4x4</text>
        </g>
      </g>
      <g transform="translate(181.35,58.3)" id="img-8397a389-9" class="color_Area_3">
        <g class="primitive">
          <text dy="0.35em">Area 3</text>
        </g>
      </g>
      <g transform="translate(181.35,61.92)" id="img-8397a389-10" class="color_Area_4">
        <g class="primitive">
          <text dy="0.35em">Area 4</text>
        </g>
      </g>
    </g>
    <g fill-opacity="1" id="img-8397a389-11">
      <g transform="translate(179.45,47.42)" id="img-8397a389-12" stroke="#FFFFFF" class="color_Area_1" fill="#FF6347">
        <path d="M-0.91,-0.91 L0.91,-0.91 0.91,0.91 -0.91,0.91  z" class="primitive"/>
      </g>
      <g transform="translate(179.45,51.04)" id="img-8397a389-13" stroke="#FFFFFF" class="color_Area_2:_2x2" fill="#4169E1">
        <path d="M-0.91,-0.91 L0.91,-0.91 0.91,0.91 -0.91,0.91  z" class="primitive"/>
      </g>
      <g transform="translate(179.45,54.67)" id="img-8397a389-14" stroke="#FFFFFF" class="color_Area_2:_4x4" fill="#404040">
        <path d="M-0.91,-0.91 L0.91,-0.91 0.91,0.91 -0.91,0.91  z" class="primitive"/>
      </g>
      <g transform="translate(179.45,58.3)" id="img-8397a389-15" stroke="#FFFFFF" class="color_Area_3" fill="#B23AEE">
        <path d="M-0.91,-0.91 L0.91,-0.91 0.91,0.91 -0.91,0.91  z" class="primitive"/>
      </g>
      <g transform="translate(179.45,61.92)" id="img-8397a389-16" stroke="#FFFFFF" class="color_Area_4" fill="#00CD66">
        <path d="M-0.91,-0.91 L0.91,-0.91 0.91,0.91 -0.91,0.91  z" class="primitive"/>
      </g>
    </g>
    <g fill="#362A35" font-size="3.88" font-family="'PT Sans','Helvetica Neue','Helvetica',sans-serif" stroke="#000000" stroke-opacity="0.000" id="img-8397a389-17">
      <g transform="translate(178.54,43.6)" id="img-8397a389-18">
        <g class="primitive">
          <text dy="-0em">Area</text>
        </g>
      </g>
    </g>
  </g>
  <g clip-path="url(#img-8397a389-19)">
    <g id="img-8397a389-20">
      <g pointer-events="visible" stroke-width="0.3" fill="#000000" fill-opacity="0.000" stroke="#000000" stroke-opacity="0.000" class="guide background" id="img-8397a389-21">
        <g transform="translate(98.59,52.86)" id="img-8397a389-22">
          <path d="M-78.95,-47.86 L78.95,-47.86 78.95,47.86 -78.95,47.86  z" class="primitive"/>
        </g>
      </g>
      <g class="guide ygridlines xfixed" stroke-dasharray="0.5,0.5" stroke-width="0.2" stroke="#D0D0E0" id="img-8397a389-23">
        <g transform="translate(98.59,98.71)" id="img-8397a389-24">
          <path fill="none" d="M-78.95,0 L78.95,0 " class="primitive"/>
        </g>
        <g transform="translate(98.59,75.79)" id="img-8397a389-25">
          <path fill="none" d="M-78.95,0 L78.95,0 " class="primitive"/>
        </g>
        <g transform="translate(98.59,52.86)" id="img-8397a389-26">
          <path fill="none" d="M-78.95,0 L78.95,0 " class="primitive"/>
        </g>
        <g transform="translate(98.59,29.93)" id="img-8397a389-27">
          <path fill="none" d="M-78.95,0 L78.95,0 " class="primitive"/>
        </g>
        <g transform="translate(98.59,7)" id="img-8397a389-28">
          <path fill="none" d="M-78.95,0 L78.95,0 " class="primitive"/>
        </g>
      </g>
      <g class="guide xgridlines yfixed" stroke-dasharray="0.5,0.5" stroke-width="0.2" stroke="#D0D0E0" id="img-8397a389-29">
        <g transform="translate(21.63,52.86)" id="img-8397a389-30">
          <path fill="none" d="M0,-47.86 L0,47.86 " class="primitive"/>
        </g>
        <g transform="translate(72.26,52.86)" id="img-8397a389-31">
          <path fill="none" d="M0,-47.86 L0,47.86 " class="primitive"/>
        </g>
        <g transform="translate(122.89,52.86)" id="img-8397a389-32">
          <path fill="none" d="M0,-47.86 L0,47.86 " class="primitive"/>
        </g>
        <g transform="translate(173.52,52.86)" id="img-8397a389-33">
          <path fill="none" d="M0,-47.86 L0,47.86 " class="primitive"/>
        </g>
      </g>
      <g class="plotpanel" id="img-8397a389-34">
        <metadata>
          <boundingbox value="19.63166666666669mm 5.0mm 157.90833333333333mm 95.715mm"/>
          <unitbox value="-0.000790030961700236 204.3613367497138 0.062376236221907376 -208.7226734994276"/>
        </metadata>
        <g stroke-width="0.3" fill="#000000" fill-opacity="0.000" class="geometry" id="img-8397a389-35">
          <g transform="translate(65.71,88.5)" id="img-8397a389-36" stroke-dasharray="none" stroke="#FF6347" class="color_Area_1">
            <path fill="none" d="M-56.58,10.22 L-56.14,10.22 -55.7,10.22 -55.25,10.21 -54.81,10.21 -54.36,10.2 -53.92,10.19 -53.48,10.18 -53.03,10.16 -52.59,10.12 -52.15,10.08 -51.7,10.01 -51.26,9.91 -50.81,9.77 -50.37,9.58 -49.93,9.32 -49.48,8.99 -49.04,8.57 -48.6,8.04 -48.15,7.38 -47.71,6.59 -47.26,5.65 -46.82,4.56 -46.38,3.32 -45.93,1.94 -45.49,0.42 -45.04,-1.21 -44.6,-2.92 -44.16,-4.69 -43.71,-6.48 -43.27,-8.26 -42.83,-9.99 -42.38,-11.64 -41.94,-13.18 -41.49,-14.6 -41.05,-15.87 -40.61,-16.99 -40.16,-17.95 -39.72,-18.76 -39.28,-19.42 -38.83,-19.94 -38.39,-20.34 -37.94,-20.62 -37.5,-20.81 -37.06,-20.92 -36.61,-20.96 -36.17,-20.95 -35.73,-20.9 -35.28,-20.82 -34.84,-20.74 -34.39,-20.66 -33.95,-20.59 -33.51,-20.54 -33.06,-20.52 -32.62,-20.52 -32.17,-20.56 -31.73,-20.62 -31.29,-20.71 -30.84,-20.82 -30.4,-20.93 -29.96,-21.04 -29.51,-21.14 -29.07,-21.22 -28.62,-21.27 -28.18,-21.28 -27.74,-21.24 -27.29,-21.14 -26.85,-21 -26.41,-20.8 -25.96,-20.55 -25.52,-20.26 -25.07,-19.92 -24.63,-19.56 -24.19,-19.16 -23.74,-18.76 -23.3,-18.35 -22.86,-17.93 -22.41,-17.53 -21.97,-17.15 -21.52,-16.78 -21.08,-16.43 -20.64,-16.1 -20.19,-15.8 -19.75,-15.5 -19.3,-15.22 -18.86,-14.95 -18.42,-14.67 -17.97,-14.39 -17.53,-14.1 -17.09,-13.8 -16.64,-13.48 -16.2,-13.13 -15.75,-12.76 -15.31,-12.36 -14.87,-11.93 -14.42,-11.47 -13.98,-10.97 -13.54,-10.45 -13.09,-9.89 -12.65,-9.29 -12.2,-8.68 -11.76,-8.04 -11.32,-7.38 -10.87,-6.71 -10.43,-6.04 -9.99,-5.37 -9.54,-4.72 -9.1,-4.1 -8.65,-3.51 -8.21,-2.95 -7.77,-2.45 -7.32,-1.98 -6.88,-1.57 -6.43,-1.2 -5.99,-0.88 -5.55,-0.61 -5.1,-0.37 -4.66,-0.16 -4.22,0.02 -3.77,0.19 -3.33,0.34 -2.88,0.48 -2.44,0.61 -2,0.74 -1.55,0.87 -1.11,1 -0.67,1.13 -0.22,1.27 0.22,1.41 0.67,1.55 1.11,1.71 1.55,1.88 2,2.06 2.44,2.27 2.88,2.49 3.33,2.73 3.77,3 4.22,3.28 4.66,3.59 5.1,3.9 5.55,4.23 5.99,4.56 6.43,4.89 6.88,5.2 7.32,5.5 7.77,5.78 8.21,6.04 8.65,6.26 9.1,6.46 9.54,6.62 9.99,6.76 10.43,6.87 10.87,6.96 11.32,7.03 11.76,7.09 12.2,7.14 12.65,7.18 13.09,7.22 13.54,7.26 13.98,7.31 14.42,7.37 14.87,7.44 15.31,7.51 15.75,7.6 16.2,7.7 16.64,7.81 17.09,7.93 17.53,8.06 17.97,8.18 18.42,8.31 18.86,8.44 19.3,8.56 19.75,8.68 20.19,8.78 20.64,8.88 21.08,8.96 21.52,9.02 21.97,9.08 22.41,9.12 22.86,9.15 23.3,9.18 23.74,9.2 24.19,9.22 24.63,9.24 25.07,9.26 25.52,9.28 25.96,9.31 26.41,9.34 26.85,9.38 27.29,9.43 27.74,9.48 28.18,9.53 28.62,9.59 29.07,9.64 29.51,9.7 29.96,9.76 30.4,9.81 30.84,9.86 31.29,9.91 31.73,9.96 32.17,10 32.62,10.03 33.06,10.07 33.51,10.09 33.95,10.12 34.39,10.14 34.84,10.15 35.28,10.17 35.73,10.18 36.17,10.19 36.61,10.19 37.06,10.2 37.5,10.2 37.94,10.2 38.39,10.19 38.83,10.19 39.28,10.18 39.72,10.18 40.16,10.17 40.61,10.16 41.05,10.15 41.49,10.14 41.94,10.13 42.38,10.13 42.83,10.12 43.27,10.12 43.71,10.11 44.16,10.11 44.6,10.11 45.04,10.12 45.49,10.12 45.93,10.13 46.38,10.14 46.82,10.15 47.26,10.15 47.71,10.16 48.15,10.17 48.6,10.18 49.04,10.19 49.48,10.19 49.93,10.2 50.37,10.2 50.81,10.21 51.26,10.21 51.7,10.21 52.15,10.21 52.59,10.22 53.03,10.22 53.48,10.22 53.92,10.22 54.36,10.22 54.81,10.22 55.25,10.22 55.7,10.22 56.14,10.22 56.58,10.22 " class="primitive"/>
          </g>
          <g transform="translate(91.95,91.8)" id="img-8397a389-37" stroke-dasharray="none" stroke="#B23AEE" class="color_Area_3">
            <path fill="none" d="M-83.59,6.92 L-82.94,6.91 -82.28,6.91 -81.63,6.91 -80.97,6.9 -80.32,6.88 -79.66,6.85 -79.01,6.8 -78.35,6.71 -77.69,6.56 -77.04,6.34 -76.38,6.01 -75.73,5.53 -75.07,4.86 -74.42,3.98 -73.76,2.84 -73.1,1.44 -72.45,-0.22 -71.79,-2.13 -71.14,-4.22 -70.48,-6.45 -69.83,-8.72 -69.17,-10.95 -68.51,-13.06 -67.86,-14.98 -67.2,-16.65 -66.55,-18.06 -65.89,-19.19 -65.24,-20.05 -64.58,-20.66 -63.93,-21.06 -63.27,-21.29 -62.61,-21.39 -61.96,-21.39 -61.3,-21.34 -60.65,-21.28 -59.99,-21.22 -59.34,-21.19 -58.68,-21.21 -58.02,-21.27 -57.37,-21.37 -56.71,-21.49 -56.06,-21.61 -55.4,-21.71 -54.75,-21.77 -54.09,-21.76 -53.44,-21.69 -52.78,-21.53 -52.12,-21.32 -51.47,-21.05 -50.81,-20.74 -50.16,-20.43 -49.5,-20.13 -48.85,-19.86 -48.19,-19.64 -47.53,-19.48 -46.88,-19.38 -46.22,-19.32 -45.57,-19.3 -44.91,-19.29 -44.26,-19.27 -43.6,-19.22 -42.94,-19.11 -42.29,-18.92 -41.63,-18.65 -40.98,-18.29 -40.32,-17.84 -39.67,-17.3 -39.01,-16.68 -38.36,-15.98 -37.7,-15.22 -37.04,-14.39 -36.39,-13.51 -35.73,-12.59 -35.08,-11.64 -34.42,-10.68 -33.77,-9.71 -33.11,-8.75 -32.45,-7.83 -31.8,-6.95 -31.14,-6.13 -30.49,-5.38 -29.83,-4.7 -29.18,-4.09 -28.52,-3.55 -27.86,-3.06 -27.21,-2.62 -26.55,-2.2 -25.9,-1.79 -25.24,-1.37 -24.59,-0.93 -23.93,-0.48 -23.28,0.01 -22.62,0.51 -21.96,1.02 -21.31,1.52 -20.65,2 -20,2.46 -19.34,2.87 -18.69,3.23 -18.03,3.54 -17.37,3.8 -16.72,4.02 -16.06,4.19 -15.41,4.34 -14.75,4.45 -14.1,4.55 -13.44,4.63 -12.79,4.7 -12.13,4.76 -11.47,4.81 -10.82,4.85 -10.16,4.89 -9.51,4.92 -8.85,4.95 -8.2,4.98 -7.54,5.01 -6.88,5.05 -6.23,5.1 -5.57,5.16 -4.92,5.23 -4.26,5.31 -3.61,5.4 -2.95,5.49 -2.29,5.58 -1.64,5.67 -0.98,5.75 -0.33,5.83 0.33,5.91 0.98,5.97 1.64,6.03 2.29,6.08 2.95,6.12 3.61,6.14 4.26,6.15 4.92,6.16 5.57,6.15 6.23,6.13 6.88,6.11 7.54,6.09 8.2,6.08 8.85,6.07 9.51,6.08 10.16,6.1 10.82,6.13 11.47,6.18 12.13,6.23 12.79,6.29 13.44,6.36 14.1,6.42 14.75,6.48 15.41,6.54 16.06,6.6 16.72,6.65 17.37,6.69 18.03,6.73 18.69,6.76 19.34,6.79 20,6.81 20.65,6.83 21.31,6.85 21.96,6.87 22.62,6.88 23.28,6.89 23.93,6.9 24.59,6.9 25.24,6.91 25.9,6.91 26.55,6.91 27.21,6.91 27.86,6.92 28.52,6.92 29.18,6.91 29.83,6.91 30.49,6.91 31.14,6.91 31.8,6.9 32.45,6.9 33.11,6.89 33.77,6.87 34.42,6.86 35.08,6.84 35.73,6.82 36.39,6.8 37.04,6.77 37.7,6.75 38.36,6.73 39.01,6.72 39.67,6.71 40.32,6.7 40.98,6.7 41.63,6.7 42.29,6.71 42.94,6.71 43.6,6.72 44.26,6.72 44.91,6.72 45.57,6.73 46.22,6.73 46.88,6.74 47.53,6.75 48.19,6.76 48.85,6.77 49.5,6.79 50.16,6.81 50.81,6.82 51.47,6.84 52.12,6.86 52.78,6.87 53.44,6.88 54.09,6.89 54.75,6.9 55.4,6.91 56.06,6.91 56.71,6.91 57.37,6.91 58.02,6.91 58.68,6.92 59.34,6.92 59.99,6.92 60.65,6.92 61.3,6.91 61.96,6.91 62.61,6.91 63.27,6.91 63.93,6.9 64.58,6.9 65.24,6.89 65.89,6.88 66.55,6.87 67.2,6.86 67.86,6.85 68.51,6.84 69.17,6.83 69.83,6.83 70.48,6.83 71.14,6.83 71.79,6.83 72.45,6.84 73.1,6.85 73.76,6.86 74.42,6.87 75.07,6.88 75.73,6.89 76.38,6.9 77.04,6.9 77.69,6.91 78.35,6.91 79.01,6.91 79.66,6.91 80.32,6.92 80.97,6.92 81.63,6.92 82.28,6.92 82.94,6.92 83.59,6.92 " class="primitive"/>
          </g>
          <g transform="translate(54.91,84.55)" id="img-8397a389-38" stroke-dasharray="none" stroke="#4169E1" class="color_Area_2:_2x2">
            <path fill="none" d="M-40.82,14.16 L-40.5,14.16 -40.18,14.16 -39.86,14.15 -39.54,14.14 -39.21,14.12 -38.89,14.09 -38.57,14.04 -38.25,13.95 -37.93,13.82 -37.61,13.61 -37.29,13.31 -36.97,12.87 -36.65,12.26 -36.33,11.43 -36.01,10.33 -35.69,8.92 -35.37,7.15 -35.05,5.01 -34.73,2.47 -34.41,-0.44 -34.09,-3.69 -33.77,-7.22 -33.45,-10.96 -33.13,-14.8 -32.81,-18.64 -32.49,-22.38 -32.17,-25.94 -31.85,-29.22 -31.53,-32.17 -31.21,-34.76 -30.89,-36.98 -30.57,-38.83 -30.25,-40.35 -29.93,-41.55 -29.61,-42.5 -29.29,-43.22 -28.97,-43.77 -28.65,-44.17 -28.33,-44.47 -28.01,-44.69 -27.69,-44.85 -27.37,-44.95 -27.05,-45.01 -26.73,-45.03 -26.41,-44.99 -26.09,-44.89 -25.77,-44.72 -25.45,-44.47 -25.13,-44.15 -24.81,-43.74 -24.49,-43.26 -24.17,-42.72 -23.85,-42.13 -23.53,-41.52 -23.21,-40.92 -22.89,-40.33 -22.57,-39.78 -22.25,-39.29 -21.93,-38.85 -21.61,-38.46 -21.29,-38.1 -20.97,-37.76 -20.65,-37.4 -20.33,-36.99 -20.01,-36.51 -19.69,-35.93 -19.37,-35.24 -19.05,-34.43 -18.73,-33.51 -18.41,-32.48 -18.09,-31.36 -17.77,-30.17 -17.45,-28.93 -17.13,-27.66 -16.81,-26.37 -16.49,-25.07 -16.17,-23.76 -15.85,-22.43 -15.53,-21.08 -15.21,-19.7 -14.89,-18.28 -14.57,-16.83 -14.25,-15.33 -13.93,-13.81 -13.61,-12.29 -13.29,-10.76 -12.96,-9.27 -12.64,-7.83 -12.32,-6.45 -12,-5.15 -11.68,-3.94 -11.36,-2.81 -11.04,-1.78 -10.72,-0.84 -10.4,0.02 -10.08,0.79 -9.76,1.49 -9.44,2.12 -9.12,2.67 -8.8,3.17 -8.48,3.61 -8.16,4 -7.84,4.35 -7.52,4.67 -7.2,4.98 -6.88,5.27 -6.56,5.58 -6.24,5.89 -5.92,6.23 -5.6,6.59 -5.28,6.97 -4.96,7.38 -4.64,7.8 -4.32,8.24 -4,8.67 -3.68,9.08 -3.36,9.48 -3.04,9.84 -2.72,10.18 -2.4,10.47 -2.08,10.73 -1.76,10.96 -1.44,11.17 -1.12,11.36 -0.8,11.54 -0.48,11.72 -0.16,11.9 0.16,12.08 0.48,12.26 0.8,12.43 1.12,12.6 1.44,12.76 1.76,12.91 2.08,13.05 2.4,13.16 2.72,13.27 3.04,13.35 3.36,13.43 3.68,13.49 4,13.53 4.32,13.57 4.64,13.61 4.96,13.63 5.28,13.66 5.6,13.68 5.92,13.7 6.24,13.72 6.56,13.75 6.88,13.77 7.2,13.79 7.52,13.82 7.84,13.83 8.16,13.84 8.48,13.84 8.8,13.82 9.12,13.79 9.44,13.74 9.76,13.68 10.08,13.6 10.4,13.52 10.72,13.44 11.04,13.36 11.36,13.29 11.68,13.24 12,13.21 12.32,13.21 12.64,13.23 12.96,13.28 13.29,13.34 13.61,13.43 13.93,13.52 14.25,13.61 14.57,13.71 14.89,13.8 15.21,13.87 15.53,13.94 15.85,13.99 16.17,14.02 16.49,14.04 16.81,14.05 17.13,14.04 17.45,14.02 17.77,13.99 18.09,13.95 18.41,13.9 18.73,13.83 19.05,13.77 19.37,13.7 19.69,13.63 20.01,13.57 20.33,13.52 20.65,13.47 20.97,13.44 21.29,13.42 21.61,13.41 21.93,13.41 22.25,13.42 22.57,13.43 22.89,13.43 23.21,13.44 23.53,13.44 23.85,13.45 24.17,13.45 24.49,13.46 24.81,13.48 25.13,13.5 25.45,13.53 25.77,13.57 26.09,13.62 26.41,13.67 26.73,13.73 27.05,13.79 27.37,13.85 27.69,13.9 28.01,13.95 28.33,13.98 28.65,14.01 28.97,14.02 29.29,14.02 29.61,14.01 29.93,13.98 30.25,13.94 30.57,13.9 30.89,13.84 31.21,13.78 31.53,13.71 31.85,13.65 32.17,13.6 32.49,13.56 32.81,13.53 33.13,13.52 33.45,13.53 33.77,13.55 34.09,13.59 34.41,13.65 34.73,13.71 35.05,13.78 35.37,13.84 35.69,13.9 36.01,13.96 36.33,14.01 36.65,14.05 36.97,14.08 37.29,14.11 37.61,14.13 37.93,14.14 38.25,14.15 38.57,14.16 38.89,14.16 39.21,14.16 39.54,14.16 39.86,14.16 40.18,14.16 40.5,14.17 40.82,14.16 " class="primitive"/>
          </g>
          <g transform="translate(51.87,83.79)" id="img-8397a389-39" stroke-dasharray="none" stroke="#00CD66" class="color_Area_4">
            <path fill="none" d="M-38.74,14.92 L-38.44,14.92 -38.14,14.92 -37.83,14.92 -37.53,14.91 -37.22,14.9 -36.92,14.89 -36.62,14.86 -36.31,14.83 -36.01,14.78 -35.71,14.7 -35.4,14.59 -35.1,14.44 -34.79,14.22 -34.49,13.93 -34.19,13.54 -33.88,13.03 -33.58,12.37 -33.27,11.54 -32.97,10.53 -32.67,9.3 -32.36,7.85 -32.06,6.17 -31.76,4.26 -31.45,2.13 -31.15,-0.2 -30.84,-2.7 -30.54,-5.32 -30.24,-8.02 -29.93,-10.75 -29.63,-13.45 -29.32,-16.08 -29.02,-18.59 -28.72,-20.94 -28.41,-23.09 -28.11,-25.04 -27.8,-26.76 -27.5,-28.26 -27.2,-29.54 -26.89,-30.61 -26.59,-31.5 -26.29,-32.22 -25.98,-32.8 -25.68,-33.25 -25.37,-33.6 -25.07,-33.87 -24.77,-34.06 -24.46,-34.2 -24.16,-34.27 -23.85,-34.3 -23.55,-34.29 -23.25,-34.22 -22.94,-34.11 -22.64,-33.96 -22.33,-33.76 -22.03,-33.52 -21.73,-33.24 -21.42,-32.93 -21.12,-32.61 -20.82,-32.28 -20.51,-31.95 -20.21,-31.65 -19.9,-31.38 -19.6,-31.16 -19.3,-31 -18.99,-30.9 -18.69,-30.86 -18.38,-30.88 -18.08,-30.96 -17.78,-31.07 -17.47,-31.22 -17.17,-31.37 -16.87,-31.52 -16.56,-31.64 -16.26,-31.72 -15.95,-31.74 -15.65,-31.69 -15.35,-31.56 -15.04,-31.35 -14.74,-31.05 -14.43,-30.66 -14.13,-30.17 -13.83,-29.59 -13.52,-28.92 -13.22,-28.16 -12.91,-27.31 -12.61,-26.37 -12.31,-25.35 -12,-24.25 -11.7,-23.08 -11.4,-21.84 -11.09,-20.56 -10.79,-19.23 -10.48,-17.88 -10.18,-16.51 -9.88,-15.16 -9.57,-13.83 -9.27,-12.54 -8.96,-11.31 -8.66,-10.14 -8.36,-9.05 -8.05,-8.04 -7.75,-7.12 -7.44,-6.28 -7.14,-5.53 -6.84,-4.86 -6.53,-4.26 -6.23,-3.72 -5.93,-3.23 -5.62,-2.78 -5.32,-2.35 -5.01,-1.93 -4.71,-1.51 -4.41,-1.07 -4.1,-0.62 -3.8,-0.15 -3.49,0.36 -3.19,0.89 -2.89,1.44 -2.58,2.02 -2.28,2.61 -1.98,3.2 -1.67,3.8 -1.37,4.39 -1.06,4.96 -0.76,5.51 -0.46,6.03 -0.15,6.52 0.15,6.98 0.46,7.4 0.76,7.78 1.06,8.13 1.37,8.44 1.67,8.72 1.98,8.97 2.28,9.19 2.58,9.39 2.89,9.57 3.19,9.74 3.49,9.89 3.8,10.03 4.1,10.16 4.41,10.29 4.71,10.42 5.01,10.55 5.32,10.69 5.62,10.83 5.93,10.98 6.23,11.14 6.53,11.3 6.84,11.46 7.14,11.62 7.44,11.78 7.75,11.94 8.05,12.09 8.36,12.24 8.66,12.38 8.96,12.52 9.27,12.65 9.57,12.78 9.88,12.91 10.18,13.03 10.48,13.15 10.79,13.27 11.09,13.39 11.4,13.5 11.7,13.6 12,13.69 12.31,13.77 12.61,13.84 12.91,13.9 13.22,13.94 13.52,13.97 13.83,13.98 14.13,13.99 14.43,13.98 14.74,13.96 15.04,13.94 15.35,13.91 15.65,13.88 15.95,13.84 16.26,13.81 16.56,13.77 16.87,13.74 17.17,13.72 17.47,13.7 17.78,13.68 18.08,13.68 18.38,13.68 18.69,13.68 18.99,13.69 19.3,13.71 19.6,13.73 19.9,13.75 20.21,13.77 20.51,13.78 20.82,13.8 21.12,13.82 21.42,13.84 21.73,13.85 22.03,13.88 22.33,13.91 22.64,13.94 22.94,13.99 23.25,14.04 23.55,14.09 23.85,14.15 24.16,14.22 24.46,14.29 24.77,14.36 25.07,14.42 25.37,14.48 25.68,14.53 25.98,14.58 26.29,14.61 26.59,14.63 26.89,14.64 27.2,14.64 27.5,14.63 27.8,14.61 28.11,14.58 28.41,14.56 28.72,14.53 29.02,14.5 29.32,14.47 29.63,14.45 29.93,14.44 30.24,14.44 30.54,14.45 30.84,14.46 31.15,14.49 31.45,14.52 31.76,14.55 32.06,14.59 32.36,14.63 32.67,14.68 32.97,14.72 33.27,14.75 33.58,14.79 33.88,14.81 34.19,14.84 34.49,14.86 34.79,14.88 35.1,14.89 35.4,14.9 35.71,14.91 36.01,14.91 36.31,14.92 36.62,14.92 36.92,14.92 37.22,14.92 37.53,14.92 37.83,14.92 38.14,14.92 38.44,14.92 38.74,14.92 " class="primitive"/>
          </g>
          <g transform="translate(39.14,73.51)" id="img-8397a389-40" stroke-dasharray="none" stroke="#404040" class="color_Area_2:_4x4">
            <path fill="none" d="M-22.94,25.2 L-22.76,25.2 -22.58,25.2 -22.4,25.2 -22.22,25.19 -22.04,25.18 -21.86,25.16 -21.68,25.13 -21.5,25.09 -21.32,25.03 -21.14,24.94 -20.96,24.82 -20.78,24.64 -20.6,24.4 -20.42,24.07 -20.24,23.64 -20.06,23.06 -19.88,22.33 -19.7,21.39 -19.52,20.24 -19.34,18.82 -19.16,17.12 -18.98,15.11 -18.8,12.77 -18.62,10.11 -18.44,7.13 -18.26,3.83 -18.08,0.26 -17.9,-3.55 -17.72,-7.55 -17.54,-11.67 -17.36,-15.85 -17.18,-20.02 -17,-24.11 -16.82,-28.07 -16.64,-31.83 -16.46,-35.35 -16.28,-38.59 -16.1,-41.54 -15.92,-44.18 -15.74,-46.51 -15.56,-48.54 -15.38,-50.3 -15.2,-51.79 -15.02,-53.05 -14.84,-54.11 -14.66,-54.99 -14.48,-55.71 -14.3,-56.31 -14.12,-56.79 -13.94,-57.18 -13.76,-57.49 -13.58,-57.74 -13.4,-57.93 -13.22,-58.07 -13.04,-58.18 -12.86,-58.26 -12.68,-58.32 -12.5,-58.36 -12.32,-58.4 -12.14,-58.44 -11.96,-58.48 -11.78,-58.52 -11.6,-58.57 -11.42,-58.63 -11.24,-58.68 -11.06,-58.72 -10.88,-58.75 -10.7,-58.75 -10.52,-58.71 -10.34,-58.62 -10.16,-58.47 -9.98,-58.24 -9.8,-57.94 -9.63,-57.53 -9.45,-57.03 -9.27,-56.43 -9.09,-55.73 -8.91,-54.92 -8.73,-54.01 -8.55,-53.01 -8.37,-51.92 -8.19,-50.75 -8.01,-49.52 -7.83,-48.22 -7.65,-46.88 -7.47,-45.5 -7.29,-44.08 -7.11,-42.64 -6.93,-41.18 -6.75,-39.71 -6.57,-38.22 -6.39,-36.73 -6.21,-35.23 -6.03,-33.72 -5.85,-32.21 -5.67,-30.69 -5.49,-29.16 -5.31,-27.61 -5.13,-26.05 -4.95,-24.47 -4.77,-22.87 -4.59,-21.25 -4.41,-19.6 -4.23,-17.94 -4.05,-16.26 -3.87,-14.57 -3.69,-12.89 -3.51,-11.21 -3.33,-9.56 -3.15,-7.94 -2.97,-6.36 -2.79,-4.85 -2.61,-3.4 -2.43,-2.02 -2.25,-0.71 -2.07,0.52 -1.89,1.68 -1.71,2.78 -1.53,3.82 -1.35,4.82 -1.17,5.79 -0.99,6.72 -0.81,7.65 -0.63,8.57 -0.45,9.48 -0.27,10.39 -0.09,11.3 0.09,12.21 0.27,13.11 0.45,13.99 0.63,14.84 0.81,15.67 0.99,16.45 1.17,17.18 1.35,17.85 1.53,18.45 1.71,18.99 1.89,19.45 2.07,19.84 2.25,20.16 2.43,20.4 2.61,20.59 2.79,20.71 2.97,20.77 3.15,20.79 3.33,20.76 3.51,20.7 3.69,20.61 3.87,20.5 4.05,20.38 4.23,20.25 4.41,20.13 4.59,20.02 4.77,19.93 4.95,19.85 5.13,19.81 5.31,19.8 5.49,19.81 5.67,19.87 5.85,19.95 6.03,20.07 6.21,20.21 6.39,20.38 6.57,20.58 6.75,20.81 6.93,21.05 7.11,21.3 7.29,21.57 7.47,21.85 7.65,22.13 7.83,22.41 8.01,22.69 8.19,22.97 8.37,23.23 8.55,23.48 8.73,23.72 8.91,23.94 9.09,24.13 9.27,24.31 9.45,24.47 9.63,24.61 9.8,24.73 9.98,24.83 10.16,24.91 10.34,24.97 10.52,25.03 10.7,25.07 10.88,25.09 11.06,25.11 11.24,25.12 11.42,25.12 11.6,25.12 11.78,25.1 11.96,25.08 12.14,25.05 12.32,25.02 12.5,24.97 12.68,24.92 12.86,24.87 13.04,24.8 13.22,24.73 13.4,24.66 13.58,24.58 13.76,24.5 13.94,24.42 14.12,24.34 14.3,24.26 14.48,24.19 14.66,24.12 14.84,24.06 15.02,24.01 15.2,23.97 15.38,23.93 15.56,23.9 15.74,23.88 15.92,23.87 16.1,23.86 16.28,23.87 16.46,23.88 16.64,23.91 16.82,23.94 17,23.98 17.18,24.03 17.36,24.09 17.54,24.16 17.72,24.23 17.9,24.31 18.08,24.39 18.26,24.47 18.44,24.55 18.62,24.63 18.8,24.71 18.98,24.78 19.16,24.85 19.34,24.91 19.52,24.97 19.7,25.01 19.88,25.05 20.06,25.09 20.24,25.12 20.42,25.14 20.6,25.16 20.78,25.17 20.96,25.18 21.14,25.19 21.32,25.19 21.5,25.2 21.68,25.2 21.86,25.2 22.04,25.2 22.22,25.2 22.4,25.2 22.58,25.21 22.76,25.21 22.94,25.2 " class="primitive"/>
          </g>
        </g>
      </g>
    </g>
  </g>
  <g class="guide ylabels" font-size="2.82" font-family="'PT Sans Caption','Helvetica Neue','Helvetica',sans-serif" fill="#6C606B" id="img-8397a389-41">
    <g transform="translate(18.63,98.71)" id="img-8397a389-42">
      <g class="primitive">
        <text text-anchor="end" dy="0.35em">0</text>
      </g>
    </g>
    <g transform="translate(18.63,75.79)" id="img-8397a389-43">
      <g class="primitive">
        <text text-anchor="end" dy="0.35em">50</text>
      </g>
    </g>
    <g transform="translate(18.63,52.86)" id="img-8397a389-44">
      <g class="primitive">
        <text text-anchor="end" dy="0.35em">100</text>
      </g>
    </g>
    <g transform="translate(18.63,29.93)" id="img-8397a389-45">
      <g class="primitive">
        <text text-anchor="end" dy="0.35em">150</text>
      </g>
    </g>
    <g transform="translate(18.63,7)" id="img-8397a389-46">
      <g class="primitive">
        <text text-anchor="end" dy="0.35em">200</text>
      </g>
    </g>
  </g>
  <g font-size="3.88" font-family="'PT Sans','Helvetica Neue','Helvetica',sans-serif" fill="#564A55" stroke="#000000" stroke-opacity="0.000" id="img-8397a389-47">
    <g transform="translate(8.81,50.86)" id="img-8397a389-48">
      <g class="primitive">
        <text text-anchor="middle" dy="0.35em" transform="rotate(-90,0, 2)">Density</text>
      </g>
    </g>
  </g>
</g>
<defs>
  <clipPath id="img-8397a389-19">
    <path d="M19.63,5 L177.54,5 177.54,100.72 19.63,100.72 " />
  </clipPath>
</defs>
</svg>
