<?xml version="1.0" encoding="UTF-8"?>
<svg xmlns="http://www.w3.org/2000/svg"
     xmlns:xlink="http://www.w3.org/1999/xlink"
     xmlns:gadfly="http://www.gadflyjl.org/ns"
     version="1.2"
     width="200mm" height="120mm" viewBox="0 0 200 120"
     stroke="none"
     fill="#000000"
     stroke-width="0.3"
     font-size="3.88"
>
<defs>
  <marker id="arrow" markerWidth="15" markerHeight="7" refX="5" refY="3.5" orient="auto" markerUnits="strokeWidth">
    <path d="M0,0 L15,3.5 L0,7 z" stroke="context-stroke" fill="context-stroke"/>
  </marker>
</defs>
<g class="plotroot xscalable yscalable" id="img-7217c01e-1">
  <g font-size="3.53" font-family="CMU Serif" fill="#564A55" stroke="#000000" stroke-opacity="0.000" id="img-7217c01e-2">
    <g transform="translate(101.79,108.71)">
      <g class="primitive">
        <text text-anchor="middle" dy="0.6em">Proper Motion Declination (mas/yr)</text>
      </g>
    </g>
  </g>
  <g class="guide xlabels" font-size="3.53" font-family="CMU Serif" fill="#6C606B" id="img-7217c01e-3">
    <g transform="translate(25.11,101.42)">
      <g class="primitive">
        <text text-anchor="middle" dy="0.6em">-500</text>
      </g>
    </g>
    <g transform="translate(63.45,101.42)">
      <g class="primitive">
        <text text-anchor="middle" dy="0.6em">0</text>
      </g>
    </g>
    <g transform="translate(101.79,101.42)">
      <g class="primitive">
        <text text-anchor="middle" dy="0.6em">500</text>
      </g>
    </g>
    <g transform="translate(140.14,101.42)">
      <g class="primitive">
        <text text-anchor="middle" dy="0.6em">1000</text>
      </g>
    </g>
    <g transform="translate(178.48,101.42)">
      <g class="primitive">
        <text text-anchor="middle" dy="0.6em">1500</text>
      </g>
    </g>
  </g>
  <g class="guide colorkey" id="img-7217c01e-4">
    <g fill="#4C404B" font-size="3.53" font-family="CMU Serif" id="img-7217c01e-5">
      <g transform="translate(184.62,48.42)" id="img-7217c01e-6" class="color_Area_1">
        <g class="primitive">
          <text dy="0.35em">Area 1</text>
        </g>
      </g>
      <g transform="translate(184.62,52.71)" id="img-7217c01e-7" class="color_Area_2">
        <g class="primitive">
          <text dy="0.35em">Area 2</text>
        </g>
      </g>
      <g transform="translate(184.62,57)" id="img-7217c01e-8" class="color_Area_3">
        <g class="primitive">
          <text dy="0.35em">Area 3</text>
        </g>
      </g>
      <g transform="translate(184.62,61.29)" id="img-7217c01e-9" class="color_Area_4">
        <g class="primitive">
          <text dy="0.35em">Area 4</text>
        </g>
      </g>
    </g>
    <g fill-opacity="1" id="img-7217c01e-10">
      <g transform="translate(182.55,48.42)" id="img-7217c01e-11" stroke="#FFFFFF" class="color_Area_1" fill="#FF6347">
        <path d="M-1.07,-1.07 L1.07,-1.07 1.07,1.07 -1.07,1.07  z" class="primitive"/>
      </g>
      <g transform="translate(182.55,52.71)" id="img-7217c01e-12" stroke="#FFFFFF" class="color_Area_2" fill="#4169E1">
        <path d="M-1.07,-1.07 L1.07,-1.07 1.07,1.07 -1.07,1.07  z" class="primitive"/>
      </g>
      <g transform="translate(182.55,57)" id="img-7217c01e-13" stroke="#FFFFFF" class="color_Area_3" fill="#B23AEE">
        <path d="M-1.07,-1.07 L1.07,-1.07 1.07,1.07 -1.07,1.07  z" class="primitive"/>
      </g>
      <g transform="translate(182.55,61.29)" id="img-7217c01e-14" stroke="#FFFFFF" class="color_Area_4" fill="#00CD66">
        <path d="M-1.07,-1.07 L1.07,-1.07 1.07,1.07 -1.07,1.07  z" class="primitive"/>
      </g>
    </g>
    <g fill="#362A35" font-size="4.23" font-family="CMU Serif" stroke="#000000" stroke-opacity="0.000" id="img-7217c01e-15">
      <g transform="translate(181.48,44.1)" id="img-7217c01e-16">
        <g class="primitive">
          <text dy="-0em">Area</text>
        </g>
      </g>
    </g>
  </g>
  <g clip-path="url(#img-7217c01e-17)">
    <g id="img-7217c01e-18">
      <g pointer-events="visible" stroke-width="0.3" fill="#000000" fill-opacity="0.000" stroke="#000000" stroke-opacity="0.000" class="guide background" id="img-7217c01e-19">
        <g transform="translate(101.79,52.71)" id="img-7217c01e-20">
          <path d="M-78.69,-47.71 L78.69,-47.71 78.69,47.71 -78.69,47.71  z" class="primitive"/>
        </g>
      </g>
      <g class="guide ygridlines xfixed" stroke-dasharray="0.5,0.5" stroke-width="0.2" stroke="#D0D0E0" id="img-7217c01e-21">
        <g transform="translate(101.79,98.42)" id="img-7217c01e-22">
          <path fill="none" d="M-78.69,0 L78.69,0 " class="primitive"/>
        </g>
        <g transform="translate(101.79,67.94)" id="img-7217c01e-23">
          <path fill="none" d="M-78.69,0 L78.69,0 " class="primitive"/>
        </g>
        <g transform="translate(101.79,37.47)" id="img-7217c01e-24">
          <path fill="none" d="M-78.69,0 L78.69,0 " class="primitive"/>
        </g>
        <g transform="translate(101.79,7)" id="img-7217c01e-25">
          <path fill="none" d="M-78.69,0 L78.69,0 " class="primitive"/>
        </g>
      </g>
      <g class="guide xgridlines yfixed" stroke-dasharray="0.5,0.5" stroke-width="0.2" stroke="#D0D0E0" id="img-7217c01e-26">
        <g transform="translate(25.11,52.71)" id="img-7217c01e-27">
          <path fill="none" d="M0,-47.71 L0,47.71 " class="primitive"/>
        </g>
        <g transform="translate(63.45,52.71)" id="img-7217c01e-28">
          <path fill="none" d="M0,-47.71 L0,47.71 " class="primitive"/>
        </g>
        <g transform="translate(101.79,52.71)" id="img-7217c01e-29">
          <path fill="none" d="M0,-47.71 L0,47.71 " class="primitive"/>
        </g>
        <g transform="translate(140.14,52.71)" id="img-7217c01e-30">
          <path fill="none" d="M0,-47.71 L0,47.71 " class="primitive"/>
        </g>
        <g transform="translate(178.48,52.71)" id="img-7217c01e-31">
          <path fill="none" d="M0,-47.71 L0,47.71 " class="primitive"/>
        </g>
      </g>
      <g class="plotpanel" id="img-7217c01e-32">
        <metadata>
          <boundingbox value="23.10833333333332mm 5.0mm 157.37083333333334mm 95.41666666666667mm"/>
          <unitbox value="-526.0805781194816 0.0153281677301732 2052.1611562389635 -0.015656335460346397"/>
        </metadata>
        <g stroke-width="0.3" fill="#000000" fill-opacity="0.000" class="geometry" id="img-7217c01e-33">
          <g transform="translate(112.85,94.19)" id="img-7217c01e-34" stroke-dasharray="none" stroke="#FF6347" class="color_Area_1">
            <path fill="none" d="M-55.08,4.23 L-54.64,4.23 -54.21,4.22 -53.78,4.22 -53.35,4.2 -52.92,4.16 -52.49,4.04 -52.05,3.75 -51.62,3.14 -51.19,2 -50.76,0.1 -50.33,-2.7 -49.89,-6.34 -49.46,-10.53 -49.03,-14.8 -48.6,-18.63 -48.17,-21.69 -47.73,-23.83 -47.3,-25.15 -46.87,-25.88 -46.44,-26.23 -46.01,-26.38 -45.57,-26.43 -45.14,-26.45 -44.71,-26.46 -44.28,-26.45 -43.85,-26.44 -43.41,-26.42 -42.98,-26.39 -42.55,-26.32 -42.12,-26.2 -41.69,-26 -41.25,-25.66 -40.82,-25.14 -40.39,-24.41 -39.96,-23.47 -39.53,-22.34 -39.09,-21.09 -38.66,-19.77 -38.23,-18.42 -37.8,-17.1 -37.37,-15.83 -36.93,-14.63 -36.5,-13.5 -36.07,-12.4 -35.64,-11.32 -35.21,-10.24 -34.77,-9.17 -34.34,-8.12 -33.91,-7.13 -33.48,-6.22 -33.05,-5.4 -32.61,-4.67 -32.18,-4.02 -31.75,-3.43 -31.32,-2.88 -30.89,-2.37 -30.45,-1.89 -30.02,-1.43 -29.59,-1 -29.16,-0.62 -28.73,-0.29 -28.29,0.02 -27.86,0.31 -27.43,0.61 -27,0.91 -26.57,1.2 -26.13,1.46 -25.7,1.68 -25.27,1.86 -24.84,2.02 -24.41,2.19 -23.97,2.35 -23.54,2.51 -23.11,2.65 -22.68,2.76 -22.25,2.85 -21.81,2.92 -21.38,2.98 -20.95,3.04 -20.52,3.11 -20.09,3.2 -19.65,3.31 -19.22,3.44 -18.79,3.59 -18.36,3.72 -17.93,3.84 -17.5,3.92 -17.06,3.97 -16.63,4 -16.2,4.02 -15.77,4.04 -15.34,4.07 -14.9,4.08 -14.47,4.08 -14.04,4.04 -13.61,3.99 -13.18,3.91 -12.74,3.84 -12.31,3.78 -11.88,3.75 -11.45,3.75 -11.02,3.78 -10.58,3.82 -10.15,3.87 -9.72,3.92 -9.29,3.97 -8.86,4.01 -8.42,4.04 -7.99,4.05 -7.56,4.05 -7.13,4.05 -6.7,4.06 -6.26,4.07 -5.83,4.09 -5.4,4.13 -4.97,4.16 -4.54,4.19 -4.1,4.2 -3.67,4.21 -3.24,4.21 -2.81,4.2 -2.38,4.18 -1.94,4.17 -1.51,4.15 -1.08,4.15 -0.65,4.15 -0.22,4.16 0.22,4.18 0.65,4.19 1.08,4.2 1.51,4.2 1.94,4.19 2.38,4.16 2.81,4.13 3.24,4.09 3.67,4.06 4.1,4.05 4.54,4.04 4.97,4.05 5.4,4.07 5.83,4.1 6.26,4.12 6.7,4.15 7.13,4.18 7.56,4.2 7.99,4.21 8.42,4.22 8.86,4.22 9.29,4.22 9.72,4.23 10.15,4.23 10.58,4.23 11.02,4.23 11.45,4.23 11.88,4.23 12.31,4.23 12.74,4.23 13.18,4.23 13.61,4.23 14.04,4.23 14.47,4.23 14.9,4.22 15.34,4.22 15.77,4.22 16.2,4.21 16.63,4.2 17.06,4.18 17.5,4.16 17.93,4.15 18.36,4.15 18.79,4.16 19.22,4.17 19.65,4.19 20.09,4.2 20.52,4.21 20.95,4.22 21.38,4.22 21.81,4.21 22.25,4.21 22.68,4.19 23.11,4.18 23.54,4.16 23.97,4.15 24.41,4.15 24.84,4.16 25.27,4.17 25.7,4.19 26.13,4.2 26.57,4.21 27,4.22 27.43,4.22 27.86,4.23 28.29,4.23 28.73,4.23 29.16,4.23 29.59,4.23 30.02,4.23 30.45,4.23 30.89,4.23 31.32,4.23 31.75,4.23 32.18,4.23 32.61,4.23 33.05,4.23 33.48,4.23 33.91,4.23 34.34,4.23 34.77,4.23 35.21,4.23 35.64,4.23 36.07,4.23 36.5,4.23 36.93,4.23 37.37,4.23 37.8,4.23 38.23,4.23 38.66,4.23 39.09,4.23 39.53,4.23 39.96,4.23 40.39,4.23 40.82,4.23 41.25,4.23 41.69,4.23 42.12,4.23 42.55,4.23 42.98,4.23 43.41,4.23 43.85,4.23 44.28,4.23 44.71,4.23 45.14,4.23 45.57,4.23 46.01,4.23 46.44,4.23 46.87,4.22 47.3,4.22 47.73,4.22 48.17,4.21 48.6,4.2 49.03,4.18 49.46,4.16 49.89,4.15 50.33,4.15 50.76,4.16 51.19,4.17 51.62,4.19 52.05,4.2 52.49,4.21 52.92,4.22 53.35,4.22 53.78,4.23 54.21,4.23 54.64,4.23 55.08,4.23 " class="primitive"/>
          </g>
          <g transform="translate(111.34,94.04)" id="img-7217c01e-35" stroke-dasharray="none" stroke="#B23AEE" class="color_Area_3">
            <path fill="none" d="M-53.21,4.37 L-52.79,4.37 -52.37,4.37 -51.96,4.35 -51.54,4.31 -51.12,4.21 -50.7,3.97 -50.29,3.49 -49.87,2.62 -49.45,1.19 -49.03,-0.93 -48.62,-3.76 -48.2,-7.14 -47.78,-10.79 -47.36,-14.33 -46.95,-17.43 -46.53,-19.87 -46.11,-21.6 -45.7,-22.7 -45.28,-23.34 -44.86,-23.67 -44.44,-23.82 -44.03,-23.88 -43.61,-23.91 -43.19,-23.92 -42.77,-23.92 -42.36,-23.92 -41.94,-23.91 -41.52,-23.9 -41.11,-23.88 -40.69,-23.83 -40.27,-23.75 -39.85,-23.61 -39.44,-23.39 -39.02,-23.07 -38.6,-22.64 -38.18,-22.1 -37.77,-21.46 -37.35,-20.73 -36.93,-19.92 -36.51,-19.02 -36.1,-18.04 -35.68,-16.95 -35.26,-15.76 -34.85,-14.5 -34.43,-13.2 -34.01,-11.91 -33.59,-10.68 -33.18,-9.55 -32.76,-8.55 -32.34,-7.7 -31.92,-7 -31.51,-6.38 -31.09,-5.8 -30.67,-5.23 -30.26,-4.62 -29.84,-4.01 -29.42,-3.41 -29,-2.85 -28.59,-2.36 -28.17,-1.95 -27.75,-1.61 -27.33,-1.31 -26.92,-1.01 -26.5,-0.67 -26.08,-0.29 -25.66,0.15 -25.25,0.6 -24.83,1.05 -24.41,1.44 -24,1.76 -23.58,2 -23.16,2.15 -22.74,2.25 -22.33,2.32 -21.91,2.37 -21.49,2.43 -21.07,2.49 -20.66,2.57 -20.24,2.65 -19.82,2.76 -19.41,2.89 -18.99,3.05 -18.57,3.21 -18.15,3.37 -17.74,3.5 -17.32,3.57 -16.9,3.6 -16.48,3.58 -16.07,3.54 -15.65,3.49 -15.23,3.46 -14.81,3.45 -14.4,3.48 -13.98,3.52 -13.56,3.58 -13.15,3.65 -12.73,3.72 -12.31,3.78 -11.89,3.82 -11.48,3.84 -11.06,3.83 -10.64,3.82 -10.22,3.82 -9.81,3.84 -9.39,3.88 -8.97,3.95 -8.55,4.03 -8.14,4.11 -7.72,4.18 -7.3,4.23 -6.89,4.26 -6.47,4.28 -6.05,4.28 -5.63,4.28 -5.22,4.28 -4.8,4.27 -4.38,4.25 -3.96,4.22 -3.55,4.19 -3.13,4.17 -2.71,4.15 -2.3,4.13 -1.88,4.12 -1.46,4.09 -1.04,4.06 -0.63,4.01 -0.21,3.96 0.21,3.92 0.63,3.89 1.04,3.89 1.46,3.91 1.88,3.96 2.3,4.03 2.71,4.1 3.13,4.18 3.55,4.24 3.96,4.29 4.38,4.32 4.8,4.33 5.22,4.32 5.63,4.29 6.05,4.25 6.47,4.21 6.89,4.16 7.3,4.12 7.72,4.09 8.14,4.09 8.55,4.11 8.97,4.14 9.39,4.18 9.81,4.23 10.22,4.27 10.64,4.31 11.06,4.33 11.48,4.35 11.89,4.36 12.31,4.37 12.73,4.37 13.15,4.37 13.56,4.37 13.98,4.37 14.4,4.37 14.81,4.37 15.23,4.37 15.65,4.37 16.07,4.37 16.48,4.37 16.9,4.37 17.32,4.37 17.74,4.37 18.15,4.37 18.57,4.36 18.99,4.35 19.41,4.34 19.82,4.33 20.24,4.32 20.66,4.31 21.07,4.31 21.49,4.31 21.91,4.33 22.33,4.34 22.74,4.35 23.16,4.36 23.58,4.37 24,4.37 24.41,4.37 24.83,4.37 25.25,4.37 25.66,4.37 26.08,4.37 26.5,4.37 26.92,4.37 27.33,4.37 27.75,4.37 28.17,4.37 28.59,4.37 29,4.37 29.42,4.37 29.84,4.37 30.26,4.37 30.67,4.37 31.09,4.37 31.51,4.37 31.92,4.37 32.34,4.37 32.76,4.37 33.18,4.37 33.59,4.37 34.01,4.37 34.43,4.37 34.85,4.37 35.26,4.37 35.68,4.37 36.1,4.37 36.51,4.37 36.93,4.37 37.35,4.37 37.77,4.37 38.18,4.37 38.6,4.37 39.02,4.37 39.44,4.36 39.85,4.35 40.27,4.34 40.69,4.33 41.11,4.31 41.52,4.31 41.94,4.31 42.36,4.32 42.77,4.33 43.19,4.34 43.61,4.35 44.03,4.36 44.44,4.37 44.86,4.37 45.28,4.37 45.7,4.36 46.11,4.36 46.53,4.34 46.95,4.33 47.36,4.32 47.78,4.31 48.2,4.31 48.62,4.31 49.03,4.32 49.45,4.33 49.87,4.35 50.29,4.36 50.7,4.37 51.12,4.37 51.54,4.37 51.96,4.37 52.37,4.37 52.79,4.37 53.21,4.37 " class="primitive"/>
          </g>
          <g transform="translate(78.79,85.48)" id="img-7217c01e-36" stroke-dasharray="none" stroke="#4169E1" class="color_Area_2">
            <path fill="none" d="M-17.99,12.94 L-17.85,12.94 -17.71,12.93 -17.57,12.92 -17.43,12.91 -17.29,12.87 -17.14,12.79 -17,12.65 -16.86,12.4 -16.72,11.97 -16.58,11.26 -16.44,10.17 -16.3,8.55 -16.16,6.29 -16.02,3.26 -15.87,-0.59 -15.73,-5.23 -15.59,-10.57 -15.45,-16.4 -15.31,-22.47 -15.17,-28.48 -15.03,-34.13 -14.89,-39.19 -14.75,-43.49 -14.6,-46.98 -14.46,-49.66 -14.32,-51.63 -14.18,-53 -14.04,-53.91 -13.9,-54.48 -13.76,-54.82 -13.62,-55.01 -13.48,-55.11 -13.33,-55.15 -13.19,-55.15 -13.05,-55.13 -12.91,-55.07 -12.77,-54.99 -12.63,-54.87 -12.49,-54.7 -12.35,-54.48 -12.21,-54.2 -12.06,-53.84 -11.92,-53.4 -11.78,-52.86 -11.64,-52.22 -11.5,-51.47 -11.36,-50.59 -11.22,-49.6 -11.08,-48.47 -10.94,-47.19 -10.79,-45.75 -10.65,-44.13 -10.51,-42.31 -10.37,-40.26 -10.23,-37.99 -10.09,-35.51 -9.95,-32.86 -9.81,-30.07 -9.67,-27.23 -9.52,-24.42 -9.38,-21.69 -9.24,-19.13 -9.1,-16.76 -8.96,-14.61 -8.82,-12.69 -8.68,-10.98 -8.54,-9.45 -8.4,-8.08 -8.25,-6.83 -8.11,-5.69 -7.97,-4.66 -7.83,-3.73 -7.69,-2.92 -7.55,-2.24 -7.41,-1.72 -7.27,-1.34 -7.13,-1.07 -6.98,-0.88 -6.84,-0.71 -6.7,-0.51 -6.56,-0.23 -6.42,0.16 -6.28,0.66 -6.14,1.27 -6,1.95 -5.86,2.67 -5.71,3.4 -5.57,4.1 -5.43,4.75 -5.29,5.32 -5.15,5.82 -5.01,6.23 -4.87,6.56 -4.73,6.82 -4.59,7.01 -4.44,7.16 -4.3,7.28 -4.16,7.39 -4.02,7.5 -3.88,7.63 -3.74,7.78 -3.6,7.94 -3.46,8.11 -3.32,8.28 -3.17,8.45 -3.03,8.6 -2.89,8.75 -2.75,8.89 -2.61,9.03 -2.47,9.18 -2.33,9.34 -2.19,9.5 -2.05,9.66 -1.9,9.81 -1.76,9.93 -1.62,10.03 -1.48,10.1 -1.34,10.16 -1.2,10.21 -1.06,10.28 -0.92,10.38 -0.78,10.51 -0.63,10.69 -0.49,10.89 -0.35,11.11 -0.21,11.34 -0.07,11.55 0.07,11.74 0.21,11.89 0.35,12.01 0.49,12.08 0.63,12.11 0.78,12.11 0.92,12.08 1.06,12.04 1.2,12 1.34,11.96 1.48,11.95 1.62,11.96 1.76,11.99 1.9,12.05 2.05,12.13 2.19,12.2 2.33,12.25 2.47,12.28 2.61,12.27 2.75,12.23 2.89,12.16 3.03,12.08 3.17,12 3.32,11.95 3.46,11.93 3.6,11.96 3.74,12.02 3.88,12.12 4.02,12.25 4.16,12.38 4.3,12.51 4.44,12.63 4.59,12.72 4.73,12.8 4.87,12.85 5.01,12.88 5.15,12.91 5.29,12.92 5.43,12.93 5.57,12.93 5.71,12.94 5.86,12.94 6,12.94 6.14,12.94 6.28,12.94 6.42,12.94 6.56,12.94 6.7,12.94 6.84,12.93 6.98,12.93 7.13,12.92 7.27,12.91 7.41,12.9 7.55,12.87 7.69,12.84 7.83,12.81 7.97,12.76 8.11,12.72 8.25,12.68 8.4,12.64 8.54,12.61 8.68,12.6 8.82,12.61 8.96,12.63 9.1,12.67 9.24,12.71 9.38,12.76 9.52,12.8 9.67,12.84 9.81,12.87 9.95,12.89 10.09,12.91 10.23,12.92 10.37,12.93 10.51,12.93 10.65,12.94 10.79,12.94 10.94,12.94 11.08,12.94 11.22,12.94 11.36,12.94 11.5,12.94 11.64,12.94 11.78,12.94 11.92,12.94 12.06,12.94 12.21,12.94 12.35,12.94 12.49,12.94 12.63,12.94 12.77,12.94 12.91,12.94 13.05,12.94 13.19,12.93 13.33,12.93 13.48,12.92 13.62,12.91 13.76,12.89 13.9,12.86 14.04,12.82 14.18,12.75 14.32,12.67 14.46,12.56 14.6,12.44 14.75,12.31 14.89,12.18 15.03,12.07 15.17,11.99 15.31,11.96 15.45,11.97 15.59,12.03 15.73,12.12 15.87,12.24 16.02,12.37 16.16,12.5 16.3,12.62 16.44,12.71 16.58,12.79 16.72,12.84 16.86,12.88 17,12.9 17.14,12.92 17.29,12.93 17.43,12.93 17.57,12.94 17.71,12.94 17.85,12.94 17.99,12.94 " class="primitive"/>
          </g>
          <g transform="translate(86.5,89.56)" id="img-7217c01e-37" stroke-dasharray="none" stroke="#00CD66" class="color_Area_4">
            <path fill="none" d="M-26.27,8.86 L-26.06,8.86 -25.86,8.85 -25.65,8.84 -25.44,8.81 -25.24,8.75 -25.03,8.6 -24.83,8.32 -24.62,7.78 -24.41,6.84 -24.21,5.33 -24,3.06 -23.8,-0.12 -23.59,-4.25 -23.38,-9.24 -23.18,-14.84 -22.97,-20.68 -22.77,-26.36 -22.56,-31.49 -22.35,-35.79 -22.15,-39.14 -21.94,-41.57 -21.74,-43.21 -21.53,-44.24 -21.32,-44.84 -21.12,-45.16 -20.91,-45.33 -20.71,-45.4 -20.5,-45.43 -20.29,-45.44 -20.09,-45.44 -19.88,-45.42 -19.67,-45.38 -19.47,-45.32 -19.26,-45.2 -19.06,-45.02 -18.85,-44.74 -18.64,-44.32 -18.44,-43.74 -18.23,-42.97 -18.03,-41.99 -17.82,-40.8 -17.61,-39.4 -17.41,-37.82 -17.2,-36.07 -17,-34.17 -16.79,-32.14 -16.58,-30 -16.38,-27.75 -16.17,-25.44 -15.97,-23.12 -15.76,-20.85 -15.55,-18.69 -15.35,-16.69 -15.14,-14.88 -14.94,-13.28 -14.73,-11.89 -14.52,-10.71 -14.32,-9.7 -14.11,-8.84 -13.91,-8.07 -13.7,-7.35 -13.49,-6.62 -13.29,-5.83 -13.08,-4.96 -12.88,-4.02 -12.67,-3.03 -12.46,-2.04 -12.26,-1.12 -12.05,-0.29 -11.85,0.42 -11.64,1.02 -11.43,1.53 -11.23,1.99 -11.02,2.42 -10.82,2.85 -10.61,3.27 -10.4,3.65 -10.2,4 -9.99,4.29 -9.79,4.55 -9.58,4.78 -9.37,5.01 -9.17,5.26 -8.96,5.52 -8.76,5.81 -8.55,6.12 -8.34,6.43 -8.14,6.73 -7.93,6.99 -7.73,7.21 -7.52,7.37 -7.31,7.47 -7.11,7.51 -6.9,7.51 -6.7,7.49 -6.49,7.46 -6.28,7.44 -6.08,7.45 -5.87,7.49 -5.67,7.55 -5.46,7.63 -5.25,7.7 -5.05,7.75 -4.84,7.76 -4.64,7.75 -4.43,7.72 -4.22,7.67 -4.02,7.63 -3.81,7.62 -3.61,7.63 -3.4,7.68 -3.19,7.75 -2.99,7.84 -2.78,7.94 -2.58,8.02 -2.37,8.09 -2.16,8.14 -1.96,8.17 -1.75,8.19 -1.55,8.18 -1.34,8.16 -1.13,8.12 -0.93,8.05 -0.72,7.96 -0.52,7.86 -0.31,7.75 -0.1,7.65 0.1,7.56 0.31,7.5 0.52,7.46 0.72,7.46 0.93,7.5 1.13,7.58 1.34,7.68 1.55,7.8 1.75,7.91 1.96,7.99 2.16,8.05 2.37,8.08 2.58,8.1 2.78,8.12 2.99,8.16 3.19,8.2 3.4,8.26 3.61,8.32 3.81,8.37 4.02,8.4 4.22,8.42 4.43,8.42 4.64,8.42 4.84,8.43 5.05,8.45 5.25,8.49 5.46,8.54 5.67,8.6 5.87,8.66 6.08,8.71 6.28,8.75 6.49,8.77 6.7,8.77 6.9,8.75 7.11,8.71 7.31,8.66 7.52,8.6 7.73,8.54 7.93,8.49 8.14,8.45 8.34,8.44 8.55,8.46 8.76,8.5 8.96,8.55 9.17,8.6 9.37,8.64 9.58,8.67 9.79,8.68 9.99,8.67 10.2,8.66 10.4,8.64 10.61,8.64 10.82,8.64 11.02,8.66 11.23,8.69 11.43,8.73 11.64,8.76 11.85,8.79 12.05,8.8 12.26,8.81 12.46,8.8 12.67,8.78 12.88,8.75 13.08,8.72 13.29,8.68 13.49,8.66 13.7,8.64 13.91,8.65 14.11,8.66 14.32,8.69 14.52,8.72 14.73,8.76 14.94,8.79 15.14,8.82 15.35,8.83 15.55,8.85 15.76,8.85 15.97,8.86 16.17,8.86 16.38,8.86 16.58,8.86 16.79,8.86 17,8.85 17.2,8.84 17.41,8.83 17.61,8.81 17.82,8.78 18.03,8.75 18.23,8.71 18.44,8.68 18.64,8.65 18.85,8.64 19.06,8.65 19.26,8.67 19.47,8.7 19.67,8.73 19.88,8.77 20.09,8.8 20.29,8.82 20.5,8.84 20.71,8.85 20.91,8.85 21.12,8.84 21.32,8.83 21.53,8.81 21.74,8.77 21.94,8.73 22.15,8.66 22.35,8.6 22.56,8.53 22.77,8.47 22.97,8.44 23.18,8.43 23.38,8.46 23.59,8.51 23.8,8.57 24,8.64 24.21,8.7 24.41,8.76 24.62,8.8 24.83,8.82 25.03,8.84 25.24,8.85 25.44,8.86 25.65,8.86 25.86,8.86 26.06,8.86 26.27,8.86 " class="primitive"/>
          </g>
        </g>
      </g>
    </g>
  </g>
  <g class="guide ylabels" font-size="3.53" font-family="CMU Serif" fill="#6C606B" id="img-7217c01e-38">
    <g transform="translate(22.11,98.42)" id="img-7217c01e-39">
      <g class="primitive">
        <text text-anchor="end" dy="0.35em">0.000</text>
      </g>
    </g>
    <g transform="translate(22.11,67.94)" id="img-7217c01e-40">
      <g class="primitive">
        <text text-anchor="end" dy="0.35em">0.005</text>
      </g>
    </g>
    <g transform="translate(22.11,37.47)" id="img-7217c01e-41">
      <g class="primitive">
        <text text-anchor="end" dy="0.35em">0.010</text>
      </g>
    </g>
    <g transform="translate(22.11,7)" id="img-7217c01e-42">
      <g class="primitive">
        <text text-anchor="end" dy="0.35em">0.015</text>
      </g>
    </g>
  </g>
  <g font-size="3.53" font-family="CMU Serif" fill="#564A55" stroke="#000000" stroke-opacity="0.000" id="img-7217c01e-43">
    <g transform="translate(8.65,50.71)" id="img-7217c01e-44">
      <g class="primitive">
        <text text-anchor="middle" dy="0.35em" transform="rotate(-90,0, 2)">Density</text>
      </g>
    </g>
  </g>
</g>
<defs>
  <clipPath id="img-7217c01e-17">
    <path d="M23.11,5 L180.48,5 180.48,100.42 23.11,100.42 " />
  </clipPath>
</defs>
</svg>
