<?xml version="1.0" encoding="UTF-8"?>
<svg xmlns="http://www.w3.org/2000/svg"
     xmlns:xlink="http://www.w3.org/1999/xlink"
     xmlns:gadfly="http://www.gadflyjl.org/ns"
     version="1.2"
     width="200mm" height="120mm" viewBox="0 0 200 120"
     stroke="none"
     fill="#000000"
     stroke-width="0.3"
     font-size="3.88"
>
<defs>
  <marker id="arrow" markerWidth="15" markerHeight="7" refX="5" refY="3.5" orient="auto" markerUnits="strokeWidth">
    <path d="M0,0 L15,3.5 L0,7 z" stroke="context-stroke" fill="context-stroke"/>
  </marker>
</defs>
<g class="plotroot xscalable yscalable" id="img-a4b9e367-1">
  <g font-size="3.53" font-family="CMU Serif" fill="#564A55" stroke="#000000" stroke-opacity="0.000" id="img-a4b9e367-2">
    <g transform="translate(101.79,108.71)">
      <g class="primitive">
        <text text-anchor="middle" dy="0.6em">Proper Motion Right Ascension (mas/yr)</text>
      </g>
    </g>
  </g>
  <g class="guide xlabels" font-size="3.53" font-family="CMU Serif" fill="#6C606B" id="img-a4b9e367-3">
    <g transform="translate(25.11,101.42)">
      <g class="primitive">
        <text text-anchor="middle" dy="0.6em">-2.00×10³</text>
      </g>
    </g>
    <g transform="translate(63.45,101.42)">
      <g class="primitive">
        <text text-anchor="middle" dy="0.6em">0</text>
      </g>
    </g>
    <g transform="translate(101.79,101.42)">
      <g class="primitive">
        <text text-anchor="middle" dy="0.6em">2.00×10³</text>
      </g>
    </g>
    <g transform="translate(140.14,101.42)">
      <g class="primitive">
        <text text-anchor="middle" dy="0.6em">4.00×10³</text>
      </g>
    </g>
    <g transform="translate(178.48,101.42)">
      <g class="primitive">
        <text text-anchor="middle" dy="0.6em">6.00×10³</text>
      </g>
    </g>
  </g>
  <g class="guide colorkey" id="img-a4b9e367-4">
    <g fill="#4C404B" font-size="3.53" font-family="CMU Serif" id="img-a4b9e367-5">
      <g transform="translate(184.62,48.42)" id="img-a4b9e367-6" class="color_Area_1">
        <g class="primitive">
          <text dy="0.35em">Area 1</text>
        </g>
      </g>
      <g transform="translate(184.62,52.71)" id="img-a4b9e367-7" class="color_Area_2">
        <g class="primitive">
          <text dy="0.35em">Area 2</text>
        </g>
      </g>
      <g transform="translate(184.62,57)" id="img-a4b9e367-8" class="color_Area_3">
        <g class="primitive">
          <text dy="0.35em">Area 3</text>
        </g>
      </g>
      <g transform="translate(184.62,61.29)" id="img-a4b9e367-9" class="color_Area_4">
        <g class="primitive">
          <text dy="0.35em">Area 4</text>
        </g>
      </g>
    </g>
    <g fill-opacity="1" id="img-a4b9e367-10">
      <g transform="translate(182.55,48.42)" id="img-a4b9e367-11" stroke="#FFFFFF" class="color_Area_1" fill="#FF6347">
        <path d="M-1.07,-1.07 L1.07,-1.07 1.07,1.07 -1.07,1.07  z" class="primitive"/>
      </g>
      <g transform="translate(182.55,52.71)" id="img-a4b9e367-12" stroke="#FFFFFF" class="color_Area_2" fill="#4169E1">
        <path d="M-1.07,-1.07 L1.07,-1.07 1.07,1.07 -1.07,1.07  z" class="primitive"/>
      </g>
      <g transform="translate(182.55,57)" id="img-a4b9e367-13" stroke="#FFFFFF" class="color_Area_3" fill="#B23AEE">
        <path d="M-1.07,-1.07 L1.07,-1.07 1.07,1.07 -1.07,1.07  z" class="primitive"/>
      </g>
      <g transform="translate(182.55,61.29)" id="img-a4b9e367-14" stroke="#FFFFFF" class="color_Area_4" fill="#00CD66">
        <path d="M-1.07,-1.07 L1.07,-1.07 1.07,1.07 -1.07,1.07  z" class="primitive"/>
      </g>
    </g>
    <g fill="#362A35" font-size="4.23" font-family="CMU Serif" stroke="#000000" stroke-opacity="0.000" id="img-a4b9e367-15">
      <g transform="translate(181.48,44.1)" id="img-a4b9e367-16">
        <g class="primitive">
          <text dy="-0em">Area</text>
        </g>
      </g>
    </g>
  </g>
  <g clip-path="url(#img-a4b9e367-17)">
    <g id="img-a4b9e367-18">
      <g pointer-events="visible" stroke-width="0.3" fill="#000000" fill-opacity="0.000" stroke="#000000" stroke-opacity="0.000" class="guide background" id="img-a4b9e367-19">
        <g transform="translate(101.79,52.71)" id="img-a4b9e367-20">
          <path d="M-78.69,-47.71 L78.69,-47.71 78.69,47.71 -78.69,47.71  z" class="primitive"/>
        </g>
      </g>
      <g class="guide ygridlines xfixed" stroke-dasharray="0.5,0.5" stroke-width="0.2" stroke="#D0D0E0" id="img-a4b9e367-21">
        <g transform="translate(101.79,98.42)" id="img-a4b9e367-22">
          <path fill="none" d="M-78.69,0 L78.69,0 " class="primitive"/>
        </g>
        <g transform="translate(101.79,52.71)" id="img-a4b9e367-23">
          <path fill="none" d="M-78.69,0 L78.69,0 " class="primitive"/>
        </g>
        <g transform="translate(101.79,7)" id="img-a4b9e367-24">
          <path fill="none" d="M-78.69,0 L78.69,0 " class="primitive"/>
        </g>
      </g>
      <g class="guide xgridlines yfixed" stroke-dasharray="0.5,0.5" stroke-width="0.2" stroke="#D0D0E0" id="img-a4b9e367-25">
        <g transform="translate(25.11,52.71)" id="img-a4b9e367-26">
          <path fill="none" d="M0,-47.71 L0,47.71 " class="primitive"/>
        </g>
        <g transform="translate(63.45,52.71)" id="img-a4b9e367-27">
          <path fill="none" d="M0,-47.71 L0,47.71 " class="primitive"/>
        </g>
        <g transform="translate(101.79,52.71)" id="img-a4b9e367-28">
          <path fill="none" d="M0,-47.71 L0,47.71 " class="primitive"/>
        </g>
        <g transform="translate(140.14,52.71)" id="img-a4b9e367-29">
          <path fill="none" d="M0,-47.71 L0,47.71 " class="primitive"/>
        </g>
        <g transform="translate(178.48,52.71)" id="img-a4b9e367-30">
          <path fill="none" d="M0,-47.71 L0,47.71 " class="primitive"/>
        </g>
      </g>
      <g class="plotpanel" id="img-a4b9e367-31">
        <metadata>
          <boundingbox value="23.10833333333332mm 5.0mm 157.37083333333334mm 95.41666666666667mm"/>
          <unitbox value="-2104.3223124779265 0.010218778486782133 8208.644624955854 -0.010437556973564266"/>
        </metadata>
        <g stroke-width="0.3" fill="#000000" fill-opacity="0.000" class="geometry" id="img-a4b9e367-32">
          <g transform="translate(101.82,96.22)" id="img-a4b9e367-33" stroke-dasharray="none" stroke="#FF6347" class="color_Area_1">
            <path fill="none" d="M-39.69,2.19 L-39.38,2.11 -39.07,1.22 -38.76,-3.17 -38.45,-14.07 -38.14,-27.54 -37.83,-35.55 -37.52,-37.77 -37.2,-38.07 -36.89,-38.08 -36.58,-38.04 -36.27,-37.73 -35.96,-36.64 -35.65,-34.3 -35.34,-30.71 -35.02,-26.15 -34.71,-21.58 -34.4,-17.95 -34.09,-14.79 -33.78,-11.19 -33.47,-7.55 -33.16,-5.11 -32.85,-3.86 -32.53,-2.96 -32.22,-2.13 -31.91,-1.27 -31.6,-0.62 -31.29,-0.38 -30.98,-0.25 -30.67,0.14 -30.35,0.68 -30.04,1.02 -29.73,1.18 -29.42,1.37 -29.11,1.53 -28.8,1.63 -28.49,1.77 -28.18,1.79 -27.86,1.69 -27.55,1.51 -27.24,1.25 -26.93,1.14 -26.62,1.26 -26.31,1.54 -26,1.8 -25.68,1.96 -25.37,2.05 -25.06,2.1 -24.75,2.13 -24.44,2.13 -24.13,2.1 -23.82,2.11 -23.51,2.07 -23.19,2.02 -22.88,2.07 -22.57,2.16 -22.26,2.19 -21.95,2.18 -21.64,2.12 -21.33,2.04 -21.01,2.05 -20.7,2.13 -20.39,2.18 -20.08,2.2 -19.77,2.2 -19.46,2.2 -19.15,2.2 -18.84,2.2 -18.52,2.19 -18.21,2.17 -17.9,2.13 -17.59,2.11 -17.28,2.12 -16.97,2.12 -16.66,2.1 -16.34,2.09 -16.03,2.06 -15.72,2.06 -15.41,2.1 -15.1,2.16 -14.79,2.19 -14.48,2.2 -14.17,2.2 -13.85,2.2 -13.54,2.2 -13.23,2.2 -12.92,2.2 -12.61,2.2 -12.3,2.2 -11.99,2.2 -11.67,2.2 -11.36,2.2 -11.05,2.2 -10.74,2.2 -10.43,2.2 -10.12,2.2 -9.81,2.2 -9.5,2.2 -9.18,2.2 -8.87,2.2 -8.56,2.2 -8.25,2.2 -7.94,2.2 -7.63,2.2 -7.32,2.2 -7,2.2 -6.69,2.2 -6.38,2.2 -6.07,2.2 -5.76,2.2 -5.45,2.2 -5.14,2.19 -4.83,2.17 -4.51,2.13 -4.2,2.12 -3.89,2.15 -3.58,2.19 -3.27,2.2 -2.96,2.2 -2.65,2.2 -2.33,2.2 -2.02,2.2 -1.71,2.2 -1.4,2.2 -1.09,2.2 -0.78,2.2 -0.47,2.2 -0.16,2.2 0.16,2.2 0.47,2.2 0.78,2.2 1.09,2.2 1.4,2.2 1.71,2.2 2.02,2.2 2.33,2.2 2.65,2.2 2.96,2.2 3.27,2.2 3.58,2.2 3.89,2.2 4.2,2.2 4.51,2.2 4.83,2.2 5.14,2.2 5.45,2.2 5.76,2.2 6.07,2.2 6.38,2.2 6.69,2.2 7,2.2 7.32,2.2 7.63,2.2 7.94,2.2 8.25,2.2 8.56,2.2 8.87,2.2 9.18,2.2 9.5,2.2 9.81,2.2 10.12,2.2 10.43,2.2 10.74,2.2 11.05,2.2 11.36,2.2 11.67,2.2 11.99,2.2 12.3,2.2 12.61,2.2 12.92,2.2 13.23,2.2 13.54,2.2 13.85,2.2 14.17,2.2 14.48,2.2 14.79,2.2 15.1,2.2 15.41,2.2 15.72,2.2 16.03,2.2 16.34,2.2 16.66,2.2 16.97,2.2 17.28,2.2 17.59,2.2 17.9,2.2 18.21,2.2 18.52,2.2 18.84,2.2 19.15,2.2 19.46,2.2 19.77,2.2 20.08,2.2 20.39,2.2 20.7,2.2 21.01,2.2 21.33,2.2 21.64,2.2 21.95,2.2 22.26,2.2 22.57,2.2 22.88,2.2 23.19,2.2 23.51,2.2 23.82,2.2 24.13,2.2 24.44,2.2 24.75,2.2 25.06,2.2 25.37,2.2 25.68,2.2 26,2.2 26.31,2.2 26.62,2.2 26.93,2.2 27.24,2.2 27.55,2.2 27.86,2.2 28.18,2.2 28.49,2.2 28.8,2.2 29.11,2.2 29.42,2.2 29.73,2.2 30.04,2.2 30.35,2.2 30.67,2.2 30.98,2.2 31.29,2.2 31.6,2.2 31.91,2.2 32.22,2.2 32.53,2.2 32.85,2.2 33.16,2.2 33.47,2.2 33.78,2.2 34.09,2.2 34.4,2.2 34.71,2.2 35.02,2.2 35.34,2.2 35.65,2.2 35.96,2.2 36.27,2.2 36.58,2.2 36.89,2.2 37.2,2.2 37.52,2.19 37.83,2.17 38.14,2.13 38.45,2.11 38.76,2.15 39.07,2.19 39.38,2.2 39.69,2.2 " class="primitive"/>
          </g>
          <g transform="translate(117.44,96.85)" id="img-a4b9e367-34" stroke-dasharray="none" stroke="#B23AEE" class="color_Area_3">
            <path fill="none" d="M-55.76,1.56 L-55.32,1.5 -54.89,0.75 -54.45,-3.17 -54.01,-11.98 -53.57,-21.19 -53.14,-25.61 -52.7,-26.5 -52.26,-26.57 -51.82,-26.57 -51.39,-26.54 -50.95,-26.34 -50.51,-25.67 -50.07,-24.16 -49.64,-21.72 -49.2,-18.65 -48.76,-15.4 -48.33,-12.16 -47.89,-9.25 -47.45,-7.04 -47.01,-5.46 -46.58,-4.31 -46.14,-3.35 -45.7,-2.38 -45.26,-1.54 -44.83,-0.96 -44.39,-0.53 -43.95,-0.13 -43.51,0.15 -43.08,0.37 -42.64,0.54 -42.2,0.5 -41.77,0.53 -41.33,0.61 -40.89,0.71 -40.45,0.93 -40.02,1.06 -39.58,1.09 -39.14,1.2 -38.7,1.36 -38.27,1.43 -37.83,1.4 -37.39,1.31 -36.95,1.28 -36.52,1.37 -36.08,1.46 -35.64,1.47 -35.21,1.44 -34.77,1.41 -34.33,1.4 -33.89,1.42 -33.46,1.44 -33.02,1.45 -32.58,1.48 -32.14,1.52 -31.71,1.55 -31.27,1.56 -30.83,1.54 -30.39,1.5 -29.96,1.49 -29.52,1.5 -29.08,1.51 -28.65,1.48 -28.21,1.48 -27.77,1.5 -27.33,1.51 -26.9,1.53 -26.46,1.54 -26.02,1.52 -25.58,1.53 -25.15,1.55 -24.71,1.56 -24.27,1.57 -23.83,1.57 -23.4,1.57 -22.96,1.57 -22.52,1.56 -22.09,1.55 -21.65,1.52 -21.21,1.5 -20.77,1.5 -20.34,1.53 -19.9,1.55 -19.46,1.54 -19.02,1.52 -18.59,1.53 -18.15,1.56 -17.71,1.56 -17.27,1.57 -16.84,1.57 -16.4,1.57 -15.96,1.57 -15.53,1.57 -15.09,1.57 -14.65,1.56 -14.21,1.56 -13.78,1.54 -13.34,1.52 -12.9,1.53 -12.46,1.55 -12.03,1.56 -11.59,1.57 -11.15,1.57 -10.71,1.57 -10.28,1.57 -9.84,1.56 -9.4,1.55 -8.97,1.53 -8.53,1.53 -8.09,1.55 -7.65,1.56 -7.22,1.57 -6.78,1.57 -6.34,1.57 -5.9,1.57 -5.47,1.57 -5.03,1.57 -4.59,1.57 -4.15,1.57 -3.72,1.57 -3.28,1.57 -2.84,1.57 -2.41,1.57 -1.97,1.57 -1.53,1.57 -1.09,1.57 -0.66,1.57 -0.22,1.57 0.22,1.57 0.66,1.57 1.09,1.57 1.53,1.57 1.97,1.57 2.41,1.57 2.84,1.56 3.28,1.56 3.72,1.54 4.15,1.52 4.59,1.53 5.03,1.56 5.47,1.56 5.9,1.57 6.34,1.57 6.78,1.57 7.22,1.57 7.65,1.57 8.09,1.57 8.53,1.57 8.97,1.57 9.4,1.57 9.84,1.57 10.28,1.57 10.71,1.57 11.15,1.57 11.59,1.57 12.03,1.57 12.46,1.57 12.9,1.57 13.34,1.57 13.78,1.57 14.21,1.57 14.65,1.57 15.09,1.57 15.53,1.57 15.96,1.57 16.4,1.57 16.84,1.57 17.27,1.57 17.71,1.57 18.15,1.57 18.59,1.57 19.02,1.57 19.46,1.57 19.9,1.57 20.34,1.57 20.77,1.57 21.21,1.57 21.65,1.57 22.09,1.57 22.52,1.57 22.96,1.57 23.4,1.57 23.83,1.57 24.27,1.57 24.71,1.57 25.15,1.57 25.58,1.57 26.02,1.57 26.46,1.57 26.9,1.57 27.33,1.57 27.77,1.57 28.21,1.57 28.65,1.57 29.08,1.57 29.52,1.57 29.96,1.57 30.39,1.57 30.83,1.57 31.27,1.57 31.71,1.57 32.14,1.57 32.58,1.57 33.02,1.57 33.46,1.57 33.89,1.57 34.33,1.57 34.77,1.57 35.21,1.57 35.64,1.57 36.08,1.57 36.52,1.57 36.95,1.57 37.39,1.57 37.83,1.57 38.27,1.57 38.7,1.57 39.14,1.57 39.58,1.57 40.02,1.57 40.45,1.57 40.89,1.57 41.33,1.57 41.77,1.57 42.2,1.57 42.64,1.57 43.08,1.57 43.51,1.57 43.95,1.57 44.39,1.57 44.83,1.57 45.26,1.57 45.7,1.57 46.14,1.57 46.58,1.57 47.01,1.57 47.45,1.57 47.89,1.57 48.33,1.57 48.76,1.57 49.2,1.57 49.64,1.57 50.07,1.57 50.51,1.57 50.95,1.57 51.39,1.57 51.82,1.57 52.26,1.57 52.7,1.56 53.14,1.56 53.57,1.54 54.01,1.52 54.45,1.54 54.89,1.56 55.32,1.56 55.76,1.57 " class="primitive"/>
          </g>
          <g transform="translate(66.9,77.71)" id="img-a4b9e367-35" stroke-dasharray="none" stroke="#4169E1" class="color_Area_2">
            <path fill="none" d="M-4.21,20.71 L-4.18,20.71 -4.15,20.71 -4.12,20.7 -4.08,20.69 -4.05,20.66 -4.02,20.62 -3.98,20.55 -3.95,20.43 -3.92,20.24 -3.88,19.93 -3.85,19.45 -3.82,18.75 -3.78,17.75 -3.75,16.36 -3.72,14.49 -3.69,12.06 -3.65,9.01 -3.62,5.3 -3.59,0.92 -3.55,-4.07 -3.52,-9.57 -3.49,-15.45 -3.45,-21.52 -3.42,-27.6 -3.39,-33.49 -3.35,-39.01 -3.32,-44.01 -3.29,-48.41 -3.26,-52.14 -3.22,-55.21 -3.19,-57.66 -3.16,-59.54 -3.12,-60.94 -3.09,-61.96 -3.06,-62.66 -3.02,-63.14 -2.99,-63.45 -2.96,-63.65 -2.93,-63.77 -2.89,-63.84 -2.86,-63.88 -2.83,-63.9 -2.79,-63.91 -2.76,-63.91 -2.73,-63.9 -2.69,-63.88 -2.66,-63.84 -2.63,-63.79 -2.59,-63.72 -2.56,-63.61 -2.53,-63.46 -2.5,-63.25 -2.46,-62.98 -2.43,-62.63 -2.4,-62.19 -2.36,-61.64 -2.33,-60.99 -2.3,-60.22 -2.26,-59.34 -2.23,-58.35 -2.2,-57.25 -2.17,-56.05 -2.13,-54.75 -2.1,-53.36 -2.07,-51.87 -2.03,-50.28 -2,-48.6 -1.97,-46.8 -1.93,-44.9 -1.9,-42.87 -1.87,-40.74 -1.83,-38.5 -1.8,-36.16 -1.77,-33.76 -1.74,-31.31 -1.7,-28.85 -1.67,-26.42 -1.64,-24.05 -1.6,-21.78 -1.57,-19.65 -1.54,-17.66 -1.5,-15.84 -1.47,-14.18 -1.44,-12.66 -1.4,-11.26 -1.37,-9.95 -1.34,-8.69 -1.31,-7.48 -1.27,-6.29 -1.24,-5.12 -1.21,-3.97 -1.17,-2.85 -1.14,-1.76 -1.11,-0.72 -1.07,0.27 -1.04,1.22 -1.01,2.11 -0.98,2.96 -0.94,3.78 -0.91,4.57 -0.88,5.34 -0.84,6.09 -0.81,6.83 -0.78,7.55 -0.74,8.24 -0.71,8.9 -0.68,9.51 -0.64,10.08 -0.61,10.59 -0.58,11.02 -0.55,11.39 -0.51,11.67 -0.48,11.87 -0.45,11.99 -0.41,12.03 -0.38,12 -0.35,11.91 -0.31,11.78 -0.28,11.64 -0.25,11.5 -0.21,11.4 -0.18,11.36 -0.15,11.39 -0.12,11.52 -0.08,11.76 -0.05,12.09 -0.02,12.51 0.02,13.01 0.05,13.55 0.08,14.12 0.12,14.68 0.15,15.22 0.18,15.71 0.21,16.14 0.25,16.51 0.28,16.82 0.31,17.08 0.35,17.3 0.38,17.5 0.41,17.68 0.45,17.86 0.48,18.05 0.51,18.23 0.55,18.41 0.58,18.58 0.61,18.74 0.64,18.88 0.68,18.98 0.71,19.06 0.74,19.1 0.78,19.11 0.81,19.1 0.84,19.07 0.88,19.03 0.91,18.99 0.94,18.95 0.98,18.93 1.01,18.92 1.04,18.93 1.07,18.95 1.11,18.99 1.14,19.04 1.17,19.09 1.21,19.14 1.24,19.19 1.27,19.24 1.31,19.29 1.34,19.35 1.37,19.41 1.4,19.48 1.44,19.55 1.47,19.64 1.5,19.73 1.54,19.83 1.57,19.92 1.6,20.01 1.64,20.09 1.67,20.15 1.7,20.2 1.74,20.24 1.77,20.27 1.8,20.28 1.83,20.29 1.87,20.31 1.9,20.32 1.93,20.34 1.97,20.37 2,20.4 2.03,20.44 2.07,20.48 2.1,20.52 2.13,20.56 2.17,20.59 2.2,20.62 2.23,20.65 2.26,20.67 2.3,20.68 2.33,20.69 2.36,20.7 2.4,20.7 2.43,20.71 2.46,20.71 2.5,20.71 2.53,20.71 2.56,20.71 2.59,20.71 2.63,20.71 2.66,20.71 2.69,20.71 2.73,20.71 2.76,20.7 2.79,20.7 2.83,20.69 2.86,20.68 2.89,20.66 2.93,20.64 2.96,20.61 2.99,20.57 3.02,20.53 3.06,20.49 3.09,20.44 3.12,20.39 3.16,20.33 3.19,20.28 3.22,20.24 3.26,20.2 3.29,20.17 3.32,20.15 3.35,20.14 3.39,20.14 3.42,20.15 3.45,20.17 3.49,20.2 3.52,20.24 3.55,20.29 3.59,20.34 3.62,20.39 3.65,20.44 3.69,20.49 3.72,20.54 3.75,20.58 3.78,20.61 3.82,20.64 3.85,20.66 3.88,20.68 3.92,20.69 3.95,20.7 3.98,20.7 4.02,20.71 4.05,20.71 4.08,20.71 4.12,20.71 4.15,20.71 4.18,20.71 4.21,20.71 " class="primitive"/>
          </g>
          <g transform="translate(91.17,95.44)" id="img-a4b9e367-36" stroke-dasharray="none" stroke="#00CD66" class="color_Area_4">
            <path fill="none" d="M-29.3,2.98 L-29.07,2.97 -28.84,2.89 -28.61,2.55 -28.39,1.38 -28.16,-1.52 -27.93,-6.74 -27.7,-13.65 -27.47,-20.34 -27.24,-25.11 -27.01,-27.61 -26.78,-28.57 -26.55,-28.84 -26.32,-28.9 -26.09,-28.91 -25.86,-28.9 -25.63,-28.89 -25.4,-28.85 -25.17,-28.7 -24.94,-28.39 -24.71,-27.84 -24.48,-27.06 -24.25,-26.04 -24.02,-24.71 -23.79,-22.95 -23.56,-20.77 -23.33,-18.31 -23.1,-15.81 -22.87,-13.51 -22.64,-11.6 -22.41,-10.09 -22.18,-8.79 -21.95,-7.51 -21.72,-6.2 -21.49,-4.9 -21.26,-3.71 -21.03,-2.76 -20.8,-2.12 -20.57,-1.74 -20.34,-1.42 -20.11,-0.94 -19.88,-0.29 -19.65,0.36 -19.42,0.82 -19.19,1.1 -18.96,1.33 -18.73,1.55 -18.5,1.73 -18.27,1.86 -18.04,1.97 -17.81,2.05 -17.58,2.11 -17.35,2.11 -17.12,2.03 -16.89,1.91 -16.66,1.82 -16.43,1.85 -16.2,1.97 -15.97,2.09 -15.74,2.16 -15.51,2.22 -15.28,2.3 -15.05,2.39 -14.82,2.47 -14.59,2.52 -14.36,2.52 -14.14,2.49 -13.91,2.44 -13.68,2.41 -13.45,2.43 -13.22,2.48 -12.99,2.53 -12.76,2.59 -12.53,2.66 -12.3,2.74 -12.07,2.8 -11.84,2.81 -11.61,2.79 -11.38,2.74 -11.15,2.68 -10.92,2.62 -10.69,2.61 -10.46,2.65 -10.23,2.74 -10,2.83 -9.77,2.9 -9.54,2.94 -9.31,2.95 -9.08,2.94 -8.85,2.92 -8.62,2.9 -8.39,2.88 -8.16,2.86 -7.93,2.84 -7.7,2.83 -7.47,2.81 -7.24,2.81 -7.01,2.83 -6.78,2.85 -6.55,2.86 -6.32,2.85 -6.09,2.84 -5.86,2.83 -5.63,2.85 -5.4,2.89 -5.17,2.93 -4.94,2.96 -4.71,2.97 -4.48,2.98 -4.25,2.98 -4.02,2.98 -3.79,2.98 -3.56,2.98 -3.33,2.98 -3.1,2.98 -2.87,2.98 -2.64,2.98 -2.41,2.98 -2.18,2.97 -1.95,2.96 -1.72,2.94 -1.49,2.92 -1.26,2.92 -1.03,2.94 -0.8,2.96 -0.57,2.97 -0.34,2.98 -0.11,2.98 0.11,2.98 0.34,2.98 0.57,2.98 0.8,2.98 1.03,2.97 1.26,2.96 1.49,2.92 1.72,2.87 1.95,2.83 2.18,2.81 2.41,2.84 2.64,2.89 2.87,2.94 3.1,2.96 3.33,2.97 3.56,2.98 3.79,2.98 4.02,2.97 4.25,2.97 4.48,2.95 4.71,2.93 4.94,2.91 5.17,2.92 5.4,2.93 5.63,2.92 5.86,2.92 6.09,2.92 6.32,2.94 6.55,2.96 6.78,2.97 7.01,2.98 7.24,2.98 7.47,2.98 7.7,2.98 7.93,2.98 8.16,2.98 8.39,2.98 8.62,2.98 8.85,2.98 9.08,2.98 9.31,2.98 9.54,2.98 9.77,2.98 10,2.98 10.23,2.98 10.46,2.98 10.69,2.98 10.92,2.98 11.15,2.98 11.38,2.98 11.61,2.98 11.84,2.98 12.07,2.98 12.3,2.98 12.53,2.98 12.76,2.98 12.99,2.98 13.22,2.98 13.45,2.98 13.68,2.98 13.91,2.98 14.14,2.98 14.36,2.98 14.59,2.98 14.82,2.98 15.05,2.98 15.28,2.98 15.51,2.98 15.74,2.98 15.97,2.98 16.2,2.98 16.43,2.98 16.66,2.98 16.89,2.98 17.12,2.98 17.35,2.98 17.58,2.98 17.81,2.98 18.04,2.98 18.27,2.98 18.5,2.98 18.73,2.98 18.96,2.98 19.19,2.98 19.42,2.98 19.65,2.98 19.88,2.98 20.11,2.98 20.34,2.98 20.57,2.98 20.8,2.98 21.03,2.98 21.26,2.98 21.49,2.98 21.72,2.98 21.95,2.98 22.18,2.98 22.41,2.98 22.64,2.98 22.87,2.98 23.1,2.98 23.33,2.98 23.56,2.98 23.79,2.98 24.02,2.98 24.25,2.98 24.48,2.98 24.71,2.98 24.94,2.98 25.17,2.98 25.4,2.98 25.63,2.98 25.86,2.98 26.09,2.98 26.32,2.97 26.55,2.96 26.78,2.94 27.01,2.91 27.24,2.89 27.47,2.88 27.7,2.89 27.93,2.91 28.16,2.94 28.39,2.96 28.61,2.97 28.84,2.98 29.07,2.98 29.3,2.98 " class="primitive"/>
          </g>
        </g>
      </g>
    </g>
  </g>
  <g class="guide ylabels" font-size="3.53" font-family="CMU Serif" fill="#6C606B" id="img-a4b9e367-37">
    <g transform="translate(22.11,98.42)" id="img-a4b9e367-38">
      <g class="primitive">
        <text text-anchor="end" dy="0.35em">0.000</text>
      </g>
    </g>
    <g transform="translate(22.11,52.71)" id="img-a4b9e367-39">
      <g class="primitive">
        <text text-anchor="end" dy="0.35em">0.005</text>
      </g>
    </g>
    <g transform="translate(22.11,7)" id="img-a4b9e367-40">
      <g class="primitive">
        <text text-anchor="end" dy="0.35em">0.010</text>
      </g>
    </g>
  </g>
  <g font-size="3.53" font-family="CMU Serif" fill="#564A55" stroke="#000000" stroke-opacity="0.000" id="img-a4b9e367-41">
    <g transform="translate(8.65,50.71)" id="img-a4b9e367-42">
      <g class="primitive">
        <text text-anchor="middle" dy="0.35em" transform="rotate(-90,0, 2)">Density</text>
      </g>
    </g>
  </g>
</g>
<defs>
  <clipPath id="img-a4b9e367-17">
    <path d="M23.11,5 L180.48,5 180.48,100.42 23.11,100.42 " />
  </clipPath>
</defs>
</svg>
