<?xml version="1.0" encoding="UTF-8"?>
<svg xmlns="http://www.w3.org/2000/svg"
     xmlns:xlink="http://www.w3.org/1999/xlink"
     xmlns:gadfly="http://www.gadflyjl.org/ns"
     version="1.2"
     width="300mm" height="120mm" viewBox="0 0 300 120"
     stroke="none"
     fill="#000000"
     stroke-width="0.3"
     font-size="3.88"
>
<defs>
  <marker id="arrow" markerWidth="15" markerHeight="7" refX="5" refY="3.5" orient="auto" markerUnits="strokeWidth">
    <path d="M0,0 L15,3.5 L0,7 z" stroke="context-stroke" fill="context-stroke"/>
  </marker>
</defs>
<g class="plotroot xscalable yscalable" id="img-0280dc12-1">
  <g font-size="4.59" font-family="CMU Serif" fill="#564A55" stroke="#000000" stroke-opacity="0.000" id="img-0280dc12-2">
    <g transform="translate(226.81,107.72)">
      <g class="primitive">
        <text text-anchor="middle" dy="0.6em">Proper Motion Declination (mas/yr)</text>
      </g>
    </g>
  </g>
  <g class="guide xlabels" font-size="4.59" font-family="CMU Serif" fill="#6C606B" id="img-0280dc12-3">
    <g transform="translate(178.88,99.44)">
      <g class="primitive">
        <text text-anchor="middle" dy="0.6em">0</text>
      </g>
    </g>
    <g transform="translate(214.11,99.44)">
      <g class="primitive">
        <text text-anchor="middle" dy="0.6em">500</text>
      </g>
    </g>
    <g transform="translate(249.34,99.44)">
      <g class="primitive">
        <text text-anchor="middle" dy="0.6em">1000</text>
      </g>
    </g>
  </g>
  <g class="guide colorkey" id="img-0280dc12-4">
    <g fill="#4C404B" font-size="4.59" font-family="CMU Serif" id="img-0280dc12-5">
      <g transform="translate(281.51,46.44)" id="img-0280dc12-6" class="color_Area_1">
        <g class="primitive">
          <text dy="0.35em">Area 1</text>
        </g>
      </g>
      <g transform="translate(281.51,51.72)" id="img-0280dc12-7" class="color_Area_2">
        <g class="primitive">
          <text dy="0.35em">Area 2</text>
        </g>
      </g>
      <g transform="translate(281.51,57)" id="img-0280dc12-8" class="color_Area_3">
        <g class="primitive">
          <text dy="0.35em">Area 3</text>
        </g>
      </g>
      <g transform="translate(281.51,62.28)" id="img-0280dc12-9" class="color_Area_4">
        <g class="primitive">
          <text dy="0.35em">Area 4</text>
        </g>
      </g>
    </g>
    <g fill-opacity="1" id="img-0280dc12-10">
      <g transform="translate(279.19,46.44)" id="img-0280dc12-11" stroke="#FFFFFF" class="color_Area_1" fill="#FF6347">
        <path d="M-1.32,-1.32 L1.32,-1.32 1.32,1.32 -1.32,1.32  z" class="primitive"/>
      </g>
      <g transform="translate(279.19,51.72)" id="img-0280dc12-12" stroke="#FFFFFF" class="color_Area_2" fill="#4169E1">
        <path d="M-1.32,-1.32 L1.32,-1.32 1.32,1.32 -1.32,1.32  z" class="primitive"/>
      </g>
      <g transform="translate(279.19,57)" id="img-0280dc12-13" stroke="#FFFFFF" class="color_Area_3" fill="#B23AEE">
        <path d="M-1.32,-1.32 L1.32,-1.32 1.32,1.32 -1.32,1.32  z" class="primitive"/>
      </g>
      <g transform="translate(279.19,62.28)" id="img-0280dc12-14" stroke="#FFFFFF" class="color_Area_4" fill="#00CD66">
        <path d="M-1.32,-1.32 L1.32,-1.32 1.32,1.32 -1.32,1.32  z" class="primitive"/>
      </g>
    </g>
    <g fill="#362A35" font-size="5.29" font-family="CMU Serif" stroke="#000000" stroke-opacity="0.000" id="img-0280dc12-15">
      <g transform="translate(277.87,41.63)" id="img-0280dc12-16">
        <g class="primitive">
          <text dy="-0em">Area</text>
        </g>
      </g>
    </g>
  </g>
  <g clip-path="url(#img-0280dc12-17)">
    <g id="img-0280dc12-18">
      <g pointer-events="visible" stroke-width="0.3" fill="#000000" fill-opacity="0.000" stroke="#000000" stroke-opacity="0.000" class="guide background" id="img-0280dc12-19">
        <g transform="translate(226.81,51.72)" id="img-0280dc12-20">
          <path d="M-50.07,-46.72 L50.07,-46.72 50.07,46.72 -50.07,46.72  z" class="primitive"/>
        </g>
      </g>
      <g class="guide ygridlines xfixed" stroke-dasharray="0.5,0.5" stroke-width="0.2" stroke="#D0D0E0" id="img-0280dc12-21">
        <g transform="translate(226.81,96.44)" id="img-0280dc12-22">
          <path fill="none" d="M-50.07,0 L50.07,0 " class="primitive"/>
        </g>
        <g transform="translate(226.81,66.63)" id="img-0280dc12-23">
          <path fill="none" d="M-50.07,0 L50.07,0 " class="primitive"/>
        </g>
        <g transform="translate(226.81,36.81)" id="img-0280dc12-24">
          <path fill="none" d="M-50.07,0 L50.07,0 " class="primitive"/>
        </g>
        <g transform="translate(226.81,7)" id="img-0280dc12-25">
          <path fill="none" d="M-50.07,0 L50.07,0 " class="primitive"/>
        </g>
      </g>
      <g class="guide xgridlines yfixed" stroke-dasharray="0.5,0.5" stroke-width="0.2" stroke="#D0D0E0" id="img-0280dc12-26">
        <g transform="translate(178.88,51.72)" id="img-0280dc12-27">
          <path fill="none" d="M0,-46.72 L0,46.72 " class="primitive"/>
        </g>
        <g transform="translate(214.11,51.72)" id="img-0280dc12-28">
          <path fill="none" d="M0,-46.72 L0,46.72 " class="primitive"/>
        </g>
        <g transform="translate(249.34,51.72)" id="img-0280dc12-29">
          <path fill="none" d="M0,-46.72 L0,46.72 " class="primitive"/>
        </g>
      </g>
      <g class="plotpanel" id="img-0280dc12-30">
        <metadata>
          <boundingbox value="176.74083333333334mm 5.0mm 100.13208333333334mm 93.44166666666666mm"/>
          <unitbox value="-30.38634247940391 0.015335414143296375 1421.1918053381064 -0.01567082828659275"/>
        </metadata>
        <g stroke-width="0.3" fill="#000000" fill-opacity="0.000" class="geometry" id="img-0280dc12-31">
          <g transform="translate(224.27,92.31)" id="img-0280dc12-32" stroke-dasharray="none" stroke="#FF6347" class="color_Area_1">
            <path fill="none" d="M-50.6,4.13 L-50.21,4.13 -49.81,4.13 -49.41,4.13 -49.02,4.11 -48.62,4.07 -48.22,3.95 -47.82,3.67 -47.43,3.07 -47.03,1.95 -46.63,0.09 -46.24,-2.64 -45.84,-6.2 -45.44,-10.3 -45.05,-14.48 -44.65,-18.23 -44.25,-21.22 -43.86,-23.31 -43.46,-24.61 -43.06,-25.32 -42.67,-25.66 -42.27,-25.81 -41.87,-25.86 -41.47,-25.88 -41.08,-25.88 -40.68,-25.88 -40.28,-25.87 -39.89,-25.85 -39.49,-25.82 -39.09,-25.75 -38.7,-25.64 -38.3,-25.44 -37.9,-25.1 -37.51,-24.6 -37.11,-23.88 -36.71,-22.96 -36.32,-21.86 -35.92,-20.64 -35.52,-19.34 -35.12,-18.02 -34.73,-16.73 -34.33,-15.49 -33.93,-14.32 -33.54,-13.21 -33.14,-12.13 -32.74,-11.07 -32.35,-10.02 -31.95,-8.97 -31.55,-7.94 -31.16,-6.98 -30.76,-6.09 -30.36,-5.29 -29.97,-4.57 -29.57,-3.93 -29.17,-3.35 -28.77,-2.82 -28.38,-2.32 -27.98,-1.85 -27.58,-1.4 -27.19,-0.98 -26.79,-0.61 -26.39,-0.28 -26,0.02 -25.6,0.3 -25.2,0.6 -24.81,0.89 -24.41,1.18 -24.01,1.43 -23.61,1.64 -23.22,1.82 -22.82,1.98 -22.42,2.14 -22.03,2.3 -21.63,2.45 -21.23,2.59 -20.84,2.7 -20.44,2.79 -20.04,2.86 -19.65,2.91 -19.25,2.97 -18.85,3.04 -18.46,3.13 -18.06,3.24 -17.66,3.37 -17.26,3.51 -16.87,3.64 -16.47,3.75 -16.07,3.83 -15.68,3.88 -15.28,3.91 -14.88,3.93 -14.49,3.96 -14.09,3.98 -13.69,3.99 -13.3,3.99 -12.9,3.96 -12.5,3.9 -12.11,3.83 -11.71,3.75 -11.31,3.7 -10.91,3.67 -10.52,3.67 -10.12,3.7 -9.72,3.74 -9.33,3.79 -8.93,3.84 -8.53,3.88 -8.14,3.92 -7.74,3.95 -7.34,3.96 -6.95,3.97 -6.55,3.96 -6.15,3.97 -5.75,3.98 -5.36,4.01 -4.96,4.04 -4.56,4.07 -4.17,4.1 -3.77,4.11 -3.37,4.12 -2.98,4.12 -2.58,4.11 -2.18,4.09 -1.79,4.08 -1.39,4.06 -0.99,4.06 -0.6,4.06 -0.2,4.07 0.2,4.09 0.6,4.1 0.99,4.11 1.39,4.11 1.79,4.1 2.18,4.07 2.58,4.04 2.98,4.01 3.37,3.98 3.77,3.96 4.17,3.95 4.56,3.96 4.96,3.98 5.36,4.01 5.75,4.04 6.15,4.06 6.55,4.09 6.95,4.11 7.34,4.12 7.74,4.13 8.14,4.13 8.53,4.13 8.93,4.13 9.33,4.13 9.72,4.13 10.12,4.13 10.52,4.13 10.91,4.13 11.31,4.13 11.71,4.13 12.11,4.13 12.5,4.13 12.9,4.13 13.3,4.13 13.69,4.13 14.09,4.13 14.49,4.13 14.88,4.12 15.28,4.1 15.68,4.09 16.07,4.07 16.47,4.06 16.87,4.06 17.26,4.07 17.66,4.08 18.06,4.09 18.46,4.11 18.85,4.12 19.25,4.13 19.65,4.13 20.04,4.12 20.44,4.12 20.84,4.1 21.23,4.09 21.63,4.07 22.03,4.06 22.42,4.06 22.82,4.07 23.22,4.08 23.61,4.1 24.01,4.11 24.41,4.12 24.81,4.13 25.2,4.13 25.6,4.13 26,4.13 26.39,4.13 26.79,4.13 27.19,4.13 27.58,4.13 27.98,4.13 28.38,4.13 28.77,4.13 29.17,4.13 29.57,4.13 29.97,4.13 30.36,4.13 30.76,4.13 31.16,4.13 31.55,4.13 31.95,4.13 32.35,4.13 32.74,4.13 33.14,4.13 33.54,4.13 33.93,4.13 34.33,4.13 34.73,4.13 35.12,4.13 35.52,4.13 35.92,4.13 36.32,4.13 36.71,4.13 37.11,4.13 37.51,4.13 37.9,4.13 38.3,4.13 38.7,4.13 39.09,4.13 39.49,4.13 39.89,4.13 40.28,4.13 40.68,4.13 41.08,4.13 41.47,4.13 41.87,4.13 42.27,4.13 42.67,4.13 43.06,4.13 43.46,4.13 43.86,4.13 44.25,4.12 44.65,4.1 45.05,4.09 45.44,4.07 45.84,4.06 46.24,4.06 46.63,4.07 47.03,4.08 47.43,4.09 47.82,4.11 48.22,4.12 48.62,4.13 49.02,4.13 49.41,4.13 49.81,4.13 50.21,4.13 50.6,4.13 " class="primitive"/>
          </g>
          <g transform="translate(222.89,92.16)" id="img-0280dc12-33" stroke-dasharray="none" stroke="#B23AEE" class="color_Area_3">
            <path fill="none" d="M-48.89,4.28 L-48.5,4.28 -48.12,4.27 -47.74,4.26 -47.35,4.22 -46.97,4.12 -46.58,3.89 -46.2,3.42 -45.82,2.56 -45.43,1.16 -45.05,-0.91 -44.67,-3.68 -44.28,-6.99 -43.9,-10.56 -43.52,-14.02 -43.13,-17.06 -42.75,-19.44 -42.37,-21.13 -41.98,-22.21 -41.6,-22.83 -41.22,-23.15 -40.83,-23.3 -40.45,-23.37 -40.07,-23.39 -39.68,-23.4 -39.3,-23.4 -38.92,-23.4 -38.53,-23.39 -38.15,-23.38 -37.77,-23.36 -37.38,-23.32 -37,-23.24 -36.62,-23.1 -36.23,-22.89 -35.85,-22.58 -35.47,-22.16 -35.08,-21.63 -34.7,-21 -34.32,-20.28 -33.93,-19.49 -33.55,-18.61 -33.17,-17.65 -32.78,-16.58 -32.4,-15.42 -32.02,-14.19 -31.63,-12.92 -31.25,-11.66 -30.86,-10.45 -30.48,-9.34 -30.1,-8.36 -29.71,-7.54 -29.33,-6.84 -28.95,-6.24 -28.56,-5.68 -28.18,-5.11 -27.8,-4.52 -27.41,-3.92 -27.03,-3.33 -26.65,-2.79 -26.26,-2.31 -25.88,-1.91 -25.5,-1.57 -25.11,-1.28 -24.73,-0.98 -24.35,-0.66 -23.96,-0.28 -23.58,0.15 -23.2,0.59 -22.81,1.02 -22.43,1.41 -22.05,1.72 -21.66,1.95 -21.28,2.11 -20.9,2.2 -20.51,2.27 -20.13,2.32 -19.75,2.38 -19.36,2.44 -18.98,2.51 -18.6,2.6 -18.21,2.7 -17.83,2.83 -17.45,2.98 -17.06,3.14 -16.68,3.3 -16.3,3.42 -15.91,3.5 -15.53,3.52 -15.14,3.51 -14.76,3.46 -14.38,3.42 -13.99,3.38 -13.61,3.38 -13.23,3.4 -12.84,3.45 -12.46,3.51 -12.08,3.58 -11.69,3.64 -11.31,3.7 -10.93,3.74 -10.54,3.75 -10.16,3.75 -9.78,3.74 -9.39,3.74 -9.01,3.75 -8.63,3.8 -8.24,3.86 -7.86,3.94 -7.48,4.02 -7.09,4.09 -6.71,4.14 -6.33,4.17 -5.94,4.18 -5.56,4.19 -5.18,4.19 -4.79,4.19 -4.41,4.17 -4.03,4.16 -3.64,4.13 -3.26,4.1 -2.88,4.08 -2.49,4.06 -2.11,4.04 -1.73,4.03 -1.34,4.01 -0.96,3.97 -0.58,3.93 -0.19,3.88 0.19,3.84 0.58,3.81 0.96,3.81 1.34,3.83 1.73,3.88 2.11,3.94 2.49,4.02 2.88,4.09 3.26,4.15 3.64,4.2 4.03,4.22 4.41,4.23 4.79,4.22 5.18,4.2 5.56,4.16 5.94,4.11 6.33,4.07 6.71,4.03 7.09,4.01 7.48,4 7.86,4.02 8.24,4.05 8.63,4.09 9.01,4.14 9.39,4.18 9.78,4.21 10.16,4.24 10.54,4.26 10.93,4.27 11.31,4.27 11.69,4.28 12.08,4.28 12.46,4.28 12.84,4.28 13.23,4.28 13.61,4.28 13.99,4.28 14.38,4.28 14.76,4.28 15.14,4.28 15.53,4.28 15.91,4.28 16.3,4.28 16.68,4.27 17.06,4.27 17.45,4.26 17.83,4.25 18.21,4.23 18.6,4.22 18.98,4.22 19.36,4.21 19.75,4.22 20.13,4.23 20.51,4.24 20.9,4.26 21.28,4.27 21.66,4.27 22.05,4.28 22.43,4.28 22.81,4.28 23.2,4.28 23.58,4.28 23.96,4.28 24.35,4.28 24.73,4.28 25.11,4.28 25.5,4.28 25.88,4.28 26.26,4.28 26.65,4.28 27.03,4.28 27.41,4.28 27.8,4.28 28.18,4.28 28.56,4.28 28.95,4.28 29.33,4.28 29.71,4.28 30.1,4.28 30.48,4.28 30.86,4.28 31.25,4.28 31.63,4.28 32.02,4.28 32.4,4.28 32.78,4.28 33.17,4.28 33.55,4.28 33.93,4.28 34.32,4.28 34.7,4.28 35.08,4.28 35.47,4.28 35.85,4.27 36.23,4.27 36.62,4.26 37,4.24 37.38,4.23 37.77,4.22 38.15,4.21 38.53,4.22 38.92,4.22 39.3,4.23 39.68,4.25 40.07,4.26 40.45,4.27 40.83,4.27 41.22,4.27 41.6,4.27 41.98,4.27 42.37,4.26 42.75,4.25 43.13,4.24 43.52,4.22 43.9,4.22 44.28,4.21 44.67,4.22 45.05,4.23 45.43,4.24 45.82,4.25 46.2,4.26 46.58,4.27 46.97,4.28 47.35,4.28 47.74,4.28 48.12,4.28 48.5,4.28 48.89,4.28 " class="primitive"/>
          </g>
          <g transform="translate(192.97,83.78)" id="img-0280dc12-34" stroke-dasharray="none" stroke="#4169E1" class="color_Area_2">
            <path fill="none" d="M-16.53,12.66 L-16.4,12.66 -16.27,12.65 -16.14,12.64 -16.01,12.63 -15.88,12.59 -15.75,12.52 -15.62,12.38 -15.49,12.13 -15.36,11.71 -15.23,11.02 -15.1,9.95 -14.97,8.37 -14.84,6.15 -14.71,3.19 -14.59,-0.57 -14.46,-5.12 -14.33,-10.34 -14.2,-16.05 -14.07,-21.99 -13.94,-27.86 -13.81,-33.39 -13.68,-38.34 -13.55,-42.55 -13.42,-45.96 -13.29,-48.59 -13.16,-50.52 -13.03,-51.86 -12.9,-52.75 -12.77,-53.3 -12.64,-53.64 -12.51,-53.83 -12.38,-53.92 -12.25,-53.96 -12.12,-53.96 -11.99,-53.94 -11.86,-53.88 -11.73,-53.8 -11.6,-53.68 -11.47,-53.52 -11.34,-53.31 -11.21,-53.03 -11.08,-52.68 -10.95,-52.25 -10.83,-51.72 -10.7,-51.09 -10.57,-50.35 -10.44,-49.5 -10.31,-48.53 -10.18,-47.42 -10.05,-46.17 -9.92,-44.76 -9.79,-43.18 -9.66,-41.39 -9.53,-39.39 -9.4,-37.17 -9.27,-34.75 -9.14,-32.15 -9.01,-29.42 -8.88,-26.65 -8.75,-23.89 -8.62,-21.22 -8.49,-18.71 -8.36,-16.4 -8.23,-14.3 -8.1,-12.42 -7.97,-10.74 -7.84,-9.25 -7.71,-7.9 -7.58,-6.69 -7.45,-5.57 -7.32,-4.56 -7.2,-3.65 -7.07,-2.85 -6.94,-2.2 -6.81,-1.68 -6.68,-1.31 -6.55,-1.05 -6.42,-0.86 -6.29,-0.7 -6.16,-0.5 -6.03,-0.23 -5.9,0.15 -5.77,0.65 -5.64,1.24 -5.51,1.91 -5.38,2.61 -5.25,3.33 -5.12,4.01 -4.99,4.65 -4.86,5.21 -4.73,5.69 -4.6,6.1 -4.47,6.42 -4.34,6.67 -4.21,6.86 -4.08,7 -3.95,7.12 -3.82,7.23 -3.69,7.34 -3.57,7.47 -3.44,7.61 -3.31,7.77 -3.18,7.93 -3.05,8.1 -2.92,8.27 -2.79,8.42 -2.66,8.56 -2.53,8.7 -2.4,8.84 -2.27,8.98 -2.14,9.14 -2.01,9.3 -1.88,9.45 -1.75,9.59 -1.62,9.72 -1.49,9.81 -1.36,9.88 -1.23,9.94 -1.1,9.99 -0.97,10.06 -0.84,10.15 -0.71,10.29 -0.58,10.46 -0.45,10.66 -0.32,10.87 -0.19,11.1 -0.06,11.3 0.06,11.49 0.19,11.64 0.32,11.75 0.45,11.82 0.58,11.85 0.71,11.85 0.84,11.82 0.97,11.78 1.1,11.74 1.23,11.71 1.36,11.69 1.49,11.7 1.62,11.74 1.75,11.79 1.88,11.86 2.01,11.93 2.14,11.99 2.27,12.01 2.4,12.01 2.53,11.97 2.66,11.9 2.79,11.82 2.92,11.75 3.05,11.69 3.18,11.67 3.31,11.7 3.44,11.76 3.57,11.86 3.69,11.98 3.82,12.12 3.95,12.24 4.08,12.36 4.21,12.45 4.34,12.52 4.47,12.57 4.6,12.61 4.73,12.63 4.86,12.64 4.99,12.65 5.12,12.65 5.25,12.66 5.38,12.66 5.51,12.66 5.64,12.66 5.77,12.66 5.9,12.66 6.03,12.66 6.16,12.66 6.29,12.65 6.42,12.65 6.55,12.64 6.68,12.63 6.81,12.62 6.94,12.6 7.07,12.57 7.2,12.53 7.32,12.49 7.45,12.44 7.58,12.4 7.71,12.37 7.84,12.34 7.97,12.33 8.1,12.34 8.23,12.36 8.36,12.4 8.49,12.44 8.62,12.48 8.75,12.52 8.88,12.56 9.01,12.59 9.14,12.62 9.27,12.63 9.4,12.64 9.53,12.65 9.66,12.65 9.79,12.66 9.92,12.66 10.05,12.66 10.18,12.66 10.31,12.66 10.44,12.66 10.57,12.66 10.7,12.66 10.83,12.66 10.95,12.66 11.08,12.66 11.21,12.66 11.34,12.66 11.47,12.66 11.6,12.66 11.73,12.66 11.86,12.66 11.99,12.66 12.12,12.66 12.25,12.65 12.38,12.65 12.51,12.63 12.64,12.62 12.77,12.59 12.9,12.54 13.03,12.48 13.16,12.39 13.29,12.29 13.42,12.17 13.55,12.04 13.68,11.92 13.81,11.81 13.94,11.73 14.07,11.7 14.2,11.71 14.33,11.77 14.46,11.86 14.59,11.98 14.71,12.11 14.84,12.23 14.97,12.34 15.1,12.44 15.23,12.51 15.36,12.56 15.49,12.6 15.62,12.63 15.75,12.64 15.88,12.65 16.01,12.65 16.14,12.66 16.27,12.66 16.4,12.66 16.53,12.66 " class="primitive"/>
          </g>
          <g transform="translate(200.06,87.77)" id="img-0280dc12-35" stroke-dasharray="none" stroke="#00CD66" class="color_Area_4">
            <path fill="none" d="M-24.13,8.67 L-23.94,8.67 -23.76,8.66 -23.57,8.65 -23.38,8.62 -23.19,8.56 -23,8.42 -22.81,8.14 -22.62,7.61 -22.43,6.69 -22.24,5.21 -22.05,2.99 -21.86,-0.12 -21.67,-4.16 -21.48,-9.04 -21.29,-14.52 -21.11,-20.24 -20.92,-25.79 -20.73,-30.81 -20.54,-35.01 -20.35,-38.3 -20.16,-40.68 -19.97,-42.28 -19.78,-43.28 -19.59,-43.87 -19.4,-44.19 -19.21,-44.35 -19.02,-44.42 -18.83,-44.45 -18.64,-44.46 -18.46,-44.45 -18.27,-44.44 -18.08,-44.4 -17.89,-44.34 -17.7,-44.23 -17.51,-44.05 -17.32,-43.77 -17.13,-43.36 -16.94,-42.8 -16.75,-42.04 -16.56,-41.08 -16.37,-39.91 -16.18,-38.55 -15.99,-37 -15.81,-35.29 -15.62,-33.43 -15.43,-31.45 -15.24,-29.35 -15.05,-27.15 -14.86,-24.89 -14.67,-22.62 -14.48,-20.4 -14.29,-18.29 -14.1,-16.33 -13.91,-14.56 -13.72,-13 -13.53,-11.64 -13.34,-10.47 -13.16,-9.49 -12.97,-8.65 -12.78,-7.9 -12.59,-7.2 -12.4,-6.48 -12.21,-5.71 -12.02,-4.86 -11.83,-3.93 -11.64,-2.96 -11.45,-2 -11.26,-1.09 -11.07,-0.28 -10.88,0.41 -10.69,1 -10.51,1.5 -10.32,1.94 -10.13,2.37 -9.94,2.79 -9.75,3.19 -9.56,3.57 -9.37,3.91 -9.18,4.2 -8.99,4.45 -8.8,4.68 -8.61,4.9 -8.42,5.14 -8.23,5.4 -8.04,5.69 -7.86,5.99 -7.67,6.29 -7.48,6.58 -7.29,6.84 -7.1,7.05 -6.91,7.21 -6.72,7.31 -6.53,7.35 -6.34,7.35 -6.15,7.33 -5.96,7.3 -5.77,7.28 -5.58,7.29 -5.39,7.33 -5.21,7.39 -5.02,7.46 -4.83,7.53 -4.64,7.58 -4.45,7.6 -4.26,7.58 -4.07,7.55 -3.88,7.51 -3.69,7.47 -3.5,7.45 -3.31,7.46 -3.12,7.51 -2.93,7.58 -2.74,7.68 -2.56,7.77 -2.37,7.85 -2.18,7.92 -1.99,7.97 -1.8,7.99 -1.61,8.01 -1.42,8.01 -1.23,7.98 -1.04,7.94 -0.85,7.88 -0.66,7.79 -0.47,7.69 -0.28,7.59 -0.09,7.49 0.09,7.4 0.28,7.33 0.47,7.3 0.66,7.3 0.85,7.34 1.04,7.41 1.23,7.52 1.42,7.63 1.61,7.74 1.8,7.82 1.99,7.88 2.18,7.91 2.37,7.93 2.56,7.95 2.74,7.98 2.93,8.03 3.12,8.09 3.31,8.14 3.5,8.19 3.69,8.22 3.88,8.24 4.07,8.24 4.26,8.24 4.45,8.25 4.64,8.27 4.83,8.31 5.02,8.36 5.21,8.42 5.39,8.48 5.58,8.53 5.77,8.56 5.96,8.58 6.15,8.58 6.34,8.56 6.53,8.52 6.72,8.47 6.91,8.41 7.1,8.35 7.29,8.3 7.48,8.27 7.67,8.26 7.86,8.28 8.04,8.32 8.23,8.37 8.42,8.42 8.61,8.46 8.8,8.48 8.99,8.49 9.18,8.48 9.37,8.47 9.56,8.46 9.75,8.45 9.94,8.46 10.13,8.48 10.32,8.5 10.51,8.54 10.69,8.57 10.88,8.6 11.07,8.61 11.26,8.62 11.45,8.61 11.64,8.59 11.83,8.56 12.02,8.53 12.21,8.5 12.4,8.47 12.59,8.46 12.78,8.46 12.97,8.47 13.16,8.5 13.34,8.54 13.53,8.57 13.72,8.6 13.91,8.63 14.1,8.64 14.29,8.66 14.48,8.66 14.67,8.67 14.86,8.67 15.05,8.67 15.24,8.67 15.43,8.67 15.62,8.66 15.81,8.65 15.99,8.64 16.18,8.62 16.37,8.59 16.56,8.56 16.75,8.52 16.94,8.49 17.13,8.47 17.32,8.46 17.51,8.46 17.7,8.48 17.89,8.51 18.08,8.54 18.27,8.58 18.46,8.61 18.64,8.63 18.83,8.65 19.02,8.65 19.21,8.66 19.4,8.65 19.59,8.64 19.78,8.62 19.97,8.58 20.16,8.54 20.35,8.48 20.54,8.41 20.73,8.34 20.92,8.29 21.11,8.25 21.29,8.25 21.48,8.27 21.67,8.32 21.86,8.39 22.05,8.45 22.24,8.52 22.43,8.57 22.62,8.61 22.81,8.63 23,8.65 23.19,8.66 23.38,8.67 23.57,8.67 23.76,8.67 23.94,8.67 24.13,8.67 " class="primitive"/>
          </g>
        </g>
      </g>
    </g>
  </g>
  <g class="guide ylabels" font-size="4.59" font-family="CMU Serif" fill="#6C606B" id="img-0280dc12-36">
    <g transform="translate(175.74,96.44)" id="img-0280dc12-37">
      <g class="primitive">
        <text text-anchor="end" dy="0.35em">0.000</text>
      </g>
    </g>
    <g transform="translate(175.74,66.63)" id="img-0280dc12-38">
      <g class="primitive">
        <text text-anchor="end" dy="0.35em">0.005</text>
      </g>
    </g>
    <g transform="translate(175.74,36.81)" id="img-0280dc12-39">
      <g class="primitive">
        <text text-anchor="end" dy="0.35em">0.010</text>
      </g>
    </g>
    <g transform="translate(175.74,7)" id="img-0280dc12-40">
      <g class="primitive">
        <text text-anchor="end" dy="0.35em">0.015</text>
      </g>
    </g>
  </g>
  <g font-size="4.59" font-family="CMU Serif" fill="#564A55" stroke="#000000" stroke-opacity="0.000" id="img-0280dc12-41">
    <g transform="translate(159.14,49.72)" id="img-0280dc12-42">
      <g class="primitive">
        <text text-anchor="middle" dy="0.35em" transform="rotate(-90,0, 2)">Density</text>
      </g>
    </g>
  </g>
</g>
<g class="plotroot xscalable yscalable" id="img-0280dc12-43">
  <g font-size="4.59" font-family="CMU Serif" fill="#564A55" stroke="#000000" stroke-opacity="0.000" id="img-0280dc12-44">
    <g transform="translate(85.87,107.72)" id="img-0280dc12-45">
      <g class="primitive">
        <text text-anchor="middle" dy="0.6em">Proper Motion Right Ascension (mas/yr)</text>
      </g>
    </g>
  </g>
  <g class="guide xlabels" font-size="4.59" font-family="CMU Serif" fill="#6C606B" id="img-0280dc12-46">
    <g transform="translate(28.78,99.44)" id="img-0280dc12-47">
      <g class="primitive">
        <text text-anchor="middle" dy="0.6em">0</text>
      </g>
    </g>
    <g transform="translate(68.68,99.44)" id="img-0280dc12-48">
      <g class="primitive">
        <text text-anchor="middle" dy="0.6em">2.00×10³</text>
      </g>
    </g>
    <g transform="translate(108.59,99.44)" id="img-0280dc12-49">
      <g class="primitive">
        <text text-anchor="middle" dy="0.6em">4.00×10³</text>
      </g>
    </g>
  </g>
  <g clip-path="url(#img-0280dc12-50)">
    <g id="img-0280dc12-51">
      <g pointer-events="visible" stroke-width="0.3" fill="#000000" fill-opacity="0.000" stroke="#000000" stroke-opacity="0.000" class="guide background" id="img-0280dc12-52">
        <g transform="translate(85.87,51.72)" id="img-0280dc12-53">
          <path d="M-59.13,-46.72 L59.13,-46.72 59.13,46.72 -59.13,46.72  z" class="primitive"/>
        </g>
      </g>
      <g class="guide ygridlines xfixed" stroke-dasharray="0.5,0.5" stroke-width="0.2" stroke="#D0D0E0" id="img-0280dc12-54">
        <g transform="translate(85.87,96.44)" id="img-0280dc12-55">
          <path fill="none" d="M-59.13,0 L59.13,0 " class="primitive"/>
        </g>
        <g transform="translate(85.87,66.63)" id="img-0280dc12-56">
          <path fill="none" d="M-59.13,0 L59.13,0 " class="primitive"/>
        </g>
        <g transform="translate(85.87,36.81)" id="img-0280dc12-57">
          <path fill="none" d="M-59.13,0 L59.13,0 " class="primitive"/>
        </g>
        <g transform="translate(85.87,7)" id="img-0280dc12-58">
          <path fill="none" d="M-59.13,0 L59.13,0 " class="primitive"/>
        </g>
      </g>
      <g class="guide xgridlines yfixed" stroke-dasharray="0.5,0.5" stroke-width="0.2" stroke="#D0D0E0" id="img-0280dc12-59">
        <g transform="translate(28.78,51.72)" id="img-0280dc12-60">
          <path fill="none" d="M0,-46.72 L0,46.72 " class="primitive"/>
        </g>
        <g transform="translate(68.68,51.72)" id="img-0280dc12-61">
          <path fill="none" d="M0,-46.72 L0,46.72 " class="primitive"/>
        </g>
        <g transform="translate(108.59,51.72)" id="img-0280dc12-62">
          <path fill="none" d="M0,-46.72 L0,46.72 " class="primitive"/>
        </g>
      </g>
      <g class="plotpanel" id="img-0280dc12-63">
        <metadata>
          <boundingbox value="26.740833333333327mm 5.0mm 118.25916666666667mm 93.44166666666666mm"/>
          <unitbox value="-102.24009625786452 0.015335414143296375 5927.155125020755 -0.01567082828659275"/>
        </metadata>
        <g stroke-width="0.3" fill="#000000" fill-opacity="0.000" class="geometry" id="img-0280dc12-64">
          <g transform="translate(68.71,95.01)" id="img-0280dc12-65" stroke-dasharray="none" stroke="#FF6347" class="color_Area_1">
            <path fill="none" d="M-41.31,1.43 L-40.99,1.38 -40.66,0.8 -40.34,-2.07 -40.02,-9.18 -39.69,-17.96 -39.37,-23.19 -39.04,-24.64 -38.72,-24.83 -38.4,-24.84 -38.07,-24.81 -37.75,-24.61 -37.42,-23.9 -37.1,-22.37 -36.78,-20.03 -36.45,-17.06 -36.13,-14.08 -35.8,-11.71 -35.48,-9.65 -35.16,-7.3 -34.83,-4.92 -34.51,-3.33 -34.18,-2.52 -33.86,-1.93 -33.54,-1.39 -33.21,-0.83 -32.89,-0.4 -32.56,-0.25 -32.24,-0.16 -31.92,0.09 -31.59,0.44 -31.27,0.66 -30.94,0.77 -30.62,0.89 -30.3,1 -29.97,1.07 -29.65,1.15 -29.32,1.17 -29,1.1 -28.68,0.98 -28.35,0.82 -28.03,0.74 -27.7,0.82 -27.38,1 -27.05,1.17 -26.73,1.28 -26.41,1.34 -26.08,1.37 -25.76,1.39 -25.43,1.39 -25.11,1.37 -24.79,1.38 -24.46,1.35 -24.14,1.32 -23.81,1.35 -23.49,1.41 -23.17,1.43 -22.84,1.42 -22.52,1.38 -22.19,1.33 -21.87,1.34 -21.55,1.39 -21.22,1.42 -20.9,1.43 -20.57,1.43 -20.25,1.43 -19.93,1.43 -19.6,1.43 -19.28,1.43 -18.95,1.42 -18.63,1.39 -18.31,1.38 -17.98,1.38 -17.66,1.38 -17.33,1.37 -17.01,1.36 -16.69,1.34 -16.36,1.34 -16.04,1.37 -15.71,1.41 -15.39,1.43 -15.07,1.43 -14.74,1.43 -14.42,1.43 -14.09,1.43 -13.77,1.43 -13.45,1.43 -13.12,1.43 -12.8,1.43 -12.47,1.43 -12.15,1.43 -11.83,1.43 -11.5,1.43 -11.18,1.43 -10.85,1.43 -10.53,1.43 -10.21,1.43 -9.88,1.43 -9.56,1.43 -9.23,1.43 -8.91,1.43 -8.59,1.43 -8.26,1.43 -7.94,1.43 -7.61,1.43 -7.29,1.43 -6.97,1.43 -6.64,1.43 -6.32,1.43 -5.99,1.43 -5.67,1.43 -5.35,1.43 -5.02,1.41 -4.7,1.39 -4.37,1.38 -4.05,1.41 -3.73,1.43 -3.4,1.43 -3.08,1.43 -2.75,1.43 -2.43,1.43 -2.11,1.43 -1.78,1.43 -1.46,1.43 -1.13,1.43 -0.81,1.43 -0.49,1.43 -0.16,1.43 0.16,1.43 0.49,1.43 0.81,1.43 1.13,1.43 1.46,1.43 1.78,1.43 2.11,1.43 2.43,1.43 2.75,1.43 3.08,1.43 3.4,1.43 3.73,1.43 4.05,1.43 4.37,1.43 4.7,1.43 5.02,1.43 5.35,1.43 5.67,1.43 5.99,1.43 6.32,1.43 6.64,1.43 6.97,1.43 7.29,1.43 7.61,1.43 7.94,1.43 8.26,1.43 8.59,1.43 8.91,1.43 9.23,1.43 9.56,1.43 9.88,1.43 10.21,1.43 10.53,1.43 10.85,1.43 11.18,1.43 11.5,1.43 11.83,1.43 12.15,1.43 12.47,1.43 12.8,1.43 13.12,1.43 13.45,1.43 13.77,1.43 14.09,1.43 14.42,1.43 14.74,1.43 15.07,1.43 15.39,1.43 15.71,1.43 16.04,1.43 16.36,1.43 16.69,1.43 17.01,1.43 17.33,1.43 17.66,1.43 17.98,1.43 18.31,1.43 18.63,1.43 18.95,1.43 19.28,1.43 19.6,1.43 19.93,1.43 20.25,1.43 20.57,1.43 20.9,1.43 21.22,1.43 21.55,1.43 21.87,1.43 22.19,1.43 22.52,1.43 22.84,1.43 23.17,1.43 23.49,1.43 23.81,1.43 24.14,1.43 24.46,1.43 24.79,1.43 25.11,1.43 25.43,1.43 25.76,1.43 26.08,1.43 26.41,1.43 26.73,1.43 27.05,1.43 27.38,1.43 27.7,1.43 28.03,1.43 28.35,1.43 28.68,1.43 29,1.43 29.32,1.43 29.65,1.43 29.97,1.43 30.3,1.43 30.62,1.43 30.94,1.43 31.27,1.43 31.59,1.43 31.92,1.43 32.24,1.43 32.56,1.43 32.89,1.43 33.21,1.43 33.54,1.43 33.86,1.43 34.18,1.43 34.51,1.43 34.83,1.43 35.16,1.43 35.48,1.43 35.8,1.43 36.13,1.43 36.45,1.43 36.78,1.43 37.1,1.43 37.42,1.43 37.75,1.43 38.07,1.43 38.4,1.43 38.72,1.43 39.04,1.43 39.37,1.42 39.69,1.39 40.02,1.38 40.34,1.4 40.66,1.43 40.99,1.43 41.31,1.43 " class="primitive"/>
          </g>
          <g transform="translate(84.97,95.42)" id="img-0280dc12-66" stroke-dasharray="none" stroke="#B23AEE" class="color_Area_3">
            <path fill="none" d="M-58.03,1.02 L-57.58,0.98 -57.12,0.49 -56.67,-2.07 -56.21,-7.81 -55.76,-13.82 -55.3,-16.7 -54.85,-17.28 -54.39,-17.33 -53.93,-17.33 -53.48,-17.31 -53.02,-17.18 -52.57,-16.74 -52.11,-15.76 -51.66,-14.17 -51.2,-12.16 -50.75,-10.04 -50.29,-7.93 -49.84,-6.03 -49.38,-4.59 -48.93,-3.56 -48.47,-2.81 -48.02,-2.19 -47.56,-1.55 -47.11,-1.01 -46.65,-0.62 -46.2,-0.35 -45.74,-0.08 -45.29,0.1 -44.83,0.24 -44.38,0.35 -43.92,0.33 -43.47,0.34 -43.01,0.4 -42.56,0.47 -42.1,0.61 -41.65,0.69 -41.19,0.71 -40.74,0.79 -40.28,0.89 -39.83,0.93 -39.37,0.91 -38.92,0.86 -38.46,0.83 -38,0.89 -37.55,0.95 -37.09,0.96 -36.64,0.94 -36.18,0.92 -35.73,0.91 -35.27,0.93 -34.82,0.94 -34.36,0.95 -33.91,0.97 -33.45,0.99 -33,1.01 -32.54,1.02 -32.09,1 -31.63,0.98 -31.18,0.97 -30.72,0.98 -30.27,0.99 -29.81,0.97 -29.36,0.96 -28.9,0.98 -28.45,0.98 -27.99,1 -27.54,1 -27.08,0.99 -26.63,1 -26.17,1.01 -25.72,1.02 -25.26,1.02 -24.81,1.02 -24.35,1.02 -23.9,1.02 -23.44,1.02 -22.98,1.01 -22.53,0.99 -22.07,0.98 -21.62,0.98 -21.16,1 -20.71,1.01 -20.25,1 -19.8,0.99 -19.34,1 -18.89,1.01 -18.43,1.02 -17.98,1.02 -17.52,1.02 -17.07,1.02 -16.61,1.02 -16.16,1.02 -15.7,1.02 -15.25,1.02 -14.79,1.02 -14.34,1 -13.88,0.99 -13.43,1 -12.97,1.01 -12.52,1.02 -12.06,1.02 -11.61,1.02 -11.15,1.02 -10.7,1.02 -10.24,1.02 -9.79,1.01 -9.33,1 -8.88,0.99 -8.42,1.01 -7.97,1.02 -7.51,1.02 -7.05,1.02 -6.6,1.02 -6.14,1.02 -5.69,1.02 -5.23,1.02 -4.78,1.02 -4.32,1.02 -3.87,1.02 -3.41,1.02 -2.96,1.02 -2.5,1.02 -2.05,1.02 -1.59,1.02 -1.14,1.02 -0.68,1.02 -0.23,1.02 0.23,1.02 0.68,1.02 1.14,1.02 1.59,1.02 2.05,1.02 2.5,1.02 2.96,1.02 3.41,1.02 3.87,1 4.32,0.99 4.78,1 5.23,1.02 5.69,1.02 6.14,1.02 6.6,1.02 7.05,1.02 7.51,1.02 7.97,1.02 8.42,1.02 8.88,1.02 9.33,1.02 9.79,1.02 10.24,1.02 10.7,1.02 11.15,1.02 11.61,1.02 12.06,1.02 12.52,1.02 12.97,1.02 13.43,1.02 13.88,1.02 14.34,1.02 14.79,1.02 15.25,1.02 15.7,1.02 16.16,1.02 16.61,1.02 17.07,1.02 17.52,1.02 17.98,1.02 18.43,1.02 18.89,1.02 19.34,1.02 19.8,1.02 20.25,1.02 20.71,1.02 21.16,1.02 21.62,1.02 22.07,1.02 22.53,1.02 22.98,1.02 23.44,1.02 23.9,1.02 24.35,1.02 24.81,1.02 25.26,1.02 25.72,1.02 26.17,1.02 26.63,1.02 27.08,1.02 27.54,1.02 27.99,1.02 28.45,1.02 28.9,1.02 29.36,1.02 29.81,1.02 30.27,1.02 30.72,1.02 31.18,1.02 31.63,1.02 32.09,1.02 32.54,1.02 33,1.02 33.45,1.02 33.91,1.02 34.36,1.02 34.82,1.02 35.27,1.02 35.73,1.02 36.18,1.02 36.64,1.02 37.09,1.02 37.55,1.02 38,1.02 38.46,1.02 38.92,1.02 39.37,1.02 39.83,1.02 40.28,1.02 40.74,1.02 41.19,1.02 41.65,1.02 42.1,1.02 42.56,1.02 43.01,1.02 43.47,1.02 43.92,1.02 44.38,1.02 44.83,1.02 45.29,1.02 45.74,1.02 46.2,1.02 46.65,1.02 47.11,1.02 47.56,1.02 48.02,1.02 48.47,1.02 48.93,1.02 49.38,1.02 49.84,1.02 50.29,1.02 50.75,1.02 51.2,1.02 51.66,1.02 52.11,1.02 52.57,1.02 53.02,1.02 53.48,1.02 53.93,1.02 54.39,1.02 54.85,1.02 55.3,1.02 55.76,1 56.21,0.99 56.67,1 57.12,1.02 57.58,1.02 58.03,1.02 " class="primitive"/>
          </g>
          <g transform="translate(32.37,82.93)" id="img-0280dc12-67" stroke-dasharray="none" stroke="#4169E1" class="color_Area_2">
            <path fill="none" d="M-4.39,13.51 L-4.35,13.51 -4.32,13.51 -4.28,13.5 -4.25,13.49 -4.21,13.48 -4.18,13.45 -4.15,13.41 -4.11,13.33 -4.08,13.2 -4.04,13 -4.01,12.69 -3.97,12.23 -3.94,11.58 -3.9,10.67 -3.87,9.45 -3.84,7.87 -3.8,5.88 -3.77,3.45 -3.73,0.6 -3.7,-2.65 -3.66,-6.24 -3.63,-10.08 -3.59,-14.04 -3.56,-18.01 -3.53,-21.85 -3.49,-25.44 -3.46,-28.71 -3.42,-31.58 -3.39,-34.01 -3.35,-36.01 -3.32,-37.61 -3.29,-38.84 -3.25,-39.75 -3.22,-40.41 -3.18,-40.87 -3.15,-41.18 -3.11,-41.39 -3.08,-41.52 -3.04,-41.6 -3.01,-41.64 -2.98,-41.67 -2.94,-41.68 -2.91,-41.69 -2.87,-41.68 -2.84,-41.68 -2.8,-41.66 -2.77,-41.64 -2.73,-41.61 -2.7,-41.56 -2.67,-41.49 -2.63,-41.39 -2.6,-41.26 -2.56,-41.08 -2.53,-40.85 -2.49,-40.56 -2.46,-40.21 -2.43,-39.78 -2.39,-39.28 -2.36,-38.71 -2.32,-38.06 -2.29,-37.34 -2.25,-36.56 -2.22,-35.71 -2.18,-34.8 -2.15,-33.83 -2.12,-32.8 -2.08,-31.7 -2.05,-30.53 -2.01,-29.28 -1.98,-27.97 -1.94,-26.57 -1.91,-25.11 -1.87,-23.59 -1.84,-22.02 -1.81,-20.42 -1.77,-18.82 -1.74,-17.23 -1.7,-15.69 -1.67,-14.21 -1.63,-12.81 -1.6,-11.52 -1.57,-10.33 -1.53,-9.25 -1.5,-8.26 -1.46,-7.34 -1.43,-6.49 -1.39,-5.67 -1.36,-4.88 -1.32,-4.1 -1.29,-3.34 -1.26,-2.59 -1.22,-1.86 -1.19,-1.15 -1.15,-0.47 -1.12,0.18 -1.08,0.79 -1.05,1.38 -1.01,1.93 -0.98,2.46 -0.95,2.98 -0.91,3.48 -0.88,3.97 -0.84,4.46 -0.81,4.92 -0.77,5.37 -0.74,5.8 -0.71,6.2 -0.67,6.57 -0.64,6.9 -0.6,7.19 -0.57,7.43 -0.53,7.61 -0.5,7.75 -0.46,7.82 -0.43,7.85 -0.4,7.83 -0.36,7.77 -0.33,7.69 -0.29,7.59 -0.26,7.5 -0.22,7.44 -0.19,7.41 -0.15,7.43 -0.12,7.52 -0.09,7.67 -0.05,7.89 -0.02,8.16 0.02,8.49 0.05,8.84 0.09,9.21 0.12,9.58 0.15,9.93 0.19,10.25 0.22,10.53 0.26,10.77 0.29,10.97 0.33,11.14 0.36,11.29 0.4,11.41 0.43,11.53 0.46,11.65 0.5,11.77 0.53,11.89 0.57,12.01 0.6,12.12 0.64,12.23 0.67,12.31 0.71,12.38 0.74,12.43 0.77,12.46 0.81,12.47 0.84,12.46 0.88,12.44 0.91,12.41 0.95,12.38 0.98,12.36 1.01,12.35 1.05,12.34 1.08,12.35 1.12,12.36 1.15,12.39 1.19,12.42 1.22,12.45 1.26,12.48 1.29,12.52 1.32,12.55 1.36,12.59 1.39,12.62 1.43,12.66 1.46,12.7 1.5,12.75 1.53,12.81 1.57,12.87 1.6,12.93 1.63,13 1.67,13.05 1.7,13.1 1.74,13.15 1.77,13.18 1.81,13.2 1.84,13.22 1.87,13.23 1.91,13.24 1.94,13.24 1.98,13.25 2.01,13.27 2.05,13.29 2.08,13.31 2.12,13.33 2.15,13.36 2.18,13.38 2.22,13.41 2.25,13.43 2.29,13.45 2.32,13.47 2.36,13.48 2.39,13.49 2.43,13.5 2.46,13.5 2.49,13.5 2.53,13.51 2.56,13.51 2.6,13.51 2.63,13.51 2.67,13.51 2.7,13.51 2.73,13.51 2.77,13.51 2.8,13.51 2.84,13.51 2.87,13.5 2.91,13.5 2.94,13.49 2.98,13.49 3.01,13.48 3.04,13.46 3.08,13.44 3.11,13.42 3.15,13.39 3.18,13.36 3.22,13.33 3.25,13.3 3.29,13.26 3.32,13.23 3.35,13.2 3.39,13.17 3.42,13.15 3.46,13.14 3.49,13.13 3.53,13.13 3.56,13.14 3.59,13.16 3.63,13.18 3.66,13.2 3.7,13.23 3.73,13.27 3.77,13.3 3.8,13.34 3.84,13.37 3.87,13.4 3.9,13.42 3.94,13.45 3.97,13.46 4.01,13.48 4.04,13.49 4.08,13.49 4.11,13.5 4.15,13.5 4.18,13.51 4.21,13.51 4.25,13.51 4.28,13.51 4.32,13.51 4.35,13.51 4.39,13.51 " class="primitive"/>
          </g>
          <g transform="translate(57.63,94.5)" id="img-0280dc12-68" stroke-dasharray="none" stroke="#00CD66" class="color_Area_4">
            <path fill="none" d="M-30.5,1.94 L-30.26,1.93 -30.02,1.89 -29.78,1.66 -29.54,0.9 -29.3,-0.99 -29.06,-4.4 -28.82,-8.9 -28.58,-13.27 -28.35,-16.38 -28.11,-18.01 -27.87,-18.64 -27.63,-18.81 -27.39,-18.85 -27.15,-18.85 -26.91,-18.85 -26.67,-18.85 -26.43,-18.82 -26.19,-18.72 -25.95,-18.52 -25.71,-18.16 -25.47,-17.65 -25.24,-16.99 -25,-16.12 -24.76,-14.97 -24.52,-13.55 -24.28,-11.95 -24.04,-10.31 -23.8,-8.81 -23.56,-7.57 -23.32,-6.58 -23.08,-5.73 -22.84,-4.9 -22.6,-4.04 -22.37,-3.2 -22.13,-2.42 -21.89,-1.8 -21.65,-1.38 -21.41,-1.14 -21.17,-0.92 -20.93,-0.61 -20.69,-0.19 -20.45,0.23 -20.21,0.54 -19.97,0.72 -19.73,0.87 -19.49,1.01 -19.26,1.13 -19.02,1.22 -18.78,1.28 -18.54,1.34 -18.3,1.38 -18.06,1.37 -17.82,1.33 -17.58,1.24 -17.34,1.19 -17.1,1.21 -16.86,1.29 -16.62,1.37 -16.39,1.41 -16.15,1.45 -15.91,1.5 -15.67,1.56 -15.43,1.61 -15.19,1.64 -14.95,1.64 -14.71,1.62 -14.47,1.59 -14.23,1.57 -13.99,1.59 -13.75,1.62 -13.51,1.65 -13.28,1.69 -13.04,1.74 -12.8,1.79 -12.56,1.82 -12.32,1.84 -12.08,1.82 -11.84,1.79 -11.6,1.75 -11.36,1.71 -11.12,1.7 -10.88,1.73 -10.64,1.78 -10.41,1.84 -10.17,1.89 -9.93,1.92 -9.69,1.93 -9.45,1.92 -9.21,1.9 -8.97,1.89 -8.73,1.88 -8.49,1.87 -8.25,1.85 -8.01,1.84 -7.77,1.84 -7.53,1.84 -7.3,1.85 -7.06,1.86 -6.82,1.87 -6.58,1.86 -6.34,1.85 -6.1,1.85 -5.86,1.86 -5.62,1.89 -5.38,1.91 -5.14,1.93 -4.9,1.94 -4.66,1.94 -4.43,1.94 -4.19,1.94 -3.95,1.94 -3.71,1.94 -3.47,1.94 -3.23,1.94 -2.99,1.94 -2.75,1.94 -2.51,1.94 -2.27,1.94 -2.03,1.93 -1.79,1.92 -1.55,1.91 -1.32,1.91 -1.08,1.92 -0.84,1.93 -0.6,1.94 -0.36,1.94 -0.12,1.94 0.12,1.94 0.36,1.94 0.6,1.94 0.84,1.94 1.08,1.94 1.32,1.93 1.55,1.91 1.79,1.87 2.03,1.84 2.27,1.83 2.51,1.85 2.75,1.89 2.99,1.92 3.23,1.93 3.47,1.94 3.71,1.94 3.95,1.94 4.19,1.94 4.43,1.93 4.66,1.92 4.9,1.91 5.14,1.9 5.38,1.9 5.62,1.91 5.86,1.91 6.1,1.9 6.34,1.9 6.58,1.91 6.82,1.93 7.06,1.94 7.3,1.94 7.53,1.94 7.77,1.94 8.01,1.94 8.25,1.94 8.49,1.94 8.73,1.94 8.97,1.94 9.21,1.94 9.45,1.94 9.69,1.94 9.93,1.94 10.17,1.94 10.41,1.94 10.64,1.94 10.88,1.94 11.12,1.94 11.36,1.94 11.6,1.94 11.84,1.94 12.08,1.94 12.32,1.94 12.56,1.94 12.8,1.94 13.04,1.94 13.28,1.94 13.51,1.94 13.75,1.94 13.99,1.94 14.23,1.94 14.47,1.94 14.71,1.94 14.95,1.94 15.19,1.94 15.43,1.94 15.67,1.94 15.91,1.94 16.15,1.94 16.39,1.94 16.62,1.94 16.86,1.94 17.1,1.94 17.34,1.94 17.58,1.94 17.82,1.94 18.06,1.94 18.3,1.94 18.54,1.94 18.78,1.94 19.02,1.94 19.26,1.94 19.49,1.94 19.73,1.94 19.97,1.94 20.21,1.94 20.45,1.94 20.69,1.94 20.93,1.94 21.17,1.94 21.41,1.94 21.65,1.94 21.89,1.94 22.13,1.94 22.37,1.94 22.6,1.94 22.84,1.94 23.08,1.94 23.32,1.94 23.56,1.94 23.8,1.94 24.04,1.94 24.28,1.94 24.52,1.94 24.76,1.94 25,1.94 25.24,1.94 25.47,1.94 25.71,1.94 25.95,1.94 26.19,1.94 26.43,1.94 26.67,1.94 26.91,1.94 27.15,1.94 27.39,1.94 27.63,1.93 27.87,1.92 28.11,1.9 28.35,1.89 28.58,1.88 28.82,1.89 29.06,1.9 29.3,1.92 29.54,1.93 29.78,1.94 30.02,1.94 30.26,1.94 30.5,1.94 " class="primitive"/>
          </g>
        </g>
      </g>
    </g>
  </g>
  <g class="guide ylabels" font-size="4.59" font-family="CMU Serif" fill="#6C606B" id="img-0280dc12-69">
    <g transform="translate(25.74,96.44)" id="img-0280dc12-70">
      <g class="primitive">
        <text text-anchor="end" dy="0.35em">0.000</text>
      </g>
    </g>
    <g transform="translate(25.74,66.63)" id="img-0280dc12-71">
      <g class="primitive">
        <text text-anchor="end" dy="0.35em">0.005</text>
      </g>
    </g>
    <g transform="translate(25.74,36.81)" id="img-0280dc12-72">
      <g class="primitive">
        <text text-anchor="end" dy="0.35em">0.010</text>
      </g>
    </g>
    <g transform="translate(25.74,7)" id="img-0280dc12-73">
      <g class="primitive">
        <text text-anchor="end" dy="0.35em">0.015</text>
      </g>
    </g>
  </g>
  <g font-size="4.59" font-family="CMU Serif" fill="#564A55" stroke="#000000" stroke-opacity="0.000" id="img-0280dc12-74">
    <g transform="translate(9.14,49.72)" id="img-0280dc12-75">
      <g class="primitive">
        <text text-anchor="middle" dy="0.35em" transform="rotate(-90,0, 2)">Density</text>
      </g>
    </g>
  </g>
</g>
<defs>
  <clipPath id="img-0280dc12-17">
    <path d="M176.74,5 L276.87,5 276.87,98.44 176.74,98.44 " />
  </clipPath>
  <clipPath id="img-0280dc12-50">
    <path d="M26.74,5 L145,5 145,98.44 26.74,98.44 " />
  </clipPath>
</defs>
</svg>
