<?xml version="1.0" encoding="UTF-8"?>
<svg xmlns="http://www.w3.org/2000/svg"
     xmlns:xlink="http://www.w3.org/1999/xlink"
     xmlns:gadfly="http://www.gadflyjl.org/ns"
     version="1.2"
     width="300mm" height="120mm" viewBox="0 0 300 120"
     stroke="none"
     fill="#000000"
     stroke-width="0.3"
     font-size="3.88"
>
<defs>
  <marker id="arrow" markerWidth="15" markerHeight="7" refX="5" refY="3.5" orient="auto" markerUnits="strokeWidth">
    <path d="M0,0 L15,3.5 L0,7 z" stroke="context-stroke" fill="context-stroke"/>
  </marker>
</defs>
<g class="plotroot xscalable yscalable" id="img-0ccdecf6-1">
  <g font-size="3.88" font-family="'PT Sans','Helvetica Neue','Helvetica',sans-serif" fill="#564A55" stroke="#000000" stroke-opacity="0.000" id="img-0ccdecf6-2">
    <g transform="translate(148.59,108.39)">
      <g class="primitive">
        <text text-anchor="middle" dy="0.6em">Pheromone Value</text>
      </g>
    </g>
  </g>
  <g class="guide xlabels" font-size="2.82" font-family="'PT Sans Caption','Helvetica Neue','Helvetica',sans-serif" fill="#6C606B" id="img-0ccdecf6-3">
    <g transform="translate(21.63,101.72)">
      <g class="primitive">
        <text text-anchor="middle" dy="0.6em">0.00</text>
      </g>
    </g>
    <g transform="translate(160.17,101.72)">
      <g class="primitive">
        <text text-anchor="middle" dy="0.6em">0.05</text>
      </g>
    </g>
  </g>
  <g class="guide colorkey" id="img-0ccdecf6-4">
    <g fill="#4C404B" font-size="2.82" font-family="'PT Sans','Helvetica Neue','Helvetica',sans-serif" id="img-0ccdecf6-5">
      <g transform="translate(281.35,47.42)" id="img-0ccdecf6-6" class="color_Area_1">
        <g class="primitive">
          <text dy="0.35em">Area 1</text>
        </g>
      </g>
      <g transform="translate(281.35,51.04)" id="img-0ccdecf6-7" class="color_Area_2:_2x2">
        <g class="primitive">
          <text dy="0.35em">Area 2: 2x2</text>
        </g>
      </g>
      <g transform="translate(281.35,54.67)" id="img-0ccdecf6-8" class="color_Area_2:_4x4">
        <g class="primitive">
          <text dy="0.35em">Area 2: 4x4</text>
        </g>
      </g>
      <g transform="translate(281.35,58.3)" id="img-0ccdecf6-9" class="color_Area_3">
        <g class="primitive">
          <text dy="0.35em">Area 3</text>
        </g>
      </g>
      <g transform="translate(281.35,61.92)" id="img-0ccdecf6-10" class="color_Area_4">
        <g class="primitive">
          <text dy="0.35em">Area 4</text>
        </g>
      </g>
    </g>
    <g fill-opacity="1" id="img-0ccdecf6-11">
      <g transform="translate(279.45,47.42)" id="img-0ccdecf6-12" stroke="#FFFFFF" class="color_Area_1" fill="#FF6347">
        <path d="M-0.91,-0.91 L0.91,-0.91 0.91,0.91 -0.91,0.91  z" class="primitive"/>
      </g>
      <g transform="translate(279.45,51.04)" id="img-0ccdecf6-13" stroke="#FFFFFF" class="color_Area_2:_2x2" fill="#4169E1">
        <path d="M-0.91,-0.91 L0.91,-0.91 0.91,0.91 -0.91,0.91  z" class="primitive"/>
      </g>
      <g transform="translate(279.45,54.67)" id="img-0ccdecf6-14" stroke="#FFFFFF" class="color_Area_2:_4x4" fill="#404040">
        <path d="M-0.91,-0.91 L0.91,-0.91 0.91,0.91 -0.91,0.91  z" class="primitive"/>
      </g>
      <g transform="translate(279.45,58.3)" id="img-0ccdecf6-15" stroke="#FFFFFF" class="color_Area_3" fill="#B23AEE">
        <path d="M-0.91,-0.91 L0.91,-0.91 0.91,0.91 -0.91,0.91  z" class="primitive"/>
      </g>
      <g transform="translate(279.45,61.92)" id="img-0ccdecf6-16" stroke="#FFFFFF" class="color_Area_4" fill="#00CD66">
        <path d="M-0.91,-0.91 L0.91,-0.91 0.91,0.91 -0.91,0.91  z" class="primitive"/>
      </g>
    </g>
    <g fill="#362A35" font-size="3.88" font-family="'PT Sans','Helvetica Neue','Helvetica',sans-serif" stroke="#000000" stroke-opacity="0.000" id="img-0ccdecf6-17">
      <g transform="translate(278.54,43.6)" id="img-0ccdecf6-18">
        <g class="primitive">
          <text dy="-0em">Area</text>
        </g>
      </g>
    </g>
  </g>
  <g clip-path="url(#img-0ccdecf6-19)">
    <g id="img-0ccdecf6-20">
      <g pointer-events="visible" stroke-width="0.3" fill="#000000" fill-opacity="0.000" stroke="#000000" stroke-opacity="0.000" class="guide background" id="img-0ccdecf6-21">
        <g transform="translate(148.59,52.86)" id="img-0ccdecf6-22">
          <path d="M-128.95,-47.86 L128.95,-47.86 128.95,47.86 -128.95,47.86  z" class="primitive"/>
        </g>
      </g>
      <g class="guide ygridlines xfixed" stroke-dasharray="0.5,0.5" stroke-width="0.2" stroke="#D0D0E0" id="img-0ccdecf6-23">
        <g transform="translate(148.59,98.71)" id="img-0ccdecf6-24">
          <path fill="none" d="M-128.95,0 L128.95,0 " class="primitive"/>
        </g>
        <g transform="translate(148.59,75.79)" id="img-0ccdecf6-25">
          <path fill="none" d="M-128.95,0 L128.95,0 " class="primitive"/>
        </g>
        <g transform="translate(148.59,52.86)" id="img-0ccdecf6-26">
          <path fill="none" d="M-128.95,0 L128.95,0 " class="primitive"/>
        </g>
        <g transform="translate(148.59,29.93)" id="img-0ccdecf6-27">
          <path fill="none" d="M-128.95,0 L128.95,0 " class="primitive"/>
        </g>
        <g transform="translate(148.59,7)" id="img-0ccdecf6-28">
          <path fill="none" d="M-128.95,0 L128.95,0 " class="primitive"/>
        </g>
      </g>
      <g class="guide xgridlines yfixed" stroke-dasharray="0.5,0.5" stroke-width="0.2" stroke="#D0D0E0" id="img-0ccdecf6-29">
        <g transform="translate(21.63,52.86)" id="img-0ccdecf6-30">
          <path fill="none" d="M0,-47.86 L0,47.86 " class="primitive"/>
        </g>
        <g transform="translate(160.17,52.86)" id="img-0ccdecf6-31">
          <path fill="none" d="M0,-47.86 L0,47.86 " class="primitive"/>
        </g>
      </g>
      <g class="plotpanel" id="img-0ccdecf6-32">
        <metadata>
          <boundingbox value="19.63166666666666mm 5.0mm 257.9083333333333mm 95.715mm"/>
          <unitbox value="-0.0007218020953259606 204.3613367497138 0.09307938770101312 -208.7226734994276"/>
        </metadata>
        <g stroke-width="0.3" fill="#000000" fill-opacity="0.000" class="geometry" id="img-0ccdecf6-33">
          <g transform="translate(141.78,93.98)" id="img-0ccdecf6-34" stroke-dasharray="none" stroke="#FF6347" class="color_Area_1">
            <path fill="none" d="M-133.76,4.73 L-132.72,4.73 -131.67,4.72 -130.62,4.7 -129.57,4.64 -128.52,4.51 -127.47,4.24 -126.42,3.71 -125.37,2.77 -124.32,1.28 -123.27,-0.91 -122.22,-3.83 -121.17,-7.38 -120.13,-11.34 -119.08,-15.37 -118.03,-19.1 -116.98,-22.27 -115.93,-24.7 -114.88,-26.39 -113.83,-27.4 -112.78,-27.89 -111.73,-28 -110.68,-27.89 -109.63,-27.7 -108.59,-27.56 -107.54,-27.55 -106.49,-27.67 -105.44,-27.91 -104.39,-28.16 -103.34,-28.32 -102.29,-28.3 -101.24,-28.03 -100.19,-27.5 -99.14,-26.73 -98.09,-25.78 -97.04,-24.72 -96,-23.62 -94.95,-22.52 -93.9,-21.45 -92.85,-20.42 -91.8,-19.42 -90.75,-18.43 -89.7,-17.44 -88.65,-16.41 -87.6,-15.35 -86.55,-14.28 -85.5,-13.21 -84.46,-12.18 -83.41,-11.2 -82.36,-10.29 -81.31,-9.43 -80.26,-8.59 -79.21,-7.78 -78.16,-6.98 -77.11,-6.2 -76.06,-5.44 -75.01,-4.69 -73.96,-3.95 -72.91,-3.23 -71.87,-2.53 -70.82,-1.86 -69.77,-1.21 -68.72,-0.59 -67.67,-0.01 -66.62,0.52 -65.57,0.98 -64.52,1.37 -63.47,1.68 -62.42,1.93 -61.37,2.11 -60.33,2.26 -59.28,2.36 -58.23,2.44 -57.18,2.5 -56.13,2.57 -55.08,2.67 -54.03,2.81 -52.98,2.99 -51.93,3.19 -50.88,3.4 -49.83,3.59 -48.78,3.76 -47.74,3.9 -46.69,4.01 -45.64,4.1 -44.59,4.19 -43.54,4.27 -42.49,4.34 -41.44,4.41 -40.39,4.48 -39.34,4.55 -38.29,4.61 -37.24,4.65 -36.2,4.68 -35.15,4.7 -34.1,4.72 -33.05,4.72 -32,4.73 -30.95,4.73 -29.9,4.73 -28.85,4.73 -27.8,4.73 -26.75,4.73 -25.7,4.73 -24.65,4.73 -23.61,4.73 -22.56,4.73 -21.51,4.73 -20.46,4.72 -19.41,4.71 -18.36,4.7 -17.31,4.67 -16.26,4.64 -15.21,4.6 -14.16,4.56 -13.11,4.53 -12.07,4.52 -11.02,4.52 -9.97,4.54 -8.92,4.57 -7.87,4.61 -6.82,4.64 -5.77,4.67 -4.72,4.7 -3.67,4.71 -2.62,4.72 -1.57,4.73 -0.52,4.73 0.52,4.73 1.57,4.73 2.62,4.73 3.67,4.73 4.72,4.73 5.77,4.73 6.82,4.73 7.87,4.73 8.92,4.73 9.97,4.72 11.02,4.72 12.07,4.71 13.11,4.69 14.16,4.67 15.21,4.65 16.26,4.64 17.31,4.62 18.36,4.62 19.41,4.63 20.46,4.64 21.51,4.66 22.56,4.68 23.61,4.7 24.65,4.71 25.7,4.72 26.75,4.73 27.8,4.73 28.85,4.73 29.9,4.73 30.95,4.73 32,4.73 33.05,4.73 34.1,4.73 35.15,4.73 36.2,4.73 37.24,4.73 38.29,4.73 39.34,4.73 40.39,4.73 41.44,4.73 42.49,4.73 43.54,4.73 44.59,4.73 45.64,4.73 46.69,4.73 47.74,4.73 48.78,4.73 49.83,4.73 50.88,4.73 51.93,4.73 52.98,4.73 54.03,4.73 55.08,4.73 56.13,4.73 57.18,4.73 58.23,4.73 59.28,4.73 60.33,4.73 61.37,4.73 62.42,4.73 63.47,4.73 64.52,4.73 65.57,4.73 66.62,4.73 67.67,4.73 68.72,4.73 69.77,4.73 70.82,4.73 71.87,4.73 72.91,4.73 73.96,4.73 75.01,4.73 76.06,4.73 77.11,4.73 78.16,4.73 79.21,4.73 80.26,4.73 81.31,4.73 82.36,4.73 83.41,4.73 84.46,4.73 85.5,4.73 86.55,4.73 87.6,4.73 88.65,4.73 89.7,4.73 90.75,4.73 91.8,4.73 92.85,4.73 93.9,4.73 94.95,4.73 96,4.73 97.04,4.73 98.09,4.73 99.14,4.73 100.19,4.73 101.24,4.73 102.29,4.73 103.34,4.73 104.39,4.73 105.44,4.73 106.49,4.73 107.54,4.73 108.59,4.73 109.63,4.73 110.68,4.73 111.73,4.72 112.78,4.71 113.83,4.69 114.88,4.66 115.93,4.62 116.98,4.58 118.03,4.54 119.08,4.52 120.13,4.51 121.17,4.52 122.22,4.55 123.27,4.59 124.32,4.63 125.37,4.66 126.42,4.69 127.47,4.71 128.52,4.72 129.57,4.73 130.62,4.73 131.67,4.73 132.72,4.73 133.76,4.73 " class="primitive"/>
          </g>
          <g transform="translate(70.38,88.59)" id="img-0ccdecf6-35" stroke-dasharray="none" stroke="#B23AEE" class="color_Area_3">
            <path fill="none" d="M-62.52,10.12 L-62.03,10.12 -61.54,10.12 -61.05,10.12 -60.56,10.11 -60.07,10.11 -59.58,10.1 -59.09,10.09 -58.6,10.07 -58.11,10.03 -57.62,9.99 -57.13,9.92 -56.64,9.83 -56.15,9.7 -55.66,9.52 -55.17,9.29 -54.68,8.98 -54.19,8.58 -53.7,8.08 -53.21,7.47 -52.72,6.73 -52.22,5.85 -51.73,4.84 -51.24,3.68 -50.75,2.39 -50.26,0.98 -49.77,-0.53 -49.28,-2.11 -48.79,-3.75 -48.3,-5.4 -47.81,-7.03 -47.32,-8.62 -46.83,-10.13 -46.34,-11.53 -45.85,-12.82 -45.36,-13.98 -44.87,-14.99 -44.38,-15.85 -43.89,-16.58 -43.4,-17.16 -42.91,-17.62 -42.42,-17.97 -41.93,-18.22 -41.44,-18.38 -40.95,-18.46 -40.46,-18.49 -39.97,-18.47 -39.47,-18.42 -38.98,-18.36 -38.49,-18.28 -38,-18.21 -37.51,-18.15 -37.02,-18.12 -36.53,-18.1 -36.04,-18.12 -35.55,-18.16 -35.06,-18.23 -34.57,-18.32 -34.08,-18.42 -33.59,-18.53 -33.1,-18.64 -32.61,-18.73 -32.12,-18.8 -31.63,-18.85 -31.14,-18.86 -30.65,-18.83 -30.16,-18.75 -29.67,-18.64 -29.18,-18.49 -28.69,-18.31 -28.2,-18.1 -27.71,-17.86 -27.22,-17.62 -26.73,-17.37 -26.23,-17.13 -25.74,-16.9 -25.25,-16.69 -24.76,-16.5 -24.27,-16.35 -23.78,-16.22 -23.29,-16.13 -22.8,-16.06 -22.31,-16.01 -21.82,-15.98 -21.33,-15.96 -20.84,-15.93 -20.35,-15.89 -19.86,-15.84 -19.37,-15.76 -18.88,-15.65 -18.39,-15.5 -17.9,-15.31 -17.41,-15.08 -16.92,-14.81 -16.43,-14.5 -15.94,-14.15 -15.45,-13.77 -14.96,-13.36 -14.47,-12.92 -13.98,-12.47 -13.49,-11.99 -12.99,-11.49 -12.5,-10.99 -12.01,-10.47 -11.52,-9.95 -11.03,-9.42 -10.54,-8.89 -10.05,-8.36 -9.56,-7.83 -9.07,-7.3 -8.58,-6.78 -8.09,-6.26 -7.6,-5.74 -7.11,-5.23 -6.62,-4.73 -6.13,-4.23 -5.64,-3.75 -5.15,-3.26 -4.66,-2.79 -4.17,-2.32 -3.68,-1.86 -3.19,-1.41 -2.7,-0.97 -2.21,-0.54 -1.72,-0.11 -1.23,0.3 -0.74,0.71 -0.25,1.1 0.25,1.48 0.74,1.85 1.23,2.21 1.72,2.56 2.21,2.89 2.7,3.21 3.19,3.51 3.68,3.79 4.17,4.06 4.66,4.3 5.15,4.53 5.64,4.74 6.13,4.94 6.62,5.12 7.11,5.28 7.6,5.44 8.09,5.59 8.58,5.74 9.07,5.89 9.56,6.04 10.05,6.2 10.54,6.36 11.03,6.52 11.52,6.7 12.01,6.88 12.5,7.07 12.99,7.26 13.49,7.45 13.98,7.64 14.47,7.83 14.96,8 15.45,8.17 15.94,8.33 16.43,8.47 16.92,8.59 17.41,8.7 17.9,8.8 18.39,8.88 18.88,8.96 19.37,9.02 19.86,9.07 20.35,9.11 20.84,9.15 21.33,9.18 21.82,9.22 22.31,9.25 22.8,9.27 23.29,9.3 23.78,9.33 24.27,9.36 24.76,9.4 25.25,9.43 25.74,9.46 26.23,9.49 26.73,9.53 27.22,9.56 27.71,9.6 28.2,9.63 28.69,9.67 29.18,9.7 29.67,9.73 30.16,9.76 30.65,9.79 31.14,9.81 31.63,9.83 32.12,9.84 32.61,9.85 33.1,9.85 33.59,9.85 34.08,9.84 34.57,9.82 35.06,9.8 35.55,9.77 36.04,9.73 36.53,9.7 37.02,9.65 37.51,9.61 38,9.57 38.49,9.52 38.98,9.47 39.47,9.43 39.97,9.39 40.46,9.35 40.95,9.32 41.44,9.29 41.93,9.28 42.42,9.27 42.91,9.27 43.4,9.28 43.89,9.3 44.38,9.33 44.87,9.36 45.36,9.41 45.85,9.46 46.34,9.51 46.83,9.57 47.32,9.63 47.81,9.68 48.3,9.74 48.79,9.79 49.28,9.83 49.77,9.88 50.26,9.91 50.75,9.95 51.24,9.98 51.73,10 52.22,10.03 52.72,10.05 53.21,10.06 53.7,10.07 54.19,10.09 54.68,10.09 55.17,10.1 55.66,10.11 56.15,10.11 56.64,10.11 57.13,10.12 57.62,10.12 58.11,10.12 58.6,10.12 59.09,10.12 59.58,10.12 60.07,10.12 60.56,10.12 61.05,10.12 61.54,10.12 62.03,10.12 62.52,10.12 " class="primitive"/>
          </g>
          <g transform="translate(65.08,86.39)" id="img-0ccdecf6-36" stroke-dasharray="none" stroke="#4169E1" class="color_Area_2:_2x2">
            <path fill="none" d="M-51.34,12.32 L-50.94,12.32 -50.54,12.32 -50.13,12.31 -49.73,12.29 -49.33,12.25 -48.93,12.17 -48.52,12.05 -48.12,11.83 -47.72,11.49 -47.32,10.95 -46.91,10.14 -46.51,8.98 -46.11,7.38 -45.7,5.27 -45.3,2.58 -44.9,-0.7 -44.5,-4.54 -44.09,-8.87 -43.69,-13.56 -43.29,-18.43 -42.89,-23.31 -42.48,-28 -42.08,-32.35 -41.68,-36.23 -41.27,-39.57 -40.87,-42.34 -40.47,-44.57 -40.07,-46.29 -39.66,-47.59 -39.26,-48.54 -38.86,-49.22 -38.46,-49.7 -38.05,-50.03 -37.65,-50.26 -37.25,-50.41 -36.85,-50.51 -36.44,-50.54 -36.04,-50.51 -35.64,-50.38 -35.23,-50.15 -34.83,-49.77 -34.43,-49.25 -34.03,-48.58 -33.62,-47.77 -33.22,-46.84 -32.82,-45.85 -32.42,-44.84 -32.01,-43.85 -31.61,-42.93 -31.21,-42.11 -30.81,-41.38 -30.4,-40.73 -30,-40.11 -29.6,-39.47 -29.19,-38.72 -28.79,-37.83 -28.39,-36.72 -27.99,-35.39 -27.58,-33.82 -27.18,-32.05 -26.78,-30.13 -26.38,-28.12 -25.97,-26.09 -25.57,-24.08 -25.17,-22.15 -24.76,-20.32 -24.36,-18.59 -23.96,-16.95 -23.56,-15.39 -23.15,-13.87 -22.75,-12.38 -22.35,-10.91 -21.95,-9.45 -21.54,-8.02 -21.14,-6.64 -20.74,-5.33 -20.34,-4.13 -19.93,-3.05 -19.53,-2.11 -19.13,-1.32 -18.72,-0.65 -18.32,-0.1 -17.92,0.36 -17.52,0.76 -17.11,1.13 -16.71,1.49 -16.31,1.86 -15.91,2.27 -15.5,2.71 -15.1,3.19 -14.7,3.7 -14.3,4.24 -13.89,4.79 -13.49,5.35 -13.09,5.88 -12.68,6.38 -12.28,6.81 -11.88,7.16 -11.48,7.42 -11.07,7.6 -10.67,7.7 -10.27,7.75 -9.87,7.77 -9.46,7.8 -9.06,7.86 -8.66,7.96 -8.25,8.12 -7.85,8.32 -7.45,8.56 -7.05,8.82 -6.64,9.09 -6.24,9.34 -5.84,9.58 -5.44,9.8 -5.03,9.99 -4.63,10.17 -4.23,10.33 -3.83,10.46 -3.42,10.57 -3.02,10.67 -2.62,10.73 -2.21,10.78 -1.81,10.81 -1.41,10.84 -1.01,10.86 -0.6,10.9 -0.2,10.94 0.2,11.01 0.6,11.09 1.01,11.18 1.41,11.29 1.81,11.39 2.21,11.49 2.62,11.59 3.02,11.67 3.42,11.75 3.83,11.83 4.23,11.89 4.63,11.94 5.03,11.98 5.44,12.01 5.84,12.03 6.24,12.03 6.64,12.03 7.05,12.01 7.45,11.99 7.85,11.97 8.25,11.96 8.66,11.96 9.06,11.97 9.46,11.99 9.87,12.02 10.27,12.07 10.67,12.11 11.07,12.15 11.48,12.19 11.88,12.23 12.28,12.26 12.68,12.28 13.09,12.3 13.49,12.31 13.89,12.31 14.3,12.32 14.7,12.32 15.1,12.32 15.5,12.33 15.91,12.33 16.31,12.33 16.71,12.33 17.11,12.33 17.52,12.33 17.92,12.33 18.32,12.33 18.72,12.33 19.13,12.33 19.53,12.33 19.93,12.33 20.34,12.33 20.74,12.33 21.14,12.33 21.54,12.33 21.95,12.33 22.35,12.33 22.75,12.33 23.15,12.33 23.56,12.33 23.96,12.33 24.36,12.33 24.76,12.33 25.17,12.33 25.57,12.33 25.97,12.33 26.38,12.33 26.78,12.33 27.18,12.33 27.58,12.33 27.99,12.33 28.39,12.33 28.79,12.33 29.19,12.33 29.6,12.33 30,12.33 30.4,12.33 30.81,12.33 31.21,12.33 31.61,12.33 32.01,12.33 32.42,12.33 32.82,12.33 33.22,12.33 33.62,12.33 34.03,12.33 34.43,12.33 34.83,12.33 35.23,12.33 35.64,12.33 36.04,12.33 36.44,12.33 36.85,12.32 37.25,12.32 37.65,12.32 38.05,12.32 38.46,12.31 38.86,12.3 39.26,12.29 39.66,12.27 40.07,12.24 40.47,12.21 40.87,12.17 41.27,12.13 41.68,12.08 42.08,12.04 42.48,12.01 42.89,11.98 43.29,11.97 43.69,11.97 44.09,11.99 44.5,12.01 44.9,12.05 45.3,12.09 45.7,12.14 46.11,12.18 46.51,12.22 46.91,12.25 47.32,12.27 47.72,12.29 48.12,12.3 48.52,12.31 48.93,12.32 49.33,12.32 49.73,12.32 50.13,12.32 50.54,12.33 50.94,12.33 51.34,12.33 " class="primitive"/>
          </g>
          <g transform="translate(67.48,87.22)" id="img-0ccdecf6-37" stroke-dasharray="none" stroke="#00CD66" class="color_Area_4">
            <path fill="none" d="M-55.07,11.49 L-54.64,11.49 -54.21,11.48 -53.78,11.48 -53.35,11.47 -52.91,11.44 -52.48,11.4 -52.05,11.33 -51.62,11.22 -51.19,11.04 -50.75,10.76 -50.32,10.34 -49.89,9.74 -49.46,8.9 -49.03,7.77 -48.59,6.3 -48.16,4.45 -47.73,2.21 -47.3,-0.43 -46.87,-3.42 -46.43,-6.7 -46,-10.18 -45.57,-13.76 -45.14,-17.31 -44.71,-20.71 -44.27,-23.89 -43.84,-26.74 -43.41,-29.23 -42.98,-31.34 -42.55,-33.07 -42.11,-34.45 -41.68,-35.52 -41.25,-36.33 -40.82,-36.92 -40.39,-37.34 -39.95,-37.63 -39.52,-37.81 -39.09,-37.9 -38.66,-37.91 -38.23,-37.85 -37.8,-37.7 -37.36,-37.48 -36.93,-37.18 -36.5,-36.82 -36.07,-36.42 -35.64,-35.98 -35.2,-35.56 -34.77,-35.17 -34.34,-34.86 -33.91,-34.64 -33.48,-34.53 -33.04,-34.54 -32.61,-34.66 -32.18,-34.87 -31.75,-35.13 -31.32,-35.39 -30.88,-35.62 -30.45,-35.76 -30.02,-35.78 -29.59,-35.64 -29.16,-35.32 -28.72,-34.81 -28.29,-34.1 -27.86,-33.21 -27.43,-32.16 -27,-30.96 -26.56,-29.65 -26.13,-28.24 -25.7,-26.77 -25.27,-25.26 -24.84,-23.72 -24.4,-22.18 -23.97,-20.64 -23.54,-19.12 -23.11,-17.62 -22.68,-16.16 -22.25,-14.73 -21.81,-13.35 -21.38,-12.03 -20.95,-10.76 -20.52,-9.56 -20.09,-8.43 -19.65,-7.36 -19.22,-6.36 -18.79,-5.42 -18.36,-4.54 -17.93,-3.71 -17.49,-2.94 -17.06,-2.23 -16.63,-1.57 -16.2,-0.96 -15.77,-0.41 -15.33,0.09 -14.9,0.54 -14.47,0.96 -14.04,1.36 -13.61,1.75 -13.17,2.15 -12.74,2.56 -12.31,3 -11.88,3.47 -11.45,3.98 -11.01,4.51 -10.58,5.06 -10.15,5.61 -9.72,6.16 -9.29,6.69 -8.85,7.18 -8.42,7.63 -7.99,8.03 -7.56,8.38 -7.13,8.67 -6.7,8.91 -6.26,9.11 -5.83,9.26 -5.4,9.38 -4.97,9.47 -4.54,9.53 -4.1,9.57 -3.67,9.59 -3.24,9.6 -2.81,9.61 -2.38,9.61 -1.94,9.62 -1.51,9.63 -1.08,9.65 -0.65,9.69 -0.22,9.73 0.22,9.77 0.65,9.83 1.08,9.89 1.51,9.95 1.94,10 2.38,10.05 2.81,10.1 3.24,10.14 3.67,10.18 4.1,10.22 4.54,10.25 4.97,10.29 5.4,10.32 5.83,10.35 6.26,10.38 6.7,10.4 7.13,10.41 7.56,10.42 7.99,10.42 8.42,10.41 8.85,10.41 9.29,10.41 9.72,10.42 10.15,10.44 10.58,10.48 11.01,10.54 11.45,10.61 11.88,10.7 12.31,10.79 12.74,10.89 13.17,10.99 13.61,11.08 14.04,11.17 14.47,11.24 14.9,11.3 15.33,11.36 15.77,11.4 16.2,11.43 16.63,11.45 17.06,11.46 17.49,11.47 17.93,11.48 18.36,11.48 18.79,11.49 19.22,11.49 19.65,11.49 20.09,11.48 20.52,11.48 20.95,11.47 21.38,11.46 21.81,11.45 22.25,11.43 22.68,11.41 23.11,11.38 23.54,11.34 23.97,11.3 24.4,11.25 24.84,11.2 25.27,11.16 25.7,11.12 26.13,11.08 26.56,11.06 27,11.04 27.43,11.04 27.86,11.05 28.29,11.08 28.72,11.11 29.16,11.15 29.59,11.2 30.02,11.24 30.45,11.28 30.88,11.31 31.32,11.34 31.75,11.35 32.18,11.36 32.61,11.35 33.04,11.34 33.48,11.32 33.91,11.3 34.34,11.28 34.77,11.27 35.2,11.25 35.64,11.25 36.07,11.25 36.5,11.26 36.93,11.28 37.36,11.3 37.8,11.32 38.23,11.35 38.66,11.38 39.09,11.4 39.52,11.42 39.95,11.43 40.39,11.44 40.82,11.44 41.25,11.44 41.68,11.43 42.11,11.42 42.55,11.4 42.98,11.38 43.41,11.35 43.84,11.32 44.27,11.3 44.71,11.28 45.14,11.26 45.57,11.25 46,11.25 46.43,11.26 46.87,11.27 47.3,11.29 47.73,11.32 48.16,11.34 48.59,11.37 49.03,11.4 49.46,11.42 49.89,11.44 50.32,11.45 50.75,11.47 51.19,11.47 51.62,11.48 52.05,11.48 52.48,11.49 52.91,11.49 53.35,11.49 53.78,11.49 54.21,11.49 54.64,11.49 55.07,11.49 " class="primitive"/>
          </g>
          <g transform="translate(54.37,82.42)" id="img-0ccdecf6-38" stroke-dasharray="none" stroke="#404040" class="color_Area_2:_4x4">
            <path fill="none" d="M-38.84,16.29 L-38.53,16.29 -38.23,16.28 -37.93,16.27 -37.62,16.25 -37.32,16.2 -37.01,16.12 -36.71,15.97 -36.4,15.72 -36.1,15.32 -35.79,14.7 -35.49,13.76 -35.18,12.43 -34.88,10.57 -34.57,8.11 -34.27,4.96 -33.96,1.09 -33.66,-3.5 -33.36,-8.74 -33.05,-14.48 -32.75,-20.54 -32.44,-26.71 -32.14,-32.76 -31.83,-38.48 -31.53,-43.7 -31.22,-48.3 -30.92,-52.23 -30.61,-55.47 -30.31,-58.08 -30,-60.13 -29.7,-61.7 -29.4,-62.88 -29.09,-63.76 -28.79,-64.39 -28.48,-64.84 -28.18,-65.15 -27.87,-65.35 -27.57,-65.49 -27.26,-65.58 -26.96,-65.66 -26.65,-65.74 -26.35,-65.83 -26.04,-65.93 -25.74,-66.02 -25.44,-66.09 -25.13,-66.1 -24.83,-66.01 -24.52,-65.77 -24.22,-65.34 -23.91,-64.68 -23.61,-63.76 -23.3,-62.56 -23,-61.07 -22.69,-59.29 -22.39,-57.27 -22.08,-55.03 -21.78,-52.62 -21.48,-50.11 -21.17,-47.56 -20.87,-45.03 -20.56,-42.55 -20.26,-40.16 -19.95,-37.88 -19.65,-35.7 -19.34,-33.58 -19.04,-31.49 -18.73,-29.38 -18.43,-27.22 -18.12,-24.97 -17.82,-22.64 -17.52,-20.24 -17.21,-17.82 -16.91,-15.42 -16.6,-13.11 -16.3,-10.95 -15.99,-8.98 -15.69,-7.22 -15.38,-5.69 -15.08,-4.38 -14.77,-3.25 -14.47,-2.27 -14.16,-1.38 -13.86,-0.53 -13.56,0.32 -13.25,1.19 -12.95,2.11 -12.64,3.05 -12.34,3.99 -12.03,4.92 -11.73,5.79 -11.42,6.57 -11.12,7.26 -10.81,7.85 -10.51,8.35 -10.2,8.78 -9.9,9.15 -9.6,9.49 -9.29,9.82 -8.99,10.16 -8.68,10.51 -8.38,10.87 -8.07,11.25 -7.77,11.63 -7.46,12 -7.16,12.36 -6.85,12.69 -6.55,13 -6.24,13.28 -5.94,13.52 -5.64,13.74 -5.33,13.94 -5.03,14.12 -4.72,14.27 -4.42,14.42 -4.11,14.54 -3.81,14.63 -3.5,14.7 -3.2,14.74 -2.89,14.76 -2.59,14.75 -2.28,14.72 -1.98,14.68 -1.68,14.65 -1.37,14.63 -1.07,14.62 -0.76,14.64 -0.46,14.68 -0.15,14.73 0.15,14.8 0.46,14.86 0.76,14.91 1.07,14.94 1.37,14.96 1.68,14.95 1.98,14.95 2.28,14.94 2.59,14.95 2.89,14.99 3.2,15.06 3.5,15.16 3.81,15.28 4.11,15.42 4.42,15.57 4.72,15.72 5.03,15.85 5.33,15.96 5.64,16.05 5.94,16.11 6.24,16.15 6.55,16.17 6.85,16.17 7.16,16.15 7.46,16.11 7.77,16.06 8.07,15.99 8.38,15.92 8.68,15.85 8.99,15.79 9.29,15.73 9.6,15.7 9.9,15.68 10.2,15.7 10.51,15.73 10.81,15.78 11.12,15.85 11.42,15.92 11.73,16 12.03,16.06 12.34,16.12 12.64,16.17 12.95,16.21 13.25,16.24 13.56,16.26 13.86,16.27 14.16,16.28 14.47,16.29 14.77,16.29 15.08,16.29 15.38,16.29 15.69,16.29 15.99,16.29 16.3,16.29 16.6,16.29 16.91,16.29 17.21,16.29 17.52,16.28 17.82,16.28 18.12,16.26 18.43,16.25 18.73,16.22 19.04,16.19 19.34,16.14 19.65,16.09 19.95,16.02 20.26,15.95 20.56,15.88 20.87,15.81 21.17,15.75 21.48,15.71 21.78,15.69 22.08,15.69 22.39,15.72 22.69,15.76 23,15.82 23.3,15.89 23.61,15.96 23.91,16.02 24.22,16.08 24.52,16.12 24.83,16.14 25.13,16.15 25.44,16.13 25.74,16.1 26.04,16.05 26.35,15.99 26.65,15.92 26.96,15.85 27.26,15.79 27.57,15.73 27.87,15.69 28.18,15.68 28.48,15.68 28.79,15.71 29.09,15.75 29.4,15.79 29.7,15.84 30,15.87 30.31,15.89 30.61,15.89 30.92,15.87 31.22,15.84 31.53,15.79 31.83,15.75 32.14,15.71 32.44,15.68 32.75,15.68 33.05,15.69 33.36,15.73 33.66,15.79 33.96,15.85 34.27,15.93 34.57,16 34.88,16.07 35.18,16.13 35.49,16.17 35.79,16.21 36.1,16.24 36.4,16.26 36.71,16.27 37.01,16.28 37.32,16.29 37.62,16.29 37.93,16.29 38.23,16.29 38.53,16.29 38.84,16.29 " class="primitive"/>
          </g>
        </g>
      </g>
    </g>
  </g>
  <g class="guide ylabels" font-size="2.82" font-family="'PT Sans Caption','Helvetica Neue','Helvetica',sans-serif" fill="#6C606B" id="img-0ccdecf6-39">
    <g transform="translate(18.63,98.71)" id="img-0ccdecf6-40">
      <g class="primitive">
        <text text-anchor="end" dy="0.35em">0</text>
      </g>
    </g>
    <g transform="translate(18.63,75.79)" id="img-0ccdecf6-41">
      <g class="primitive">
        <text text-anchor="end" dy="0.35em">50</text>
      </g>
    </g>
    <g transform="translate(18.63,52.86)" id="img-0ccdecf6-42">
      <g class="primitive">
        <text text-anchor="end" dy="0.35em">100</text>
      </g>
    </g>
    <g transform="translate(18.63,29.93)" id="img-0ccdecf6-43">
      <g class="primitive">
        <text text-anchor="end" dy="0.35em">150</text>
      </g>
    </g>
    <g transform="translate(18.63,7)" id="img-0ccdecf6-44">
      <g class="primitive">
        <text text-anchor="end" dy="0.35em">200</text>
      </g>
    </g>
  </g>
  <g font-size="3.88" font-family="'PT Sans','Helvetica Neue','Helvetica',sans-serif" fill="#564A55" stroke="#000000" stroke-opacity="0.000" id="img-0ccdecf6-45">
    <g transform="translate(8.81,50.86)" id="img-0ccdecf6-46">
      <g class="primitive">
        <text text-anchor="middle" dy="0.35em" transform="rotate(-90,0, 2)">Density</text>
      </g>
    </g>
  </g>
</g>
<defs>
  <clipPath id="img-0ccdecf6-19">
    <path d="M19.63,5 L277.54,5 277.54,100.72 19.63,100.72 " />
  </clipPath>
</defs>
</svg>
