<?xml version="1.0" encoding="UTF-8"?>
<svg xmlns="http://www.w3.org/2000/svg"
     xmlns:xlink="http://www.w3.org/1999/xlink"
     xmlns:gadfly="http://www.gadflyjl.org/ns"
     version="1.2"
     width="200mm" height="120mm" viewBox="0 0 200 120"
     stroke="none"
     fill="#000000"
     stroke-width="0.3"
     font-size="3.88"
>
<defs>
  <marker id="arrow" markerWidth="15" markerHeight="7" refX="5" refY="3.5" orient="auto" markerUnits="strokeWidth">
    <path d="M0,0 L15,3.5 L0,7 z" stroke="context-stroke" fill="context-stroke"/>
  </marker>
</defs>
<g class="plotroot xscalable yscalable" id="img-ddcaa813-1">
  <g font-size="3.88" font-family="'PT Sans','Helvetica Neue','Helvetica',sans-serif" fill="#564A55" stroke="#000000" stroke-opacity="0.000" id="img-ddcaa813-2">
    <g transform="translate(98.59,108.39)">
      <g class="primitive">
        <text text-anchor="middle" dy="0.6em">Pheromone Value</text>
      </g>
    </g>
  </g>
  <g class="guide xlabels" font-size="2.82" font-family="'PT Sans Caption','Helvetica Neue','Helvetica',sans-serif" fill="#6C606B" id="img-ddcaa813-3">
    <g transform="translate(21.63,101.72)">
      <g class="primitive">
        <text text-anchor="middle" dy="0.6em">0.00</text>
      </g>
    </g>
    <g transform="translate(105.61,101.72)">
      <g class="primitive">
        <text text-anchor="middle" dy="0.6em">0.05</text>
      </g>
    </g>
  </g>
  <g class="guide colorkey" id="img-ddcaa813-4">
    <g fill="#4C404B" font-size="2.82" font-family="'PT Sans','Helvetica Neue','Helvetica',sans-serif" id="img-ddcaa813-5">
      <g transform="translate(181.35,47.42)" id="img-ddcaa813-6" class="color_Area_1">
        <g class="primitive">
          <text dy="0.35em">Area 1</text>
        </g>
      </g>
      <g transform="translate(181.35,51.04)" id="img-ddcaa813-7" class="color_Area_2:_2x2">
        <g class="primitive">
          <text dy="0.35em">Area 2: 2x2</text>
        </g>
      </g>
      <g transform="translate(181.35,54.67)" id="img-ddcaa813-8" class="color_Area_2:_4x4">
        <g class="primitive">
          <text dy="0.35em">Area 2: 4x4</text>
        </g>
      </g>
      <g transform="translate(181.35,58.3)" id="img-ddcaa813-9" class="color_Area_3">
        <g class="primitive">
          <text dy="0.35em">Area 3</text>
        </g>
      </g>
      <g transform="translate(181.35,61.92)" id="img-ddcaa813-10" class="color_Area_4">
        <g class="primitive">
          <text dy="0.35em">Area 4</text>
        </g>
      </g>
    </g>
    <g fill-opacity="1" id="img-ddcaa813-11">
      <g transform="translate(179.45,47.42)" id="img-ddcaa813-12" stroke="#FFFFFF" class="color_Area_1" fill="#FF6347">
        <path d="M-0.91,-0.91 L0.91,-0.91 0.91,0.91 -0.91,0.91  z" class="primitive"/>
      </g>
      <g transform="translate(179.45,51.04)" id="img-ddcaa813-13" stroke="#FFFFFF" class="color_Area_2:_2x2" fill="#4169E1">
        <path d="M-0.91,-0.91 L0.91,-0.91 0.91,0.91 -0.91,0.91  z" class="primitive"/>
      </g>
      <g transform="translate(179.45,54.67)" id="img-ddcaa813-14" stroke="#FFFFFF" class="color_Area_2:_4x4" fill="#404040">
        <path d="M-0.91,-0.91 L0.91,-0.91 0.91,0.91 -0.91,0.91  z" class="primitive"/>
      </g>
      <g transform="translate(179.45,58.3)" id="img-ddcaa813-15" stroke="#FFFFFF" class="color_Area_3" fill="#B23AEE">
        <path d="M-0.91,-0.91 L0.91,-0.91 0.91,0.91 -0.91,0.91  z" class="primitive"/>
      </g>
      <g transform="translate(179.45,61.92)" id="img-ddcaa813-16" stroke="#FFFFFF" class="color_Area_4" fill="#00CD66">
        <path d="M-0.91,-0.91 L0.91,-0.91 0.91,0.91 -0.91,0.91  z" class="primitive"/>
      </g>
    </g>
    <g fill="#362A35" font-size="3.88" font-family="'PT Sans','Helvetica Neue','Helvetica',sans-serif" stroke="#000000" stroke-opacity="0.000" id="img-ddcaa813-17">
      <g transform="translate(178.54,43.6)" id="img-ddcaa813-18">
        <g class="primitive">
          <text dy="-0em">Area</text>
        </g>
      </g>
    </g>
  </g>
  <g clip-path="url(#img-ddcaa813-19)">
    <g id="img-ddcaa813-20">
      <g pointer-events="visible" stroke-width="0.3" fill="#000000" fill-opacity="0.000" stroke="#000000" stroke-opacity="0.000" class="guide background" id="img-ddcaa813-21">
        <g transform="translate(98.59,52.86)" id="img-ddcaa813-22">
          <path d="M-78.95,-47.86 L78.95,-47.86 78.95,47.86 -78.95,47.86  z" class="primitive"/>
        </g>
      </g>
      <g class="guide ygridlines xfixed" stroke-dasharray="0.5,0.5" stroke-width="0.2" stroke="#D0D0E0" id="img-ddcaa813-23">
        <g transform="translate(98.59,98.71)" id="img-ddcaa813-24">
          <path fill="none" d="M-78.95,0 L78.95,0 " class="primitive"/>
        </g>
        <g transform="translate(98.59,75.79)" id="img-ddcaa813-25">
          <path fill="none" d="M-78.95,0 L78.95,0 " class="primitive"/>
        </g>
        <g transform="translate(98.59,52.86)" id="img-ddcaa813-26">
          <path fill="none" d="M-78.95,0 L78.95,0 " class="primitive"/>
        </g>
        <g transform="translate(98.59,29.93)" id="img-ddcaa813-27">
          <path fill="none" d="M-78.95,0 L78.95,0 " class="primitive"/>
        </g>
        <g transform="translate(98.59,7)" id="img-ddcaa813-28">
          <path fill="none" d="M-78.95,0 L78.95,0 " class="primitive"/>
        </g>
      </g>
      <g class="guide xgridlines yfixed" stroke-dasharray="0.5,0.5" stroke-width="0.2" stroke="#D0D0E0" id="img-ddcaa813-29">
        <g transform="translate(21.63,52.86)" id="img-ddcaa813-30">
          <path fill="none" d="M0,-47.86 L0,47.86 " class="primitive"/>
        </g>
        <g transform="translate(105.61,52.86)" id="img-ddcaa813-31">
          <path fill="none" d="M0,-47.86 L0,47.86 " class="primitive"/>
        </g>
      </g>
      <g class="plotpanel" id="img-ddcaa813-32">
        <metadata>
          <boundingbox value="19.63166666666669mm 5.0mm 157.90833333333333mm 95.715mm"/>
          <unitbox value="-0.00119078391047088 204.3613367497138 0.09401735133130294 -208.7226734994276"/>
        </metadata>
        <g stroke-width="0.3" fill="#000000" fill-opacity="0.000" class="geometry" id="img-ddcaa813-33">
          <g transform="translate(94.46,93.98)" id="img-ddcaa813-34" stroke-dasharray="none" stroke="#FF6347" class="color_Area_1">
            <path fill="none" d="M-81.08,4.73 L-80.45,4.73 -79.81,4.72 -79.17,4.7 -78.54,4.64 -77.9,4.51 -77.27,4.24 -76.63,3.71 -75.99,2.77 -75.36,1.28 -74.72,-0.91 -74.09,-3.83 -73.45,-7.38 -72.82,-11.34 -72.18,-15.37 -71.54,-19.1 -70.91,-22.27 -70.27,-24.7 -69.64,-26.39 -69,-27.4 -68.36,-27.89 -67.73,-28 -67.09,-27.89 -66.46,-27.7 -65.82,-27.56 -65.18,-27.55 -64.55,-27.67 -63.91,-27.91 -63.28,-28.16 -62.64,-28.32 -62,-28.3 -61.37,-28.03 -60.73,-27.5 -60.1,-26.73 -59.46,-25.78 -58.82,-24.72 -58.19,-23.62 -57.55,-22.52 -56.92,-21.45 -56.28,-20.42 -55.64,-19.42 -55.01,-18.43 -54.37,-17.44 -53.74,-16.41 -53.1,-15.35 -52.47,-14.28 -51.83,-13.21 -51.19,-12.18 -50.56,-11.2 -49.92,-10.29 -49.29,-9.43 -48.65,-8.59 -48.01,-7.78 -47.38,-6.98 -46.74,-6.2 -46.11,-5.44 -45.47,-4.69 -44.83,-3.95 -44.2,-3.23 -43.56,-2.53 -42.93,-1.86 -42.29,-1.21 -41.65,-0.59 -41.02,-0.01 -40.38,0.52 -39.75,0.98 -39.11,1.37 -38.47,1.68 -37.84,1.93 -37.2,2.11 -36.57,2.26 -35.93,2.36 -35.29,2.44 -34.66,2.5 -34.02,2.57 -33.39,2.67 -32.75,2.81 -32.11,2.99 -31.48,3.19 -30.84,3.4 -30.21,3.59 -29.57,3.76 -28.94,3.9 -28.3,4.01 -27.66,4.1 -27.03,4.19 -26.39,4.27 -25.76,4.34 -25.12,4.41 -24.48,4.48 -23.85,4.55 -23.21,4.61 -22.58,4.65 -21.94,4.68 -21.3,4.7 -20.67,4.72 -20.03,4.72 -19.4,4.73 -18.76,4.73 -18.12,4.73 -17.49,4.73 -16.85,4.73 -16.22,4.73 -15.58,4.73 -14.94,4.73 -14.31,4.73 -13.67,4.73 -13.04,4.73 -12.4,4.72 -11.76,4.71 -11.13,4.7 -10.49,4.67 -9.86,4.64 -9.22,4.6 -8.59,4.56 -7.95,4.53 -7.31,4.52 -6.68,4.52 -6.04,4.54 -5.41,4.57 -4.77,4.61 -4.13,4.64 -3.5,4.67 -2.86,4.7 -2.23,4.71 -1.59,4.72 -0.95,4.73 -0.32,4.73 0.32,4.73 0.95,4.73 1.59,4.73 2.23,4.73 2.86,4.73 3.5,4.73 4.13,4.73 4.77,4.73 5.41,4.73 6.04,4.72 6.68,4.72 7.31,4.71 7.95,4.69 8.59,4.67 9.22,4.65 9.86,4.64 10.49,4.62 11.13,4.62 11.76,4.63 12.4,4.64 13.04,4.66 13.67,4.68 14.31,4.7 14.94,4.71 15.58,4.72 16.22,4.73 16.85,4.73 17.49,4.73 18.12,4.73 18.76,4.73 19.4,4.73 20.03,4.73 20.67,4.73 21.3,4.73 21.94,4.73 22.58,4.73 23.21,4.73 23.85,4.73 24.48,4.73 25.12,4.73 25.76,4.73 26.39,4.73 27.03,4.73 27.66,4.73 28.3,4.73 28.94,4.73 29.57,4.73 30.21,4.73 30.84,4.73 31.48,4.73 32.11,4.73 32.75,4.73 33.39,4.73 34.02,4.73 34.66,4.73 35.29,4.73 35.93,4.73 36.57,4.73 37.2,4.73 37.84,4.73 38.47,4.73 39.11,4.73 39.75,4.73 40.38,4.73 41.02,4.73 41.65,4.73 42.29,4.73 42.93,4.73 43.56,4.73 44.2,4.73 44.83,4.73 45.47,4.73 46.11,4.73 46.74,4.73 47.38,4.73 48.01,4.73 48.65,4.73 49.29,4.73 49.92,4.73 50.56,4.73 51.19,4.73 51.83,4.73 52.47,4.73 53.1,4.73 53.74,4.73 54.37,4.73 55.01,4.73 55.64,4.73 56.28,4.73 56.92,4.73 57.55,4.73 58.19,4.73 58.82,4.73 59.46,4.73 60.1,4.73 60.73,4.73 61.37,4.73 62,4.73 62.64,4.73 63.28,4.73 63.91,4.73 64.55,4.73 65.18,4.73 65.82,4.73 66.46,4.73 67.09,4.73 67.73,4.72 68.36,4.71 69,4.69 69.64,4.66 70.27,4.62 70.91,4.58 71.54,4.54 72.18,4.52 72.82,4.51 73.45,4.52 74.09,4.55 74.72,4.59 75.36,4.63 75.99,4.66 76.63,4.69 77.27,4.71 77.9,4.72 78.54,4.73 79.17,4.73 79.81,4.73 80.45,4.73 81.08,4.73 " class="primitive"/>
          </g>
          <g transform="translate(51.18,88.59)" id="img-ddcaa813-35" stroke-dasharray="none" stroke="#B23AEE" class="color_Area_3">
            <path fill="none" d="M-37.9,10.12 L-37.6,10.12 -37.3,10.12 -37.01,10.12 -36.71,10.11 -36.41,10.11 -36.12,10.1 -35.82,10.09 -35.52,10.07 -35.22,10.03 -34.93,9.99 -34.63,9.92 -34.33,9.83 -34.03,9.7 -33.74,9.52 -33.44,9.29 -33.14,8.98 -32.85,8.58 -32.55,8.08 -32.25,7.47 -31.95,6.73 -31.66,5.85 -31.36,4.84 -31.06,3.68 -30.76,2.39 -30.47,0.98 -30.17,-0.53 -29.87,-2.11 -29.58,-3.75 -29.28,-5.4 -28.98,-7.03 -28.68,-8.62 -28.39,-10.13 -28.09,-11.53 -27.79,-12.82 -27.49,-13.98 -27.2,-14.99 -26.9,-15.85 -26.6,-16.58 -26.31,-17.16 -26.01,-17.62 -25.71,-17.97 -25.41,-18.22 -25.12,-18.38 -24.82,-18.46 -24.52,-18.49 -24.23,-18.47 -23.93,-18.42 -23.63,-18.36 -23.33,-18.28 -23.04,-18.21 -22.74,-18.15 -22.44,-18.12 -22.14,-18.1 -21.85,-18.12 -21.55,-18.16 -21.25,-18.23 -20.96,-18.32 -20.66,-18.42 -20.36,-18.53 -20.06,-18.64 -19.77,-18.73 -19.47,-18.8 -19.17,-18.85 -18.87,-18.86 -18.58,-18.83 -18.28,-18.75 -17.98,-18.64 -17.69,-18.49 -17.39,-18.31 -17.09,-18.1 -16.79,-17.86 -16.5,-17.62 -16.2,-17.37 -15.9,-17.13 -15.61,-16.9 -15.31,-16.69 -15.01,-16.5 -14.71,-16.35 -14.42,-16.22 -14.12,-16.13 -13.82,-16.06 -13.52,-16.01 -13.23,-15.98 -12.93,-15.96 -12.63,-15.93 -12.34,-15.89 -12.04,-15.84 -11.74,-15.76 -11.44,-15.65 -11.15,-15.5 -10.85,-15.31 -10.55,-15.08 -10.25,-14.81 -9.96,-14.5 -9.66,-14.15 -9.36,-13.77 -9.07,-13.36 -8.77,-12.92 -8.47,-12.47 -8.17,-11.99 -7.88,-11.49 -7.58,-10.99 -7.28,-10.47 -6.99,-9.95 -6.69,-9.42 -6.39,-8.89 -6.09,-8.36 -5.8,-7.83 -5.5,-7.3 -5.2,-6.78 -4.9,-6.26 -4.61,-5.74 -4.31,-5.23 -4.01,-4.73 -3.72,-4.23 -3.42,-3.75 -3.12,-3.26 -2.82,-2.79 -2.53,-2.32 -2.23,-1.86 -1.93,-1.41 -1.63,-0.97 -1.34,-0.54 -1.04,-0.11 -0.74,0.3 -0.45,0.71 -0.15,1.1 0.15,1.48 0.45,1.85 0.74,2.21 1.04,2.56 1.34,2.89 1.63,3.21 1.93,3.51 2.23,3.79 2.53,4.06 2.82,4.3 3.12,4.53 3.42,4.74 3.72,4.94 4.01,5.12 4.31,5.28 4.61,5.44 4.9,5.59 5.2,5.74 5.5,5.89 5.8,6.04 6.09,6.2 6.39,6.36 6.69,6.52 6.99,6.7 7.28,6.88 7.58,7.07 7.88,7.26 8.17,7.45 8.47,7.64 8.77,7.83 9.07,8 9.36,8.17 9.66,8.33 9.96,8.47 10.25,8.59 10.55,8.7 10.85,8.8 11.15,8.88 11.44,8.96 11.74,9.02 12.04,9.07 12.34,9.11 12.63,9.15 12.93,9.18 13.23,9.22 13.52,9.25 13.82,9.27 14.12,9.3 14.42,9.33 14.71,9.36 15.01,9.4 15.31,9.43 15.61,9.46 15.9,9.49 16.2,9.53 16.5,9.56 16.79,9.6 17.09,9.63 17.39,9.67 17.69,9.7 17.98,9.73 18.28,9.76 18.58,9.79 18.87,9.81 19.17,9.83 19.47,9.84 19.77,9.85 20.06,9.85 20.36,9.85 20.66,9.84 20.96,9.82 21.25,9.8 21.55,9.77 21.85,9.73 22.14,9.7 22.44,9.65 22.74,9.61 23.04,9.57 23.33,9.52 23.63,9.47 23.93,9.43 24.23,9.39 24.52,9.35 24.82,9.32 25.12,9.29 25.41,9.28 25.71,9.27 26.01,9.27 26.31,9.28 26.6,9.3 26.9,9.33 27.2,9.36 27.49,9.41 27.79,9.46 28.09,9.51 28.39,9.57 28.68,9.63 28.98,9.68 29.28,9.74 29.58,9.79 29.87,9.83 30.17,9.88 30.47,9.91 30.76,9.95 31.06,9.98 31.36,10 31.66,10.03 31.95,10.05 32.25,10.06 32.55,10.07 32.85,10.09 33.14,10.09 33.44,10.1 33.74,10.11 34.03,10.11 34.33,10.11 34.63,10.12 34.93,10.12 35.22,10.12 35.52,10.12 35.82,10.12 36.12,10.12 36.41,10.12 36.71,10.12 37.01,10.12 37.3,10.12 37.6,10.12 37.9,10.12 " class="primitive"/>
          </g>
          <g transform="translate(47.97,86.39)" id="img-ddcaa813-36" stroke-dasharray="none" stroke="#4169E1" class="color_Area_2:_2x2">
            <path fill="none" d="M-31.12,12.32 L-30.88,12.32 -30.63,12.32 -30.39,12.31 -30.14,12.29 -29.9,12.25 -29.66,12.17 -29.41,12.05 -29.17,11.83 -28.92,11.49 -28.68,10.95 -28.44,10.14 -28.19,8.98 -27.95,7.38 -27.7,5.27 -27.46,2.58 -27.22,-0.7 -26.97,-4.54 -26.73,-8.87 -26.48,-13.56 -26.24,-18.43 -26,-23.31 -25.75,-28 -25.51,-32.35 -25.26,-36.23 -25.02,-39.57 -24.77,-42.34 -24.53,-44.57 -24.29,-46.29 -24.04,-47.59 -23.8,-48.54 -23.55,-49.22 -23.31,-49.7 -23.07,-50.03 -22.82,-50.26 -22.58,-50.41 -22.33,-50.51 -22.09,-50.54 -21.85,-50.51 -21.6,-50.38 -21.36,-50.15 -21.11,-49.77 -20.87,-49.25 -20.63,-48.58 -20.38,-47.77 -20.14,-46.84 -19.89,-45.85 -19.65,-44.84 -19.41,-43.85 -19.16,-42.93 -18.92,-42.11 -18.67,-41.38 -18.43,-40.73 -18.18,-40.11 -17.94,-39.47 -17.7,-38.72 -17.45,-37.83 -17.21,-36.72 -16.96,-35.39 -16.72,-33.82 -16.48,-32.05 -16.23,-30.13 -15.99,-28.12 -15.74,-26.09 -15.5,-24.08 -15.26,-22.15 -15.01,-20.32 -14.77,-18.59 -14.52,-16.95 -14.28,-15.39 -14.04,-13.87 -13.79,-12.38 -13.55,-10.91 -13.3,-9.45 -13.06,-8.02 -12.81,-6.64 -12.57,-5.33 -12.33,-4.13 -12.08,-3.05 -11.84,-2.11 -11.59,-1.32 -11.35,-0.65 -11.11,-0.1 -10.86,0.36 -10.62,0.76 -10.37,1.13 -10.13,1.49 -9.89,1.86 -9.64,2.27 -9.4,2.71 -9.15,3.19 -8.91,3.7 -8.67,4.24 -8.42,4.79 -8.18,5.35 -7.93,5.88 -7.69,6.38 -7.44,6.81 -7.2,7.16 -6.96,7.42 -6.71,7.6 -6.47,7.7 -6.22,7.75 -5.98,7.77 -5.74,7.8 -5.49,7.86 -5.25,7.96 -5,8.12 -4.76,8.32 -4.52,8.56 -4.27,8.82 -4.03,9.09 -3.78,9.34 -3.54,9.58 -3.3,9.8 -3.05,9.99 -2.81,10.17 -2.56,10.33 -2.32,10.46 -2.07,10.57 -1.83,10.67 -1.59,10.73 -1.34,10.78 -1.1,10.81 -0.85,10.84 -0.61,10.86 -0.37,10.9 -0.12,10.94 0.12,11.01 0.37,11.09 0.61,11.18 0.85,11.29 1.1,11.39 1.34,11.49 1.59,11.59 1.83,11.67 2.07,11.75 2.32,11.83 2.56,11.89 2.81,11.94 3.05,11.98 3.3,12.01 3.54,12.03 3.78,12.03 4.03,12.03 4.27,12.01 4.52,11.99 4.76,11.97 5,11.96 5.25,11.96 5.49,11.97 5.74,11.99 5.98,12.02 6.22,12.07 6.47,12.11 6.71,12.15 6.96,12.19 7.2,12.23 7.44,12.26 7.69,12.28 7.93,12.3 8.18,12.31 8.42,12.31 8.67,12.32 8.91,12.32 9.15,12.32 9.4,12.33 9.64,12.33 9.89,12.33 10.13,12.33 10.37,12.33 10.62,12.33 10.86,12.33 11.11,12.33 11.35,12.33 11.59,12.33 11.84,12.33 12.08,12.33 12.33,12.33 12.57,12.33 12.81,12.33 13.06,12.33 13.3,12.33 13.55,12.33 13.79,12.33 14.04,12.33 14.28,12.33 14.52,12.33 14.77,12.33 15.01,12.33 15.26,12.33 15.5,12.33 15.74,12.33 15.99,12.33 16.23,12.33 16.48,12.33 16.72,12.33 16.96,12.33 17.21,12.33 17.45,12.33 17.7,12.33 17.94,12.33 18.18,12.33 18.43,12.33 18.67,12.33 18.92,12.33 19.16,12.33 19.41,12.33 19.65,12.33 19.89,12.33 20.14,12.33 20.38,12.33 20.63,12.33 20.87,12.33 21.11,12.33 21.36,12.33 21.6,12.33 21.85,12.33 22.09,12.33 22.33,12.32 22.58,12.32 22.82,12.32 23.07,12.32 23.31,12.31 23.55,12.3 23.8,12.29 24.04,12.27 24.29,12.24 24.53,12.21 24.77,12.17 25.02,12.13 25.26,12.08 25.51,12.04 25.75,12.01 26,11.98 26.24,11.97 26.48,11.97 26.73,11.99 26.97,12.01 27.22,12.05 27.46,12.09 27.7,12.14 27.95,12.18 28.19,12.22 28.44,12.25 28.68,12.27 28.92,12.29 29.17,12.3 29.41,12.31 29.66,12.32 29.9,12.32 30.14,12.32 30.39,12.32 30.63,12.33 30.88,12.33 31.12,12.33 " class="primitive"/>
          </g>
          <g transform="translate(49.42,87.22)" id="img-ddcaa813-37" stroke-dasharray="none" stroke="#00CD66" class="color_Area_4">
            <path fill="none" d="M-33.38,11.49 L-33.12,11.49 -32.86,11.48 -32.6,11.48 -32.34,11.47 -32.07,11.44 -31.81,11.4 -31.55,11.33 -31.29,11.22 -31.03,11.04 -30.76,10.76 -30.5,10.34 -30.24,9.74 -29.98,8.9 -29.72,7.77 -29.46,6.3 -29.19,4.45 -28.93,2.21 -28.67,-0.43 -28.41,-3.42 -28.15,-6.7 -27.88,-10.18 -27.62,-13.76 -27.36,-17.31 -27.1,-20.71 -26.84,-23.89 -26.58,-26.74 -26.31,-29.23 -26.05,-31.34 -25.79,-33.07 -25.53,-34.45 -25.27,-35.52 -25,-36.33 -24.74,-36.92 -24.48,-37.34 -24.22,-37.63 -23.96,-37.81 -23.7,-37.9 -23.43,-37.91 -23.17,-37.85 -22.91,-37.7 -22.65,-37.48 -22.39,-37.18 -22.12,-36.82 -21.86,-36.42 -21.6,-35.98 -21.34,-35.56 -21.08,-35.17 -20.82,-34.86 -20.55,-34.64 -20.29,-34.53 -20.03,-34.54 -19.77,-34.66 -19.51,-34.87 -19.24,-35.13 -18.98,-35.39 -18.72,-35.62 -18.46,-35.76 -18.2,-35.78 -17.94,-35.64 -17.67,-35.32 -17.41,-34.81 -17.15,-34.1 -16.89,-33.21 -16.63,-32.16 -16.36,-30.96 -16.1,-29.65 -15.84,-28.24 -15.58,-26.77 -15.32,-25.26 -15.05,-23.72 -14.79,-22.18 -14.53,-20.64 -14.27,-19.12 -14.01,-17.62 -13.75,-16.16 -13.48,-14.73 -13.22,-13.35 -12.96,-12.03 -12.7,-10.76 -12.44,-9.56 -12.17,-8.43 -11.91,-7.36 -11.65,-6.36 -11.39,-5.42 -11.13,-4.54 -10.87,-3.71 -10.6,-2.94 -10.34,-2.23 -10.08,-1.57 -9.82,-0.96 -9.56,-0.41 -9.29,0.09 -9.03,0.54 -8.77,0.96 -8.51,1.36 -8.25,1.75 -7.99,2.15 -7.72,2.56 -7.46,3 -7.2,3.47 -6.94,3.98 -6.68,4.51 -6.41,5.06 -6.15,5.61 -5.89,6.16 -5.63,6.69 -5.37,7.18 -5.11,7.63 -4.84,8.03 -4.58,8.38 -4.32,8.67 -4.06,8.91 -3.8,9.11 -3.53,9.26 -3.27,9.38 -3.01,9.47 -2.75,9.53 -2.49,9.57 -2.23,9.59 -1.96,9.6 -1.7,9.61 -1.44,9.61 -1.18,9.62 -0.92,9.63 -0.65,9.65 -0.39,9.69 -0.13,9.73 0.13,9.77 0.39,9.83 0.65,9.89 0.92,9.95 1.18,10 1.44,10.05 1.7,10.1 1.96,10.14 2.23,10.18 2.49,10.22 2.75,10.25 3.01,10.29 3.27,10.32 3.53,10.35 3.8,10.38 4.06,10.4 4.32,10.41 4.58,10.42 4.84,10.42 5.11,10.41 5.37,10.41 5.63,10.41 5.89,10.42 6.15,10.44 6.41,10.48 6.68,10.54 6.94,10.61 7.2,10.7 7.46,10.79 7.72,10.89 7.99,10.99 8.25,11.08 8.51,11.17 8.77,11.24 9.03,11.3 9.29,11.36 9.56,11.4 9.82,11.43 10.08,11.45 10.34,11.46 10.6,11.47 10.87,11.48 11.13,11.48 11.39,11.49 11.65,11.49 11.91,11.49 12.17,11.48 12.44,11.48 12.7,11.47 12.96,11.46 13.22,11.45 13.48,11.43 13.75,11.41 14.01,11.38 14.27,11.34 14.53,11.3 14.79,11.25 15.05,11.2 15.32,11.16 15.58,11.12 15.84,11.08 16.1,11.06 16.36,11.04 16.63,11.04 16.89,11.05 17.15,11.08 17.41,11.11 17.67,11.15 17.94,11.2 18.2,11.24 18.46,11.28 18.72,11.31 18.98,11.34 19.24,11.35 19.51,11.36 19.77,11.35 20.03,11.34 20.29,11.32 20.55,11.3 20.82,11.28 21.08,11.27 21.34,11.25 21.6,11.25 21.86,11.25 22.12,11.26 22.39,11.28 22.65,11.3 22.91,11.32 23.17,11.35 23.43,11.38 23.7,11.4 23.96,11.42 24.22,11.43 24.48,11.44 24.74,11.44 25,11.44 25.27,11.43 25.53,11.42 25.79,11.4 26.05,11.38 26.31,11.35 26.58,11.32 26.84,11.3 27.1,11.28 27.36,11.26 27.62,11.25 27.88,11.25 28.15,11.26 28.41,11.27 28.67,11.29 28.93,11.32 29.19,11.34 29.46,11.37 29.72,11.4 29.98,11.42 30.24,11.44 30.5,11.45 30.76,11.47 31.03,11.47 31.29,11.48 31.55,11.48 31.81,11.49 32.07,11.49 32.34,11.49 32.6,11.49 32.86,11.49 33.12,11.49 33.38,11.49 " class="primitive"/>
          </g>
          <g transform="translate(41.48,82.42)" id="img-ddcaa813-38" stroke-dasharray="none" stroke="#404040" class="color_Area_2:_4x4">
            <path fill="none" d="M-23.54,16.29 L-23.36,16.29 -23.17,16.28 -22.99,16.27 -22.8,16.25 -22.62,16.2 -22.43,16.12 -22.25,15.97 -22.07,15.72 -21.88,15.32 -21.7,14.7 -21.51,13.76 -21.33,12.43 -21.14,10.57 -20.96,8.11 -20.77,4.96 -20.59,1.09 -20.4,-3.5 -20.22,-8.74 -20.03,-14.48 -19.85,-20.54 -19.66,-26.71 -19.48,-32.76 -19.3,-38.48 -19.11,-43.7 -18.93,-48.3 -18.74,-52.23 -18.56,-55.47 -18.37,-58.08 -18.19,-60.13 -18,-61.7 -17.82,-62.88 -17.63,-63.76 -17.45,-64.39 -17.26,-64.84 -17.08,-65.15 -16.9,-65.35 -16.71,-65.49 -16.53,-65.58 -16.34,-65.66 -16.16,-65.74 -15.97,-65.83 -15.79,-65.93 -15.6,-66.02 -15.42,-66.09 -15.23,-66.1 -15.05,-66.01 -14.86,-65.77 -14.68,-65.34 -14.49,-64.68 -14.31,-63.76 -14.13,-62.56 -13.94,-61.07 -13.76,-59.29 -13.57,-57.27 -13.39,-55.03 -13.2,-52.62 -13.02,-50.11 -12.83,-47.56 -12.65,-45.03 -12.46,-42.55 -12.28,-40.16 -12.09,-37.88 -11.91,-35.7 -11.73,-33.58 -11.54,-31.49 -11.36,-29.38 -11.17,-27.22 -10.99,-24.97 -10.8,-22.64 -10.62,-20.24 -10.43,-17.82 -10.25,-15.42 -10.06,-13.11 -9.88,-10.95 -9.69,-8.98 -9.51,-7.22 -9.32,-5.69 -9.14,-4.38 -8.96,-3.25 -8.77,-2.27 -8.59,-1.38 -8.4,-0.53 -8.22,0.32 -8.03,1.19 -7.85,2.11 -7.66,3.05 -7.48,3.99 -7.29,4.92 -7.11,5.79 -6.92,6.57 -6.74,7.26 -6.55,7.85 -6.37,8.35 -6.19,8.78 -6,9.15 -5.82,9.49 -5.63,9.82 -5.45,10.16 -5.26,10.51 -5.08,10.87 -4.89,11.25 -4.71,11.63 -4.52,12 -4.34,12.36 -4.15,12.69 -3.97,13 -3.79,13.28 -3.6,13.52 -3.42,13.74 -3.23,13.94 -3.05,14.12 -2.86,14.27 -2.68,14.42 -2.49,14.54 -2.31,14.63 -2.12,14.7 -1.94,14.74 -1.75,14.76 -1.57,14.75 -1.38,14.72 -1.2,14.68 -1.02,14.65 -0.83,14.63 -0.65,14.62 -0.46,14.64 -0.28,14.68 -0.09,14.73 0.09,14.8 0.28,14.86 0.46,14.91 0.65,14.94 0.83,14.96 1.02,14.95 1.2,14.95 1.38,14.94 1.57,14.95 1.75,14.99 1.94,15.06 2.12,15.16 2.31,15.28 2.49,15.42 2.68,15.57 2.86,15.72 3.05,15.85 3.23,15.96 3.42,16.05 3.6,16.11 3.79,16.15 3.97,16.17 4.15,16.17 4.34,16.15 4.52,16.11 4.71,16.06 4.89,15.99 5.08,15.92 5.26,15.85 5.45,15.79 5.63,15.73 5.82,15.7 6,15.68 6.19,15.7 6.37,15.73 6.55,15.78 6.74,15.85 6.92,15.92 7.11,16 7.29,16.06 7.48,16.12 7.66,16.17 7.85,16.21 8.03,16.24 8.22,16.26 8.4,16.27 8.59,16.28 8.77,16.29 8.96,16.29 9.14,16.29 9.32,16.29 9.51,16.29 9.69,16.29 9.88,16.29 10.06,16.29 10.25,16.29 10.43,16.29 10.62,16.28 10.8,16.28 10.99,16.26 11.17,16.25 11.36,16.22 11.54,16.19 11.73,16.14 11.91,16.09 12.09,16.02 12.28,15.95 12.46,15.88 12.65,15.81 12.83,15.75 13.02,15.71 13.2,15.69 13.39,15.69 13.57,15.72 13.76,15.76 13.94,15.82 14.13,15.89 14.31,15.96 14.49,16.02 14.68,16.08 14.86,16.12 15.05,16.14 15.23,16.15 15.42,16.13 15.6,16.1 15.79,16.05 15.97,15.99 16.16,15.92 16.34,15.85 16.53,15.79 16.71,15.73 16.9,15.69 17.08,15.68 17.26,15.68 17.45,15.71 17.63,15.75 17.82,15.79 18,15.84 18.19,15.87 18.37,15.89 18.56,15.89 18.74,15.87 18.93,15.84 19.11,15.79 19.3,15.75 19.48,15.71 19.66,15.68 19.85,15.68 20.03,15.69 20.22,15.73 20.4,15.79 20.59,15.85 20.77,15.93 20.96,16 21.14,16.07 21.33,16.13 21.51,16.17 21.7,16.21 21.88,16.24 22.07,16.26 22.25,16.27 22.43,16.28 22.62,16.29 22.8,16.29 22.99,16.29 23.17,16.29 23.36,16.29 23.54,16.29 " class="primitive"/>
          </g>
        </g>
      </g>
    </g>
  </g>
  <g class="guide ylabels" font-size="2.82" font-family="'PT Sans Caption','Helvetica Neue','Helvetica',sans-serif" fill="#6C606B" id="img-ddcaa813-39">
    <g transform="translate(18.63,98.71)" id="img-ddcaa813-40">
      <g class="primitive">
        <text text-anchor="end" dy="0.35em">0</text>
      </g>
    </g>
    <g transform="translate(18.63,75.79)" id="img-ddcaa813-41">
      <g class="primitive">
        <text text-anchor="end" dy="0.35em">50</text>
      </g>
    </g>
    <g transform="translate(18.63,52.86)" id="img-ddcaa813-42">
      <g class="primitive">
        <text text-anchor="end" dy="0.35em">100</text>
      </g>
    </g>
    <g transform="translate(18.63,29.93)" id="img-ddcaa813-43">
      <g class="primitive">
        <text text-anchor="end" dy="0.35em">150</text>
      </g>
    </g>
    <g transform="translate(18.63,7)" id="img-ddcaa813-44">
      <g class="primitive">
        <text text-anchor="end" dy="0.35em">200</text>
      </g>
    </g>
  </g>
  <g font-size="3.88" font-family="'PT Sans','Helvetica Neue','Helvetica',sans-serif" fill="#564A55" stroke="#000000" stroke-opacity="0.000" id="img-ddcaa813-45">
    <g transform="translate(8.81,50.86)" id="img-ddcaa813-46">
      <g class="primitive">
        <text text-anchor="middle" dy="0.35em" transform="rotate(-90,0, 2)">Density</text>
      </g>
    </g>
  </g>
</g>
<defs>
  <clipPath id="img-ddcaa813-19">
    <path d="M19.63,5 L177.54,5 177.54,100.72 19.63,100.72 " />
  </clipPath>
</defs>
</svg>
