<?xml version="1.0" encoding="UTF-8"?>
<svg xmlns="http://www.w3.org/2000/svg"
     xmlns:xlink="http://www.w3.org/1999/xlink"
     xmlns:gadfly="http://www.gadflyjl.org/ns"
     version="1.2"
     width="200mm" height="120mm" viewBox="0 0 200 120"
     stroke="none"
     fill="#000000"
     stroke-width="0.3"
     font-size="3.88"
>
<defs>
  <marker id="arrow" markerWidth="15" markerHeight="7" refX="5" refY="3.5" orient="auto" markerUnits="strokeWidth">
    <path d="M0,0 L15,3.5 L0,7 z" stroke="context-stroke" fill="context-stroke"/>
  </marker>
</defs>
<g class="plotroot xscalable yscalable" id="img-683f8739-1">
  <g font-size="3.53" font-family="CMU Serif" fill="#564A55" stroke="#000000" stroke-opacity="0.000" id="img-683f8739-2">
    <g transform="translate(101.79,108.71)">
      <g class="primitive">
        <text text-anchor="middle" dy="0.6em">Proper Motion Declination (mas/yr)</text>
      </g>
    </g>
  </g>
  <g class="guide xlabels" font-size="3.53" font-family="CMU Serif" fill="#6C606B" id="img-683f8739-3">
    <g transform="translate(25.11,101.42)">
      <g class="primitive">
        <text text-anchor="middle" dy="0.6em">-500</text>
      </g>
    </g>
    <g transform="translate(63.45,101.42)">
      <g class="primitive">
        <text text-anchor="middle" dy="0.6em">0</text>
      </g>
    </g>
    <g transform="translate(101.79,101.42)">
      <g class="primitive">
        <text text-anchor="middle" dy="0.6em">500</text>
      </g>
    </g>
    <g transform="translate(140.14,101.42)">
      <g class="primitive">
        <text text-anchor="middle" dy="0.6em">1000</text>
      </g>
    </g>
    <g transform="translate(178.48,101.42)">
      <g class="primitive">
        <text text-anchor="middle" dy="0.6em">1500</text>
      </g>
    </g>
  </g>
  <g class="guide colorkey" id="img-683f8739-4">
    <g fill="#4C404B" font-size="3.53" font-family="CMU Serif" id="img-683f8739-5">
      <g transform="translate(184.62,48.42)" id="img-683f8739-6" class="color_Area_1">
        <g class="primitive">
          <text dy="0.35em">Area 1</text>
        </g>
      </g>
      <g transform="translate(184.62,52.71)" id="img-683f8739-7" class="color_Area_2">
        <g class="primitive">
          <text dy="0.35em">Area 2</text>
        </g>
      </g>
      <g transform="translate(184.62,57)" id="img-683f8739-8" class="color_Area_3">
        <g class="primitive">
          <text dy="0.35em">Area 3</text>
        </g>
      </g>
      <g transform="translate(184.62,61.29)" id="img-683f8739-9" class="color_Area_4">
        <g class="primitive">
          <text dy="0.35em">Area 4</text>
        </g>
      </g>
    </g>
    <g fill-opacity="1" id="img-683f8739-10">
      <g transform="translate(182.55,48.42)" id="img-683f8739-11" stroke="#FFFFFF" class="color_Area_1" fill="#FF6347">
        <path d="M-1.07,-1.07 L1.07,-1.07 1.07,1.07 -1.07,1.07  z" class="primitive"/>
      </g>
      <g transform="translate(182.55,52.71)" id="img-683f8739-12" stroke="#FFFFFF" class="color_Area_2" fill="#4169E1">
        <path d="M-1.07,-1.07 L1.07,-1.07 1.07,1.07 -1.07,1.07  z" class="primitive"/>
      </g>
      <g transform="translate(182.55,57)" id="img-683f8739-13" stroke="#FFFFFF" class="color_Area_3" fill="#B23AEE">
        <path d="M-1.07,-1.07 L1.07,-1.07 1.07,1.07 -1.07,1.07  z" class="primitive"/>
      </g>
      <g transform="translate(182.55,61.29)" id="img-683f8739-14" stroke="#FFFFFF" class="color_Area_4" fill="#00CD66">
        <path d="M-1.07,-1.07 L1.07,-1.07 1.07,1.07 -1.07,1.07  z" class="primitive"/>
      </g>
    </g>
    <g fill="#362A35" font-size="4.23" font-family="CMU Serif" stroke="#000000" stroke-opacity="0.000" id="img-683f8739-15">
      <g transform="translate(181.48,44.1)" id="img-683f8739-16">
        <g class="primitive">
          <text dy="-0em">Area</text>
        </g>
      </g>
    </g>
  </g>
  <g clip-path="url(#img-683f8739-17)">
    <g id="img-683f8739-18">
      <g pointer-events="visible" stroke-width="0.3" fill="#000000" fill-opacity="0.000" stroke="#000000" stroke-opacity="0.000" class="guide background" id="img-683f8739-19">
        <g transform="translate(101.79,52.71)" id="img-683f8739-20">
          <path d="M-78.69,-47.71 L78.69,-47.71 78.69,47.71 -78.69,47.71  z" class="primitive"/>
        </g>
      </g>
      <g class="guide ygridlines xfixed" stroke-dasharray="0.5,0.5" stroke-width="0.2" stroke="#D0D0E0" id="img-683f8739-21">
        <g transform="translate(101.79,98.42)" id="img-683f8739-22">
          <path fill="none" d="M-78.69,0 L78.69,0 " class="primitive"/>
        </g>
        <g transform="translate(101.79,67.94)" id="img-683f8739-23">
          <path fill="none" d="M-78.69,0 L78.69,0 " class="primitive"/>
        </g>
        <g transform="translate(101.79,37.47)" id="img-683f8739-24">
          <path fill="none" d="M-78.69,0 L78.69,0 " class="primitive"/>
        </g>
        <g transform="translate(101.79,7)" id="img-683f8739-25">
          <path fill="none" d="M-78.69,0 L78.69,0 " class="primitive"/>
        </g>
      </g>
      <g class="guide xgridlines yfixed" stroke-dasharray="0.5,0.5" stroke-width="0.2" stroke="#D0D0E0" id="img-683f8739-26">
        <g transform="translate(25.11,52.71)" id="img-683f8739-27">
          <path fill="none" d="M0,-47.71 L0,47.71 " class="primitive"/>
        </g>
        <g transform="translate(63.45,52.71)" id="img-683f8739-28">
          <path fill="none" d="M0,-47.71 L0,47.71 " class="primitive"/>
        </g>
        <g transform="translate(101.79,52.71)" id="img-683f8739-29">
          <path fill="none" d="M0,-47.71 L0,47.71 " class="primitive"/>
        </g>
        <g transform="translate(140.14,52.71)" id="img-683f8739-30">
          <path fill="none" d="M0,-47.71 L0,47.71 " class="primitive"/>
        </g>
        <g transform="translate(178.48,52.71)" id="img-683f8739-31">
          <path fill="none" d="M0,-47.71 L0,47.71 " class="primitive"/>
        </g>
      </g>
      <g class="plotpanel" id="img-683f8739-32">
        <metadata>
          <boundingbox value="23.10833333333332mm 5.0mm 157.37083333333334mm 95.41666666666667mm"/>
          <unitbox value="-526.0805781194816 0.0153281677301732 2052.1611562389635 -0.015656335460346397"/>
        </metadata>
        <g stroke-width="0.3" fill="#000000" fill-opacity="0.000" class="geometry" id="img-683f8739-33">
          <g transform="translate(112.99,94.18)" id="img-683f8739-34" stroke-dasharray="none" stroke="#FF6347" class="color_Area_1">
            <path fill="none" d="M-54.94,4.24 L-54.51,4.24 -54.08,4.23 -53.65,4.22 -53.22,4.2 -52.79,4.11 -52.36,3.91 -51.93,3.45 -51.5,2.55 -51.06,0.98 -50.63,-1.45 -50.2,-4.77 -49.77,-8.78 -49.34,-13.08 -48.91,-17.14 -48.48,-20.53 -48.05,-23.04 -47.62,-24.67 -47.19,-25.62 -46.76,-26.1 -46.32,-26.32 -45.89,-26.41 -45.46,-26.44 -45.03,-26.44 -44.6,-26.44 -44.17,-26.44 -43.74,-26.42 -43.31,-26.39 -42.88,-26.34 -42.45,-26.26 -42.02,-26.1 -41.58,-25.82 -41.15,-25.39 -40.72,-24.76 -40.29,-23.92 -39.86,-22.87 -39.43,-21.68 -39,-20.38 -38.57,-19.04 -38.14,-17.71 -37.71,-16.41 -37.27,-15.19 -36.84,-14.03 -36.41,-12.92 -35.98,-11.83 -35.55,-10.75 -35.12,-9.67 -34.69,-8.61 -34.26,-7.6 -33.83,-6.65 -33.4,-5.79 -32.97,-5.02 -32.53,-4.34 -32.1,-3.71 -31.67,-3.15 -31.24,-2.62 -30.81,-2.12 -30.38,-1.65 -29.95,-1.21 -29.52,-0.8 -29.09,-0.45 -28.66,-0.14 -28.23,0.16 -27.79,0.46 -27.36,0.76 -26.93,1.07 -26.5,1.34 -26.07,1.58 -25.64,1.78 -25.21,1.95 -24.78,2.11 -24.35,2.27 -23.92,2.43 -23.49,2.58 -23.05,2.71 -22.62,2.81 -22.19,2.89 -21.76,2.95 -21.33,3.01 -20.9,3.08 -20.47,3.16 -20.04,3.25 -19.61,3.37 -19.18,3.51 -18.75,3.65 -18.31,3.78 -17.88,3.88 -17.45,3.95 -17.02,3.99 -16.59,4.02 -16.16,4.04 -15.73,4.06 -15.3,4.09 -14.87,4.09 -14.44,4.08 -14.01,4.03 -13.57,3.97 -13.14,3.89 -12.71,3.82 -12.28,3.78 -11.85,3.76 -11.42,3.77 -10.99,3.8 -10.56,3.85 -10.13,3.9 -9.7,3.95 -9.26,4 -8.83,4.03 -8.4,4.06 -7.97,4.06 -7.54,4.06 -7.11,4.06 -6.68,4.07 -6.25,4.09 -5.82,4.12 -5.39,4.15 -4.96,4.18 -4.52,4.2 -4.09,4.22 -3.66,4.22 -3.23,4.21 -2.8,4.2 -2.37,4.19 -1.94,4.17 -1.51,4.16 -1.08,4.16 -0.65,4.17 -0.22,4.18 0.22,4.2 0.65,4.21 1.08,4.21 1.51,4.21 1.94,4.19 2.37,4.16 2.8,4.13 3.23,4.09 3.66,4.07 4.09,4.05 4.52,4.05 4.96,4.07 5.39,4.09 5.82,4.12 6.25,4.14 6.68,4.17 7.11,4.19 7.54,4.21 7.97,4.22 8.4,4.23 8.83,4.23 9.26,4.24 9.7,4.24 10.13,4.24 10.56,4.24 10.99,4.24 11.42,4.24 11.85,4.24 12.28,4.24 12.71,4.24 13.14,4.24 13.57,4.24 14.01,4.24 14.44,4.24 14.87,4.23 15.3,4.23 15.73,4.23 16.16,4.22 16.59,4.2 17.02,4.19 17.45,4.17 17.88,4.16 18.31,4.16 18.75,4.17 19.18,4.18 19.61,4.2 20.04,4.21 20.47,4.22 20.9,4.23 21.33,4.23 21.76,4.22 22.19,4.21 22.62,4.2 23.05,4.18 23.49,4.17 23.92,4.16 24.35,4.16 24.78,4.17 25.21,4.18 25.64,4.2 26.07,4.21 26.5,4.22 26.93,4.23 27.36,4.23 27.79,4.24 28.23,4.24 28.66,4.24 29.09,4.24 29.52,4.24 29.95,4.24 30.38,4.24 30.81,4.24 31.24,4.24 31.67,4.24 32.1,4.24 32.53,4.24 32.97,4.24 33.4,4.24 33.83,4.24 34.26,4.24 34.69,4.24 35.12,4.24 35.55,4.24 35.98,4.24 36.41,4.24 36.84,4.24 37.27,4.24 37.71,4.24 38.14,4.24 38.57,4.24 39,4.24 39.43,4.24 39.86,4.24 40.29,4.24 40.72,4.24 41.15,4.24 41.58,4.24 42.02,4.24 42.45,4.24 42.88,4.24 43.31,4.24 43.74,4.24 44.17,4.24 44.6,4.24 45.03,4.24 45.46,4.24 45.89,4.24 46.32,4.24 46.76,4.23 47.19,4.23 47.62,4.23 48.05,4.22 48.48,4.21 48.91,4.19 49.34,4.17 49.77,4.16 50.2,4.16 50.63,4.17 51.06,4.18 51.5,4.2 51.93,4.21 52.36,4.22 52.79,4.23 53.22,4.23 53.65,4.24 54.08,4.24 54.51,4.24 54.94,4.24 " class="primitive"/>
          </g>
          <g transform="translate(111.33,94.04)" id="img-683f8739-35" stroke-dasharray="none" stroke="#B23AEE" class="color_Area_3">
            <path fill="none" d="M-53.23,4.37 L-52.81,4.37 -52.39,4.37 -51.97,4.35 -51.56,4.32 -51.14,4.22 -50.72,4 -50.3,3.55 -49.89,2.72 -49.47,1.34 -49.05,-0.72 -48.63,-3.49 -48.22,-6.83 -47.8,-10.47 -47.38,-14.04 -46.96,-17.19 -46.55,-19.69 -46.13,-21.48 -45.71,-22.63 -45.29,-23.3 -44.88,-23.65 -44.46,-23.81 -44.04,-23.88 -43.62,-23.91 -43.21,-23.92 -42.79,-23.92 -42.37,-23.92 -41.95,-23.91 -41.54,-23.9 -41.12,-23.88 -40.7,-23.84 -40.29,-23.76 -39.87,-23.63 -39.45,-23.41 -39.03,-23.1 -38.62,-22.68 -38.2,-22.15 -37.78,-21.52 -37.36,-20.79 -36.95,-19.99 -36.53,-19.1 -36.11,-18.12 -35.69,-17.04 -35.28,-15.86 -34.86,-14.6 -34.44,-13.3 -34.02,-12.01 -33.61,-10.77 -33.19,-9.63 -32.77,-8.62 -32.35,-7.76 -31.94,-7.05 -31.52,-6.42 -31.1,-5.85 -30.68,-5.27 -30.27,-4.67 -29.85,-4.05 -29.43,-3.45 -29.01,-2.89 -28.6,-2.39 -28.18,-1.98 -27.76,-1.63 -27.34,-1.33 -26.93,-1.03 -26.51,-0.7 -26.09,-0.32 -25.67,0.12 -25.26,0.57 -24.84,1.02 -24.42,1.42 -24,1.74 -23.59,1.98 -23.17,2.14 -22.75,2.25 -22.33,2.31 -21.92,2.37 -21.5,2.42 -21.08,2.49 -20.66,2.56 -20.25,2.65 -19.83,2.75 -19.41,2.88 -18.99,3.04 -18.58,3.2 -18.16,3.36 -17.74,3.49 -17.32,3.57 -16.91,3.6 -16.49,3.58 -16.07,3.54 -15.65,3.49 -15.24,3.46 -14.82,3.45 -14.4,3.47 -13.98,3.52 -13.57,3.58 -13.15,3.65 -12.73,3.72 -12.32,3.78 -11.9,3.82 -11.48,3.83 -11.06,3.83 -10.65,3.82 -10.23,3.82 -9.81,3.83 -9.39,3.88 -8.98,3.94 -8.56,4.03 -8.14,4.11 -7.72,4.18 -7.31,4.23 -6.89,4.26 -6.47,4.27 -6.05,4.28 -5.64,4.28 -5.22,4.28 -4.8,4.27 -4.38,4.25 -3.97,4.22 -3.55,4.19 -3.13,4.17 -2.71,4.15 -2.3,4.13 -1.88,4.12 -1.46,4.09 -1.04,4.06 -0.63,4.01 -0.21,3.96 0.21,3.92 0.63,3.89 1.04,3.89 1.46,3.91 1.88,3.96 2.3,4.02 2.71,4.1 3.13,4.17 3.55,4.24 3.97,4.29 4.38,4.32 4.8,4.33 5.22,4.32 5.64,4.29 6.05,4.25 6.47,4.21 6.89,4.16 7.31,4.12 7.72,4.09 8.14,4.09 8.56,4.11 8.98,4.14 9.39,4.18 9.81,4.23 10.23,4.27 10.65,4.3 11.06,4.33 11.48,4.35 11.9,4.36 12.32,4.37 12.73,4.37 13.15,4.37 13.57,4.37 13.98,4.37 14.4,4.37 14.82,4.37 15.24,4.37 15.65,4.37 16.07,4.37 16.49,4.37 16.91,4.37 17.32,4.37 17.74,4.37 18.16,4.37 18.58,4.36 18.99,4.35 19.41,4.34 19.83,4.33 20.25,4.31 20.66,4.31 21.08,4.31 21.5,4.31 21.92,4.32 22.33,4.34 22.75,4.35 23.17,4.36 23.59,4.37 24,4.37 24.42,4.37 24.84,4.37 25.26,4.37 25.67,4.37 26.09,4.37 26.51,4.37 26.93,4.37 27.34,4.37 27.76,4.37 28.18,4.37 28.6,4.37 29.01,4.37 29.43,4.37 29.85,4.37 30.27,4.37 30.68,4.37 31.1,4.37 31.52,4.37 31.94,4.37 32.35,4.37 32.77,4.37 33.19,4.37 33.61,4.37 34.02,4.37 34.44,4.37 34.86,4.37 35.28,4.37 35.69,4.37 36.11,4.37 36.53,4.37 36.95,4.37 37.36,4.37 37.78,4.37 38.2,4.37 38.62,4.37 39.03,4.37 39.45,4.36 39.87,4.35 40.29,4.34 40.7,4.32 41.12,4.31 41.54,4.31 41.95,4.31 42.37,4.31 42.79,4.33 43.21,4.34 43.62,4.35 44.04,4.36 44.46,4.37 44.88,4.37 45.29,4.37 45.71,4.36 46.13,4.35 46.55,4.34 46.96,4.33 47.38,4.32 47.8,4.31 48.22,4.31 48.63,4.31 49.05,4.32 49.47,4.33 49.89,4.35 50.3,4.36 50.72,4.36 51.14,4.37 51.56,4.37 51.97,4.37 52.39,4.37 52.81,4.37 53.23,4.37 " class="primitive"/>
          </g>
          <g transform="translate(78.77,85.5)" id="img-683f8739-36" stroke-dasharray="none" stroke="#4169E1" class="color_Area_2">
            <path fill="none" d="M-18.01,12.92 L-17.87,12.92 -17.73,12.92 -17.59,12.91 -17.45,12.9 -17.31,12.87 -17.17,12.8 -17.03,12.69 -16.88,12.47 -16.74,12.1 -16.6,11.49 -16.46,10.53 -16.32,9.09 -16.18,7.03 -16.04,4.25 -15.89,0.65 -15.75,-3.75 -15.61,-8.9 -15.47,-14.61 -15.33,-20.64 -15.19,-26.7 -15.05,-32.49 -14.91,-37.75 -14.76,-42.3 -14.62,-46.04 -14.48,-48.96 -14.34,-51.13 -14.2,-52.67 -14.06,-53.7 -13.92,-54.36 -13.78,-54.76 -13.63,-54.99 -13.49,-55.11 -13.35,-55.16 -13.21,-55.17 -13.07,-55.15 -12.93,-55.11 -12.79,-55.03 -12.65,-54.92 -12.5,-54.77 -12.36,-54.57 -12.22,-54.3 -12.08,-53.96 -11.94,-53.54 -11.8,-53.03 -11.66,-52.42 -11.51,-51.7 -11.37,-50.86 -11.23,-49.89 -11.09,-48.79 -10.95,-47.56 -10.81,-46.16 -10.67,-44.59 -10.53,-42.81 -10.38,-40.83 -10.24,-38.61 -10.1,-36.18 -9.96,-33.56 -9.82,-30.8 -9.68,-27.96 -9.54,-25.13 -9.4,-22.37 -9.25,-19.76 -9.11,-17.33 -8.97,-15.13 -8.83,-13.15 -8.69,-11.39 -8.55,-9.82 -8.41,-8.41 -8.27,-7.13 -8.12,-5.97 -7.98,-4.91 -7.84,-3.95 -7.7,-3.11 -7.56,-2.4 -7.42,-1.84 -7.28,-1.43 -7.13,-1.14 -6.99,-0.94 -6.85,-0.77 -6.71,-0.58 -6.57,-0.32 -6.43,0.04 -6.29,0.52 -6.15,1.11 -6,1.78 -5.86,2.5 -5.72,3.23 -5.58,3.94 -5.44,4.6 -5.3,5.19 -5.16,5.71 -5.02,6.14 -4.87,6.48 -4.73,6.75 -4.59,6.96 -4.45,7.11 -4.31,7.24 -4.17,7.35 -4.03,7.46 -3.89,7.59 -3.74,7.73 -3.6,7.89 -3.46,8.06 -3.32,8.23 -3.18,8.4 -3.04,8.56 -2.9,8.71 -2.76,8.85 -2.61,8.99 -2.47,9.14 -2.33,9.29 -2.19,9.45 -2.05,9.61 -1.91,9.76 -1.77,9.89 -1.62,10 -1.48,10.07 -1.34,10.13 -1.2,10.18 -1.06,10.25 -0.92,10.34 -0.78,10.47 -0.64,10.64 -0.49,10.84 -0.35,11.06 -0.21,11.29 -0.07,11.5 0.07,11.69 0.21,11.85 0.35,11.97 0.49,12.05 0.64,12.09 0.78,12.1 0.92,12.07 1.06,12.03 1.2,11.99 1.34,11.95 1.48,11.93 1.62,11.94 1.77,11.97 1.91,12.03 2.05,12.1 2.19,12.17 2.33,12.23 2.47,12.26 2.61,12.26 2.76,12.22 2.9,12.16 3.04,12.08 3.18,12 3.32,11.94 3.46,11.91 3.6,11.93 3.74,11.99 3.89,12.09 4.03,12.22 4.17,12.35 4.31,12.48 4.45,12.6 4.59,12.7 4.73,12.77 4.87,12.83 5.02,12.86 5.16,12.89 5.3,12.9 5.44,12.91 5.58,12.92 5.72,12.92 5.86,12.92 6,12.92 6.15,12.92 6.29,12.92 6.43,12.92 6.57,12.92 6.71,12.92 6.85,12.92 6.99,12.91 7.13,12.91 7.28,12.9 7.42,12.88 7.56,12.86 7.7,12.83 7.84,12.79 7.98,12.75 8.12,12.71 8.27,12.66 8.41,12.63 8.55,12.6 8.69,12.59 8.83,12.59 8.97,12.62 9.11,12.65 9.25,12.69 9.4,12.74 9.54,12.78 9.68,12.82 9.82,12.85 9.96,12.88 10.1,12.89 10.24,12.9 10.38,12.91 10.53,12.92 10.67,12.92 10.81,12.92 10.95,12.92 11.09,12.92 11.23,12.92 11.37,12.92 11.51,12.92 11.66,12.92 11.8,12.92 11.94,12.92 12.08,12.92 12.22,12.92 12.36,12.92 12.5,12.92 12.65,12.92 12.79,12.92 12.93,12.92 13.07,12.92 13.21,12.92 13.35,12.91 13.49,12.91 13.63,12.9 13.78,12.88 13.92,12.85 14.06,12.8 14.2,12.74 14.34,12.65 14.48,12.55 14.62,12.42 14.76,12.29 14.91,12.17 15.05,12.06 15.19,11.98 15.33,11.94 15.47,11.95 15.61,12.01 15.75,12.1 15.89,12.22 16.04,12.36 16.18,12.48 16.32,12.6 16.46,12.69 16.6,12.77 16.74,12.83 16.88,12.86 17.03,12.89 17.17,12.9 17.31,12.91 17.45,12.92 17.59,12.92 17.73,12.92 17.87,12.92 18.01,12.92 " class="primitive"/>
          </g>
          <g transform="translate(86.46,89.57)" id="img-683f8739-37" stroke-dasharray="none" stroke="#00CD66" class="color_Area_4">
            <path fill="none" d="M-26.31,8.85 L-26.1,8.85 -25.9,8.84 -25.69,8.83 -25.48,8.81 -25.28,8.77 -25.07,8.66 -24.87,8.43 -24.66,8.01 -24.45,7.24 -24.25,5.98 -24.04,4.02 -23.83,1.2 -23.63,-2.56 -23.42,-7.24 -23.21,-12.64 -23.01,-18.44 -22.8,-24.24 -22.6,-29.62 -22.39,-34.26 -22.18,-37.99 -21.98,-40.77 -21.77,-42.69 -21.56,-43.93 -21.36,-44.67 -21.15,-45.08 -20.94,-45.29 -20.74,-45.39 -20.53,-45.44 -20.33,-45.45 -20.12,-45.45 -19.91,-45.44 -19.71,-45.41 -19.5,-45.36 -19.29,-45.26 -19.09,-45.11 -18.88,-44.87 -18.67,-44.5 -18.47,-43.98 -18.26,-43.28 -18.06,-42.37 -17.85,-41.24 -17.64,-39.91 -17.44,-38.38 -17.23,-36.69 -17.02,-34.83 -16.82,-32.85 -16.61,-30.74 -16.4,-28.52 -16.2,-26.22 -15.99,-23.9 -15.79,-21.61 -15.58,-19.4 -15.37,-17.34 -15.17,-15.46 -14.96,-13.79 -14.75,-12.33 -14.55,-11.08 -14.34,-10.02 -14.14,-9.12 -13.93,-8.33 -13.72,-7.6 -13.52,-6.87 -13.31,-6.1 -13.1,-5.25 -12.9,-4.32 -12.69,-3.34 -12.48,-2.34 -12.28,-1.39 -12.07,-0.53 -11.87,0.22 -11.66,0.85 -11.45,1.38 -11.25,1.84 -11.04,2.28 -10.83,2.71 -10.63,3.13 -10.42,3.53 -10.21,3.88 -10.01,4.2 -9.8,4.47 -9.6,4.7 -9.39,4.93 -9.18,5.17 -8.98,5.43 -8.77,5.72 -8.56,6.02 -8.36,6.33 -8.15,6.64 -7.94,6.91 -7.74,7.14 -7.53,7.32 -7.33,7.44 -7.12,7.5 -6.91,7.51 -6.71,7.48 -6.5,7.45 -6.29,7.43 -6.09,7.43 -5.88,7.46 -5.67,7.52 -5.47,7.59 -5.26,7.67 -5.06,7.72 -4.85,7.75 -4.64,7.74 -4.44,7.71 -4.23,7.67 -4.02,7.63 -3.82,7.6 -3.61,7.61 -3.4,7.65 -3.2,7.72 -2.99,7.81 -2.79,7.9 -2.58,7.99 -2.37,8.06 -2.17,8.12 -1.96,8.15 -1.75,8.17 -1.55,8.17 -1.34,8.15 -1.13,8.11 -0.93,8.05 -0.72,7.97 -0.52,7.87 -0.31,7.76 -0.1,7.66 0.1,7.57 0.31,7.49 0.52,7.45 0.72,7.44 0.93,7.47 1.13,7.55 1.34,7.65 1.55,7.76 1.75,7.87 1.96,7.97 2.17,8.03 2.37,8.07 2.58,8.09 2.79,8.11 2.99,8.13 3.2,8.18 3.4,8.24 3.61,8.3 3.82,8.35 4.02,8.39 4.23,8.4 4.44,8.41 4.64,8.41 4.85,8.41 5.06,8.43 5.26,8.47 5.47,8.52 5.67,8.58 5.88,8.64 6.09,8.69 6.29,8.73 6.5,8.75 6.71,8.76 6.91,8.74 7.12,8.71 7.33,8.65 7.53,8.59 7.74,8.53 7.94,8.48 8.15,8.44 8.36,8.43 8.56,8.44 8.77,8.48 8.98,8.53 9.18,8.58 9.39,8.62 9.6,8.65 9.8,8.66 10.01,8.66 10.21,8.65 10.42,8.63 10.63,8.62 10.83,8.63 11.04,8.65 11.25,8.67 11.45,8.71 11.66,8.74 11.87,8.77 12.07,8.79 12.28,8.79 12.48,8.79 12.69,8.77 12.9,8.74 13.1,8.71 13.31,8.67 13.52,8.65 13.72,8.63 13.93,8.63 14.14,8.65 14.34,8.67 14.55,8.71 14.75,8.74 14.96,8.77 15.17,8.8 15.37,8.82 15.58,8.83 15.79,8.84 15.99,8.84 16.2,8.85 16.4,8.85 16.61,8.84 16.82,8.84 17.02,8.84 17.23,8.83 17.44,8.82 17.64,8.8 17.85,8.77 18.06,8.74 18.26,8.7 18.47,8.67 18.67,8.64 18.88,8.63 19.09,8.63 19.29,8.65 19.5,8.68 19.71,8.72 19.91,8.75 20.12,8.78 20.33,8.81 20.53,8.82 20.74,8.83 20.94,8.83 21.15,8.83 21.36,8.82 21.56,8.8 21.77,8.76 21.98,8.71 22.18,8.65 22.39,8.58 22.6,8.52 22.8,8.46 23.01,8.42 23.21,8.42 23.42,8.44 23.63,8.49 23.83,8.55 24.04,8.62 24.25,8.69 24.45,8.74 24.66,8.78 24.87,8.81 25.07,8.83 25.28,8.84 25.48,8.84 25.69,8.85 25.9,8.85 26.1,8.85 26.31,8.85 " class="primitive"/>
          </g>
        </g>
      </g>
    </g>
  </g>
  <g class="guide ylabels" font-size="3.53" font-family="CMU Serif" fill="#6C606B" id="img-683f8739-38">
    <g transform="translate(22.11,98.42)" id="img-683f8739-39">
      <g class="primitive">
        <text text-anchor="end" dy="0.35em">0.000</text>
      </g>
    </g>
    <g transform="translate(22.11,67.94)" id="img-683f8739-40">
      <g class="primitive">
        <text text-anchor="end" dy="0.35em">0.005</text>
      </g>
    </g>
    <g transform="translate(22.11,37.47)" id="img-683f8739-41">
      <g class="primitive">
        <text text-anchor="end" dy="0.35em">0.010</text>
      </g>
    </g>
    <g transform="translate(22.11,7)" id="img-683f8739-42">
      <g class="primitive">
        <text text-anchor="end" dy="0.35em">0.015</text>
      </g>
    </g>
  </g>
  <g font-size="3.53" font-family="CMU Serif" fill="#564A55" stroke="#000000" stroke-opacity="0.000" id="img-683f8739-43">
    <g transform="translate(8.65,50.71)" id="img-683f8739-44">
      <g class="primitive">
        <text text-anchor="middle" dy="0.35em" transform="rotate(-90,0, 2)">Density</text>
      </g>
    </g>
  </g>
</g>
<defs>
  <clipPath id="img-683f8739-17">
    <path d="M23.11,5 L180.48,5 180.48,100.42 23.11,100.42 " />
  </clipPath>
</defs>
</svg>
