<?xml version="1.0" encoding="UTF-8"?>
<svg xmlns="http://www.w3.org/2000/svg"
     xmlns:xlink="http://www.w3.org/1999/xlink"
     xmlns:gadfly="http://www.gadflyjl.org/ns"
     version="1.2"
     width="200mm" height="120mm" viewBox="0 0 200 120"
     stroke="none"
     fill="#000000"
     stroke-width="0.3"
     font-size="3.88"
>
<defs>
  <marker id="arrow" markerWidth="15" markerHeight="7" refX="5" refY="3.5" orient="auto" markerUnits="strokeWidth">
    <path d="M0,0 L15,3.5 L0,7 z" stroke="context-stroke" fill="context-stroke"/>
  </marker>
</defs>
<g class="plotroot xscalable yscalable" id="img-4575ed9d-1">
  <g font-size="3.53" font-family="CMU Serif" fill="#564A55" stroke="#000000" stroke-opacity="0.000" id="img-4575ed9d-2">
    <g transform="translate(101.79,108.71)">
      <g class="primitive">
        <text text-anchor="middle" dy="0.6em">Proper Motion Right Ascension (mas/yr)</text>
      </g>
    </g>
  </g>
  <g class="guide xlabels" font-size="3.53" font-family="CMU Serif" fill="#6C606B" id="img-4575ed9d-3">
    <g transform="translate(25.11,101.42)">
      <g class="primitive">
        <text text-anchor="middle" dy="0.6em">-2.00×10³</text>
      </g>
    </g>
    <g transform="translate(63.45,101.42)">
      <g class="primitive">
        <text text-anchor="middle" dy="0.6em">0</text>
      </g>
    </g>
    <g transform="translate(101.79,101.42)">
      <g class="primitive">
        <text text-anchor="middle" dy="0.6em">2.00×10³</text>
      </g>
    </g>
    <g transform="translate(140.14,101.42)">
      <g class="primitive">
        <text text-anchor="middle" dy="0.6em">4.00×10³</text>
      </g>
    </g>
    <g transform="translate(178.48,101.42)">
      <g class="primitive">
        <text text-anchor="middle" dy="0.6em">6.00×10³</text>
      </g>
    </g>
  </g>
  <g class="guide colorkey" id="img-4575ed9d-4">
    <g fill="#4C404B" font-size="3.53" font-family="CMU Serif" id="img-4575ed9d-5">
      <g transform="translate(184.62,48.42)" id="img-4575ed9d-6" class="color_Area_1">
        <g class="primitive">
          <text dy="0.35em">Area 1</text>
        </g>
      </g>
      <g transform="translate(184.62,52.71)" id="img-4575ed9d-7" class="color_Area_2">
        <g class="primitive">
          <text dy="0.35em">Area 2</text>
        </g>
      </g>
      <g transform="translate(184.62,57)" id="img-4575ed9d-8" class="color_Area_3">
        <g class="primitive">
          <text dy="0.35em">Area 3</text>
        </g>
      </g>
      <g transform="translate(184.62,61.29)" id="img-4575ed9d-9" class="color_Area_4">
        <g class="primitive">
          <text dy="0.35em">Area 4</text>
        </g>
      </g>
    </g>
    <g fill-opacity="1" id="img-4575ed9d-10">
      <g transform="translate(182.55,48.42)" id="img-4575ed9d-11" stroke="#FFFFFF" class="color_Area_1" fill="#FF6347">
        <path d="M-1.07,-1.07 L1.07,-1.07 1.07,1.07 -1.07,1.07  z" class="primitive"/>
      </g>
      <g transform="translate(182.55,52.71)" id="img-4575ed9d-12" stroke="#FFFFFF" class="color_Area_2" fill="#4169E1">
        <path d="M-1.07,-1.07 L1.07,-1.07 1.07,1.07 -1.07,1.07  z" class="primitive"/>
      </g>
      <g transform="translate(182.55,57)" id="img-4575ed9d-13" stroke="#FFFFFF" class="color_Area_3" fill="#B23AEE">
        <path d="M-1.07,-1.07 L1.07,-1.07 1.07,1.07 -1.07,1.07  z" class="primitive"/>
      </g>
      <g transform="translate(182.55,61.29)" id="img-4575ed9d-14" stroke="#FFFFFF" class="color_Area_4" fill="#00CD66">
        <path d="M-1.07,-1.07 L1.07,-1.07 1.07,1.07 -1.07,1.07  z" class="primitive"/>
      </g>
    </g>
    <g fill="#362A35" font-size="4.23" font-family="CMU Serif" stroke="#000000" stroke-opacity="0.000" id="img-4575ed9d-15">
      <g transform="translate(181.48,44.1)" id="img-4575ed9d-16">
        <g class="primitive">
          <text dy="-0em">Area</text>
        </g>
      </g>
    </g>
  </g>
  <g clip-path="url(#img-4575ed9d-17)">
    <g id="img-4575ed9d-18">
      <g pointer-events="visible" stroke-width="0.3" fill="#000000" fill-opacity="0.000" stroke="#000000" stroke-opacity="0.000" class="guide background" id="img-4575ed9d-19">
        <g transform="translate(101.79,52.71)" id="img-4575ed9d-20">
          <path d="M-78.69,-47.71 L78.69,-47.71 78.69,47.71 -78.69,47.71  z" class="primitive"/>
        </g>
      </g>
      <g class="guide ygridlines xfixed" stroke-dasharray="0.5,0.5" stroke-width="0.2" stroke="#D0D0E0" id="img-4575ed9d-21">
        <g transform="translate(101.79,98.42)" id="img-4575ed9d-22">
          <path fill="none" d="M-78.69,0 L78.69,0 " class="primitive"/>
        </g>
        <g transform="translate(101.79,52.71)" id="img-4575ed9d-23">
          <path fill="none" d="M-78.69,0 L78.69,0 " class="primitive"/>
        </g>
        <g transform="translate(101.79,7)" id="img-4575ed9d-24">
          <path fill="none" d="M-78.69,0 L78.69,0 " class="primitive"/>
        </g>
      </g>
      <g class="guide xgridlines yfixed" stroke-dasharray="0.5,0.5" stroke-width="0.2" stroke="#D0D0E0" id="img-4575ed9d-25">
        <g transform="translate(25.11,52.71)" id="img-4575ed9d-26">
          <path fill="none" d="M0,-47.71 L0,47.71 " class="primitive"/>
        </g>
        <g transform="translate(63.45,52.71)" id="img-4575ed9d-27">
          <path fill="none" d="M0,-47.71 L0,47.71 " class="primitive"/>
        </g>
        <g transform="translate(101.79,52.71)" id="img-4575ed9d-28">
          <path fill="none" d="M0,-47.71 L0,47.71 " class="primitive"/>
        </g>
        <g transform="translate(140.14,52.71)" id="img-4575ed9d-29">
          <path fill="none" d="M0,-47.71 L0,47.71 " class="primitive"/>
        </g>
        <g transform="translate(178.48,52.71)" id="img-4575ed9d-30">
          <path fill="none" d="M0,-47.71 L0,47.71 " class="primitive"/>
        </g>
      </g>
      <g class="plotpanel" id="img-4575ed9d-31">
        <metadata>
          <boundingbox value="23.10833333333332mm 5.0mm 157.37083333333334mm 95.41666666666667mm"/>
          <unitbox value="-2104.3223124779265 0.010218778486782133 8208.644624955854 -0.010437556973564266"/>
        </metadata>
        <g stroke-width="0.3" fill="#000000" fill-opacity="0.000" class="geometry" id="img-4575ed9d-32">
          <g transform="translate(101.76,96.22)" id="img-4575ed9d-33" stroke-dasharray="none" stroke="#FF6347" class="color_Area_1">
            <path fill="none" d="M-39.75,2.19 L-39.43,2.16 -39.12,1.74 -38.81,-1.02 -38.5,-9.91 -38.19,-23.61 -37.88,-33.7 -37.56,-37.36 -37.25,-38.03 -36.94,-38.09 -36.63,-38.07 -36.32,-37.88 -36.01,-37.1 -35.69,-35.21 -35.38,-32.01 -35.07,-27.65 -34.76,-22.92 -34.45,-18.94 -34.14,-15.76 -33.82,-12.37 -33.51,-8.62 -33.2,-5.74 -32.89,-4.11 -32.58,-3.17 -32.26,-2.45 -31.95,-1.57 -31.64,-0.77 -31.33,-0.41 -31.02,-0.28 -30.71,-0.02 -30.39,0.5 -30.08,0.94 -29.77,1.14 -29.46,1.32 -29.15,1.49 -28.84,1.6 -28.52,1.72 -28.21,1.79 -27.9,1.74 -27.59,1.58 -27.28,1.31 -26.97,1.13 -26.65,1.19 -26.34,1.46 -26.03,1.74 -25.72,1.92 -25.41,2.02 -25.09,2.08 -24.78,2.12 -24.47,2.14 -24.16,2.11 -23.85,2.1 -23.54,2.08 -23.22,2.03 -22.91,2.05 -22.6,2.13 -22.29,2.18 -21.98,2.18 -21.67,2.14 -21.35,2.06 -21.04,2.03 -20.73,2.1 -20.42,2.17 -20.11,2.19 -19.8,2.2 -19.48,2.2 -19.17,2.2 -18.86,2.2 -18.55,2.19 -18.24,2.18 -17.92,2.13 -17.61,2.1 -17.3,2.12 -16.99,2.12 -16.68,2.09 -16.37,2.09 -16.05,2.07 -15.74,2.05 -15.43,2.08 -15.12,2.14 -14.81,2.18 -14.5,2.19 -14.18,2.2 -13.87,2.2 -13.56,2.2 -13.25,2.2 -12.94,2.2 -12.63,2.2 -12.31,2.2 -12,2.2 -11.69,2.2 -11.38,2.2 -11.07,2.2 -10.75,2.2 -10.44,2.2 -10.13,2.2 -9.82,2.2 -9.51,2.2 -9.2,2.2 -8.88,2.2 -8.57,2.2 -8.26,2.2 -7.95,2.2 -7.64,2.2 -7.33,2.2 -7.01,2.2 -6.7,2.2 -6.39,2.2 -6.08,2.2 -5.77,2.2 -5.46,2.2 -5.14,2.19 -4.83,2.17 -4.52,2.13 -4.21,2.11 -3.9,2.14 -3.58,2.18 -3.27,2.19 -2.96,2.2 -2.65,2.2 -2.34,2.2 -2.03,2.2 -1.71,2.2 -1.4,2.2 -1.09,2.2 -0.78,2.2 -0.47,2.2 -0.16,2.2 0.16,2.2 0.47,2.2 0.78,2.2 1.09,2.2 1.4,2.2 1.71,2.2 2.03,2.2 2.34,2.2 2.65,2.2 2.96,2.2 3.27,2.2 3.58,2.2 3.9,2.2 4.21,2.2 4.52,2.2 4.83,2.2 5.14,2.2 5.46,2.2 5.77,2.2 6.08,2.2 6.39,2.2 6.7,2.2 7.01,2.2 7.33,2.2 7.64,2.2 7.95,2.2 8.26,2.2 8.57,2.2 8.88,2.2 9.2,2.2 9.51,2.2 9.82,2.2 10.13,2.2 10.44,2.2 10.75,2.2 11.07,2.2 11.38,2.2 11.69,2.2 12,2.2 12.31,2.2 12.63,2.2 12.94,2.2 13.25,2.2 13.56,2.2 13.87,2.2 14.18,2.2 14.5,2.2 14.81,2.2 15.12,2.2 15.43,2.2 15.74,2.2 16.05,2.2 16.37,2.2 16.68,2.2 16.99,2.2 17.3,2.2 17.61,2.2 17.92,2.2 18.24,2.2 18.55,2.2 18.86,2.2 19.17,2.2 19.48,2.2 19.8,2.2 20.11,2.2 20.42,2.2 20.73,2.2 21.04,2.2 21.35,2.2 21.67,2.2 21.98,2.2 22.29,2.2 22.6,2.2 22.91,2.2 23.22,2.2 23.54,2.2 23.85,2.2 24.16,2.2 24.47,2.2 24.78,2.2 25.09,2.2 25.41,2.2 25.72,2.2 26.03,2.2 26.34,2.2 26.65,2.2 26.97,2.2 27.28,2.2 27.59,2.2 27.9,2.2 28.21,2.2 28.52,2.2 28.84,2.2 29.15,2.2 29.46,2.2 29.77,2.2 30.08,2.2 30.39,2.2 30.71,2.2 31.02,2.2 31.33,2.2 31.64,2.2 31.95,2.2 32.26,2.2 32.58,2.2 32.89,2.2 33.2,2.2 33.51,2.2 33.82,2.2 34.14,2.2 34.45,2.2 34.76,2.2 35.07,2.2 35.38,2.2 35.69,2.2 36.01,2.2 36.32,2.2 36.63,2.2 36.94,2.2 37.25,2.2 37.56,2.19 37.88,2.17 38.19,2.13 38.5,2.11 38.81,2.15 39.12,2.18 39.43,2.19 39.75,2.2 " class="primitive"/>
          </g>
          <g transform="translate(117.36,96.85)" id="img-4575ed9d-34" stroke-dasharray="none" stroke="#B23AEE" class="color_Area_3">
            <path fill="none" d="M-55.84,1.56 L-55.41,1.54 -54.97,1.19 -54.53,-1.09 -54.09,-8.17 -53.65,-18.25 -53.22,-24.57 -52.78,-26.33 -52.34,-26.56 -51.9,-26.57 -51.46,-26.56 -51.03,-26.45 -50.59,-25.99 -50.15,-24.84 -49.71,-22.73 -49.27,-19.76 -48.84,-16.53 -48.4,-13.33 -47.96,-10.25 -47.52,-7.73 -47.08,-5.95 -46.65,-4.68 -46.21,-3.66 -45.77,-2.71 -45.33,-1.83 -44.89,-1.14 -44.46,-0.66 -44.02,-0.26 -43.58,0.07 -43.14,0.29 -42.7,0.49 -42.27,0.53 -41.83,0.5 -41.39,0.58 -40.95,0.68 -40.51,0.86 -40.08,1.03 -39.64,1.07 -39.2,1.15 -38.76,1.32 -38.32,1.42 -37.89,1.41 -37.45,1.34 -37.01,1.28 -36.57,1.34 -36.13,1.44 -35.7,1.46 -35.26,1.45 -34.82,1.42 -34.38,1.39 -33.94,1.41 -33.51,1.44 -33.07,1.44 -32.63,1.47 -32.19,1.51 -31.75,1.54 -31.32,1.56 -30.88,1.55 -30.44,1.51 -30,1.48 -29.56,1.49 -29.13,1.51 -28.69,1.49 -28.25,1.47 -27.81,1.49 -27.37,1.51 -26.94,1.52 -26.5,1.54 -26.06,1.53 -25.62,1.52 -25.18,1.54 -24.75,1.56 -24.31,1.56 -23.87,1.56 -23.43,1.56 -22.99,1.56 -22.56,1.56 -22.12,1.55 -21.68,1.53 -21.24,1.5 -20.8,1.5 -20.37,1.52 -19.93,1.54 -19.49,1.54 -19.05,1.52 -18.61,1.53 -18.18,1.55 -17.74,1.56 -17.3,1.56 -16.86,1.56 -16.42,1.56 -15.99,1.56 -15.55,1.56 -15.11,1.56 -14.67,1.56 -14.23,1.56 -13.8,1.54 -13.36,1.52 -12.92,1.52 -12.48,1.55 -12.04,1.56 -11.61,1.56 -11.17,1.56 -10.73,1.56 -10.29,1.56 -9.85,1.56 -9.42,1.55 -8.98,1.53 -8.54,1.52 -8.1,1.54 -7.66,1.56 -7.23,1.56 -6.79,1.56 -6.35,1.56 -5.91,1.56 -5.47,1.56 -5.04,1.56 -4.6,1.56 -4.16,1.56 -3.72,1.56 -3.28,1.56 -2.85,1.56 -2.41,1.56 -1.97,1.56 -1.53,1.56 -1.09,1.56 -0.66,1.56 -0.22,1.56 0.22,1.56 0.66,1.56 1.09,1.56 1.53,1.56 1.97,1.56 2.41,1.56 2.85,1.56 3.28,1.56 3.72,1.54 4.16,1.52 4.6,1.53 5.04,1.55 5.47,1.56 5.91,1.56 6.35,1.56 6.79,1.56 7.23,1.56 7.66,1.56 8.1,1.56 8.54,1.56 8.98,1.56 9.42,1.56 9.85,1.56 10.29,1.56 10.73,1.56 11.17,1.56 11.61,1.56 12.04,1.56 12.48,1.56 12.92,1.56 13.36,1.56 13.8,1.56 14.23,1.56 14.67,1.56 15.11,1.56 15.55,1.56 15.99,1.56 16.42,1.56 16.86,1.56 17.3,1.56 17.74,1.56 18.18,1.56 18.61,1.56 19.05,1.56 19.49,1.56 19.93,1.56 20.37,1.56 20.8,1.56 21.24,1.56 21.68,1.56 22.12,1.56 22.56,1.56 22.99,1.56 23.43,1.56 23.87,1.56 24.31,1.56 24.75,1.56 25.18,1.56 25.62,1.56 26.06,1.56 26.5,1.56 26.94,1.56 27.37,1.56 27.81,1.56 28.25,1.56 28.69,1.56 29.13,1.56 29.56,1.56 30,1.56 30.44,1.56 30.88,1.56 31.32,1.56 31.75,1.56 32.19,1.56 32.63,1.56 33.07,1.56 33.51,1.56 33.94,1.56 34.38,1.56 34.82,1.56 35.26,1.56 35.7,1.56 36.13,1.56 36.57,1.56 37.01,1.56 37.45,1.56 37.89,1.56 38.32,1.56 38.76,1.56 39.2,1.56 39.64,1.56 40.08,1.56 40.51,1.56 40.95,1.56 41.39,1.56 41.83,1.56 42.27,1.56 42.7,1.56 43.14,1.56 43.58,1.56 44.02,1.56 44.46,1.56 44.89,1.56 45.33,1.56 45.77,1.56 46.21,1.56 46.65,1.56 47.08,1.56 47.52,1.56 47.96,1.56 48.4,1.56 48.84,1.56 49.27,1.56 49.71,1.56 50.15,1.56 50.59,1.56 51.03,1.56 51.46,1.56 51.9,1.56 52.34,1.56 52.78,1.56 53.22,1.56 53.65,1.53 54.09,1.51 54.53,1.53 54.97,1.56 55.41,1.56 55.84,1.56 " class="primitive"/>
          </g>
          <g transform="translate(66.87,77.87)" id="img-4575ed9d-35" stroke-dasharray="none" stroke="#4169E1" class="color_Area_2">
            <path fill="none" d="M-4.25,20.55 L-4.21,20.55 -4.18,20.55 -4.15,20.54 -4.11,20.54 -4.08,20.53 -4.05,20.52 -4.01,20.49 -3.98,20.45 -3.95,20.37 -3.91,20.24 -3.88,20.03 -3.85,19.7 -3.81,19.2 -3.78,18.46 -3.75,17.41 -3.71,15.96 -3.68,14.02 -3.65,11.51 -3.61,8.36 -3.58,4.54 -3.55,0.07 -3.51,-5.02 -3.48,-10.61 -3.45,-16.56 -3.42,-22.68 -3.38,-28.77 -3.35,-34.64 -3.32,-40.1 -3.28,-45.03 -3.25,-49.34 -3.22,-52.96 -3.18,-55.92 -3.15,-58.26 -3.12,-60.05 -3.08,-61.37 -3.05,-62.31 -3.02,-62.96 -2.98,-63.4 -2.95,-63.68 -2.92,-63.85 -2.88,-63.96 -2.85,-64.02 -2.82,-64.05 -2.78,-64.07 -2.75,-64.07 -2.72,-64.07 -2.68,-64.05 -2.65,-64.03 -2.62,-63.99 -2.58,-63.93 -2.55,-63.84 -2.52,-63.72 -2.48,-63.55 -2.45,-63.32 -2.42,-63.01 -2.38,-62.62 -2.35,-62.13 -2.32,-61.54 -2.28,-60.83 -2.25,-60 -2.22,-59.07 -2.18,-58.02 -2.15,-56.86 -2.12,-55.6 -2.08,-54.25 -2.05,-52.8 -2.02,-51.25 -1.98,-49.6 -1.95,-47.85 -1.92,-45.98 -1.88,-43.99 -1.85,-41.89 -1.82,-39.68 -1.78,-37.36 -1.75,-34.96 -1.72,-32.51 -1.68,-30.03 -1.65,-27.56 -1.62,-25.15 -1.58,-22.82 -1.55,-20.61 -1.52,-18.56 -1.48,-16.66 -1.45,-14.93 -1.42,-13.35 -1.38,-11.9 -1.35,-10.55 -1.32,-9.27 -1.28,-8.03 -1.25,-6.83 -1.22,-5.64 -1.18,-4.47 -1.15,-3.33 -1.12,-2.23 -1.08,-1.16 -1.05,-0.15 -1.02,0.82 -0.98,1.73 -0.95,2.6 -0.92,3.43 -0.88,4.23 -0.85,5.01 -0.82,5.77 -0.78,6.52 -0.75,7.25 -0.72,7.95 -0.68,8.62 -0.65,9.25 -0.62,9.83 -0.58,10.35 -0.55,10.8 -0.52,11.18 -0.48,11.48 -0.45,11.69 -0.42,11.82 -0.38,11.87 -0.35,11.84 -0.32,11.76 -0.28,11.63 -0.25,11.48 -0.22,11.35 -0.18,11.24 -0.15,11.19 -0.12,11.22 -0.08,11.35 -0.05,11.59 -0.02,11.92 0.02,12.35 0.05,12.84 0.08,13.39 0.12,13.96 0.15,14.53 0.18,15.07 0.22,15.56 0.25,15.99 0.28,16.36 0.32,16.67 0.35,16.93 0.38,17.16 0.42,17.35 0.45,17.54 0.48,17.72 0.52,17.9 0.55,18.09 0.58,18.27 0.62,18.44 0.65,18.6 0.68,18.73 0.72,18.84 0.75,18.9 0.78,18.94 0.82,18.95 0.85,18.93 0.88,18.9 0.92,18.86 0.95,18.81 0.98,18.78 1.02,18.76 1.05,18.76 1.08,18.77 1.12,18.8 1.15,18.84 1.18,18.89 1.22,18.94 1.25,18.99 1.28,19.04 1.32,19.1 1.35,19.15 1.38,19.2 1.42,19.27 1.45,19.34 1.48,19.42 1.52,19.51 1.55,19.6 1.58,19.7 1.62,19.79 1.65,19.88 1.68,19.95 1.72,20.01 1.75,20.06 1.78,20.09 1.82,20.11 1.85,20.12 1.88,20.14 1.92,20.15 1.95,20.17 1.98,20.19 2.02,20.22 2.05,20.26 2.08,20.29 2.12,20.34 2.15,20.37 2.18,20.41 2.22,20.44 2.25,20.47 2.28,20.49 2.32,20.51 2.35,20.52 2.38,20.53 2.42,20.54 2.45,20.54 2.48,20.54 2.52,20.55 2.55,20.55 2.58,20.55 2.62,20.55 2.65,20.55 2.68,20.55 2.72,20.55 2.75,20.54 2.78,20.54 2.82,20.54 2.85,20.53 2.88,20.52 2.92,20.5 2.95,20.48 2.98,20.45 3.02,20.42 3.05,20.38 3.08,20.34 3.12,20.29 3.15,20.24 3.18,20.18 3.22,20.13 3.25,20.08 3.28,20.04 3.32,20.01 3.35,19.99 3.38,19.97 3.42,19.97 3.45,19.98 3.48,20 3.51,20.03 3.55,20.07 3.58,20.12 3.61,20.17 3.65,20.22 3.68,20.27 3.71,20.32 3.75,20.37 3.78,20.41 3.81,20.45 3.85,20.47 3.88,20.5 3.91,20.51 3.95,20.52 3.98,20.53 4.01,20.54 4.05,20.54 4.08,20.54 4.11,20.55 4.15,20.55 4.18,20.55 4.21,20.55 4.25,20.55 " class="primitive"/>
          </g>
          <g transform="translate(91.15,95.44)" id="img-4575ed9d-36" stroke-dasharray="none" stroke="#00CD66" class="color_Area_4">
            <path fill="none" d="M-29.33,2.98 L-29.1,2.97 -28.87,2.91 -28.64,2.64 -28.41,1.68 -28.18,-0.81 -27.95,-5.58 -27.72,-12.28 -27.49,-19.19 -27.26,-24.42 -27.03,-27.31 -26.8,-28.48 -26.57,-28.82 -26.34,-28.9 -26.11,-28.91 -25.88,-28.91 -25.65,-28.9 -25.42,-28.86 -25.19,-28.74 -24.96,-28.46 -24.73,-27.96 -24.5,-27.22 -24.27,-26.25 -24.04,-24.97 -23.81,-23.28 -23.58,-21.16 -23.35,-18.74 -23.12,-16.25 -22.89,-13.9 -22.66,-11.9 -22.43,-10.3 -22.2,-8.98 -21.97,-7.72 -21.74,-6.43 -21.51,-5.13 -21.28,-3.9 -21.05,-2.89 -20.82,-2.21 -20.59,-1.8 -20.36,-1.48 -20.13,-1.03 -19.9,-0.4 -19.67,0.27 -19.44,0.76 -19.21,1.07 -18.98,1.29 -18.75,1.51 -18.52,1.7 -18.29,1.84 -18.06,1.95 -17.83,2.04 -17.6,2.1 -17.37,2.11 -17.14,2.04 -16.91,1.92 -16.68,1.82 -16.45,1.83 -16.22,1.95 -15.99,2.08 -15.76,2.15 -15.53,2.21 -15.3,2.28 -15.07,2.37 -14.84,2.46 -14.61,2.51 -14.38,2.52 -14.15,2.49 -13.92,2.44 -13.69,2.41 -13.46,2.43 -13.23,2.47 -13,2.52 -12.77,2.57 -12.54,2.65 -12.31,2.73 -12.08,2.79 -11.85,2.81 -11.62,2.79 -11.39,2.75 -11.16,2.69 -10.93,2.63 -10.7,2.6 -10.47,2.64 -10.24,2.72 -10.01,2.81 -9.78,2.89 -9.55,2.93 -9.32,2.95 -9.09,2.94 -8.86,2.92 -8.63,2.9 -8.4,2.88 -8.17,2.86 -7.94,2.84 -7.71,2.82 -7.48,2.81 -7.25,2.81 -7.02,2.82 -6.79,2.84 -6.56,2.86 -6.33,2.85 -6.1,2.84 -5.87,2.83 -5.64,2.84 -5.41,2.88 -5.18,2.93 -4.95,2.96 -4.72,2.97 -4.49,2.98 -4.26,2.98 -4.03,2.98 -3.8,2.98 -3.57,2.98 -3.34,2.98 -3.11,2.98 -2.88,2.98 -2.65,2.98 -2.42,2.97 -2.19,2.97 -1.96,2.96 -1.73,2.94 -1.5,2.92 -1.27,2.92 -1.04,2.93 -0.81,2.95 -0.58,2.97 -0.35,2.97 -0.12,2.98 0.12,2.98 0.35,2.98 0.58,2.98 0.81,2.98 1.04,2.97 1.27,2.96 1.5,2.93 1.73,2.88 1.96,2.83 2.19,2.81 2.42,2.83 2.65,2.88 2.88,2.93 3.11,2.96 3.34,2.97 3.57,2.98 3.8,2.98 4.03,2.97 4.26,2.96 4.49,2.95 4.72,2.93 4.95,2.91 5.18,2.92 5.41,2.92 5.64,2.92 5.87,2.92 6.1,2.92 6.33,2.93 6.56,2.95 6.79,2.97 7.02,2.97 7.25,2.98 7.48,2.98 7.71,2.98 7.94,2.98 8.17,2.98 8.4,2.98 8.63,2.98 8.86,2.98 9.09,2.98 9.32,2.98 9.55,2.98 9.78,2.98 10.01,2.98 10.24,2.98 10.47,2.98 10.7,2.98 10.93,2.98 11.16,2.98 11.39,2.98 11.62,2.98 11.85,2.98 12.08,2.98 12.31,2.98 12.54,2.98 12.77,2.98 13,2.98 13.23,2.98 13.46,2.98 13.69,2.98 13.92,2.98 14.15,2.98 14.38,2.98 14.61,2.98 14.84,2.98 15.07,2.98 15.3,2.98 15.53,2.98 15.76,2.98 15.99,2.98 16.22,2.98 16.45,2.98 16.68,2.98 16.91,2.98 17.14,2.98 17.37,2.98 17.6,2.98 17.83,2.98 18.06,2.98 18.29,2.98 18.52,2.98 18.75,2.98 18.98,2.98 19.21,2.98 19.44,2.98 19.67,2.98 19.9,2.98 20.13,2.98 20.36,2.98 20.59,2.98 20.82,2.98 21.05,2.98 21.28,2.98 21.51,2.98 21.74,2.98 21.97,2.98 22.2,2.98 22.43,2.98 22.66,2.98 22.89,2.98 23.12,2.98 23.35,2.98 23.58,2.98 23.81,2.98 24.04,2.98 24.27,2.98 24.5,2.98 24.73,2.98 24.96,2.98 25.19,2.98 25.42,2.98 25.65,2.98 25.88,2.98 26.11,2.97 26.34,2.97 26.57,2.96 26.8,2.94 27.03,2.91 27.26,2.89 27.49,2.88 27.72,2.89 27.95,2.91 28.18,2.94 28.41,2.96 28.64,2.97 28.87,2.98 29.1,2.98 29.33,2.98 " class="primitive"/>
          </g>
        </g>
      </g>
    </g>
  </g>
  <g class="guide ylabels" font-size="3.53" font-family="CMU Serif" fill="#6C606B" id="img-4575ed9d-37">
    <g transform="translate(22.11,98.42)" id="img-4575ed9d-38">
      <g class="primitive">
        <text text-anchor="end" dy="0.35em">0.000</text>
      </g>
    </g>
    <g transform="translate(22.11,52.71)" id="img-4575ed9d-39">
      <g class="primitive">
        <text text-anchor="end" dy="0.35em">0.005</text>
      </g>
    </g>
    <g transform="translate(22.11,7)" id="img-4575ed9d-40">
      <g class="primitive">
        <text text-anchor="end" dy="0.35em">0.010</text>
      </g>
    </g>
  </g>
  <g font-size="3.53" font-family="CMU Serif" fill="#564A55" stroke="#000000" stroke-opacity="0.000" id="img-4575ed9d-41">
    <g transform="translate(8.65,50.71)" id="img-4575ed9d-42">
      <g class="primitive">
        <text text-anchor="middle" dy="0.35em" transform="rotate(-90,0, 2)">Density</text>
      </g>
    </g>
  </g>
</g>
<defs>
  <clipPath id="img-4575ed9d-17">
    <path d="M23.11,5 L180.48,5 180.48,100.42 23.11,100.42 " />
  </clipPath>
</defs>
</svg>
