<?xml version="1.0" encoding="UTF-8"?>
<svg xmlns="http://www.w3.org/2000/svg"
     xmlns:xlink="http://www.w3.org/1999/xlink"
     xmlns:gadfly="http://www.gadflyjl.org/ns"
     version="1.2"
     width="300mm" height="120mm" viewBox="0 0 300 120"
     stroke="none"
     fill="#000000"
     stroke-width="0.3"
     font-size="3.88"
>
<defs>
  <marker id="arrow" markerWidth="15" markerHeight="7" refX="5" refY="3.5" orient="auto" markerUnits="strokeWidth">
    <path d="M0,0 L15,3.5 L0,7 z" stroke="context-stroke" fill="context-stroke"/>
  </marker>
</defs>
<g class="plotroot xscalable yscalable" id="img-43d4f30b-1">
  <g font-size="4.59" font-family="CMU Serif" fill="#564A55" stroke="#000000" stroke-opacity="0.000" id="img-43d4f30b-2">
    <g transform="translate(226.81,107.72)">
      <g class="primitive">
        <text text-anchor="middle" dy="0.6em">Proper Motion Declination (mas/yr)</text>
      </g>
    </g>
  </g>
  <g class="guide xlabels" font-size="4.59" font-family="CMU Serif" fill="#6C606B" id="img-43d4f30b-3">
    <g transform="translate(179.44,99.44)">
      <g class="primitive">
        <text text-anchor="middle" dy="0.6em">0</text>
      </g>
    </g>
    <g transform="translate(214.46,99.44)">
      <g class="primitive">
        <text text-anchor="middle" dy="0.6em">500</text>
      </g>
    </g>
    <g transform="translate(249.49,99.44)">
      <g class="primitive">
        <text text-anchor="middle" dy="0.6em">1000</text>
      </g>
    </g>
  </g>
  <g class="guide colorkey" id="img-43d4f30b-4">
    <g fill="#4C404B" font-size="4.59" font-family="CMU Serif" id="img-43d4f30b-5">
      <g transform="translate(281.51,46.44)" id="img-43d4f30b-6" class="color_Area_1">
        <g class="primitive">
          <text dy="0.35em">Area 1</text>
        </g>
      </g>
      <g transform="translate(281.51,51.72)" id="img-43d4f30b-7" class="color_Area_2">
        <g class="primitive">
          <text dy="0.35em">Area 2</text>
        </g>
      </g>
      <g transform="translate(281.51,57)" id="img-43d4f30b-8" class="color_Area_3">
        <g class="primitive">
          <text dy="0.35em">Area 3</text>
        </g>
      </g>
      <g transform="translate(281.51,62.28)" id="img-43d4f30b-9" class="color_Area_4">
        <g class="primitive">
          <text dy="0.35em">Area 4</text>
        </g>
      </g>
    </g>
    <g fill-opacity="1" id="img-43d4f30b-10">
      <g transform="translate(279.19,46.44)" id="img-43d4f30b-11" stroke="#FFFFFF" class="color_Area_1" fill="#FF6347">
        <path d="M-1.32,-1.32 L1.32,-1.32 1.32,1.32 -1.32,1.32  z" class="primitive"/>
      </g>
      <g transform="translate(279.19,51.72)" id="img-43d4f30b-12" stroke="#FFFFFF" class="color_Area_2" fill="#4169E1">
        <path d="M-1.32,-1.32 L1.32,-1.32 1.32,1.32 -1.32,1.32  z" class="primitive"/>
      </g>
      <g transform="translate(279.19,57)" id="img-43d4f30b-13" stroke="#FFFFFF" class="color_Area_3" fill="#B23AEE">
        <path d="M-1.32,-1.32 L1.32,-1.32 1.32,1.32 -1.32,1.32  z" class="primitive"/>
      </g>
      <g transform="translate(279.19,62.28)" id="img-43d4f30b-14" stroke="#FFFFFF" class="color_Area_4" fill="#00CD66">
        <path d="M-1.32,-1.32 L1.32,-1.32 1.32,1.32 -1.32,1.32  z" class="primitive"/>
      </g>
    </g>
    <g fill="#362A35" font-size="5.29" font-family="CMU Serif" stroke="#000000" stroke-opacity="0.000" id="img-43d4f30b-15">
      <g transform="translate(277.87,41.63)" id="img-43d4f30b-16">
        <g class="primitive">
          <text dy="-0em">Area</text>
        </g>
      </g>
    </g>
  </g>
  <g clip-path="url(#img-43d4f30b-17)">
    <g id="img-43d4f30b-18">
      <g pointer-events="visible" stroke-width="0.3" fill="#000000" fill-opacity="0.000" stroke="#000000" stroke-opacity="0.000" class="guide background" id="img-43d4f30b-19">
        <g transform="translate(226.81,51.72)" id="img-43d4f30b-20">
          <path d="M-50.07,-46.72 L50.07,-46.72 50.07,46.72 -50.07,46.72  z" class="primitive"/>
        </g>
      </g>
      <g class="guide ygridlines xfixed" stroke-dasharray="0.5,0.5" stroke-width="0.2" stroke="#D0D0E0" id="img-43d4f30b-21">
        <g transform="translate(226.81,96.44)" id="img-43d4f30b-22">
          <path fill="none" d="M-50.07,0 L50.07,0 " class="primitive"/>
        </g>
        <g transform="translate(226.81,66.63)" id="img-43d4f30b-23">
          <path fill="none" d="M-50.07,0 L50.07,0 " class="primitive"/>
        </g>
        <g transform="translate(226.81,36.81)" id="img-43d4f30b-24">
          <path fill="none" d="M-50.07,0 L50.07,0 " class="primitive"/>
        </g>
        <g transform="translate(226.81,7)" id="img-43d4f30b-25">
          <path fill="none" d="M-50.07,0 L50.07,0 " class="primitive"/>
        </g>
      </g>
      <g class="guide xgridlines yfixed" stroke-dasharray="0.5,0.5" stroke-width="0.2" stroke="#D0D0E0" id="img-43d4f30b-26">
        <g transform="translate(179.44,51.72)" id="img-43d4f30b-27">
          <path fill="none" d="M0,-46.72 L0,46.72 " class="primitive"/>
        </g>
        <g transform="translate(214.46,51.72)" id="img-43d4f30b-28">
          <path fill="none" d="M0,-46.72 L0,46.72 " class="primitive"/>
        </g>
        <g transform="translate(249.49,51.72)" id="img-43d4f30b-29">
          <path fill="none" d="M0,-46.72 L0,46.72 " class="primitive"/>
        </g>
      </g>
      <g class="plotpanel" id="img-43d4f30b-30">
        <metadata>
          <boundingbox value="176.74083333333334mm 5.0mm 100.13208333333334mm 93.44166666666666mm"/>
          <unitbox value="-38.55278014979665 0.015335414143296375 1429.5246806788919 -0.01567082828659275"/>
        </metadata>
        <g stroke-width="0.3" fill="#000000" fill-opacity="0.000" class="geometry" id="img-43d4f30b-31">
          <g transform="translate(224.69,92.3)" id="img-43d4f30b-32" stroke-dasharray="none" stroke="#FF6347" class="color_Area_1">
            <path fill="none" d="M-50.19,4.14 L-49.79,4.14 -49.4,4.14 -49,4.13 -48.61,4.1 -48.22,4.02 -47.82,3.82 -47.43,3.38 -47.04,2.5 -46.64,0.96 -46.25,-1.42 -45.86,-4.66 -45.46,-8.59 -45.07,-12.79 -44.68,-16.77 -44.28,-20.09 -43.89,-22.54 -43.49,-24.14 -43.1,-25.07 -42.71,-25.54 -42.31,-25.75 -41.92,-25.84 -41.53,-25.87 -41.13,-25.87 -40.74,-25.87 -40.35,-25.87 -39.95,-25.85 -39.56,-25.82 -39.16,-25.78 -38.77,-25.69 -38.38,-25.53 -37.98,-25.27 -37.59,-24.84 -37.2,-24.23 -36.8,-23.4 -36.41,-22.38 -36.02,-21.21 -35.62,-19.94 -35.23,-18.63 -34.83,-17.32 -34.44,-16.06 -34.05,-14.86 -33.65,-13.73 -33.26,-12.64 -32.87,-11.58 -32.47,-10.52 -32.08,-9.47 -31.69,-8.43 -31.29,-7.43 -30.9,-6.51 -30.5,-5.67 -30.11,-4.92 -29.72,-4.24 -29.32,-3.63 -28.93,-3.08 -28.54,-2.56 -28.14,-2.08 -27.75,-1.61 -27.36,-1.18 -26.96,-0.79 -26.57,-0.44 -26.18,-0.13 -25.78,0.16 -25.39,0.45 -24.99,0.75 -24.6,1.04 -24.21,1.32 -23.81,1.55 -23.42,1.74 -23.03,1.91 -22.63,2.06 -22.24,2.22 -21.85,2.38 -21.45,2.53 -21.06,2.65 -20.66,2.75 -20.27,2.83 -19.88,2.89 -19.48,2.95 -19.09,3.01 -18.7,3.09 -18.3,3.18 -17.91,3.3 -17.52,3.44 -17.12,3.58 -16.73,3.7 -16.33,3.8 -15.94,3.86 -15.55,3.9 -15.15,3.93 -14.76,3.95 -14.37,3.98 -13.97,4 -13.58,4.01 -13.19,3.99 -12.79,3.95 -12.4,3.88 -12.01,3.81 -11.61,3.74 -11.22,3.7 -10.82,3.68 -10.43,3.69 -10.04,3.72 -9.64,3.77 -9.25,3.82 -8.86,3.87 -8.46,3.91 -8.07,3.95 -7.68,3.97 -7.28,3.98 -6.89,3.98 -6.49,3.97 -6.1,3.98 -5.71,4 -5.31,4.03 -4.92,4.06 -4.53,4.09 -4.13,4.11 -3.74,4.13 -3.35,4.13 -2.95,4.12 -2.56,4.11 -2.16,4.1 -1.77,4.08 -1.38,4.07 -0.98,4.07 -0.59,4.08 -0.2,4.09 0.2,4.1 0.59,4.12 0.98,4.12 1.38,4.12 1.77,4.1 2.16,4.07 2.56,4.04 2.95,4.01 3.35,3.98 3.74,3.96 4.13,3.97 4.53,3.98 4.92,4 5.31,4.03 5.71,4.05 6.1,4.08 6.49,4.1 6.89,4.12 7.28,4.13 7.68,4.14 8.07,4.14 8.46,4.14 8.86,4.14 9.25,4.14 9.64,4.14 10.04,4.14 10.43,4.14 10.82,4.14 11.22,4.14 11.61,4.14 12.01,4.14 12.4,4.14 12.79,4.14 13.19,4.14 13.58,4.14 13.97,4.14 14.37,4.13 14.76,4.12 15.15,4.11 15.55,4.1 15.94,4.08 16.33,4.07 16.73,4.07 17.12,4.08 17.52,4.09 17.91,4.11 18.3,4.12 18.7,4.13 19.09,4.14 19.48,4.14 19.88,4.13 20.27,4.12 20.66,4.11 21.06,4.09 21.45,4.08 21.85,4.07 22.24,4.07 22.63,4.08 23.03,4.09 23.42,4.11 23.81,4.12 24.21,4.13 24.6,4.14 24.99,4.14 25.39,4.14 25.78,4.14 26.18,4.14 26.57,4.14 26.96,4.14 27.36,4.14 27.75,4.14 28.14,4.14 28.54,4.14 28.93,4.14 29.32,4.14 29.72,4.14 30.11,4.14 30.5,4.14 30.9,4.14 31.29,4.14 31.69,4.14 32.08,4.14 32.47,4.14 32.87,4.14 33.26,4.14 33.65,4.14 34.05,4.14 34.44,4.14 34.83,4.14 35.23,4.14 35.62,4.14 36.02,4.14 36.41,4.14 36.8,4.14 37.2,4.14 37.59,4.14 37.98,4.14 38.38,4.14 38.77,4.14 39.16,4.14 39.56,4.14 39.95,4.14 40.35,4.14 40.74,4.14 41.13,4.14 41.53,4.14 41.92,4.14 42.31,4.14 42.71,4.14 43.1,4.14 43.49,4.14 43.89,4.13 44.28,4.11 44.68,4.1 45.07,4.08 45.46,4.07 45.86,4.07 46.25,4.08 46.64,4.09 47.04,4.11 47.43,4.12 47.82,4.13 48.22,4.14 48.61,4.14 49,4.14 49.4,4.14 49.79,4.14 50.19,4.14 " class="primitive"/>
          </g>
          <g transform="translate(223.17,92.16)" id="img-43d4f30b-33" stroke-dasharray="none" stroke="#B23AEE" class="color_Area_3">
            <path fill="none" d="M-48.62,4.28 L-48.24,4.28 -47.86,4.27 -47.47,4.26 -47.09,4.22 -46.71,4.13 -46.33,3.91 -45.95,3.47 -45.57,2.66 -45.19,1.31 -44.8,-0.71 -44.42,-3.41 -44.04,-6.68 -43.66,-10.24 -43.28,-13.74 -42.9,-16.82 -42.52,-19.26 -42.14,-21.02 -41.75,-22.14 -41.37,-22.8 -40.99,-23.14 -40.61,-23.3 -40.23,-23.37 -39.85,-23.39 -39.47,-23.4 -39.09,-23.4 -38.7,-23.4 -38.32,-23.4 -37.94,-23.39 -37.56,-23.37 -37.18,-23.32 -36.8,-23.25 -36.42,-23.12 -36.03,-22.91 -35.65,-22.61 -35.27,-22.19 -34.89,-21.67 -34.51,-21.05 -34.13,-20.34 -33.75,-19.55 -33.37,-18.69 -32.98,-17.73 -32.6,-16.67 -32.22,-15.51 -31.84,-14.28 -31.46,-13.02 -31.08,-11.75 -30.7,-10.54 -30.31,-9.42 -29.93,-8.43 -29.55,-7.6 -29.17,-6.89 -28.79,-6.29 -28.41,-5.72 -28.03,-5.16 -27.65,-4.57 -27.26,-3.97 -26.88,-3.38 -26.5,-2.83 -26.12,-2.34 -25.74,-1.93 -25.36,-1.59 -24.98,-1.3 -24.59,-1.01 -24.21,-0.68 -23.83,-0.31 -23.45,0.11 -23.07,0.56 -22.69,1 -22.31,1.39 -21.93,1.7 -21.54,1.94 -21.16,2.1 -20.78,2.2 -20.4,2.26 -20.02,2.32 -19.64,2.37 -19.26,2.43 -18.88,2.51 -18.49,2.59 -18.11,2.69 -17.73,2.82 -17.35,2.97 -16.97,3.13 -16.59,3.29 -16.21,3.41 -15.82,3.49 -15.44,3.52 -15.06,3.51 -14.68,3.46 -14.3,3.42 -13.92,3.38 -13.54,3.38 -13.16,3.4 -12.77,3.44 -12.39,3.5 -12.01,3.57 -11.63,3.64 -11.25,3.7 -10.87,3.73 -10.49,3.75 -10.1,3.75 -9.72,3.74 -9.34,3.73 -8.96,3.75 -8.58,3.79 -8.2,3.86 -7.82,3.94 -7.44,4.02 -7.05,4.09 -6.67,4.13 -6.29,4.17 -5.91,4.18 -5.53,4.19 -5.15,4.19 -4.77,4.18 -4.39,4.17 -4,4.15 -3.62,4.13 -3.24,4.1 -2.86,4.08 -2.48,4.06 -2.1,4.04 -1.72,4.03 -1.33,4.01 -0.95,3.97 -0.57,3.93 -0.19,3.88 0.19,3.84 0.57,3.81 0.95,3.8 1.33,3.83 1.72,3.87 2.1,3.94 2.48,4.01 2.86,4.08 3.24,4.15 3.62,4.19 4,4.22 4.39,4.23 4.77,4.22 5.15,4.2 5.53,4.16 5.91,4.12 6.29,4.07 6.67,4.03 7.05,4 7.44,4 7.82,4.02 8.2,4.05 8.58,4.09 8.96,4.13 9.34,4.18 9.72,4.21 10.1,4.24 10.49,4.25 10.87,4.27 11.25,4.27 11.63,4.28 12.01,4.28 12.39,4.28 12.77,4.28 13.16,4.28 13.54,4.28 13.92,4.28 14.3,4.28 14.68,4.28 15.06,4.28 15.44,4.28 15.82,4.28 16.21,4.28 16.59,4.27 16.97,4.27 17.35,4.26 17.73,4.25 18.11,4.23 18.49,4.22 18.88,4.21 19.26,4.21 19.64,4.22 20.02,4.23 20.4,4.24 20.78,4.25 21.16,4.26 21.54,4.27 21.93,4.27 22.31,4.28 22.69,4.28 23.07,4.28 23.45,4.28 23.83,4.28 24.21,4.28 24.59,4.28 24.98,4.28 25.36,4.28 25.74,4.28 26.12,4.28 26.5,4.28 26.88,4.28 27.26,4.28 27.65,4.28 28.03,4.28 28.41,4.28 28.79,4.28 29.17,4.28 29.55,4.28 29.93,4.28 30.31,4.28 30.7,4.28 31.08,4.28 31.46,4.28 31.84,4.28 32.22,4.28 32.6,4.28 32.98,4.28 33.37,4.28 33.75,4.28 34.13,4.28 34.51,4.28 34.89,4.28 35.27,4.28 35.65,4.27 36.03,4.26 36.42,4.26 36.8,4.24 37.18,4.23 37.56,4.22 37.94,4.21 38.32,4.21 38.7,4.22 39.09,4.23 39.47,4.24 39.85,4.26 40.23,4.27 40.61,4.27 40.99,4.27 41.37,4.27 41.75,4.27 42.14,4.26 42.52,4.25 42.9,4.24 43.28,4.22 43.66,4.21 44.04,4.21 44.42,4.22 44.8,4.23 45.19,4.24 45.57,4.25 45.95,4.26 46.33,4.27 46.71,4.27 47.09,4.28 47.47,4.28 47.86,4.28 48.24,4.28 48.62,4.28 " class="primitive"/>
          </g>
          <g transform="translate(193.43,83.8)" id="img-43d4f30b-34" stroke-dasharray="none" stroke="#4169E1" class="color_Area_2">
            <path fill="none" d="M-16.45,12.64 L-16.33,12.64 -16.2,12.64 -16.07,12.63 -15.94,12.62 -15.81,12.59 -15.68,12.53 -15.55,12.41 -15.42,12.2 -15.29,11.84 -15.16,11.24 -15.03,10.3 -14.91,8.89 -14.78,6.88 -14.65,4.15 -14.52,0.64 -14.39,-3.67 -14.26,-8.71 -14.13,-14.29 -14,-20.19 -13.87,-26.12 -13.74,-31.79 -13.62,-36.94 -13.49,-41.39 -13.36,-45.04 -13.23,-47.9 -13.1,-50.03 -12.97,-51.53 -12.84,-52.54 -12.71,-53.19 -12.58,-53.58 -12.45,-53.8 -12.32,-53.92 -12.2,-53.97 -12.07,-53.98 -11.94,-53.96 -11.81,-53.92 -11.68,-53.84 -11.55,-53.74 -11.42,-53.59 -11.29,-53.39 -11.16,-53.13 -11.03,-52.8 -10.91,-52.39 -10.78,-51.89 -10.65,-51.29 -10.52,-50.58 -10.39,-49.76 -10.26,-48.81 -10.13,-47.74 -10,-46.53 -9.87,-45.16 -9.74,-43.62 -9.61,-41.89 -9.49,-39.94 -9.36,-37.78 -9.23,-35.4 -9.1,-32.84 -8.97,-30.13 -8.84,-27.36 -8.71,-24.59 -8.58,-21.89 -8.45,-19.33 -8.32,-16.96 -8.19,-14.8 -8.07,-12.86 -7.94,-11.14 -7.81,-9.6 -7.68,-8.23 -7.55,-6.98 -7.42,-5.84 -7.29,-4.8 -7.16,-3.87 -7.03,-3.04 -6.9,-2.35 -6.78,-1.81 -6.65,-1.4 -6.52,-1.12 -6.39,-0.92 -6.26,-0.76 -6.13,-0.57 -6,-0.31 -5.87,0.04 -5.74,0.51 -5.61,1.09 -5.48,1.74 -5.36,2.44 -5.23,3.16 -5.1,3.85 -4.97,4.5 -4.84,5.08 -4.71,5.58 -4.58,6 -4.45,6.34 -4.32,6.61 -4.19,6.81 -4.07,6.96 -3.94,7.08 -3.81,7.19 -3.68,7.3 -3.55,7.43 -3.42,7.56 -3.29,7.72 -3.16,7.89 -3.03,8.06 -2.9,8.22 -2.77,8.38 -2.65,8.52 -2.52,8.66 -2.39,8.8 -2.26,8.94 -2.13,9.09 -2,9.25 -1.87,9.41 -1.74,9.55 -1.61,9.68 -1.48,9.78 -1.36,9.85 -1.23,9.91 -1.1,9.96 -0.97,10.03 -0.84,10.12 -0.71,10.24 -0.58,10.41 -0.45,10.6 -0.32,10.82 -0.19,11.04 -0.06,11.25 0.06,11.44 0.19,11.6 0.32,11.71 0.45,11.79 0.58,11.83 0.71,11.83 0.84,11.81 0.97,11.77 1.1,11.73 1.23,11.69 1.36,11.68 1.48,11.68 1.61,11.71 1.74,11.77 1.87,11.84 2,11.91 2.13,11.96 2.26,11.99 2.39,11.99 2.52,11.96 2.65,11.89 2.77,11.81 2.9,11.74 3.03,11.68 3.16,11.66 3.29,11.67 3.42,11.74 3.55,11.83 3.68,11.95 3.81,12.08 3.94,12.21 4.07,12.33 4.19,12.42 4.32,12.5 4.45,12.55 4.58,12.59 4.71,12.61 4.84,12.62 4.97,12.63 5.1,12.64 5.23,12.64 5.36,12.64 5.48,12.64 5.61,12.64 5.74,12.64 5.87,12.64 6,12.64 6.13,12.64 6.26,12.64 6.39,12.63 6.52,12.63 6.65,12.62 6.78,12.6 6.9,12.58 7.03,12.55 7.16,12.52 7.29,12.48 7.42,12.43 7.55,12.39 7.68,12.35 7.81,12.33 7.94,12.32 8.07,12.32 8.19,12.34 8.32,12.38 8.45,12.42 8.58,12.46 8.71,12.51 8.84,12.54 8.97,12.57 9.1,12.6 9.23,12.61 9.36,12.63 9.49,12.63 9.61,12.64 9.74,12.64 9.87,12.64 10,12.64 10.13,12.64 10.26,12.64 10.39,12.64 10.52,12.64 10.65,12.64 10.78,12.64 10.91,12.64 11.03,12.64 11.16,12.64 11.29,12.64 11.42,12.64 11.55,12.64 11.68,12.64 11.81,12.64 11.94,12.64 12.07,12.64 12.2,12.64 12.32,12.63 12.45,12.62 12.58,12.6 12.71,12.57 12.84,12.53 12.97,12.46 13.1,12.38 13.23,12.28 13.36,12.16 13.49,12.03 13.62,11.9 13.74,11.8 13.87,11.72 14,11.68 14.13,11.7 14.26,11.75 14.39,11.84 14.52,11.96 14.65,12.09 14.78,12.21 14.91,12.33 15.03,12.42 15.16,12.49 15.29,12.55 15.42,12.59 15.55,12.61 15.68,12.62 15.81,12.63 15.94,12.64 16.07,12.64 16.2,12.64 16.33,12.64 16.45,12.64 " class="primitive"/>
          </g>
          <g transform="translate(200.46,87.79)" id="img-43d4f30b-35" stroke-dasharray="none" stroke="#00CD66" class="color_Area_4">
            <path fill="none" d="M-24.03,8.66 L-23.84,8.65 -23.65,8.65 -23.47,8.64 -23.28,8.62 -23.09,8.58 -22.9,8.47 -22.71,8.25 -22.52,7.83 -22.34,7.09 -22.15,5.85 -21.96,3.93 -21.77,1.18 -21.58,-2.5 -21.39,-7.08 -21.2,-12.36 -21.02,-18.04 -20.83,-23.71 -20.64,-28.98 -20.45,-33.52 -20.26,-37.17 -20.07,-39.89 -19.89,-41.77 -19.7,-42.98 -19.51,-43.7 -19.32,-44.11 -19.13,-44.31 -18.94,-44.41 -18.75,-44.46 -18.57,-44.47 -18.38,-44.47 -18.19,-44.46 -18,-44.43 -17.81,-44.38 -17.62,-44.29 -17.43,-44.13 -17.25,-43.9 -17.06,-43.54 -16.87,-43.03 -16.68,-42.34 -16.49,-41.45 -16.3,-40.35 -16.12,-39.05 -15.93,-37.55 -15.74,-35.89 -15.55,-34.08 -15.36,-32.14 -15.17,-30.07 -14.98,-27.9 -14.8,-25.66 -14.61,-23.38 -14.42,-21.14 -14.23,-18.98 -14.04,-16.96 -13.85,-15.13 -13.67,-13.49 -13.48,-12.07 -13.29,-10.84 -13.1,-9.8 -12.91,-8.92 -12.72,-8.15 -12.53,-7.44 -12.35,-6.72 -12.16,-5.97 -11.97,-5.14 -11.78,-4.23 -11.59,-3.27 -11.4,-2.29 -11.21,-1.36 -11.03,-0.52 -10.84,0.21 -10.65,0.83 -10.46,1.35 -10.27,1.8 -10.08,2.23 -9.9,2.65 -9.71,3.06 -9.52,3.45 -9.33,3.8 -9.14,4.11 -8.95,4.37 -8.76,4.6 -8.58,4.83 -8.39,5.06 -8.2,5.31 -8.01,5.59 -7.82,5.89 -7.63,6.2 -7.45,6.49 -7.26,6.76 -7.07,6.99 -6.88,7.16 -6.69,7.28 -6.5,7.33 -6.31,7.34 -6.13,7.32 -5.94,7.29 -5.75,7.26 -5.56,7.26 -5.37,7.3 -5.18,7.35 -4.99,7.43 -4.81,7.5 -4.62,7.56 -4.43,7.58 -4.24,7.58 -4.05,7.55 -3.86,7.5 -3.68,7.46 -3.49,7.44 -3.3,7.45 -3.11,7.49 -2.92,7.55 -2.73,7.64 -2.54,7.73 -2.36,7.82 -2.17,7.89 -1.98,7.94 -1.79,7.97 -1.6,7.99 -1.41,7.99 -1.23,7.98 -1.04,7.94 -0.85,7.88 -0.66,7.8 -0.47,7.7 -0.28,7.6 -0.09,7.49 0.09,7.4 0.28,7.33 0.47,7.29 0.66,7.28 0.85,7.31 1.04,7.38 1.23,7.48 1.41,7.59 1.6,7.7 1.79,7.79 1.98,7.86 2.17,7.89 2.36,7.91 2.54,7.93 2.73,7.96 2.92,8 3.11,8.06 3.3,8.12 3.49,8.17 3.68,8.21 3.86,8.22 4.05,8.23 4.24,8.23 4.43,8.23 4.62,8.25 4.81,8.29 4.99,8.34 5.18,8.39 5.37,8.45 5.56,8.5 5.75,8.54 5.94,8.57 6.13,8.57 6.31,8.55 6.5,8.52 6.69,8.47 6.88,8.41 7.07,8.35 7.26,8.29 7.45,8.26 7.63,8.25 7.82,8.26 8.01,8.3 8.2,8.34 8.39,8.4 8.58,8.44 8.76,8.47 8.95,8.48 9.14,8.47 9.33,8.46 9.52,8.44 9.71,8.44 9.9,8.44 10.08,8.46 10.27,8.49 10.46,8.52 10.65,8.55 10.84,8.58 11.03,8.6 11.21,8.6 11.4,8.6 11.59,8.58 11.78,8.55 11.97,8.52 12.16,8.49 12.35,8.46 12.53,8.44 12.72,8.44 12.91,8.46 13.1,8.49 13.29,8.52 13.48,8.55 13.67,8.58 13.85,8.61 14.04,8.63 14.23,8.64 14.42,8.65 14.61,8.65 14.8,8.65 14.98,8.65 15.17,8.65 15.36,8.65 15.55,8.65 15.74,8.64 15.93,8.63 16.12,8.61 16.3,8.58 16.49,8.55 16.68,8.51 16.87,8.48 17.06,8.45 17.25,8.44 17.43,8.45 17.62,8.46 17.81,8.49 18,8.53 18.19,8.56 18.38,8.59 18.57,8.62 18.75,8.63 18.94,8.64 19.13,8.64 19.32,8.64 19.51,8.63 19.7,8.61 19.89,8.57 20.07,8.52 20.26,8.47 20.45,8.4 20.64,8.33 20.83,8.28 21.02,8.24 21.2,8.24 21.39,8.26 21.58,8.31 21.77,8.37 21.96,8.44 22.15,8.5 22.34,8.55 22.52,8.59 22.71,8.62 22.9,8.64 23.09,8.65 23.28,8.65 23.47,8.65 23.65,8.66 23.84,8.66 24.03,8.66 " class="primitive"/>
          </g>
        </g>
      </g>
    </g>
  </g>
  <g class="guide ylabels" font-size="4.59" font-family="CMU Serif" fill="#6C606B" id="img-43d4f30b-36">
    <g transform="translate(175.74,96.44)" id="img-43d4f30b-37">
      <g class="primitive">
        <text text-anchor="end" dy="0.35em">0.000</text>
      </g>
    </g>
    <g transform="translate(175.74,66.63)" id="img-43d4f30b-38">
      <g class="primitive">
        <text text-anchor="end" dy="0.35em">0.005</text>
      </g>
    </g>
    <g transform="translate(175.74,36.81)" id="img-43d4f30b-39">
      <g class="primitive">
        <text text-anchor="end" dy="0.35em">0.010</text>
      </g>
    </g>
    <g transform="translate(175.74,7)" id="img-43d4f30b-40">
      <g class="primitive">
        <text text-anchor="end" dy="0.35em">0.015</text>
      </g>
    </g>
  </g>
  <g font-size="4.59" font-family="CMU Serif" fill="#564A55" stroke="#000000" stroke-opacity="0.000" id="img-43d4f30b-41">
    <g transform="translate(159.14,49.72)" id="img-43d4f30b-42">
      <g class="primitive">
        <text text-anchor="middle" dy="0.35em" transform="rotate(-90,0, 2)">Density</text>
      </g>
    </g>
  </g>
</g>
<g class="plotroot xscalable yscalable" id="img-43d4f30b-43">
  <g font-size="4.59" font-family="CMU Serif" fill="#564A55" stroke="#000000" stroke-opacity="0.000" id="img-43d4f30b-44">
    <g transform="translate(85.87,107.72)" id="img-43d4f30b-45">
      <g class="primitive">
        <text text-anchor="middle" dy="0.6em">Proper Motion Right Ascension (mas/yr)</text>
      </g>
    </g>
  </g>
  <g class="guide xlabels" font-size="4.59" font-family="CMU Serif" fill="#6C606B" id="img-43d4f30b-46">
    <g transform="translate(28.94,99.44)" id="img-43d4f30b-47">
      <g class="primitive">
        <text text-anchor="middle" dy="0.6em">0</text>
      </g>
    </g>
    <g transform="translate(68.79,99.44)" id="img-43d4f30b-48">
      <g class="primitive">
        <text text-anchor="middle" dy="0.6em">2.00×10³</text>
      </g>
    </g>
    <g transform="translate(108.64,99.44)" id="img-43d4f30b-49">
      <g class="primitive">
        <text text-anchor="middle" dy="0.6em">4.00×10³</text>
      </g>
    </g>
  </g>
  <g clip-path="url(#img-43d4f30b-50)">
    <g id="img-43d4f30b-51">
      <g pointer-events="visible" stroke-width="0.3" fill="#000000" fill-opacity="0.000" stroke="#000000" stroke-opacity="0.000" class="guide background" id="img-43d4f30b-52">
        <g transform="translate(85.87,51.72)" id="img-43d4f30b-53">
          <path d="M-59.13,-46.72 L59.13,-46.72 59.13,46.72 -59.13,46.72  z" class="primitive"/>
        </g>
      </g>
      <g class="guide ygridlines xfixed" stroke-dasharray="0.5,0.5" stroke-width="0.2" stroke="#D0D0E0" id="img-43d4f30b-54">
        <g transform="translate(85.87,96.44)" id="img-43d4f30b-55">
          <path fill="none" d="M-59.13,0 L59.13,0 " class="primitive"/>
        </g>
        <g transform="translate(85.87,66.63)" id="img-43d4f30b-56">
          <path fill="none" d="M-59.13,0 L59.13,0 " class="primitive"/>
        </g>
        <g transform="translate(85.87,36.81)" id="img-43d4f30b-57">
          <path fill="none" d="M-59.13,0 L59.13,0 " class="primitive"/>
        </g>
        <g transform="translate(85.87,7)" id="img-43d4f30b-58">
          <path fill="none" d="M-59.13,0 L59.13,0 " class="primitive"/>
        </g>
      </g>
      <g class="guide xgridlines yfixed" stroke-dasharray="0.5,0.5" stroke-width="0.2" stroke="#D0D0E0" id="img-43d4f30b-59">
        <g transform="translate(28.94,51.72)" id="img-43d4f30b-60">
          <path fill="none" d="M0,-46.72 L0,46.72 " class="primitive"/>
        </g>
        <g transform="translate(68.79,51.72)" id="img-43d4f30b-61">
          <path fill="none" d="M0,-46.72 L0,46.72 " class="primitive"/>
        </g>
        <g transform="translate(108.64,51.72)" id="img-43d4f30b-62">
          <path fill="none" d="M0,-46.72 L0,46.72 " class="primitive"/>
        </g>
      </g>
      <g class="plotpanel" id="img-43d4f30b-63">
        <metadata>
          <boundingbox value="26.740833333333327mm 5.0mm 118.25916666666667mm 93.44166666666666mm"/>
          <unitbox value="-110.38012878625392 0.015335414143296375 5935.435190077534 -0.01567082828659275"/>
        </metadata>
        <g stroke-width="0.3" fill="#000000" fill-opacity="0.000" class="geometry" id="img-43d4f30b-64">
          <g transform="translate(68.76,95.01)" id="img-43d4f30b-65" stroke-dasharray="none" stroke="#FF6347" class="color_Area_1">
            <path fill="none" d="M-41.31,1.43 L-40.98,1.41 -40.66,1.13 -40.34,-0.66 -40.01,-6.46 -39.69,-15.4 -39.36,-21.98 -39.04,-24.37 -38.72,-24.81 -38.39,-24.84 -38.07,-24.83 -37.74,-24.71 -37.42,-24.2 -37.1,-22.96 -36.77,-20.88 -36.45,-18.04 -36.12,-14.95 -35.8,-12.35 -35.48,-10.28 -35.15,-8.07 -34.83,-5.62 -34.5,-3.74 -34.18,-2.68 -33.86,-2.07 -33.53,-1.6 -33.21,-1.02 -32.88,-0.5 -32.56,-0.27 -32.24,-0.18 -31.91,-0.01 -31.59,0.32 -31.26,0.61 -30.94,0.74 -30.62,0.86 -30.29,0.97 -29.97,1.04 -29.64,1.12 -29.32,1.17 -29,1.14 -28.67,1.03 -28.35,0.86 -28.02,0.73 -27.7,0.78 -27.38,0.95 -27.05,1.13 -26.73,1.25 -26.4,1.32 -26.08,1.35 -25.76,1.38 -25.43,1.39 -25.11,1.38 -24.78,1.37 -24.46,1.36 -24.14,1.32 -23.81,1.34 -23.49,1.39 -23.16,1.42 -22.84,1.42 -22.52,1.39 -22.19,1.34 -21.87,1.32 -21.54,1.37 -21.22,1.42 -20.9,1.43 -20.57,1.43 -20.25,1.43 -19.92,1.43 -19.6,1.43 -19.28,1.43 -18.95,1.42 -18.63,1.39 -18.3,1.37 -17.98,1.38 -17.66,1.38 -17.33,1.36 -17.01,1.36 -16.69,1.35 -16.36,1.34 -16.04,1.36 -15.71,1.4 -15.39,1.42 -15.07,1.43 -14.74,1.43 -14.42,1.43 -14.09,1.43 -13.77,1.43 -13.45,1.43 -13.12,1.43 -12.8,1.43 -12.47,1.43 -12.15,1.43 -11.83,1.43 -11.5,1.43 -11.18,1.43 -10.85,1.43 -10.53,1.43 -10.21,1.43 -9.88,1.43 -9.56,1.43 -9.23,1.43 -8.91,1.43 -8.59,1.43 -8.26,1.43 -7.94,1.43 -7.61,1.43 -7.29,1.43 -6.97,1.43 -6.64,1.43 -6.32,1.43 -5.99,1.43 -5.67,1.43 -5.35,1.43 -5.02,1.42 -4.7,1.39 -4.37,1.38 -4.05,1.4 -3.73,1.42 -3.4,1.43 -3.08,1.43 -2.75,1.43 -2.43,1.43 -2.11,1.43 -1.78,1.43 -1.46,1.43 -1.13,1.43 -0.81,1.43 -0.49,1.43 -0.16,1.43 0.16,1.43 0.49,1.43 0.81,1.43 1.13,1.43 1.46,1.43 1.78,1.43 2.11,1.43 2.43,1.43 2.75,1.43 3.08,1.43 3.4,1.43 3.73,1.43 4.05,1.43 4.37,1.43 4.7,1.43 5.02,1.43 5.35,1.43 5.67,1.43 5.99,1.43 6.32,1.43 6.64,1.43 6.97,1.43 7.29,1.43 7.61,1.43 7.94,1.43 8.26,1.43 8.59,1.43 8.91,1.43 9.23,1.43 9.56,1.43 9.88,1.43 10.21,1.43 10.53,1.43 10.85,1.43 11.18,1.43 11.5,1.43 11.83,1.43 12.15,1.43 12.47,1.43 12.8,1.43 13.12,1.43 13.45,1.43 13.77,1.43 14.09,1.43 14.42,1.43 14.74,1.43 15.07,1.43 15.39,1.43 15.71,1.43 16.04,1.43 16.36,1.43 16.69,1.43 17.01,1.43 17.33,1.43 17.66,1.43 17.98,1.43 18.3,1.43 18.63,1.43 18.95,1.43 19.28,1.43 19.6,1.43 19.92,1.43 20.25,1.43 20.57,1.43 20.9,1.43 21.22,1.43 21.54,1.43 21.87,1.43 22.19,1.43 22.52,1.43 22.84,1.43 23.16,1.43 23.49,1.43 23.81,1.43 24.14,1.43 24.46,1.43 24.78,1.43 25.11,1.43 25.43,1.43 25.76,1.43 26.08,1.43 26.4,1.43 26.73,1.43 27.05,1.43 27.38,1.43 27.7,1.43 28.02,1.43 28.35,1.43 28.67,1.43 29,1.43 29.32,1.43 29.64,1.43 29.97,1.43 30.29,1.43 30.62,1.43 30.94,1.43 31.26,1.43 31.59,1.43 31.91,1.43 32.24,1.43 32.56,1.43 32.88,1.43 33.21,1.43 33.53,1.43 33.86,1.43 34.18,1.43 34.5,1.43 34.83,1.43 35.15,1.43 35.48,1.43 35.8,1.43 36.12,1.43 36.45,1.43 36.77,1.43 37.1,1.43 37.42,1.43 37.74,1.43 38.07,1.43 38.39,1.43 38.72,1.43 39.04,1.43 39.36,1.42 39.69,1.39 40.01,1.38 40.34,1.4 40.66,1.42 40.98,1.43 41.31,1.43 " class="primitive"/>
          </g>
          <g transform="translate(84.96,95.42)" id="img-43d4f30b-66" stroke-dasharray="none" stroke="#B23AEE" class="color_Area_3">
            <path fill="none" d="M-58.04,1.02 L-57.58,1.01 -57.13,0.78 -56.67,-0.71 -56.22,-5.33 -55.76,-11.9 -55.31,-16.03 -54.85,-17.17 -54.4,-17.33 -53.94,-17.33 -53.48,-17.32 -53.03,-17.25 -52.57,-16.95 -52.12,-16.2 -51.66,-14.83 -51.21,-12.89 -50.75,-10.78 -50.3,-8.7 -49.84,-6.69 -49.39,-5.04 -48.93,-3.88 -48.48,-3.05 -48.02,-2.39 -47.57,-1.77 -47.11,-1.2 -46.66,-0.75 -46.2,-0.43 -45.75,-0.17 -45.29,0.05 -44.84,0.19 -44.38,0.32 -43.93,0.34 -43.47,0.32 -43.02,0.38 -42.56,0.44 -42.11,0.56 -41.65,0.67 -41.19,0.7 -40.74,0.75 -40.28,0.86 -39.83,0.92 -39.37,0.92 -38.92,0.87 -38.46,0.83 -38.01,0.87 -37.55,0.94 -37.1,0.96 -36.64,0.95 -36.19,0.92 -35.73,0.91 -35.28,0.92 -34.82,0.94 -34.37,0.94 -33.91,0.96 -33.46,0.99 -33,1.01 -32.55,1.02 -32.09,1.01 -31.64,0.99 -31.18,0.97 -30.73,0.97 -30.27,0.99 -29.82,0.97 -29.36,0.96 -28.9,0.97 -28.45,0.98 -27.99,0.99 -27.54,1 -27.08,1 -26.63,0.99 -26.17,1 -25.72,1.02 -25.26,1.02 -24.81,1.02 -24.35,1.02 -23.9,1.02 -23.44,1.02 -22.99,1.01 -22.53,1 -22.08,0.98 -21.62,0.98 -21.17,0.99 -20.71,1 -20.26,1 -19.8,0.99 -19.35,1 -18.89,1.01 -18.44,1.02 -17.98,1.02 -17.52,1.02 -17.07,1.02 -16.61,1.02 -16.16,1.02 -15.7,1.02 -15.25,1.02 -14.79,1.02 -14.34,1.01 -13.88,0.99 -13.43,0.99 -12.97,1.01 -12.52,1.02 -12.06,1.02 -11.61,1.02 -11.15,1.02 -10.7,1.02 -10.24,1.02 -9.79,1.01 -9.33,1 -8.88,0.99 -8.42,1 -7.97,1.02 -7.51,1.02 -7.06,1.02 -6.6,1.02 -6.15,1.02 -5.69,1.02 -5.23,1.02 -4.78,1.02 -4.32,1.02 -3.87,1.02 -3.41,1.02 -2.96,1.02 -2.5,1.02 -2.05,1.02 -1.59,1.02 -1.14,1.02 -0.68,1.02 -0.23,1.02 0.23,1.02 0.68,1.02 1.14,1.02 1.59,1.02 2.05,1.02 2.5,1.02 2.96,1.02 3.41,1.02 3.87,1 4.32,0.99 4.78,1 5.23,1.01 5.69,1.02 6.15,1.02 6.6,1.02 7.06,1.02 7.51,1.02 7.97,1.02 8.42,1.02 8.88,1.02 9.33,1.02 9.79,1.02 10.24,1.02 10.7,1.02 11.15,1.02 11.61,1.02 12.06,1.02 12.52,1.02 12.97,1.02 13.43,1.02 13.88,1.02 14.34,1.02 14.79,1.02 15.25,1.02 15.7,1.02 16.16,1.02 16.61,1.02 17.07,1.02 17.52,1.02 17.98,1.02 18.44,1.02 18.89,1.02 19.35,1.02 19.8,1.02 20.26,1.02 20.71,1.02 21.17,1.02 21.62,1.02 22.08,1.02 22.53,1.02 22.99,1.02 23.44,1.02 23.9,1.02 24.35,1.02 24.81,1.02 25.26,1.02 25.72,1.02 26.17,1.02 26.63,1.02 27.08,1.02 27.54,1.02 27.99,1.02 28.45,1.02 28.9,1.02 29.36,1.02 29.82,1.02 30.27,1.02 30.73,1.02 31.18,1.02 31.64,1.02 32.09,1.02 32.55,1.02 33,1.02 33.46,1.02 33.91,1.02 34.37,1.02 34.82,1.02 35.28,1.02 35.73,1.02 36.19,1.02 36.64,1.02 37.1,1.02 37.55,1.02 38.01,1.02 38.46,1.02 38.92,1.02 39.37,1.02 39.83,1.02 40.28,1.02 40.74,1.02 41.19,1.02 41.65,1.02 42.11,1.02 42.56,1.02 43.02,1.02 43.47,1.02 43.93,1.02 44.38,1.02 44.84,1.02 45.29,1.02 45.75,1.02 46.2,1.02 46.66,1.02 47.11,1.02 47.57,1.02 48.02,1.02 48.48,1.02 48.93,1.02 49.39,1.02 49.84,1.02 50.3,1.02 50.75,1.02 51.21,1.02 51.66,1.02 52.12,1.02 52.57,1.02 53.03,1.02 53.48,1.02 53.94,1.02 54.4,1.02 54.85,1.02 55.31,1.02 55.76,1 56.22,0.99 56.67,1 57.13,1.02 57.58,1.02 58.04,1.02 " class="primitive"/>
          </g>
          <g transform="translate(32.49,83.04)" id="img-43d4f30b-67" stroke-dasharray="none" stroke="#4169E1" class="color_Area_2">
            <path fill="none" d="M-4.41,13.4 L-4.38,13.4 -4.35,13.4 -4.31,13.4 -4.28,13.4 -4.24,13.39 -4.21,13.38 -4.17,13.37 -4.14,13.34 -4.1,13.29 -4.07,13.2 -4.03,13.07 -4,12.85 -3.96,12.52 -3.93,12.04 -3.9,11.36 -3.86,10.41 -3.83,9.14 -3.79,7.51 -3.76,5.45 -3.72,2.96 -3.69,0.04 -3.65,-3.27 -3.62,-6.92 -3.58,-10.8 -3.55,-14.79 -3.51,-18.76 -3.48,-22.59 -3.45,-26.16 -3.41,-29.37 -3.38,-32.18 -3.34,-34.55 -3.31,-36.48 -3.27,-38 -3.24,-39.17 -3.2,-40.03 -3.17,-40.64 -3.13,-41.07 -3.1,-41.35 -3.06,-41.53 -3.03,-41.65 -3,-41.72 -2.96,-41.76 -2.93,-41.78 -2.89,-41.79 -2.86,-41.79 -2.82,-41.79 -2.79,-41.78 -2.75,-41.76 -2.72,-41.74 -2.68,-41.7 -2.65,-41.64 -2.61,-41.56 -2.58,-41.45 -2.54,-41.3 -2.51,-41.1 -2.48,-40.84 -2.44,-40.53 -2.41,-40.14 -2.37,-39.68 -2.34,-39.14 -2.3,-38.53 -2.27,-37.84 -2.23,-37.09 -2.2,-36.27 -2.16,-35.39 -2.13,-34.44 -2.09,-33.43 -2.06,-32.35 -2.03,-31.21 -1.99,-29.99 -1.96,-28.69 -1.92,-27.32 -1.89,-25.88 -1.85,-24.37 -1.82,-22.81 -1.78,-21.2 -1.75,-19.59 -1.71,-17.98 -1.68,-16.4 -1.64,-14.88 -1.61,-13.45 -1.58,-12.1 -1.54,-10.87 -1.51,-9.74 -1.47,-8.71 -1.44,-7.76 -1.4,-6.88 -1.37,-6.04 -1.33,-5.24 -1.3,-4.45 -1.26,-3.68 -1.23,-2.92 -1.19,-2.17 -1.16,-1.45 -1.13,-0.76 -1.09,-0.1 -1.06,0.53 -1.02,1.13 -0.99,1.69 -0.95,2.24 -0.92,2.76 -0.88,3.27 -0.85,3.77 -0.81,4.25 -0.78,4.73 -0.74,5.18 -0.71,5.62 -0.68,6.03 -0.64,6.41 -0.61,6.75 -0.57,7.04 -0.54,7.29 -0.5,7.49 -0.47,7.62 -0.43,7.71 -0.4,7.74 -0.36,7.72 -0.33,7.67 -0.29,7.59 -0.26,7.49 -0.23,7.4 -0.19,7.33 -0.16,7.3 -0.12,7.32 -0.09,7.41 -0.05,7.56 -0.02,7.78 0.02,8.05 0.05,8.38 0.09,8.74 0.12,9.11 0.16,9.48 0.19,9.83 0.23,10.15 0.26,10.43 0.29,10.67 0.33,10.88 0.36,11.05 0.4,11.19 0.43,11.32 0.47,11.44 0.5,11.56 0.54,11.68 0.57,11.8 0.61,11.92 0.64,12.03 0.68,12.13 0.71,12.22 0.74,12.29 0.78,12.33 0.81,12.35 0.85,12.36 0.88,12.35 0.92,12.33 0.95,12.3 0.99,12.27 1.02,12.25 1.06,12.24 1.09,12.23 1.13,12.24 1.16,12.26 1.19,12.29 1.23,12.32 1.26,12.35 1.3,12.39 1.33,12.42 1.37,12.46 1.4,12.49 1.44,12.53 1.47,12.57 1.51,12.61 1.54,12.67 1.58,12.72 1.61,12.79 1.64,12.85 1.68,12.91 1.71,12.97 1.75,13.01 1.78,13.05 1.82,13.08 1.85,13.1 1.89,13.12 1.92,13.13 1.96,13.13 1.99,13.14 2.03,13.15 2.06,13.17 2.09,13.19 2.13,13.21 2.16,13.24 2.2,13.26 2.23,13.29 2.27,13.31 2.3,13.33 2.34,13.35 2.37,13.37 2.41,13.38 2.44,13.39 2.48,13.39 2.51,13.4 2.54,13.4 2.58,13.4 2.61,13.4 2.65,13.4 2.68,13.4 2.72,13.4 2.75,13.4 2.79,13.4 2.82,13.4 2.86,13.4 2.89,13.4 2.93,13.39 2.96,13.39 3,13.38 3.03,13.37 3.06,13.36 3.1,13.34 3.13,13.32 3.17,13.29 3.2,13.27 3.24,13.23 3.27,13.2 3.31,13.16 3.34,13.13 3.38,13.1 3.41,13.07 3.45,13.05 3.48,13.04 3.51,13.03 3.55,13.03 3.58,13.03 3.62,13.05 3.65,13.07 3.69,13.09 3.72,13.12 3.76,13.16 3.79,13.19 3.83,13.22 3.86,13.26 3.9,13.29 3.93,13.31 3.96,13.34 4,13.35 4.03,13.37 4.07,13.38 4.1,13.39 4.14,13.39 4.17,13.4 4.21,13.4 4.24,13.4 4.28,13.4 4.31,13.4 4.35,13.4 4.38,13.4 4.41,13.4 " class="primitive"/>
          </g>
          <g transform="translate(57.72,94.5)" id="img-43d4f30b-68" stroke-dasharray="none" stroke="#00CD66" class="color_Area_4">
            <path fill="none" d="M-30.48,1.94 L-30.24,1.94 -30,1.9 -29.76,1.72 -29.52,1.1 -29.28,-0.53 -29.04,-3.64 -28.8,-8.01 -28.57,-12.52 -28.33,-15.93 -28.09,-17.81 -27.85,-18.58 -27.61,-18.8 -27.37,-18.85 -27.13,-18.86 -26.89,-18.86 -26.65,-18.85 -26.41,-18.82 -26.18,-18.75 -25.94,-18.56 -25.7,-18.23 -25.46,-17.75 -25.22,-17.12 -24.98,-16.29 -24.74,-15.19 -24.5,-13.8 -24.26,-12.23 -24.02,-10.6 -23.78,-9.07 -23.55,-7.76 -23.31,-6.72 -23.07,-5.86 -22.83,-5.04 -22.59,-4.2 -22.35,-3.35 -22.11,-2.55 -21.87,-1.89 -21.63,-1.44 -21.39,-1.17 -21.16,-0.97 -20.92,-0.67 -20.68,-0.26 -20.44,0.17 -20.2,0.5 -19.96,0.7 -19.72,0.84 -19.48,0.99 -19.24,1.11 -19,1.2 -18.77,1.27 -18.53,1.33 -18.29,1.37 -18.05,1.37 -17.81,1.33 -17.57,1.25 -17.33,1.19 -17.09,1.2 -16.85,1.27 -16.61,1.35 -16.37,1.4 -16.14,1.44 -15.9,1.49 -15.66,1.55 -15.42,1.6 -15.18,1.64 -14.94,1.64 -14.7,1.63 -14.46,1.59 -14.22,1.57 -13.98,1.58 -13.75,1.61 -13.51,1.64 -13.27,1.68 -13.03,1.73 -12.79,1.78 -12.55,1.82 -12.31,1.83 -12.07,1.82 -11.83,1.79 -11.59,1.75 -11.35,1.71 -11.12,1.7 -10.88,1.72 -10.64,1.77 -10.4,1.83 -10.16,1.88 -9.92,1.91 -9.68,1.92 -9.44,1.92 -9.2,1.9 -8.96,1.89 -8.73,1.88 -8.49,1.87 -8.25,1.85 -8.01,1.84 -7.77,1.84 -7.53,1.83 -7.29,1.84 -7.05,1.86 -6.81,1.86 -6.57,1.86 -6.33,1.85 -6.1,1.85 -5.86,1.86 -5.62,1.88 -5.38,1.91 -5.14,1.93 -4.9,1.94 -4.66,1.94 -4.42,1.94 -4.18,1.94 -3.94,1.94 -3.71,1.94 -3.47,1.94 -3.23,1.94 -2.99,1.94 -2.75,1.94 -2.51,1.94 -2.27,1.94 -2.03,1.93 -1.79,1.92 -1.55,1.9 -1.31,1.9 -1.08,1.91 -0.84,1.93 -0.6,1.94 -0.36,1.94 -0.12,1.94 0.12,1.94 0.36,1.94 0.6,1.94 0.84,1.94 1.08,1.94 1.31,1.93 1.55,1.91 1.79,1.88 2.03,1.84 2.27,1.83 2.51,1.85 2.75,1.88 2.99,1.91 3.23,1.93 3.47,1.94 3.71,1.94 3.94,1.94 4.18,1.94 4.42,1.93 4.66,1.92 4.9,1.91 5.14,1.9 5.38,1.9 5.62,1.91 5.86,1.91 6.1,1.9 6.33,1.9 6.57,1.91 6.81,1.93 7.05,1.93 7.29,1.94 7.53,1.94 7.77,1.94 8.01,1.94 8.25,1.94 8.49,1.94 8.73,1.94 8.96,1.94 9.2,1.94 9.44,1.94 9.68,1.94 9.92,1.94 10.16,1.94 10.4,1.94 10.64,1.94 10.88,1.94 11.12,1.94 11.35,1.94 11.59,1.94 11.83,1.94 12.07,1.94 12.31,1.94 12.55,1.94 12.79,1.94 13.03,1.94 13.27,1.94 13.51,1.94 13.75,1.94 13.98,1.94 14.22,1.94 14.46,1.94 14.7,1.94 14.94,1.94 15.18,1.94 15.42,1.94 15.66,1.94 15.9,1.94 16.14,1.94 16.37,1.94 16.61,1.94 16.85,1.94 17.09,1.94 17.33,1.94 17.57,1.94 17.81,1.94 18.05,1.94 18.29,1.94 18.53,1.94 18.77,1.94 19,1.94 19.24,1.94 19.48,1.94 19.72,1.94 19.96,1.94 20.2,1.94 20.44,1.94 20.68,1.94 20.92,1.94 21.16,1.94 21.39,1.94 21.63,1.94 21.87,1.94 22.11,1.94 22.35,1.94 22.59,1.94 22.83,1.94 23.07,1.94 23.31,1.94 23.55,1.94 23.78,1.94 24.02,1.94 24.26,1.94 24.5,1.94 24.74,1.94 24.98,1.94 25.22,1.94 25.46,1.94 25.7,1.94 25.94,1.94 26.18,1.94 26.41,1.94 26.65,1.94 26.89,1.94 27.13,1.94 27.37,1.94 27.61,1.93 27.85,1.92 28.09,1.9 28.33,1.88 28.57,1.88 28.8,1.88 29.04,1.9 29.28,1.92 29.52,1.93 29.76,1.94 30,1.94 30.24,1.94 30.48,1.94 " class="primitive"/>
          </g>
        </g>
      </g>
    </g>
  </g>
  <g class="guide ylabels" font-size="4.59" font-family="CMU Serif" fill="#6C606B" id="img-43d4f30b-69">
    <g transform="translate(25.74,96.44)" id="img-43d4f30b-70">
      <g class="primitive">
        <text text-anchor="end" dy="0.35em">0.000</text>
      </g>
    </g>
    <g transform="translate(25.74,66.63)" id="img-43d4f30b-71">
      <g class="primitive">
        <text text-anchor="end" dy="0.35em">0.005</text>
      </g>
    </g>
    <g transform="translate(25.74,36.81)" id="img-43d4f30b-72">
      <g class="primitive">
        <text text-anchor="end" dy="0.35em">0.010</text>
      </g>
    </g>
    <g transform="translate(25.74,7)" id="img-43d4f30b-73">
      <g class="primitive">
        <text text-anchor="end" dy="0.35em">0.015</text>
      </g>
    </g>
  </g>
  <g font-size="4.59" font-family="CMU Serif" fill="#564A55" stroke="#000000" stroke-opacity="0.000" id="img-43d4f30b-74">
    <g transform="translate(9.14,49.72)" id="img-43d4f30b-75">
      <g class="primitive">
        <text text-anchor="middle" dy="0.35em" transform="rotate(-90,0, 2)">Density</text>
      </g>
    </g>
  </g>
</g>
<defs>
  <clipPath id="img-43d4f30b-17">
    <path d="M176.74,5 L276.87,5 276.87,98.44 176.74,98.44 " />
  </clipPath>
  <clipPath id="img-43d4f30b-50">
    <path d="M26.74,5 L145,5 145,98.44 26.74,98.44 " />
  </clipPath>
</defs>
</svg>
