<?xml version="1.0" encoding="UTF-8"?>
<svg xmlns="http://www.w3.org/2000/svg"
     xmlns:xlink="http://www.w3.org/1999/xlink"
     xmlns:gadfly="http://www.gadflyjl.org/ns"
     version="1.2"
     width="300mm" height="120mm" viewBox="0 0 300 120"
     stroke="none"
     fill="#000000"
     stroke-width="0.3"
     font-size="3.88"
>
<defs>
  <marker id="arrow" markerWidth="15" markerHeight="7" refX="5" refY="3.5" orient="auto" markerUnits="strokeWidth">
    <path d="M0,0 L15,3.5 L0,7 z" stroke="context-stroke" fill="context-stroke"/>
  </marker>
</defs>
<g class="plotroot xscalable yscalable" id="img-448847a8-1">
  <g font-size="3.88" font-family="'PT Sans','Helvetica Neue','Helvetica',sans-serif" fill="#564A55" stroke="#000000" stroke-opacity="0.000" id="img-448847a8-2">
    <g transform="translate(148.59,108.39)">
      <g class="primitive">
        <text text-anchor="middle" dy="0.6em">Pheromone Value</text>
      </g>
    </g>
  </g>
  <g class="guide xlabels" font-size="2.82" font-family="'PT Sans Caption','Helvetica Neue','Helvetica',sans-serif" fill="#6C606B" id="img-448847a8-3">
    <g transform="translate(21.63,101.72)">
      <g class="primitive">
        <text text-anchor="middle" dy="0.6em">0.00</text>
      </g>
    </g>
    <g transform="translate(75.76,101.72)">
      <g class="primitive">
        <text text-anchor="middle" dy="0.6em">0.01</text>
      </g>
    </g>
    <g transform="translate(129.89,101.72)">
      <g class="primitive">
        <text text-anchor="middle" dy="0.6em">0.02</text>
      </g>
    </g>
    <g transform="translate(184.02,101.72)">
      <g class="primitive">
        <text text-anchor="middle" dy="0.6em">0.03</text>
      </g>
    </g>
    <g transform="translate(238.15,101.72)">
      <g class="primitive">
        <text text-anchor="middle" dy="0.6em">0.04</text>
      </g>
    </g>
  </g>
  <g class="guide colorkey" id="img-448847a8-4">
    <g fill="#4C404B" font-size="2.82" font-family="'PT Sans','Helvetica Neue','Helvetica',sans-serif" id="img-448847a8-5">
      <g transform="translate(281.35,47.42)" id="img-448847a8-6" class="color_Area_1">
        <g class="primitive">
          <text dy="0.35em">Area 1</text>
        </g>
      </g>
      <g transform="translate(281.35,51.04)" id="img-448847a8-7" class="color_Area_2:_2x2">
        <g class="primitive">
          <text dy="0.35em">Area 2: 2x2</text>
        </g>
      </g>
      <g transform="translate(281.35,54.67)" id="img-448847a8-8" class="color_Area_2:_4x4">
        <g class="primitive">
          <text dy="0.35em">Area 2: 4x4</text>
        </g>
      </g>
      <g transform="translate(281.35,58.3)" id="img-448847a8-9" class="color_Area_3">
        <g class="primitive">
          <text dy="0.35em">Area 3</text>
        </g>
      </g>
      <g transform="translate(281.35,61.92)" id="img-448847a8-10" class="color_Area_4">
        <g class="primitive">
          <text dy="0.35em">Area 4</text>
        </g>
      </g>
    </g>
    <g fill-opacity="1" id="img-448847a8-11">
      <g transform="translate(279.45,47.42)" id="img-448847a8-12" stroke="#FFFFFF" class="color_Area_1" fill="#FF6347">
        <path d="M-0.91,-0.91 L0.91,-0.91 0.91,0.91 -0.91,0.91  z" class="primitive"/>
      </g>
      <g transform="translate(279.45,51.04)" id="img-448847a8-13" stroke="#FFFFFF" class="color_Area_2:_2x2" fill="#4169E1">
        <path d="M-0.91,-0.91 L0.91,-0.91 0.91,0.91 -0.91,0.91  z" class="primitive"/>
      </g>
      <g transform="translate(279.45,54.67)" id="img-448847a8-14" stroke="#FFFFFF" class="color_Area_2:_4x4" fill="#404040">
        <path d="M-0.91,-0.91 L0.91,-0.91 0.91,0.91 -0.91,0.91  z" class="primitive"/>
      </g>
      <g transform="translate(279.45,58.3)" id="img-448847a8-15" stroke="#FFFFFF" class="color_Area_3" fill="#B23AEE">
        <path d="M-0.91,-0.91 L0.91,-0.91 0.91,0.91 -0.91,0.91  z" class="primitive"/>
      </g>
      <g transform="translate(279.45,61.92)" id="img-448847a8-16" stroke="#FFFFFF" class="color_Area_4" fill="#00CD66">
        <path d="M-0.91,-0.91 L0.91,-0.91 0.91,0.91 -0.91,0.91  z" class="primitive"/>
      </g>
    </g>
    <g fill="#362A35" font-size="3.88" font-family="'PT Sans','Helvetica Neue','Helvetica',sans-serif" stroke="#000000" stroke-opacity="0.000" id="img-448847a8-17">
      <g transform="translate(278.54,43.6)" id="img-448847a8-18">
        <g class="primitive">
          <text dy="-0em">Area</text>
        </g>
      </g>
    </g>
  </g>
  <g clip-path="url(#img-448847a8-19)">
    <g id="img-448847a8-20">
      <g pointer-events="visible" stroke-width="0.3" fill="#000000" fill-opacity="0.000" stroke="#000000" stroke-opacity="0.000" class="guide background" id="img-448847a8-21">
        <g transform="translate(148.59,52.86)" id="img-448847a8-22">
          <path d="M-128.95,-47.86 L128.95,-47.86 128.95,47.86 -128.95,47.86  z" class="primitive"/>
        </g>
      </g>
      <g class="guide ygridlines xfixed" stroke-dasharray="0.5,0.5" stroke-width="0.2" stroke="#D0D0E0" id="img-448847a8-23">
        <g transform="translate(148.59,98.71)" id="img-448847a8-24">
          <path fill="none" d="M-128.95,0 L128.95,0 " class="primitive"/>
        </g>
        <g transform="translate(148.59,75.79)" id="img-448847a8-25">
          <path fill="none" d="M-128.95,0 L128.95,0 " class="primitive"/>
        </g>
        <g transform="translate(148.59,52.86)" id="img-448847a8-26">
          <path fill="none" d="M-128.95,0 L128.95,0 " class="primitive"/>
        </g>
        <g transform="translate(148.59,29.93)" id="img-448847a8-27">
          <path fill="none" d="M-128.95,0 L128.95,0 " class="primitive"/>
        </g>
        <g transform="translate(148.59,7)" id="img-448847a8-28">
          <path fill="none" d="M-128.95,0 L128.95,0 " class="primitive"/>
        </g>
      </g>
      <g class="guide xgridlines yfixed" stroke-dasharray="0.5,0.5" stroke-width="0.2" stroke="#D0D0E0" id="img-448847a8-29">
        <g transform="translate(21.63,52.86)" id="img-448847a8-30">
          <path fill="none" d="M0,-47.86 L0,47.86 " class="primitive"/>
        </g>
        <g transform="translate(75.76,52.86)" id="img-448847a8-31">
          <path fill="none" d="M0,-47.86 L0,47.86 " class="primitive"/>
        </g>
        <g transform="translate(129.89,52.86)" id="img-448847a8-32">
          <path fill="none" d="M0,-47.86 L0,47.86 " class="primitive"/>
        </g>
        <g transform="translate(184.02,52.86)" id="img-448847a8-33">
          <path fill="none" d="M0,-47.86 L0,47.86 " class="primitive"/>
        </g>
        <g transform="translate(238.15,52.86)" id="img-448847a8-34">
          <path fill="none" d="M0,-47.86 L0,47.86 " class="primitive"/>
        </g>
      </g>
      <g class="plotpanel" id="img-448847a8-35">
        <metadata>
          <boundingbox value="19.63166666666666mm 5.0mm 257.9083333333333mm 95.715mm"/>
          <unitbox value="-0.00036948811010673136 204.3613367497138 0.04764703133205511 -208.7226734994276"/>
        </metadata>
        <g stroke-width="0.3" fill="#000000" fill-opacity="0.000" class="geometry" id="img-448847a8-36">
          <g transform="translate(117.17,88.67)" id="img-448847a8-37" stroke-dasharray="none" stroke="#FF6347" class="color_Area_1">
            <path fill="none" d="M-123.04,10.05 L-122.08,10.05 -121.11,10.04 -120.15,10.04 -119.18,10.04 -118.22,10.03 -117.25,10.02 -116.29,10.01 -115.32,9.99 -114.36,9.96 -113.39,9.91 -112.43,9.84 -111.46,9.75 -110.5,9.61 -109.53,9.43 -108.57,9.19 -107.6,8.88 -106.63,8.47 -105.67,7.97 -104.7,7.34 -103.74,6.58 -102.77,5.68 -101.81,4.63 -100.84,3.43 -99.88,2.08 -98.91,0.61 -97.95,-0.99 -96.98,-2.67 -96.02,-4.42 -95.05,-6.2 -94.09,-7.97 -93.12,-9.71 -92.16,-11.38 -91.19,-12.96 -90.23,-14.41 -89.26,-15.73 -88.3,-16.9 -87.33,-17.91 -86.37,-18.77 -85.4,-19.48 -84.44,-20.05 -83.47,-20.49 -82.51,-20.81 -81.54,-21.03 -80.58,-21.17 -79.61,-21.23 -78.65,-21.24 -77.68,-21.21 -76.72,-21.16 -75.75,-21.09 -74.79,-21.02 -73.82,-20.96 -72.86,-20.92 -71.89,-20.9 -70.93,-20.9 -69.96,-20.94 -69,-20.99 -68.03,-21.07 -67.07,-21.16 -66.1,-21.26 -65.14,-21.35 -64.17,-21.42 -63.21,-21.47 -62.24,-21.49 -61.28,-21.46 -60.31,-21.38 -59.35,-21.26 -58.38,-21.08 -57.42,-20.85 -56.45,-20.57 -55.49,-20.25 -54.52,-19.89 -53.56,-19.5 -52.59,-19.09 -51.63,-18.67 -50.66,-18.24 -49.7,-17.82 -48.73,-17.41 -47.77,-17.01 -46.8,-16.63 -45.84,-16.27 -44.87,-15.93 -43.91,-15.61 -42.94,-15.3 -41.98,-14.99 -41.01,-14.69 -40.05,-14.37 -39.08,-14.04 -38.12,-13.7 -37.15,-13.32 -36.19,-12.93 -35.22,-12.5 -34.26,-12.05 -33.29,-11.57 -32.33,-11.07 -31.36,-10.56 -30.4,-10.04 -29.43,-9.51 -28.47,-8.99 -27.5,-8.47 -26.54,-7.95 -25.57,-7.45 -24.61,-6.96 -23.64,-6.49 -22.68,-6.02 -21.71,-5.57 -20.75,-5.13 -19.78,-4.69 -18.82,-4.26 -17.85,-3.84 -16.89,-3.43 -15.92,-3.02 -14.96,-2.61 -13.99,-2.21 -13.03,-1.82 -12.06,-1.44 -11.1,-1.07 -10.13,-0.71 -9.17,-0.36 -8.2,-0.02 -7.24,0.3 -6.27,0.61 -5.31,0.91 -4.34,1.2 -3.38,1.48 -2.41,1.76 -1.45,2.04 -0.48,2.32 0.48,2.6 1.45,2.89 2.41,3.17 3.38,3.46 4.34,3.74 5.31,4.02 6.27,4.29 7.24,4.54 8.2,4.78 9.17,5 10.13,5.2 11.1,5.37 12.06,5.53 13.03,5.66 13.99,5.78 14.96,5.88 15.92,5.97 16.89,6.05 17.85,6.12 18.82,6.19 19.78,6.26 20.75,6.33 21.71,6.4 22.68,6.47 23.64,6.54 24.61,6.62 25.57,6.71 26.54,6.8 27.5,6.89 28.47,6.99 29.43,7.1 30.4,7.21 31.36,7.33 32.33,7.46 33.29,7.59 34.26,7.73 35.22,7.87 36.19,8.01 37.15,8.15 38.12,8.29 39.08,8.42 40.05,8.55 41.01,8.67 41.98,8.78 42.94,8.88 43.91,8.97 44.87,9.05 45.84,9.12 46.8,9.17 47.77,9.22 48.73,9.25 49.7,9.28 50.66,9.3 51.63,9.32 52.59,9.33 53.56,9.34 54.52,9.34 55.49,9.35 56.45,9.35 57.42,9.35 58.38,9.35 59.35,9.36 60.31,9.36 61.28,9.36 62.24,9.36 63.21,9.37 64.17,9.37 65.14,9.38 66.1,9.39 67.07,9.39 68.03,9.41 69,9.42 69.96,9.43 70.93,9.44 71.89,9.46 72.86,9.47 73.82,9.48 74.79,9.5 75.75,9.51 76.72,9.52 77.68,9.53 78.65,9.54 79.61,9.55 80.58,9.56 81.54,9.57 82.51,9.58 83.47,9.59 84.44,9.61 85.4,9.62 86.37,9.64 87.33,9.66 88.3,9.67 89.26,9.69 90.23,9.71 91.19,9.73 92.16,9.75 93.12,9.77 94.09,9.79 95.05,9.81 96.02,9.83 96.98,9.85 97.95,9.87 98.91,9.89 99.88,9.91 100.84,9.93 101.81,9.95 102.77,9.96 103.74,9.98 104.7,9.99 105.67,10 106.63,10.01 107.6,10.02 108.57,10.03 109.53,10.03 110.5,10.04 111.46,10.04 112.43,10.04 113.39,10.04 114.36,10.04 115.32,10.05 116.29,10.05 117.25,10.05 118.22,10.05 119.18,10.05 120.15,10.05 121.11,10.05 122.08,10.05 123.04,10.05 " class="primitive"/>
          </g>
          <g transform="translate(113.38,88.24)" id="img-448847a8-38" stroke-dasharray="none" stroke="#B23AEE" class="color_Area_3">
            <path fill="none" d="M-118.06,10.47 L-117.13,10.47 -116.21,10.47 -115.28,10.47 -114.36,10.46 -113.43,10.46 -112.5,10.45 -111.58,10.44 -110.65,10.42 -109.73,10.39 -108.8,10.35 -107.87,10.28 -106.95,10.2 -106.02,10.08 -105.1,9.91 -104.17,9.69 -103.24,9.4 -102.32,9.03 -101.39,8.57 -100.47,7.99 -99.54,7.3 -98.61,6.48 -97.69,5.52 -96.76,4.43 -95.84,3.2 -94.91,1.86 -93.98,0.41 -93.06,-1.12 -92.13,-2.71 -91.21,-4.32 -90.28,-5.93 -89.35,-7.5 -88.43,-9.01 -87.5,-10.43 -86.58,-11.74 -85.65,-12.92 -84.73,-13.98 -83.8,-14.89 -82.87,-15.66 -81.95,-16.3 -81.02,-16.82 -80.1,-17.21 -79.17,-17.51 -78.24,-17.71 -77.32,-17.84 -76.39,-17.9 -75.47,-17.9 -74.54,-17.87 -73.61,-17.81 -72.69,-17.73 -71.76,-17.65 -70.84,-17.57 -69.91,-17.51 -68.98,-17.46 -68.06,-17.45 -67.13,-17.45 -66.21,-17.49 -65.28,-17.56 -64.35,-17.64 -63.43,-17.75 -62.5,-17.86 -61.58,-17.97 -60.65,-18.08 -59.72,-18.17 -58.8,-18.23 -57.87,-18.26 -56.95,-18.26 -56.02,-18.22 -55.09,-18.13 -54.17,-18.01 -53.24,-17.85 -52.32,-17.66 -51.39,-17.44 -50.46,-17.21 -49.54,-16.97 -48.61,-16.72 -47.69,-16.49 -46.76,-16.27 -45.83,-16.07 -44.91,-15.9 -43.98,-15.77 -43.06,-15.67 -42.13,-15.61 -41.21,-15.58 -40.28,-15.58 -39.35,-15.61 -38.43,-15.66 -37.5,-15.71 -36.58,-15.76 -35.65,-15.81 -34.72,-15.83 -33.8,-15.82 -32.87,-15.78 -31.95,-15.7 -31.02,-15.57 -30.09,-15.38 -29.17,-15.15 -28.24,-14.86 -27.32,-14.52 -26.39,-14.13 -25.46,-13.7 -24.54,-13.22 -23.61,-12.72 -22.69,-12.18 -21.76,-11.62 -20.83,-11.05 -19.91,-10.47 -18.98,-9.89 -18.06,-9.31 -17.13,-8.74 -16.2,-8.19 -15.28,-7.65 -14.35,-7.13 -13.43,-6.64 -12.5,-6.16 -11.57,-5.7 -10.65,-5.26 -9.72,-4.84 -8.8,-4.42 -7.87,-4.02 -6.94,-3.62 -6.02,-3.23 -5.09,-2.84 -4.17,-2.46 -3.24,-2.07 -2.31,-1.68 -1.39,-1.29 -0.46,-0.89 0.46,-0.49 1.39,-0.09 2.31,0.31 3.24,0.71 4.17,1.12 5.09,1.53 6.02,1.94 6.94,2.34 7.87,2.75 8.8,3.14 9.72,3.53 10.65,3.91 11.57,4.28 12.5,4.65 13.43,4.99 14.35,5.33 15.28,5.65 16.2,5.96 17.13,6.26 18.06,6.53 18.98,6.79 19.91,7.04 20.83,7.27 21.76,7.47 22.69,7.67 23.61,7.84 24.54,8 25.46,8.14 26.39,8.27 27.32,8.39 28.24,8.49 29.17,8.58 30.09,8.67 31.02,8.74 31.95,8.81 32.87,8.86 33.8,8.91 34.72,8.95 35.65,8.97 36.58,8.99 37.5,9.01 38.43,9.01 39.35,9.01 40.28,9.01 41.21,9 42.13,9 43.06,8.99 43.98,8.99 44.91,9 45.83,9.01 46.76,9.03 47.69,9.06 48.61,9.09 49.54,9.12 50.46,9.16 51.39,9.2 52.32,9.24 53.24,9.28 54.17,9.32 55.09,9.35 56.02,9.38 56.95,9.4 57.87,9.41 58.8,9.43 59.72,9.43 60.65,9.44 61.58,9.45 62.5,9.46 63.43,9.48 64.35,9.5 65.28,9.52 66.21,9.56 67.13,9.59 68.06,9.64 68.98,9.69 69.91,9.74 70.84,9.79 71.76,9.85 72.69,9.9 73.61,9.95 74.54,10 75.47,10.04 76.39,10.09 77.32,10.12 78.24,10.15 79.17,10.18 80.1,10.2 81.02,10.22 81.95,10.23 82.87,10.25 83.8,10.26 84.73,10.27 85.65,10.28 86.58,10.28 87.5,10.29 88.43,10.3 89.35,10.31 90.28,10.31 91.21,10.32 92.13,10.33 93.06,10.34 93.98,10.35 94.91,10.36 95.84,10.38 96.76,10.39 97.69,10.4 98.61,10.41 99.54,10.42 100.47,10.43 101.39,10.44 102.32,10.44 103.24,10.45 104.17,10.45 105.1,10.46 106.02,10.46 106.95,10.46 107.87,10.47 108.8,10.47 109.73,10.47 110.65,10.47 111.58,10.47 112.5,10.47 113.43,10.47 114.36,10.47 115.28,10.47 116.21,10.47 117.13,10.47 118.06,10.47 " class="primitive"/>
          </g>
          <g transform="translate(114.3,87.28)" id="img-448847a8-39" stroke-dasharray="none" stroke="#4169E1" class="color_Area_2:_2x2">
            <path fill="none" d="M-108.1,11.43 L-107.25,11.43 -106.4,11.43 -105.56,11.41 -104.71,11.39 -103.86,11.33 -103.01,11.23 -102.16,11.06 -101.32,10.75 -100.47,10.25 -99.62,9.46 -98.77,8.29 -97.92,6.63 -97.08,4.39 -96.23,1.48 -95.38,-2.11 -94.53,-6.34 -93.69,-11.1 -92.84,-16.22 -91.99,-21.47 -91.14,-26.62 -90.29,-31.45 -89.45,-35.8 -88.6,-39.54 -87.75,-42.63 -86.9,-45.08 -86.06,-46.95 -85.21,-48.33 -84.36,-49.31 -83.51,-50 -82.66,-50.46 -81.82,-50.77 -80.97,-50.98 -80.12,-51.12 -79.27,-51.2 -78.42,-51.21 -77.58,-51.13 -76.73,-50.94 -75.88,-50.61 -75.03,-50.12 -74.19,-49.47 -73.34,-48.66 -72.49,-47.73 -71.64,-46.72 -70.79,-45.68 -69.95,-44.66 -69.1,-43.71 -68.25,-42.85 -67.4,-42.08 -66.55,-41.39 -65.71,-40.71 -64.86,-39.99 -64.01,-39.15 -63.16,-38.14 -62.32,-36.9 -61.47,-35.39 -60.62,-33.62 -59.77,-31.59 -58.92,-29.34 -58.08,-26.93 -57.23,-24.41 -56.38,-21.86 -55.53,-19.34 -54.69,-16.91 -53.84,-14.63 -52.99,-12.54 -52.14,-10.67 -51.29,-9.03 -50.45,-7.64 -49.6,-6.46 -48.75,-5.49 -47.9,-4.67 -47.05,-3.98 -46.21,-3.36 -45.36,-2.77 -44.51,-2.17 -43.66,-1.53 -42.82,-0.83 -41.97,-0.06 -41.12,0.78 -40.27,1.65 -39.42,2.54 -38.58,3.41 -37.73,4.23 -36.88,4.98 -36.03,5.63 -35.19,6.18 -34.34,6.64 -33.49,7 -32.64,7.29 -31.79,7.51 -30.95,7.67 -30.1,7.79 -29.25,7.89 -28.4,7.96 -27.55,8.02 -26.71,8.06 -25.86,8.1 -25.01,8.13 -24.16,8.16 -23.32,8.2 -22.47,8.25 -21.62,8.31 -20.77,8.39 -19.92,8.49 -19.08,8.61 -18.23,8.75 -17.38,8.91 -16.53,9.08 -15.68,9.25 -14.84,9.42 -13.99,9.59 -13.14,9.74 -12.29,9.88 -11.45,9.99 -10.6,10.08 -9.75,10.14 -8.9,10.17 -8.05,10.17 -7.21,10.15 -6.36,10.13 -5.51,10.11 -4.66,10.1 -3.82,10.11 -2.97,10.14 -2.12,10.18 -1.27,10.22 -0.42,10.26 0.42,10.27 1.27,10.26 2.12,10.2 2.97,10.11 3.82,9.98 4.66,9.85 5.51,9.72 6.36,9.62 7.21,9.57 8.05,9.58 8.9,9.64 9.75,9.74 10.6,9.87 11.45,10.01 12.29,10.14 13.14,10.24 13.99,10.32 14.84,10.38 15.68,10.41 16.53,10.44 17.38,10.46 18.23,10.5 19.08,10.55 19.92,10.62 20.77,10.7 21.62,10.79 22.47,10.88 23.32,10.96 24.16,11.03 25.01,11.09 25.86,11.12 26.71,11.13 27.55,11.13 28.4,11.11 29.25,11.09 30.1,11.08 30.95,11.07 31.79,11.08 32.64,11.1 33.49,11.13 34.34,11.17 35.19,11.21 36.03,11.24 36.88,11.27 37.73,11.28 38.58,11.27 39.42,11.25 40.27,11.22 41.12,11.19 41.97,11.15 42.82,11.11 43.66,11.09 44.51,11.08 45.36,11.08 46.21,11.11 47.05,11.14 47.9,11.18 48.75,11.23 49.6,11.28 50.45,11.32 51.29,11.35 52.14,11.38 52.99,11.4 53.84,11.41 54.69,11.42 55.53,11.43 56.38,11.43 57.23,11.43 58.08,11.44 58.92,11.44 59.77,11.44 60.62,11.44 61.47,11.44 62.32,11.44 63.16,11.44 64.01,11.44 64.86,11.44 65.71,11.44 66.55,11.44 67.4,11.44 68.25,11.44 69.1,11.44 69.95,11.44 70.79,11.44 71.64,11.44 72.49,11.44 73.34,11.44 74.19,11.44 75.03,11.44 75.88,11.44 76.73,11.44 77.58,11.44 78.42,11.44 79.27,11.44 80.12,11.43 80.97,11.43 81.82,11.43 82.66,11.42 83.51,11.41 84.36,11.4 85.21,11.38 86.06,11.35 86.9,11.32 87.75,11.28 88.6,11.23 89.45,11.18 90.29,11.14 91.14,11.11 91.99,11.08 92.84,11.08 93.69,11.09 94.53,11.12 95.38,11.16 96.23,11.2 97.08,11.25 97.92,11.29 98.77,11.33 99.62,11.37 100.47,11.39 101.32,11.41 102.16,11.42 103.01,11.43 103.86,11.43 104.71,11.43 105.56,11.43 106.4,11.44 107.25,11.44 108.1,11.44 " class="primitive"/>
          </g>
          <g transform="translate(139.42,89.63)" id="img-448847a8-40" stroke-dasharray="none" stroke="#00CD66" class="color_Area_4">
            <path fill="none" d="M-136.12,9.08 L-135.06,9.08 -133.99,9.07 -132.92,9.06 -131.85,9.03 -130.79,8.98 -129.72,8.88 -128.65,8.69 -127.58,8.37 -126.52,7.84 -125.45,7 -124.38,5.77 -123.31,4.05 -122.24,1.75 -121.18,-1.15 -120.11,-4.63 -119.04,-8.59 -117.97,-12.87 -116.91,-17.26 -115.84,-21.55 -114.77,-25.52 -113.7,-29.02 -112.64,-31.97 -111.57,-34.33 -110.5,-36.14 -109.43,-37.46 -108.37,-38.39 -107.3,-39.01 -106.23,-39.4 -105.16,-39.62 -104.09,-39.69 -103.03,-39.63 -101.96,-39.45 -100.89,-39.15 -99.82,-38.74 -98.76,-38.25 -97.69,-37.72 -96.62,-37.21 -95.55,-36.77 -94.49,-36.46 -93.42,-36.3 -92.35,-36.31 -91.28,-36.45 -90.22,-36.68 -89.15,-36.92 -88.08,-37.1 -87.01,-37.15 -85.94,-37.02 -84.88,-36.68 -83.81,-36.1 -82.74,-35.28 -81.67,-34.23 -80.61,-32.96 -79.54,-31.5 -78.47,-29.86 -77.4,-28.06 -76.34,-26.13 -75.27,-24.11 -74.2,-22.04 -73.13,-19.96 -72.07,-17.92 -71,-15.96 -69.93,-14.12 -68.86,-12.43 -67.79,-10.9 -66.73,-9.52 -65.66,-8.27 -64.59,-7.15 -63.52,-6.1 -62.46,-5.12 -61.39,-4.18 -60.32,-3.28 -59.25,-2.42 -58.19,-1.6 -57.12,-0.82 -56.05,-0.09 -54.98,0.6 -53.92,1.23 -52.85,1.8 -51.78,2.3 -50.71,2.72 -49.65,3.06 -48.58,3.33 -47.51,3.55 -46.44,3.73 -45.37,3.88 -44.31,4.03 -43.24,4.18 -42.17,4.34 -41.1,4.51 -40.04,4.7 -38.97,4.9 -37.9,5.11 -36.83,5.34 -35.77,5.59 -34.7,5.84 -33.63,6.09 -32.56,6.34 -31.5,6.58 -30.43,6.8 -29.36,7 -28.29,7.18 -27.22,7.32 -26.16,7.43 -25.09,7.51 -24.02,7.55 -22.95,7.57 -21.89,7.57 -20.82,7.56 -19.75,7.55 -18.68,7.55 -17.62,7.57 -16.55,7.61 -15.48,7.68 -14.41,7.77 -13.35,7.88 -12.28,8.01 -11.21,8.14 -10.14,8.28 -9.07,8.41 -8.01,8.53 -6.94,8.63 -5.87,8.71 -4.8,8.76 -3.74,8.8 -2.67,8.81 -1.6,8.82 -0.53,8.82 0.53,8.82 1.6,8.82 2.67,8.82 3.74,8.83 4.8,8.84 5.87,8.85 6.94,8.85 8.01,8.84 9.07,8.84 10.14,8.83 11.21,8.82 12.28,8.82 13.35,8.82 14.41,8.83 15.48,8.84 16.55,8.85 17.62,8.86 18.68,8.85 19.75,8.85 20.82,8.83 21.89,8.82 22.95,8.81 24.02,8.8 25.09,8.8 26.16,8.8 27.22,8.8 28.29,8.8 29.36,8.8 30.43,8.8 31.5,8.8 32.56,8.8 33.63,8.8 34.7,8.8 35.77,8.81 36.83,8.8 37.9,8.78 38.97,8.76 40.04,8.72 41.1,8.68 42.17,8.64 43.24,8.61 44.31,8.6 45.37,8.61 46.44,8.65 47.51,8.7 48.58,8.76 49.65,8.83 50.71,8.89 51.78,8.95 52.85,8.99 53.92,9.02 54.98,9.05 56.05,9.06 57.12,9.07 58.19,9.08 59.25,9.08 60.32,9.08 61.39,9.08 62.46,9.08 63.52,9.08 64.59,9.08 65.66,9.08 66.73,9.08 67.79,9.08 68.86,9.07 69.93,9.06 71,9.05 72.07,9.03 73.13,9.01 74.2,8.98 75.27,8.95 76.34,8.92 77.4,8.89 78.47,8.86 79.54,8.85 80.61,8.85 81.67,8.86 82.74,8.88 83.81,8.91 84.88,8.94 85.94,8.97 87.01,9 88.08,9.03 89.15,9.05 90.22,9.06 91.28,9.07 92.35,9.07 93.42,9.08 94.49,9.08 95.55,9.08 96.62,9.08 97.69,9.08 98.76,9.08 99.82,9.08 100.89,9.08 101.96,9.08 103.03,9.08 104.09,9.08 105.16,9.07 106.23,9.06 107.3,9.05 108.37,9.02 109.43,8.99 110.5,8.94 111.57,8.89 112.64,8.83 113.7,8.76 114.77,8.7 115.84,8.65 116.91,8.62 117.97,8.61 119.04,8.63 120.11,8.67 121.18,8.73 122.24,8.79 123.31,8.86 124.38,8.92 125.45,8.97 126.52,9.01 127.58,9.03 128.65,9.05 129.72,9.07 130.79,9.07 131.85,9.08 132.92,9.08 133.99,9.08 135.06,9.08 136.12,9.08 " class="primitive"/>
          </g>
          <g transform="translate(65.18,76.44)" id="img-448847a8-41" stroke-dasharray="none" stroke="#404040" class="color_Area_2:_4x4">
            <path fill="none" d="M-55.51,22.27 L-55.07,22.27 -54.64,22.26 -54.2,22.26 -53.77,22.25 -53.33,22.24 -52.9,22.21 -52.46,22.18 -52.03,22.12 -51.59,22.03 -51.15,21.9 -50.72,21.72 -50.28,21.45 -49.85,21.08 -49.41,20.58 -48.98,19.91 -48.54,19.03 -48.11,17.91 -47.67,16.51 -47.24,14.78 -46.8,12.7 -46.37,10.25 -45.93,7.43 -45.49,4.23 -45.06,0.69 -44.62,-3.15 -44.19,-7.24 -43.75,-11.5 -43.32,-15.85 -42.88,-20.21 -42.45,-24.49 -42.01,-28.61 -41.58,-32.51 -41.14,-36.12 -40.71,-39.41 -40.27,-42.35 -39.84,-44.94 -39.4,-47.18 -38.96,-49.09 -38.53,-50.69 -38.09,-52.03 -37.66,-53.12 -37.22,-54.01 -36.79,-54.73 -36.35,-55.3 -35.92,-55.76 -35.48,-56.11 -35.05,-56.38 -34.61,-56.58 -34.18,-56.73 -33.74,-56.84 -33.3,-56.93 -32.87,-56.99 -32.43,-57.05 -32,-57.1 -31.56,-57.16 -31.13,-57.23 -30.69,-57.31 -30.26,-57.39 -29.82,-57.47 -29.39,-57.54 -28.95,-57.6 -28.52,-57.62 -28.08,-57.59 -27.65,-57.5 -27.21,-57.33 -26.77,-57.06 -26.34,-56.68 -25.9,-56.18 -25.47,-55.55 -25.03,-54.78 -24.6,-53.87 -24.16,-52.82 -23.73,-51.65 -23.29,-50.35 -22.86,-48.97 -22.42,-47.5 -21.99,-45.98 -21.55,-44.44 -21.11,-42.89 -20.68,-41.37 -20.24,-39.89 -19.81,-38.47 -19.37,-37.12 -18.94,-35.84 -18.5,-34.63 -18.07,-33.47 -17.63,-32.36 -17.2,-31.26 -16.76,-30.15 -16.33,-29.02 -15.89,-27.84 -15.46,-26.6 -15.02,-25.28 -14.58,-23.89 -14.15,-22.42 -13.71,-20.89 -13.28,-19.31 -12.84,-17.7 -12.41,-16.09 -11.97,-14.48 -11.54,-12.91 -11.1,-11.39 -10.67,-9.92 -10.23,-8.5 -9.8,-7.15 -9.36,-5.84 -8.92,-4.59 -8.49,-3.36 -8.05,-2.16 -7.62,-0.98 -7.18,0.2 -6.75,1.37 -6.31,2.54 -5.88,3.7 -5.44,4.85 -5.01,5.99 -4.57,7.1 -4.14,8.17 -3.7,9.19 -3.27,10.16 -2.83,11.07 -2.39,11.91 -1.96,12.67 -1.52,13.36 -1.09,13.98 -0.65,14.52 -0.22,14.98 0.22,15.39 0.65,15.73 1.09,16.03 1.52,16.29 1.96,16.52 2.39,16.73 2.83,16.94 3.27,17.15 3.7,17.38 4.14,17.61 4.57,17.87 5.01,18.14 5.44,18.43 5.88,18.73 6.31,19.03 6.75,19.33 7.18,19.63 7.62,19.91 8.05,20.17 8.49,20.41 8.92,20.62 9.36,20.79 9.8,20.94 10.23,21.06 10.67,21.15 11.1,21.21 11.54,21.25 11.97,21.28 12.41,21.29 12.84,21.29 13.28,21.28 13.71,21.26 14.15,21.24 14.58,21.21 15.02,21.18 15.46,21.16 15.89,21.13 16.33,21.1 16.76,21.07 17.2,21.05 17.63,21.03 18.07,21.02 18.5,21.01 18.94,21.01 19.37,21.02 19.81,21.04 20.24,21.06 20.68,21.08 21.11,21.12 21.55,21.15 21.99,21.19 22.42,21.23 22.86,21.27 23.29,21.32 23.73,21.38 24.16,21.43 24.6,21.49 25.03,21.56 25.47,21.62 25.9,21.69 26.34,21.76 26.77,21.83 27.21,21.9 27.65,21.96 28.08,22.01 28.52,22.06 28.95,22.11 29.39,22.14 29.82,22.17 30.26,22.2 30.69,22.22 31.13,22.23 31.56,22.24 32,22.25 32.43,22.26 32.87,22.26 33.3,22.26 33.74,22.27 34.18,22.27 34.61,22.26 35.05,22.26 35.48,22.26 35.92,22.25 36.35,22.24 36.79,22.23 37.22,22.21 37.66,22.19 38.09,22.16 38.53,22.13 38.96,22.09 39.4,22.05 39.84,22 40.27,21.95 40.71,21.9 41.14,21.85 41.58,21.8 42.01,21.76 42.45,21.72 42.88,21.7 43.32,21.69 43.75,21.69 44.19,21.7 44.62,21.72 45.06,21.76 45.49,21.8 45.93,21.84 46.37,21.89 46.8,21.95 47.24,22 47.67,22.04 48.11,22.09 48.54,22.13 48.98,22.16 49.41,22.19 49.85,22.21 50.28,22.22 50.72,22.24 51.15,22.25 51.59,22.26 52.03,22.26 52.46,22.26 52.9,22.27 53.33,22.27 53.77,22.27 54.2,22.27 54.64,22.27 55.07,22.27 55.51,22.27 " class="primitive"/>
          </g>
        </g>
      </g>
    </g>
  </g>
  <g class="guide ylabels" font-size="2.82" font-family="'PT Sans Caption','Helvetica Neue','Helvetica',sans-serif" fill="#6C606B" id="img-448847a8-42">
    <g transform="translate(18.63,98.71)" id="img-448847a8-43">
      <g class="primitive">
        <text text-anchor="end" dy="0.35em">0</text>
      </g>
    </g>
    <g transform="translate(18.63,75.79)" id="img-448847a8-44">
      <g class="primitive">
        <text text-anchor="end" dy="0.35em">50</text>
      </g>
    </g>
    <g transform="translate(18.63,52.86)" id="img-448847a8-45">
      <g class="primitive">
        <text text-anchor="end" dy="0.35em">100</text>
      </g>
    </g>
    <g transform="translate(18.63,29.93)" id="img-448847a8-46">
      <g class="primitive">
        <text text-anchor="end" dy="0.35em">150</text>
      </g>
    </g>
    <g transform="translate(18.63,7)" id="img-448847a8-47">
      <g class="primitive">
        <text text-anchor="end" dy="0.35em">200</text>
      </g>
    </g>
  </g>
  <g font-size="3.88" font-family="'PT Sans','Helvetica Neue','Helvetica',sans-serif" fill="#564A55" stroke="#000000" stroke-opacity="0.000" id="img-448847a8-48">
    <g transform="translate(8.81,50.86)" id="img-448847a8-49">
      <g class="primitive">
        <text text-anchor="middle" dy="0.35em" transform="rotate(-90,0, 2)">Density</text>
      </g>
    </g>
  </g>
</g>
<defs>
  <clipPath id="img-448847a8-19">
    <path d="M19.63,5 L277.54,5 277.54,100.72 19.63,100.72 " />
  </clipPath>
</defs>
</svg>
