<?xml version="1.0" encoding="UTF-8"?>
<svg xmlns="http://www.w3.org/2000/svg"
     xmlns:xlink="http://www.w3.org/1999/xlink"
     xmlns:gadfly="http://www.gadflyjl.org/ns"
     version="1.2"
     width="200mm" height="120mm" viewBox="0 0 200 120"
     stroke="none"
     fill="#000000"
     stroke-width="0.3"
     font-size="3.88"
>
<defs>
  <marker id="arrow" markerWidth="15" markerHeight="7" refX="5" refY="3.5" orient="auto" markerUnits="strokeWidth">
    <path d="M0,0 L15,3.5 L0,7 z" stroke="context-stroke" fill="context-stroke"/>
  </marker>
</defs>
<g class="plotroot xscalable yscalable" id="img-caeb64e2-1">
  <g font-size="3.88" font-family="'PT Sans','Helvetica Neue','Helvetica',sans-serif" fill="#564A55" stroke="#000000" stroke-opacity="0.000" id="img-caeb64e2-2">
    <g transform="translate(98.59,108.39)">
      <g class="primitive">
        <text text-anchor="middle" dy="0.6em">Pheromone Value</text>
      </g>
    </g>
  </g>
  <g class="guide xlabels" font-size="2.82" font-family="'PT Sans Caption','Helvetica Neue','Helvetica',sans-serif" fill="#6C606B" id="img-caeb64e2-3">
    <g transform="translate(21.63,101.72)">
      <g class="primitive">
        <text text-anchor="middle" dy="0.6em">0.00</text>
      </g>
    </g>
    <g transform="translate(54.44,101.72)">
      <g class="primitive">
        <text text-anchor="middle" dy="0.6em">0.01</text>
      </g>
    </g>
    <g transform="translate(87.25,101.72)">
      <g class="primitive">
        <text text-anchor="middle" dy="0.6em">0.02</text>
      </g>
    </g>
    <g transform="translate(120.06,101.72)">
      <g class="primitive">
        <text text-anchor="middle" dy="0.6em">0.03</text>
      </g>
    </g>
    <g transform="translate(152.87,101.72)">
      <g class="primitive">
        <text text-anchor="middle" dy="0.6em">0.04</text>
      </g>
    </g>
  </g>
  <g class="guide colorkey" id="img-caeb64e2-4">
    <g fill="#4C404B" font-size="2.82" font-family="'PT Sans','Helvetica Neue','Helvetica',sans-serif" id="img-caeb64e2-5">
      <g transform="translate(181.35,47.42)" id="img-caeb64e2-6" class="color_Area_1">
        <g class="primitive">
          <text dy="0.35em">Area 1</text>
        </g>
      </g>
      <g transform="translate(181.35,51.04)" id="img-caeb64e2-7" class="color_Area_2:_2x2">
        <g class="primitive">
          <text dy="0.35em">Area 2: 2x2</text>
        </g>
      </g>
      <g transform="translate(181.35,54.67)" id="img-caeb64e2-8" class="color_Area_2:_4x4">
        <g class="primitive">
          <text dy="0.35em">Area 2: 4x4</text>
        </g>
      </g>
      <g transform="translate(181.35,58.3)" id="img-caeb64e2-9" class="color_Area_3">
        <g class="primitive">
          <text dy="0.35em">Area 3</text>
        </g>
      </g>
      <g transform="translate(181.35,61.92)" id="img-caeb64e2-10" class="color_Area_4">
        <g class="primitive">
          <text dy="0.35em">Area 4</text>
        </g>
      </g>
    </g>
    <g fill-opacity="1" id="img-caeb64e2-11">
      <g transform="translate(179.45,47.42)" id="img-caeb64e2-12" stroke="#FFFFFF" class="color_Area_1" fill="#FF6347">
        <path d="M-0.91,-0.91 L0.91,-0.91 0.91,0.91 -0.91,0.91  z" class="primitive"/>
      </g>
      <g transform="translate(179.45,51.04)" id="img-caeb64e2-13" stroke="#FFFFFF" class="color_Area_2:_2x2" fill="#4169E1">
        <path d="M-0.91,-0.91 L0.91,-0.91 0.91,0.91 -0.91,0.91  z" class="primitive"/>
      </g>
      <g transform="translate(179.45,54.67)" id="img-caeb64e2-14" stroke="#FFFFFF" class="color_Area_2:_4x4" fill="#404040">
        <path d="M-0.91,-0.91 L0.91,-0.91 0.91,0.91 -0.91,0.91  z" class="primitive"/>
      </g>
      <g transform="translate(179.45,58.3)" id="img-caeb64e2-15" stroke="#FFFFFF" class="color_Area_3" fill="#B23AEE">
        <path d="M-0.91,-0.91 L0.91,-0.91 0.91,0.91 -0.91,0.91  z" class="primitive"/>
      </g>
      <g transform="translate(179.45,61.92)" id="img-caeb64e2-16" stroke="#FFFFFF" class="color_Area_4" fill="#00CD66">
        <path d="M-0.91,-0.91 L0.91,-0.91 0.91,0.91 -0.91,0.91  z" class="primitive"/>
      </g>
    </g>
    <g fill="#362A35" font-size="3.88" font-family="'PT Sans','Helvetica Neue','Helvetica',sans-serif" stroke="#000000" stroke-opacity="0.000" id="img-caeb64e2-17">
      <g transform="translate(178.54,43.6)" id="img-caeb64e2-18">
        <g class="primitive">
          <text dy="-0em">Area</text>
        </g>
      </g>
    </g>
  </g>
  <g clip-path="url(#img-caeb64e2-19)">
    <g id="img-caeb64e2-20">
      <g pointer-events="visible" stroke-width="0.3" fill="#000000" fill-opacity="0.000" stroke="#000000" stroke-opacity="0.000" class="guide background" id="img-caeb64e2-21">
        <g transform="translate(98.59,52.86)" id="img-caeb64e2-22">
          <path d="M-78.95,-47.86 L78.95,-47.86 78.95,47.86 -78.95,47.86  z" class="primitive"/>
        </g>
      </g>
      <g class="guide ygridlines xfixed" stroke-dasharray="0.5,0.5" stroke-width="0.2" stroke="#D0D0E0" id="img-caeb64e2-23">
        <g transform="translate(98.59,98.71)" id="img-caeb64e2-24">
          <path fill="none" d="M-78.95,0 L78.95,0 " class="primitive"/>
        </g>
        <g transform="translate(98.59,75.79)" id="img-caeb64e2-25">
          <path fill="none" d="M-78.95,0 L78.95,0 " class="primitive"/>
        </g>
        <g transform="translate(98.59,52.86)" id="img-caeb64e2-26">
          <path fill="none" d="M-78.95,0 L78.95,0 " class="primitive"/>
        </g>
        <g transform="translate(98.59,29.93)" id="img-caeb64e2-27">
          <path fill="none" d="M-78.95,0 L78.95,0 " class="primitive"/>
        </g>
        <g transform="translate(98.59,7)" id="img-caeb64e2-28">
          <path fill="none" d="M-78.95,0 L78.95,0 " class="primitive"/>
        </g>
      </g>
      <g class="guide xgridlines yfixed" stroke-dasharray="0.5,0.5" stroke-width="0.2" stroke="#D0D0E0" id="img-caeb64e2-29">
        <g transform="translate(21.63,52.86)" id="img-caeb64e2-30">
          <path fill="none" d="M0,-47.86 L0,47.86 " class="primitive"/>
        </g>
        <g transform="translate(54.44,52.86)" id="img-caeb64e2-31">
          <path fill="none" d="M0,-47.86 L0,47.86 " class="primitive"/>
        </g>
        <g transform="translate(87.25,52.86)" id="img-caeb64e2-32">
          <path fill="none" d="M0,-47.86 L0,47.86 " class="primitive"/>
        </g>
        <g transform="translate(120.06,52.86)" id="img-caeb64e2-33">
          <path fill="none" d="M0,-47.86 L0,47.86 " class="primitive"/>
        </g>
        <g transform="translate(152.87,52.86)" id="img-caeb64e2-34">
          <path fill="none" d="M0,-47.86 L0,47.86 " class="primitive"/>
        </g>
      </g>
      <g class="plotpanel" id="img-caeb64e2-35">
        <metadata>
          <boundingbox value="19.63166666666669mm 5.0mm 157.90833333333333mm 95.715mm"/>
          <unitbox value="-0.0006095583532861548 204.3613367497138 0.04812717181841395 -208.7226734994276"/>
        </metadata>
        <g stroke-width="0.3" fill="#000000" fill-opacity="0.000" class="geometry" id="img-caeb64e2-36">
          <g transform="translate(79.54,88.67)" id="img-caeb64e2-37" stroke-dasharray="none" stroke="#FF6347" class="color_Area_1">
            <path fill="none" d="M-74.58,10.05 L-74,10.05 -73.41,10.04 -72.83,10.04 -72.24,10.04 -71.66,10.03 -71.07,10.02 -70.49,10.01 -69.9,9.99 -69.32,9.96 -68.73,9.91 -68.15,9.84 -67.56,9.75 -66.98,9.61 -66.39,9.43 -65.81,9.19 -65.22,8.88 -64.64,8.47 -64.05,7.97 -63.47,7.34 -62.88,6.58 -62.3,5.68 -61.71,4.63 -61.13,3.43 -60.54,2.08 -59.96,0.61 -59.37,-0.99 -58.79,-2.67 -58.2,-4.42 -57.62,-6.2 -57.03,-7.97 -56.45,-9.71 -55.86,-11.38 -55.28,-12.96 -54.69,-14.41 -54.11,-15.73 -53.52,-16.9 -52.94,-17.91 -52.35,-18.77 -51.77,-19.48 -51.18,-20.05 -50.6,-20.49 -50.01,-20.81 -49.43,-21.03 -48.84,-21.17 -48.26,-21.23 -47.67,-21.24 -47.09,-21.21 -46.5,-21.16 -45.92,-21.09 -45.33,-21.02 -44.75,-20.96 -44.16,-20.92 -43.58,-20.9 -42.99,-20.9 -42.41,-20.94 -41.82,-20.99 -41.24,-21.07 -40.65,-21.16 -40.07,-21.26 -39.48,-21.35 -38.9,-21.42 -38.31,-21.47 -37.73,-21.49 -37.14,-21.46 -36.56,-21.38 -35.97,-21.26 -35.39,-21.08 -34.8,-20.85 -34.22,-20.57 -33.63,-20.25 -33.05,-19.89 -32.47,-19.5 -31.88,-19.09 -31.3,-18.67 -30.71,-18.24 -30.13,-17.82 -29.54,-17.41 -28.96,-17.01 -28.37,-16.63 -27.79,-16.27 -27.2,-15.93 -26.62,-15.61 -26.03,-15.3 -25.45,-14.99 -24.86,-14.69 -24.28,-14.37 -23.69,-14.04 -23.11,-13.7 -22.52,-13.32 -21.94,-12.93 -21.35,-12.5 -20.77,-12.05 -20.18,-11.57 -19.6,-11.07 -19.01,-10.56 -18.43,-10.04 -17.84,-9.51 -17.26,-8.99 -16.67,-8.47 -16.09,-7.95 -15.5,-7.45 -14.92,-6.96 -14.33,-6.49 -13.75,-6.02 -13.16,-5.57 -12.58,-5.13 -11.99,-4.69 -11.41,-4.26 -10.82,-3.84 -10.24,-3.43 -9.65,-3.02 -9.07,-2.61 -8.48,-2.21 -7.9,-1.82 -7.31,-1.44 -6.73,-1.07 -6.14,-0.71 -5.56,-0.36 -4.97,-0.02 -4.39,0.3 -3.8,0.61 -3.22,0.91 -2.63,1.2 -2.05,1.48 -1.46,1.76 -0.88,2.04 -0.29,2.32 0.29,2.6 0.88,2.89 1.46,3.17 2.05,3.46 2.63,3.74 3.22,4.02 3.8,4.29 4.39,4.54 4.97,4.78 5.56,5 6.14,5.2 6.73,5.37 7.31,5.53 7.9,5.66 8.48,5.78 9.07,5.88 9.65,5.97 10.24,6.05 10.82,6.12 11.41,6.19 11.99,6.26 12.58,6.33 13.16,6.4 13.75,6.47 14.33,6.54 14.92,6.62 15.5,6.71 16.09,6.8 16.67,6.89 17.26,6.99 17.84,7.1 18.43,7.21 19.01,7.33 19.6,7.46 20.18,7.59 20.77,7.73 21.35,7.87 21.94,8.01 22.52,8.15 23.11,8.29 23.69,8.42 24.28,8.55 24.86,8.67 25.45,8.78 26.03,8.88 26.62,8.97 27.2,9.05 27.79,9.12 28.37,9.17 28.96,9.22 29.54,9.25 30.13,9.28 30.71,9.3 31.3,9.32 31.88,9.33 32.47,9.34 33.05,9.34 33.63,9.35 34.22,9.35 34.8,9.35 35.39,9.35 35.97,9.36 36.56,9.36 37.14,9.36 37.73,9.36 38.31,9.37 38.9,9.37 39.48,9.38 40.07,9.39 40.65,9.39 41.24,9.41 41.82,9.42 42.41,9.43 42.99,9.44 43.58,9.46 44.16,9.47 44.75,9.48 45.33,9.5 45.92,9.51 46.5,9.52 47.09,9.53 47.67,9.54 48.26,9.55 48.84,9.56 49.43,9.57 50.01,9.58 50.6,9.59 51.18,9.61 51.77,9.62 52.35,9.64 52.94,9.66 53.52,9.67 54.11,9.69 54.69,9.71 55.28,9.73 55.86,9.75 56.45,9.77 57.03,9.79 57.62,9.81 58.2,9.83 58.79,9.85 59.37,9.87 59.96,9.89 60.54,9.91 61.13,9.93 61.71,9.95 62.3,9.96 62.88,9.98 63.47,9.99 64.05,10 64.64,10.01 65.22,10.02 65.81,10.03 66.39,10.03 66.98,10.04 67.56,10.04 68.15,10.04 68.73,10.04 69.32,10.04 69.9,10.05 70.49,10.05 71.07,10.05 71.66,10.05 72.24,10.05 72.83,10.05 73.41,10.05 74,10.05 74.58,10.05 " class="primitive"/>
          </g>
          <g transform="translate(77.25,88.24)" id="img-caeb64e2-38" stroke-dasharray="none" stroke="#B23AEE" class="color_Area_3">
            <path fill="none" d="M-71.56,10.47 L-71,10.47 -70.44,10.47 -69.88,10.47 -69.32,10.46 -68.76,10.46 -68.2,10.45 -67.63,10.44 -67.07,10.42 -66.51,10.39 -65.95,10.35 -65.39,10.28 -64.83,10.2 -64.27,10.08 -63.7,9.91 -63.14,9.69 -62.58,9.4 -62.02,9.03 -61.46,8.57 -60.9,7.99 -60.34,7.3 -59.78,6.48 -59.21,5.52 -58.65,4.43 -58.09,3.2 -57.53,1.86 -56.97,0.41 -56.41,-1.12 -55.85,-2.71 -55.29,-4.32 -54.72,-5.93 -54.16,-7.5 -53.6,-9.01 -53.04,-10.43 -52.48,-11.74 -51.92,-12.92 -51.36,-13.98 -50.8,-14.89 -50.23,-15.66 -49.67,-16.3 -49.11,-16.82 -48.55,-17.21 -47.99,-17.51 -47.43,-17.71 -46.87,-17.84 -46.31,-17.9 -45.74,-17.9 -45.18,-17.87 -44.62,-17.81 -44.06,-17.73 -43.5,-17.65 -42.94,-17.57 -42.38,-17.51 -41.82,-17.46 -41.25,-17.45 -40.69,-17.45 -40.13,-17.49 -39.57,-17.56 -39.01,-17.64 -38.45,-17.75 -37.89,-17.86 -37.32,-17.97 -36.76,-18.08 -36.2,-18.17 -35.64,-18.23 -35.08,-18.26 -34.52,-18.26 -33.96,-18.22 -33.4,-18.13 -32.83,-18.01 -32.27,-17.85 -31.71,-17.66 -31.15,-17.44 -30.59,-17.21 -30.03,-16.97 -29.47,-16.72 -28.91,-16.49 -28.34,-16.27 -27.78,-16.07 -27.22,-15.9 -26.66,-15.77 -26.1,-15.67 -25.54,-15.61 -24.98,-15.58 -24.42,-15.58 -23.85,-15.61 -23.29,-15.66 -22.73,-15.71 -22.17,-15.76 -21.61,-15.81 -21.05,-15.83 -20.49,-15.82 -19.93,-15.78 -19.36,-15.7 -18.8,-15.57 -18.24,-15.38 -17.68,-15.15 -17.12,-14.86 -16.56,-14.52 -16,-14.13 -15.44,-13.7 -14.87,-13.22 -14.31,-12.72 -13.75,-12.18 -13.19,-11.62 -12.63,-11.05 -12.07,-10.47 -11.51,-9.89 -10.94,-9.31 -10.38,-8.74 -9.82,-8.19 -9.26,-7.65 -8.7,-7.13 -8.14,-6.64 -7.58,-6.16 -7.02,-5.7 -6.45,-5.26 -5.89,-4.84 -5.33,-4.42 -4.77,-4.02 -4.21,-3.62 -3.65,-3.23 -3.09,-2.84 -2.53,-2.46 -1.96,-2.07 -1.4,-1.68 -0.84,-1.29 -0.28,-0.89 0.28,-0.49 0.84,-0.09 1.4,0.31 1.96,0.71 2.53,1.12 3.09,1.53 3.65,1.94 4.21,2.34 4.77,2.75 5.33,3.14 5.89,3.53 6.45,3.91 7.02,4.28 7.58,4.65 8.14,4.99 8.7,5.33 9.26,5.65 9.82,5.96 10.38,6.26 10.94,6.53 11.51,6.79 12.07,7.04 12.63,7.27 13.19,7.47 13.75,7.67 14.31,7.84 14.87,8 15.44,8.14 16,8.27 16.56,8.39 17.12,8.49 17.68,8.58 18.24,8.67 18.8,8.74 19.36,8.81 19.93,8.86 20.49,8.91 21.05,8.95 21.61,8.97 22.17,8.99 22.73,9.01 23.29,9.01 23.85,9.01 24.42,9.01 24.98,9 25.54,9 26.1,8.99 26.66,8.99 27.22,9 27.78,9.01 28.34,9.03 28.91,9.06 29.47,9.09 30.03,9.12 30.59,9.16 31.15,9.2 31.71,9.24 32.27,9.28 32.83,9.32 33.4,9.35 33.96,9.38 34.52,9.4 35.08,9.41 35.64,9.43 36.2,9.43 36.76,9.44 37.32,9.45 37.89,9.46 38.45,9.48 39.01,9.5 39.57,9.52 40.13,9.56 40.69,9.59 41.25,9.64 41.82,9.69 42.38,9.74 42.94,9.79 43.5,9.85 44.06,9.9 44.62,9.95 45.18,10 45.74,10.04 46.31,10.09 46.87,10.12 47.43,10.15 47.99,10.18 48.55,10.2 49.11,10.22 49.67,10.23 50.23,10.25 50.8,10.26 51.36,10.27 51.92,10.28 52.48,10.28 53.04,10.29 53.6,10.3 54.16,10.31 54.72,10.31 55.29,10.32 55.85,10.33 56.41,10.34 56.97,10.35 57.53,10.36 58.09,10.38 58.65,10.39 59.21,10.4 59.78,10.41 60.34,10.42 60.9,10.43 61.46,10.44 62.02,10.44 62.58,10.45 63.14,10.45 63.7,10.46 64.27,10.46 64.83,10.46 65.39,10.47 65.95,10.47 66.51,10.47 67.07,10.47 67.63,10.47 68.2,10.47 68.76,10.47 69.32,10.47 69.88,10.47 70.44,10.47 71,10.47 71.56,10.47 " class="primitive"/>
          </g>
          <g transform="translate(77.8,87.28)" id="img-caeb64e2-39" stroke-dasharray="none" stroke="#4169E1" class="color_Area_2:_2x2">
            <path fill="none" d="M-65.52,11.43 L-65.01,11.43 -64.5,11.43 -63.98,11.41 -63.47,11.39 -62.96,11.33 -62.44,11.23 -61.93,11.06 -61.41,10.75 -60.9,10.25 -60.39,9.46 -59.87,8.29 -59.36,6.63 -58.84,4.39 -58.33,1.48 -57.82,-2.11 -57.3,-6.34 -56.79,-11.1 -56.27,-16.22 -55.76,-21.47 -55.25,-26.62 -54.73,-31.45 -54.22,-35.8 -53.7,-39.54 -53.19,-42.63 -52.68,-45.08 -52.16,-46.95 -51.65,-48.33 -51.14,-49.31 -50.62,-50 -50.11,-50.46 -49.59,-50.77 -49.08,-50.98 -48.57,-51.12 -48.05,-51.2 -47.54,-51.21 -47.02,-51.13 -46.51,-50.94 -46,-50.61 -45.48,-50.12 -44.97,-49.47 -44.45,-48.66 -43.94,-47.73 -43.43,-46.72 -42.91,-45.68 -42.4,-44.66 -41.88,-43.71 -41.37,-42.85 -40.86,-42.08 -40.34,-41.39 -39.83,-40.71 -39.31,-39.99 -38.8,-39.15 -38.29,-38.14 -37.77,-36.9 -37.26,-35.39 -36.75,-33.62 -36.23,-31.59 -35.72,-29.34 -35.2,-26.93 -34.69,-24.41 -34.18,-21.86 -33.66,-19.34 -33.15,-16.91 -32.63,-14.63 -32.12,-12.54 -31.61,-10.67 -31.09,-9.03 -30.58,-7.64 -30.06,-6.46 -29.55,-5.49 -29.04,-4.67 -28.52,-3.98 -28.01,-3.36 -27.49,-2.77 -26.98,-2.17 -26.47,-1.53 -25.95,-0.83 -25.44,-0.06 -24.93,0.78 -24.41,1.65 -23.9,2.54 -23.38,3.41 -22.87,4.23 -22.36,4.98 -21.84,5.63 -21.33,6.18 -20.81,6.64 -20.3,7 -19.79,7.29 -19.27,7.51 -18.76,7.67 -18.24,7.79 -17.73,7.89 -17.22,7.96 -16.7,8.02 -16.19,8.06 -15.67,8.1 -15.16,8.13 -14.65,8.16 -14.13,8.2 -13.62,8.25 -13.1,8.31 -12.59,8.39 -12.08,8.49 -11.56,8.61 -11.05,8.75 -10.54,8.91 -10.02,9.08 -9.51,9.25 -8.99,9.42 -8.48,9.59 -7.97,9.74 -7.45,9.88 -6.94,9.99 -6.42,10.08 -5.91,10.14 -5.4,10.17 -4.88,10.17 -4.37,10.15 -3.85,10.13 -3.34,10.11 -2.83,10.1 -2.31,10.11 -1.8,10.14 -1.28,10.18 -0.77,10.22 -0.26,10.26 0.26,10.27 0.77,10.26 1.28,10.2 1.8,10.11 2.31,9.98 2.83,9.85 3.34,9.72 3.85,9.62 4.37,9.57 4.88,9.58 5.4,9.64 5.91,9.74 6.42,9.87 6.94,10.01 7.45,10.14 7.97,10.24 8.48,10.32 8.99,10.38 9.51,10.41 10.02,10.44 10.54,10.46 11.05,10.5 11.56,10.55 12.08,10.62 12.59,10.7 13.1,10.79 13.62,10.88 14.13,10.96 14.65,11.03 15.16,11.09 15.67,11.12 16.19,11.13 16.7,11.13 17.22,11.11 17.73,11.09 18.24,11.08 18.76,11.07 19.27,11.08 19.79,11.1 20.3,11.13 20.81,11.17 21.33,11.21 21.84,11.24 22.36,11.27 22.87,11.28 23.38,11.27 23.9,11.25 24.41,11.22 24.93,11.19 25.44,11.15 25.95,11.11 26.47,11.09 26.98,11.08 27.49,11.08 28.01,11.11 28.52,11.14 29.04,11.18 29.55,11.23 30.06,11.28 30.58,11.32 31.09,11.35 31.61,11.38 32.12,11.4 32.63,11.41 33.15,11.42 33.66,11.43 34.18,11.43 34.69,11.43 35.2,11.44 35.72,11.44 36.23,11.44 36.75,11.44 37.26,11.44 37.77,11.44 38.29,11.44 38.8,11.44 39.31,11.44 39.83,11.44 40.34,11.44 40.86,11.44 41.37,11.44 41.88,11.44 42.4,11.44 42.91,11.44 43.43,11.44 43.94,11.44 44.45,11.44 44.97,11.44 45.48,11.44 46,11.44 46.51,11.44 47.02,11.44 47.54,11.44 48.05,11.44 48.57,11.43 49.08,11.43 49.59,11.43 50.11,11.42 50.62,11.41 51.14,11.4 51.65,11.38 52.16,11.35 52.68,11.32 53.19,11.28 53.7,11.23 54.22,11.18 54.73,11.14 55.25,11.11 55.76,11.08 56.27,11.08 56.79,11.09 57.3,11.12 57.82,11.16 58.33,11.2 58.84,11.25 59.36,11.29 59.87,11.33 60.39,11.37 60.9,11.39 61.41,11.41 61.93,11.42 62.44,11.43 62.96,11.43 63.47,11.43 63.98,11.43 64.5,11.44 65.01,11.44 65.52,11.44 " class="primitive"/>
          </g>
          <g transform="translate(93.03,89.63)" id="img-caeb64e2-40" stroke-dasharray="none" stroke="#00CD66" class="color_Area_4">
            <path fill="none" d="M-82.51,9.08 L-81.87,9.08 -81.22,9.07 -80.57,9.06 -79.92,9.03 -79.28,8.98 -78.63,8.88 -77.98,8.69 -77.34,8.37 -76.69,7.84 -76.04,7 -75.39,5.77 -74.75,4.05 -74.1,1.75 -73.45,-1.15 -72.81,-4.63 -72.16,-8.59 -71.51,-12.87 -70.86,-17.26 -70.22,-21.55 -69.57,-25.52 -68.92,-29.02 -68.27,-31.97 -67.63,-34.33 -66.98,-36.14 -66.33,-37.46 -65.69,-38.39 -65.04,-39.01 -64.39,-39.4 -63.74,-39.62 -63.1,-39.69 -62.45,-39.63 -61.8,-39.45 -61.16,-39.15 -60.51,-38.74 -59.86,-38.25 -59.21,-37.72 -58.57,-37.21 -57.92,-36.77 -57.27,-36.46 -56.63,-36.3 -55.98,-36.31 -55.33,-36.45 -54.68,-36.68 -54.04,-36.92 -53.39,-37.1 -52.74,-37.15 -52.1,-37.02 -51.45,-36.68 -50.8,-36.1 -50.15,-35.28 -49.51,-34.23 -48.86,-32.96 -48.21,-31.5 -47.57,-29.86 -46.92,-28.06 -46.27,-26.13 -45.62,-24.11 -44.98,-22.04 -44.33,-19.96 -43.68,-17.92 -43.04,-15.96 -42.39,-14.12 -41.74,-12.43 -41.09,-10.9 -40.45,-9.52 -39.8,-8.27 -39.15,-7.15 -38.51,-6.1 -37.86,-5.12 -37.21,-4.18 -36.56,-3.28 -35.92,-2.42 -35.27,-1.6 -34.62,-0.82 -33.98,-0.09 -33.33,0.6 -32.68,1.23 -32.03,1.8 -31.39,2.3 -30.74,2.72 -30.09,3.06 -29.45,3.33 -28.8,3.55 -28.15,3.73 -27.5,3.88 -26.86,4.03 -26.21,4.18 -25.56,4.34 -24.92,4.51 -24.27,4.7 -23.62,4.9 -22.97,5.11 -22.33,5.34 -21.68,5.59 -21.03,5.84 -20.39,6.09 -19.74,6.34 -19.09,6.58 -18.44,6.8 -17.8,7 -17.15,7.18 -16.5,7.32 -15.86,7.43 -15.21,7.51 -14.56,7.55 -13.91,7.57 -13.27,7.57 -12.62,7.56 -11.97,7.55 -11.33,7.55 -10.68,7.57 -10.03,7.61 -9.38,7.68 -8.74,7.77 -8.09,7.88 -7.44,8.01 -6.8,8.14 -6.15,8.28 -5.5,8.41 -4.85,8.53 -4.21,8.63 -3.56,8.71 -2.91,8.76 -2.27,8.8 -1.62,8.81 -0.97,8.82 -0.32,8.82 0.32,8.82 0.97,8.82 1.62,8.82 2.27,8.83 2.91,8.84 3.56,8.85 4.21,8.85 4.85,8.84 5.5,8.84 6.15,8.83 6.8,8.82 7.44,8.82 8.09,8.82 8.74,8.83 9.38,8.84 10.03,8.85 10.68,8.86 11.33,8.85 11.97,8.85 12.62,8.83 13.27,8.82 13.91,8.81 14.56,8.8 15.21,8.8 15.86,8.8 16.5,8.8 17.15,8.8 17.8,8.8 18.44,8.8 19.09,8.8 19.74,8.8 20.39,8.8 21.03,8.8 21.68,8.81 22.33,8.8 22.97,8.78 23.62,8.76 24.27,8.72 24.92,8.68 25.56,8.64 26.21,8.61 26.86,8.6 27.5,8.61 28.15,8.65 28.8,8.7 29.45,8.76 30.09,8.83 30.74,8.89 31.39,8.95 32.03,8.99 32.68,9.02 33.33,9.05 33.98,9.06 34.62,9.07 35.27,9.08 35.92,9.08 36.56,9.08 37.21,9.08 37.86,9.08 38.51,9.08 39.15,9.08 39.8,9.08 40.45,9.08 41.09,9.08 41.74,9.07 42.39,9.06 43.04,9.05 43.68,9.03 44.33,9.01 44.98,8.98 45.62,8.95 46.27,8.92 46.92,8.89 47.57,8.86 48.21,8.85 48.86,8.85 49.51,8.86 50.15,8.88 50.8,8.91 51.45,8.94 52.1,8.97 52.74,9 53.39,9.03 54.04,9.05 54.68,9.06 55.33,9.07 55.98,9.07 56.63,9.08 57.27,9.08 57.92,9.08 58.57,9.08 59.21,9.08 59.86,9.08 60.51,9.08 61.16,9.08 61.8,9.08 62.45,9.08 63.1,9.08 63.74,9.07 64.39,9.06 65.04,9.05 65.69,9.02 66.33,8.99 66.98,8.94 67.63,8.89 68.27,8.83 68.92,8.76 69.57,8.7 70.22,8.65 70.86,8.62 71.51,8.61 72.16,8.63 72.81,8.67 73.45,8.73 74.1,8.79 74.75,8.86 75.39,8.92 76.04,8.97 76.69,9.01 77.34,9.03 77.98,9.05 78.63,9.07 79.28,9.07 79.92,9.08 80.57,9.08 81.22,9.08 81.87,9.08 82.51,9.08 " class="primitive"/>
          </g>
          <g transform="translate(48.03,76.44)" id="img-caeb64e2-41" stroke-dasharray="none" stroke="#404040" class="color_Area_2:_4x4">
            <path fill="none" d="M-33.65,22.27 L-33.38,22.27 -33.12,22.26 -32.85,22.26 -32.59,22.25 -32.33,22.24 -32.06,22.21 -31.8,22.18 -31.54,22.12 -31.27,22.03 -31.01,21.9 -30.74,21.72 -30.48,21.45 -30.22,21.08 -29.95,20.58 -29.69,19.91 -29.42,19.03 -29.16,17.91 -28.9,16.51 -28.63,14.78 -28.37,12.7 -28.1,10.25 -27.84,7.43 -27.58,4.23 -27.31,0.69 -27.05,-3.15 -26.79,-7.24 -26.52,-11.5 -26.26,-15.85 -25.99,-20.21 -25.73,-24.49 -25.47,-28.61 -25.2,-32.51 -24.94,-36.12 -24.67,-39.41 -24.41,-42.35 -24.15,-44.94 -23.88,-47.18 -23.62,-49.09 -23.35,-50.69 -23.09,-52.03 -22.83,-53.12 -22.56,-54.01 -22.3,-54.73 -22.04,-55.3 -21.77,-55.76 -21.51,-56.11 -21.24,-56.38 -20.98,-56.58 -20.72,-56.73 -20.45,-56.84 -20.19,-56.93 -19.92,-56.99 -19.66,-57.05 -19.4,-57.1 -19.13,-57.16 -18.87,-57.23 -18.6,-57.31 -18.34,-57.39 -18.08,-57.47 -17.81,-57.54 -17.55,-57.6 -17.29,-57.62 -17.02,-57.59 -16.76,-57.5 -16.49,-57.33 -16.23,-57.06 -15.97,-56.68 -15.7,-56.18 -15.44,-55.55 -15.17,-54.78 -14.91,-53.87 -14.65,-52.82 -14.38,-51.65 -14.12,-50.35 -13.85,-48.97 -13.59,-47.5 -13.33,-45.98 -13.06,-44.44 -12.8,-42.89 -12.54,-41.37 -12.27,-39.89 -12.01,-38.47 -11.74,-37.12 -11.48,-35.84 -11.22,-34.63 -10.95,-33.47 -10.69,-32.36 -10.42,-31.26 -10.16,-30.15 -9.9,-29.02 -9.63,-27.84 -9.37,-26.6 -9.1,-25.28 -8.84,-23.89 -8.58,-22.42 -8.31,-20.89 -8.05,-19.31 -7.78,-17.7 -7.52,-16.09 -7.26,-14.48 -6.99,-12.91 -6.73,-11.39 -6.47,-9.92 -6.2,-8.5 -5.94,-7.15 -5.67,-5.84 -5.41,-4.59 -5.15,-3.36 -4.88,-2.16 -4.62,-0.98 -4.35,0.2 -4.09,1.37 -3.83,2.54 -3.56,3.7 -3.3,4.85 -3.03,5.99 -2.77,7.1 -2.51,8.17 -2.24,9.19 -1.98,10.16 -1.72,11.07 -1.45,11.91 -1.19,12.67 -0.92,13.36 -0.66,13.98 -0.4,14.52 -0.13,14.98 0.13,15.39 0.4,15.73 0.66,16.03 0.92,16.29 1.19,16.52 1.45,16.73 1.72,16.94 1.98,17.15 2.24,17.38 2.51,17.61 2.77,17.87 3.03,18.14 3.3,18.43 3.56,18.73 3.83,19.03 4.09,19.33 4.35,19.63 4.62,19.91 4.88,20.17 5.15,20.41 5.41,20.62 5.67,20.79 5.94,20.94 6.2,21.06 6.47,21.15 6.73,21.21 6.99,21.25 7.26,21.28 7.52,21.29 7.78,21.29 8.05,21.28 8.31,21.26 8.58,21.24 8.84,21.21 9.1,21.18 9.37,21.16 9.63,21.13 9.9,21.1 10.16,21.07 10.42,21.05 10.69,21.03 10.95,21.02 11.22,21.01 11.48,21.01 11.74,21.02 12.01,21.04 12.27,21.06 12.54,21.08 12.8,21.12 13.06,21.15 13.33,21.19 13.59,21.23 13.85,21.27 14.12,21.32 14.38,21.38 14.65,21.43 14.91,21.49 15.17,21.56 15.44,21.62 15.7,21.69 15.97,21.76 16.23,21.83 16.49,21.9 16.76,21.96 17.02,22.01 17.29,22.06 17.55,22.11 17.81,22.14 18.08,22.17 18.34,22.2 18.6,22.22 18.87,22.23 19.13,22.24 19.4,22.25 19.66,22.26 19.92,22.26 20.19,22.26 20.45,22.27 20.72,22.27 20.98,22.26 21.24,22.26 21.51,22.26 21.77,22.25 22.04,22.24 22.3,22.23 22.56,22.21 22.83,22.19 23.09,22.16 23.35,22.13 23.62,22.09 23.88,22.05 24.15,22 24.41,21.95 24.67,21.9 24.94,21.85 25.2,21.8 25.47,21.76 25.73,21.72 25.99,21.7 26.26,21.69 26.52,21.69 26.79,21.7 27.05,21.72 27.31,21.76 27.58,21.8 27.84,21.84 28.1,21.89 28.37,21.95 28.63,22 28.9,22.04 29.16,22.09 29.42,22.13 29.69,22.16 29.95,22.19 30.22,22.21 30.48,22.22 30.74,22.24 31.01,22.25 31.27,22.26 31.54,22.26 31.8,22.26 32.06,22.27 32.33,22.27 32.59,22.27 32.85,22.27 33.12,22.27 33.38,22.27 33.65,22.27 " class="primitive"/>
          </g>
        </g>
      </g>
    </g>
  </g>
  <g class="guide ylabels" font-size="2.82" font-family="'PT Sans Caption','Helvetica Neue','Helvetica',sans-serif" fill="#6C606B" id="img-caeb64e2-42">
    <g transform="translate(18.63,98.71)" id="img-caeb64e2-43">
      <g class="primitive">
        <text text-anchor="end" dy="0.35em">0</text>
      </g>
    </g>
    <g transform="translate(18.63,75.79)" id="img-caeb64e2-44">
      <g class="primitive">
        <text text-anchor="end" dy="0.35em">50</text>
      </g>
    </g>
    <g transform="translate(18.63,52.86)" id="img-caeb64e2-45">
      <g class="primitive">
        <text text-anchor="end" dy="0.35em">100</text>
      </g>
    </g>
    <g transform="translate(18.63,29.93)" id="img-caeb64e2-46">
      <g class="primitive">
        <text text-anchor="end" dy="0.35em">150</text>
      </g>
    </g>
    <g transform="translate(18.63,7)" id="img-caeb64e2-47">
      <g class="primitive">
        <text text-anchor="end" dy="0.35em">200</text>
      </g>
    </g>
  </g>
  <g font-size="3.88" font-family="'PT Sans','Helvetica Neue','Helvetica',sans-serif" fill="#564A55" stroke="#000000" stroke-opacity="0.000" id="img-caeb64e2-48">
    <g transform="translate(8.81,50.86)" id="img-caeb64e2-49">
      <g class="primitive">
        <text text-anchor="middle" dy="0.35em" transform="rotate(-90,0, 2)">Density</text>
      </g>
    </g>
  </g>
</g>
<defs>
  <clipPath id="img-caeb64e2-19">
    <path d="M19.63,5 L177.54,5 177.54,100.72 19.63,100.72 " />
  </clipPath>
</defs>
</svg>
