<?xml version="1.0" encoding="UTF-8"?>
<svg xmlns="http://www.w3.org/2000/svg"
     xmlns:xlink="http://www.w3.org/1999/xlink"
     xmlns:gadfly="http://www.gadflyjl.org/ns"
     version="1.2"
     width="200mm" height="120mm" viewBox="0 0 200 120"
     stroke="none"
     fill="#000000"
     stroke-width="0.3"
     font-size="3.88"
>
<defs>
  <marker id="arrow" markerWidth="15" markerHeight="7" refX="5" refY="3.5" orient="auto" markerUnits="strokeWidth">
    <path d="M0,0 L15,3.5 L0,7 z" stroke="context-stroke" fill="context-stroke"/>
  </marker>
</defs>
<g class="plotroot xscalable yscalable" id="img-82fca94c-1">
  <g font-size="3.53" font-family="CMU Serif" fill="#564A55" stroke="#000000" stroke-opacity="0.000" id="img-82fca94c-2">
    <g transform="translate(101.79,108.71)">
      <g class="primitive">
        <text text-anchor="middle" dy="0.6em">Proper Motion Declination (mas/yr)</text>
      </g>
    </g>
  </g>
  <g class="guide xlabels" font-size="3.53" font-family="CMU Serif" fill="#6C606B" id="img-82fca94c-3">
    <g transform="translate(25.11,101.42)">
      <g class="primitive">
        <text text-anchor="middle" dy="0.6em">-500</text>
      </g>
    </g>
    <g transform="translate(63.45,101.42)">
      <g class="primitive">
        <text text-anchor="middle" dy="0.6em">0</text>
      </g>
    </g>
    <g transform="translate(101.79,101.42)">
      <g class="primitive">
        <text text-anchor="middle" dy="0.6em">500</text>
      </g>
    </g>
    <g transform="translate(140.14,101.42)">
      <g class="primitive">
        <text text-anchor="middle" dy="0.6em">1000</text>
      </g>
    </g>
    <g transform="translate(178.48,101.42)">
      <g class="primitive">
        <text text-anchor="middle" dy="0.6em">1500</text>
      </g>
    </g>
  </g>
  <g class="guide colorkey" id="img-82fca94c-4">
    <g fill="#4C404B" font-size="3.53" font-family="CMU Serif" id="img-82fca94c-5">
      <g transform="translate(184.62,48.42)" id="img-82fca94c-6" class="color_Area_1">
        <g class="primitive">
          <text dy="0.35em">Area 1</text>
        </g>
      </g>
      <g transform="translate(184.62,52.71)" id="img-82fca94c-7" class="color_Area_2">
        <g class="primitive">
          <text dy="0.35em">Area 2</text>
        </g>
      </g>
      <g transform="translate(184.62,57)" id="img-82fca94c-8" class="color_Area_3">
        <g class="primitive">
          <text dy="0.35em">Area 3</text>
        </g>
      </g>
      <g transform="translate(184.62,61.29)" id="img-82fca94c-9" class="color_Area_4">
        <g class="primitive">
          <text dy="0.35em">Area 4</text>
        </g>
      </g>
    </g>
    <g fill-opacity="1" id="img-82fca94c-10">
      <g transform="translate(182.55,48.42)" id="img-82fca94c-11" stroke="#FFFFFF" class="color_Area_1" fill="#FF6347">
        <path d="M-1.07,-1.07 L1.07,-1.07 1.07,1.07 -1.07,1.07  z" class="primitive"/>
      </g>
      <g transform="translate(182.55,52.71)" id="img-82fca94c-12" stroke="#FFFFFF" class="color_Area_2" fill="#4169E1">
        <path d="M-1.07,-1.07 L1.07,-1.07 1.07,1.07 -1.07,1.07  z" class="primitive"/>
      </g>
      <g transform="translate(182.55,57)" id="img-82fca94c-13" stroke="#FFFFFF" class="color_Area_3" fill="#B23AEE">
        <path d="M-1.07,-1.07 L1.07,-1.07 1.07,1.07 -1.07,1.07  z" class="primitive"/>
      </g>
      <g transform="translate(182.55,61.29)" id="img-82fca94c-14" stroke="#FFFFFF" class="color_Area_4" fill="#00CD66">
        <path d="M-1.07,-1.07 L1.07,-1.07 1.07,1.07 -1.07,1.07  z" class="primitive"/>
      </g>
    </g>
    <g fill="#362A35" font-size="4.23" font-family="CMU Serif" stroke="#000000" stroke-opacity="0.000" id="img-82fca94c-15">
      <g transform="translate(181.48,44.1)" id="img-82fca94c-16">
        <g class="primitive">
          <text dy="-0em">Area</text>
        </g>
      </g>
    </g>
  </g>
  <g clip-path="url(#img-82fca94c-17)">
    <g id="img-82fca94c-18">
      <g pointer-events="visible" stroke-width="0.3" fill="#000000" fill-opacity="0.000" stroke="#000000" stroke-opacity="0.000" class="guide background" id="img-82fca94c-19">
        <g transform="translate(101.79,52.71)" id="img-82fca94c-20">
          <path d="M-78.69,-47.71 L78.69,-47.71 78.69,47.71 -78.69,47.71  z" class="primitive"/>
        </g>
      </g>
      <g class="guide ygridlines xfixed" stroke-dasharray="0.5,0.5" stroke-width="0.2" stroke="#D0D0E0" id="img-82fca94c-21">
        <g transform="translate(101.79,98.42)" id="img-82fca94c-22">
          <path fill="none" d="M-78.69,0 L78.69,0 " class="primitive"/>
        </g>
        <g transform="translate(101.79,67.94)" id="img-82fca94c-23">
          <path fill="none" d="M-78.69,0 L78.69,0 " class="primitive"/>
        </g>
        <g transform="translate(101.79,37.47)" id="img-82fca94c-24">
          <path fill="none" d="M-78.69,0 L78.69,0 " class="primitive"/>
        </g>
        <g transform="translate(101.79,7)" id="img-82fca94c-25">
          <path fill="none" d="M-78.69,0 L78.69,0 " class="primitive"/>
        </g>
      </g>
      <g class="guide xgridlines yfixed" stroke-dasharray="0.5,0.5" stroke-width="0.2" stroke="#D0D0E0" id="img-82fca94c-26">
        <g transform="translate(25.11,52.71)" id="img-82fca94c-27">
          <path fill="none" d="M0,-47.71 L0,47.71 " class="primitive"/>
        </g>
        <g transform="translate(63.45,52.71)" id="img-82fca94c-28">
          <path fill="none" d="M0,-47.71 L0,47.71 " class="primitive"/>
        </g>
        <g transform="translate(101.79,52.71)" id="img-82fca94c-29">
          <path fill="none" d="M0,-47.71 L0,47.71 " class="primitive"/>
        </g>
        <g transform="translate(140.14,52.71)" id="img-82fca94c-30">
          <path fill="none" d="M0,-47.71 L0,47.71 " class="primitive"/>
        </g>
        <g transform="translate(178.48,52.71)" id="img-82fca94c-31">
          <path fill="none" d="M0,-47.71 L0,47.71 " class="primitive"/>
        </g>
      </g>
      <g class="plotpanel" id="img-82fca94c-32">
        <metadata>
          <boundingbox value="23.10833333333332mm 5.0mm 157.37083333333334mm 95.41666666666667mm"/>
          <unitbox value="-526.0805781194816 0.0153281677301732 2052.1611562389635 -0.015656335460346397"/>
        </metadata>
        <g stroke-width="0.3" fill="#000000" fill-opacity="0.000" class="geometry" id="img-82fca94c-33">
          <g transform="translate(112.74,94.2)" id="img-82fca94c-34" stroke-dasharray="none" stroke="#FF6347" class="color_Area_1">
            <path fill="none" d="M-55.18,4.22 L-54.75,4.22 -54.32,4.22 -53.89,4.21 -53.45,4.21 -53.02,4.18 -52.59,4.1 -52.15,3.9 -51.72,3.47 -51.29,2.61 -50.86,1.1 -50.42,-1.27 -49.99,-4.53 -49.56,-8.52 -49.12,-12.82 -48.69,-16.93 -48.26,-20.38 -47.83,-22.95 -47.39,-24.63 -46.96,-25.61 -46.53,-26.11 -46.1,-26.33 -45.66,-26.42 -45.23,-26.45 -44.8,-26.46 -44.36,-26.46 -43.93,-26.45 -43.5,-26.44 -43.07,-26.41 -42.63,-26.36 -42.2,-26.27 -41.77,-26.11 -41.33,-25.84 -40.9,-25.4 -40.47,-24.76 -40.04,-23.9 -39.6,-22.85 -39.17,-21.64 -38.74,-20.34 -38.3,-18.99 -37.87,-17.65 -37.44,-16.36 -37.01,-15.13 -36.57,-13.97 -36.14,-12.86 -35.71,-11.77 -35.27,-10.69 -34.84,-9.6 -34.41,-8.54 -33.98,-7.52 -33.54,-6.58 -33.11,-5.73 -32.68,-4.96 -32.24,-4.28 -31.81,-3.66 -31.38,-3.1 -30.95,-2.58 -30.51,-2.08 -30.08,-1.61 -29.65,-1.17 -29.22,-0.77 -28.78,-0.42 -28.35,-0.11 -27.92,0.19 -27.48,0.49 -27.05,0.8 -26.62,1.1 -26.19,1.37 -25.75,1.6 -25.32,1.79 -24.89,1.96 -24.45,2.12 -24.02,2.28 -23.59,2.44 -23.16,2.59 -22.72,2.72 -22.29,2.81 -21.86,2.89 -21.42,2.95 -20.99,3.01 -20.56,3.08 -20.13,3.16 -19.69,3.26 -19.26,3.39 -18.83,3.53 -18.39,3.67 -17.96,3.79 -17.53,3.88 -17.1,3.94 -16.66,3.98 -16.23,4.01 -15.8,4.03 -15.37,4.05 -14.93,4.07 -14.5,4.07 -14.07,4.05 -13.63,4 -13.2,3.93 -12.77,3.85 -12.34,3.79 -11.9,3.75 -11.47,3.74 -11.04,3.76 -10.6,3.8 -10.17,3.85 -9.74,3.9 -9.31,3.95 -8.87,3.99 -8.44,4.02 -8.01,4.04 -7.57,4.05 -7.14,4.05 -6.71,4.05 -6.28,4.06 -5.84,4.08 -5.41,4.11 -4.98,4.14 -4.54,4.17 -4.11,4.19 -3.68,4.2 -3.25,4.2 -2.81,4.19 -2.38,4.18 -1.95,4.16 -1.51,4.15 -1.08,4.14 -0.65,4.14 -0.22,4.15 0.22,4.17 0.65,4.18 1.08,4.19 1.51,4.19 1.95,4.18 2.38,4.16 2.81,4.13 3.25,4.09 3.68,4.06 4.11,4.04 4.54,4.03 4.98,4.04 5.41,4.06 5.84,4.08 6.28,4.11 6.71,4.14 7.14,4.16 7.57,4.18 8.01,4.2 8.44,4.21 8.87,4.21 9.31,4.22 9.74,4.22 10.17,4.22 10.6,4.22 11.04,4.22 11.47,4.22 11.9,4.22 12.34,4.22 12.77,4.22 13.2,4.22 13.63,4.22 14.07,4.22 14.5,4.22 14.93,4.22 15.37,4.21 15.8,4.21 16.23,4.2 16.66,4.19 17.1,4.17 17.53,4.16 17.96,4.14 18.39,4.14 18.83,4.15 19.26,4.16 19.69,4.17 20.13,4.19 20.56,4.2 20.99,4.21 21.42,4.21 21.86,4.21 22.29,4.2 22.72,4.19 23.16,4.17 23.59,4.16 24.02,4.14 24.45,4.14 24.89,4.15 25.32,4.16 25.75,4.18 26.19,4.19 26.62,4.2 27.05,4.21 27.48,4.21 27.92,4.22 28.35,4.22 28.78,4.22 29.22,4.22 29.65,4.22 30.08,4.22 30.51,4.22 30.95,4.22 31.38,4.22 31.81,4.22 32.24,4.22 32.68,4.22 33.11,4.22 33.54,4.22 33.98,4.22 34.41,4.22 34.84,4.22 35.27,4.22 35.71,4.22 36.14,4.22 36.57,4.22 37.01,4.22 37.44,4.22 37.87,4.22 38.3,4.22 38.74,4.22 39.17,4.22 39.6,4.22 40.04,4.22 40.47,4.22 40.9,4.22 41.33,4.22 41.77,4.22 42.2,4.22 42.63,4.22 43.07,4.22 43.5,4.22 43.93,4.22 44.36,4.22 44.8,4.22 45.23,4.22 45.66,4.22 46.1,4.22 46.53,4.22 46.96,4.22 47.39,4.21 47.83,4.21 48.26,4.2 48.69,4.19 49.12,4.17 49.56,4.16 49.99,4.14 50.42,4.14 50.86,4.15 51.29,4.16 51.72,4.18 52.15,4.19 52.59,4.2 53.02,4.21 53.45,4.21 53.89,4.22 54.32,4.22 54.75,4.22 55.18,4.22 " class="primitive"/>
          </g>
          <g transform="translate(110.93,94.08)" id="img-82fca94c-35" stroke-dasharray="none" stroke="#B23AEE" class="color_Area_3">
            <path fill="none" d="M-53.62,4.34 L-53.2,4.34 -52.78,4.34 -52.36,4.34 -51.94,4.33 -51.51,4.31 -51.09,4.26 -50.67,4.15 -50.25,3.89 -49.83,3.37 -49.41,2.43 -48.99,0.92 -48.57,-1.3 -48.15,-4.22 -47.73,-7.67 -47.31,-11.35 -46.89,-14.86 -46.47,-17.89 -46.05,-20.23 -45.63,-21.86 -45.21,-22.88 -44.79,-23.45 -44.37,-23.74 -43.95,-23.87 -43.52,-23.92 -43.1,-23.94 -42.68,-23.95 -42.26,-23.95 -41.84,-23.95 -41.42,-23.94 -41,-23.93 -40.58,-23.9 -40.16,-23.85 -39.74,-23.75 -39.32,-23.59 -38.9,-23.34 -38.48,-22.99 -38.06,-22.52 -37.64,-21.94 -37.22,-21.26 -36.8,-20.49 -36.38,-19.65 -35.96,-18.72 -35.53,-17.68 -35.11,-16.55 -34.69,-15.32 -34.27,-14.03 -33.85,-12.72 -33.43,-11.44 -33.01,-10.23 -32.59,-9.15 -32.17,-8.21 -31.75,-7.42 -31.33,-6.75 -30.91,-6.15 -30.49,-5.57 -30.07,-4.98 -29.65,-4.36 -29.23,-3.75 -28.81,-3.16 -28.39,-2.64 -27.97,-2.18 -27.54,-1.81 -27.12,-1.49 -26.7,-1.19 -26.28,-0.87 -25.86,-0.5 -25.44,-0.08 -25.02,0.37 -24.6,0.83 -24.18,1.25 -23.76,1.61 -23.34,1.88 -22.92,2.06 -22.5,2.18 -22.08,2.26 -21.66,2.32 -21.24,2.37 -20.82,2.43 -20.4,2.51 -19.98,2.59 -19.55,2.69 -19.13,2.82 -18.71,2.96 -18.29,3.13 -17.87,3.29 -17.45,3.43 -17.03,3.52 -16.61,3.56 -16.19,3.56 -15.77,3.52 -15.35,3.47 -14.93,3.43 -14.51,3.42 -14.09,3.44 -13.67,3.48 -13.25,3.54 -12.83,3.61 -12.41,3.68 -11.99,3.74 -11.56,3.78 -11.14,3.8 -10.72,3.8 -10.3,3.79 -9.88,3.79 -9.46,3.8 -9.04,3.84 -8.62,3.91 -8.2,3.99 -7.78,4.07 -7.36,4.14 -6.94,4.19 -6.52,4.22 -6.1,4.24 -5.68,4.25 -5.26,4.25 -4.84,4.25 -4.42,4.23 -4,4.21 -3.57,4.19 -3.15,4.16 -2.73,4.13 -2.31,4.11 -1.89,4.1 -1.47,4.08 -1.05,4.06 -0.63,4.03 -0.21,3.98 0.21,3.93 0.63,3.89 1.05,3.86 1.47,3.86 1.89,3.88 2.31,3.93 2.73,4 3.15,4.08 3.57,4.15 4,4.21 4.42,4.26 4.84,4.29 5.26,4.29 5.68,4.28 6.1,4.25 6.52,4.21 6.94,4.16 7.36,4.12 7.78,4.08 8.2,4.06 8.62,4.06 9.04,4.08 9.46,4.11 9.88,4.16 10.3,4.2 10.72,4.25 11.14,4.28 11.56,4.3 11.99,4.32 12.41,4.33 12.83,4.34 13.25,4.34 13.67,4.34 14.09,4.34 14.51,4.34 14.93,4.34 15.35,4.34 15.77,4.34 16.19,4.34 16.61,4.34 17.03,4.34 17.45,4.34 17.87,4.34 18.29,4.34 18.71,4.33 19.13,4.33 19.55,4.31 19.98,4.3 20.4,4.29 20.82,4.28 21.24,4.27 21.66,4.28 22.08,4.28 22.5,4.3 22.92,4.31 23.34,4.32 23.76,4.33 24.18,4.34 24.6,4.34 25.02,4.34 25.44,4.34 25.86,4.34 26.28,4.34 26.7,4.34 27.12,4.34 27.54,4.34 27.97,4.34 28.39,4.34 28.81,4.34 29.23,4.34 29.65,4.34 30.07,4.34 30.49,4.34 30.91,4.34 31.33,4.34 31.75,4.34 32.17,4.34 32.59,4.34 33.01,4.34 33.43,4.34 33.85,4.34 34.27,4.34 34.69,4.34 35.11,4.34 35.53,4.34 35.96,4.34 36.38,4.34 36.8,4.34 37.22,4.34 37.64,4.34 38.06,4.34 38.48,4.34 38.9,4.34 39.32,4.33 39.74,4.33 40.16,4.32 40.58,4.31 41,4.29 41.42,4.28 41.84,4.28 42.26,4.27 42.68,4.28 43.1,4.29 43.52,4.3 43.95,4.32 44.37,4.33 44.79,4.33 45.21,4.34 45.63,4.33 46.05,4.33 46.47,4.32 46.89,4.31 47.31,4.3 47.73,4.29 48.15,4.28 48.57,4.27 48.99,4.28 49.41,4.29 49.83,4.3 50.25,4.31 50.67,4.32 51.09,4.33 51.51,4.34 51.94,4.34 52.36,4.34 52.78,4.34 53.2,4.34 53.62,4.34 " class="primitive"/>
          </g>
          <g transform="translate(78.68,85.56)" id="img-82fca94c-36" stroke-dasharray="none" stroke="#4169E1" class="color_Area_2">
            <path fill="none" d="M-18.1,12.86 L-17.96,12.86 -17.81,12.86 -17.67,12.86 -17.53,12.85 -17.39,12.84 -17.25,12.81 -17.1,12.75 -16.96,12.64 -16.82,12.43 -16.68,12.08 -16.54,11.5 -16.4,10.58 -16.25,9.2 -16.11,7.22 -15.97,4.52 -15.83,1.03 -15.69,-3.29 -15.54,-8.37 -15.4,-14.03 -15.26,-20.06 -15.12,-26.14 -14.98,-31.99 -14.83,-37.33 -14.69,-41.97 -14.55,-45.8 -14.41,-48.8 -14.27,-51.04 -14.12,-52.63 -13.98,-53.7 -13.84,-54.39 -13.7,-54.8 -13.56,-55.04 -13.41,-55.16 -13.27,-55.22 -13.13,-55.23 -12.99,-55.21 -12.85,-55.17 -12.7,-55.09 -12.56,-54.98 -12.42,-54.83 -12.28,-54.63 -12.14,-54.36 -11.99,-54.02 -11.85,-53.6 -11.71,-53.08 -11.57,-52.47 -11.43,-51.74 -11.28,-50.89 -11.14,-49.91 -11,-48.81 -10.86,-47.56 -10.72,-46.15 -10.58,-44.56 -10.43,-42.76 -10.29,-40.75 -10.15,-38.51 -10.01,-36.05 -9.87,-33.41 -9.72,-30.63 -9.58,-27.78 -9.44,-24.93 -9.3,-22.17 -9.16,-19.56 -9.01,-17.15 -8.87,-14.96 -8.73,-13 -8.59,-11.25 -8.45,-9.7 -8.3,-8.3 -8.16,-7.03 -8.02,-5.88 -7.88,-4.82 -7.74,-3.88 -7.59,-3.05 -7.45,-2.37 -7.31,-1.83 -7.17,-1.44 -7.03,-1.16 -6.88,-0.97 -6.74,-0.8 -6.6,-0.6 -6.46,-0.32 -6.32,0.07 -6.17,0.57 -6.03,1.18 -5.89,1.87 -5.75,2.59 -5.61,3.33 -5.47,4.03 -5.32,4.68 -5.18,5.26 -5.04,5.76 -4.9,6.17 -4.76,6.5 -4.61,6.75 -4.47,6.94 -4.33,7.09 -4.19,7.21 -4.05,7.32 -3.9,7.43 -3.76,7.56 -3.62,7.71 -3.48,7.88 -3.34,8.05 -3.19,8.22 -3.05,8.39 -2.91,8.55 -2.77,8.69 -2.63,8.83 -2.48,8.98 -2.34,9.13 -2.2,9.29 -2.06,9.45 -1.92,9.61 -1.77,9.75 -1.63,9.87 -1.49,9.96 -1.35,10.03 -1.21,10.09 -1.06,10.15 -0.92,10.22 -0.78,10.33 -0.64,10.47 -0.5,10.66 -0.35,10.87 -0.21,11.09 -0.07,11.32 0.07,11.53 0.21,11.71 0.35,11.85 0.5,11.95 0.64,12.01 0.78,12.04 0.92,12.03 1.06,12 1.21,11.95 1.35,11.91 1.49,11.88 1.63,11.87 1.77,11.89 1.92,11.93 2.06,12 2.2,12.07 2.34,12.14 2.48,12.19 2.63,12.2 2.77,12.18 2.91,12.13 3.05,12.06 3.19,11.98 3.34,11.91 3.48,11.86 3.62,11.86 3.76,11.9 3.9,11.98 4.05,12.1 4.19,12.23 4.33,12.36 4.47,12.49 4.61,12.59 4.76,12.68 4.9,12.74 5.04,12.79 5.18,12.82 5.32,12.84 5.47,12.85 5.61,12.85 5.75,12.86 5.89,12.86 6.03,12.86 6.17,12.86 6.32,12.86 6.46,12.86 6.6,12.86 6.74,12.86 6.88,12.86 7.03,12.85 7.17,12.85 7.31,12.84 7.45,12.83 7.59,12.81 7.74,12.78 7.88,12.75 8.02,12.71 8.16,12.66 8.3,12.62 8.45,12.58 8.59,12.55 8.73,12.53 8.87,12.53 9.01,12.55 9.16,12.58 9.3,12.62 9.44,12.66 9.58,12.71 9.72,12.75 9.87,12.78 10.01,12.81 10.15,12.83 10.29,12.84 10.43,12.85 10.58,12.85 10.72,12.86 10.86,12.86 11,12.86 11.14,12.86 11.28,12.86 11.43,12.86 11.57,12.86 11.71,12.86 11.85,12.86 11.99,12.86 12.14,12.86 12.28,12.86 12.42,12.86 12.56,12.86 12.7,12.86 12.85,12.86 12.99,12.86 13.13,12.86 13.27,12.86 13.41,12.86 13.56,12.85 13.7,12.84 13.84,12.82 13.98,12.79 14.12,12.75 14.27,12.69 14.41,12.6 14.55,12.5 14.69,12.38 14.83,12.25 14.98,12.12 15.12,12.01 15.26,11.92 15.4,11.88 15.54,11.89 15.69,11.94 15.83,12.04 15.97,12.16 16.11,12.29 16.25,12.42 16.4,12.53 16.54,12.63 16.68,12.71 16.82,12.76 16.96,12.8 17.1,12.83 17.25,12.84 17.39,12.85 17.53,12.86 17.67,12.86 17.81,12.86 17.96,12.86 18.1,12.86 " class="primitive"/>
          </g>
          <g transform="translate(86.58,89.53)" id="img-82fca94c-37" stroke-dasharray="none" stroke="#00CD66" class="color_Area_4">
            <path fill="none" d="M-26.19,8.88 L-25.99,8.88 -25.78,8.87 -25.58,8.85 -25.37,8.8 -25.17,8.69 -24.96,8.46 -24.76,8.02 -24.55,7.23 -24.35,5.93 -24.14,3.93 -23.93,1.06 -23.73,-2.76 -23.52,-7.47 -23.32,-12.9 -23.11,-18.71 -22.91,-24.48 -22.7,-29.82 -22.5,-34.42 -22.29,-38.09 -22.09,-40.82 -21.88,-42.71 -21.67,-43.92 -21.47,-44.65 -21.26,-45.05 -21.06,-45.26 -20.85,-45.36 -20.65,-45.4 -20.44,-45.42 -20.24,-45.41 -20.03,-45.4 -19.83,-45.37 -19.62,-45.32 -19.41,-45.23 -19.21,-45.08 -19,-44.84 -18.8,-44.48 -18.59,-43.97 -18.39,-43.28 -18.18,-42.39 -17.98,-41.28 -17.77,-39.96 -17.57,-38.46 -17.36,-36.78 -17.16,-34.94 -16.95,-32.98 -16.74,-30.88 -16.54,-28.68 -16.33,-26.41 -16.13,-24.09 -15.92,-21.8 -15.72,-19.59 -15.51,-17.52 -15.31,-15.63 -15.1,-13.94 -14.9,-12.47 -14.69,-11.2 -14.48,-10.12 -14.28,-9.2 -14.07,-8.4 -13.87,-7.67 -13.66,-6.94 -13.46,-6.18 -13.25,-5.35 -13.05,-4.44 -12.84,-3.46 -12.64,-2.47 -12.43,-1.51 -12.22,-0.64 -12.02,0.13 -11.81,0.77 -11.61,1.31 -11.4,1.79 -11.2,2.23 -10.99,2.66 -10.79,3.08 -10.58,3.48 -10.38,3.85 -10.17,4.17 -9.96,4.45 -9.76,4.69 -9.55,4.92 -9.35,5.15 -9.14,5.4 -8.94,5.68 -8.73,5.97 -8.53,6.29 -8.32,6.6 -8.12,6.88 -7.91,7.13 -7.7,7.32 -7.5,7.45 -7.29,7.52 -7.09,7.54 -6.88,7.53 -6.68,7.5 -6.47,7.47 -6.27,7.46 -6.06,7.48 -5.86,7.54 -5.65,7.61 -5.44,7.69 -5.24,7.75 -5.03,7.78 -4.83,7.79 -4.62,7.76 -4.42,7.72 -4.21,7.68 -4.01,7.65 -3.8,7.64 -3.6,7.67 -3.39,7.73 -3.18,7.81 -2.98,7.91 -2.77,8 -2.57,8.08 -2.36,8.14 -2.16,8.18 -1.95,8.2 -1.75,8.21 -1.54,8.2 -1.34,8.17 -1.13,8.12 -0.92,8.05 -0.72,7.95 -0.51,7.85 -0.31,7.74 -0.1,7.64 0.1,7.56 0.31,7.5 0.51,7.47 0.72,7.49 0.92,7.54 1.13,7.63 1.34,7.74 1.54,7.86 1.75,7.96 1.95,8.04 2.16,8.09 2.36,8.12 2.57,8.14 2.77,8.16 2.98,8.2 3.18,8.25 3.39,8.31 3.6,8.37 3.8,8.41 4.01,8.44 4.21,8.44 4.42,8.45 4.62,8.45 4.83,8.46 5.03,8.49 5.24,8.53 5.44,8.58 5.65,8.64 5.86,8.7 6.06,8.75 6.27,8.78 6.47,8.8 6.68,8.79 6.88,8.77 7.09,8.72 7.29,8.67 7.5,8.61 7.7,8.55 7.91,8.5 8.12,8.47 8.32,8.47 8.53,8.5 8.73,8.54 8.94,8.59 9.14,8.64 9.35,8.68 9.55,8.7 9.76,8.7 9.96,8.69 10.17,8.68 10.38,8.67 10.58,8.66 10.79,8.67 10.99,8.69 11.2,8.72 11.4,8.76 11.61,8.79 11.81,8.82 12.02,8.83 12.22,8.83 12.43,8.82 12.64,8.8 12.84,8.77 13.05,8.74 13.25,8.7 13.46,8.68 13.66,8.67 13.87,8.67 14.07,8.69 14.28,8.72 14.48,8.75 14.69,8.79 14.9,8.82 15.1,8.84 15.31,8.86 15.51,8.87 15.72,8.88 15.92,8.88 16.13,8.88 16.33,8.88 16.54,8.88 16.74,8.88 16.95,8.88 17.16,8.87 17.36,8.85 17.57,8.83 17.77,8.8 17.98,8.77 18.18,8.73 18.39,8.7 18.59,8.68 18.8,8.67 19,8.67 19.21,8.69 19.41,8.72 19.62,8.76 19.83,8.79 20.03,8.82 20.24,8.85 20.44,8.86 20.65,8.87 20.85,8.87 21.06,8.87 21.26,8.85 21.47,8.83 21.67,8.8 21.88,8.75 22.09,8.69 22.29,8.62 22.5,8.55 22.7,8.49 22.91,8.46 23.11,8.46 23.32,8.48 23.52,8.53 23.73,8.6 23.93,8.67 24.14,8.73 24.35,8.78 24.55,8.82 24.76,8.85 24.96,8.87 25.17,8.88 25.37,8.88 25.58,8.88 25.78,8.89 25.99,8.89 26.19,8.89 " class="primitive"/>
          </g>
        </g>
      </g>
    </g>
  </g>
  <g class="guide ylabels" font-size="3.53" font-family="CMU Serif" fill="#6C606B" id="img-82fca94c-38">
    <g transform="translate(22.11,98.42)" id="img-82fca94c-39">
      <g class="primitive">
        <text text-anchor="end" dy="0.35em">0.000</text>
      </g>
    </g>
    <g transform="translate(22.11,67.94)" id="img-82fca94c-40">
      <g class="primitive">
        <text text-anchor="end" dy="0.35em">0.005</text>
      </g>
    </g>
    <g transform="translate(22.11,37.47)" id="img-82fca94c-41">
      <g class="primitive">
        <text text-anchor="end" dy="0.35em">0.010</text>
      </g>
    </g>
    <g transform="translate(22.11,7)" id="img-82fca94c-42">
      <g class="primitive">
        <text text-anchor="end" dy="0.35em">0.015</text>
      </g>
    </g>
  </g>
  <g font-size="3.53" font-family="CMU Serif" fill="#564A55" stroke="#000000" stroke-opacity="0.000" id="img-82fca94c-43">
    <g transform="translate(8.65,50.71)" id="img-82fca94c-44">
      <g class="primitive">
        <text text-anchor="middle" dy="0.35em" transform="rotate(-90,0, 2)">Density</text>
      </g>
    </g>
  </g>
</g>
<defs>
  <clipPath id="img-82fca94c-17">
    <path d="M23.11,5 L180.48,5 180.48,100.42 23.11,100.42 " />
  </clipPath>
</defs>
</svg>
