<?xml version="1.0" encoding="UTF-8"?>
<svg xmlns="http://www.w3.org/2000/svg"
     xmlns:xlink="http://www.w3.org/1999/xlink"
     xmlns:gadfly="http://www.gadflyjl.org/ns"
     version="1.2"
     width="200mm" height="120mm" viewBox="0 0 200 120"
     stroke="none"
     fill="#000000"
     stroke-width="0.3"
     font-size="3.88"
>
<defs>
  <marker id="arrow" markerWidth="15" markerHeight="7" refX="5" refY="3.5" orient="auto" markerUnits="strokeWidth">
    <path d="M0,0 L15,3.5 L0,7 z" stroke="context-stroke" fill="context-stroke"/>
  </marker>
</defs>
<g class="plotroot xscalable yscalable" id="img-f88c7eab-1">
  <g font-size="3.53" font-family="CMU Serif" fill="#564A55" stroke="#000000" stroke-opacity="0.000" id="img-f88c7eab-2">
    <g transform="translate(101.79,108.71)">
      <g class="primitive">
        <text text-anchor="middle" dy="0.6em">Proper Motion Right Ascension (mas/yr)</text>
      </g>
    </g>
  </g>
  <g class="guide xlabels" font-size="3.53" font-family="CMU Serif" fill="#6C606B" id="img-f88c7eab-3">
    <g transform="translate(25.11,101.42)">
      <g class="primitive">
        <text text-anchor="middle" dy="0.6em">-2.00×10³</text>
      </g>
    </g>
    <g transform="translate(63.45,101.42)">
      <g class="primitive">
        <text text-anchor="middle" dy="0.6em">0</text>
      </g>
    </g>
    <g transform="translate(101.79,101.42)">
      <g class="primitive">
        <text text-anchor="middle" dy="0.6em">2.00×10³</text>
      </g>
    </g>
    <g transform="translate(140.14,101.42)">
      <g class="primitive">
        <text text-anchor="middle" dy="0.6em">4.00×10³</text>
      </g>
    </g>
    <g transform="translate(178.48,101.42)">
      <g class="primitive">
        <text text-anchor="middle" dy="0.6em">6.00×10³</text>
      </g>
    </g>
  </g>
  <g class="guide colorkey" id="img-f88c7eab-4">
    <g fill="#4C404B" font-size="3.53" font-family="CMU Serif" id="img-f88c7eab-5">
      <g transform="translate(184.62,48.42)" id="img-f88c7eab-6" class="color_Area_1">
        <g class="primitive">
          <text dy="0.35em">Area 1</text>
        </g>
      </g>
      <g transform="translate(184.62,52.71)" id="img-f88c7eab-7" class="color_Area_2">
        <g class="primitive">
          <text dy="0.35em">Area 2</text>
        </g>
      </g>
      <g transform="translate(184.62,57)" id="img-f88c7eab-8" class="color_Area_3">
        <g class="primitive">
          <text dy="0.35em">Area 3</text>
        </g>
      </g>
      <g transform="translate(184.62,61.29)" id="img-f88c7eab-9" class="color_Area_4">
        <g class="primitive">
          <text dy="0.35em">Area 4</text>
        </g>
      </g>
    </g>
    <g fill-opacity="1" id="img-f88c7eab-10">
      <g transform="translate(182.55,48.42)" id="img-f88c7eab-11" stroke="#FFFFFF" class="color_Area_1" fill="#FF6347">
        <path d="M-1.07,-1.07 L1.07,-1.07 1.07,1.07 -1.07,1.07  z" class="primitive"/>
      </g>
      <g transform="translate(182.55,52.71)" id="img-f88c7eab-12" stroke="#FFFFFF" class="color_Area_2" fill="#4169E1">
        <path d="M-1.07,-1.07 L1.07,-1.07 1.07,1.07 -1.07,1.07  z" class="primitive"/>
      </g>
      <g transform="translate(182.55,57)" id="img-f88c7eab-13" stroke="#FFFFFF" class="color_Area_3" fill="#B23AEE">
        <path d="M-1.07,-1.07 L1.07,-1.07 1.07,1.07 -1.07,1.07  z" class="primitive"/>
      </g>
      <g transform="translate(182.55,61.29)" id="img-f88c7eab-14" stroke="#FFFFFF" class="color_Area_4" fill="#00CD66">
        <path d="M-1.07,-1.07 L1.07,-1.07 1.07,1.07 -1.07,1.07  z" class="primitive"/>
      </g>
    </g>
    <g fill="#362A35" font-size="4.23" font-family="CMU Serif" stroke="#000000" stroke-opacity="0.000" id="img-f88c7eab-15">
      <g transform="translate(181.48,44.1)" id="img-f88c7eab-16">
        <g class="primitive">
          <text dy="-0em">Area</text>
        </g>
      </g>
    </g>
  </g>
  <g clip-path="url(#img-f88c7eab-17)">
    <g id="img-f88c7eab-18">
      <g pointer-events="visible" stroke-width="0.3" fill="#000000" fill-opacity="0.000" stroke="#000000" stroke-opacity="0.000" class="guide background" id="img-f88c7eab-19">
        <g transform="translate(101.79,52.71)" id="img-f88c7eab-20">
          <path d="M-78.69,-47.71 L78.69,-47.71 78.69,47.71 -78.69,47.71  z" class="primitive"/>
        </g>
      </g>
      <g class="guide ygridlines xfixed" stroke-dasharray="0.5,0.5" stroke-width="0.2" stroke="#D0D0E0" id="img-f88c7eab-21">
        <g transform="translate(101.79,98.42)" id="img-f88c7eab-22">
          <path fill="none" d="M-78.69,0 L78.69,0 " class="primitive"/>
        </g>
        <g transform="translate(101.79,52.71)" id="img-f88c7eab-23">
          <path fill="none" d="M-78.69,0 L78.69,0 " class="primitive"/>
        </g>
        <g transform="translate(101.79,7)" id="img-f88c7eab-24">
          <path fill="none" d="M-78.69,0 L78.69,0 " class="primitive"/>
        </g>
      </g>
      <g class="guide xgridlines yfixed" stroke-dasharray="0.5,0.5" stroke-width="0.2" stroke="#D0D0E0" id="img-f88c7eab-25">
        <g transform="translate(25.11,52.71)" id="img-f88c7eab-26">
          <path fill="none" d="M0,-47.71 L0,47.71 " class="primitive"/>
        </g>
        <g transform="translate(63.45,52.71)" id="img-f88c7eab-27">
          <path fill="none" d="M0,-47.71 L0,47.71 " class="primitive"/>
        </g>
        <g transform="translate(101.79,52.71)" id="img-f88c7eab-28">
          <path fill="none" d="M0,-47.71 L0,47.71 " class="primitive"/>
        </g>
        <g transform="translate(140.14,52.71)" id="img-f88c7eab-29">
          <path fill="none" d="M0,-47.71 L0,47.71 " class="primitive"/>
        </g>
        <g transform="translate(178.48,52.71)" id="img-f88c7eab-30">
          <path fill="none" d="M0,-47.71 L0,47.71 " class="primitive"/>
        </g>
      </g>
      <g class="plotpanel" id="img-f88c7eab-31">
        <metadata>
          <boundingbox value="23.10833333333332mm 5.0mm 157.37083333333334mm 95.41666666666667mm"/>
          <unitbox value="-2104.3223124779265 0.010218778486782133 8208.644624955854 -0.010437556973564266"/>
        </metadata>
        <g stroke-width="0.3" fill="#000000" fill-opacity="0.000" class="geometry" id="img-f88c7eab-32">
          <g transform="translate(101.72,96.22)" id="img-f88c7eab-33" stroke-dasharray="none" stroke="#FF6347" class="color_Area_1">
            <path fill="none" d="M-39.79,2.19 L-39.47,2.18 -39.16,1.96 -38.85,0.11 -38.54,-7.13 -38.23,-20.24 -37.91,-31.79 -37.6,-36.89 -37.29,-37.98 -36.98,-38.09 -36.67,-38.08 -36.35,-37.95 -36.04,-37.38 -35.73,-35.8 -35.42,-32.89 -35.11,-28.76 -34.79,-24 -34.48,-19.76 -34.17,-16.49 -33.86,-13.27 -33.55,-9.5 -33.23,-6.24 -32.92,-4.34 -32.61,-3.37 -32.3,-2.67 -31.98,-1.78 -31.67,-0.91 -31.36,-0.45 -31.05,-0.31 -30.74,-0.11 -30.42,0.39 -30.11,0.86 -29.8,1.09 -29.49,1.28 -29.18,1.46 -28.86,1.57 -28.55,1.69 -28.24,1.79 -27.93,1.77 -27.62,1.62 -27.3,1.37 -26.99,1.15 -26.68,1.15 -26.37,1.38 -26.06,1.67 -25.74,1.88 -25.43,2.01 -25.12,2.07 -24.81,2.11 -24.5,2.13 -24.18,2.11 -23.87,2.1 -23.56,2.09 -23.25,2.04 -22.94,2.04 -22.62,2.11 -22.31,2.17 -22,2.18 -21.69,2.15 -21.38,2.07 -21.06,2.02 -20.75,2.09 -20.44,2.17 -20.13,2.19 -19.81,2.19 -19.5,2.19 -19.19,2.19 -18.88,2.19 -18.57,2.19 -18.25,2.18 -17.94,2.14 -17.63,2.1 -17.32,2.12 -17.01,2.12 -16.69,2.09 -16.38,2.09 -16.07,2.08 -15.76,2.05 -15.45,2.07 -15.13,2.13 -14.82,2.18 -14.51,2.19 -14.2,2.19 -13.89,2.19 -13.57,2.19 -13.26,2.19 -12.95,2.19 -12.64,2.19 -12.33,2.19 -12.01,2.19 -11.7,2.19 -11.39,2.19 -11.08,2.19 -10.77,2.19 -10.45,2.19 -10.14,2.19 -9.83,2.19 -9.52,2.19 -9.21,2.19 -8.89,2.19 -8.58,2.19 -8.27,2.19 -7.96,2.19 -7.65,2.19 -7.33,2.19 -7.02,2.19 -6.71,2.19 -6.4,2.19 -6.08,2.19 -5.77,2.19 -5.46,2.19 -5.15,2.19 -4.84,2.18 -4.52,2.13 -4.21,2.1 -3.9,2.14 -3.59,2.18 -3.28,2.19 -2.96,2.19 -2.65,2.19 -2.34,2.19 -2.03,2.19 -1.72,2.19 -1.4,2.19 -1.09,2.19 -0.78,2.19 -0.47,2.19 -0.16,2.19 0.16,2.19 0.47,2.19 0.78,2.19 1.09,2.19 1.4,2.19 1.72,2.19 2.03,2.19 2.34,2.19 2.65,2.19 2.96,2.19 3.28,2.19 3.59,2.19 3.9,2.19 4.21,2.19 4.52,2.19 4.84,2.19 5.15,2.19 5.46,2.19 5.77,2.19 6.08,2.19 6.4,2.19 6.71,2.19 7.02,2.19 7.33,2.19 7.65,2.19 7.96,2.19 8.27,2.19 8.58,2.19 8.89,2.19 9.21,2.19 9.52,2.19 9.83,2.19 10.14,2.19 10.45,2.19 10.77,2.19 11.08,2.19 11.39,2.19 11.7,2.19 12.01,2.19 12.33,2.19 12.64,2.19 12.95,2.19 13.26,2.19 13.57,2.19 13.89,2.19 14.2,2.19 14.51,2.19 14.82,2.19 15.13,2.19 15.45,2.19 15.76,2.19 16.07,2.19 16.38,2.19 16.69,2.19 17.01,2.19 17.32,2.19 17.63,2.19 17.94,2.19 18.25,2.19 18.57,2.19 18.88,2.19 19.19,2.19 19.5,2.19 19.81,2.19 20.13,2.19 20.44,2.19 20.75,2.19 21.06,2.19 21.38,2.19 21.69,2.19 22,2.19 22.31,2.19 22.62,2.19 22.94,2.19 23.25,2.19 23.56,2.19 23.87,2.19 24.18,2.19 24.5,2.19 24.81,2.19 25.12,2.19 25.43,2.19 25.74,2.19 26.06,2.19 26.37,2.19 26.68,2.19 26.99,2.19 27.3,2.19 27.62,2.19 27.93,2.19 28.24,2.19 28.55,2.19 28.86,2.19 29.18,2.19 29.49,2.19 29.8,2.19 30.11,2.19 30.42,2.19 30.74,2.19 31.05,2.19 31.36,2.19 31.67,2.19 31.98,2.19 32.3,2.19 32.61,2.19 32.92,2.19 33.23,2.19 33.55,2.19 33.86,2.19 34.17,2.19 34.48,2.19 34.79,2.19 35.11,2.19 35.42,2.19 35.73,2.19 36.04,2.19 36.35,2.19 36.67,2.19 36.98,2.19 37.29,2.19 37.6,2.19 37.91,2.17 38.23,2.13 38.54,2.11 38.85,2.14 39.16,2.18 39.47,2.19 39.79,2.19 " class="primitive"/>
          </g>
          <g transform="translate(117.37,96.85)" id="img-f88c7eab-34" stroke-dasharray="none" stroke="#B23AEE" class="color_Area_3">
            <path fill="none" d="M-55.83,1.56 L-55.39,1.54 -54.95,1.12 -54.51,-1.41 -54.08,-8.82 -53.64,-18.83 -53.2,-24.82 -52.76,-26.37 -52.33,-26.56 -51.89,-26.57 -51.45,-26.56 -51.01,-26.43 -50.57,-25.94 -50.14,-24.72 -49.7,-22.55 -49.26,-19.56 -48.82,-16.32 -48.38,-13.12 -47.95,-10.06 -47.51,-7.6 -47.07,-5.85 -46.63,-4.6 -46.2,-3.61 -45.76,-2.65 -45.32,-1.78 -44.88,-1.11 -44.44,-0.64 -44.01,-0.23 -43.57,0.09 -43.13,0.31 -42.69,0.5 -42.25,0.52 -41.82,0.5 -41.38,0.58 -40.94,0.68 -40.5,0.87 -40.07,1.04 -39.63,1.07 -39.19,1.16 -38.75,1.33 -38.31,1.42 -37.88,1.41 -37.44,1.33 -37,1.27 -36.56,1.34 -36.12,1.44 -35.69,1.46 -35.25,1.45 -34.81,1.42 -34.37,1.39 -33.93,1.42 -33.5,1.44 -33.06,1.44 -32.62,1.47 -32.18,1.51 -31.75,1.54 -31.31,1.56 -30.87,1.55 -30.43,1.51 -29.99,1.48 -29.56,1.5 -29.12,1.51 -28.68,1.49 -28.24,1.47 -27.8,1.49 -27.37,1.51 -26.93,1.52 -26.49,1.54 -26.05,1.53 -25.62,1.52 -25.18,1.54 -24.74,1.56 -24.3,1.56 -23.86,1.56 -23.43,1.56 -22.99,1.56 -22.55,1.56 -22.11,1.55 -21.67,1.53 -21.24,1.5 -20.8,1.5 -20.36,1.52 -19.92,1.54 -19.49,1.54 -19.05,1.52 -18.61,1.53 -18.17,1.55 -17.73,1.56 -17.3,1.56 -16.86,1.56 -16.42,1.56 -15.98,1.56 -15.54,1.56 -15.11,1.56 -14.67,1.56 -14.23,1.56 -13.79,1.54 -13.36,1.52 -12.92,1.53 -12.48,1.55 -12.04,1.56 -11.6,1.56 -11.17,1.56 -10.73,1.56 -10.29,1.56 -9.85,1.56 -9.41,1.55 -8.98,1.53 -8.54,1.52 -8.1,1.54 -7.66,1.56 -7.22,1.56 -6.79,1.56 -6.35,1.56 -5.91,1.56 -5.47,1.56 -5.04,1.56 -4.6,1.56 -4.16,1.56 -3.72,1.56 -3.28,1.56 -2.85,1.56 -2.41,1.56 -1.97,1.56 -1.53,1.56 -1.09,1.56 -0.66,1.56 -0.22,1.56 0.22,1.56 0.66,1.56 1.09,1.56 1.53,1.56 1.97,1.56 2.41,1.56 2.85,1.56 3.28,1.56 3.72,1.54 4.16,1.52 4.6,1.53 5.04,1.55 5.47,1.56 5.91,1.56 6.35,1.56 6.79,1.56 7.22,1.56 7.66,1.56 8.1,1.56 8.54,1.56 8.98,1.56 9.41,1.56 9.85,1.56 10.29,1.56 10.73,1.56 11.17,1.56 11.6,1.56 12.04,1.56 12.48,1.56 12.92,1.56 13.36,1.56 13.79,1.56 14.23,1.56 14.67,1.56 15.11,1.56 15.54,1.56 15.98,1.56 16.42,1.56 16.86,1.56 17.3,1.56 17.73,1.56 18.17,1.56 18.61,1.56 19.05,1.56 19.49,1.56 19.92,1.56 20.36,1.56 20.8,1.56 21.24,1.56 21.67,1.56 22.11,1.56 22.55,1.56 22.99,1.56 23.43,1.56 23.86,1.56 24.3,1.56 24.74,1.56 25.18,1.56 25.62,1.56 26.05,1.56 26.49,1.56 26.93,1.56 27.37,1.56 27.8,1.56 28.24,1.56 28.68,1.56 29.12,1.56 29.56,1.56 29.99,1.56 30.43,1.56 30.87,1.56 31.31,1.56 31.75,1.56 32.18,1.56 32.62,1.56 33.06,1.56 33.5,1.56 33.93,1.56 34.37,1.56 34.81,1.56 35.25,1.56 35.69,1.56 36.12,1.56 36.56,1.56 37,1.56 37.44,1.56 37.88,1.56 38.31,1.56 38.75,1.56 39.19,1.56 39.63,1.56 40.07,1.56 40.5,1.56 40.94,1.56 41.38,1.56 41.82,1.56 42.25,1.56 42.69,1.56 43.13,1.56 43.57,1.56 44.01,1.56 44.44,1.56 44.88,1.56 45.32,1.56 45.76,1.56 46.2,1.56 46.63,1.56 47.07,1.56 47.51,1.56 47.95,1.56 48.38,1.56 48.82,1.56 49.26,1.56 49.7,1.56 50.14,1.56 50.57,1.56 51.01,1.56 51.45,1.56 51.89,1.56 52.33,1.56 52.76,1.56 53.2,1.56 53.64,1.53 54.08,1.51 54.51,1.53 54.95,1.56 55.39,1.56 55.83,1.56 " class="primitive"/>
          </g>
          <g transform="translate(66.9,77.75)" id="img-f88c7eab-35" stroke-dasharray="none" stroke="#4169E1" class="color_Area_2">
            <path fill="none" d="M-4.22,20.67 L-4.19,20.67 -4.16,20.66 -4.12,20.66 -4.09,20.65 -4.06,20.63 -4.02,20.6 -3.99,20.55 -3.96,20.45 -3.92,20.3 -3.89,20.05 -3.86,19.66 -3.83,19.08 -3.79,18.23 -3.76,17.04 -3.73,15.41 -3.69,13.26 -3.66,10.51 -3.63,7.12 -3.59,3.06 -3.56,-1.65 -3.53,-6.93 -3.49,-12.65 -3.46,-18.66 -3.43,-24.77 -3.39,-30.78 -3.36,-36.5 -3.33,-41.77 -3.3,-46.47 -3.26,-50.52 -3.23,-53.9 -3.2,-56.64 -3.16,-58.78 -3.13,-60.39 -3.1,-61.58 -3.06,-62.41 -3.03,-62.99 -3,-63.37 -2.96,-63.62 -2.93,-63.77 -2.9,-63.86 -2.87,-63.91 -2.83,-63.94 -2.8,-63.95 -2.77,-63.95 -2.73,-63.94 -2.7,-63.93 -2.67,-63.9 -2.63,-63.86 -2.6,-63.79 -2.57,-63.7 -2.53,-63.57 -2.5,-63.39 -2.47,-63.14 -2.43,-62.83 -2.4,-62.42 -2.37,-61.92 -2.34,-61.31 -2.3,-60.59 -2.27,-59.75 -2.24,-58.8 -2.2,-57.74 -2.17,-56.58 -2.14,-55.32 -2.1,-53.96 -2.07,-52.51 -2.04,-50.96 -2,-49.31 -1.97,-47.55 -1.94,-45.68 -1.9,-43.7 -1.87,-41.6 -1.84,-39.39 -1.81,-37.08 -1.77,-34.69 -1.74,-32.25 -1.71,-29.78 -1.67,-27.33 -1.64,-24.93 -1.61,-22.62 -1.57,-20.43 -1.54,-18.39 -1.51,-16.51 -1.47,-14.8 -1.44,-13.23 -1.41,-11.78 -1.37,-10.44 -1.34,-9.16 -1.31,-7.94 -1.28,-6.74 -1.24,-5.56 -1.21,-4.4 -1.18,-3.26 -1.14,-2.16 -1.11,-1.1 -1.08,-0.08 -1.04,0.88 -1.01,1.79 -0.98,2.65 -0.94,3.48 -0.91,4.28 -0.88,5.06 -0.84,5.82 -0.81,6.56 -0.78,7.28 -0.75,7.99 -0.71,8.66 -0.68,9.29 -0.65,9.87 -0.61,10.4 -0.58,10.86 -0.55,11.25 -0.51,11.56 -0.48,11.78 -0.45,11.92 -0.41,11.98 -0.38,11.97 -0.35,11.9 -0.31,11.78 -0.28,11.63 -0.25,11.49 -0.22,11.38 -0.18,11.32 -0.15,11.33 -0.12,11.44 -0.08,11.64 -0.05,11.95 -0.02,12.35 0.02,12.83 0.05,13.37 0.08,13.93 0.12,14.5 0.15,15.04 0.18,15.55 0.22,16 0.25,16.38 0.28,16.71 0.31,16.98 0.35,17.21 0.38,17.41 0.41,17.6 0.45,17.78 0.48,17.96 0.51,18.14 0.55,18.33 0.58,18.5 0.61,18.67 0.65,18.81 0.68,18.92 0.71,19 0.75,19.05 0.78,19.07 0.81,19.06 0.84,19.03 0.88,18.99 0.91,18.95 0.94,18.92 0.98,18.89 1.01,18.88 1.04,18.88 1.08,18.91 1.11,18.94 1.14,18.99 1.18,19.04 1.21,19.09 1.24,19.14 1.28,19.19 1.31,19.24 1.34,19.3 1.37,19.36 1.41,19.42 1.44,19.5 1.47,19.58 1.51,19.68 1.54,19.77 1.57,19.87 1.61,19.96 1.64,20.04 1.67,20.1 1.71,20.15 1.74,20.19 1.77,20.22 1.81,20.24 1.84,20.25 1.87,20.26 1.9,20.27 1.94,20.29 1.97,20.32 2,20.35 2.04,20.39 2.07,20.43 2.1,20.47 2.14,20.51 2.17,20.55 2.2,20.58 2.24,20.6 2.27,20.62 2.3,20.64 2.34,20.65 2.37,20.66 2.4,20.66 2.43,20.66 2.47,20.67 2.5,20.67 2.53,20.67 2.57,20.67 2.6,20.67 2.63,20.67 2.67,20.67 2.7,20.67 2.73,20.66 2.77,20.66 2.8,20.65 2.83,20.65 2.87,20.63 2.9,20.62 2.93,20.6 2.96,20.57 3,20.54 3.03,20.5 3.06,20.45 3.1,20.4 3.13,20.35 3.16,20.29 3.2,20.24 3.23,20.2 3.26,20.16 3.3,20.13 3.33,20.1 3.36,20.09 3.39,20.09 3.43,20.1 3.46,20.13 3.49,20.16 3.53,20.2 3.56,20.24 3.59,20.3 3.63,20.35 3.66,20.4 3.69,20.45 3.73,20.5 3.76,20.54 3.79,20.57 3.83,20.6 3.86,20.62 3.89,20.64 3.92,20.65 3.96,20.65 3.99,20.66 4.02,20.66 4.06,20.67 4.09,20.67 4.12,20.67 4.16,20.67 4.19,20.67 4.22,20.67 " class="primitive"/>
          </g>
          <g transform="translate(91.13,95.44)" id="img-f88c7eab-36" stroke-dasharray="none" stroke="#00CD66" class="color_Area_4">
            <path fill="none" d="M-29.34,2.97 L-29.11,2.97 -28.88,2.92 -28.65,2.68 -28.42,1.83 -28.19,-0.48 -27.96,-5.01 -27.73,-11.58 -27.5,-18.57 -27.27,-24.02 -27.04,-27.12 -26.81,-28.42 -26.58,-28.81 -26.35,-28.89 -26.12,-28.91 -25.89,-28.91 -25.66,-28.9 -25.43,-28.87 -25.2,-28.76 -24.97,-28.5 -24.74,-28.01 -24.51,-27.29 -24.28,-26.35 -24.05,-25.11 -23.82,-23.46 -23.59,-21.37 -23.36,-18.97 -23.13,-16.47 -22.9,-14.11 -22.67,-12.06 -22.43,-10.42 -22.2,-9.08 -21.97,-7.84 -21.74,-6.56 -21.51,-5.25 -21.28,-4.01 -21.05,-2.97 -20.82,-2.25 -20.59,-1.83 -20.36,-1.51 -20.13,-1.08 -19.9,-0.45 -19.67,0.21 -19.44,0.73 -19.21,1.05 -18.98,1.28 -18.75,1.49 -18.52,1.69 -18.29,1.83 -18.06,1.94 -17.83,2.03 -17.6,2.1 -17.37,2.11 -17.14,2.05 -16.91,1.93 -16.68,1.83 -16.45,1.83 -16.22,1.94 -15.99,2.07 -15.76,2.15 -15.53,2.2 -15.3,2.28 -15.07,2.36 -14.84,2.45 -14.61,2.5 -14.38,2.52 -14.15,2.49 -13.92,2.45 -13.69,2.41 -13.46,2.43 -13.23,2.47 -13,2.51 -12.77,2.56 -12.54,2.64 -12.31,2.72 -12.08,2.79 -11.85,2.81 -11.62,2.8 -11.39,2.75 -11.16,2.69 -10.93,2.63 -10.7,2.6 -10.47,2.64 -10.24,2.71 -10.01,2.8 -9.78,2.88 -9.55,2.93 -9.32,2.95 -9.09,2.94 -8.86,2.92 -8.63,2.9 -8.4,2.88 -8.17,2.86 -7.94,2.84 -7.71,2.82 -7.48,2.81 -7.25,2.81 -7.02,2.82 -6.79,2.84 -6.56,2.86 -6.33,2.86 -6.1,2.84 -5.87,2.83 -5.64,2.84 -5.41,2.88 -5.18,2.92 -4.95,2.95 -4.72,2.97 -4.49,2.97 -4.26,2.98 -4.03,2.98 -3.8,2.98 -3.57,2.98 -3.34,2.98 -3.11,2.98 -2.88,2.98 -2.65,2.97 -2.42,2.97 -2.19,2.97 -1.96,2.96 -1.73,2.94 -1.5,2.92 -1.27,2.92 -1.04,2.93 -0.81,2.95 -0.58,2.97 -0.35,2.97 -0.12,2.97 0.12,2.98 0.35,2.98 0.58,2.98 0.81,2.97 1.04,2.97 1.27,2.96 1.5,2.93 1.73,2.88 1.96,2.83 2.19,2.81 2.42,2.83 2.65,2.88 2.88,2.93 3.11,2.96 3.34,2.97 3.57,2.97 3.8,2.97 4.03,2.97 4.26,2.96 4.49,2.95 4.72,2.93 4.95,2.91 5.18,2.91 5.41,2.92 5.64,2.92 5.87,2.91 6.1,2.92 6.33,2.93 6.56,2.95 6.79,2.96 7.02,2.97 7.25,2.97 7.48,2.98 7.71,2.98 7.94,2.98 8.17,2.98 8.4,2.98 8.63,2.98 8.86,2.98 9.09,2.98 9.32,2.98 9.55,2.98 9.78,2.98 10.01,2.98 10.24,2.98 10.47,2.98 10.7,2.98 10.93,2.98 11.16,2.98 11.39,2.98 11.62,2.98 11.85,2.98 12.08,2.98 12.31,2.98 12.54,2.98 12.77,2.98 13,2.98 13.23,2.98 13.46,2.98 13.69,2.98 13.92,2.98 14.15,2.98 14.38,2.98 14.61,2.98 14.84,2.98 15.07,2.98 15.3,2.98 15.53,2.98 15.76,2.98 15.99,2.98 16.22,2.98 16.45,2.98 16.68,2.98 16.91,2.98 17.14,2.98 17.37,2.98 17.6,2.98 17.83,2.98 18.06,2.98 18.29,2.98 18.52,2.98 18.75,2.98 18.98,2.98 19.21,2.98 19.44,2.98 19.67,2.98 19.9,2.98 20.13,2.98 20.36,2.98 20.59,2.98 20.82,2.98 21.05,2.98 21.28,2.98 21.51,2.98 21.74,2.98 21.97,2.98 22.2,2.98 22.43,2.98 22.67,2.98 22.9,2.98 23.13,2.98 23.36,2.98 23.59,2.98 23.82,2.98 24.05,2.98 24.28,2.98 24.51,2.98 24.74,2.98 24.97,2.98 25.2,2.98 25.43,2.98 25.66,2.98 25.89,2.97 26.12,2.97 26.35,2.97 26.58,2.96 26.81,2.94 27.04,2.91 27.27,2.89 27.5,2.88 27.73,2.89 27.96,2.91 28.19,2.94 28.42,2.96 28.65,2.97 28.88,2.97 29.11,2.97 29.34,2.98 " class="primitive"/>
          </g>
        </g>
      </g>
    </g>
  </g>
  <g class="guide ylabels" font-size="3.53" font-family="CMU Serif" fill="#6C606B" id="img-f88c7eab-37">
    <g transform="translate(22.11,98.42)" id="img-f88c7eab-38">
      <g class="primitive">
        <text text-anchor="end" dy="0.35em">0.000</text>
      </g>
    </g>
    <g transform="translate(22.11,52.71)" id="img-f88c7eab-39">
      <g class="primitive">
        <text text-anchor="end" dy="0.35em">0.005</text>
      </g>
    </g>
    <g transform="translate(22.11,7)" id="img-f88c7eab-40">
      <g class="primitive">
        <text text-anchor="end" dy="0.35em">0.010</text>
      </g>
    </g>
  </g>
  <g font-size="3.53" font-family="CMU Serif" fill="#564A55" stroke="#000000" stroke-opacity="0.000" id="img-f88c7eab-41">
    <g transform="translate(8.65,50.71)" id="img-f88c7eab-42">
      <g class="primitive">
        <text text-anchor="middle" dy="0.35em" transform="rotate(-90,0, 2)">Density</text>
      </g>
    </g>
  </g>
</g>
<defs>
  <clipPath id="img-f88c7eab-17">
    <path d="M23.11,5 L180.48,5 180.48,100.42 23.11,100.42 " />
  </clipPath>
</defs>
</svg>
