<?xml version="1.0" encoding="UTF-8"?>
<svg xmlns="http://www.w3.org/2000/svg"
     xmlns:xlink="http://www.w3.org/1999/xlink"
     xmlns:gadfly="http://www.gadflyjl.org/ns"
     version="1.2"
     width="300mm" height="120mm" viewBox="0 0 300 120"
     stroke="none"
     fill="#000000"
     stroke-width="0.3"
     font-size="3.88"
>
<defs>
  <marker id="arrow" markerWidth="15" markerHeight="7" refX="5" refY="3.5" orient="auto" markerUnits="strokeWidth">
    <path d="M0,0 L15,3.5 L0,7 z" stroke="context-stroke" fill="context-stroke"/>
  </marker>
</defs>
<g class="plotroot xscalable yscalable" id="img-8bbb4c17-1">
  <g font-size="4.59" font-family="CMU Serif" fill="#564A55" stroke="#000000" stroke-opacity="0.000" id="img-8bbb4c17-2">
    <g transform="translate(226.81,107.72)">
      <g class="primitive">
        <text text-anchor="middle" dy="0.6em">Proper Motion Declination (mas/yr)</text>
      </g>
    </g>
  </g>
  <g class="guide xlabels" font-size="4.59" font-family="CMU Serif" fill="#6C606B" id="img-8bbb4c17-3">
    <g transform="translate(179.44,99.44)">
      <g class="primitive">
        <text text-anchor="middle" dy="0.6em">0</text>
      </g>
    </g>
    <g transform="translate(214.46,99.44)">
      <g class="primitive">
        <text text-anchor="middle" dy="0.6em">500</text>
      </g>
    </g>
    <g transform="translate(249.49,99.44)">
      <g class="primitive">
        <text text-anchor="middle" dy="0.6em">1000</text>
      </g>
    </g>
  </g>
  <g class="guide colorkey" id="img-8bbb4c17-4">
    <g fill="#4C404B" font-size="4.59" font-family="CMU Serif" id="img-8bbb4c17-5">
      <g transform="translate(281.51,46.44)" id="img-8bbb4c17-6" class="color_Area_1">
        <g class="primitive">
          <text dy="0.35em">Area 1</text>
        </g>
      </g>
      <g transform="translate(281.51,51.72)" id="img-8bbb4c17-7" class="color_Area_2">
        <g class="primitive">
          <text dy="0.35em">Area 2</text>
        </g>
      </g>
      <g transform="translate(281.51,57)" id="img-8bbb4c17-8" class="color_Area_3">
        <g class="primitive">
          <text dy="0.35em">Area 3</text>
        </g>
      </g>
      <g transform="translate(281.51,62.28)" id="img-8bbb4c17-9" class="color_Area_4">
        <g class="primitive">
          <text dy="0.35em">Area 4</text>
        </g>
      </g>
    </g>
    <g fill-opacity="1" id="img-8bbb4c17-10">
      <g transform="translate(279.19,46.44)" id="img-8bbb4c17-11" stroke="#FFFFFF" class="color_Area_1" fill="#FF6347">
        <path d="M-1.32,-1.32 L1.32,-1.32 1.32,1.32 -1.32,1.32  z" class="primitive"/>
      </g>
      <g transform="translate(279.19,51.72)" id="img-8bbb4c17-12" stroke="#FFFFFF" class="color_Area_2" fill="#4169E1">
        <path d="M-1.32,-1.32 L1.32,-1.32 1.32,1.32 -1.32,1.32  z" class="primitive"/>
      </g>
      <g transform="translate(279.19,57)" id="img-8bbb4c17-13" stroke="#FFFFFF" class="color_Area_3" fill="#B23AEE">
        <path d="M-1.32,-1.32 L1.32,-1.32 1.32,1.32 -1.32,1.32  z" class="primitive"/>
      </g>
      <g transform="translate(279.19,62.28)" id="img-8bbb4c17-14" stroke="#FFFFFF" class="color_Area_4" fill="#00CD66">
        <path d="M-1.32,-1.32 L1.32,-1.32 1.32,1.32 -1.32,1.32  z" class="primitive"/>
      </g>
    </g>
    <g fill="#362A35" font-size="5.29" font-family="CMU Serif" stroke="#000000" stroke-opacity="0.000" id="img-8bbb4c17-15">
      <g transform="translate(277.87,41.63)" id="img-8bbb4c17-16">
        <g class="primitive">
          <text dy="-0em">Area</text>
        </g>
      </g>
    </g>
  </g>
  <g clip-path="url(#img-8bbb4c17-17)">
    <g id="img-8bbb4c17-18">
      <g pointer-events="visible" stroke-width="0.3" fill="#000000" fill-opacity="0.000" stroke="#000000" stroke-opacity="0.000" class="guide background" id="img-8bbb4c17-19">
        <g transform="translate(226.81,51.72)" id="img-8bbb4c17-20">
          <path d="M-50.07,-46.72 L50.07,-46.72 50.07,46.72 -50.07,46.72  z" class="primitive"/>
        </g>
      </g>
      <g class="guide ygridlines xfixed" stroke-dasharray="0.5,0.5" stroke-width="0.2" stroke="#D0D0E0" id="img-8bbb4c17-21">
        <g transform="translate(226.81,96.44)" id="img-8bbb4c17-22">
          <path fill="none" d="M-50.07,0 L50.07,0 " class="primitive"/>
        </g>
        <g transform="translate(226.81,66.63)" id="img-8bbb4c17-23">
          <path fill="none" d="M-50.07,0 L50.07,0 " class="primitive"/>
        </g>
        <g transform="translate(226.81,36.81)" id="img-8bbb4c17-24">
          <path fill="none" d="M-50.07,0 L50.07,0 " class="primitive"/>
        </g>
        <g transform="translate(226.81,7)" id="img-8bbb4c17-25">
          <path fill="none" d="M-50.07,0 L50.07,0 " class="primitive"/>
        </g>
      </g>
      <g class="guide xgridlines yfixed" stroke-dasharray="0.5,0.5" stroke-width="0.2" stroke="#D0D0E0" id="img-8bbb4c17-26">
        <g transform="translate(179.44,51.72)" id="img-8bbb4c17-27">
          <path fill="none" d="M0,-46.72 L0,46.72 " class="primitive"/>
        </g>
        <g transform="translate(214.46,51.72)" id="img-8bbb4c17-28">
          <path fill="none" d="M0,-46.72 L0,46.72 " class="primitive"/>
        </g>
        <g transform="translate(249.49,51.72)" id="img-8bbb4c17-29">
          <path fill="none" d="M0,-46.72 L0,46.72 " class="primitive"/>
        </g>
      </g>
      <g class="plotpanel" id="img-8bbb4c17-30">
        <metadata>
          <boundingbox value="176.74083333333334mm 5.0mm 100.13208333333334mm 93.44166666666666mm"/>
          <unitbox value="-38.55278014979665 0.015335414143296375 1429.5246806788919 -0.01567082828659275"/>
        </metadata>
        <g stroke-width="0.3" fill="#000000" fill-opacity="0.000" class="geometry" id="img-8bbb4c17-31">
          <g transform="translate(224.47,92.31)" id="img-8bbb4c17-32" stroke-dasharray="none" stroke="#FF6347" class="color_Area_1">
            <path fill="none" d="M-50.41,4.13 L-50.01,4.13 -49.62,4.13 -49.22,4.12 -48.82,4.11 -48.43,4.09 -48.03,4.01 -47.64,3.82 -47.24,3.4 -46.85,2.56 -46.45,1.07 -46.06,-1.24 -45.66,-4.43 -45.27,-8.34 -44.87,-12.55 -44.48,-16.56 -44.08,-19.94 -43.69,-22.45 -43.29,-24.1 -42.89,-25.06 -42.5,-25.54 -42.1,-25.76 -41.71,-25.85 -41.31,-25.88 -40.92,-25.89 -40.52,-25.89 -40.13,-25.88 -39.73,-25.87 -39.34,-25.84 -38.94,-25.79 -38.55,-25.7 -38.15,-25.55 -37.76,-25.28 -37.36,-24.85 -36.96,-24.22 -36.57,-23.39 -36.17,-22.36 -35.78,-21.18 -35.38,-19.9 -34.99,-18.58 -34.59,-17.27 -34.2,-16.01 -33.8,-14.81 -33.41,-13.67 -33.01,-12.58 -32.62,-11.52 -32.22,-10.45 -31.83,-9.39 -31.43,-8.35 -31.03,-7.36 -30.64,-6.44 -30.24,-5.6 -29.85,-4.86 -29.45,-4.19 -29.06,-3.59 -28.66,-3.03 -28.27,-2.52 -27.87,-2.03 -27.48,-1.57 -27.08,-1.14 -26.69,-0.75 -26.29,-0.41 -25.89,-0.11 -25.5,0.18 -25.1,0.48 -24.71,0.78 -24.31,1.07 -23.92,1.34 -23.52,1.57 -23.13,1.75 -22.73,1.91 -22.34,2.07 -21.94,2.23 -21.55,2.39 -21.15,2.54 -20.76,2.66 -20.36,2.75 -19.96,2.82 -19.57,2.89 -19.17,2.94 -18.78,3.01 -18.38,3.09 -17.99,3.19 -17.59,3.32 -17.2,3.45 -16.8,3.59 -16.41,3.71 -16.01,3.8 -15.62,3.86 -15.22,3.89 -14.83,3.92 -14.43,3.94 -14.03,3.97 -13.64,3.98 -13.24,3.99 -12.85,3.96 -12.45,3.91 -12.06,3.84 -11.66,3.77 -11.27,3.71 -10.87,3.67 -10.48,3.66 -10.08,3.68 -9.69,3.72 -9.29,3.76 -8.9,3.81 -8.5,3.86 -8.1,3.91 -7.71,3.94 -7.31,3.95 -6.92,3.96 -6.52,3.96 -6.13,3.96 -5.73,3.97 -5.34,3.99 -4.94,4.02 -4.55,4.05 -4.15,4.08 -3.76,4.1 -3.36,4.11 -2.97,4.11 -2.57,4.1 -2.17,4.09 -1.78,4.07 -1.38,4.06 -0.99,4.05 -0.59,4.05 -0.2,4.06 0.2,4.08 0.59,4.09 0.99,4.1 1.38,4.1 1.78,4.09 2.17,4.07 2.57,4.04 2.97,4 3.36,3.97 3.76,3.95 4.15,3.95 4.55,3.95 4.94,3.97 5.34,3.99 5.73,4.02 6.13,4.05 6.52,4.07 6.92,4.09 7.31,4.11 7.71,4.12 8.1,4.12 8.5,4.13 8.9,4.13 9.29,4.13 9.69,4.13 10.08,4.13 10.48,4.13 10.87,4.13 11.27,4.13 11.66,4.13 12.06,4.13 12.45,4.13 12.85,4.13 13.24,4.13 13.64,4.13 14.03,4.12 14.43,4.12 14.83,4.11 15.22,4.1 15.62,4.08 16.01,4.07 16.41,4.06 16.8,4.05 17.2,4.06 17.59,4.07 17.99,4.08 18.38,4.1 18.78,4.11 19.17,4.12 19.57,4.12 19.96,4.12 20.36,4.11 20.76,4.1 21.15,4.08 21.55,4.07 21.94,4.05 22.34,4.05 22.73,4.06 23.13,4.07 23.52,4.09 23.92,4.1 24.31,4.11 24.71,4.12 25.1,4.12 25.5,4.13 25.89,4.13 26.29,4.13 26.69,4.13 27.08,4.13 27.48,4.13 27.87,4.13 28.27,4.13 28.66,4.13 29.06,4.13 29.45,4.13 29.85,4.13 30.24,4.13 30.64,4.13 31.03,4.13 31.43,4.13 31.83,4.13 32.22,4.13 32.62,4.13 33.01,4.13 33.41,4.13 33.8,4.13 34.2,4.13 34.59,4.13 34.99,4.13 35.38,4.13 35.78,4.13 36.17,4.13 36.57,4.13 36.96,4.13 37.36,4.13 37.76,4.13 38.15,4.13 38.55,4.13 38.94,4.13 39.34,4.13 39.73,4.13 40.13,4.13 40.52,4.13 40.92,4.13 41.31,4.13 41.71,4.13 42.1,4.13 42.5,4.13 42.89,4.13 43.29,4.12 43.69,4.12 44.08,4.11 44.48,4.1 44.87,4.08 45.27,4.07 45.66,4.05 46.06,4.05 46.45,4.06 46.85,4.07 47.24,4.09 47.64,4.1 48.03,4.11 48.43,4.12 48.82,4.12 49.22,4.13 49.62,4.13 50.01,4.13 50.41,4.13 " class="primitive"/>
          </g>
          <g transform="translate(222.81,92.19)" id="img-8bbb4c17-33" stroke-dasharray="none" stroke="#B23AEE" class="color_Area_3">
            <path fill="none" d="M-48.98,4.25 L-48.59,4.25 -48.21,4.25 -47.82,4.24 -47.44,4.24 -47.05,4.22 -46.67,4.17 -46.29,4.06 -45.9,3.8 -45.52,3.29 -45.13,2.38 -44.75,0.9 -44.37,-1.27 -43.98,-4.13 -43.6,-7.5 -43.21,-11.1 -42.83,-14.54 -42.45,-17.51 -42.06,-19.8 -41.68,-21.39 -41.29,-22.39 -40.91,-22.94 -40.52,-23.23 -40.14,-23.35 -39.76,-23.41 -39.37,-23.43 -38.99,-23.43 -38.6,-23.43 -38.22,-23.43 -37.84,-23.43 -37.45,-23.41 -37.07,-23.39 -36.68,-23.33 -36.3,-23.24 -35.92,-23.08 -35.53,-22.84 -35.15,-22.49 -34.76,-22.03 -34.38,-21.46 -33.99,-20.8 -33.61,-20.05 -33.23,-19.22 -32.84,-18.31 -32.46,-17.3 -32.07,-16.19 -31.69,-14.99 -31.31,-13.73 -30.92,-12.45 -30.54,-11.19 -30.15,-10.01 -29.77,-8.95 -29.39,-8.03 -29,-7.26 -28.62,-6.6 -28.23,-6.02 -27.85,-5.45 -27.46,-4.87 -27.08,-4.27 -26.7,-3.67 -26.31,-3.1 -25.93,-2.58 -25.54,-2.14 -25.16,-1.77 -24.78,-1.45 -24.39,-1.16 -24.01,-0.85 -23.62,-0.49 -23.24,-0.08 -22.86,0.37 -22.47,0.81 -22.09,1.23 -21.7,1.57 -21.32,1.84 -20.93,2.02 -20.55,2.14 -20.17,2.21 -19.78,2.27 -19.4,2.32 -19.01,2.38 -18.63,2.45 -18.25,2.53 -17.86,2.63 -17.48,2.76 -17.09,2.9 -16.71,3.06 -16.33,3.22 -15.94,3.35 -15.56,3.45 -15.17,3.49 -14.79,3.48 -14.4,3.44 -14.02,3.4 -13.64,3.36 -13.25,3.35 -12.87,3.36 -12.48,3.4 -12.1,3.46 -11.72,3.53 -11.33,3.6 -10.95,3.66 -10.56,3.7 -10.18,3.72 -9.8,3.72 -9.41,3.71 -9.03,3.7 -8.64,3.72 -8.26,3.76 -7.87,3.82 -7.49,3.9 -7.11,3.98 -6.72,4.05 -6.34,4.1 -5.95,4.13 -5.57,4.15 -5.19,4.16 -4.8,4.16 -4.42,4.15 -4.03,4.14 -3.65,4.12 -3.27,4.1 -2.88,4.07 -2.5,4.04 -2.11,4.03 -1.73,4.01 -1.34,4 -0.96,3.97 -0.58,3.94 -0.19,3.89 0.19,3.84 0.58,3.8 0.96,3.78 1.34,3.77 1.73,3.8 2.11,3.85 2.5,3.91 2.88,3.99 3.27,4.06 3.65,4.12 4.03,4.17 4.42,4.19 4.8,4.2 5.19,4.19 5.57,4.16 5.95,4.12 6.34,4.08 6.72,4.03 7.11,3.99 7.49,3.97 7.87,3.97 8.26,3.99 8.64,4.03 9.03,4.07 9.41,4.11 9.8,4.15 10.18,4.19 10.56,4.21 10.95,4.23 11.33,4.24 11.72,4.24 12.1,4.25 12.48,4.25 12.87,4.25 13.25,4.25 13.64,4.25 14.02,4.25 14.4,4.25 14.79,4.25 15.17,4.25 15.56,4.25 15.94,4.25 16.33,4.25 16.71,4.24 17.09,4.24 17.48,4.23 17.86,4.22 18.25,4.21 18.63,4.2 19.01,4.19 19.4,4.18 19.78,4.18 20.17,4.19 20.55,4.2 20.93,4.22 21.32,4.23 21.7,4.24 22.09,4.24 22.47,4.25 22.86,4.25 23.24,4.25 23.62,4.25 24.01,4.25 24.39,4.25 24.78,4.25 25.16,4.25 25.54,4.25 25.93,4.25 26.31,4.25 26.7,4.25 27.08,4.25 27.46,4.25 27.85,4.25 28.23,4.25 28.62,4.25 29,4.25 29.39,4.25 29.77,4.25 30.15,4.25 30.54,4.25 30.92,4.25 31.31,4.25 31.69,4.25 32.07,4.25 32.46,4.25 32.84,4.25 33.23,4.25 33.61,4.25 33.99,4.25 34.38,4.25 34.76,4.25 35.15,4.25 35.53,4.24 35.92,4.24 36.3,4.24 36.68,4.23 37.07,4.22 37.45,4.2 37.84,4.19 38.22,4.18 38.6,4.18 38.99,4.19 39.37,4.2 39.76,4.21 40.14,4.22 40.52,4.23 40.91,4.24 41.29,4.24 41.68,4.24 42.06,4.24 42.45,4.23 42.83,4.22 43.21,4.21 43.6,4.19 43.98,4.18 44.37,4.18 44.75,4.18 45.13,4.19 45.52,4.21 45.9,4.22 46.29,4.23 46.67,4.24 47.05,4.24 47.44,4.25 47.82,4.25 48.21,4.25 48.59,4.25 48.98,4.25 " class="primitive"/>
          </g>
          <g transform="translate(193.35,83.86)" id="img-8bbb4c17-34" stroke-dasharray="none" stroke="#4169E1" class="color_Area_2">
            <path fill="none" d="M-16.53,12.58 L-16.4,12.58 -16.27,12.58 -16.14,12.58 -16.01,12.57 -15.88,12.56 -15.75,12.53 -15.62,12.47 -15.49,12.36 -15.36,12.16 -15.23,11.82 -15.11,11.25 -14.98,10.35 -14.85,9 -14.72,7.06 -14.59,4.43 -14.46,1 -14.33,-3.22 -14.2,-8.18 -14.07,-13.73 -13.94,-19.62 -13.81,-25.58 -13.68,-31.3 -13.55,-36.52 -13.42,-41.06 -13.29,-44.81 -13.16,-47.75 -13.03,-49.94 -12.9,-51.49 -12.77,-52.54 -12.64,-53.21 -12.51,-53.62 -12.38,-53.85 -12.25,-53.97 -12.12,-54.03 -11.99,-54.04 -11.86,-54.02 -11.73,-53.98 -11.6,-53.9 -11.47,-53.8 -11.35,-53.65 -11.22,-53.45 -11.09,-53.19 -10.96,-52.85 -10.83,-52.44 -10.7,-51.94 -10.57,-51.33 -10.44,-50.62 -10.31,-49.79 -10.18,-48.84 -10.05,-47.75 -9.92,-46.53 -9.79,-45.15 -9.66,-43.59 -9.53,-41.84 -9.4,-39.87 -9.27,-37.68 -9.14,-35.28 -9.01,-32.69 -8.88,-29.97 -8.75,-27.18 -8.62,-24.39 -8.49,-21.69 -8.36,-19.14 -8.23,-16.78 -8.1,-14.64 -7.97,-12.72 -7.84,-11.01 -7.71,-9.49 -7.58,-8.12 -7.46,-6.88 -7.33,-5.75 -7.2,-4.72 -7.07,-3.79 -6.94,-2.99 -6.81,-2.32 -6.68,-1.79 -6.55,-1.4 -6.42,-1.14 -6.29,-0.95 -6.16,-0.78 -6.03,-0.59 -5.9,-0.31 -5.77,0.07 -5.64,0.56 -5.51,1.16 -5.38,1.83 -5.25,2.54 -5.12,3.25 -4.99,3.94 -4.86,4.58 -4.73,5.15 -4.6,5.63 -4.47,6.03 -4.34,6.36 -4.21,6.6 -4.08,6.79 -3.95,6.93 -3.82,7.05 -3.7,7.16 -3.57,7.27 -3.44,7.4 -3.31,7.55 -3.18,7.71 -3.05,7.88 -2.92,8.05 -2.79,8.21 -2.66,8.36 -2.53,8.5 -2.4,8.64 -2.27,8.78 -2.14,8.93 -2.01,9.08 -1.88,9.24 -1.75,9.4 -1.62,9.54 -1.49,9.66 -1.36,9.75 -1.23,9.82 -1.1,9.87 -0.97,9.93 -0.84,10 -0.71,10.11 -0.58,10.25 -0.45,10.43 -0.32,10.63 -0.19,10.85 -0.06,11.07 0.06,11.28 0.19,11.45 0.32,11.59 0.45,11.69 0.58,11.75 0.71,11.78 0.84,11.77 0.97,11.74 1.1,11.69 1.23,11.65 1.36,11.62 1.49,11.61 1.62,11.63 1.75,11.68 1.88,11.74 2.01,11.81 2.14,11.88 2.27,11.92 2.4,11.94 2.53,11.92 2.66,11.87 2.79,11.8 2.92,11.72 3.05,11.65 3.18,11.61 3.31,11.6 3.44,11.64 3.57,11.73 3.7,11.84 3.82,11.96 3.95,12.1 4.08,12.22 4.21,12.32 4.34,12.41 4.47,12.47 4.6,12.51 4.73,12.54 4.86,12.56 4.99,12.57 5.12,12.58 5.25,12.58 5.38,12.58 5.51,12.58 5.64,12.58 5.77,12.58 5.9,12.58 6.03,12.58 6.16,12.58 6.29,12.58 6.42,12.58 6.55,12.57 6.68,12.56 6.81,12.55 6.94,12.53 7.07,12.5 7.2,12.47 7.33,12.43 7.46,12.39 7.58,12.34 7.71,12.31 7.84,12.28 7.97,12.26 8.1,12.26 8.23,12.28 8.36,12.31 8.49,12.35 8.62,12.39 8.75,12.43 8.88,12.47 9.01,12.51 9.14,12.53 9.27,12.55 9.4,12.56 9.53,12.57 9.66,12.58 9.79,12.58 9.92,12.58 10.05,12.58 10.18,12.58 10.31,12.58 10.44,12.58 10.57,12.58 10.7,12.58 10.83,12.58 10.96,12.58 11.09,12.58 11.22,12.58 11.35,12.58 11.47,12.58 11.6,12.58 11.73,12.58 11.86,12.58 11.99,12.58 12.12,12.58 12.25,12.58 12.38,12.57 12.51,12.56 12.64,12.54 12.77,12.52 12.9,12.47 13.03,12.41 13.16,12.33 13.29,12.23 13.42,12.11 13.55,11.98 13.68,11.86 13.81,11.75 13.94,11.67 14.07,11.63 14.2,11.63 14.33,11.69 14.46,11.78 14.59,11.89 14.72,12.02 14.85,12.15 14.98,12.26 15.11,12.36 15.23,12.43 15.36,12.49 15.49,12.52 15.62,12.55 15.75,12.56 15.88,12.57 16.01,12.58 16.14,12.58 16.27,12.58 16.4,12.58 16.53,12.58 " class="primitive"/>
          </g>
          <g transform="translate(200.56,87.75)" id="img-8bbb4c17-35" stroke-dasharray="none" stroke="#00CD66" class="color_Area_4">
            <path fill="none" d="M-23.93,8.69 L-23.74,8.69 -23.55,8.68 -23.36,8.66 -23.18,8.61 -22.99,8.5 -22.8,8.28 -22.61,7.84 -22.43,7.07 -22.24,5.8 -22.05,3.84 -21.86,1.04 -21.67,-2.7 -21.49,-7.31 -21.3,-12.62 -21.11,-18.3 -20.92,-23.95 -20.74,-29.18 -20.55,-33.67 -20.36,-37.27 -20.17,-39.94 -19.99,-41.79 -19.8,-42.97 -19.61,-43.68 -19.42,-44.08 -19.24,-44.28 -19.05,-44.38 -18.86,-44.42 -18.67,-44.43 -18.48,-44.43 -18.3,-44.42 -18.11,-44.39 -17.92,-44.34 -17.73,-44.25 -17.55,-44.1 -17.36,-43.87 -17.17,-43.52 -16.98,-43.02 -16.8,-42.35 -16.61,-41.47 -16.42,-40.39 -16.23,-39.1 -16.05,-37.63 -15.86,-35.98 -15.67,-34.19 -15.48,-32.26 -15.29,-30.22 -15.11,-28.06 -14.92,-25.84 -14.73,-23.57 -14.54,-21.33 -14.36,-19.17 -14.17,-17.14 -13.98,-15.29 -13.79,-13.64 -13.61,-12.2 -13.42,-10.95 -13.23,-9.9 -13.04,-9 -12.85,-8.22 -12.67,-7.5 -12.48,-6.79 -12.29,-6.05 -12.1,-5.23 -11.92,-4.34 -11.73,-3.39 -11.54,-2.42 -11.35,-1.48 -11.17,-0.62 -10.98,0.12 -10.79,0.75 -10.6,1.29 -10.42,1.75 -10.23,2.18 -10.04,2.6 -9.85,3.01 -9.66,3.41 -9.48,3.77 -9.29,4.08 -9.1,4.35 -8.91,4.59 -8.73,4.81 -8.54,5.04 -8.35,5.28 -8.16,5.55 -7.98,5.85 -7.79,6.15 -7.6,6.45 -7.41,6.73 -7.22,6.97 -7.04,7.16 -6.85,7.29 -6.66,7.36 -6.47,7.38 -6.29,7.37 -6.1,7.33 -5.91,7.31 -5.72,7.3 -5.54,7.32 -5.35,7.38 -5.16,7.45 -4.97,7.52 -4.79,7.58 -4.6,7.61 -4.41,7.62 -4.22,7.59 -4.03,7.55 -3.85,7.51 -3.66,7.48 -3.47,7.48 -3.28,7.5 -3.1,7.56 -2.91,7.64 -2.72,7.74 -2.53,7.83 -2.35,7.9 -2.16,7.96 -1.97,8 -1.78,8.03 -1.6,8.03 -1.41,8.03 -1.22,8 -1.03,7.95 -0.84,7.87 -0.66,7.78 -0.47,7.68 -0.28,7.57 -0.09,7.48 0.09,7.39 0.28,7.34 0.47,7.31 0.66,7.33 0.84,7.38 1.03,7.47 1.22,7.58 1.41,7.69 1.6,7.79 1.78,7.87 1.97,7.92 2.16,7.94 2.35,7.96 2.53,7.98 2.72,8.02 2.91,8.07 3.1,8.13 3.28,8.18 3.47,8.23 3.66,8.25 3.85,8.26 4.03,8.26 4.22,8.26 4.41,8.28 4.6,8.3 4.79,8.34 4.97,8.4 5.16,8.46 5.35,8.51 5.54,8.56 5.72,8.59 5.91,8.61 6.1,8.6 6.29,8.58 6.47,8.54 6.66,8.48 6.85,8.42 7.04,8.36 7.22,8.32 7.41,8.29 7.6,8.29 7.79,8.31 7.98,8.35 8.16,8.4 8.35,8.45 8.54,8.49 8.73,8.51 8.91,8.51 9.1,8.51 9.29,8.49 9.48,8.48 9.66,8.47 9.85,8.48 10.04,8.5 10.23,8.54 10.42,8.57 10.6,8.6 10.79,8.63 10.98,8.64 11.17,8.64 11.35,8.63 11.54,8.61 11.73,8.58 11.92,8.55 12.1,8.52 12.29,8.49 12.48,8.48 12.67,8.48 12.85,8.5 13.04,8.53 13.23,8.57 13.42,8.6 13.61,8.63 13.79,8.65 13.98,8.67 14.17,8.68 14.36,8.69 14.54,8.69 14.73,8.69 14.92,8.69 15.11,8.69 15.29,8.69 15.48,8.68 15.67,8.67 15.86,8.66 16.05,8.64 16.23,8.61 16.42,8.58 16.61,8.54 16.8,8.51 16.98,8.49 17.17,8.48 17.36,8.49 17.55,8.51 17.73,8.54 17.92,8.57 18.11,8.6 18.3,8.63 18.48,8.66 18.67,8.67 18.86,8.68 19.05,8.68 19.24,8.68 19.42,8.66 19.61,8.64 19.8,8.61 19.99,8.56 20.17,8.5 20.36,8.43 20.55,8.36 20.74,8.31 20.92,8.28 21.11,8.27 21.3,8.3 21.49,8.35 21.67,8.41 21.86,8.48 22.05,8.54 22.24,8.59 22.43,8.63 22.61,8.66 22.8,8.68 22.99,8.68 23.18,8.69 23.36,8.69 23.55,8.69 23.74,8.69 23.93,8.69 " class="primitive"/>
          </g>
        </g>
      </g>
    </g>
  </g>
  <g class="guide ylabels" font-size="4.59" font-family="CMU Serif" fill="#6C606B" id="img-8bbb4c17-36">
    <g transform="translate(175.74,96.44)" id="img-8bbb4c17-37">
      <g class="primitive">
        <text text-anchor="end" dy="0.35em">0.000</text>
      </g>
    </g>
    <g transform="translate(175.74,66.63)" id="img-8bbb4c17-38">
      <g class="primitive">
        <text text-anchor="end" dy="0.35em">0.005</text>
      </g>
    </g>
    <g transform="translate(175.74,36.81)" id="img-8bbb4c17-39">
      <g class="primitive">
        <text text-anchor="end" dy="0.35em">0.010</text>
      </g>
    </g>
    <g transform="translate(175.74,7)" id="img-8bbb4c17-40">
      <g class="primitive">
        <text text-anchor="end" dy="0.35em">0.015</text>
      </g>
    </g>
  </g>
  <g font-size="4.59" font-family="CMU Serif" fill="#564A55" stroke="#000000" stroke-opacity="0.000" id="img-8bbb4c17-41">
    <g transform="translate(159.14,49.72)" id="img-8bbb4c17-42">
      <g class="primitive">
        <text text-anchor="middle" dy="0.35em" transform="rotate(-90,0, 2)">Density</text>
      </g>
    </g>
  </g>
</g>
<g class="plotroot xscalable yscalable" id="img-8bbb4c17-43">
  <g font-size="4.59" font-family="CMU Serif" fill="#564A55" stroke="#000000" stroke-opacity="0.000" id="img-8bbb4c17-44">
    <g transform="translate(85.87,107.72)" id="img-8bbb4c17-45">
      <g class="primitive">
        <text text-anchor="middle" dy="0.6em">Proper Motion Right Ascension (mas/yr)</text>
      </g>
    </g>
  </g>
  <g class="guide xlabels" font-size="4.59" font-family="CMU Serif" fill="#6C606B" id="img-8bbb4c17-46">
    <g transform="translate(28.94,99.44)" id="img-8bbb4c17-47">
      <g class="primitive">
        <text text-anchor="middle" dy="0.6em">0</text>
      </g>
    </g>
    <g transform="translate(68.79,99.44)" id="img-8bbb4c17-48">
      <g class="primitive">
        <text text-anchor="middle" dy="0.6em">2.00×10³</text>
      </g>
    </g>
    <g transform="translate(108.64,99.44)" id="img-8bbb4c17-49">
      <g class="primitive">
        <text text-anchor="middle" dy="0.6em">4.00×10³</text>
      </g>
    </g>
  </g>
  <g clip-path="url(#img-8bbb4c17-50)">
    <g id="img-8bbb4c17-51">
      <g pointer-events="visible" stroke-width="0.3" fill="#000000" fill-opacity="0.000" stroke="#000000" stroke-opacity="0.000" class="guide background" id="img-8bbb4c17-52">
        <g transform="translate(85.87,51.72)" id="img-8bbb4c17-53">
          <path d="M-59.13,-46.72 L59.13,-46.72 59.13,46.72 -59.13,46.72  z" class="primitive"/>
        </g>
      </g>
      <g class="guide ygridlines xfixed" stroke-dasharray="0.5,0.5" stroke-width="0.2" stroke="#D0D0E0" id="img-8bbb4c17-54">
        <g transform="translate(85.87,96.44)" id="img-8bbb4c17-55">
          <path fill="none" d="M-59.13,0 L59.13,0 " class="primitive"/>
        </g>
        <g transform="translate(85.87,66.63)" id="img-8bbb4c17-56">
          <path fill="none" d="M-59.13,0 L59.13,0 " class="primitive"/>
        </g>
        <g transform="translate(85.87,36.81)" id="img-8bbb4c17-57">
          <path fill="none" d="M-59.13,0 L59.13,0 " class="primitive"/>
        </g>
        <g transform="translate(85.87,7)" id="img-8bbb4c17-58">
          <path fill="none" d="M-59.13,0 L59.13,0 " class="primitive"/>
        </g>
      </g>
      <g class="guide xgridlines yfixed" stroke-dasharray="0.5,0.5" stroke-width="0.2" stroke="#D0D0E0" id="img-8bbb4c17-59">
        <g transform="translate(28.94,51.72)" id="img-8bbb4c17-60">
          <path fill="none" d="M0,-46.72 L0,46.72 " class="primitive"/>
        </g>
        <g transform="translate(68.79,51.72)" id="img-8bbb4c17-61">
          <path fill="none" d="M0,-46.72 L0,46.72 " class="primitive"/>
        </g>
        <g transform="translate(108.64,51.72)" id="img-8bbb4c17-62">
          <path fill="none" d="M0,-46.72 L0,46.72 " class="primitive"/>
        </g>
      </g>
      <g class="plotpanel" id="img-8bbb4c17-63">
        <metadata>
          <boundingbox value="26.740833333333327mm 5.0mm 118.25916666666667mm 93.44166666666666mm"/>
          <unitbox value="-110.38012878625392 0.015335414143296375 5935.435190077534 -0.01567082828659275"/>
        </metadata>
        <g stroke-width="0.3" fill="#000000" fill-opacity="0.000" class="geometry" id="img-8bbb4c17-64">
          <g transform="translate(68.72,95.01)" id="img-8bbb4c17-65" stroke-dasharray="none" stroke="#FF6347" class="color_Area_1">
            <path fill="none" d="M-41.35,1.43 L-41.02,1.42 -40.7,1.28 -40.38,0.07 -40.05,-4.65 -39.73,-13.2 -39.4,-20.74 -39.08,-24.06 -38.75,-24.78 -38.43,-24.84 -38.11,-24.84 -37.78,-24.75 -37.46,-24.38 -37.13,-23.35 -36.81,-21.45 -36.48,-18.76 -36.16,-15.66 -35.84,-12.89 -35.51,-10.75 -35.19,-8.65 -34.86,-6.2 -34.54,-4.07 -34.21,-2.83 -33.89,-2.2 -33.57,-1.74 -33.24,-1.16 -32.92,-0.59 -32.59,-0.29 -32.27,-0.2 -31.94,-0.07 -31.62,0.25 -31.3,0.56 -30.97,0.71 -30.65,0.83 -30.32,0.95 -30,1.03 -29.67,1.1 -29.35,1.17 -29.03,1.15 -28.7,1.06 -28.38,0.89 -28.05,0.75 -27.73,0.75 -27.4,0.9 -27.08,1.09 -26.75,1.23 -26.43,1.31 -26.11,1.35 -25.78,1.38 -25.46,1.39 -25.13,1.38 -24.81,1.37 -24.48,1.36 -24.16,1.33 -23.84,1.33 -23.51,1.38 -23.19,1.42 -22.86,1.43 -22.54,1.4 -22.21,1.35 -21.89,1.32 -21.57,1.36 -21.24,1.41 -20.92,1.43 -20.59,1.43 -20.27,1.43 -19.94,1.43 -19.62,1.43 -19.3,1.43 -18.97,1.42 -18.65,1.4 -18.32,1.37 -18,1.38 -17.67,1.38 -17.35,1.36 -17.03,1.36 -16.7,1.35 -16.38,1.34 -16.05,1.35 -15.73,1.39 -15.4,1.42 -15.08,1.43 -14.76,1.43 -14.43,1.43 -14.11,1.43 -13.78,1.43 -13.46,1.43 -13.13,1.43 -12.81,1.43 -12.49,1.43 -12.16,1.43 -11.84,1.43 -11.51,1.43 -11.19,1.43 -10.86,1.43 -10.54,1.43 -10.22,1.43 -9.89,1.43 -9.57,1.43 -9.24,1.43 -8.92,1.43 -8.59,1.43 -8.27,1.43 -7.95,1.43 -7.62,1.43 -7.3,1.43 -6.97,1.43 -6.65,1.43 -6.32,1.43 -6,1.43 -5.68,1.43 -5.35,1.43 -5.03,1.42 -4.7,1.39 -4.38,1.37 -4.05,1.39 -3.73,1.42 -3.41,1.43 -3.08,1.43 -2.76,1.43 -2.43,1.43 -2.11,1.43 -1.78,1.43 -1.46,1.43 -1.14,1.43 -0.81,1.43 -0.49,1.43 -0.16,1.43 0.16,1.43 0.49,1.43 0.81,1.43 1.14,1.43 1.46,1.43 1.78,1.43 2.11,1.43 2.43,1.43 2.76,1.43 3.08,1.43 3.41,1.43 3.73,1.43 4.05,1.43 4.38,1.43 4.7,1.43 5.03,1.43 5.35,1.43 5.68,1.43 6,1.43 6.32,1.43 6.65,1.43 6.97,1.43 7.3,1.43 7.62,1.43 7.95,1.43 8.27,1.43 8.59,1.43 8.92,1.43 9.24,1.43 9.57,1.43 9.89,1.43 10.22,1.43 10.54,1.43 10.86,1.43 11.19,1.43 11.51,1.43 11.84,1.43 12.16,1.43 12.49,1.43 12.81,1.43 13.13,1.43 13.46,1.43 13.78,1.43 14.11,1.43 14.43,1.43 14.76,1.43 15.08,1.43 15.4,1.43 15.73,1.43 16.05,1.43 16.38,1.43 16.7,1.43 17.03,1.43 17.35,1.43 17.67,1.43 18,1.43 18.32,1.43 18.65,1.43 18.97,1.43 19.3,1.43 19.62,1.43 19.94,1.43 20.27,1.43 20.59,1.43 20.92,1.43 21.24,1.43 21.57,1.43 21.89,1.43 22.21,1.43 22.54,1.43 22.86,1.43 23.19,1.43 23.51,1.43 23.84,1.43 24.16,1.43 24.48,1.43 24.81,1.43 25.13,1.43 25.46,1.43 25.78,1.43 26.11,1.43 26.43,1.43 26.75,1.43 27.08,1.43 27.4,1.43 27.73,1.43 28.05,1.43 28.38,1.43 28.7,1.43 29.03,1.43 29.35,1.43 29.67,1.43 30,1.43 30.32,1.43 30.65,1.43 30.97,1.43 31.3,1.43 31.62,1.43 31.94,1.43 32.27,1.43 32.59,1.43 32.92,1.43 33.24,1.43 33.57,1.43 33.89,1.43 34.21,1.43 34.54,1.43 34.86,1.43 35.19,1.43 35.51,1.43 35.84,1.43 36.16,1.43 36.48,1.43 36.81,1.43 37.13,1.43 37.46,1.43 37.78,1.43 38.11,1.43 38.43,1.43 38.75,1.43 39.08,1.43 39.4,1.41 39.73,1.39 40.05,1.38 40.38,1.4 40.7,1.42 41.02,1.43 41.35,1.43 " class="primitive"/>
          </g>
          <g transform="translate(84.98,95.42)" id="img-8bbb4c17-66" stroke-dasharray="none" stroke="#B23AEE" class="color_Area_3">
            <path fill="none" d="M-58.02,1.02 L-57.57,1 -57.11,0.73 -56.66,-0.92 -56.2,-5.76 -55.75,-12.29 -55.29,-16.19 -54.84,-17.2 -54.38,-17.33 -53.93,-17.33 -53.47,-17.32 -53.02,-17.24 -52.56,-16.92 -52.11,-16.12 -51.65,-14.71 -51.19,-12.76 -50.74,-10.64 -50.28,-8.56 -49.83,-6.56 -49.37,-4.96 -48.92,-3.82 -48.46,-3 -48.01,-2.35 -47.55,-1.73 -47.1,-1.16 -46.64,-0.73 -46.19,-0.42 -45.73,-0.15 -45.28,0.06 -44.82,0.2 -44.37,0.33 -43.91,0.34 -43.46,0.33 -43,0.38 -42.55,0.44 -42.09,0.57 -41.64,0.68 -41.18,0.7 -40.73,0.76 -40.27,0.87 -39.82,0.93 -39.36,0.92 -38.91,0.87 -38.45,0.83 -38,0.88 -37.54,0.94 -37.09,0.96 -36.63,0.94 -36.18,0.92 -35.72,0.91 -35.27,0.92 -34.81,0.94 -34.36,0.94 -33.9,0.96 -33.45,0.99 -32.99,1.01 -32.54,1.02 -32.08,1.01 -31.63,0.99 -31.17,0.97 -30.72,0.98 -30.26,0.99 -29.81,0.97 -29.35,0.96 -28.9,0.97 -28.44,0.98 -27.99,0.99 -27.53,1 -27.08,1 -26.62,0.99 -26.17,1 -25.71,1.02 -25.26,1.02 -24.8,1.02 -24.35,1.02 -23.89,1.02 -23.44,1.02 -22.98,1.01 -22.53,0.99 -22.07,0.98 -21.62,0.98 -21.16,0.99 -20.71,1 -20.25,1 -19.8,0.99 -19.34,1 -18.89,1.01 -18.43,1.02 -17.98,1.02 -17.52,1.02 -17.06,1.02 -16.61,1.02 -16.15,1.02 -15.7,1.02 -15.24,1.02 -14.79,1.02 -14.33,1.01 -13.88,0.99 -13.42,1 -12.97,1.01 -12.51,1.02 -12.06,1.02 -11.6,1.02 -11.15,1.02 -10.69,1.02 -10.24,1.02 -9.78,1.01 -9.33,1 -8.87,0.99 -8.42,1 -7.96,1.02 -7.51,1.02 -7.05,1.02 -6.6,1.02 -6.14,1.02 -5.69,1.02 -5.23,1.02 -4.78,1.02 -4.32,1.02 -3.87,1.02 -3.41,1.02 -2.96,1.02 -2.5,1.02 -2.05,1.02 -1.59,1.02 -1.14,1.02 -0.68,1.02 -0.23,1.02 0.23,1.02 0.68,1.02 1.14,1.02 1.59,1.02 2.05,1.02 2.5,1.02 2.96,1.02 3.41,1.02 3.87,1 4.32,0.99 4.78,1 5.23,1.01 5.69,1.02 6.14,1.02 6.6,1.02 7.05,1.02 7.51,1.02 7.96,1.02 8.42,1.02 8.87,1.02 9.33,1.02 9.78,1.02 10.24,1.02 10.69,1.02 11.15,1.02 11.6,1.02 12.06,1.02 12.51,1.02 12.97,1.02 13.42,1.02 13.88,1.02 14.33,1.02 14.79,1.02 15.24,1.02 15.7,1.02 16.15,1.02 16.61,1.02 17.06,1.02 17.52,1.02 17.98,1.02 18.43,1.02 18.89,1.02 19.34,1.02 19.8,1.02 20.25,1.02 20.71,1.02 21.16,1.02 21.62,1.02 22.07,1.02 22.53,1.02 22.98,1.02 23.44,1.02 23.89,1.02 24.35,1.02 24.8,1.02 25.26,1.02 25.71,1.02 26.17,1.02 26.62,1.02 27.08,1.02 27.53,1.02 27.99,1.02 28.44,1.02 28.9,1.02 29.35,1.02 29.81,1.02 30.26,1.02 30.72,1.02 31.17,1.02 31.63,1.02 32.08,1.02 32.54,1.02 32.99,1.02 33.45,1.02 33.9,1.02 34.36,1.02 34.81,1.02 35.27,1.02 35.72,1.02 36.18,1.02 36.63,1.02 37.09,1.02 37.54,1.02 38,1.02 38.45,1.02 38.91,1.02 39.36,1.02 39.82,1.02 40.27,1.02 40.73,1.02 41.18,1.02 41.64,1.02 42.09,1.02 42.55,1.02 43,1.02 43.46,1.02 43.91,1.02 44.37,1.02 44.82,1.02 45.28,1.02 45.73,1.02 46.19,1.02 46.64,1.02 47.1,1.02 47.55,1.02 48.01,1.02 48.46,1.02 48.92,1.02 49.37,1.02 49.83,1.02 50.28,1.02 50.74,1.02 51.19,1.02 51.65,1.02 52.11,1.02 52.56,1.02 53.02,1.02 53.47,1.02 53.93,1.02 54.38,1.02 54.84,1.02 55.29,1.02 55.75,1 56.2,0.99 56.66,1 57.11,1.02 57.57,1.02 58.02,1.02 " class="primitive"/>
          </g>
          <g transform="translate(32.52,82.96)" id="img-8bbb4c17-67" stroke-dasharray="none" stroke="#4169E1" class="color_Area_2">
            <path fill="none" d="M-4.39,13.48 L-4.35,13.48 -4.32,13.48 -4.29,13.48 -4.25,13.47 -4.22,13.46 -4.18,13.44 -4.15,13.4 -4.11,13.34 -4.08,13.24 -4.04,13.08 -4.01,12.83 -3.98,12.45 -3.94,11.89 -3.91,11.11 -3.87,10.05 -3.84,8.65 -3.8,6.86 -3.77,4.64 -3.73,1.99 -3.7,-1.08 -3.67,-4.52 -3.63,-8.25 -3.6,-12.17 -3.56,-16.16 -3.53,-20.08 -3.49,-23.81 -3.46,-27.25 -3.43,-30.31 -3.39,-32.95 -3.36,-35.16 -3.32,-36.94 -3.29,-38.34 -3.25,-39.39 -3.22,-40.16 -3.18,-40.71 -3.15,-41.09 -3.12,-41.33 -3.08,-41.49 -3.05,-41.59 -3.01,-41.65 -2.98,-41.69 -2.94,-41.7 -2.91,-41.71 -2.87,-41.71 -2.84,-41.71 -2.81,-41.7 -2.77,-41.68 -2.74,-41.65 -2.7,-41.61 -2.67,-41.55 -2.63,-41.46 -2.6,-41.35 -2.56,-41.19 -2.53,-40.98 -2.5,-40.72 -2.46,-40.39 -2.43,-39.99 -2.39,-39.52 -2.36,-38.97 -2.32,-38.35 -2.29,-37.66 -2.25,-36.9 -2.22,-36.08 -2.19,-35.19 -2.15,-34.25 -2.12,-33.24 -2.08,-32.16 -2.05,-31.02 -2.01,-29.8 -1.98,-28.5 -1.94,-27.13 -1.91,-25.69 -1.88,-24.19 -1.84,-22.63 -1.81,-21.04 -1.77,-19.43 -1.74,-17.83 -1.7,-16.26 -1.67,-14.76 -1.64,-13.33 -1.6,-12 -1.57,-10.77 -1.53,-9.65 -1.5,-8.63 -1.46,-7.68 -1.43,-6.81 -1.39,-5.98 -1.36,-5.18 -1.33,-4.39 -1.29,-3.63 -1.26,-2.87 -1.22,-2.13 -1.19,-1.41 -1.15,-0.71 -1.12,-0.05 -1.08,0.57 -1.05,1.16 -1.02,1.73 -0.98,2.27 -0.95,2.79 -0.91,3.3 -0.88,3.79 -0.84,4.28 -0.81,4.75 -0.77,5.21 -0.74,5.65 -0.71,6.06 -0.67,6.44 -0.64,6.78 -0.6,7.08 -0.57,7.34 -0.53,7.54 -0.5,7.69 -0.46,7.78 -0.43,7.82 -0.4,7.81 -0.36,7.76 -0.33,7.68 -0.29,7.59 -0.26,7.5 -0.22,7.42 -0.19,7.38 -0.15,7.39 -0.12,7.46 -0.09,7.59 -0.05,7.8 -0.02,8.06 0.02,8.37 0.05,8.72 0.09,9.09 0.12,9.46 0.15,9.81 0.19,10.14 0.22,10.43 0.26,10.69 0.29,10.9 0.33,11.08 0.36,11.23 0.4,11.36 0.43,11.48 0.46,11.6 0.5,11.71 0.53,11.83 0.57,11.95 0.6,12.07 0.64,12.18 0.67,12.27 0.71,12.34 0.74,12.4 0.77,12.43 0.81,12.44 0.84,12.43 0.88,12.41 0.91,12.39 0.95,12.36 0.98,12.34 1.02,12.32 1.05,12.31 1.08,12.32 1.12,12.33 1.15,12.35 1.19,12.38 1.22,12.42 1.26,12.45 1.29,12.48 1.33,12.52 1.36,12.55 1.39,12.59 1.43,12.63 1.46,12.67 1.5,12.72 1.53,12.77 1.57,12.83 1.6,12.9 1.64,12.96 1.67,13.02 1.7,13.07 1.74,13.11 1.77,13.15 1.81,13.17 1.84,13.19 1.88,13.2 1.91,13.21 1.94,13.21 1.98,13.22 2.01,13.24 2.05,13.25 2.08,13.28 2.12,13.3 2.15,13.33 2.19,13.35 2.22,13.38 2.25,13.4 2.29,13.42 2.32,13.44 2.36,13.45 2.39,13.46 2.43,13.47 2.46,13.47 2.5,13.48 2.53,13.48 2.56,13.48 2.6,13.48 2.63,13.48 2.67,13.48 2.7,13.48 2.74,13.48 2.77,13.48 2.81,13.48 2.84,13.48 2.87,13.48 2.91,13.47 2.94,13.47 2.98,13.46 3.01,13.45 3.05,13.43 3.08,13.42 3.12,13.39 3.15,13.37 3.18,13.34 3.22,13.31 3.25,13.27 3.29,13.24 3.32,13.2 3.36,13.17 3.39,13.15 3.43,13.13 3.46,13.11 3.49,13.11 3.53,13.11 3.56,13.11 3.6,13.13 3.63,13.15 3.67,13.17 3.7,13.2 3.73,13.24 3.77,13.27 3.8,13.31 3.84,13.34 3.87,13.37 3.91,13.4 3.94,13.42 3.98,13.44 4.01,13.45 4.04,13.46 4.08,13.47 4.11,13.47 4.15,13.48 4.18,13.48 4.22,13.48 4.25,13.48 4.29,13.48 4.32,13.48 4.35,13.48 4.39,13.48 " class="primitive"/>
          </g>
          <g transform="translate(57.71,94.5)" id="img-8bbb4c17-68" stroke-dasharray="none" stroke="#00CD66" class="color_Area_4">
            <path fill="none" d="M-30.49,1.94 L-30.25,1.94 -30.01,1.9 -29.77,1.75 -29.53,1.19 -29.29,-0.31 -29.06,-3.27 -28.82,-7.55 -28.58,-12.11 -28.34,-15.67 -28.1,-17.69 -27.86,-18.54 -27.62,-18.79 -27.38,-18.85 -27.14,-18.86 -26.9,-18.86 -26.66,-18.85 -26.42,-18.83 -26.19,-18.76 -25.95,-18.59 -25.71,-18.27 -25.47,-17.8 -25.23,-17.19 -24.99,-16.38 -24.75,-15.3 -24.51,-13.94 -24.27,-12.37 -24.03,-10.74 -23.79,-9.2 -23.56,-7.87 -23.32,-6.8 -23.08,-5.92 -22.84,-5.11 -22.6,-4.28 -22.36,-3.42 -22.12,-2.61 -21.88,-1.94 -21.64,-1.47 -21.4,-1.19 -21.16,-0.98 -20.92,-0.7 -20.69,-0.3 -20.45,0.14 -20.21,0.47 -19.97,0.68 -19.73,0.83 -19.49,0.97 -19.25,1.1 -19.01,1.19 -18.77,1.27 -18.53,1.33 -18.29,1.37 -18.05,1.38 -17.82,1.34 -17.58,1.26 -17.34,1.19 -17.1,1.19 -16.86,1.26 -16.62,1.35 -16.38,1.4 -16.14,1.44 -15.9,1.48 -15.66,1.54 -15.42,1.6 -15.19,1.63 -14.95,1.64 -14.71,1.63 -14.47,1.6 -14.23,1.57 -13.99,1.58 -13.75,1.61 -13.51,1.64 -13.27,1.67 -13.03,1.72 -12.79,1.78 -12.55,1.82 -12.32,1.83 -12.08,1.82 -11.84,1.79 -11.6,1.75 -11.36,1.72 -11.12,1.7 -10.88,1.72 -10.64,1.77 -10.4,1.83 -10.16,1.88 -9.92,1.91 -9.69,1.92 -9.45,1.92 -9.21,1.9 -8.97,1.89 -8.73,1.88 -8.49,1.87 -8.25,1.85 -8.01,1.84 -7.77,1.84 -7.53,1.83 -7.29,1.84 -7.05,1.85 -6.82,1.86 -6.58,1.86 -6.34,1.85 -6.1,1.85 -5.86,1.85 -5.62,1.88 -5.38,1.91 -5.14,1.93 -4.9,1.94 -4.66,1.94 -4.42,1.94 -4.18,1.94 -3.95,1.94 -3.71,1.94 -3.47,1.94 -3.23,1.94 -2.99,1.94 -2.75,1.94 -2.51,1.94 -2.27,1.94 -2.03,1.93 -1.79,1.92 -1.55,1.9 -1.32,1.9 -1.08,1.91 -0.84,1.92 -0.6,1.93 -0.36,1.94 -0.12,1.94 0.12,1.94 0.36,1.94 0.6,1.94 0.84,1.94 1.08,1.94 1.32,1.93 1.55,1.91 1.79,1.88 2.03,1.84 2.27,1.83 2.51,1.85 2.75,1.88 2.99,1.91 3.23,1.93 3.47,1.94 3.71,1.94 3.95,1.94 4.18,1.94 4.42,1.93 4.66,1.92 4.9,1.91 5.14,1.9 5.38,1.9 5.62,1.91 5.86,1.91 6.1,1.9 6.34,1.9 6.58,1.91 6.82,1.92 7.05,1.93 7.29,1.94 7.53,1.94 7.77,1.94 8.01,1.94 8.25,1.94 8.49,1.94 8.73,1.94 8.97,1.94 9.21,1.94 9.45,1.94 9.69,1.94 9.92,1.94 10.16,1.94 10.4,1.94 10.64,1.94 10.88,1.94 11.12,1.94 11.36,1.94 11.6,1.94 11.84,1.94 12.08,1.94 12.32,1.94 12.55,1.94 12.79,1.94 13.03,1.94 13.27,1.94 13.51,1.94 13.75,1.94 13.99,1.94 14.23,1.94 14.47,1.94 14.71,1.94 14.95,1.94 15.19,1.94 15.42,1.94 15.66,1.94 15.9,1.94 16.14,1.94 16.38,1.94 16.62,1.94 16.86,1.94 17.1,1.94 17.34,1.94 17.58,1.94 17.82,1.94 18.05,1.94 18.29,1.94 18.53,1.94 18.77,1.94 19.01,1.94 19.25,1.94 19.49,1.94 19.73,1.94 19.97,1.94 20.21,1.94 20.45,1.94 20.69,1.94 20.92,1.94 21.16,1.94 21.4,1.94 21.64,1.94 21.88,1.94 22.12,1.94 22.36,1.94 22.6,1.94 22.84,1.94 23.08,1.94 23.32,1.94 23.56,1.94 23.79,1.94 24.03,1.94 24.27,1.94 24.51,1.94 24.75,1.94 24.99,1.94 25.23,1.94 25.47,1.94 25.71,1.94 25.95,1.94 26.19,1.94 26.42,1.94 26.66,1.94 26.9,1.94 27.14,1.94 27.38,1.94 27.62,1.93 27.86,1.91 28.1,1.9 28.34,1.88 28.58,1.88 28.82,1.88 29.06,1.9 29.29,1.92 29.53,1.93 29.77,1.94 30.01,1.94 30.25,1.94 30.49,1.94 " class="primitive"/>
          </g>
        </g>
      </g>
    </g>
  </g>
  <g class="guide ylabels" font-size="4.59" font-family="CMU Serif" fill="#6C606B" id="img-8bbb4c17-69">
    <g transform="translate(25.74,96.44)" id="img-8bbb4c17-70">
      <g class="primitive">
        <text text-anchor="end" dy="0.35em">0.000</text>
      </g>
    </g>
    <g transform="translate(25.74,66.63)" id="img-8bbb4c17-71">
      <g class="primitive">
        <text text-anchor="end" dy="0.35em">0.005</text>
      </g>
    </g>
    <g transform="translate(25.74,36.81)" id="img-8bbb4c17-72">
      <g class="primitive">
        <text text-anchor="end" dy="0.35em">0.010</text>
      </g>
    </g>
    <g transform="translate(25.74,7)" id="img-8bbb4c17-73">
      <g class="primitive">
        <text text-anchor="end" dy="0.35em">0.015</text>
      </g>
    </g>
  </g>
  <g font-size="4.59" font-family="CMU Serif" fill="#564A55" stroke="#000000" stroke-opacity="0.000" id="img-8bbb4c17-74">
    <g transform="translate(9.14,49.72)" id="img-8bbb4c17-75">
      <g class="primitive">
        <text text-anchor="middle" dy="0.35em" transform="rotate(-90,0, 2)">Density</text>
      </g>
    </g>
  </g>
</g>
<defs>
  <clipPath id="img-8bbb4c17-17">
    <path d="M176.74,5 L276.87,5 276.87,98.44 176.74,98.44 " />
  </clipPath>
  <clipPath id="img-8bbb4c17-50">
    <path d="M26.74,5 L145,5 145,98.44 26.74,98.44 " />
  </clipPath>
</defs>
</svg>
