<?xml version="1.0" encoding="UTF-8"?>
<svg xmlns="http://www.w3.org/2000/svg"
     xmlns:xlink="http://www.w3.org/1999/xlink"
     xmlns:gadfly="http://www.gadflyjl.org/ns"
     version="1.2"
     width="300mm" height="120mm" viewBox="0 0 300 120"
     stroke="none"
     fill="#000000"
     stroke-width="0.3"
     font-size="3.88"
>
<defs>
  <marker id="arrow" markerWidth="15" markerHeight="7" refX="5" refY="3.5" orient="auto" markerUnits="strokeWidth">
    <path d="M0,0 L15,3.5 L0,7 z" stroke="context-stroke" fill="context-stroke"/>
  </marker>
</defs>
<g class="plotroot xscalable yscalable" id="img-ff395ff4-1">
  <g font-size="3.88" font-family="'PT Sans','Helvetica Neue','Helvetica',sans-serif" fill="#564A55" stroke="#000000" stroke-opacity="0.000" id="img-ff395ff4-2">
    <g transform="translate(148.59,108.39)">
      <g class="primitive">
        <text text-anchor="middle" dy="0.6em">Pheromone Value</text>
      </g>
    </g>
  </g>
  <g class="guide xlabels" font-size="2.82" font-family="'PT Sans Caption','Helvetica Neue','Helvetica',sans-serif" fill="#6C606B" id="img-ff395ff4-3">
    <g transform="translate(21.63,101.72)">
      <g class="primitive">
        <text text-anchor="middle" dy="0.6em">0.00</text>
      </g>
    </g>
    <g transform="translate(93.5,101.72)">
      <g class="primitive">
        <text text-anchor="middle" dy="0.6em">0.02</text>
      </g>
    </g>
    <g transform="translate(165.37,101.72)">
      <g class="primitive">
        <text text-anchor="middle" dy="0.6em">0.04</text>
      </g>
    </g>
    <g transform="translate(237.24,101.72)">
      <g class="primitive">
        <text text-anchor="middle" dy="0.6em">0.06</text>
      </g>
    </g>
  </g>
  <g class="guide colorkey" id="img-ff395ff4-4">
    <g fill="#4C404B" font-size="2.82" font-family="'PT Sans','Helvetica Neue','Helvetica',sans-serif" id="img-ff395ff4-5">
      <g transform="translate(281.35,47.42)" id="img-ff395ff4-6" class="color_Area_1">
        <g class="primitive">
          <text dy="0.35em">Area 1</text>
        </g>
      </g>
      <g transform="translate(281.35,51.04)" id="img-ff395ff4-7" class="color_Area_2:_2x2">
        <g class="primitive">
          <text dy="0.35em">Area 2: 2x2</text>
        </g>
      </g>
      <g transform="translate(281.35,54.67)" id="img-ff395ff4-8" class="color_Area_2:_4x4">
        <g class="primitive">
          <text dy="0.35em">Area 2: 4x4</text>
        </g>
      </g>
      <g transform="translate(281.35,58.3)" id="img-ff395ff4-9" class="color_Area_3">
        <g class="primitive">
          <text dy="0.35em">Area 3</text>
        </g>
      </g>
      <g transform="translate(281.35,61.92)" id="img-ff395ff4-10" class="color_Area_4">
        <g class="primitive">
          <text dy="0.35em">Area 4</text>
        </g>
      </g>
    </g>
    <g fill-opacity="1" id="img-ff395ff4-11">
      <g transform="translate(279.45,47.42)" id="img-ff395ff4-12" stroke="#FFFFFF" class="color_Area_1" fill="#FF6347">
        <path d="M-0.91,-0.91 L0.91,-0.91 0.91,0.91 -0.91,0.91  z" class="primitive"/>
      </g>
      <g transform="translate(279.45,51.04)" id="img-ff395ff4-13" stroke="#FFFFFF" class="color_Area_2:_2x2" fill="#4169E1">
        <path d="M-0.91,-0.91 L0.91,-0.91 0.91,0.91 -0.91,0.91  z" class="primitive"/>
      </g>
      <g transform="translate(279.45,54.67)" id="img-ff395ff4-14" stroke="#FFFFFF" class="color_Area_2:_4x4" fill="#404040">
        <path d="M-0.91,-0.91 L0.91,-0.91 0.91,0.91 -0.91,0.91  z" class="primitive"/>
      </g>
      <g transform="translate(279.45,58.3)" id="img-ff395ff4-15" stroke="#FFFFFF" class="color_Area_3" fill="#B23AEE">
        <path d="M-0.91,-0.91 L0.91,-0.91 0.91,0.91 -0.91,0.91  z" class="primitive"/>
      </g>
      <g transform="translate(279.45,61.92)" id="img-ff395ff4-16" stroke="#FFFFFF" class="color_Area_4" fill="#00CD66">
        <path d="M-0.91,-0.91 L0.91,-0.91 0.91,0.91 -0.91,0.91  z" class="primitive"/>
      </g>
    </g>
    <g fill="#362A35" font-size="3.88" font-family="'PT Sans','Helvetica Neue','Helvetica',sans-serif" stroke="#000000" stroke-opacity="0.000" id="img-ff395ff4-17">
      <g transform="translate(278.54,43.6)" id="img-ff395ff4-18">
        <g class="primitive">
          <text dy="-0em">Area</text>
        </g>
      </g>
    </g>
  </g>
  <g clip-path="url(#img-ff395ff4-19)">
    <g id="img-ff395ff4-20">
      <g pointer-events="visible" stroke-width="0.3" fill="#000000" fill-opacity="0.000" stroke="#000000" stroke-opacity="0.000" class="guide background" id="img-ff395ff4-21">
        <g transform="translate(148.59,52.86)" id="img-ff395ff4-22">
          <path d="M-128.95,-47.86 L128.95,-47.86 128.95,47.86 -128.95,47.86  z" class="primitive"/>
        </g>
      </g>
      <g class="guide ygridlines xfixed" stroke-dasharray="0.5,0.5" stroke-width="0.2" stroke="#D0D0E0" id="img-ff395ff4-23">
        <g transform="translate(148.59,98.71)" id="img-ff395ff4-24">
          <path fill="none" d="M-128.95,0 L128.95,0 " class="primitive"/>
        </g>
        <g transform="translate(148.59,75.79)" id="img-ff395ff4-25">
          <path fill="none" d="M-128.95,0 L128.95,0 " class="primitive"/>
        </g>
        <g transform="translate(148.59,52.86)" id="img-ff395ff4-26">
          <path fill="none" d="M-128.95,0 L128.95,0 " class="primitive"/>
        </g>
        <g transform="translate(148.59,29.93)" id="img-ff395ff4-27">
          <path fill="none" d="M-128.95,0 L128.95,0 " class="primitive"/>
        </g>
        <g transform="translate(148.59,7)" id="img-ff395ff4-28">
          <path fill="none" d="M-128.95,0 L128.95,0 " class="primitive"/>
        </g>
      </g>
      <g class="guide xgridlines yfixed" stroke-dasharray="0.5,0.5" stroke-width="0.2" stroke="#D0D0E0" id="img-ff395ff4-29">
        <g transform="translate(21.63,52.86)" id="img-ff395ff4-30">
          <path fill="none" d="M0,-47.86 L0,47.86 " class="primitive"/>
        </g>
        <g transform="translate(93.5,52.86)" id="img-ff395ff4-31">
          <path fill="none" d="M0,-47.86 L0,47.86 " class="primitive"/>
        </g>
        <g transform="translate(165.37,52.86)" id="img-ff395ff4-32">
          <path fill="none" d="M0,-47.86 L0,47.86 " class="primitive"/>
        </g>
        <g transform="translate(237.24,52.86)" id="img-ff395ff4-33">
          <path fill="none" d="M0,-47.86 L0,47.86 " class="primitive"/>
        </g>
      </g>
      <g class="plotpanel" id="img-ff395ff4-34">
        <metadata>
          <boundingbox value="19.63166666666666mm 5.0mm 257.9083333333333mm 95.715mm"/>
          <unitbox value="-0.0005565608155777427 204.3613367497138 0.07177083617214815 -208.7226734994276"/>
        </metadata>
        <g stroke-width="0.3" fill="#000000" fill-opacity="0.000" class="geometry" id="img-ff395ff4-35">
          <g transform="translate(99.43,90.13)" id="img-ff395ff4-36" stroke-dasharray="none" stroke="#FF6347" class="color_Area_1">
            <path fill="none" d="M-95.59,8.58 L-94.84,8.58 -94.09,8.58 -93.34,8.58 -92.6,8.57 -91.85,8.56 -91.1,8.54 -90.35,8.51 -89.6,8.47 -88.85,8.39 -88.1,8.28 -87.35,8.11 -86.6,7.86 -85.85,7.52 -85.1,7.05 -84.35,6.44 -83.6,5.65 -82.85,4.66 -82.1,3.45 -81.35,2.02 -80.6,0.38 -79.85,-1.46 -79.1,-3.46 -78.35,-5.58 -77.6,-7.77 -76.85,-9.96 -76.1,-12.1 -75.35,-14.12 -74.6,-16 -73.85,-17.67 -73.1,-19.14 -72.35,-20.37 -71.6,-21.38 -70.85,-22.17 -70.1,-22.77 -69.35,-23.19 -68.6,-23.46 -67.85,-23.61 -67.1,-23.65 -66.35,-23.63 -65.6,-23.56 -64.85,-23.46 -64.1,-23.36 -63.35,-23.27 -62.6,-23.22 -61.85,-23.2 -61.11,-23.23 -60.36,-23.3 -59.61,-23.41 -58.86,-23.54 -58.11,-23.69 -57.36,-23.82 -56.61,-23.92 -55.86,-23.99 -55.11,-23.99 -54.36,-23.92 -53.61,-23.77 -52.86,-23.55 -52.11,-23.24 -51.36,-22.86 -50.61,-22.41 -49.86,-21.9 -49.11,-21.36 -48.36,-20.78 -47.61,-20.2 -46.86,-19.61 -46.11,-19.03 -45.36,-18.46 -44.61,-17.91 -43.86,-17.39 -43.11,-16.87 -42.36,-16.37 -41.61,-15.87 -40.86,-15.36 -40.11,-14.84 -39.36,-14.29 -38.61,-13.73 -37.86,-13.14 -37.11,-12.53 -36.36,-11.9 -35.61,-11.25 -34.86,-10.6 -34.11,-9.95 -33.36,-9.3 -32.61,-8.66 -31.86,-8.03 -31.11,-7.42 -30.37,-6.82 -29.62,-6.23 -28.87,-5.66 -28.12,-5.1 -27.37,-4.56 -26.62,-4.02 -25.87,-3.5 -25.12,-2.99 -24.37,-2.49 -23.62,-2 -22.87,-1.52 -22.12,-1.05 -21.37,-0.6 -20.62,-0.18 -19.87,0.23 -19.12,0.61 -18.37,0.97 -17.62,1.3 -16.87,1.59 -16.12,1.86 -15.37,2.1 -14.62,2.31 -13.87,2.5 -13.12,2.67 -12.37,2.82 -11.62,2.95 -10.87,3.07 -10.12,3.19 -9.37,3.3 -8.62,3.41 -7.87,3.53 -7.12,3.65 -6.37,3.78 -5.62,3.93 -4.87,4.08 -4.12,4.25 -3.37,4.42 -2.62,4.6 -1.87,4.78 -1.12,4.96 -0.37,5.14 0.37,5.3 1.12,5.44 1.87,5.57 2.62,5.68 3.37,5.77 4.12,5.84 4.87,5.89 5.62,5.93 6.37,5.95 7.12,5.96 7.87,5.96 8.62,5.96 9.37,5.96 10.12,5.96 10.87,5.97 11.62,6 12.37,6.04 13.12,6.1 13.87,6.17 14.62,6.26 15.37,6.36 16.12,6.47 16.87,6.58 17.62,6.7 18.37,6.82 19.12,6.93 19.87,7.04 20.62,7.15 21.37,7.25 22.12,7.34 22.87,7.43 23.62,7.51 24.37,7.6 25.12,7.68 25.87,7.77 26.62,7.85 27.37,7.94 28.12,8.03 28.87,8.11 29.62,8.18 30.37,8.25 31.11,8.31 31.86,8.36 32.61,8.4 33.36,8.43 34.11,8.46 34.86,8.47 35.61,8.47 36.36,8.47 37.11,8.47 37.86,8.46 38.61,8.45 39.36,8.43 40.11,8.42 40.86,8.41 41.61,8.4 42.36,8.39 43.11,8.38 43.86,8.38 44.61,8.37 45.36,8.37 46.11,8.37 46.86,8.36 47.61,8.36 48.36,8.35 49.11,8.35 49.86,8.34 50.61,8.33 51.36,8.32 52.11,8.31 52.86,8.3 53.61,8.3 54.36,8.29 55.11,8.29 55.86,8.3 56.61,8.3 57.36,8.32 58.11,8.33 58.86,8.35 59.61,8.38 60.36,8.4 61.11,8.43 61.85,8.45 62.6,8.48 63.35,8.5 64.1,8.52 64.85,8.53 65.6,8.54 66.35,8.55 67.1,8.56 67.85,8.56 68.6,8.56 69.35,8.56 70.1,8.56 70.85,8.55 71.6,8.54 72.35,8.53 73.1,8.52 73.85,8.51 74.6,8.5 75.35,8.49 76.1,8.48 76.85,8.48 77.6,8.48 78.35,8.48 79.1,8.48 79.85,8.49 80.6,8.5 81.35,8.51 82.1,8.52 82.85,8.53 83.6,8.54 84.35,8.55 85.1,8.56 85.85,8.56 86.6,8.57 87.35,8.57 88.1,8.58 88.85,8.58 89.6,8.58 90.35,8.58 91.1,8.58 91.85,8.58 92.6,8.59 93.34,8.59 94.09,8.59 94.84,8.59 95.59,8.59 " class="primitive"/>
          </g>
          <g transform="translate(85.67,88.66)" id="img-ff395ff4-37" stroke-dasharray="none" stroke="#B23AEE" class="color_Area_3">
            <path fill="none" d="M-81.64,10.05 L-81,10.05 -80.36,10.05 -79.72,10.05 -79.08,10.04 -78.44,10.04 -77.8,10.03 -77.16,10.01 -76.52,9.99 -75.88,9.96 -75.24,9.91 -74.6,9.83 -73.96,9.73 -73.32,9.58 -72.68,9.39 -72.04,9.12 -71.4,8.78 -70.76,8.33 -70.12,7.78 -69.48,7.1 -68.84,6.28 -68.2,5.32 -67.56,4.21 -66.91,2.96 -66.27,1.57 -65.63,0.07 -64.99,-1.52 -64.35,-3.18 -63.71,-4.88 -63.07,-6.56 -62.43,-8.22 -61.79,-9.8 -61.15,-11.28 -60.51,-12.65 -59.87,-13.87 -59.23,-14.95 -58.59,-15.88 -57.95,-16.66 -57.31,-17.3 -56.67,-17.8 -56.03,-18.18 -55.39,-18.45 -54.75,-18.63 -54.11,-18.73 -53.47,-18.76 -52.83,-18.74 -52.19,-18.69 -51.55,-18.62 -50.91,-18.54 -50.27,-18.46 -49.63,-18.39 -48.99,-18.34 -48.35,-18.32 -47.7,-18.33 -47.06,-18.37 -46.42,-18.44 -45.78,-18.53 -45.14,-18.64 -44.5,-18.75 -43.86,-18.87 -43.22,-18.97 -42.58,-19.05 -41.94,-19.11 -41.3,-19.13 -40.66,-19.1 -40.02,-19.04 -39.38,-18.93 -38.74,-18.78 -38.1,-18.6 -37.46,-18.38 -36.82,-18.15 -36.18,-17.9 -35.54,-17.64 -34.9,-17.4 -34.26,-17.17 -33.62,-16.96 -32.98,-16.79 -32.34,-16.65 -31.7,-16.55 -31.06,-16.49 -30.42,-16.46 -29.78,-16.46 -29.14,-16.48 -28.49,-16.52 -27.85,-16.56 -27.21,-16.6 -26.57,-16.62 -25.93,-16.62 -25.29,-16.59 -24.65,-16.51 -24.01,-16.39 -23.37,-16.22 -22.73,-16 -22.09,-15.73 -21.45,-15.4 -20.81,-15.02 -20.17,-14.59 -19.53,-14.11 -18.89,-13.59 -18.25,-13.02 -17.61,-12.41 -16.97,-11.77 -16.33,-11.1 -15.69,-10.41 -15.05,-9.69 -14.41,-8.97 -13.77,-8.24 -13.13,-7.51 -12.49,-6.79 -11.85,-6.09 -11.21,-5.4 -10.57,-4.74 -9.93,-4.11 -9.28,-3.51 -8.64,-2.94 -8,-2.41 -7.36,-1.91 -6.72,-1.45 -6.08,-1.01 -5.44,-0.61 -4.8,-0.22 -4.16,0.14 -3.52,0.48 -2.88,0.8 -2.24,1.11 -1.6,1.41 -0.96,1.7 -0.32,1.98 0.32,2.25 0.96,2.51 1.6,2.76 2.24,3 2.88,3.23 3.52,3.45 4.16,3.67 4.8,3.88 5.44,4.09 6.08,4.3 6.72,4.51 7.36,4.73 8,4.94 8.64,5.17 9.28,5.39 9.93,5.63 10.57,5.86 11.21,6.1 11.85,6.34 12.49,6.57 13.13,6.81 13.77,7.03 14.41,7.25 15.05,7.46 15.69,7.66 16.33,7.85 16.97,8.02 17.61,8.19 18.25,8.34 18.89,8.48 19.53,8.6 20.17,8.71 20.81,8.81 21.45,8.9 22.09,8.97 22.73,9.04 23.37,9.09 24.01,9.14 24.65,9.19 25.29,9.23 25.93,9.27 26.57,9.31 27.21,9.34 27.85,9.37 28.49,9.4 29.14,9.43 29.78,9.46 30.42,9.49 31.06,9.51 31.7,9.53 32.34,9.55 32.98,9.56 33.62,9.57 34.26,9.58 34.9,9.59 35.54,9.59 36.18,9.59 36.82,9.58 37.46,9.58 38.1,9.57 38.74,9.55 39.38,9.54 40.02,9.52 40.66,9.49 41.3,9.47 41.94,9.45 42.58,9.42 43.22,9.4 43.86,9.38 44.5,9.36 45.14,9.35 45.78,9.35 46.42,9.35 47.06,9.35 47.7,9.36 48.35,9.38 48.99,9.4 49.63,9.42 50.27,9.44 50.91,9.46 51.55,9.48 52.19,9.5 52.83,9.51 53.47,9.52 54.11,9.53 54.75,9.53 55.39,9.54 56.03,9.54 56.67,9.55 57.31,9.55 57.95,9.56 58.59,9.57 59.23,9.59 59.87,9.6 60.51,9.62 61.15,9.65 61.79,9.67 62.43,9.7 63.07,9.73 63.71,9.76 64.35,9.79 64.99,9.82 65.63,9.85 66.27,9.88 66.91,9.9 67.56,9.93 68.2,9.95 68.84,9.97 69.48,9.98 70.12,10 70.76,10.01 71.4,10.02 72.04,10.03 72.68,10.03 73.32,10.04 73.96,10.04 74.6,10.05 75.24,10.05 75.88,10.05 76.52,10.05 77.16,10.05 77.8,10.05 78.44,10.05 79.08,10.05 79.72,10.05 80.36,10.05 81,10.05 81.64,10.05 " class="primitive"/>
          </g>
          <g transform="translate(61.52,82.17)" id="img-ff395ff4-38" stroke-dasharray="none" stroke="#4169E1" class="color_Area_2:_2x2">
            <path fill="none" d="M-49.6,16.54 L-49.21,16.54 -48.82,16.54 -48.43,16.53 -48.05,16.53 -47.66,16.51 -47.27,16.48 -46.88,16.44 -46.49,16.37 -46.1,16.26 -45.71,16.1 -45.32,15.86 -44.93,15.51 -44.54,15.03 -44.16,14.37 -43.77,13.5 -43.38,12.36 -42.99,10.93 -42.6,9.16 -42.21,7.04 -41.82,4.55 -41.43,1.69 -41.04,-1.49 -40.65,-4.96 -40.26,-8.64 -39.88,-12.46 -39.49,-16.32 -39.1,-20.14 -38.71,-23.82 -38.32,-27.29 -37.93,-30.49 -37.54,-33.36 -37.15,-35.9 -36.76,-38.08 -36.37,-39.92 -35.99,-41.45 -35.6,-42.68 -35.21,-43.67 -34.82,-44.44 -34.43,-45.04 -34.04,-45.49 -33.65,-45.83 -33.26,-46.09 -32.87,-46.29 -32.48,-46.44 -32.1,-46.56 -31.71,-46.65 -31.32,-46.73 -30.93,-46.78 -30.54,-46.81 -30.15,-46.8 -29.76,-46.75 -29.37,-46.64 -28.98,-46.45 -28.59,-46.19 -28.2,-45.84 -27.82,-45.41 -27.43,-44.88 -27.04,-44.28 -26.65,-43.61 -26.26,-42.89 -25.87,-42.15 -25.48,-41.4 -25.09,-40.68 -24.7,-40 -24.31,-39.39 -23.93,-38.86 -23.54,-38.42 -23.15,-38.06 -22.76,-37.77 -22.37,-37.54 -21.98,-37.33 -21.59,-37.12 -21.2,-36.88 -20.81,-36.56 -20.42,-36.15 -20.04,-35.61 -19.65,-34.92 -19.26,-34.08 -18.87,-33.09 -18.48,-31.94 -18.09,-30.66 -17.7,-29.27 -17.31,-27.79 -16.92,-26.25 -16.53,-24.67 -16.14,-23.09 -15.76,-21.52 -15.37,-19.97 -14.98,-18.47 -14.59,-17.01 -14.2,-15.58 -13.81,-14.19 -13.42,-12.83 -13.03,-11.49 -12.64,-10.16 -12.25,-8.83 -11.87,-7.51 -11.48,-6.2 -11.09,-4.9 -10.7,-3.63 -10.31,-2.4 -9.92,-1.22 -9.53,-0.12 -9.14,0.91 -8.75,1.86 -8.36,2.73 -7.98,3.51 -7.59,4.22 -7.2,4.87 -6.81,5.47 -6.42,6.04 -6.03,6.58 -5.64,7.1 -5.25,7.61 -4.86,8.11 -4.47,8.59 -4.08,9.07 -3.7,9.52 -3.31,9.96 -2.92,10.38 -2.53,10.78 -2.14,11.17 -1.75,11.54 -1.36,11.9 -0.97,12.26 -0.58,12.62 -0.19,12.98 0.19,13.34 0.58,13.69 0.97,14.04 1.36,14.38 1.75,14.7 2.14,14.99 2.53,15.26 2.92,15.49 3.31,15.68 3.7,15.84 4.08,15.96 4.47,16.03 4.86,16.08 5.25,16.09 5.64,16.08 6.03,16.05 6.42,16.01 6.81,15.96 7.2,15.9 7.59,15.85 7.98,15.81 8.36,15.79 8.75,15.78 9.14,15.79 9.53,15.82 9.92,15.87 10.31,15.93 10.7,15.99 11.09,16.07 11.48,16.14 11.87,16.21 12.25,16.27 12.64,16.33 13.03,16.38 13.42,16.42 13.81,16.46 14.2,16.48 14.59,16.5 14.98,16.52 15.37,16.53 15.76,16.53 16.14,16.54 16.53,16.54 16.92,16.54 17.31,16.54 17.7,16.54 18.09,16.54 18.48,16.54 18.87,16.54 19.26,16.54 19.65,16.54 20.04,16.53 20.42,16.52 20.81,16.51 21.2,16.5 21.59,16.48 21.98,16.46 22.37,16.44 22.76,16.41 23.15,16.38 23.54,16.34 23.93,16.3 24.31,16.27 24.7,16.23 25.09,16.2 25.48,16.18 25.87,16.17 26.26,16.16 26.65,16.17 27.04,16.18 27.43,16.21 27.82,16.24 28.2,16.27 28.59,16.31 28.98,16.34 29.37,16.38 29.76,16.41 30.15,16.44 30.54,16.47 30.93,16.49 31.32,16.5 31.71,16.51 32.1,16.52 32.48,16.52 32.87,16.52 33.26,16.52 33.65,16.51 34.04,16.5 34.43,16.48 34.82,16.45 35.21,16.42 35.6,16.37 35.99,16.32 36.37,16.26 36.76,16.2 37.15,16.12 37.54,16.05 37.93,15.98 38.32,15.91 38.71,15.86 39.1,15.81 39.49,15.79 39.88,15.78 40.26,15.8 40.65,15.83 41.04,15.88 41.43,15.94 41.82,16.01 42.21,16.08 42.6,16.15 42.99,16.22 43.38,16.29 43.77,16.34 44.16,16.39 44.54,16.43 44.93,16.46 45.32,16.49 45.71,16.51 46.1,16.52 46.49,16.53 46.88,16.54 47.27,16.54 47.66,16.54 48.05,16.54 48.43,16.54 48.82,16.55 49.21,16.55 49.6,16.55 " class="primitive"/>
          </g>
          <g transform="translate(142.36,92.55)" id="img-ff395ff4-39" stroke-dasharray="none" stroke="#00CD66" class="color_Area_4">
            <path fill="none" d="M-133.18,6.16 L-132.14,6.16 -131.1,6.14 -130.05,6.1 -129.01,5.99 -127.96,5.72 -126.92,5.14 -125.87,4.01 -124.83,2.06 -123.78,-0.96 -122.74,-5.2 -121.69,-10.51 -120.65,-16.51 -119.61,-22.61 -118.56,-28.2 -117.52,-32.83 -116.47,-36.29 -115.43,-38.66 -114.38,-40.12 -113.34,-40.94 -112.29,-41.32 -111.25,-41.38 -110.2,-41.17 -109.16,-40.71 -108.11,-40.07 -107.07,-39.34 -106.03,-38.7 -104.98,-38.3 -103.94,-38.2 -102.89,-38.37 -101.85,-38.68 -100.8,-38.9 -99.76,-38.84 -98.71,-38.34 -97.67,-37.3 -96.62,-35.73 -95.58,-33.71 -94.54,-31.35 -93.49,-28.81 -92.45,-26.23 -91.4,-23.7 -90.36,-21.28 -89.31,-18.99 -88.27,-16.81 -87.22,-14.75 -86.18,-12.83 -85.13,-11.04 -84.09,-9.41 -83.04,-7.92 -82,-6.59 -80.96,-5.38 -79.91,-4.28 -78.87,-3.3 -77.82,-2.44 -76.78,-1.69 -75.73,-1.03 -74.69,-0.44 -73.64,0.11 -72.6,0.65 -71.55,1.18 -70.51,1.69 -69.47,2.15 -68.42,2.54 -67.38,2.84 -66.33,3.07 -65.29,3.25 -64.24,3.41 -63.2,3.57 -62.15,3.71 -61.11,3.81 -60.06,3.85 -59.02,3.83 -57.97,3.8 -56.93,3.8 -55.89,3.87 -54.84,4.03 -53.8,4.27 -52.75,4.55 -51.71,4.84 -50.66,5.11 -49.62,5.33 -48.57,5.48 -47.53,5.57 -46.48,5.59 -45.44,5.56 -44.39,5.49 -43.35,5.4 -42.31,5.3 -41.26,5.21 -40.22,5.14 -39.17,5.09 -38.13,5.08 -37.08,5.12 -36.04,5.23 -34.99,5.38 -33.95,5.54 -32.9,5.69 -31.86,5.8 -30.82,5.87 -29.77,5.9 -28.73,5.91 -27.68,5.92 -26.64,5.94 -25.59,5.98 -24.55,6.02 -23.5,6.05 -22.46,6.06 -21.41,6.05 -20.37,6.03 -19.32,5.99 -18.28,5.96 -17.24,5.94 -16.19,5.94 -15.15,5.97 -14.1,6.01 -13.06,6.06 -12.01,6.1 -10.97,6.12 -9.92,6.14 -8.88,6.15 -7.83,6.16 -6.79,6.16 -5.75,6.15 -4.7,6.14 -3.66,6.12 -2.61,6.09 -1.57,6.05 -0.52,6 0.52,5.97 1.57,5.94 2.61,5.94 3.66,5.97 4.7,6 5.75,6.05 6.79,6.09 7.83,6.12 8.88,6.14 9.92,6.15 10.97,6.14 12.01,6.13 13.06,6.11 14.1,6.08 15.15,6.03 16.19,5.99 17.24,5.95 18.28,5.93 19.32,5.93 20.37,5.94 21.41,5.96 22.46,5.97 23.5,5.96 24.55,5.94 25.59,5.93 26.64,5.93 27.68,5.95 28.73,5.99 29.77,6.03 30.82,6.08 31.86,6.11 32.9,6.13 33.95,6.15 34.99,6.16 36.04,6.16 37.08,6.16 38.13,6.16 39.17,6.16 40.22,6.16 41.26,6.16 42.31,6.16 43.35,6.16 44.39,6.16 45.44,6.16 46.48,6.16 47.53,6.16 48.57,6.16 49.62,6.16 50.66,6.16 51.71,6.16 52.75,6.16 53.8,6.16 54.84,6.16 55.89,6.16 56.93,6.16 57.97,6.16 59.02,6.16 60.06,6.16 61.11,6.16 62.15,6.16 63.2,6.16 64.24,6.16 65.29,6.16 66.33,6.16 67.38,6.16 68.42,6.16 69.47,6.16 70.51,6.16 71.55,6.16 72.6,6.16 73.64,6.16 74.69,6.16 75.73,6.16 76.78,6.16 77.82,6.16 78.87,6.16 79.91,6.16 80.96,6.16 82,6.16 83.04,6.16 84.09,6.16 85.13,6.16 86.18,6.16 87.22,6.16 88.27,6.16 89.31,6.16 90.36,6.16 91.4,6.16 92.45,6.16 93.49,6.16 94.54,6.16 95.58,6.16 96.62,6.16 97.67,6.16 98.71,6.16 99.76,6.16 100.8,6.16 101.85,6.16 102.89,6.16 103.94,6.16 104.98,6.16 106.03,6.16 107.07,6.16 108.11,6.16 109.16,6.16 110.2,6.16 111.25,6.16 112.29,6.15 113.34,6.13 114.38,6.1 115.43,6.05 116.47,5.98 117.52,5.89 118.56,5.8 119.61,5.74 120.65,5.71 121.69,5.74 122.74,5.8 123.78,5.89 124.83,5.98 125.87,6.05 126.92,6.1 127.96,6.13 129.01,6.15 130.05,6.16 131.1,6.16 132.14,6.16 133.18,6.16 " class="primitive"/>
          </g>
          <g transform="translate(42.29,70.7)" id="img-ff395ff4-40" stroke-dasharray="none" stroke="#404040" class="color_Area_2:_4x4">
            <path fill="none" d="M-29.29,28.02 L-29.06,28.02 -28.83,28.01 -28.6,28.01 -28.37,28.01 -28.14,28 -27.91,28 -27.68,27.98 -27.45,27.97 -27.22,27.94 -26.99,27.91 -26.76,27.87 -26.53,27.81 -26.3,27.73 -26.07,27.63 -25.85,27.5 -25.62,27.32 -25.39,27.1 -25.16,26.81 -24.93,26.46 -24.7,26.02 -24.47,25.48 -24.24,24.83 -24.01,24.06 -23.78,23.14 -23.55,22.06 -23.32,20.81 -23.09,19.39 -22.86,17.78 -22.63,15.97 -22.4,13.97 -22.17,11.78 -21.94,9.41 -21.71,6.87 -21.48,4.18 -21.25,1.36 -21.02,-1.56 -20.79,-4.56 -20.56,-7.61 -20.33,-10.66 -20.1,-13.69 -19.87,-16.67 -19.64,-19.57 -19.41,-22.36 -19.18,-25.02 -18.95,-27.53 -18.72,-29.88 -18.49,-32.05 -18.26,-34.04 -18.03,-35.84 -17.8,-37.47 -17.57,-38.92 -17.34,-40.21 -17.12,-41.34 -16.89,-42.33 -16.66,-43.18 -16.43,-43.91 -16.2,-44.54 -15.97,-45.07 -15.74,-45.52 -15.51,-45.89 -15.28,-46.2 -15.05,-46.46 -14.82,-46.67 -14.59,-46.84 -14.36,-46.99 -14.13,-47.1 -13.9,-47.2 -13.67,-47.28 -13.44,-47.34 -13.21,-47.4 -12.98,-47.46 -12.75,-47.51 -12.52,-47.56 -12.29,-47.6 -12.06,-47.64 -11.83,-47.68 -11.6,-47.7 -11.37,-47.72 -11.14,-47.72 -10.91,-47.69 -10.68,-47.64 -10.45,-47.56 -10.22,-47.44 -9.99,-47.27 -9.76,-47.06 -9.53,-46.79 -9.3,-46.47 -9.07,-46.09 -8.84,-45.64 -8.62,-45.13 -8.39,-44.56 -8.16,-43.93 -7.93,-43.25 -7.7,-42.5 -7.47,-41.71 -7.24,-40.88 -7.01,-40.01 -6.78,-39.1 -6.55,-38.17 -6.32,-37.21 -6.09,-36.24 -5.86,-35.25 -5.63,-34.25 -5.4,-33.24 -5.17,-32.22 -4.94,-31.19 -4.71,-30.15 -4.48,-29.09 -4.25,-28.02 -4.02,-26.94 -3.79,-25.83 -3.56,-24.71 -3.33,-23.57 -3.1,-22.41 -2.87,-21.23 -2.64,-20.04 -2.41,-18.84 -2.18,-17.64 -1.95,-16.43 -1.72,-15.24 -1.49,-14.06 -1.26,-12.91 -1.03,-11.78 -0.8,-10.68 -0.57,-9.62 -0.34,-8.61 -0.11,-7.63 0.11,-6.7 0.34,-5.81 0.57,-4.96 0.8,-4.14 1.03,-3.36 1.26,-2.6 1.49,-1.87 1.72,-1.15 1.95,-0.46 2.18,0.23 2.41,0.9 2.64,1.56 2.87,2.21 3.1,2.85 3.33,3.47 3.56,4.07 3.79,4.66 4.02,5.23 4.25,5.77 4.48,6.28 4.71,6.77 4.94,7.24 5.17,7.67 5.4,8.09 5.63,8.48 5.86,8.86 6.09,9.23 6.32,9.59 6.55,9.94 6.78,10.3 7.01,10.67 7.24,11.05 7.47,11.43 7.7,11.84 7.93,12.26 8.16,12.69 8.39,13.14 8.62,13.59 8.84,14.05 9.07,14.52 9.3,14.98 9.53,15.44 9.76,15.89 9.99,16.33 10.22,16.76 10.45,17.18 10.68,17.58 10.91,17.97 11.14,18.34 11.37,18.71 11.6,19.07 11.83,19.42 12.06,19.77 12.29,20.12 12.52,20.47 12.75,20.81 12.98,21.15 13.21,21.48 13.44,21.81 13.67,22.13 13.9,22.43 14.13,22.71 14.36,22.97 14.59,23.2 14.82,23.4 15.05,23.56 15.28,23.69 15.51,23.79 15.74,23.85 15.97,23.88 16.2,23.88 16.43,23.86 16.66,23.81 16.89,23.76 17.12,23.7 17.34,23.64 17.57,23.59 17.8,23.56 18.03,23.54 18.26,23.55 18.49,23.59 18.72,23.66 18.95,23.75 19.18,23.88 19.41,24.03 19.64,24.21 19.87,24.41 20.1,24.63 20.33,24.87 20.56,25.11 20.79,25.36 21.02,25.61 21.25,25.85 21.48,26.08 21.71,26.31 21.94,26.52 22.17,26.72 22.4,26.9 22.63,27.06 22.86,27.21 23.09,27.34 23.32,27.45 23.55,27.55 23.78,27.64 24.01,27.71 24.24,27.77 24.47,27.82 24.7,27.86 24.93,27.9 25.16,27.92 25.39,27.95 25.62,27.96 25.85,27.98 26.07,27.99 26.3,28 26.53,28 26.76,28.01 26.99,28.01 27.22,28.01 27.45,28.02 27.68,28.02 27.91,28.02 28.14,28.02 28.37,28.02 28.6,28.02 28.83,28.02 29.06,28.02 29.29,28.02 " class="primitive"/>
          </g>
        </g>
      </g>
    </g>
  </g>
  <g class="guide ylabels" font-size="2.82" font-family="'PT Sans Caption','Helvetica Neue','Helvetica',sans-serif" fill="#6C606B" id="img-ff395ff4-41">
    <g transform="translate(18.63,98.71)" id="img-ff395ff4-42">
      <g class="primitive">
        <text text-anchor="end" dy="0.35em">0</text>
      </g>
    </g>
    <g transform="translate(18.63,75.79)" id="img-ff395ff4-43">
      <g class="primitive">
        <text text-anchor="end" dy="0.35em">50</text>
      </g>
    </g>
    <g transform="translate(18.63,52.86)" id="img-ff395ff4-44">
      <g class="primitive">
        <text text-anchor="end" dy="0.35em">100</text>
      </g>
    </g>
    <g transform="translate(18.63,29.93)" id="img-ff395ff4-45">
      <g class="primitive">
        <text text-anchor="end" dy="0.35em">150</text>
      </g>
    </g>
    <g transform="translate(18.63,7)" id="img-ff395ff4-46">
      <g class="primitive">
        <text text-anchor="end" dy="0.35em">200</text>
      </g>
    </g>
  </g>
  <g font-size="3.88" font-family="'PT Sans','Helvetica Neue','Helvetica',sans-serif" fill="#564A55" stroke="#000000" stroke-opacity="0.000" id="img-ff395ff4-47">
    <g transform="translate(8.81,50.86)" id="img-ff395ff4-48">
      <g class="primitive">
        <text text-anchor="middle" dy="0.35em" transform="rotate(-90,0, 2)">Density</text>
      </g>
    </g>
  </g>
</g>
<defs>
  <clipPath id="img-ff395ff4-19">
    <path d="M19.63,5 L277.54,5 277.54,100.72 19.63,100.72 " />
  </clipPath>
</defs>
</svg>
