<?xml version="1.0" encoding="UTF-8"?>
<svg xmlns="http://www.w3.org/2000/svg"
     xmlns:xlink="http://www.w3.org/1999/xlink"
     xmlns:gadfly="http://www.gadflyjl.org/ns"
     version="1.2"
     width="200mm" height="120mm" viewBox="0 0 200 120"
     stroke="none"
     fill="#000000"
     stroke-width="0.3"
     font-size="3.88"
>
<defs>
  <marker id="arrow" markerWidth="15" markerHeight="7" refX="5" refY="3.5" orient="auto" markerUnits="strokeWidth">
    <path d="M0,0 L15,3.5 L0,7 z" stroke="context-stroke" fill="context-stroke"/>
  </marker>
</defs>
<g class="plotroot xscalable yscalable" id="img-5484df24-1">
  <g font-size="3.88" font-family="'PT Sans','Helvetica Neue','Helvetica',sans-serif" fill="#564A55" stroke="#000000" stroke-opacity="0.000" id="img-5484df24-2">
    <g transform="translate(98.59,108.39)">
      <g class="primitive">
        <text text-anchor="middle" dy="0.6em">Pheromone Value</text>
      </g>
    </g>
  </g>
  <g class="guide xlabels" font-size="2.82" font-family="'PT Sans Caption','Helvetica Neue','Helvetica',sans-serif" fill="#6C606B" id="img-5484df24-3">
    <g transform="translate(21.63,101.72)">
      <g class="primitive">
        <text text-anchor="middle" dy="0.6em">0.00</text>
      </g>
    </g>
    <g transform="translate(65.2,101.72)">
      <g class="primitive">
        <text text-anchor="middle" dy="0.6em">0.02</text>
      </g>
    </g>
    <g transform="translate(108.76,101.72)">
      <g class="primitive">
        <text text-anchor="middle" dy="0.6em">0.04</text>
      </g>
    </g>
    <g transform="translate(152.33,101.72)">
      <g class="primitive">
        <text text-anchor="middle" dy="0.6em">0.06</text>
      </g>
    </g>
  </g>
  <g class="guide colorkey" id="img-5484df24-4">
    <g fill="#4C404B" font-size="2.82" font-family="'PT Sans','Helvetica Neue','Helvetica',sans-serif" id="img-5484df24-5">
      <g transform="translate(181.35,47.42)" id="img-5484df24-6" class="color_Area_1">
        <g class="primitive">
          <text dy="0.35em">Area 1</text>
        </g>
      </g>
      <g transform="translate(181.35,51.04)" id="img-5484df24-7" class="color_Area_2:_2x2">
        <g class="primitive">
          <text dy="0.35em">Area 2: 2x2</text>
        </g>
      </g>
      <g transform="translate(181.35,54.67)" id="img-5484df24-8" class="color_Area_2:_4x4">
        <g class="primitive">
          <text dy="0.35em">Area 2: 4x4</text>
        </g>
      </g>
      <g transform="translate(181.35,58.3)" id="img-5484df24-9" class="color_Area_3">
        <g class="primitive">
          <text dy="0.35em">Area 3</text>
        </g>
      </g>
      <g transform="translate(181.35,61.92)" id="img-5484df24-10" class="color_Area_4">
        <g class="primitive">
          <text dy="0.35em">Area 4</text>
        </g>
      </g>
    </g>
    <g fill-opacity="1" id="img-5484df24-11">
      <g transform="translate(179.45,47.42)" id="img-5484df24-12" stroke="#FFFFFF" class="color_Area_1" fill="#FF6347">
        <path d="M-0.91,-0.91 L0.91,-0.91 0.91,0.91 -0.91,0.91  z" class="primitive"/>
      </g>
      <g transform="translate(179.45,51.04)" id="img-5484df24-13" stroke="#FFFFFF" class="color_Area_2:_2x2" fill="#4169E1">
        <path d="M-0.91,-0.91 L0.91,-0.91 0.91,0.91 -0.91,0.91  z" class="primitive"/>
      </g>
      <g transform="translate(179.45,54.67)" id="img-5484df24-14" stroke="#FFFFFF" class="color_Area_2:_4x4" fill="#404040">
        <path d="M-0.91,-0.91 L0.91,-0.91 0.91,0.91 -0.91,0.91  z" class="primitive"/>
      </g>
      <g transform="translate(179.45,58.3)" id="img-5484df24-15" stroke="#FFFFFF" class="color_Area_3" fill="#B23AEE">
        <path d="M-0.91,-0.91 L0.91,-0.91 0.91,0.91 -0.91,0.91  z" class="primitive"/>
      </g>
      <g transform="translate(179.45,61.92)" id="img-5484df24-16" stroke="#FFFFFF" class="color_Area_4" fill="#00CD66">
        <path d="M-0.91,-0.91 L0.91,-0.91 0.91,0.91 -0.91,0.91  z" class="primitive"/>
      </g>
    </g>
    <g fill="#362A35" font-size="3.88" font-family="'PT Sans','Helvetica Neue','Helvetica',sans-serif" stroke="#000000" stroke-opacity="0.000" id="img-5484df24-17">
      <g transform="translate(178.54,43.6)" id="img-5484df24-18">
        <g class="primitive">
          <text dy="-0em">Area</text>
        </g>
      </g>
    </g>
  </g>
  <g clip-path="url(#img-5484df24-19)">
    <g id="img-5484df24-20">
      <g pointer-events="visible" stroke-width="0.3" fill="#000000" fill-opacity="0.000" stroke="#000000" stroke-opacity="0.000" class="guide background" id="img-5484df24-21">
        <g transform="translate(98.59,52.86)" id="img-5484df24-22">
          <path d="M-78.95,-47.86 L78.95,-47.86 78.95,47.86 -78.95,47.86  z" class="primitive"/>
        </g>
      </g>
      <g class="guide ygridlines xfixed" stroke-dasharray="0.5,0.5" stroke-width="0.2" stroke="#D0D0E0" id="img-5484df24-23">
        <g transform="translate(98.59,98.71)" id="img-5484df24-24">
          <path fill="none" d="M-78.95,0 L78.95,0 " class="primitive"/>
        </g>
        <g transform="translate(98.59,75.79)" id="img-5484df24-25">
          <path fill="none" d="M-78.95,0 L78.95,0 " class="primitive"/>
        </g>
        <g transform="translate(98.59,52.86)" id="img-5484df24-26">
          <path fill="none" d="M-78.95,0 L78.95,0 " class="primitive"/>
        </g>
        <g transform="translate(98.59,29.93)" id="img-5484df24-27">
          <path fill="none" d="M-78.95,0 L78.95,0 " class="primitive"/>
        </g>
        <g transform="translate(98.59,7)" id="img-5484df24-28">
          <path fill="none" d="M-78.95,0 L78.95,0 " class="primitive"/>
        </g>
      </g>
      <g class="guide xgridlines yfixed" stroke-dasharray="0.5,0.5" stroke-width="0.2" stroke="#D0D0E0" id="img-5484df24-29">
        <g transform="translate(21.63,52.86)" id="img-5484df24-30">
          <path fill="none" d="M0,-47.86 L0,47.86 " class="primitive"/>
        </g>
        <g transform="translate(65.2,52.86)" id="img-5484df24-31">
          <path fill="none" d="M0,-47.86 L0,47.86 " class="primitive"/>
        </g>
        <g transform="translate(108.76,52.86)" id="img-5484df24-32">
          <path fill="none" d="M0,-47.86 L0,47.86 " class="primitive"/>
        </g>
        <g transform="translate(152.33,52.86)" id="img-5484df24-33">
          <path fill="none" d="M0,-47.86 L0,47.86 " class="primitive"/>
        </g>
      </g>
      <g class="plotpanel" id="img-5484df24-34">
        <metadata>
          <boundingbox value="19.63166666666669mm 5.0mm 157.90833333333333mm 95.715mm"/>
          <unitbox value="-0.000918179191609629 204.3613367497138 0.07249407292421191 -208.7226734994276"/>
        </metadata>
        <g stroke-width="0.3" fill="#000000" fill-opacity="0.000" class="geometry" id="img-5484df24-35">
          <g transform="translate(68.79,90.13)" id="img-5484df24-36" stroke-dasharray="none" stroke="#FF6347" class="color_Area_1">
            <path fill="none" d="M-57.95,8.58 L-57.49,8.58 -57.04,8.58 -56.58,8.58 -56.13,8.57 -55.67,8.56 -55.22,8.54 -54.76,8.51 -54.31,8.47 -53.85,8.39 -53.4,8.28 -52.95,8.11 -52.49,7.86 -52.04,7.52 -51.58,7.05 -51.13,6.44 -50.67,5.65 -50.22,4.66 -49.76,3.45 -49.31,2.02 -48.86,0.38 -48.4,-1.46 -47.95,-3.46 -47.49,-5.58 -47.04,-7.77 -46.58,-9.96 -46.13,-12.1 -45.67,-14.12 -45.22,-16 -44.77,-17.67 -44.31,-19.14 -43.86,-20.37 -43.4,-21.38 -42.95,-22.17 -42.49,-22.77 -42.04,-23.19 -41.58,-23.46 -41.13,-23.61 -40.68,-23.65 -40.22,-23.63 -39.77,-23.56 -39.31,-23.46 -38.86,-23.36 -38.4,-23.27 -37.95,-23.22 -37.49,-23.2 -37.04,-23.23 -36.58,-23.3 -36.13,-23.41 -35.68,-23.54 -35.22,-23.69 -34.77,-23.82 -34.31,-23.92 -33.86,-23.99 -33.4,-23.99 -32.95,-23.92 -32.49,-23.77 -32.04,-23.55 -31.59,-23.24 -31.13,-22.86 -30.68,-22.41 -30.22,-21.9 -29.77,-21.36 -29.31,-20.78 -28.86,-20.2 -28.4,-19.61 -27.95,-19.03 -27.5,-18.46 -27.04,-17.91 -26.59,-17.39 -26.13,-16.87 -25.68,-16.37 -25.22,-15.87 -24.77,-15.36 -24.31,-14.84 -23.86,-14.29 -23.41,-13.73 -22.95,-13.14 -22.5,-12.53 -22.04,-11.9 -21.59,-11.25 -21.13,-10.6 -20.68,-9.95 -20.22,-9.3 -19.77,-8.66 -19.32,-8.03 -18.86,-7.42 -18.41,-6.82 -17.95,-6.23 -17.5,-5.66 -17.04,-5.1 -16.59,-4.56 -16.13,-4.02 -15.68,-3.5 -15.22,-2.99 -14.77,-2.49 -14.32,-2 -13.86,-1.52 -13.41,-1.05 -12.95,-0.6 -12.5,-0.18 -12.04,0.23 -11.59,0.61 -11.13,0.97 -10.68,1.3 -10.23,1.59 -9.77,1.86 -9.32,2.1 -8.86,2.31 -8.41,2.5 -7.95,2.67 -7.5,2.82 -7.04,2.95 -6.59,3.07 -6.14,3.19 -5.68,3.3 -5.23,3.41 -4.77,3.53 -4.32,3.65 -3.86,3.78 -3.41,3.93 -2.95,4.08 -2.5,4.25 -2.05,4.42 -1.59,4.6 -1.14,4.78 -0.68,4.96 -0.23,5.14 0.23,5.3 0.68,5.44 1.14,5.57 1.59,5.68 2.05,5.77 2.5,5.84 2.95,5.89 3.41,5.93 3.86,5.95 4.32,5.96 4.77,5.96 5.23,5.96 5.68,5.96 6.14,5.96 6.59,5.97 7.04,6 7.5,6.04 7.95,6.1 8.41,6.17 8.86,6.26 9.32,6.36 9.77,6.47 10.23,6.58 10.68,6.7 11.13,6.82 11.59,6.93 12.04,7.04 12.5,7.15 12.95,7.25 13.41,7.34 13.86,7.43 14.32,7.51 14.77,7.6 15.22,7.68 15.68,7.77 16.13,7.85 16.59,7.94 17.04,8.03 17.5,8.11 17.95,8.18 18.41,8.25 18.86,8.31 19.32,8.36 19.77,8.4 20.22,8.43 20.68,8.46 21.13,8.47 21.59,8.47 22.04,8.47 22.5,8.47 22.95,8.46 23.41,8.45 23.86,8.43 24.31,8.42 24.77,8.41 25.22,8.4 25.68,8.39 26.13,8.38 26.59,8.38 27.04,8.37 27.5,8.37 27.95,8.37 28.4,8.36 28.86,8.36 29.31,8.35 29.77,8.35 30.22,8.34 30.68,8.33 31.13,8.32 31.59,8.31 32.04,8.3 32.49,8.3 32.95,8.29 33.4,8.29 33.86,8.3 34.31,8.3 34.77,8.32 35.22,8.33 35.68,8.35 36.13,8.38 36.58,8.4 37.04,8.43 37.49,8.45 37.95,8.48 38.4,8.5 38.86,8.52 39.31,8.53 39.77,8.54 40.22,8.55 40.68,8.56 41.13,8.56 41.58,8.56 42.04,8.56 42.49,8.56 42.95,8.55 43.4,8.54 43.86,8.53 44.31,8.52 44.77,8.51 45.22,8.5 45.67,8.49 46.13,8.48 46.58,8.48 47.04,8.48 47.49,8.48 47.95,8.48 48.4,8.49 48.86,8.5 49.31,8.51 49.76,8.52 50.22,8.53 50.67,8.54 51.13,8.55 51.58,8.56 52.04,8.56 52.49,8.57 52.95,8.57 53.4,8.58 53.85,8.58 54.31,8.58 54.76,8.58 55.22,8.58 55.67,8.58 56.13,8.59 56.58,8.59 57.04,8.59 57.49,8.59 57.95,8.59 " class="primitive"/>
          </g>
          <g transform="translate(60.45,88.66)" id="img-5484df24-37" stroke-dasharray="none" stroke="#B23AEE" class="color_Area_3">
            <path fill="none" d="M-49.49,10.05 L-49.1,10.05 -48.71,10.05 -48.32,10.05 -47.94,10.04 -47.55,10.04 -47.16,10.03 -46.77,10.01 -46.38,9.99 -45.99,9.96 -45.61,9.91 -45.22,9.83 -44.83,9.73 -44.44,9.58 -44.05,9.39 -43.67,9.12 -43.28,8.78 -42.89,8.33 -42.5,7.78 -42.11,7.1 -41.73,6.28 -41.34,5.32 -40.95,4.21 -40.56,2.96 -40.17,1.57 -39.78,0.07 -39.4,-1.52 -39.01,-3.18 -38.62,-4.88 -38.23,-6.56 -37.84,-8.22 -37.46,-9.8 -37.07,-11.28 -36.68,-12.65 -36.29,-13.87 -35.9,-14.95 -35.52,-15.88 -35.13,-16.66 -34.74,-17.3 -34.35,-17.8 -33.96,-18.18 -33.57,-18.45 -33.19,-18.63 -32.8,-18.73 -32.41,-18.76 -32.02,-18.74 -31.63,-18.69 -31.25,-18.62 -30.86,-18.54 -30.47,-18.46 -30.08,-18.39 -29.69,-18.34 -29.3,-18.32 -28.92,-18.33 -28.53,-18.37 -28.14,-18.44 -27.75,-18.53 -27.36,-18.64 -26.98,-18.75 -26.59,-18.87 -26.2,-18.97 -25.81,-19.05 -25.42,-19.11 -25.04,-19.13 -24.65,-19.1 -24.26,-19.04 -23.87,-18.93 -23.48,-18.78 -23.09,-18.6 -22.71,-18.38 -22.32,-18.15 -21.93,-17.9 -21.54,-17.64 -21.15,-17.4 -20.77,-17.17 -20.38,-16.96 -19.99,-16.79 -19.6,-16.65 -19.21,-16.55 -18.82,-16.49 -18.44,-16.46 -18.05,-16.46 -17.66,-16.48 -17.27,-16.52 -16.88,-16.56 -16.5,-16.6 -16.11,-16.62 -15.72,-16.62 -15.33,-16.59 -14.94,-16.51 -14.56,-16.39 -14.17,-16.22 -13.78,-16 -13.39,-15.73 -13,-15.4 -12.61,-15.02 -12.23,-14.59 -11.84,-14.11 -11.45,-13.59 -11.06,-13.02 -10.67,-12.41 -10.29,-11.77 -9.9,-11.1 -9.51,-10.41 -9.12,-9.69 -8.73,-8.97 -8.35,-8.24 -7.96,-7.51 -7.57,-6.79 -7.18,-6.09 -6.79,-5.4 -6.4,-4.74 -6.02,-4.11 -5.63,-3.51 -5.24,-2.94 -4.85,-2.41 -4.46,-1.91 -4.08,-1.45 -3.69,-1.01 -3.3,-0.61 -2.91,-0.22 -2.52,0.14 -2.13,0.48 -1.75,0.8 -1.36,1.11 -0.97,1.41 -0.58,1.7 -0.19,1.98 0.19,2.25 0.58,2.51 0.97,2.76 1.36,3 1.75,3.23 2.13,3.45 2.52,3.67 2.91,3.88 3.3,4.09 3.69,4.3 4.08,4.51 4.46,4.73 4.85,4.94 5.24,5.17 5.63,5.39 6.02,5.63 6.4,5.86 6.79,6.1 7.18,6.34 7.57,6.57 7.96,6.81 8.35,7.03 8.73,7.25 9.12,7.46 9.51,7.66 9.9,7.85 10.29,8.02 10.67,8.19 11.06,8.34 11.45,8.48 11.84,8.6 12.23,8.71 12.61,8.81 13,8.9 13.39,8.97 13.78,9.04 14.17,9.09 14.56,9.14 14.94,9.19 15.33,9.23 15.72,9.27 16.11,9.31 16.5,9.34 16.88,9.37 17.27,9.4 17.66,9.43 18.05,9.46 18.44,9.49 18.82,9.51 19.21,9.53 19.6,9.55 19.99,9.56 20.38,9.57 20.77,9.58 21.15,9.59 21.54,9.59 21.93,9.59 22.32,9.58 22.71,9.58 23.09,9.57 23.48,9.55 23.87,9.54 24.26,9.52 24.65,9.49 25.04,9.47 25.42,9.45 25.81,9.42 26.2,9.4 26.59,9.38 26.98,9.36 27.36,9.35 27.75,9.35 28.14,9.35 28.53,9.35 28.92,9.36 29.3,9.38 29.69,9.4 30.08,9.42 30.47,9.44 30.86,9.46 31.25,9.48 31.63,9.5 32.02,9.51 32.41,9.52 32.8,9.53 33.19,9.53 33.57,9.54 33.96,9.54 34.35,9.55 34.74,9.55 35.13,9.56 35.52,9.57 35.9,9.59 36.29,9.6 36.68,9.62 37.07,9.65 37.46,9.67 37.84,9.7 38.23,9.73 38.62,9.76 39.01,9.79 39.4,9.82 39.78,9.85 40.17,9.88 40.56,9.9 40.95,9.93 41.34,9.95 41.73,9.97 42.11,9.98 42.5,10 42.89,10.01 43.28,10.02 43.67,10.03 44.05,10.03 44.44,10.04 44.83,10.04 45.22,10.05 45.61,10.05 45.99,10.05 46.38,10.05 46.77,10.05 47.16,10.05 47.55,10.05 47.94,10.05 48.32,10.05 48.71,10.05 49.1,10.05 49.49,10.05 " class="primitive"/>
          </g>
          <g transform="translate(45.81,82.17)" id="img-5484df24-38" stroke-dasharray="none" stroke="#4169E1" class="color_Area_2:_2x2">
            <path fill="none" d="M-30.07,16.54 L-29.83,16.54 -29.59,16.54 -29.36,16.53 -29.12,16.53 -28.89,16.51 -28.65,16.48 -28.42,16.44 -28.18,16.37 -27.94,16.26 -27.71,16.1 -27.47,15.86 -27.24,15.51 -27,15.03 -26.77,14.37 -26.53,13.5 -26.29,12.36 -26.06,10.93 -25.82,9.16 -25.59,7.04 -25.35,4.55 -25.11,1.69 -24.88,-1.49 -24.64,-4.96 -24.41,-8.64 -24.17,-12.46 -23.94,-16.32 -23.7,-20.14 -23.46,-23.82 -23.23,-27.29 -22.99,-30.49 -22.76,-33.36 -22.52,-35.9 -22.28,-38.08 -22.05,-39.92 -21.81,-41.45 -21.58,-42.68 -21.34,-43.67 -21.11,-44.44 -20.87,-45.04 -20.63,-45.49 -20.4,-45.83 -20.16,-46.09 -19.93,-46.29 -19.69,-46.44 -19.45,-46.56 -19.22,-46.65 -18.98,-46.73 -18.75,-46.78 -18.51,-46.81 -18.28,-46.8 -18.04,-46.75 -17.8,-46.64 -17.57,-46.45 -17.33,-46.19 -17.1,-45.84 -16.86,-45.41 -16.62,-44.88 -16.39,-44.28 -16.15,-43.61 -15.92,-42.89 -15.68,-42.15 -15.45,-41.4 -15.21,-40.68 -14.97,-40 -14.74,-39.39 -14.5,-38.86 -14.27,-38.42 -14.03,-38.06 -13.8,-37.77 -13.56,-37.54 -13.32,-37.33 -13.09,-37.12 -12.85,-36.88 -12.62,-36.56 -12.38,-36.15 -12.14,-35.61 -11.91,-34.92 -11.67,-34.08 -11.44,-33.09 -11.2,-31.94 -10.97,-30.66 -10.73,-29.27 -10.49,-27.79 -10.26,-26.25 -10.02,-24.67 -9.79,-23.09 -9.55,-21.52 -9.31,-19.97 -9.08,-18.47 -8.84,-17.01 -8.61,-15.58 -8.37,-14.19 -8.14,-12.83 -7.9,-11.49 -7.66,-10.16 -7.43,-8.83 -7.19,-7.51 -6.96,-6.2 -6.72,-4.9 -6.48,-3.63 -6.25,-2.4 -6.01,-1.22 -5.78,-0.12 -5.54,0.91 -5.31,1.86 -5.07,2.73 -4.83,3.51 -4.6,4.22 -4.36,4.87 -4.13,5.47 -3.89,6.04 -3.66,6.58 -3.42,7.1 -3.18,7.61 -2.95,8.11 -2.71,8.59 -2.48,9.07 -2.24,9.52 -2,9.96 -1.77,10.38 -1.53,10.78 -1.3,11.17 -1.06,11.54 -0.83,11.9 -0.59,12.26 -0.35,12.62 -0.12,12.98 0.12,13.34 0.35,13.69 0.59,14.04 0.83,14.38 1.06,14.7 1.3,14.99 1.53,15.26 1.77,15.49 2,15.68 2.24,15.84 2.48,15.96 2.71,16.03 2.95,16.08 3.18,16.09 3.42,16.08 3.66,16.05 3.89,16.01 4.13,15.96 4.36,15.9 4.6,15.85 4.83,15.81 5.07,15.79 5.31,15.78 5.54,15.79 5.78,15.82 6.01,15.87 6.25,15.93 6.48,15.99 6.72,16.07 6.96,16.14 7.19,16.21 7.43,16.27 7.66,16.33 7.9,16.38 8.14,16.42 8.37,16.46 8.61,16.48 8.84,16.5 9.08,16.52 9.31,16.53 9.55,16.53 9.79,16.54 10.02,16.54 10.26,16.54 10.49,16.54 10.73,16.54 10.97,16.54 11.2,16.54 11.44,16.54 11.67,16.54 11.91,16.54 12.14,16.53 12.38,16.52 12.62,16.51 12.85,16.5 13.09,16.48 13.32,16.46 13.56,16.44 13.8,16.41 14.03,16.38 14.27,16.34 14.5,16.3 14.74,16.27 14.97,16.23 15.21,16.2 15.45,16.18 15.68,16.17 15.92,16.16 16.15,16.17 16.39,16.18 16.62,16.21 16.86,16.24 17.1,16.27 17.33,16.31 17.57,16.34 17.8,16.38 18.04,16.41 18.28,16.44 18.51,16.47 18.75,16.49 18.98,16.5 19.22,16.51 19.45,16.52 19.69,16.52 19.93,16.52 20.16,16.52 20.4,16.51 20.63,16.5 20.87,16.48 21.11,16.45 21.34,16.42 21.58,16.37 21.81,16.32 22.05,16.26 22.28,16.2 22.52,16.12 22.76,16.05 22.99,15.98 23.23,15.91 23.46,15.86 23.7,15.81 23.94,15.79 24.17,15.78 24.41,15.8 24.64,15.83 24.88,15.88 25.11,15.94 25.35,16.01 25.59,16.08 25.82,16.15 26.06,16.22 26.29,16.29 26.53,16.34 26.77,16.39 27,16.43 27.24,16.46 27.47,16.49 27.71,16.51 27.94,16.52 28.18,16.53 28.42,16.54 28.65,16.54 28.89,16.54 29.12,16.54 29.36,16.54 29.59,16.55 29.83,16.55 30.07,16.55 " class="primitive"/>
          </g>
          <g transform="translate(94.81,92.55)" id="img-5484df24-39" stroke-dasharray="none" stroke="#00CD66" class="color_Area_4">
            <path fill="none" d="M-80.73,6.16 L-80.1,6.16 -79.46,6.14 -78.83,6.1 -78.2,5.99 -77.56,5.72 -76.93,5.14 -76.3,4.01 -75.67,2.06 -75.03,-0.96 -74.4,-5.2 -73.77,-10.51 -73.13,-16.51 -72.5,-22.61 -71.87,-28.2 -71.23,-32.83 -70.6,-36.29 -69.97,-38.66 -69.33,-40.12 -68.7,-40.94 -68.07,-41.32 -67.43,-41.38 -66.8,-41.17 -66.17,-40.71 -65.53,-40.07 -64.9,-39.34 -64.27,-38.7 -63.63,-38.3 -63,-38.2 -62.37,-38.37 -61.74,-38.68 -61.1,-38.9 -60.47,-38.84 -59.84,-38.34 -59.2,-37.3 -58.57,-35.73 -57.94,-33.71 -57.3,-31.35 -56.67,-28.81 -56.04,-26.23 -55.4,-23.7 -54.77,-21.28 -54.14,-18.99 -53.5,-16.81 -52.87,-14.75 -52.24,-12.83 -51.6,-11.04 -50.97,-9.41 -50.34,-7.92 -49.7,-6.59 -49.07,-5.38 -48.44,-4.28 -47.81,-3.3 -47.17,-2.44 -46.54,-1.69 -45.91,-1.03 -45.27,-0.44 -44.64,0.11 -44.01,0.65 -43.37,1.18 -42.74,1.69 -42.11,2.15 -41.47,2.54 -40.84,2.84 -40.21,3.07 -39.57,3.25 -38.94,3.41 -38.31,3.57 -37.67,3.71 -37.04,3.81 -36.41,3.85 -35.77,3.83 -35.14,3.8 -34.51,3.8 -33.88,3.87 -33.24,4.03 -32.61,4.27 -31.98,4.55 -31.34,4.84 -30.71,5.11 -30.08,5.33 -29.44,5.48 -28.81,5.57 -28.18,5.59 -27.54,5.56 -26.91,5.49 -26.28,5.4 -25.64,5.3 -25.01,5.21 -24.38,5.14 -23.74,5.09 -23.11,5.08 -22.48,5.12 -21.84,5.23 -21.21,5.38 -20.58,5.54 -19.95,5.69 -19.31,5.8 -18.68,5.87 -18.05,5.9 -17.41,5.91 -16.78,5.92 -16.15,5.94 -15.51,5.98 -14.88,6.02 -14.25,6.05 -13.61,6.06 -12.98,6.05 -12.35,6.03 -11.71,5.99 -11.08,5.96 -10.45,5.94 -9.81,5.94 -9.18,5.97 -8.55,6.01 -7.91,6.06 -7.28,6.1 -6.65,6.12 -6.02,6.14 -5.38,6.15 -4.75,6.16 -4.12,6.16 -3.48,6.15 -2.85,6.14 -2.22,6.12 -1.58,6.09 -0.95,6.05 -0.32,6 0.32,5.97 0.95,5.94 1.58,5.94 2.22,5.97 2.85,6 3.48,6.05 4.12,6.09 4.75,6.12 5.38,6.14 6.02,6.15 6.65,6.14 7.28,6.13 7.91,6.11 8.55,6.08 9.18,6.03 9.81,5.99 10.45,5.95 11.08,5.93 11.71,5.93 12.35,5.94 12.98,5.96 13.61,5.97 14.25,5.96 14.88,5.94 15.51,5.93 16.15,5.93 16.78,5.95 17.41,5.99 18.05,6.03 18.68,6.08 19.31,6.11 19.95,6.13 20.58,6.15 21.21,6.16 21.84,6.16 22.48,6.16 23.11,6.16 23.74,6.16 24.38,6.16 25.01,6.16 25.64,6.16 26.28,6.16 26.91,6.16 27.54,6.16 28.18,6.16 28.81,6.16 29.44,6.16 30.08,6.16 30.71,6.16 31.34,6.16 31.98,6.16 32.61,6.16 33.24,6.16 33.88,6.16 34.51,6.16 35.14,6.16 35.77,6.16 36.41,6.16 37.04,6.16 37.67,6.16 38.31,6.16 38.94,6.16 39.57,6.16 40.21,6.16 40.84,6.16 41.47,6.16 42.11,6.16 42.74,6.16 43.37,6.16 44.01,6.16 44.64,6.16 45.27,6.16 45.91,6.16 46.54,6.16 47.17,6.16 47.81,6.16 48.44,6.16 49.07,6.16 49.7,6.16 50.34,6.16 50.97,6.16 51.6,6.16 52.24,6.16 52.87,6.16 53.5,6.16 54.14,6.16 54.77,6.16 55.4,6.16 56.04,6.16 56.67,6.16 57.3,6.16 57.94,6.16 58.57,6.16 59.2,6.16 59.84,6.16 60.47,6.16 61.1,6.16 61.74,6.16 62.37,6.16 63,6.16 63.63,6.16 64.27,6.16 64.9,6.16 65.53,6.16 66.17,6.16 66.8,6.16 67.43,6.16 68.07,6.15 68.7,6.13 69.33,6.1 69.97,6.05 70.6,5.98 71.23,5.89 71.87,5.8 72.5,5.74 73.13,5.71 73.77,5.74 74.4,5.8 75.03,5.89 75.67,5.98 76.3,6.05 76.93,6.1 77.56,6.13 78.2,6.15 78.83,6.16 79.46,6.16 80.1,6.16 80.73,6.16 " class="primitive"/>
          </g>
          <g transform="translate(34.16,70.7)" id="img-5484df24-40" stroke-dasharray="none" stroke="#404040" class="color_Area_2:_4x4">
            <path fill="none" d="M-17.75,28.02 L-17.62,28.02 -17.48,28.01 -17.34,28.01 -17.2,28.01 -17.06,28 -16.92,28 -16.78,27.98 -16.64,27.97 -16.5,27.94 -16.36,27.91 -16.22,27.87 -16.08,27.81 -15.94,27.73 -15.81,27.63 -15.67,27.5 -15.53,27.32 -15.39,27.1 -15.25,26.81 -15.11,26.46 -14.97,26.02 -14.83,25.48 -14.69,24.83 -14.55,24.06 -14.41,23.14 -14.27,22.06 -14.13,20.81 -14,19.39 -13.86,17.78 -13.72,15.97 -13.58,13.97 -13.44,11.78 -13.3,9.41 -13.16,6.87 -13.02,4.18 -12.88,1.36 -12.74,-1.56 -12.6,-4.56 -12.46,-7.61 -12.32,-10.66 -12.18,-13.69 -12.05,-16.67 -11.91,-19.57 -11.77,-22.36 -11.63,-25.02 -11.49,-27.53 -11.35,-29.88 -11.21,-32.05 -11.07,-34.04 -10.93,-35.84 -10.79,-37.47 -10.65,-38.92 -10.51,-40.21 -10.37,-41.34 -10.24,-42.33 -10.1,-43.18 -9.96,-43.91 -9.82,-44.54 -9.68,-45.07 -9.54,-45.52 -9.4,-45.89 -9.26,-46.2 -9.12,-46.46 -8.98,-46.67 -8.84,-46.84 -8.7,-46.99 -8.56,-47.1 -8.42,-47.2 -8.29,-47.28 -8.15,-47.34 -8.01,-47.4 -7.87,-47.46 -7.73,-47.51 -7.59,-47.56 -7.45,-47.6 -7.31,-47.64 -7.17,-47.68 -7.03,-47.7 -6.89,-47.72 -6.75,-47.72 -6.61,-47.69 -6.48,-47.64 -6.34,-47.56 -6.2,-47.44 -6.06,-47.27 -5.92,-47.06 -5.78,-46.79 -5.64,-46.47 -5.5,-46.09 -5.36,-45.64 -5.22,-45.13 -5.08,-44.56 -4.94,-43.93 -4.8,-43.25 -4.67,-42.5 -4.53,-41.71 -4.39,-40.88 -4.25,-40.01 -4.11,-39.1 -3.97,-38.17 -3.83,-37.21 -3.69,-36.24 -3.55,-35.25 -3.41,-34.25 -3.27,-33.24 -3.13,-32.22 -2.99,-31.19 -2.85,-30.15 -2.72,-29.09 -2.58,-28.02 -2.44,-26.94 -2.3,-25.83 -2.16,-24.71 -2.02,-23.57 -1.88,-22.41 -1.74,-21.23 -1.6,-20.04 -1.46,-18.84 -1.32,-17.64 -1.18,-16.43 -1.04,-15.24 -0.91,-14.06 -0.77,-12.91 -0.63,-11.78 -0.49,-10.68 -0.35,-9.62 -0.21,-8.61 -0.07,-7.63 0.07,-6.7 0.21,-5.81 0.35,-4.96 0.49,-4.14 0.63,-3.36 0.77,-2.6 0.91,-1.87 1.04,-1.15 1.18,-0.46 1.32,0.23 1.46,0.9 1.6,1.56 1.74,2.21 1.88,2.85 2.02,3.47 2.16,4.07 2.3,4.66 2.44,5.23 2.58,5.77 2.72,6.28 2.85,6.77 2.99,7.24 3.13,7.67 3.27,8.09 3.41,8.48 3.55,8.86 3.69,9.23 3.83,9.59 3.97,9.94 4.11,10.3 4.25,10.67 4.39,11.05 4.53,11.43 4.67,11.84 4.8,12.26 4.94,12.69 5.08,13.14 5.22,13.59 5.36,14.05 5.5,14.52 5.64,14.98 5.78,15.44 5.92,15.89 6.06,16.33 6.2,16.76 6.34,17.18 6.48,17.58 6.61,17.97 6.75,18.34 6.89,18.71 7.03,19.07 7.17,19.42 7.31,19.77 7.45,20.12 7.59,20.47 7.73,20.81 7.87,21.15 8.01,21.48 8.15,21.81 8.29,22.13 8.42,22.43 8.56,22.71 8.7,22.97 8.84,23.2 8.98,23.4 9.12,23.56 9.26,23.69 9.4,23.79 9.54,23.85 9.68,23.88 9.82,23.88 9.96,23.86 10.1,23.81 10.24,23.76 10.37,23.7 10.51,23.64 10.65,23.59 10.79,23.56 10.93,23.54 11.07,23.55 11.21,23.59 11.35,23.66 11.49,23.75 11.63,23.88 11.77,24.03 11.91,24.21 12.05,24.41 12.18,24.63 12.32,24.87 12.46,25.11 12.6,25.36 12.74,25.61 12.88,25.85 13.02,26.08 13.16,26.31 13.3,26.52 13.44,26.72 13.58,26.9 13.72,27.06 13.86,27.21 14,27.34 14.13,27.45 14.27,27.55 14.41,27.64 14.55,27.71 14.69,27.77 14.83,27.82 14.97,27.86 15.11,27.9 15.25,27.92 15.39,27.95 15.53,27.96 15.67,27.98 15.81,27.99 15.94,28 16.08,28 16.22,28.01 16.36,28.01 16.5,28.01 16.64,28.02 16.78,28.02 16.92,28.02 17.06,28.02 17.2,28.02 17.34,28.02 17.48,28.02 17.62,28.02 17.75,28.02 " class="primitive"/>
          </g>
        </g>
      </g>
    </g>
  </g>
  <g class="guide ylabels" font-size="2.82" font-family="'PT Sans Caption','Helvetica Neue','Helvetica',sans-serif" fill="#6C606B" id="img-5484df24-41">
    <g transform="translate(18.63,98.71)" id="img-5484df24-42">
      <g class="primitive">
        <text text-anchor="end" dy="0.35em">0</text>
      </g>
    </g>
    <g transform="translate(18.63,75.79)" id="img-5484df24-43">
      <g class="primitive">
        <text text-anchor="end" dy="0.35em">50</text>
      </g>
    </g>
    <g transform="translate(18.63,52.86)" id="img-5484df24-44">
      <g class="primitive">
        <text text-anchor="end" dy="0.35em">100</text>
      </g>
    </g>
    <g transform="translate(18.63,29.93)" id="img-5484df24-45">
      <g class="primitive">
        <text text-anchor="end" dy="0.35em">150</text>
      </g>
    </g>
    <g transform="translate(18.63,7)" id="img-5484df24-46">
      <g class="primitive">
        <text text-anchor="end" dy="0.35em">200</text>
      </g>
    </g>
  </g>
  <g font-size="3.88" font-family="'PT Sans','Helvetica Neue','Helvetica',sans-serif" fill="#564A55" stroke="#000000" stroke-opacity="0.000" id="img-5484df24-47">
    <g transform="translate(8.81,50.86)" id="img-5484df24-48">
      <g class="primitive">
        <text text-anchor="middle" dy="0.35em" transform="rotate(-90,0, 2)">Density</text>
      </g>
    </g>
  </g>
</g>
<defs>
  <clipPath id="img-5484df24-19">
    <path d="M19.63,5 L177.54,5 177.54,100.72 19.63,100.72 " />
  </clipPath>
</defs>
</svg>
