<?xml version="1.0" encoding="UTF-8"?>
<svg xmlns="http://www.w3.org/2000/svg"
     xmlns:xlink="http://www.w3.org/1999/xlink"
     xmlns:gadfly="http://www.gadflyjl.org/ns"
     version="1.2"
     width="200mm" height="120mm" viewBox="0 0 200 120"
     stroke="none"
     fill="#000000"
     stroke-width="0.3"
     font-size="3.88"
>
<defs>
  <marker id="arrow" markerWidth="15" markerHeight="7" refX="5" refY="3.5" orient="auto" markerUnits="strokeWidth">
    <path d="M0,0 L15,3.5 L0,7 z" stroke="context-stroke" fill="context-stroke"/>
  </marker>
</defs>
<g class="plotroot xscalable yscalable" id="img-bab784e2-1">
  <g font-size="3.53" font-family="CMU Serif" fill="#564A55" stroke="#000000" stroke-opacity="0.000" id="img-bab784e2-2">
    <g transform="translate(101.79,108.71)">
      <g class="primitive">
        <text text-anchor="middle" dy="0.6em">Proper Motion Declination (mas/yr)</text>
      </g>
    </g>
  </g>
  <g class="guide xlabels" font-size="3.53" font-family="CMU Serif" fill="#6C606B" id="img-bab784e2-3">
    <g transform="translate(25.11,101.42)">
      <g class="primitive">
        <text text-anchor="middle" dy="0.6em">-500</text>
      </g>
    </g>
    <g transform="translate(63.45,101.42)">
      <g class="primitive">
        <text text-anchor="middle" dy="0.6em">0</text>
      </g>
    </g>
    <g transform="translate(101.79,101.42)">
      <g class="primitive">
        <text text-anchor="middle" dy="0.6em">500</text>
      </g>
    </g>
    <g transform="translate(140.14,101.42)">
      <g class="primitive">
        <text text-anchor="middle" dy="0.6em">1000</text>
      </g>
    </g>
    <g transform="translate(178.48,101.42)">
      <g class="primitive">
        <text text-anchor="middle" dy="0.6em">1500</text>
      </g>
    </g>
  </g>
  <g class="guide colorkey" id="img-bab784e2-4">
    <g fill="#4C404B" font-size="3.53" font-family="CMU Serif" id="img-bab784e2-5">
      <g transform="translate(184.62,48.42)" id="img-bab784e2-6" class="color_Area_1">
        <g class="primitive">
          <text dy="0.35em">Area 1</text>
        </g>
      </g>
      <g transform="translate(184.62,52.71)" id="img-bab784e2-7" class="color_Area_2">
        <g class="primitive">
          <text dy="0.35em">Area 2</text>
        </g>
      </g>
      <g transform="translate(184.62,57)" id="img-bab784e2-8" class="color_Area_3">
        <g class="primitive">
          <text dy="0.35em">Area 3</text>
        </g>
      </g>
      <g transform="translate(184.62,61.29)" id="img-bab784e2-9" class="color_Area_4">
        <g class="primitive">
          <text dy="0.35em">Area 4</text>
        </g>
      </g>
    </g>
    <g fill-opacity="1" id="img-bab784e2-10">
      <g transform="translate(182.55,48.42)" id="img-bab784e2-11" stroke="#FFFFFF" class="color_Area_1" fill="#FF6347">
        <path d="M-1.07,-1.07 L1.07,-1.07 1.07,1.07 -1.07,1.07  z" class="primitive"/>
      </g>
      <g transform="translate(182.55,52.71)" id="img-bab784e2-12" stroke="#FFFFFF" class="color_Area_2" fill="#4169E1">
        <path d="M-1.07,-1.07 L1.07,-1.07 1.07,1.07 -1.07,1.07  z" class="primitive"/>
      </g>
      <g transform="translate(182.55,57)" id="img-bab784e2-13" stroke="#FFFFFF" class="color_Area_3" fill="#B23AEE">
        <path d="M-1.07,-1.07 L1.07,-1.07 1.07,1.07 -1.07,1.07  z" class="primitive"/>
      </g>
      <g transform="translate(182.55,61.29)" id="img-bab784e2-14" stroke="#FFFFFF" class="color_Area_4" fill="#00CD66">
        <path d="M-1.07,-1.07 L1.07,-1.07 1.07,1.07 -1.07,1.07  z" class="primitive"/>
      </g>
    </g>
    <g fill="#362A35" font-size="4.23" font-family="CMU Serif" stroke="#000000" stroke-opacity="0.000" id="img-bab784e2-15">
      <g transform="translate(181.48,44.1)" id="img-bab784e2-16">
        <g class="primitive">
          <text dy="-0em">Area</text>
        </g>
      </g>
    </g>
  </g>
  <g clip-path="url(#img-bab784e2-17)">
    <g id="img-bab784e2-18">
      <g pointer-events="visible" stroke-width="0.3" fill="#000000" fill-opacity="0.000" stroke="#000000" stroke-opacity="0.000" class="guide background" id="img-bab784e2-19">
        <g transform="translate(101.79,52.71)" id="img-bab784e2-20">
          <path d="M-78.69,-47.71 L78.69,-47.71 78.69,47.71 -78.69,47.71  z" class="primitive"/>
        </g>
      </g>
      <g class="guide ygridlines xfixed" stroke-dasharray="0.5,0.5" stroke-width="0.2" stroke="#D0D0E0" id="img-bab784e2-21">
        <g transform="translate(101.79,98.42)" id="img-bab784e2-22">
          <path fill="none" d="M-78.69,0 L78.69,0 " class="primitive"/>
        </g>
        <g transform="translate(101.79,67.94)" id="img-bab784e2-23">
          <path fill="none" d="M-78.69,0 L78.69,0 " class="primitive"/>
        </g>
        <g transform="translate(101.79,37.47)" id="img-bab784e2-24">
          <path fill="none" d="M-78.69,0 L78.69,0 " class="primitive"/>
        </g>
        <g transform="translate(101.79,7)" id="img-bab784e2-25">
          <path fill="none" d="M-78.69,0 L78.69,0 " class="primitive"/>
        </g>
      </g>
      <g class="guide xgridlines yfixed" stroke-dasharray="0.5,0.5" stroke-width="0.2" stroke="#D0D0E0" id="img-bab784e2-26">
        <g transform="translate(25.11,52.71)" id="img-bab784e2-27">
          <path fill="none" d="M0,-47.71 L0,47.71 " class="primitive"/>
        </g>
        <g transform="translate(63.45,52.71)" id="img-bab784e2-28">
          <path fill="none" d="M0,-47.71 L0,47.71 " class="primitive"/>
        </g>
        <g transform="translate(101.79,52.71)" id="img-bab784e2-29">
          <path fill="none" d="M0,-47.71 L0,47.71 " class="primitive"/>
        </g>
        <g transform="translate(140.14,52.71)" id="img-bab784e2-30">
          <path fill="none" d="M0,-47.71 L0,47.71 " class="primitive"/>
        </g>
        <g transform="translate(178.48,52.71)" id="img-bab784e2-31">
          <path fill="none" d="M0,-47.71 L0,47.71 " class="primitive"/>
        </g>
      </g>
      <g class="plotpanel" id="img-bab784e2-32">
        <metadata>
          <boundingbox value="23.10833333333332mm 5.0mm 157.37083333333334mm 95.41666666666667mm"/>
          <unitbox value="-526.0805781194816 0.0153281677301732 2052.1611562389635 -0.015656335460346397"/>
        </metadata>
        <g stroke-width="0.3" fill="#000000" fill-opacity="0.000" class="geometry" id="img-bab784e2-33">
          <g transform="translate(113.23,94.16)" id="img-bab784e2-34" stroke-dasharray="none" stroke="#FF6347" class="color_Area_1">
            <path fill="none" d="M-54.7,4.25 L-54.27,4.25 -53.84,4.24 -53.41,4.21 -52.98,4.12 -52.55,3.9 -52.12,3.41 -51.69,2.46 -51.27,0.81 -50.84,-1.7 -50.41,-5.09 -49.98,-9.15 -49.55,-13.43 -49.12,-17.44 -48.69,-20.75 -48.26,-23.18 -47.83,-24.75 -47.4,-25.65 -46.98,-26.11 -46.55,-26.31 -46.12,-26.39 -45.69,-26.42 -45.26,-26.43 -44.83,-26.42 -44.4,-26.42 -43.97,-26.4 -43.54,-26.37 -43.11,-26.32 -42.69,-26.23 -42.26,-26.08 -41.83,-25.8 -41.4,-25.37 -40.97,-24.75 -40.54,-23.91 -40.11,-22.87 -39.68,-21.68 -39.25,-20.39 -38.82,-19.06 -38.4,-17.73 -37.97,-16.44 -37.54,-15.22 -37.11,-14.06 -36.68,-12.95 -36.25,-11.87 -35.82,-10.8 -35.39,-9.72 -34.96,-8.67 -34.53,-7.65 -34.11,-6.7 -33.68,-5.84 -33.25,-5.07 -32.82,-4.37 -32.39,-3.75 -31.96,-3.18 -31.53,-2.65 -31.1,-2.16 -30.67,-1.68 -30.24,-1.24 -29.82,-0.83 -29.39,-0.47 -28.96,-0.16 -28.53,0.14 -28.1,0.43 -27.67,0.74 -27.24,1.04 -26.81,1.32 -26.38,1.57 -25.95,1.77 -25.53,1.94 -25.1,2.1 -24.67,2.26 -24.24,2.42 -23.81,2.58 -23.38,2.71 -22.95,2.81 -22.52,2.9 -22.09,2.96 -21.66,3.02 -21.24,3.08 -20.81,3.16 -20.38,3.25 -19.95,3.36 -19.52,3.5 -19.09,3.64 -18.66,3.77 -18.23,3.88 -17.8,3.96 -17.37,4 -16.95,4.03 -16.52,4.05 -16.09,4.08 -15.66,4.1 -15.23,4.11 -14.8,4.1 -14.37,4.07 -13.94,4.01 -13.51,3.93 -13.08,3.86 -12.66,3.81 -12.23,3.78 -11.8,3.79 -11.37,3.81 -10.94,3.85 -10.51,3.9 -10.08,3.95 -9.65,4 -9.22,4.04 -8.79,4.07 -8.37,4.08 -7.94,4.08 -7.51,4.08 -7.08,4.08 -6.65,4.1 -6.22,4.12 -5.79,4.16 -5.36,4.19 -4.93,4.21 -4.5,4.23 -4.08,4.24 -3.65,4.24 -3.22,4.23 -2.79,4.21 -2.36,4.2 -1.93,4.18 -1.5,4.18 -1.07,4.18 -0.64,4.19 -0.21,4.21 0.21,4.22 0.64,4.23 1.07,4.23 1.5,4.22 1.93,4.19 2.36,4.16 2.79,4.13 3.22,4.1 3.65,4.08 4.08,4.07 4.5,4.08 4.93,4.1 5.36,4.12 5.79,4.15 6.22,4.18 6.65,4.2 7.08,4.22 7.51,4.24 7.94,4.25 8.37,4.25 8.79,4.25 9.22,4.25 9.65,4.26 10.08,4.26 10.51,4.26 10.94,4.26 11.37,4.26 11.8,4.26 12.23,4.26 12.66,4.26 13.08,4.26 13.51,4.26 13.94,4.26 14.37,4.25 14.8,4.25 15.23,4.25 15.66,4.24 16.09,4.23 16.52,4.22 16.95,4.2 17.37,4.19 17.8,4.18 18.23,4.18 18.66,4.19 19.09,4.21 19.52,4.22 19.95,4.24 20.38,4.24 20.81,4.25 21.24,4.25 21.66,4.24 22.09,4.23 22.52,4.21 22.95,4.2 23.38,4.19 23.81,4.18 24.24,4.18 24.67,4.19 25.1,4.21 25.53,4.22 25.95,4.24 26.38,4.25 26.81,4.25 27.24,4.25 27.67,4.25 28.1,4.26 28.53,4.26 28.96,4.26 29.39,4.26 29.82,4.26 30.24,4.26 30.67,4.26 31.1,4.26 31.53,4.26 31.96,4.26 32.39,4.26 32.82,4.26 33.25,4.26 33.68,4.26 34.11,4.26 34.53,4.26 34.96,4.26 35.39,4.26 35.82,4.26 36.25,4.26 36.68,4.26 37.11,4.26 37.54,4.26 37.97,4.26 38.4,4.26 38.82,4.26 39.25,4.26 39.68,4.26 40.11,4.26 40.54,4.26 40.97,4.26 41.4,4.26 41.83,4.26 42.26,4.26 42.69,4.26 43.11,4.26 43.54,4.26 43.97,4.26 44.4,4.26 44.83,4.26 45.26,4.26 45.69,4.26 46.12,4.25 46.55,4.25 46.98,4.25 47.4,4.25 47.83,4.24 48.26,4.22 48.69,4.21 49.12,4.19 49.55,4.18 49.98,4.18 50.41,4.19 50.84,4.2 51.27,4.22 51.69,4.23 52.12,4.24 52.55,4.25 52.98,4.25 53.41,4.25 53.84,4.26 54.27,4.26 54.7,4.26 " class="primitive"/>
          </g>
          <g transform="translate(111.39,94.04)" id="img-bab784e2-35" stroke-dasharray="none" stroke="#B23AEE" class="color_Area_3">
            <path fill="none" d="M-53.17,4.38 L-52.75,4.38 -52.33,4.37 -51.91,4.35 -51.5,4.3 -51.08,4.18 -50.66,3.9 -50.25,3.36 -49.83,2.39 -49.41,0.84 -49,-1.42 -48.58,-4.37 -48.16,-7.83 -47.74,-11.48 -47.33,-14.97 -46.91,-17.95 -46.49,-20.25 -46.08,-21.85 -45.66,-22.85 -45.24,-23.42 -44.83,-23.7 -44.41,-23.83 -43.99,-23.89 -43.57,-23.91 -43.16,-23.91 -42.74,-23.91 -42.32,-23.91 -41.91,-23.91 -41.49,-23.89 -41.07,-23.87 -40.66,-23.82 -40.24,-23.73 -39.82,-23.58 -39.4,-23.34 -38.99,-23 -38.57,-22.55 -38.15,-21.99 -37.74,-21.34 -37.32,-20.59 -36.9,-19.77 -36.49,-18.86 -36.07,-17.85 -35.65,-16.75 -35.23,-15.55 -34.82,-14.28 -34.4,-12.98 -33.98,-11.7 -33.57,-10.48 -33.15,-9.37 -32.73,-8.4 -32.32,-7.58 -31.9,-6.89 -31.48,-6.28 -31.07,-5.71 -30.65,-5.13 -30.23,-4.52 -29.81,-3.91 -29.4,-3.31 -28.98,-2.77 -28.56,-2.29 -28.15,-1.89 -27.73,-1.56 -27.31,-1.26 -26.9,-0.95 -26.48,-0.61 -26.06,-0.22 -25.64,0.22 -25.23,0.68 -24.81,1.11 -24.39,1.5 -23.98,1.8 -23.56,2.03 -23.14,2.17 -22.73,2.27 -22.31,2.33 -21.89,2.39 -21.47,2.44 -21.06,2.51 -20.64,2.58 -20.22,2.67 -19.81,2.78 -19.39,2.92 -18.97,3.07 -18.56,3.24 -18.14,3.39 -17.72,3.51 -17.3,3.59 -16.89,3.6 -16.47,3.58 -16.05,3.53 -15.64,3.49 -15.22,3.46 -14.8,3.46 -14.39,3.48 -13.97,3.53 -13.55,3.6 -13.13,3.67 -12.72,3.74 -12.3,3.79 -11.88,3.83 -11.47,3.84 -11.05,3.83 -10.63,3.82 -10.22,3.82 -9.8,3.84 -9.38,3.89 -8.97,3.96 -8.55,4.04 -8.13,4.12 -7.71,4.19 -7.3,4.24 -6.88,4.27 -6.46,4.28 -6.05,4.29 -5.63,4.29 -5.21,4.28 -4.8,4.27 -4.38,4.25 -3.96,4.22 -3.54,4.19 -3.13,4.17 -2.71,4.15 -2.29,4.14 -1.88,4.12 -1.46,4.09 -1.04,4.06 -0.63,4.01 -0.21,3.96 0.21,3.92 0.63,3.9 1.04,3.89 1.46,3.92 1.88,3.97 2.29,4.04 2.71,4.11 3.13,4.19 3.54,4.25 3.96,4.3 4.38,4.32 4.8,4.33 5.21,4.32 5.63,4.29 6.05,4.25 6.46,4.2 6.88,4.16 7.3,4.12 7.71,4.1 8.13,4.09 8.55,4.11 8.97,4.15 9.38,4.19 9.8,4.24 10.22,4.28 10.63,4.31 11.05,4.34 11.47,4.36 11.88,4.37 12.3,4.37 12.72,4.38 13.13,4.38 13.55,4.38 13.97,4.38 14.39,4.38 14.8,4.38 15.22,4.38 15.64,4.38 16.05,4.38 16.47,4.38 16.89,4.38 17.3,4.38 17.72,4.37 18.14,4.37 18.56,4.36 18.97,4.35 19.39,4.34 19.81,4.33 20.22,4.32 20.64,4.31 21.06,4.31 21.47,4.32 21.89,4.33 22.31,4.34 22.73,4.35 23.14,4.36 23.56,4.37 23.98,4.37 24.39,4.38 24.81,4.38 25.23,4.38 25.64,4.38 26.06,4.38 26.48,4.38 26.9,4.38 27.31,4.38 27.73,4.38 28.15,4.38 28.56,4.38 28.98,4.38 29.4,4.38 29.81,4.38 30.23,4.38 30.65,4.38 31.07,4.38 31.48,4.38 31.9,4.38 32.32,4.38 32.73,4.38 33.15,4.38 33.57,4.38 33.98,4.38 34.4,4.38 34.82,4.38 35.23,4.38 35.65,4.38 36.07,4.38 36.49,4.38 36.9,4.38 37.32,4.38 37.74,4.38 38.15,4.38 38.57,4.37 38.99,4.37 39.4,4.36 39.82,4.35 40.24,4.34 40.66,4.33 41.07,4.32 41.49,4.31 41.91,4.31 42.32,4.32 42.74,4.33 43.16,4.34 43.57,4.36 43.99,4.36 44.41,4.37 44.83,4.37 45.24,4.37 45.66,4.37 46.08,4.36 46.49,4.35 46.91,4.33 47.33,4.32 47.74,4.31 48.16,4.31 48.58,4.32 49,4.33 49.41,4.34 49.83,4.35 50.25,4.36 50.66,4.37 51.08,4.37 51.5,4.38 51.91,4.38 52.33,4.38 52.75,4.38 53.17,4.38 " class="primitive"/>
          </g>
          <g transform="translate(78.75,85.5)" id="img-bab784e2-36" stroke-dasharray="none" stroke="#4169E1" class="color_Area_2">
            <path fill="none" d="M-18.03,12.91 L-17.88,12.91 -17.74,12.91 -17.6,12.9 -17.46,12.89 -17.32,12.86 -17.18,12.81 -17.04,12.7 -16.89,12.51 -16.75,12.16 -16.61,11.59 -16.47,10.69 -16.33,9.33 -16.19,7.38 -16.05,4.71 -15.9,1.24 -15.76,-3.04 -15.62,-8.08 -15.48,-13.72 -15.34,-19.73 -15.2,-25.8 -15.06,-31.65 -14.92,-37.01 -14.77,-41.68 -14.63,-45.54 -14.49,-48.58 -14.35,-50.86 -14.21,-52.49 -14.07,-53.58 -13.93,-54.29 -13.78,-54.72 -13.64,-54.97 -13.5,-55.1 -13.36,-55.16 -13.22,-55.18 -13.08,-55.17 -12.94,-55.12 -12.79,-55.05 -12.65,-54.95 -12.51,-54.8 -12.37,-54.61 -12.23,-54.35 -12.09,-54.02 -11.95,-53.61 -11.8,-53.12 -11.66,-52.52 -11.52,-51.81 -11.38,-50.98 -11.24,-50.03 -11.1,-48.95 -10.96,-47.73 -10.82,-46.36 -10.67,-44.81 -10.53,-43.06 -10.39,-41.1 -10.25,-38.92 -10.11,-36.51 -9.97,-33.91 -9.83,-31.16 -9.68,-28.33 -9.54,-25.49 -9.4,-22.72 -9.26,-20.08 -9.12,-17.63 -8.98,-15.39 -8.84,-13.39 -8.69,-11.6 -8.55,-10.01 -8.41,-8.58 -8.27,-7.29 -8.13,-6.11 -7.99,-5.04 -7.85,-4.06 -7.71,-3.21 -7.56,-2.48 -7.42,-1.91 -7.28,-1.47 -7.14,-1.17 -7,-0.96 -6.86,-0.8 -6.72,-0.61 -6.57,-0.36 -6.43,-0.01 -6.29,0.45 -6.15,1.03 -6.01,1.69 -5.87,2.41 -5.73,3.14 -5.58,3.86 -5.44,4.52 -5.3,5.13 -5.16,5.65 -5.02,6.09 -4.88,6.44 -4.74,6.72 -4.59,6.93 -4.45,7.09 -4.31,7.22 -4.17,7.33 -4.03,7.44 -3.89,7.57 -3.75,7.71 -3.61,7.87 -3.46,8.04 -3.32,8.21 -3.18,8.38 -3.04,8.54 -2.9,8.69 -2.76,8.83 -2.62,8.97 -2.47,9.11 -2.33,9.27 -2.19,9.43 -2.05,9.59 -1.91,9.74 -1.77,9.87 -1.63,9.98 -1.48,10.06 -1.34,10.12 -1.2,10.17 -1.06,10.23 -0.92,10.32 -0.78,10.45 -0.64,10.61 -0.49,10.81 -0.35,11.03 -0.21,11.26 -0.07,11.48 0.07,11.67 0.21,11.83 0.35,11.96 0.49,12.04 0.64,12.08 0.78,12.09 0.92,12.07 1.06,12.03 1.2,11.99 1.34,11.95 1.48,11.93 1.63,11.93 1.77,11.96 1.91,12.02 2.05,12.09 2.19,12.16 2.33,12.22 2.47,12.25 2.62,12.25 2.76,12.22 2.9,12.15 3.04,12.07 3.18,11.99 3.32,11.93 3.46,11.91 3.61,11.92 3.75,11.98 3.89,12.08 4.03,12.2 4.17,12.33 4.31,12.46 4.45,12.58 4.59,12.68 4.74,12.76 4.88,12.82 5.02,12.85 5.16,12.88 5.3,12.89 5.44,12.9 5.58,12.91 5.73,12.91 5.87,12.91 6.01,12.91 6.15,12.91 6.29,12.91 6.43,12.91 6.57,12.91 6.72,12.91 6.86,12.91 7,12.91 7.14,12.9 7.28,12.89 7.42,12.87 7.56,12.85 7.71,12.82 7.85,12.79 7.99,12.75 8.13,12.7 8.27,12.66 8.41,12.62 8.55,12.59 8.69,12.58 8.84,12.59 8.98,12.61 9.12,12.64 9.26,12.68 9.4,12.73 9.54,12.77 9.68,12.81 9.83,12.84 9.97,12.87 10.11,12.88 10.25,12.9 10.39,12.9 10.53,12.91 10.67,12.91 10.82,12.91 10.96,12.91 11.1,12.91 11.24,12.91 11.38,12.91 11.52,12.91 11.66,12.91 11.8,12.91 11.95,12.91 12.09,12.91 12.23,12.91 12.37,12.91 12.51,12.91 12.65,12.91 12.79,12.91 12.94,12.91 13.08,12.91 13.22,12.91 13.36,12.91 13.5,12.9 13.64,12.89 13.78,12.87 13.93,12.84 14.07,12.79 14.21,12.73 14.35,12.65 14.49,12.54 14.63,12.42 14.77,12.29 14.92,12.16 15.06,12.05 15.2,11.97 15.34,11.93 15.48,11.94 15.62,12 15.76,12.1 15.9,12.22 16.05,12.35 16.19,12.47 16.33,12.59 16.47,12.69 16.61,12.76 16.75,12.82 16.89,12.85 17.04,12.88 17.18,12.89 17.32,12.9 17.46,12.91 17.6,12.91 17.74,12.91 17.88,12.91 18.03,12.91 " class="primitive"/>
          </g>
          <g transform="translate(86.5,89.56)" id="img-bab784e2-37" stroke-dasharray="none" stroke="#00CD66" class="color_Area_4">
            <path fill="none" d="M-26.27,8.86 L-26.07,8.86 -25.86,8.85 -25.65,8.84 -25.45,8.81 -25.24,8.75 -25.04,8.61 -24.83,8.33 -24.62,7.8 -24.42,6.88 -24.21,5.39 -24,3.15 -23.8,0.01 -23.59,-4.09 -23.39,-9.05 -23.18,-14.63 -22.97,-20.48 -22.77,-26.17 -22.56,-31.32 -22.36,-35.65 -22.15,-39.04 -21.94,-41.5 -21.74,-43.17 -21.53,-44.21 -21.33,-44.82 -21.12,-45.16 -20.91,-45.32 -20.71,-45.4 -20.5,-45.43 -20.3,-45.44 -20.09,-45.44 -19.88,-45.42 -19.68,-45.39 -19.47,-45.32 -19.27,-45.21 -19.06,-45.03 -18.85,-44.75 -18.65,-44.34 -18.44,-43.77 -18.24,-43 -18.03,-42.02 -17.82,-40.84 -17.62,-39.45 -17.41,-37.87 -17.21,-36.12 -17,-34.23 -16.79,-32.21 -16.59,-30.06 -16.38,-27.82 -16.17,-25.51 -15.97,-23.19 -15.76,-20.92 -15.56,-18.76 -15.35,-16.75 -15.14,-14.93 -14.94,-13.33 -14.73,-11.93 -14.53,-10.74 -14.32,-9.73 -14.11,-8.86 -13.91,-8.1 -13.7,-7.38 -13.5,-6.65 -13.29,-5.86 -13.08,-4.99 -12.88,-4.05 -12.67,-3.06 -12.47,-2.07 -12.26,-1.14 -12.05,-0.31 -11.85,0.41 -11.64,1 -11.44,1.51 -11.23,1.97 -11.02,2.41 -10.82,2.84 -10.61,3.25 -10.41,3.64 -10.2,3.99 -9.99,4.28 -9.79,4.54 -9.58,4.77 -9.38,5 -9.17,5.25 -8.96,5.51 -8.76,5.81 -8.55,6.11 -8.35,6.42 -8.14,6.72 -7.93,6.99 -7.73,7.2 -7.52,7.36 -7.31,7.47 -7.11,7.51 -6.9,7.51 -6.7,7.49 -6.49,7.46 -6.28,7.44 -6.08,7.45 -5.87,7.48 -5.67,7.55 -5.46,7.63 -5.25,7.7 -5.05,7.74 -4.84,7.76 -4.64,7.75 -4.43,7.72 -4.22,7.67 -4.02,7.63 -3.81,7.61 -3.61,7.63 -3.4,7.67 -3.19,7.75 -2.99,7.84 -2.78,7.94 -2.58,8.02 -2.37,8.09 -2.16,8.14 -1.96,8.17 -1.75,8.18 -1.55,8.18 -1.34,8.16 -1.13,8.12 -0.93,8.05 -0.72,7.96 -0.52,7.86 -0.31,7.76 -0.1,7.65 0.1,7.56 0.31,7.5 0.52,7.46 0.72,7.46 0.93,7.5 1.13,7.57 1.34,7.68 1.55,7.8 1.75,7.91 1.96,7.99 2.16,8.05 2.37,8.08 2.58,8.1 2.78,8.12 2.99,8.15 3.19,8.2 3.4,8.26 3.61,8.32 3.81,8.37 4.02,8.4 4.22,8.42 4.43,8.42 4.64,8.42 4.84,8.43 5.05,8.45 5.25,8.49 5.46,8.54 5.67,8.6 5.87,8.66 6.08,8.71 6.28,8.75 6.49,8.77 6.7,8.77 6.9,8.75 7.11,8.71 7.31,8.66 7.52,8.6 7.73,8.54 7.93,8.49 8.14,8.45 8.35,8.44 8.55,8.46 8.76,8.5 8.96,8.55 9.17,8.6 9.38,8.64 9.58,8.67 9.79,8.68 9.99,8.67 10.2,8.66 10.41,8.64 10.61,8.64 10.82,8.64 11.02,8.66 11.23,8.69 11.44,8.73 11.64,8.76 11.85,8.78 12.05,8.8 12.26,8.81 12.47,8.8 12.67,8.78 12.88,8.75 13.08,8.72 13.29,8.68 13.5,8.66 13.7,8.64 13.91,8.64 14.11,8.66 14.32,8.69 14.53,8.72 14.73,8.76 14.94,8.79 15.14,8.81 15.35,8.83 15.56,8.85 15.76,8.85 15.97,8.86 16.17,8.86 16.38,8.86 16.59,8.86 16.79,8.86 17,8.85 17.21,8.84 17.41,8.83 17.62,8.81 17.82,8.78 18.03,8.75 18.24,8.71 18.44,8.68 18.65,8.65 18.85,8.64 19.06,8.65 19.27,8.67 19.47,8.7 19.68,8.73 19.88,8.77 20.09,8.8 20.3,8.82 20.5,8.84 20.71,8.84 20.91,8.85 21.12,8.84 21.33,8.83 21.53,8.81 21.74,8.77 21.94,8.72 22.15,8.66 22.36,8.59 22.56,8.53 22.77,8.47 22.97,8.44 23.18,8.43 23.39,8.45 23.59,8.5 23.8,8.57 24,8.64 24.21,8.7 24.42,8.76 24.62,8.8 24.83,8.82 25.04,8.84 25.24,8.85 25.45,8.86 25.65,8.86 25.86,8.86 26.07,8.86 26.27,8.86 " class="primitive"/>
          </g>
        </g>
      </g>
    </g>
  </g>
  <g class="guide ylabels" font-size="3.53" font-family="CMU Serif" fill="#6C606B" id="img-bab784e2-38">
    <g transform="translate(22.11,98.42)" id="img-bab784e2-39">
      <g class="primitive">
        <text text-anchor="end" dy="0.35em">0.000</text>
      </g>
    </g>
    <g transform="translate(22.11,67.94)" id="img-bab784e2-40">
      <g class="primitive">
        <text text-anchor="end" dy="0.35em">0.005</text>
      </g>
    </g>
    <g transform="translate(22.11,37.47)" id="img-bab784e2-41">
      <g class="primitive">
        <text text-anchor="end" dy="0.35em">0.010</text>
      </g>
    </g>
    <g transform="translate(22.11,7)" id="img-bab784e2-42">
      <g class="primitive">
        <text text-anchor="end" dy="0.35em">0.015</text>
      </g>
    </g>
  </g>
  <g font-size="3.53" font-family="CMU Serif" fill="#564A55" stroke="#000000" stroke-opacity="0.000" id="img-bab784e2-43">
    <g transform="translate(8.65,50.71)" id="img-bab784e2-44">
      <g class="primitive">
        <text text-anchor="middle" dy="0.35em" transform="rotate(-90,0, 2)">Density</text>
      </g>
    </g>
  </g>
</g>
<defs>
  <clipPath id="img-bab784e2-17">
    <path d="M23.11,5 L180.48,5 180.48,100.42 23.11,100.42 " />
  </clipPath>
</defs>
</svg>
