<?xml version="1.0" encoding="UTF-8"?>
<svg xmlns="http://www.w3.org/2000/svg"
     xmlns:xlink="http://www.w3.org/1999/xlink"
     xmlns:gadfly="http://www.gadflyjl.org/ns"
     version="1.2"
     width="200mm" height="120mm" viewBox="0 0 200 120"
     stroke="none"
     fill="#000000"
     stroke-width="0.3"
     font-size="3.88"
>
<defs>
  <marker id="arrow" markerWidth="15" markerHeight="7" refX="5" refY="3.5" orient="auto" markerUnits="strokeWidth">
    <path d="M0,0 L15,3.5 L0,7 z" stroke="context-stroke" fill="context-stroke"/>
  </marker>
</defs>
<g class="plotroot xscalable yscalable" id="img-2303aea8-1">
  <g font-size="3.53" font-family="CMU Serif" fill="#564A55" stroke="#000000" stroke-opacity="0.000" id="img-2303aea8-2">
    <g transform="translate(101.79,108.71)">
      <g class="primitive">
        <text text-anchor="middle" dy="0.6em">Proper Motion Right Ascension (mas/yr)</text>
      </g>
    </g>
  </g>
  <g class="guide xlabels" font-size="3.53" font-family="CMU Serif" fill="#6C606B" id="img-2303aea8-3">
    <g transform="translate(25.11,101.42)">
      <g class="primitive">
        <text text-anchor="middle" dy="0.6em">-2.00×10³</text>
      </g>
    </g>
    <g transform="translate(63.45,101.42)">
      <g class="primitive">
        <text text-anchor="middle" dy="0.6em">0</text>
      </g>
    </g>
    <g transform="translate(101.79,101.42)">
      <g class="primitive">
        <text text-anchor="middle" dy="0.6em">2.00×10³</text>
      </g>
    </g>
    <g transform="translate(140.14,101.42)">
      <g class="primitive">
        <text text-anchor="middle" dy="0.6em">4.00×10³</text>
      </g>
    </g>
    <g transform="translate(178.48,101.42)">
      <g class="primitive">
        <text text-anchor="middle" dy="0.6em">6.00×10³</text>
      </g>
    </g>
  </g>
  <g class="guide colorkey" id="img-2303aea8-4">
    <g fill="#4C404B" font-size="3.53" font-family="CMU Serif" id="img-2303aea8-5">
      <g transform="translate(184.62,48.42)" id="img-2303aea8-6" class="color_Area_1">
        <g class="primitive">
          <text dy="0.35em">Area 1</text>
        </g>
      </g>
      <g transform="translate(184.62,52.71)" id="img-2303aea8-7" class="color_Area_2">
        <g class="primitive">
          <text dy="0.35em">Area 2</text>
        </g>
      </g>
      <g transform="translate(184.62,57)" id="img-2303aea8-8" class="color_Area_3">
        <g class="primitive">
          <text dy="0.35em">Area 3</text>
        </g>
      </g>
      <g transform="translate(184.62,61.29)" id="img-2303aea8-9" class="color_Area_4">
        <g class="primitive">
          <text dy="0.35em">Area 4</text>
        </g>
      </g>
    </g>
    <g fill-opacity="1" id="img-2303aea8-10">
      <g transform="translate(182.55,48.42)" id="img-2303aea8-11" stroke="#FFFFFF" class="color_Area_1" fill="#FF6347">
        <path d="M-1.07,-1.07 L1.07,-1.07 1.07,1.07 -1.07,1.07  z" class="primitive"/>
      </g>
      <g transform="translate(182.55,52.71)" id="img-2303aea8-12" stroke="#FFFFFF" class="color_Area_2" fill="#4169E1">
        <path d="M-1.07,-1.07 L1.07,-1.07 1.07,1.07 -1.07,1.07  z" class="primitive"/>
      </g>
      <g transform="translate(182.55,57)" id="img-2303aea8-13" stroke="#FFFFFF" class="color_Area_3" fill="#B23AEE">
        <path d="M-1.07,-1.07 L1.07,-1.07 1.07,1.07 -1.07,1.07  z" class="primitive"/>
      </g>
      <g transform="translate(182.55,61.29)" id="img-2303aea8-14" stroke="#FFFFFF" class="color_Area_4" fill="#00CD66">
        <path d="M-1.07,-1.07 L1.07,-1.07 1.07,1.07 -1.07,1.07  z" class="primitive"/>
      </g>
    </g>
    <g fill="#362A35" font-size="4.23" font-family="CMU Serif" stroke="#000000" stroke-opacity="0.000" id="img-2303aea8-15">
      <g transform="translate(181.48,44.1)" id="img-2303aea8-16">
        <g class="primitive">
          <text dy="-0em">Area</text>
        </g>
      </g>
    </g>
  </g>
  <g clip-path="url(#img-2303aea8-17)">
    <g id="img-2303aea8-18">
      <g pointer-events="visible" stroke-width="0.3" fill="#000000" fill-opacity="0.000" stroke="#000000" stroke-opacity="0.000" class="guide background" id="img-2303aea8-19">
        <g transform="translate(101.79,52.71)" id="img-2303aea8-20">
          <path d="M-78.69,-47.71 L78.69,-47.71 78.69,47.71 -78.69,47.71  z" class="primitive"/>
        </g>
      </g>
      <g class="guide ygridlines xfixed" stroke-dasharray="0.5,0.5" stroke-width="0.2" stroke="#D0D0E0" id="img-2303aea8-21">
        <g transform="translate(101.79,98.42)" id="img-2303aea8-22">
          <path fill="none" d="M-78.69,0 L78.69,0 " class="primitive"/>
        </g>
        <g transform="translate(101.79,52.71)" id="img-2303aea8-23">
          <path fill="none" d="M-78.69,0 L78.69,0 " class="primitive"/>
        </g>
        <g transform="translate(101.79,7)" id="img-2303aea8-24">
          <path fill="none" d="M-78.69,0 L78.69,0 " class="primitive"/>
        </g>
      </g>
      <g class="guide xgridlines yfixed" stroke-dasharray="0.5,0.5" stroke-width="0.2" stroke="#D0D0E0" id="img-2303aea8-25">
        <g transform="translate(25.11,52.71)" id="img-2303aea8-26">
          <path fill="none" d="M0,-47.71 L0,47.71 " class="primitive"/>
        </g>
        <g transform="translate(63.45,52.71)" id="img-2303aea8-27">
          <path fill="none" d="M0,-47.71 L0,47.71 " class="primitive"/>
        </g>
        <g transform="translate(101.79,52.71)" id="img-2303aea8-28">
          <path fill="none" d="M0,-47.71 L0,47.71 " class="primitive"/>
        </g>
        <g transform="translate(140.14,52.71)" id="img-2303aea8-29">
          <path fill="none" d="M0,-47.71 L0,47.71 " class="primitive"/>
        </g>
        <g transform="translate(178.48,52.71)" id="img-2303aea8-30">
          <path fill="none" d="M0,-47.71 L0,47.71 " class="primitive"/>
        </g>
      </g>
      <g class="plotpanel" id="img-2303aea8-31">
        <metadata>
          <boundingbox value="23.10833333333332mm 5.0mm 157.37083333333334mm 95.41666666666667mm"/>
          <unitbox value="-2104.3223124779265 0.010218778486782133 8208.644624955854 -0.010437556973564266"/>
        </metadata>
        <g stroke-width="0.3" fill="#000000" fill-opacity="0.000" class="geometry" id="img-2303aea8-32">
          <g transform="translate(101.8,96.22)" id="img-2303aea8-33" stroke-dasharray="none" stroke="#FF6347" class="color_Area_1">
            <path fill="none" d="M-39.71,2.19 L-39.4,2.13 -39.09,1.41 -38.78,-2.41 -38.47,-12.7 -38.15,-26.36 -37.84,-35.05 -37.53,-37.67 -37.22,-38.06 -36.91,-38.09 -36.6,-38.05 -36.29,-37.79 -35.97,-36.8 -35.66,-34.6 -35.35,-31.13 -35.04,-26.63 -34.73,-21.99 -34.42,-18.25 -34.1,-15.1 -33.79,-11.56 -33.48,-7.88 -33.17,-5.31 -32.86,-3.93 -32.55,-3.02 -32.24,-2.23 -31.92,-1.37 -31.61,-0.66 -31.3,-0.39 -30.99,-0.27 -30.68,0.09 -30.37,0.63 -30.06,0.99 -29.74,1.17 -29.43,1.35 -29.12,1.52 -28.81,1.62 -28.5,1.75 -28.19,1.79 -27.88,1.71 -27.56,1.53 -27.25,1.27 -26.94,1.13 -26.63,1.23 -26.32,1.51 -26.01,1.78 -25.7,1.94 -25.38,2.04 -25.07,2.09 -24.76,2.13 -24.45,2.13 -24.14,2.11 -23.83,2.11 -23.52,2.07 -23.2,2.02 -22.89,2.07 -22.58,2.15 -22.27,2.19 -21.96,2.18 -21.65,2.12 -21.34,2.05 -21.02,2.04 -20.71,2.12 -20.4,2.18 -20.09,2.2 -19.78,2.2 -19.47,2.2 -19.15,2.2 -18.84,2.2 -18.53,2.19 -18.22,2.17 -17.91,2.13 -17.6,2.11 -17.29,2.12 -16.97,2.12 -16.66,2.1 -16.35,2.09 -16.04,2.06 -15.73,2.06 -15.42,2.1 -15.11,2.15 -14.79,2.19 -14.48,2.2 -14.17,2.2 -13.86,2.2 -13.55,2.2 -13.24,2.2 -12.93,2.2 -12.61,2.2 -12.3,2.2 -11.99,2.2 -11.68,2.2 -11.37,2.2 -11.06,2.2 -10.75,2.2 -10.43,2.2 -10.12,2.2 -9.81,2.2 -9.5,2.2 -9.19,2.2 -8.88,2.2 -8.57,2.2 -8.25,2.2 -7.94,2.2 -7.63,2.2 -7.32,2.2 -7.01,2.2 -6.7,2.2 -6.38,2.2 -6.07,2.2 -5.76,2.2 -5.45,2.2 -5.14,2.19 -4.83,2.17 -4.52,2.13 -4.2,2.11 -3.89,2.15 -3.58,2.19 -3.27,2.2 -2.96,2.2 -2.65,2.2 -2.34,2.2 -2.02,2.2 -1.71,2.2 -1.4,2.2 -1.09,2.2 -0.78,2.2 -0.47,2.2 -0.16,2.2 0.16,2.2 0.47,2.2 0.78,2.2 1.09,2.2 1.4,2.2 1.71,2.2 2.02,2.2 2.34,2.2 2.65,2.2 2.96,2.2 3.27,2.2 3.58,2.2 3.89,2.2 4.2,2.2 4.52,2.2 4.83,2.2 5.14,2.2 5.45,2.2 5.76,2.2 6.07,2.2 6.38,2.2 6.7,2.2 7.01,2.2 7.32,2.2 7.63,2.2 7.94,2.2 8.25,2.2 8.57,2.2 8.88,2.2 9.19,2.2 9.5,2.2 9.81,2.2 10.12,2.2 10.43,2.2 10.75,2.2 11.06,2.2 11.37,2.2 11.68,2.2 11.99,2.2 12.3,2.2 12.61,2.2 12.93,2.2 13.24,2.2 13.55,2.2 13.86,2.2 14.17,2.2 14.48,2.2 14.79,2.2 15.11,2.2 15.42,2.2 15.73,2.2 16.04,2.2 16.35,2.2 16.66,2.2 16.97,2.2 17.29,2.2 17.6,2.2 17.91,2.2 18.22,2.2 18.53,2.2 18.84,2.2 19.15,2.2 19.47,2.2 19.78,2.2 20.09,2.2 20.4,2.2 20.71,2.2 21.02,2.2 21.34,2.2 21.65,2.2 21.96,2.2 22.27,2.2 22.58,2.2 22.89,2.2 23.2,2.2 23.52,2.2 23.83,2.2 24.14,2.2 24.45,2.2 24.76,2.2 25.07,2.2 25.38,2.2 25.7,2.2 26.01,2.2 26.32,2.2 26.63,2.2 26.94,2.2 27.25,2.2 27.56,2.2 27.88,2.2 28.19,2.2 28.5,2.2 28.81,2.2 29.12,2.2 29.43,2.2 29.74,2.2 30.06,2.2 30.37,2.2 30.68,2.2 30.99,2.2 31.3,2.2 31.61,2.2 31.92,2.2 32.24,2.2 32.55,2.2 32.86,2.2 33.17,2.2 33.48,2.2 33.79,2.2 34.1,2.2 34.42,2.2 34.73,2.2 35.04,2.2 35.35,2.2 35.66,2.2 35.97,2.2 36.29,2.2 36.6,2.2 36.91,2.2 37.22,2.2 37.53,2.19 37.84,2.17 38.15,2.13 38.47,2.11 38.78,2.15 39.09,2.19 39.4,2.2 39.71,2.2 " class="primitive"/>
          </g>
          <g transform="translate(117.43,96.85)" id="img-2303aea8-34" stroke-dasharray="none" stroke="#B23AEE" class="color_Area_3">
            <path fill="none" d="M-55.77,1.56 L-55.33,1.51 -54.89,0.78 -54.45,-3.01 -54.02,-11.7 -53.58,-21.01 -53.14,-25.56 -52.7,-26.49 -52.27,-26.57 -51.83,-26.57 -51.39,-26.54 -50.95,-26.35 -50.52,-25.69 -50.08,-24.21 -49.64,-21.79 -49.21,-18.73 -48.77,-15.48 -48.33,-12.24 -47.89,-9.32 -47.46,-7.09 -47.02,-5.49 -46.58,-4.33 -46.14,-3.37 -45.71,-2.4 -45.27,-1.57 -44.83,-0.97 -44.39,-0.54 -43.96,-0.13 -43.52,0.15 -43.08,0.37 -42.64,0.53 -42.21,0.5 -41.77,0.52 -41.33,0.61 -40.9,0.71 -40.46,0.93 -40.02,1.06 -39.58,1.09 -39.15,1.2 -38.71,1.36 -38.27,1.43 -37.83,1.4 -37.4,1.31 -36.96,1.28 -36.52,1.37 -36.08,1.46 -35.65,1.47 -35.21,1.44 -34.77,1.41 -34.33,1.4 -33.9,1.42 -33.46,1.44 -33.02,1.45 -32.58,1.48 -32.15,1.52 -31.71,1.55 -31.27,1.56 -30.84,1.54 -30.4,1.5 -29.96,1.49 -29.52,1.5 -29.09,1.51 -28.65,1.48 -28.21,1.48 -27.77,1.5 -27.34,1.51 -26.9,1.53 -26.46,1.54 -26.02,1.52 -25.59,1.53 -25.15,1.55 -24.71,1.56 -24.27,1.56 -23.84,1.57 -23.4,1.57 -22.96,1.56 -22.53,1.56 -22.09,1.55 -21.65,1.52 -21.21,1.5 -20.78,1.5 -20.34,1.53 -19.9,1.55 -19.46,1.54 -19.03,1.52 -18.59,1.53 -18.15,1.56 -17.71,1.56 -17.28,1.57 -16.84,1.57 -16.4,1.57 -15.96,1.57 -15.53,1.57 -15.09,1.57 -14.65,1.56 -14.21,1.56 -13.78,1.54 -13.34,1.52 -12.9,1.53 -12.47,1.55 -12.03,1.56 -11.59,1.57 -11.15,1.57 -10.72,1.57 -10.28,1.56 -9.84,1.56 -9.4,1.55 -8.97,1.53 -8.53,1.52 -8.09,1.55 -7.65,1.56 -7.22,1.56 -6.78,1.57 -6.34,1.57 -5.9,1.57 -5.47,1.57 -5.03,1.57 -4.59,1.57 -4.16,1.57 -3.72,1.57 -3.28,1.57 -2.84,1.57 -2.41,1.57 -1.97,1.57 -1.53,1.57 -1.09,1.57 -0.66,1.57 -0.22,1.57 0.22,1.57 0.66,1.57 1.09,1.57 1.53,1.57 1.97,1.57 2.41,1.57 2.84,1.56 3.28,1.56 3.72,1.54 4.16,1.52 4.59,1.53 5.03,1.56 5.47,1.56 5.9,1.57 6.34,1.57 6.78,1.57 7.22,1.57 7.65,1.57 8.09,1.57 8.53,1.57 8.97,1.57 9.4,1.57 9.84,1.57 10.28,1.57 10.72,1.57 11.15,1.57 11.59,1.57 12.03,1.57 12.47,1.57 12.9,1.57 13.34,1.57 13.78,1.57 14.21,1.57 14.65,1.57 15.09,1.57 15.53,1.57 15.96,1.57 16.4,1.57 16.84,1.57 17.28,1.57 17.71,1.57 18.15,1.57 18.59,1.57 19.03,1.57 19.46,1.57 19.9,1.57 20.34,1.57 20.78,1.57 21.21,1.57 21.65,1.57 22.09,1.57 22.53,1.57 22.96,1.57 23.4,1.57 23.84,1.57 24.27,1.57 24.71,1.57 25.15,1.57 25.59,1.57 26.02,1.57 26.46,1.57 26.9,1.57 27.34,1.57 27.77,1.57 28.21,1.57 28.65,1.57 29.09,1.57 29.52,1.57 29.96,1.57 30.4,1.57 30.84,1.57 31.27,1.57 31.71,1.57 32.15,1.57 32.58,1.57 33.02,1.57 33.46,1.57 33.9,1.57 34.33,1.57 34.77,1.57 35.21,1.57 35.65,1.57 36.08,1.57 36.52,1.57 36.96,1.57 37.4,1.57 37.83,1.57 38.27,1.57 38.71,1.57 39.15,1.57 39.58,1.57 40.02,1.57 40.46,1.57 40.9,1.57 41.33,1.57 41.77,1.57 42.21,1.57 42.64,1.57 43.08,1.57 43.52,1.57 43.96,1.57 44.39,1.57 44.83,1.57 45.27,1.57 45.71,1.57 46.14,1.57 46.58,1.57 47.02,1.57 47.46,1.57 47.89,1.57 48.33,1.57 48.77,1.57 49.21,1.57 49.64,1.57 50.08,1.57 50.52,1.57 50.95,1.57 51.39,1.57 51.83,1.57 52.27,1.57 52.7,1.56 53.14,1.56 53.58,1.54 54.02,1.52 54.45,1.54 54.89,1.56 55.33,1.56 55.77,1.57 " class="primitive"/>
          </g>
          <g transform="translate(66.9,77.71)" id="img-2303aea8-35" stroke-dasharray="none" stroke="#4169E1" class="color_Area_2">
            <path fill="none" d="M-4.22,20.71 L-4.18,20.7 -4.15,20.7 -4.12,20.69 -4.08,20.68 -4.05,20.66 -4.02,20.62 -3.98,20.55 -3.95,20.44 -3.92,20.24 -3.88,19.94 -3.85,19.48 -3.82,18.79 -3.79,17.81 -3.75,16.44 -3.72,14.6 -3.69,12.2 -3.65,9.18 -3.62,5.51 -3.59,1.17 -3.55,-3.79 -3.52,-9.27 -3.49,-15.13 -3.45,-21.21 -3.42,-27.29 -3.39,-33.19 -3.36,-38.74 -3.32,-43.77 -3.29,-48.2 -3.26,-51.97 -3.22,-55.08 -3.19,-57.55 -3.16,-59.46 -3.12,-60.89 -3.09,-61.92 -3.06,-62.64 -3.03,-63.13 -2.99,-63.45 -2.96,-63.65 -2.93,-63.77 -2.89,-63.84 -2.86,-63.89 -2.83,-63.91 -2.79,-63.91 -2.76,-63.91 -2.73,-63.9 -2.69,-63.88 -2.66,-63.85 -2.63,-63.8 -2.6,-63.73 -2.56,-63.62 -2.53,-63.47 -2.5,-63.27 -2.46,-63 -2.43,-62.65 -2.4,-62.21 -2.36,-61.67 -2.33,-61.02 -2.3,-60.26 -2.26,-59.39 -2.23,-58.4 -2.2,-57.3 -2.17,-56.11 -2.13,-54.81 -2.1,-53.42 -2.07,-51.94 -2.03,-50.36 -2,-48.68 -1.97,-46.89 -1.93,-44.99 -1.9,-42.97 -1.87,-40.84 -1.83,-38.6 -1.8,-36.27 -1.77,-33.86 -1.74,-31.41 -1.7,-28.95 -1.67,-26.52 -1.64,-24.14 -1.6,-21.87 -1.57,-19.73 -1.54,-17.74 -1.5,-15.92 -1.47,-14.25 -1.44,-12.72 -1.41,-11.32 -1.37,-10 -1.34,-8.75 -1.31,-7.53 -1.27,-6.34 -1.24,-5.17 -1.21,-4.02 -1.17,-2.89 -1.14,-1.81 -1.11,-0.76 -1.07,0.23 -1.04,1.18 -1.01,2.07 -0.98,2.93 -0.94,3.75 -0.91,4.54 -0.88,5.31 -0.84,6.06 -0.81,6.8 -0.78,7.52 -0.74,8.21 -0.71,8.87 -0.68,9.49 -0.64,10.06 -0.61,10.56 -0.58,11.01 -0.55,11.37 -0.51,11.66 -0.48,11.86 -0.45,11.98 -0.41,12.03 -0.38,12 -0.35,11.91 -0.31,11.78 -0.28,11.64 -0.25,11.5 -0.21,11.4 -0.18,11.35 -0.15,11.38 -0.12,11.51 -0.08,11.74 -0.05,12.07 -0.02,12.5 0.02,12.99 0.05,13.53 0.08,14.1 0.12,14.66 0.15,15.2 0.18,15.69 0.21,16.12 0.25,16.5 0.28,16.81 0.31,17.07 0.35,17.29 0.38,17.49 0.41,17.67 0.45,17.85 0.48,18.04 0.51,18.22 0.55,18.4 0.58,18.58 0.61,18.73 0.64,18.87 0.68,18.98 0.71,19.05 0.74,19.09 0.78,19.11 0.81,19.09 0.84,19.06 0.88,19.02 0.91,18.98 0.94,18.95 0.98,18.92 1.01,18.92 1.04,18.92 1.07,18.95 1.11,18.99 1.14,19.03 1.17,19.08 1.21,19.13 1.24,19.19 1.27,19.24 1.31,19.29 1.34,19.34 1.37,19.4 1.41,19.47 1.44,19.55 1.47,19.63 1.5,19.73 1.54,19.82 1.57,19.92 1.6,20.01 1.64,20.08 1.67,20.15 1.7,20.2 1.74,20.24 1.77,20.26 1.8,20.28 1.83,20.29 1.87,20.3 1.9,20.32 1.93,20.34 1.97,20.36 2,20.4 2.03,20.43 2.07,20.47 2.1,20.51 2.13,20.55 2.17,20.59 2.2,20.62 2.23,20.64 2.26,20.66 2.3,20.68 2.33,20.69 2.36,20.69 2.4,20.7 2.43,20.7 2.46,20.7 2.5,20.71 2.53,20.71 2.56,20.71 2.6,20.71 2.63,20.71 2.66,20.7 2.69,20.7 2.73,20.7 2.76,20.7 2.79,20.69 2.83,20.68 2.86,20.67 2.89,20.65 2.93,20.63 2.96,20.6 2.99,20.57 3.03,20.53 3.06,20.48 3.09,20.43 3.12,20.38 3.16,20.33 3.19,20.28 3.22,20.23 3.26,20.19 3.29,20.16 3.32,20.14 3.36,20.13 3.39,20.13 3.42,20.14 3.45,20.17 3.49,20.2 3.52,20.24 3.55,20.28 3.59,20.33 3.62,20.39 3.65,20.44 3.69,20.49 3.72,20.53 3.75,20.57 3.79,20.61 3.82,20.64 3.85,20.66 3.88,20.67 3.92,20.68 3.95,20.69 3.98,20.7 4.02,20.7 4.05,20.7 4.08,20.71 4.12,20.71 4.15,20.71 4.18,20.71 4.22,20.71 " class="primitive"/>
          </g>
          <g transform="translate(91.13,95.44)" id="img-2303aea8-36" stroke-dasharray="none" stroke="#00CD66" class="color_Area_4">
            <path fill="none" d="M-29.34,2.97 L-29.11,2.97 -28.88,2.92 -28.65,2.68 -28.42,1.81 -28.19,-0.5 -27.96,-5.06 -27.73,-11.64 -27.5,-18.62 -27.27,-24.05 -27.04,-27.14 -26.81,-28.42 -26.58,-28.81 -26.35,-28.9 -26.12,-28.91 -25.89,-28.91 -25.66,-28.9 -25.43,-28.87 -25.2,-28.76 -24.97,-28.49 -24.74,-28.01 -24.51,-27.29 -24.27,-26.34 -24.04,-25.1 -23.81,-23.44 -23.58,-21.35 -23.35,-18.95 -23.12,-16.45 -22.89,-14.09 -22.66,-12.05 -22.43,-10.41 -22.2,-9.07 -21.97,-7.83 -21.74,-6.55 -21.51,-5.24 -21.28,-4 -21.05,-2.97 -20.82,-2.25 -20.59,-1.83 -20.36,-1.51 -20.13,-1.07 -19.9,-0.45 -19.67,0.22 -19.44,0.73 -19.21,1.05 -18.98,1.28 -18.75,1.5 -18.52,1.69 -18.29,1.83 -18.06,1.94 -17.83,2.03 -17.6,2.1 -17.37,2.11 -17.14,2.05 -16.91,1.93 -16.68,1.83 -16.45,1.83 -16.22,1.94 -15.99,2.07 -15.76,2.15 -15.53,2.2 -15.3,2.28 -15.07,2.37 -14.84,2.45 -14.61,2.5 -14.38,2.52 -14.15,2.49 -13.92,2.45 -13.69,2.41 -13.46,2.43 -13.23,2.47 -13,2.51 -12.77,2.56 -12.54,2.64 -12.31,2.72 -12.08,2.79 -11.85,2.81 -11.62,2.8 -11.39,2.75 -11.16,2.69 -10.93,2.63 -10.7,2.6 -10.47,2.64 -10.24,2.71 -10.01,2.81 -9.78,2.88 -9.55,2.93 -9.32,2.95 -9.09,2.94 -8.86,2.92 -8.63,2.9 -8.4,2.88 -8.17,2.86 -7.94,2.84 -7.71,2.82 -7.48,2.81 -7.25,2.81 -7.02,2.82 -6.79,2.84 -6.56,2.86 -6.33,2.86 -6.1,2.84 -5.87,2.83 -5.64,2.84 -5.41,2.88 -5.18,2.92 -4.95,2.95 -4.72,2.97 -4.49,2.97 -4.26,2.98 -4.03,2.98 -3.8,2.98 -3.57,2.98 -3.34,2.98 -3.11,2.98 -2.88,2.98 -2.65,2.97 -2.42,2.97 -2.19,2.97 -1.96,2.96 -1.73,2.94 -1.5,2.92 -1.27,2.92 -1.04,2.93 -0.81,2.95 -0.58,2.97 -0.35,2.97 -0.12,2.97 0.12,2.98 0.35,2.98 0.58,2.98 0.81,2.97 1.04,2.97 1.27,2.96 1.5,2.93 1.73,2.88 1.96,2.83 2.19,2.81 2.42,2.83 2.65,2.88 2.88,2.93 3.11,2.96 3.34,2.97 3.57,2.97 3.8,2.97 4.03,2.97 4.26,2.96 4.49,2.95 4.72,2.93 4.95,2.91 5.18,2.91 5.41,2.92 5.64,2.92 5.87,2.91 6.1,2.92 6.33,2.93 6.56,2.95 6.79,2.96 7.02,2.97 7.25,2.97 7.48,2.98 7.71,2.98 7.94,2.98 8.17,2.98 8.4,2.98 8.63,2.98 8.86,2.98 9.09,2.98 9.32,2.98 9.55,2.98 9.78,2.98 10.01,2.98 10.24,2.98 10.47,2.98 10.7,2.98 10.93,2.98 11.16,2.98 11.39,2.98 11.62,2.98 11.85,2.98 12.08,2.98 12.31,2.98 12.54,2.98 12.77,2.98 13,2.98 13.23,2.98 13.46,2.98 13.69,2.98 13.92,2.98 14.15,2.98 14.38,2.98 14.61,2.98 14.84,2.98 15.07,2.98 15.3,2.98 15.53,2.98 15.76,2.98 15.99,2.98 16.22,2.98 16.45,2.98 16.68,2.98 16.91,2.98 17.14,2.98 17.37,2.98 17.6,2.98 17.83,2.98 18.06,2.98 18.29,2.98 18.52,2.98 18.75,2.98 18.98,2.98 19.21,2.98 19.44,2.98 19.67,2.98 19.9,2.98 20.13,2.98 20.36,2.98 20.59,2.98 20.82,2.98 21.05,2.98 21.28,2.98 21.51,2.98 21.74,2.98 21.97,2.98 22.2,2.98 22.43,2.98 22.66,2.98 22.89,2.98 23.12,2.98 23.35,2.98 23.58,2.98 23.81,2.98 24.04,2.98 24.27,2.98 24.51,2.98 24.74,2.98 24.97,2.98 25.2,2.98 25.43,2.98 25.66,2.98 25.89,2.97 26.12,2.97 26.35,2.97 26.58,2.96 26.81,2.94 27.04,2.91 27.27,2.89 27.5,2.88 27.73,2.89 27.96,2.91 28.19,2.94 28.42,2.96 28.65,2.97 28.88,2.97 29.11,2.98 29.34,2.98 " class="primitive"/>
          </g>
        </g>
      </g>
    </g>
  </g>
  <g class="guide ylabels" font-size="3.53" font-family="CMU Serif" fill="#6C606B" id="img-2303aea8-37">
    <g transform="translate(22.11,98.42)" id="img-2303aea8-38">
      <g class="primitive">
        <text text-anchor="end" dy="0.35em">0.000</text>
      </g>
    </g>
    <g transform="translate(22.11,52.71)" id="img-2303aea8-39">
      <g class="primitive">
        <text text-anchor="end" dy="0.35em">0.005</text>
      </g>
    </g>
    <g transform="translate(22.11,7)" id="img-2303aea8-40">
      <g class="primitive">
        <text text-anchor="end" dy="0.35em">0.010</text>
      </g>
    </g>
  </g>
  <g font-size="3.53" font-family="CMU Serif" fill="#564A55" stroke="#000000" stroke-opacity="0.000" id="img-2303aea8-41">
    <g transform="translate(8.65,50.71)" id="img-2303aea8-42">
      <g class="primitive">
        <text text-anchor="middle" dy="0.35em" transform="rotate(-90,0, 2)">Density</text>
      </g>
    </g>
  </g>
</g>
<defs>
  <clipPath id="img-2303aea8-17">
    <path d="M23.11,5 L180.48,5 180.48,100.42 23.11,100.42 " />
  </clipPath>
</defs>
</svg>
