<?xml version="1.0" encoding="UTF-8"?>
<svg xmlns="http://www.w3.org/2000/svg"
     xmlns:xlink="http://www.w3.org/1999/xlink"
     xmlns:gadfly="http://www.gadflyjl.org/ns"
     version="1.2"
     width="300mm" height="120mm" viewBox="0 0 300 120"
     stroke="none"
     fill="#000000"
     stroke-width="0.3"
     font-size="3.88"
>
<defs>
  <marker id="arrow" markerWidth="15" markerHeight="7" refX="5" refY="3.5" orient="auto" markerUnits="strokeWidth">
    <path d="M0,0 L15,3.5 L0,7 z" stroke="context-stroke" fill="context-stroke"/>
  </marker>
</defs>
<g class="plotroot xscalable yscalable" id="img-dec6569a-1">
  <g font-size="4.59" font-family="CMU Serif" fill="#564A55" stroke="#000000" stroke-opacity="0.000" id="img-dec6569a-2">
    <g transform="translate(226.81,107.72)">
      <g class="primitive">
        <text text-anchor="middle" dy="0.6em">Proper Motion Declination (mas/yr)</text>
      </g>
    </g>
  </g>
  <g class="guide xlabels" font-size="4.59" font-family="CMU Serif" fill="#6C606B" id="img-dec6569a-3">
    <g transform="translate(179.02,99.44)">
      <g class="primitive">
        <text text-anchor="middle" dy="0.6em">0</text>
      </g>
    </g>
    <g transform="translate(214.2,99.44)">
      <g class="primitive">
        <text text-anchor="middle" dy="0.6em">500</text>
      </g>
    </g>
    <g transform="translate(249.38,99.44)">
      <g class="primitive">
        <text text-anchor="middle" dy="0.6em">1000</text>
      </g>
    </g>
  </g>
  <g class="guide colorkey" id="img-dec6569a-4">
    <g fill="#4C404B" font-size="4.59" font-family="CMU Serif" id="img-dec6569a-5">
      <g transform="translate(281.51,46.44)" id="img-dec6569a-6" class="color_Area_1">
        <g class="primitive">
          <text dy="0.35em">Area 1</text>
        </g>
      </g>
      <g transform="translate(281.51,51.72)" id="img-dec6569a-7" class="color_Area_2">
        <g class="primitive">
          <text dy="0.35em">Area 2</text>
        </g>
      </g>
      <g transform="translate(281.51,57)" id="img-dec6569a-8" class="color_Area_3">
        <g class="primitive">
          <text dy="0.35em">Area 3</text>
        </g>
      </g>
      <g transform="translate(281.51,62.28)" id="img-dec6569a-9" class="color_Area_4">
        <g class="primitive">
          <text dy="0.35em">Area 4</text>
        </g>
      </g>
    </g>
    <g fill-opacity="1" id="img-dec6569a-10">
      <g transform="translate(279.19,46.44)" id="img-dec6569a-11" stroke="#FFFFFF" class="color_Area_1" fill="#FF6347">
        <path d="M-1.32,-1.32 L1.32,-1.32 1.32,1.32 -1.32,1.32  z" class="primitive"/>
      </g>
      <g transform="translate(279.19,51.72)" id="img-dec6569a-12" stroke="#FFFFFF" class="color_Area_2" fill="#4169E1">
        <path d="M-1.32,-1.32 L1.32,-1.32 1.32,1.32 -1.32,1.32  z" class="primitive"/>
      </g>
      <g transform="translate(279.19,57)" id="img-dec6569a-13" stroke="#FFFFFF" class="color_Area_3" fill="#B23AEE">
        <path d="M-1.32,-1.32 L1.32,-1.32 1.32,1.32 -1.32,1.32  z" class="primitive"/>
      </g>
      <g transform="translate(279.19,62.28)" id="img-dec6569a-14" stroke="#FFFFFF" class="color_Area_4" fill="#00CD66">
        <path d="M-1.32,-1.32 L1.32,-1.32 1.32,1.32 -1.32,1.32  z" class="primitive"/>
      </g>
    </g>
    <g fill="#362A35" font-size="5.29" font-family="CMU Serif" stroke="#000000" stroke-opacity="0.000" id="img-dec6569a-15">
      <g transform="translate(277.87,41.63)" id="img-dec6569a-16">
        <g class="primitive">
          <text dy="-0em">Area</text>
        </g>
      </g>
    </g>
  </g>
  <g clip-path="url(#img-dec6569a-17)">
    <g id="img-dec6569a-18">
      <g pointer-events="visible" stroke-width="0.3" fill="#000000" fill-opacity="0.000" stroke="#000000" stroke-opacity="0.000" class="guide background" id="img-dec6569a-19">
        <g transform="translate(226.81,51.72)" id="img-dec6569a-20">
          <path d="M-50.07,-46.72 L50.07,-46.72 50.07,46.72 -50.07,46.72  z" class="primitive"/>
        </g>
      </g>
      <g class="guide ygridlines xfixed" stroke-dasharray="0.5,0.5" stroke-width="0.2" stroke="#D0D0E0" id="img-dec6569a-21">
        <g transform="translate(226.81,96.44)" id="img-dec6569a-22">
          <path fill="none" d="M-50.07,0 L50.07,0 " class="primitive"/>
        </g>
        <g transform="translate(226.81,66.63)" id="img-dec6569a-23">
          <path fill="none" d="M-50.07,0 L50.07,0 " class="primitive"/>
        </g>
        <g transform="translate(226.81,36.81)" id="img-dec6569a-24">
          <path fill="none" d="M-50.07,0 L50.07,0 " class="primitive"/>
        </g>
        <g transform="translate(226.81,7)" id="img-dec6569a-25">
          <path fill="none" d="M-50.07,0 L50.07,0 " class="primitive"/>
        </g>
      </g>
      <g class="guide xgridlines yfixed" stroke-dasharray="0.5,0.5" stroke-width="0.2" stroke="#D0D0E0" id="img-dec6569a-26">
        <g transform="translate(179.02,51.72)" id="img-dec6569a-27">
          <path fill="none" d="M0,-46.72 L0,46.72 " class="primitive"/>
        </g>
        <g transform="translate(214.2,51.72)" id="img-dec6569a-28">
          <path fill="none" d="M0,-46.72 L0,46.72 " class="primitive"/>
        </g>
        <g transform="translate(249.38,51.72)" id="img-dec6569a-29">
          <path fill="none" d="M0,-46.72 L0,46.72 " class="primitive"/>
        </g>
      </g>
      <g class="plotpanel" id="img-dec6569a-30">
        <metadata>
          <boundingbox value="176.74083333333334mm 5.0mm 100.13208333333334mm 93.44166666666666mm"/>
          <unitbox value="-32.42795189700209 0.015335414143296375 1423.2750241733027 -0.01567082828659275"/>
        </metadata>
        <g stroke-width="0.3" fill="#000000" fill-opacity="0.000" class="geometry" id="img-dec6569a-31">
          <g transform="translate(224.69,92.28)" id="img-dec6569a-32" stroke-dasharray="none" stroke="#FF6347" class="color_Area_1">
            <path fill="none" d="M-50.18,4.16 L-49.79,4.16 -49.39,4.15 -49,4.12 -48.61,4.03 -48.21,3.81 -47.82,3.34 -47.43,2.4 -47.03,0.79 -46.64,-1.66 -46.25,-4.98 -45.85,-8.95 -45.46,-13.14 -45.06,-17.06 -44.67,-20.3 -44.28,-22.68 -43.88,-24.21 -43.49,-25.1 -43.1,-25.54 -42.7,-25.74 -42.31,-25.82 -41.92,-25.85 -41.52,-25.85 -41.13,-25.85 -40.74,-25.85 -40.34,-25.83 -39.95,-25.8 -39.55,-25.76 -39.16,-25.67 -38.77,-25.51 -38.37,-25.25 -37.98,-24.83 -37.59,-24.21 -37.19,-23.39 -36.8,-22.38 -36.41,-21.21 -36.01,-19.95 -35.62,-18.64 -35.22,-17.34 -34.83,-16.08 -34.44,-14.89 -34.04,-13.76 -33.65,-12.67 -33.26,-11.62 -32.86,-10.56 -32.47,-9.51 -32.08,-8.48 -31.68,-7.49 -31.29,-6.56 -30.9,-5.72 -30.5,-4.96 -30.11,-4.28 -29.71,-3.67 -29.32,-3.11 -28.93,-2.6 -28.53,-2.11 -28.14,-1.64 -27.75,-1.21 -27.35,-0.81 -26.96,-0.46 -26.57,-0.15 -26.17,0.14 -25.78,0.43 -25.39,0.72 -24.99,1.02 -24.6,1.29 -24.2,1.53 -23.81,1.73 -23.42,1.9 -23.02,2.05 -22.63,2.21 -22.24,2.37 -21.84,2.52 -21.45,2.65 -21.06,2.75 -20.66,2.83 -20.27,2.9 -19.88,2.96 -19.48,3.02 -19.09,3.09 -18.69,3.18 -18.3,3.29 -17.91,3.42 -17.51,3.56 -17.12,3.69 -16.73,3.8 -16.33,3.87 -15.94,3.92 -15.55,3.94 -15.15,3.97 -14.76,3.99 -14.37,4.01 -13.97,4.02 -13.58,4.02 -13.18,3.98 -12.79,3.92 -12.4,3.85 -12,3.78 -11.61,3.73 -11.22,3.7 -10.82,3.7 -10.43,3.73 -10.04,3.77 -9.64,3.82 -9.25,3.87 -8.86,3.91 -8.46,3.95 -8.07,3.98 -7.67,3.99 -7.28,4 -6.89,3.99 -6.49,4 -6.1,4.01 -5.71,4.03 -5.31,4.07 -4.92,4.1 -4.53,4.12 -4.13,4.14 -3.74,4.15 -3.35,4.15 -2.95,4.14 -2.56,4.12 -2.16,4.11 -1.77,4.09 -1.38,4.09 -0.98,4.09 -0.59,4.1 -0.2,4.12 0.2,4.13 0.59,4.14 0.98,4.14 1.38,4.13 1.77,4.1 2.16,4.07 2.56,4.04 2.95,4.01 3.35,3.99 3.74,3.98 4.13,3.99 4.53,4.01 4.92,4.03 5.31,4.06 5.71,4.09 6.1,4.11 6.49,4.13 6.89,4.14 7.28,4.15 7.67,4.16 8.07,4.16 8.46,4.16 8.86,4.16 9.25,4.16 9.64,4.16 10.04,4.16 10.43,4.16 10.82,4.16 11.22,4.16 11.61,4.16 12,4.16 12.4,4.16 12.79,4.16 13.18,4.16 13.58,4.16 13.97,4.16 14.37,4.15 14.76,4.14 15.15,4.12 15.55,4.11 15.94,4.09 16.33,4.09 16.73,4.09 17.12,4.1 17.51,4.12 17.91,4.13 18.3,4.14 18.69,4.15 19.09,4.16 19.48,4.15 19.88,4.15 20.27,4.14 20.66,4.12 21.06,4.11 21.45,4.09 21.84,4.09 22.24,4.09 22.63,4.1 23.02,4.12 23.42,4.13 23.81,4.15 24.2,4.15 24.6,4.16 24.99,4.16 25.39,4.16 25.78,4.16 26.17,4.16 26.57,4.16 26.96,4.16 27.35,4.16 27.75,4.16 28.14,4.16 28.53,4.16 28.93,4.16 29.32,4.16 29.71,4.16 30.11,4.16 30.5,4.16 30.9,4.16 31.29,4.16 31.68,4.16 32.08,4.16 32.47,4.16 32.86,4.16 33.26,4.16 33.65,4.16 34.04,4.16 34.44,4.16 34.83,4.16 35.22,4.16 35.62,4.16 36.01,4.16 36.41,4.16 36.8,4.16 37.19,4.16 37.59,4.16 37.98,4.16 38.37,4.16 38.77,4.16 39.16,4.16 39.55,4.16 39.95,4.16 40.34,4.16 40.74,4.16 41.13,4.16 41.52,4.16 41.92,4.16 42.31,4.16 42.7,4.16 43.1,4.16 43.49,4.15 43.88,4.14 44.28,4.13 44.67,4.12 45.06,4.1 45.46,4.09 45.85,4.09 46.25,4.1 46.64,4.11 47.03,4.12 47.43,4.14 47.82,4.15 48.21,4.16 48.61,4.16 49,4.16 49.39,4.16 49.79,4.16 50.18,4.16 " class="primitive"/>
          </g>
          <g transform="translate(223,92.16)" id="img-dec6569a-33" stroke-dasharray="none" stroke="#B23AEE" class="color_Area_3">
            <path fill="none" d="M-48.78,4.28 L-48.39,4.28 -48.01,4.28 -47.63,4.26 -47.24,4.21 -46.86,4.09 -46.48,3.82 -46.1,3.29 -45.71,2.34 -45.33,0.82 -44.95,-1.39 -44.57,-4.27 -44.18,-7.66 -43.8,-11.24 -43.42,-14.64 -43.04,-17.56 -42.65,-19.82 -42.27,-21.38 -41.89,-22.36 -41.51,-22.91 -41.12,-23.19 -40.74,-23.32 -40.36,-23.37 -39.98,-23.39 -39.59,-23.4 -39.21,-23.4 -38.83,-23.4 -38.45,-23.39 -38.06,-23.38 -37.68,-23.35 -37.3,-23.3 -36.92,-23.21 -36.53,-23.07 -36.15,-22.84 -35.77,-22.51 -35.39,-22.07 -35,-21.52 -34.62,-20.87 -34.24,-20.15 -33.86,-19.34 -33.47,-18.45 -33.09,-17.47 -32.71,-16.39 -32.33,-15.21 -31.94,-13.97 -31.56,-12.7 -31.18,-11.45 -30.8,-10.26 -30.41,-9.17 -30.03,-8.22 -29.65,-7.41 -29.27,-6.74 -28.88,-6.15 -28.5,-5.58 -28.12,-5.01 -27.73,-4.42 -27.35,-3.82 -26.97,-3.24 -26.59,-2.71 -26.2,-2.24 -25.82,-1.85 -25.44,-1.52 -25.06,-1.23 -24.67,-0.93 -24.29,-0.6 -23.91,-0.21 -23.53,0.22 -23.14,0.66 -22.76,1.09 -22.38,1.46 -22,1.76 -21.61,1.98 -21.23,2.13 -20.85,2.22 -20.47,2.28 -20.08,2.33 -19.7,2.39 -19.32,2.45 -18.94,2.53 -18.55,2.61 -18.17,2.72 -17.79,2.85 -17.41,3.01 -17.02,3.17 -16.64,3.32 -16.26,3.44 -15.88,3.51 -15.49,3.53 -15.11,3.5 -14.73,3.46 -14.35,3.41 -13.96,3.39 -13.58,3.38 -13.2,3.41 -12.82,3.46 -12.43,3.52 -12.05,3.59 -11.67,3.66 -11.29,3.71 -10.9,3.75 -10.52,3.76 -10.14,3.75 -9.76,3.74 -9.37,3.74 -8.99,3.76 -8.61,3.81 -8.22,3.88 -7.84,3.96 -7.46,4.04 -7.08,4.1 -6.69,4.15 -6.31,4.17 -5.93,4.19 -5.55,4.19 -5.16,4.19 -4.78,4.19 -4.4,4.18 -4.02,4.16 -3.63,4.13 -3.25,4.1 -2.87,4.08 -2.49,4.06 -2.1,4.05 -1.72,4.03 -1.34,4.01 -0.96,3.97 -0.57,3.92 -0.19,3.88 0.19,3.84 0.57,3.81 0.96,3.81 1.34,3.84 1.72,3.89 2.1,3.95 2.49,4.03 2.87,4.1 3.25,4.16 3.63,4.2 4.02,4.23 4.4,4.24 4.78,4.23 5.16,4.2 5.55,4.16 5.93,4.11 6.31,4.07 6.69,4.03 7.08,4.01 7.46,4.01 7.84,4.02 8.22,4.06 8.61,4.1 8.99,4.14 9.37,4.18 9.76,4.22 10.14,4.24 10.52,4.26 10.9,4.27 11.29,4.28 11.67,4.28 12.05,4.28 12.43,4.28 12.82,4.28 13.2,4.28 13.58,4.28 13.96,4.28 14.35,4.28 14.73,4.28 15.11,4.28 15.49,4.28 15.88,4.28 16.26,4.28 16.64,4.28 17.02,4.27 17.41,4.26 17.79,4.25 18.17,4.24 18.55,4.23 18.94,4.22 19.32,4.22 19.7,4.23 20.08,4.24 20.47,4.25 20.85,4.26 21.23,4.27 21.61,4.28 22,4.28 22.38,4.28 22.76,4.28 23.14,4.28 23.53,4.28 23.91,4.28 24.29,4.28 24.67,4.28 25.06,4.28 25.44,4.28 25.82,4.28 26.2,4.28 26.59,4.28 26.97,4.28 27.35,4.28 27.73,4.28 28.12,4.28 28.5,4.28 28.88,4.28 29.27,4.28 29.65,4.28 30.03,4.28 30.41,4.28 30.8,4.28 31.18,4.28 31.56,4.28 31.94,4.28 32.33,4.28 32.71,4.28 33.09,4.28 33.47,4.28 33.86,4.28 34.24,4.28 34.62,4.28 35,4.28 35.39,4.28 35.77,4.28 36.15,4.27 36.53,4.26 36.92,4.25 37.3,4.24 37.68,4.22 38.06,4.22 38.45,4.22 38.83,4.23 39.21,4.24 39.59,4.25 39.98,4.26 40.36,4.27 40.74,4.28 41.12,4.28 41.51,4.28 41.89,4.27 42.27,4.26 42.65,4.25 43.04,4.24 43.42,4.23 43.8,4.22 44.18,4.22 44.57,4.22 44.95,4.23 45.33,4.24 45.71,4.26 46.1,4.27 46.48,4.27 46.86,4.28 47.24,4.28 47.63,4.28 48.01,4.28 48.39,4.28 48.78,4.28 " class="primitive"/>
          </g>
          <g transform="translate(193.06,83.81)" id="img-dec6569a-34" stroke-dasharray="none" stroke="#4169E1" class="color_Area_2">
            <path fill="none" d="M-16.54,12.63 L-16.41,12.63 -16.28,12.63 -16.15,12.62 -16.02,12.61 -15.89,12.59 -15.76,12.53 -15.63,12.43 -15.5,12.24 -15.37,11.9 -15.24,11.34 -15.11,10.46 -14.98,9.13 -14.85,7.22 -14.72,4.61 -14.59,1.22 -14.46,-2.98 -14.33,-7.91 -14.2,-13.43 -14.07,-19.3 -13.94,-25.25 -13.81,-30.97 -13.68,-36.21 -13.55,-40.78 -13.42,-44.56 -13.29,-47.53 -13.16,-49.76 -13.04,-51.35 -12.91,-52.43 -12.78,-53.12 -12.65,-53.54 -12.52,-53.78 -12.39,-53.91 -12.26,-53.97 -12.13,-53.99 -12,-53.97 -11.87,-53.93 -11.74,-53.86 -11.61,-53.76 -11.48,-53.62 -11.35,-53.43 -11.22,-53.17 -11.09,-52.86 -10.96,-52.46 -10.83,-51.97 -10.7,-51.38 -10.57,-50.69 -10.44,-49.88 -10.31,-48.95 -10.18,-47.9 -10.05,-46.7 -9.92,-45.36 -9.79,-43.84 -9.66,-42.13 -9.53,-40.21 -9.4,-38.07 -9.27,-35.72 -9.14,-33.18 -9.01,-30.49 -8.88,-27.72 -8.75,-24.94 -8.63,-22.23 -8.5,-19.64 -8.37,-17.25 -8.24,-15.06 -8.11,-13.1 -7.98,-11.35 -7.85,-9.79 -7.72,-8.39 -7.59,-7.13 -7.46,-5.98 -7.33,-4.93 -7.2,-3.98 -7.07,-3.14 -6.94,-2.43 -6.81,-1.86 -6.68,-1.44 -6.55,-1.15 -6.42,-0.94 -6.29,-0.78 -6.16,-0.6 -6.03,-0.35 -5.9,-0.01 -5.77,0.44 -5.64,1.01 -5.51,1.66 -5.38,2.36 -5.25,3.07 -5.12,3.77 -4.99,4.43 -4.86,5.02 -4.73,5.53 -4.6,5.96 -4.47,6.3 -4.35,6.57 -4.22,6.78 -4.09,6.94 -3.96,7.06 -3.83,7.17 -3.7,7.28 -3.57,7.4 -3.44,7.54 -3.31,7.7 -3.18,7.86 -3.05,8.03 -2.92,8.2 -2.79,8.35 -2.66,8.5 -2.53,8.64 -2.4,8.78 -2.27,8.92 -2.14,9.07 -2.01,9.23 -1.88,9.38 -1.75,9.53 -1.62,9.66 -1.49,9.76 -1.36,9.84 -1.23,9.9 -1.1,9.95 -0.97,10.01 -0.84,10.1 -0.71,10.22 -0.58,10.38 -0.45,10.58 -0.32,10.79 -0.19,11.02 -0.06,11.23 0.06,11.42 0.19,11.58 0.32,11.7 0.45,11.78 0.58,11.82 0.71,11.83 0.84,11.81 0.97,11.77 1.1,11.73 1.23,11.69 1.36,11.67 1.49,11.67 1.62,11.7 1.75,11.76 1.88,11.82 2.01,11.89 2.14,11.95 2.27,11.98 2.4,11.99 2.53,11.95 2.66,11.89 2.79,11.81 2.92,11.74 3.05,11.68 3.18,11.65 3.31,11.66 3.44,11.72 3.57,11.82 3.7,11.94 3.83,12.07 3.96,12.2 4.09,12.31 4.22,12.41 4.35,12.48 4.47,12.54 4.6,12.58 4.73,12.6 4.86,12.62 4.99,12.62 5.12,12.63 5.25,12.63 5.38,12.63 5.51,12.63 5.64,12.63 5.77,12.63 5.9,12.63 6.03,12.63 6.16,12.63 6.29,12.63 6.42,12.63 6.55,12.62 6.68,12.61 6.81,12.6 6.94,12.58 7.07,12.55 7.2,12.51 7.33,12.47 7.46,12.43 7.59,12.38 7.72,12.35 7.85,12.32 7.98,12.31 8.11,12.31 8.24,12.33 8.37,12.37 8.5,12.41 8.63,12.45 8.75,12.5 8.88,12.53 9.01,12.56 9.14,12.59 9.27,12.61 9.4,12.62 9.53,12.62 9.66,12.63 9.79,12.63 9.92,12.63 10.05,12.63 10.18,12.63 10.31,12.63 10.44,12.63 10.57,12.63 10.7,12.63 10.83,12.63 10.96,12.63 11.09,12.63 11.22,12.63 11.35,12.63 11.48,12.63 11.61,12.63 11.74,12.63 11.87,12.63 12,12.63 12.13,12.63 12.26,12.63 12.39,12.62 12.52,12.61 12.65,12.59 12.78,12.56 12.91,12.52 13.04,12.46 13.16,12.37 13.29,12.27 13.42,12.15 13.55,12.02 13.68,11.9 13.81,11.79 13.94,11.71 14.07,11.68 14.2,11.69 14.33,11.74 14.46,11.83 14.59,11.95 14.72,12.08 14.85,12.2 14.98,12.32 15.11,12.41 15.24,12.49 15.37,12.54 15.5,12.58 15.63,12.6 15.76,12.62 15.89,12.62 16.02,12.63 16.15,12.63 16.28,12.63 16.41,12.63 16.54,12.63 " class="primitive"/>
          </g>
          <g transform="translate(200.17,87.77)" id="img-dec6569a-35" stroke-dasharray="none" stroke="#00CD66" class="color_Area_4">
            <path fill="none" d="M-24.1,8.67 L-23.91,8.67 -23.72,8.66 -23.54,8.65 -23.35,8.62 -23.16,8.56 -22.97,8.42 -22.78,8.15 -22.59,7.63 -22.4,6.73 -22.21,5.28 -22.02,3.08 -21.83,0.01 -21.64,-4 -21.46,-8.85 -21.27,-14.32 -21.08,-20.04 -20.89,-25.61 -20.7,-30.65 -20.51,-34.88 -20.32,-38.2 -20.13,-40.61 -19.94,-42.24 -19.75,-43.26 -19.57,-43.86 -19.38,-44.18 -19.19,-44.34 -19,-44.42 -18.81,-44.45 -18.62,-44.46 -18.43,-44.46 -18.24,-44.44 -18.05,-44.41 -17.86,-44.34 -17.67,-44.23 -17.49,-44.06 -17.3,-43.78 -17.11,-43.38 -16.92,-42.82 -16.73,-42.07 -16.54,-41.12 -16.35,-39.95 -16.16,-38.59 -15.97,-37.05 -15.78,-35.34 -15.6,-33.49 -15.41,-31.51 -15.22,-29.41 -15.03,-27.22 -14.84,-24.96 -14.65,-22.69 -14.46,-20.47 -14.27,-18.35 -14.08,-16.39 -13.89,-14.61 -13.71,-13.04 -13.52,-11.68 -13.33,-10.51 -13.14,-9.52 -12.95,-8.67 -12.76,-7.92 -12.57,-7.22 -12.38,-6.5 -12.19,-5.73 -12,-4.88 -11.81,-3.96 -11.63,-2.99 -11.44,-2.03 -11.25,-1.12 -11.06,-0.3 -10.87,0.4 -10.68,0.98 -10.49,1.48 -10.3,1.93 -10.11,2.36 -9.92,2.78 -9.74,3.18 -9.55,3.56 -9.36,3.9 -9.17,4.19 -8.98,4.44 -8.79,4.67 -8.6,4.9 -8.41,5.13 -8.22,5.4 -8.03,5.68 -7.85,5.98 -7.66,6.29 -7.47,6.58 -7.28,6.84 -7.09,7.05 -6.9,7.21 -6.71,7.3 -6.52,7.35 -6.33,7.35 -6.14,7.33 -5.95,7.3 -5.77,7.28 -5.58,7.28 -5.39,7.32 -5.2,7.39 -5.01,7.46 -4.82,7.53 -4.63,7.58 -4.44,7.6 -4.25,7.58 -4.06,7.55 -3.88,7.5 -3.69,7.47 -3.5,7.45 -3.31,7.46 -3.12,7.51 -2.93,7.58 -2.74,7.67 -2.55,7.77 -2.36,7.85 -2.17,7.92 -1.98,7.96 -1.8,7.99 -1.61,8.01 -1.42,8 -1.23,7.98 -1.04,7.94 -0.85,7.88 -0.66,7.79 -0.47,7.69 -0.28,7.59 -0.09,7.49 0.09,7.4 0.28,7.33 0.47,7.3 0.66,7.3 0.85,7.34 1.04,7.41 1.23,7.51 1.42,7.63 1.61,7.73 1.8,7.82 1.98,7.88 2.17,7.91 2.36,7.93 2.55,7.95 2.74,7.98 2.93,8.03 3.12,8.08 3.31,8.14 3.5,8.19 3.69,8.22 3.88,8.24 4.06,8.24 4.25,8.24 4.44,8.25 4.63,8.27 4.82,8.31 5.01,8.36 5.2,8.42 5.39,8.47 5.58,8.52 5.77,8.56 5.95,8.58 6.14,8.58 6.33,8.56 6.52,8.52 6.71,8.47 6.9,8.41 7.09,8.35 7.28,8.3 7.47,8.27 7.66,8.26 7.85,8.28 8.03,8.31 8.22,8.36 8.41,8.41 8.6,8.45 8.79,8.48 8.98,8.49 9.17,8.48 9.36,8.47 9.55,8.46 9.74,8.45 9.92,8.46 10.11,8.47 10.3,8.5 10.49,8.54 10.68,8.57 10.87,8.59 11.06,8.61 11.25,8.62 11.44,8.61 11.63,8.59 11.81,8.56 12,8.53 12.19,8.5 12.38,8.47 12.57,8.46 12.76,8.46 12.95,8.47 13.14,8.5 13.33,8.53 13.52,8.57 13.71,8.6 13.89,8.62 14.08,8.64 14.27,8.65 14.46,8.66 14.65,8.66 14.84,8.67 15.03,8.67 15.22,8.67 15.41,8.66 15.6,8.66 15.78,8.65 15.97,8.64 16.16,8.62 16.35,8.59 16.54,8.56 16.73,8.52 16.92,8.49 17.11,8.47 17.3,8.45 17.49,8.46 17.67,8.48 17.86,8.51 18.05,8.54 18.24,8.58 18.43,8.61 18.62,8.63 18.81,8.64 19,8.65 19.19,8.66 19.38,8.65 19.57,8.64 19.75,8.62 19.94,8.58 20.13,8.54 20.32,8.48 20.51,8.41 20.7,8.34 20.89,8.29 21.08,8.25 21.27,8.25 21.46,8.27 21.64,8.32 21.83,8.38 22.02,8.45 22.21,8.51 22.4,8.57 22.59,8.61 22.78,8.63 22.97,8.65 23.16,8.66 23.35,8.66 23.54,8.67 23.72,8.67 23.91,8.67 24.1,8.67 " class="primitive"/>
          </g>
        </g>
      </g>
    </g>
  </g>
  <g class="guide ylabels" font-size="4.59" font-family="CMU Serif" fill="#6C606B" id="img-dec6569a-36">
    <g transform="translate(175.74,96.44)" id="img-dec6569a-37">
      <g class="primitive">
        <text text-anchor="end" dy="0.35em">0.000</text>
      </g>
    </g>
    <g transform="translate(175.74,66.63)" id="img-dec6569a-38">
      <g class="primitive">
        <text text-anchor="end" dy="0.35em">0.005</text>
      </g>
    </g>
    <g transform="translate(175.74,36.81)" id="img-dec6569a-39">
      <g class="primitive">
        <text text-anchor="end" dy="0.35em">0.010</text>
      </g>
    </g>
    <g transform="translate(175.74,7)" id="img-dec6569a-40">
      <g class="primitive">
        <text text-anchor="end" dy="0.35em">0.015</text>
      </g>
    </g>
  </g>
  <g font-size="4.59" font-family="CMU Serif" fill="#564A55" stroke="#000000" stroke-opacity="0.000" id="img-dec6569a-41">
    <g transform="translate(159.14,49.72)" id="img-dec6569a-42">
      <g class="primitive">
        <text text-anchor="middle" dy="0.35em" transform="rotate(-90,0, 2)">Density</text>
      </g>
    </g>
  </g>
</g>
<g class="plotroot xscalable yscalable" id="img-dec6569a-43">
  <g font-size="4.59" font-family="CMU Serif" fill="#564A55" stroke="#000000" stroke-opacity="0.000" id="img-dec6569a-44">
    <g transform="translate(85.87,107.72)" id="img-dec6569a-45">
      <g class="primitive">
        <text text-anchor="middle" dy="0.6em">Proper Motion Right Ascension (mas/yr)</text>
      </g>
    </g>
  </g>
  <g class="guide xlabels" font-size="4.59" font-family="CMU Serif" fill="#6C606B" id="img-dec6569a-46">
    <g transform="translate(28.82,99.44)" id="img-dec6569a-47">
      <g class="primitive">
        <text text-anchor="middle" dy="0.6em">0</text>
      </g>
    </g>
    <g transform="translate(68.71,99.44)" id="img-dec6569a-48">
      <g class="primitive">
        <text text-anchor="middle" dy="0.6em">2.00×10³</text>
      </g>
    </g>
    <g transform="translate(108.6,99.44)" id="img-dec6569a-49">
      <g class="primitive">
        <text text-anchor="middle" dy="0.6em">4.00×10³</text>
      </g>
    </g>
  </g>
  <g clip-path="url(#img-dec6569a-50)">
    <g id="img-dec6569a-51">
      <g pointer-events="visible" stroke-width="0.3" fill="#000000" fill-opacity="0.000" stroke="#000000" stroke-opacity="0.000" class="guide background" id="img-dec6569a-52">
        <g transform="translate(85.87,51.72)" id="img-dec6569a-53">
          <path d="M-59.13,-46.72 L59.13,-46.72 59.13,46.72 -59.13,46.72  z" class="primitive"/>
        </g>
      </g>
      <g class="guide ygridlines xfixed" stroke-dasharray="0.5,0.5" stroke-width="0.2" stroke="#D0D0E0" id="img-dec6569a-54">
        <g transform="translate(85.87,96.44)" id="img-dec6569a-55">
          <path fill="none" d="M-59.13,0 L59.13,0 " class="primitive"/>
        </g>
        <g transform="translate(85.87,66.63)" id="img-dec6569a-56">
          <path fill="none" d="M-59.13,0 L59.13,0 " class="primitive"/>
        </g>
        <g transform="translate(85.87,36.81)" id="img-dec6569a-57">
          <path fill="none" d="M-59.13,0 L59.13,0 " class="primitive"/>
        </g>
        <g transform="translate(85.87,7)" id="img-dec6569a-58">
          <path fill="none" d="M-59.13,0 L59.13,0 " class="primitive"/>
        </g>
      </g>
      <g class="guide xgridlines yfixed" stroke-dasharray="0.5,0.5" stroke-width="0.2" stroke="#D0D0E0" id="img-dec6569a-59">
        <g transform="translate(28.82,51.72)" id="img-dec6569a-60">
          <path fill="none" d="M0,-46.72 L0,46.72 " class="primitive"/>
        </g>
        <g transform="translate(68.71,51.72)" id="img-dec6569a-61">
          <path fill="none" d="M0,-46.72 L0,46.72 " class="primitive"/>
        </g>
        <g transform="translate(108.6,51.72)" id="img-dec6569a-62">
          <path fill="none" d="M0,-46.72 L0,46.72 " class="primitive"/>
        </g>
      </g>
      <g class="plotpanel" id="img-dec6569a-63">
        <metadata>
          <boundingbox value="26.740833333333327mm 5.0mm 118.25916666666667mm 93.44166666666666mm"/>
          <unitbox value="-104.27510438996187 0.015335414143296375 5929.225141284949 -0.01567082828659275"/>
        </metadata>
        <g stroke-width="0.3" fill="#000000" fill-opacity="0.000" class="geometry" id="img-dec6569a-64">
          <g transform="translate(68.72,95.01)" id="img-dec6569a-65" stroke-dasharray="none" stroke="#FF6347" class="color_Area_1">
            <path fill="none" d="M-41.31,1.43 L-40.99,1.39 -40.67,0.92 -40.34,-1.57 -40.02,-8.28 -39.69,-17.2 -39.37,-22.86 -39.05,-24.57 -38.72,-24.83 -38.4,-24.84 -38.07,-24.82 -37.75,-24.65 -37.43,-24.01 -37.1,-22.57 -36.78,-20.3 -36.45,-17.37 -36.13,-14.34 -35.81,-11.91 -35.48,-9.85 -35.16,-7.54 -34.83,-5.14 -34.51,-3.46 -34.19,-2.56 -33.86,-1.97 -33.54,-1.45 -33.21,-0.89 -32.89,-0.43 -32.57,-0.25 -32.24,-0.17 -31.92,0.06 -31.59,0.41 -31.27,0.65 -30.95,0.76 -30.62,0.88 -30.3,0.99 -29.97,1.06 -29.65,1.14 -29.32,1.17 -29,1.11 -28.68,1 -28.35,0.83 -28.03,0.74 -27.7,0.8 -27.38,0.99 -27.06,1.16 -26.73,1.27 -26.41,1.33 -26.08,1.36 -25.76,1.39 -25.44,1.39 -25.11,1.37 -24.79,1.37 -24.46,1.35 -24.14,1.32 -23.82,1.35 -23.49,1.4 -23.17,1.43 -22.84,1.42 -22.52,1.38 -22.2,1.33 -21.87,1.33 -21.55,1.38 -21.22,1.42 -20.9,1.43 -20.58,1.43 -20.25,1.43 -19.93,1.43 -19.6,1.43 -19.28,1.43 -18.96,1.42 -18.63,1.39 -18.31,1.37 -17.98,1.38 -17.66,1.38 -17.34,1.37 -17.01,1.36 -16.69,1.35 -16.36,1.34 -16.04,1.37 -15.72,1.4 -15.39,1.43 -15.07,1.43 -14.74,1.43 -14.42,1.43 -14.1,1.43 -13.77,1.43 -13.45,1.43 -13.12,1.43 -12.8,1.43 -12.48,1.43 -12.15,1.43 -11.83,1.43 -11.5,1.43 -11.18,1.43 -10.86,1.43 -10.53,1.43 -10.21,1.43 -9.88,1.43 -9.56,1.43 -9.23,1.43 -8.91,1.43 -8.59,1.43 -8.26,1.43 -7.94,1.43 -7.61,1.43 -7.29,1.43 -6.97,1.43 -6.64,1.43 -6.32,1.43 -5.99,1.43 -5.67,1.43 -5.35,1.43 -5.02,1.41 -4.7,1.39 -4.37,1.38 -4.05,1.4 -3.73,1.43 -3.4,1.43 -3.08,1.43 -2.75,1.43 -2.43,1.43 -2.11,1.43 -1.78,1.43 -1.46,1.43 -1.13,1.43 -0.81,1.43 -0.49,1.43 -0.16,1.43 0.16,1.43 0.49,1.43 0.81,1.43 1.13,1.43 1.46,1.43 1.78,1.43 2.11,1.43 2.43,1.43 2.75,1.43 3.08,1.43 3.4,1.43 3.73,1.43 4.05,1.43 4.37,1.43 4.7,1.43 5.02,1.43 5.35,1.43 5.67,1.43 5.99,1.43 6.32,1.43 6.64,1.43 6.97,1.43 7.29,1.43 7.61,1.43 7.94,1.43 8.26,1.43 8.59,1.43 8.91,1.43 9.23,1.43 9.56,1.43 9.88,1.43 10.21,1.43 10.53,1.43 10.86,1.43 11.18,1.43 11.5,1.43 11.83,1.43 12.15,1.43 12.48,1.43 12.8,1.43 13.12,1.43 13.45,1.43 13.77,1.43 14.1,1.43 14.42,1.43 14.74,1.43 15.07,1.43 15.39,1.43 15.72,1.43 16.04,1.43 16.36,1.43 16.69,1.43 17.01,1.43 17.34,1.43 17.66,1.43 17.98,1.43 18.31,1.43 18.63,1.43 18.96,1.43 19.28,1.43 19.6,1.43 19.93,1.43 20.25,1.43 20.58,1.43 20.9,1.43 21.22,1.43 21.55,1.43 21.87,1.43 22.2,1.43 22.52,1.43 22.84,1.43 23.17,1.43 23.49,1.43 23.82,1.43 24.14,1.43 24.46,1.43 24.79,1.43 25.11,1.43 25.44,1.43 25.76,1.43 26.08,1.43 26.41,1.43 26.73,1.43 27.06,1.43 27.38,1.43 27.7,1.43 28.03,1.43 28.35,1.43 28.68,1.43 29,1.43 29.32,1.43 29.65,1.43 29.97,1.43 30.3,1.43 30.62,1.43 30.95,1.43 31.27,1.43 31.59,1.43 31.92,1.43 32.24,1.43 32.57,1.43 32.89,1.43 33.21,1.43 33.54,1.43 33.86,1.43 34.19,1.43 34.51,1.43 34.83,1.43 35.16,1.43 35.48,1.43 35.81,1.43 36.13,1.43 36.45,1.43 36.78,1.43 37.1,1.43 37.43,1.43 37.75,1.43 38.07,1.43 38.4,1.43 38.72,1.43 39.05,1.43 39.37,1.42 39.69,1.39 40.02,1.38 40.34,1.4 40.67,1.43 40.99,1.43 41.31,1.43 " class="primitive"/>
          </g>
          <g transform="translate(84.98,95.42)" id="img-dec6569a-66" stroke-dasharray="none" stroke="#B23AEE" class="color_Area_3">
            <path fill="none" d="M-58.02,1.02 L-57.56,0.98 -57.11,0.51 -56.65,-1.96 -56.2,-7.63 -55.74,-13.7 -55.29,-16.67 -54.83,-17.28 -54.38,-17.33 -53.92,-17.33 -53.47,-17.31 -53.01,-17.19 -52.56,-16.76 -52.1,-15.79 -51.65,-14.21 -51.19,-12.22 -50.74,-10.09 -50.28,-7.98 -49.83,-6.08 -49.37,-4.62 -48.92,-3.58 -48.46,-2.83 -48.01,-2.2 -47.55,-1.57 -47.1,-1.02 -46.64,-0.63 -46.19,-0.35 -45.73,-0.09 -45.28,0.1 -44.82,0.24 -44.37,0.35 -43.91,0.33 -43.46,0.34 -43,0.4 -42.55,0.46 -42.09,0.6 -41.64,0.69 -41.18,0.71 -40.73,0.78 -40.27,0.89 -39.82,0.93 -39.36,0.91 -38.91,0.86 -38.45,0.83 -38,0.89 -37.54,0.95 -37.09,0.96 -36.63,0.94 -36.18,0.92 -35.72,0.91 -35.27,0.93 -34.81,0.94 -34.36,0.95 -33.9,0.97 -33.45,0.99 -32.99,1.01 -32.53,1.02 -32.08,1 -31.62,0.98 -31.17,0.97 -30.71,0.98 -30.26,0.99 -29.8,0.97 -29.35,0.96 -28.89,0.98 -28.44,0.98 -27.98,1 -27.53,1 -27.07,0.99 -26.62,0.99 -26.16,1.01 -25.71,1.02 -25.25,1.02 -24.8,1.02 -24.34,1.02 -23.89,1.02 -23.43,1.02 -22.98,1.01 -22.52,0.99 -22.07,0.98 -21.61,0.98 -21.16,0.99 -20.7,1.01 -20.25,1 -19.79,0.99 -19.34,1 -18.88,1.01 -18.43,1.02 -17.97,1.02 -17.52,1.02 -17.06,1.02 -16.61,1.02 -16.15,1.02 -15.7,1.02 -15.24,1.02 -14.79,1.02 -14.33,1 -13.88,0.99 -13.42,1 -12.97,1.01 -12.51,1.02 -12.06,1.02 -11.6,1.02 -11.15,1.02 -10.69,1.02 -10.24,1.02 -9.78,1.01 -9.33,1 -8.87,0.99 -8.42,1.01 -7.96,1.02 -7.51,1.02 -7.05,1.02 -6.6,1.02 -6.14,1.02 -5.69,1.02 -5.23,1.02 -4.78,1.02 -4.32,1.02 -3.87,1.02 -3.41,1.02 -2.96,1.02 -2.5,1.02 -2.05,1.02 -1.59,1.02 -1.14,1.02 -0.68,1.02 -0.23,1.02 0.23,1.02 0.68,1.02 1.14,1.02 1.59,1.02 2.05,1.02 2.5,1.02 2.96,1.02 3.41,1.02 3.87,1 4.32,0.99 4.78,1 5.23,1.02 5.69,1.02 6.14,1.02 6.6,1.02 7.05,1.02 7.51,1.02 7.96,1.02 8.42,1.02 8.87,1.02 9.33,1.02 9.78,1.02 10.24,1.02 10.69,1.02 11.15,1.02 11.6,1.02 12.06,1.02 12.51,1.02 12.97,1.02 13.42,1.02 13.88,1.02 14.33,1.02 14.79,1.02 15.24,1.02 15.7,1.02 16.15,1.02 16.61,1.02 17.06,1.02 17.52,1.02 17.97,1.02 18.43,1.02 18.88,1.02 19.34,1.02 19.79,1.02 20.25,1.02 20.7,1.02 21.16,1.02 21.61,1.02 22.07,1.02 22.52,1.02 22.98,1.02 23.43,1.02 23.89,1.02 24.34,1.02 24.8,1.02 25.25,1.02 25.71,1.02 26.16,1.02 26.62,1.02 27.07,1.02 27.53,1.02 27.98,1.02 28.44,1.02 28.89,1.02 29.35,1.02 29.8,1.02 30.26,1.02 30.71,1.02 31.17,1.02 31.62,1.02 32.08,1.02 32.53,1.02 32.99,1.02 33.45,1.02 33.9,1.02 34.36,1.02 34.81,1.02 35.27,1.02 35.72,1.02 36.18,1.02 36.63,1.02 37.09,1.02 37.54,1.02 38,1.02 38.45,1.02 38.91,1.02 39.36,1.02 39.82,1.02 40.27,1.02 40.73,1.02 41.18,1.02 41.64,1.02 42.09,1.02 42.55,1.02 43,1.02 43.46,1.02 43.91,1.02 44.37,1.02 44.82,1.02 45.28,1.02 45.73,1.02 46.19,1.02 46.64,1.02 47.1,1.02 47.55,1.02 48.01,1.02 48.46,1.02 48.92,1.02 49.37,1.02 49.83,1.02 50.28,1.02 50.74,1.02 51.19,1.02 51.65,1.02 52.1,1.02 52.56,1.02 53.01,1.02 53.47,1.02 53.92,1.02 54.38,1.02 54.83,1.02 55.29,1.02 55.74,1 56.2,0.99 56.65,1 57.11,1.02 57.56,1.02 58.02,1.02 " class="primitive"/>
          </g>
          <g transform="translate(32.41,82.94)" id="img-dec6569a-67" stroke-dasharray="none" stroke="#4169E1" class="color_Area_2">
            <path fill="none" d="M-4.39,13.51 L-4.35,13.5 -4.32,13.5 -4.28,13.5 -4.25,13.49 -4.21,13.48 -4.18,13.45 -4.14,13.41 -4.11,13.33 -4.08,13.2 -4.04,13.01 -4.01,12.7 -3.97,12.26 -3.94,11.61 -3.9,10.72 -3.87,9.52 -3.84,7.96 -3.8,5.99 -3.77,3.59 -3.73,0.76 -3.7,-2.47 -3.66,-6.05 -3.63,-9.87 -3.59,-13.83 -3.56,-17.8 -3.53,-21.65 -3.49,-25.27 -3.46,-28.55 -3.42,-31.44 -3.39,-33.9 -3.35,-35.92 -3.32,-37.54 -3.28,-38.78 -3.25,-39.71 -3.22,-40.39 -3.18,-40.86 -3.15,-41.17 -3.11,-41.38 -3.08,-41.52 -3.04,-41.6 -3.01,-41.64 -2.98,-41.67 -2.94,-41.68 -2.91,-41.69 -2.87,-41.69 -2.84,-41.68 -2.8,-41.67 -2.77,-41.65 -2.73,-41.61 -2.7,-41.57 -2.67,-41.5 -2.63,-41.4 -2.6,-41.27 -2.56,-41.09 -2.53,-40.87 -2.49,-40.58 -2.46,-40.23 -2.42,-39.8 -2.39,-39.31 -2.36,-38.74 -2.32,-38.09 -2.29,-37.38 -2.25,-36.6 -2.22,-35.75 -2.18,-34.85 -2.15,-33.88 -2.12,-32.85 -2.08,-31.75 -2.05,-30.58 -2.01,-29.34 -1.98,-28.03 -1.94,-26.64 -1.91,-25.18 -1.87,-23.66 -1.84,-22.09 -1.81,-20.49 -1.77,-18.88 -1.74,-17.3 -1.7,-15.75 -1.67,-14.27 -1.63,-12.87 -1.6,-11.57 -1.57,-10.38 -1.53,-9.29 -1.5,-8.3 -1.46,-7.38 -1.43,-6.52 -1.39,-5.71 -1.36,-4.91 -1.32,-4.14 -1.29,-3.37 -1.26,-2.62 -1.22,-1.89 -1.19,-1.18 -1.15,-0.5 -1.12,0.15 -1.08,0.77 -1.05,1.35 -1.01,1.91 -0.98,2.44 -0.95,2.96 -0.91,3.46 -0.88,3.96 -0.84,4.44 -0.81,4.9 -0.77,5.36 -0.74,5.79 -0.71,6.19 -0.67,6.56 -0.64,6.89 -0.6,7.18 -0.57,7.42 -0.53,7.61 -0.5,7.74 -0.46,7.82 -0.43,7.84 -0.4,7.83 -0.36,7.77 -0.33,7.69 -0.29,7.59 -0.26,7.5 -0.22,7.43 -0.19,7.4 -0.15,7.43 -0.12,7.51 -0.09,7.66 -0.05,7.88 -0.02,8.15 0.02,8.47 0.05,8.83 0.09,9.2 0.12,9.56 0.15,9.91 0.19,10.23 0.22,10.52 0.26,10.76 0.29,10.96 0.33,11.13 0.36,11.28 0.4,11.41 0.43,11.53 0.46,11.65 0.5,11.76 0.53,11.88 0.57,12 0.6,12.12 0.64,12.22 0.67,12.31 0.71,12.38 0.74,12.43 0.77,12.45 0.81,12.46 0.84,12.45 0.88,12.43 0.91,12.41 0.95,12.38 0.98,12.36 1.01,12.34 1.05,12.34 1.08,12.34 1.12,12.36 1.15,12.38 1.19,12.41 1.22,12.45 1.26,12.48 1.29,12.51 1.32,12.55 1.36,12.58 1.39,12.62 1.43,12.66 1.46,12.7 1.5,12.75 1.53,12.81 1.57,12.87 1.6,12.93 1.63,12.99 1.67,13.05 1.7,13.1 1.74,13.14 1.77,13.18 1.81,13.2 1.84,13.21 1.87,13.23 1.91,13.23 1.94,13.24 1.98,13.25 2.01,13.26 2.05,13.28 2.08,13.3 2.12,13.33 2.15,13.35 2.18,13.38 2.22,13.41 2.25,13.43 2.29,13.45 2.32,13.46 2.36,13.48 2.39,13.49 2.42,13.49 2.46,13.5 2.49,13.5 2.53,13.5 2.56,13.5 2.6,13.51 2.63,13.51 2.67,13.51 2.7,13.51 2.73,13.51 2.77,13.51 2.8,13.5 2.84,13.5 2.87,13.5 2.91,13.5 2.94,13.49 2.98,13.48 3.01,13.47 3.04,13.46 3.08,13.44 3.11,13.42 3.15,13.39 3.18,13.36 3.22,13.33 3.25,13.29 3.28,13.26 3.32,13.23 3.35,13.2 3.39,13.17 3.42,13.15 3.46,13.14 3.49,13.13 3.53,13.13 3.56,13.14 3.59,13.15 3.63,13.17 3.66,13.2 3.7,13.23 3.73,13.26 3.77,13.3 3.8,13.33 3.84,13.36 3.87,13.39 3.9,13.42 3.94,13.44 3.97,13.46 4.01,13.47 4.04,13.48 4.08,13.49 4.11,13.5 4.14,13.5 4.18,13.5 4.21,13.5 4.25,13.51 4.28,13.51 4.32,13.51 4.35,13.51 4.39,13.51 " class="primitive"/>
          </g>
          <g transform="translate(57.62,94.5)" id="img-dec6569a-68" stroke-dasharray="none" stroke="#00CD66" class="color_Area_4">
            <path fill="none" d="M-30.52,1.94 L-30.28,1.94 -30.04,1.9 -29.8,1.75 -29.56,1.18 -29.32,-0.33 -29.08,-3.3 -28.85,-7.59 -28.61,-12.15 -28.37,-15.69 -28.13,-17.7 -27.89,-18.54 -27.65,-18.79 -27.41,-18.85 -27.17,-18.86 -26.93,-18.86 -26.69,-18.85 -26.45,-18.83 -26.21,-18.76 -25.97,-18.59 -25.73,-18.27 -25.49,-17.8 -25.25,-17.18 -25.02,-16.37 -24.78,-15.29 -24.54,-13.93 -24.3,-12.36 -24.06,-10.73 -23.82,-9.19 -23.58,-7.86 -23.34,-6.79 -23.1,-5.92 -22.86,-5.1 -22.62,-4.27 -22.38,-3.42 -22.14,-2.61 -21.9,-1.93 -21.66,-1.47 -21.42,-1.19 -21.19,-0.98 -20.95,-0.7 -20.71,-0.29 -20.47,0.14 -20.23,0.48 -19.99,0.68 -19.75,0.83 -19.51,0.98 -19.27,1.1 -19.03,1.19 -18.79,1.27 -18.55,1.33 -18.31,1.37 -18.07,1.38 -17.83,1.34 -17.59,1.26 -17.36,1.19 -17.12,1.19 -16.88,1.26 -16.64,1.35 -16.4,1.4 -16.16,1.44 -15.92,1.48 -15.68,1.54 -15.44,1.6 -15.2,1.63 -14.96,1.64 -14.72,1.63 -14.48,1.59 -14.24,1.57 -14,1.58 -13.76,1.61 -13.53,1.64 -13.29,1.67 -13.05,1.72 -12.81,1.78 -12.57,1.82 -12.33,1.83 -12.09,1.82 -11.85,1.79 -11.61,1.75 -11.37,1.72 -11.13,1.7 -10.89,1.72 -10.65,1.77 -10.41,1.83 -10.17,1.88 -9.93,1.91 -9.69,1.92 -9.46,1.92 -9.22,1.9 -8.98,1.89 -8.74,1.88 -8.5,1.87 -8.26,1.85 -8.02,1.84 -7.78,1.84 -7.54,1.83 -7.3,1.84 -7.06,1.85 -6.82,1.86 -6.58,1.86 -6.34,1.85 -6.1,1.85 -5.86,1.85 -5.63,1.88 -5.39,1.91 -5.15,1.93 -4.91,1.94 -4.67,1.94 -4.43,1.94 -4.19,1.94 -3.95,1.94 -3.71,1.94 -3.47,1.94 -3.23,1.94 -2.99,1.94 -2.75,1.94 -2.51,1.94 -2.27,1.94 -2.03,1.93 -1.8,1.92 -1.56,1.9 -1.32,1.9 -1.08,1.91 -0.84,1.92 -0.6,1.93 -0.36,1.94 -0.12,1.94 0.12,1.94 0.36,1.94 0.6,1.94 0.84,1.94 1.08,1.94 1.32,1.93 1.56,1.91 1.8,1.88 2.03,1.84 2.27,1.83 2.51,1.85 2.75,1.88 2.99,1.91 3.23,1.93 3.47,1.94 3.71,1.94 3.95,1.94 4.19,1.94 4.43,1.93 4.67,1.92 4.91,1.91 5.15,1.9 5.39,1.9 5.63,1.91 5.86,1.91 6.1,1.9 6.34,1.9 6.58,1.91 6.82,1.92 7.06,1.93 7.3,1.94 7.54,1.94 7.78,1.94 8.02,1.94 8.26,1.94 8.5,1.94 8.74,1.94 8.98,1.94 9.22,1.94 9.46,1.94 9.69,1.94 9.93,1.94 10.17,1.94 10.41,1.94 10.65,1.94 10.89,1.94 11.13,1.94 11.37,1.94 11.61,1.94 11.85,1.94 12.09,1.94 12.33,1.94 12.57,1.94 12.81,1.94 13.05,1.94 13.29,1.94 13.53,1.94 13.76,1.94 14,1.94 14.24,1.94 14.48,1.94 14.72,1.94 14.96,1.94 15.2,1.94 15.44,1.94 15.68,1.94 15.92,1.94 16.16,1.94 16.4,1.94 16.64,1.94 16.88,1.94 17.12,1.94 17.36,1.94 17.59,1.94 17.83,1.94 18.07,1.94 18.31,1.94 18.55,1.94 18.79,1.94 19.03,1.94 19.27,1.94 19.51,1.94 19.75,1.94 19.99,1.94 20.23,1.94 20.47,1.94 20.71,1.94 20.95,1.94 21.19,1.94 21.42,1.94 21.66,1.94 21.9,1.94 22.14,1.94 22.38,1.94 22.62,1.94 22.86,1.94 23.1,1.94 23.34,1.94 23.58,1.94 23.82,1.94 24.06,1.94 24.3,1.94 24.54,1.94 24.78,1.94 25.02,1.94 25.25,1.94 25.49,1.94 25.73,1.94 25.97,1.94 26.21,1.94 26.45,1.94 26.69,1.94 26.93,1.94 27.17,1.94 27.41,1.94 27.65,1.93 27.89,1.91 28.13,1.9 28.37,1.88 28.61,1.88 28.85,1.88 29.08,1.9 29.32,1.92 29.56,1.93 29.8,1.94 30.04,1.94 30.28,1.94 30.52,1.94 " class="primitive"/>
          </g>
        </g>
      </g>
    </g>
  </g>
  <g class="guide ylabels" font-size="4.59" font-family="CMU Serif" fill="#6C606B" id="img-dec6569a-69">
    <g transform="translate(25.74,96.44)" id="img-dec6569a-70">
      <g class="primitive">
        <text text-anchor="end" dy="0.35em">0.000</text>
      </g>
    </g>
    <g transform="translate(25.74,66.63)" id="img-dec6569a-71">
      <g class="primitive">
        <text text-anchor="end" dy="0.35em">0.005</text>
      </g>
    </g>
    <g transform="translate(25.74,36.81)" id="img-dec6569a-72">
      <g class="primitive">
        <text text-anchor="end" dy="0.35em">0.010</text>
      </g>
    </g>
    <g transform="translate(25.74,7)" id="img-dec6569a-73">
      <g class="primitive">
        <text text-anchor="end" dy="0.35em">0.015</text>
      </g>
    </g>
  </g>
  <g font-size="4.59" font-family="CMU Serif" fill="#564A55" stroke="#000000" stroke-opacity="0.000" id="img-dec6569a-74">
    <g transform="translate(9.14,49.72)" id="img-dec6569a-75">
      <g class="primitive">
        <text text-anchor="middle" dy="0.35em" transform="rotate(-90,0, 2)">Density</text>
      </g>
    </g>
  </g>
</g>
<defs>
  <clipPath id="img-dec6569a-17">
    <path d="M176.74,5 L276.87,5 276.87,98.44 176.74,98.44 " />
  </clipPath>
  <clipPath id="img-dec6569a-50">
    <path d="M26.74,5 L145,5 145,98.44 26.74,98.44 " />
  </clipPath>
</defs>
</svg>
