<?xml version="1.0" encoding="UTF-8"?>
<svg xmlns="http://www.w3.org/2000/svg"
     xmlns:xlink="http://www.w3.org/1999/xlink"
     xmlns:gadfly="http://www.gadflyjl.org/ns"
     version="1.2"
     width="200mm" height="120mm" viewBox="0 0 200 120"
     stroke="none"
     fill="#000000"
     stroke-width="0.3"
     font-size="3.88"
>
<defs>
  <marker id="arrow" markerWidth="15" markerHeight="7" refX="5" refY="3.5" orient="auto" markerUnits="strokeWidth">
    <path d="M0,0 L15,3.5 L0,7 z" stroke="context-stroke" fill="context-stroke"/>
  </marker>
</defs>
<g class="plotroot xscalable yscalable" id="img-1f933ac3-1">
  <g font-size="3.88" font-family="'PT Sans','Helvetica Neue','Helvetica',sans-serif" fill="#564A55" stroke="#000000" stroke-opacity="0.000" id="img-1f933ac3-2">
    <g transform="translate(98.59,108.39)">
      <g class="primitive">
        <text text-anchor="middle" dy="0.6em">Pheromone Value</text>
      </g>
    </g>
  </g>
  <g class="guide xlabels" font-size="2.82" font-family="'PT Sans Caption','Helvetica Neue','Helvetica',sans-serif" fill="#6C606B" id="img-1f933ac3-3">
    <g transform="translate(21.63,101.72)">
      <g class="primitive">
        <text text-anchor="middle" dy="0.6em">0.00</text>
      </g>
    </g>
    <g transform="translate(47.47,101.72)">
      <g class="primitive">
        <text text-anchor="middle" dy="0.6em">0.01</text>
      </g>
    </g>
    <g transform="translate(73.31,101.72)">
      <g class="primitive">
        <text text-anchor="middle" dy="0.6em">0.02</text>
      </g>
    </g>
    <g transform="translate(99.15,101.72)">
      <g class="primitive">
        <text text-anchor="middle" dy="0.6em">0.03</text>
      </g>
    </g>
    <g transform="translate(124.98,101.72)">
      <g class="primitive">
        <text text-anchor="middle" dy="0.6em">0.04</text>
      </g>
    </g>
    <g transform="translate(150.82,101.72)">
      <g class="primitive">
        <text text-anchor="middle" dy="0.6em">0.05</text>
      </g>
    </g>
  </g>
  <g class="guide colorkey" id="img-1f933ac3-4">
    <g fill="#4C404B" font-size="2.82" font-family="'PT Sans','Helvetica Neue','Helvetica',sans-serif" id="img-1f933ac3-5">
      <g transform="translate(181.35,47.42)" id="img-1f933ac3-6" class="color_Area_1">
        <g class="primitive">
          <text dy="0.35em">Area 1</text>
        </g>
      </g>
      <g transform="translate(181.35,51.04)" id="img-1f933ac3-7" class="color_Area_2:_2x2">
        <g class="primitive">
          <text dy="0.35em">Area 2: 2x2</text>
        </g>
      </g>
      <g transform="translate(181.35,54.67)" id="img-1f933ac3-8" class="color_Area_2:_4x4">
        <g class="primitive">
          <text dy="0.35em">Area 2: 4x4</text>
        </g>
      </g>
      <g transform="translate(181.35,58.3)" id="img-1f933ac3-9" class="color_Area_3">
        <g class="primitive">
          <text dy="0.35em">Area 3</text>
        </g>
      </g>
      <g transform="translate(181.35,61.92)" id="img-1f933ac3-10" class="color_Area_4">
        <g class="primitive">
          <text dy="0.35em">Area 4</text>
        </g>
      </g>
    </g>
    <g fill-opacity="1" id="img-1f933ac3-11">
      <g transform="translate(179.45,47.42)" id="img-1f933ac3-12" stroke="#FFFFFF" class="color_Area_1" fill="#FF6347">
        <path d="M-0.91,-0.91 L0.91,-0.91 0.91,0.91 -0.91,0.91  z" class="primitive"/>
      </g>
      <g transform="translate(179.45,51.04)" id="img-1f933ac3-13" stroke="#FFFFFF" class="color_Area_2:_2x2" fill="#4169E1">
        <path d="M-0.91,-0.91 L0.91,-0.91 0.91,0.91 -0.91,0.91  z" class="primitive"/>
      </g>
      <g transform="translate(179.45,54.67)" id="img-1f933ac3-14" stroke="#FFFFFF" class="color_Area_2:_4x4" fill="#404040">
        <path d="M-0.91,-0.91 L0.91,-0.91 0.91,0.91 -0.91,0.91  z" class="primitive"/>
      </g>
      <g transform="translate(179.45,58.3)" id="img-1f933ac3-15" stroke="#FFFFFF" class="color_Area_3" fill="#B23AEE">
        <path d="M-0.91,-0.91 L0.91,-0.91 0.91,0.91 -0.91,0.91  z" class="primitive"/>
      </g>
      <g transform="translate(179.45,61.92)" id="img-1f933ac3-16" stroke="#FFFFFF" class="color_Area_4" fill="#00CD66">
        <path d="M-0.91,-0.91 L0.91,-0.91 0.91,0.91 -0.91,0.91  z" class="primitive"/>
      </g>
    </g>
    <g fill="#362A35" font-size="3.88" font-family="'PT Sans','Helvetica Neue','Helvetica',sans-serif" stroke="#000000" stroke-opacity="0.000" id="img-1f933ac3-17">
      <g transform="translate(178.54,43.6)" id="img-1f933ac3-18">
        <g class="primitive">
          <text dy="-0em">Area</text>
        </g>
      </g>
    </g>
  </g>
  <g clip-path="url(#img-1f933ac3-19)">
    <g id="img-1f933ac3-20">
      <g pointer-events="visible" stroke-width="0.3" fill="#000000" fill-opacity="0.000" stroke="#000000" stroke-opacity="0.000" class="guide background" id="img-1f933ac3-21">
        <g transform="translate(98.59,52.86)" id="img-1f933ac3-22">
          <path d="M-78.95,-47.86 L78.95,-47.86 78.95,47.86 -78.95,47.86  z" class="primitive"/>
        </g>
      </g>
      <g class="guide ygridlines xfixed" stroke-dasharray="0.5,0.5" stroke-width="0.2" stroke="#D0D0E0" id="img-1f933ac3-23">
        <g transform="translate(98.59,98.71)" id="img-1f933ac3-24">
          <path fill="none" d="M-78.95,0 L78.95,0 " class="primitive"/>
        </g>
        <g transform="translate(98.59,75.79)" id="img-1f933ac3-25">
          <path fill="none" d="M-78.95,0 L78.95,0 " class="primitive"/>
        </g>
        <g transform="translate(98.59,52.86)" id="img-1f933ac3-26">
          <path fill="none" d="M-78.95,0 L78.95,0 " class="primitive"/>
        </g>
        <g transform="translate(98.59,29.93)" id="img-1f933ac3-27">
          <path fill="none" d="M-78.95,0 L78.95,0 " class="primitive"/>
        </g>
        <g transform="translate(98.59,7)" id="img-1f933ac3-28">
          <path fill="none" d="M-78.95,0 L78.95,0 " class="primitive"/>
        </g>
      </g>
      <g class="guide xgridlines yfixed" stroke-dasharray="0.5,0.5" stroke-width="0.2" stroke="#D0D0E0" id="img-1f933ac3-29">
        <g transform="translate(21.63,52.86)" id="img-1f933ac3-30">
          <path fill="none" d="M0,-47.86 L0,47.86 " class="primitive"/>
        </g>
        <g transform="translate(47.47,52.86)" id="img-1f933ac3-31">
          <path fill="none" d="M0,-47.86 L0,47.86 " class="primitive"/>
        </g>
        <g transform="translate(73.31,52.86)" id="img-1f933ac3-32">
          <path fill="none" d="M0,-47.86 L0,47.86 " class="primitive"/>
        </g>
        <g transform="translate(99.15,52.86)" id="img-1f933ac3-33">
          <path fill="none" d="M0,-47.86 L0,47.86 " class="primitive"/>
        </g>
        <g transform="translate(124.98,52.86)" id="img-1f933ac3-34">
          <path fill="none" d="M0,-47.86 L0,47.86 " class="primitive"/>
        </g>
        <g transform="translate(150.82,52.86)" id="img-1f933ac3-35">
          <path fill="none" d="M0,-47.86 L0,47.86 " class="primitive"/>
        </g>
      </g>
      <g class="plotpanel" id="img-1f933ac3-36">
        <metadata>
          <boundingbox value="19.63166666666669mm 5.0mm 157.90833333333333mm 95.715mm"/>
          <unitbox value="-0.0007740551208222413 204.3613367497138 0.06111487701858604 -208.7226734994276"/>
        </metadata>
        <g stroke-width="0.3" fill="#000000" fill-opacity="0.000" class="geometry" id="img-1f933ac3-37">
          <g transform="translate(66.72,88.52)" id="img-1f933ac3-38" stroke-dasharray="none" stroke="#FF6347" class="color_Area_1">
            <path fill="none" d="M-57.89,10.19 L-57.44,10.19 -56.98,10.19 -56.53,10.19 -56.07,10.18 -55.62,10.18 -55.17,10.17 -54.71,10.15 -54.26,10.13 -53.8,10.1 -53.35,10.05 -52.9,9.97 -52.44,9.87 -51.99,9.73 -51.53,9.53 -51.08,9.27 -50.63,8.93 -50.17,8.5 -49.72,7.95 -49.26,7.27 -48.81,6.46 -48.36,5.49 -47.9,4.37 -47.45,3.09 -46.99,1.67 -46.54,0.1 -46.09,-1.57 -45.63,-3.34 -45.18,-5.16 -44.72,-7.01 -44.27,-8.84 -43.82,-10.62 -43.36,-12.32 -42.91,-13.91 -42.45,-15.38 -42,-16.69 -41.55,-17.84 -41.09,-18.84 -40.64,-19.67 -40.18,-20.35 -39.73,-20.89 -39.27,-21.3 -38.82,-21.6 -38.37,-21.79 -37.91,-21.9 -37.46,-21.95 -37,-21.94 -36.55,-21.89 -36.1,-21.81 -35.64,-21.73 -35.19,-21.64 -34.73,-21.57 -34.28,-21.52 -33.83,-21.49 -33.37,-21.5 -32.92,-21.53 -32.46,-21.59 -32.01,-21.67 -31.56,-21.76 -31.1,-21.86 -30.65,-21.96 -30.19,-22.03 -29.74,-22.08 -29.29,-22.1 -28.83,-22.06 -28.38,-21.98 -27.92,-21.84 -27.47,-21.64 -27.02,-21.38 -26.56,-21.08 -26.11,-20.72 -25.65,-20.32 -25.2,-19.89 -24.75,-19.43 -24.29,-18.96 -23.84,-18.48 -23.38,-18.01 -22.93,-17.54 -22.48,-17.09 -22.02,-16.65 -21.57,-16.24 -21.11,-15.86 -20.66,-15.49 -20.21,-15.15 -19.75,-14.82 -19.3,-14.5 -18.84,-14.18 -18.39,-13.85 -17.93,-13.52 -17.48,-13.18 -17.03,-12.81 -16.57,-12.41 -16.12,-12 -15.66,-11.55 -15.21,-11.08 -14.76,-10.58 -14.3,-10.07 -13.85,-9.54 -13.39,-9 -12.94,-8.46 -12.49,-7.92 -12.03,-7.38 -11.58,-6.86 -11.12,-6.35 -10.67,-5.85 -10.22,-5.36 -9.76,-4.88 -9.31,-4.42 -8.85,-3.96 -8.4,-3.51 -7.95,-3.06 -7.49,-2.61 -7.04,-2.16 -6.58,-1.71 -6.13,-1.26 -5.68,-0.82 -5.22,-0.39 -4.77,0.03 -4.31,0.43 -3.86,0.81 -3.41,1.17 -2.95,1.49 -2.5,1.78 -2.04,2.03 -1.59,2.25 -1.14,2.44 -0.68,2.59 -0.23,2.72 0.23,2.83 0.68,2.92 1.14,3 1.59,3.09 2.04,3.18 2.5,3.28 2.95,3.39 3.41,3.52 3.86,3.67 4.31,3.84 4.77,4.03 5.22,4.23 5.68,4.45 6.13,4.67 6.58,4.9 7.04,5.13 7.49,5.35 7.95,5.56 8.4,5.77 8.85,5.97 9.31,6.15 9.76,6.32 10.22,6.48 10.67,6.64 11.12,6.78 11.58,6.92 12.03,7.06 12.49,7.19 12.94,7.33 13.39,7.46 13.85,7.6 14.3,7.73 14.76,7.87 15.21,8 15.66,8.14 16.12,8.27 16.57,8.39 17.03,8.51 17.48,8.63 17.93,8.74 18.39,8.84 18.84,8.93 19.3,9.02 19.75,9.1 20.21,9.18 20.66,9.25 21.11,9.32 21.57,9.39 22.02,9.46 22.48,9.52 22.93,9.59 23.38,9.66 23.84,9.72 24.29,9.78 24.75,9.83 25.2,9.89 25.65,9.93 26.11,9.97 26.56,10 27.02,10.03 27.47,10.05 27.92,10.06 28.38,10.07 28.83,10.07 29.29,10.06 29.74,10.05 30.19,10.03 30.65,10.01 31.1,9.99 31.56,9.97 32.01,9.95 32.46,9.93 32.92,9.91 33.37,9.89 33.83,9.87 34.28,9.86 34.73,9.85 35.19,9.84 35.64,9.83 36.1,9.82 36.55,9.82 37,9.81 37.46,9.8 37.91,9.79 38.37,9.78 38.82,9.77 39.27,9.76 39.73,9.75 40.18,9.74 40.64,9.73 41.09,9.72 41.55,9.71 42,9.71 42.45,9.71 42.91,9.72 43.36,9.73 43.82,9.75 44.27,9.77 44.72,9.79 45.18,9.82 45.63,9.85 46.09,9.88 46.54,9.91 46.99,9.95 47.45,9.98 47.9,10.01 48.36,10.04 48.81,10.07 49.26,10.09 49.72,10.11 50.17,10.13 50.63,10.14 51.08,10.16 51.53,10.17 51.99,10.17 52.44,10.18 52.9,10.18 53.35,10.19 53.8,10.19 54.26,10.19 54.71,10.19 55.17,10.19 55.62,10.19 56.07,10.19 56.53,10.19 56.98,10.19 57.44,10.19 57.89,10.19 " class="primitive"/>
          </g>
          <g transform="translate(67.2,88.61)" id="img-1f933ac3-39" stroke-dasharray="none" stroke="#B23AEE" class="color_Area_3">
            <path fill="none" d="M-58.39,10.11 L-57.93,10.11 -57.47,10.1 -57.02,10.1 -56.56,10.1 -56.1,10.09 -55.64,10.08 -55.18,10.07 -54.73,10.05 -54.27,10.02 -53.81,9.97 -53.35,9.91 -52.89,9.81 -52.44,9.68 -51.98,9.5 -51.52,9.26 -51.06,8.95 -50.6,8.55 -50.15,8.05 -49.69,7.43 -49.23,6.68 -48.77,5.8 -48.31,4.77 -47.86,3.61 -47.4,2.31 -46.94,0.9 -46.48,-0.62 -46.02,-2.21 -45.57,-3.84 -45.11,-5.49 -44.65,-7.12 -44.19,-8.7 -43.73,-10.2 -43.28,-11.6 -42.82,-12.87 -42.36,-14.01 -41.9,-15.01 -41.44,-15.86 -40.99,-16.57 -40.53,-17.14 -40.07,-17.59 -39.61,-17.93 -39.16,-18.16 -38.7,-18.31 -38.24,-18.39 -37.78,-18.41 -37.32,-18.39 -36.87,-18.34 -36.41,-18.27 -35.95,-18.2 -35.49,-18.13 -35.03,-18.07 -34.58,-18.03 -34.12,-18.02 -33.66,-18.04 -33.2,-18.09 -32.74,-18.16 -32.29,-18.25 -31.83,-18.36 -31.37,-18.47 -30.91,-18.57 -30.45,-18.66 -30,-18.73 -29.54,-18.77 -29.08,-18.77 -28.62,-18.74 -28.16,-18.66 -27.71,-18.55 -27.25,-18.39 -26.79,-18.2 -26.33,-17.99 -25.87,-17.75 -25.42,-17.51 -24.96,-17.27 -24.5,-17.03 -24.04,-16.81 -23.58,-16.62 -23.13,-16.46 -22.67,-16.33 -22.21,-16.25 -21.75,-16.2 -21.29,-16.19 -20.84,-16.21 -20.38,-16.26 -19.92,-16.33 -19.46,-16.41 -19.01,-16.5 -18.55,-16.57 -18.09,-16.62 -17.63,-16.64 -17.17,-16.62 -16.72,-16.54 -16.26,-16.41 -15.8,-16.21 -15.34,-15.93 -14.88,-15.59 -14.43,-15.17 -13.97,-14.68 -13.51,-14.12 -13.05,-13.5 -12.59,-12.84 -12.14,-12.12 -11.68,-11.38 -11.22,-10.62 -10.76,-9.85 -10.3,-9.08 -9.85,-8.32 -9.39,-7.58 -8.93,-6.87 -8.47,-6.18 -8.01,-5.52 -7.56,-4.89 -7.1,-4.29 -6.64,-3.72 -6.18,-3.17 -5.72,-2.64 -5.27,-2.14 -4.81,-1.65 -4.35,-1.18 -3.89,-0.74 -3.43,-0.31 -2.98,0.09 -2.52,0.47 -2.06,0.82 -1.6,1.15 -1.14,1.46 -0.69,1.75 -0.23,2.01 0.23,2.26 0.69,2.5 1.14,2.73 1.6,2.95 2.06,3.17 2.52,3.38 2.98,3.6 3.43,3.82 3.89,4.04 4.35,4.26 4.81,4.48 5.27,4.71 5.72,4.93 6.18,5.14 6.64,5.34 7.1,5.53 7.56,5.71 8.01,5.87 8.47,6.02 8.93,6.15 9.39,6.28 9.85,6.39 10.3,6.49 10.76,6.58 11.22,6.67 11.68,6.76 12.14,6.85 12.59,6.94 13.05,7.03 13.51,7.13 13.97,7.23 14.43,7.33 14.88,7.44 15.34,7.55 15.8,7.65 16.26,7.76 16.72,7.87 17.17,7.97 17.63,8.08 18.09,8.18 18.55,8.28 19.01,8.37 19.46,8.46 19.92,8.55 20.38,8.63 20.84,8.7 21.29,8.77 21.75,8.84 22.21,8.91 22.67,8.97 23.13,9.03 23.58,9.09 24.04,9.15 24.5,9.22 24.96,9.28 25.42,9.34 25.87,9.41 26.33,9.47 26.79,9.52 27.25,9.58 27.71,9.62 28.16,9.67 28.62,9.7 29.08,9.73 29.54,9.76 30,9.78 30.45,9.79 30.91,9.79 31.37,9.8 31.83,9.8 32.29,9.79 32.74,9.79 33.2,9.78 33.66,9.77 34.12,9.76 34.58,9.75 35.03,9.74 35.49,9.73 35.95,9.72 36.41,9.72 36.87,9.72 37.32,9.71 37.78,9.72 38.24,9.72 38.7,9.72 39.16,9.73 39.61,9.74 40.07,9.75 40.53,9.75 40.99,9.76 41.44,9.76 41.9,9.76 42.36,9.76 42.82,9.77 43.28,9.76 43.73,9.77 44.19,9.77 44.65,9.77 45.11,9.78 45.57,9.79 46.02,9.8 46.48,9.82 46.94,9.84 47.4,9.87 47.86,9.89 48.31,9.92 48.77,9.94 49.23,9.97 49.69,9.99 50.15,10.01 50.6,10.03 51.06,10.05 51.52,10.06 51.98,10.07 52.44,10.08 52.89,10.09 53.35,10.09 53.81,10.1 54.27,10.1 54.73,10.1 55.18,10.1 55.64,10.1 56.1,10.11 56.56,10.11 57.02,10.11 57.47,10.11 57.93,10.11 58.39,10.11 " class="primitive"/>
          </g>
          <g transform="translate(43.98,78.62)" id="img-1f933ac3-40" stroke-dasharray="none" stroke="#4169E1" class="color_Area_2:_2x2">
            <path fill="none" d="M-29.37,20.09 L-29.14,20.09 -28.91,20.09 -28.68,20.09 -28.45,20.08 -28.22,20.07 -27.99,20.06 -27.76,20.04 -27.53,20.01 -27.29,19.97 -27.06,19.91 -26.83,19.82 -26.6,19.7 -26.37,19.52 -26.14,19.29 -25.91,18.99 -25.68,18.58 -25.45,18.07 -25.22,17.41 -24.99,16.6 -24.76,15.6 -24.53,14.4 -24.3,12.98 -24.07,11.33 -23.84,9.45 -23.61,7.33 -23.38,4.98 -23.15,2.43 -22.92,-0.3 -22.69,-3.17 -22.46,-6.14 -22.23,-9.16 -22,-12.19 -21.77,-15.18 -21.54,-18.07 -21.31,-20.84 -21.08,-23.44 -20.85,-25.85 -20.62,-28.04 -20.38,-30.01 -20.15,-31.76 -19.92,-33.28 -19.69,-34.6 -19.46,-35.71 -19.23,-36.65 -19,-37.43 -18.77,-38.06 -18.54,-38.58 -18.31,-38.99 -18.08,-39.32 -17.85,-39.59 -17.62,-39.79 -17.39,-39.96 -17.16,-40.09 -16.93,-40.2 -16.7,-40.29 -16.47,-40.37 -16.24,-40.43 -16.01,-40.47 -15.78,-40.51 -15.55,-40.52 -15.32,-40.5 -15.09,-40.46 -14.86,-40.37 -14.63,-40.25 -14.4,-40.08 -14.17,-39.86 -13.94,-39.58 -13.7,-39.25 -13.47,-38.86 -13.24,-38.43 -13.01,-37.96 -12.78,-37.46 -12.55,-36.93 -12.32,-36.4 -12.09,-35.87 -11.86,-35.37 -11.63,-34.89 -11.4,-34.45 -11.17,-34.06 -10.94,-33.72 -10.71,-33.43 -10.48,-33.19 -10.25,-33 -10.02,-32.84 -9.79,-32.71 -9.56,-32.59 -9.33,-32.46 -9.1,-32.32 -8.87,-32.14 -8.64,-31.92 -8.41,-31.64 -8.18,-31.3 -7.95,-30.89 -7.72,-30.41 -7.49,-29.84 -7.26,-29.2 -7.03,-28.48 -6.79,-27.69 -6.56,-26.82 -6.33,-25.89 -6.1,-24.89 -5.87,-23.82 -5.64,-22.71 -5.41,-21.54 -5.18,-20.34 -4.95,-19.1 -4.72,-17.85 -4.49,-16.57 -4.26,-15.3 -4.03,-14.03 -3.8,-12.77 -3.57,-11.54 -3.34,-10.33 -3.11,-9.14 -2.88,-7.99 -2.65,-6.88 -2.42,-5.8 -2.19,-4.76 -1.96,-3.75 -1.73,-2.79 -1.5,-1.86 -1.27,-0.97 -1.04,-0.11 -0.81,0.7 -0.58,1.48 -0.35,2.23 -0.12,2.93 0.12,3.6 0.35,4.23 0.58,4.83 0.81,5.38 1.04,5.9 1.27,6.37 1.5,6.81 1.73,7.21 1.96,7.58 2.19,7.91 2.42,8.21 2.65,8.48 2.88,8.74 3.11,8.98 3.34,9.22 3.57,9.46 3.8,9.7 4.03,9.96 4.26,10.23 4.49,10.51 4.72,10.81 4.95,11.13 5.18,11.47 5.41,11.82 5.64,12.18 5.87,12.56 6.1,12.95 6.33,13.34 6.56,13.74 6.79,14.15 7.03,14.56 7.26,14.98 7.49,15.4 7.72,15.81 7.95,16.22 8.18,16.62 8.41,17.01 8.64,17.39 8.87,17.74 9.1,18.07 9.33,18.37 9.56,18.65 9.79,18.89 10.02,19.1 10.25,19.29 10.48,19.44 10.71,19.57 10.94,19.67 11.17,19.75 11.4,19.8 11.63,19.84 11.86,19.86 12.09,19.86 12.32,19.85 12.55,19.83 12.78,19.79 13.01,19.75 13.24,19.71 13.47,19.66 13.7,19.6 13.94,19.55 14.17,19.5 14.4,19.46 14.63,19.42 14.86,19.4 15.09,19.38 15.32,19.38 15.55,19.39 15.78,19.4 16.01,19.43 16.24,19.47 16.47,19.51 16.7,19.56 16.93,19.61 17.16,19.66 17.39,19.71 17.62,19.75 17.85,19.78 18.08,19.81 18.31,19.83 18.54,19.83 18.77,19.83 19,19.82 19.23,19.79 19.46,19.76 19.69,19.73 19.92,19.68 20.15,19.64 20.38,19.59 20.62,19.54 20.85,19.5 21.08,19.46 21.31,19.43 21.54,19.4 21.77,19.39 22,19.39 22.23,19.4 22.46,19.42 22.69,19.45 22.92,19.49 23.15,19.54 23.38,19.59 23.61,19.64 23.84,19.69 24.07,19.75 24.3,19.8 24.53,19.85 24.76,19.89 24.99,19.93 25.22,19.96 25.45,19.99 25.68,20.01 25.91,20.03 26.14,20.05 26.37,20.06 26.6,20.07 26.83,20.08 27.06,20.08 27.29,20.09 27.53,20.09 27.76,20.09 27.99,20.09 28.22,20.09 28.45,20.09 28.68,20.09 28.91,20.09 29.14,20.09 29.37,20.09 " class="primitive"/>
          </g>
          <g transform="translate(94.04,91.47)" id="img-1f933ac3-41" stroke-dasharray="none" stroke="#00CD66" class="color_Area_4">
            <path fill="none" d="M-81.5,7.24 L-80.86,7.24 -80.22,7.23 -79.58,7.21 -78.94,7.15 -78.3,7.04 -77.66,6.8 -77.02,6.35 -76.38,5.55 -75.74,4.25 -75.11,2.27 -74.47,-0.51 -73.83,-4.11 -73.19,-8.46 -72.55,-13.32 -71.91,-18.36 -71.27,-23.21 -70.63,-27.55 -69.99,-31.16 -69.35,-33.97 -68.71,-36 -68.07,-37.38 -67.44,-38.25 -66.8,-38.75 -66.16,-38.97 -65.52,-38.98 -64.88,-38.79 -64.24,-38.44 -63.6,-37.94 -62.96,-37.36 -62.32,-36.78 -61.68,-36.3 -61.04,-36.01 -60.4,-35.94 -59.76,-36.09 -59.13,-36.39 -58.49,-36.75 -57.85,-37.04 -57.21,-37.17 -56.57,-37.06 -55.93,-36.65 -55.29,-35.92 -54.65,-34.87 -54.01,-33.5 -53.37,-31.83 -52.73,-29.89 -52.09,-27.73 -51.46,-25.41 -50.82,-23.01 -50.18,-20.59 -49.54,-18.23 -48.9,-15.97 -48.26,-13.88 -47.62,-11.99 -46.98,-10.34 -46.34,-8.94 -45.7,-7.79 -45.06,-6.86 -44.42,-6.08 -43.78,-5.38 -43.15,-4.69 -42.51,-3.96 -41.87,-3.18 -41.23,-2.37 -40.59,-1.55 -39.95,-0.79 -39.31,-0.12 -38.67,0.43 -38.03,0.86 -37.39,1.21 -36.75,1.49 -36.11,1.76 -35.48,2.03 -34.84,2.35 -34.2,2.72 -33.56,3.16 -32.92,3.63 -32.28,4.13 -31.64,4.61 -31,5.06 -30.36,5.45 -29.72,5.76 -29.08,5.99 -28.44,6.15 -27.81,6.24 -27.17,6.28 -26.53,6.28 -25.89,6.27 -25.25,6.25 -24.61,6.24 -23.97,6.26 -23.33,6.31 -22.69,6.4 -22.05,6.52 -21.41,6.66 -20.77,6.79 -20.13,6.89 -19.5,6.96 -18.86,6.99 -18.22,6.97 -17.58,6.93 -16.94,6.85 -16.3,6.78 -15.66,6.71 -15.02,6.66 -14.38,6.65 -13.74,6.66 -13.1,6.7 -12.46,6.74 -11.83,6.77 -11.19,6.76 -10.55,6.72 -9.91,6.64 -9.27,6.53 -8.63,6.41 -7.99,6.31 -7.35,6.24 -6.71,6.2 -6.07,6.21 -5.43,6.25 -4.79,6.31 -4.15,6.36 -3.52,6.41 -2.88,6.44 -2.24,6.46 -1.6,6.47 -0.96,6.48 -0.32,6.5 0.32,6.54 0.96,6.61 1.6,6.7 2.24,6.79 2.88,6.88 3.52,6.95 4.15,7 4.79,7.02 5.43,7.02 6.07,7.01 6.71,7.01 7.35,7.02 7.99,7.03 8.63,7.04 9.27,7.05 9.91,7.04 10.55,7.02 11.19,6.97 11.83,6.92 12.46,6.86 13.1,6.82 13.74,6.81 14.38,6.82 15.02,6.87 15.66,6.94 16.3,7.01 16.94,7.08 17.58,7.14 18.22,7.18 18.86,7.21 19.5,7.22 20.13,7.23 20.77,7.24 21.41,7.24 22.05,7.24 22.69,7.24 23.33,7.24 23.97,7.24 24.61,7.24 25.25,7.24 25.89,7.24 26.53,7.24 27.17,7.24 27.81,7.24 28.44,7.24 29.08,7.24 29.72,7.24 30.36,7.24 31,7.24 31.64,7.24 32.28,7.24 32.92,7.24 33.56,7.24 34.2,7.24 34.84,7.24 35.48,7.24 36.11,7.24 36.75,7.24 37.39,7.24 38.03,7.24 38.67,7.24 39.31,7.24 39.95,7.24 40.59,7.24 41.23,7.24 41.87,7.24 42.51,7.24 43.15,7.24 43.78,7.24 44.42,7.24 45.06,7.24 45.7,7.24 46.34,7.24 46.98,7.24 47.62,7.24 48.26,7.24 48.9,7.24 49.54,7.24 50.18,7.24 50.82,7.24 51.46,7.24 52.09,7.24 52.73,7.24 53.37,7.24 54.01,7.24 54.65,7.24 55.29,7.24 55.93,7.24 56.57,7.24 57.21,7.24 57.85,7.24 58.49,7.24 59.13,7.24 59.76,7.24 60.4,7.24 61.04,7.24 61.68,7.24 62.32,7.24 62.96,7.24 63.6,7.24 64.24,7.24 64.88,7.24 65.52,7.24 66.16,7.24 66.8,7.23 67.44,7.22 68.07,7.21 68.71,7.18 69.35,7.15 69.99,7.12 70.63,7.08 71.27,7.05 71.91,7.03 72.55,7.03 73.19,7.04 73.83,7.06 74.47,7.1 75.11,7.13 75.74,7.17 76.38,7.19 77.02,7.21 77.66,7.23 78.3,7.23 78.94,7.24 79.58,7.24 80.22,7.24 80.86,7.24 81.5,7.24 " class="primitive"/>
          </g>
          <g transform="translate(45.02,78.66)" id="img-1f933ac3-42" stroke-dasharray="none" stroke="#404040" class="color_Area_2:_4x4">
            <path fill="none" d="M-29.42,20.06 L-29.19,20.06 -28.96,20.05 -28.73,20.05 -28.5,20.04 -28.26,20.02 -28.03,19.99 -27.8,19.95 -27.57,19.88 -27.34,19.77 -27.11,19.61 -26.88,19.37 -26.65,19.03 -26.42,18.56 -26.19,17.92 -25.96,17.06 -25.73,15.95 -25.5,14.52 -25.27,12.76 -25.03,10.61 -24.8,8.05 -24.57,5.08 -24.34,1.7 -24.11,-2.05 -23.88,-6.12 -23.65,-10.45 -23.42,-14.94 -23.19,-19.51 -22.96,-24.05 -22.73,-28.46 -22.5,-32.66 -22.27,-36.58 -22.04,-40.16 -21.8,-43.37 -21.57,-46.19 -21.34,-48.62 -21.11,-50.68 -20.88,-52.4 -20.65,-53.81 -20.42,-54.95 -20.19,-55.87 -19.96,-56.59 -19.73,-57.15 -19.5,-57.58 -19.27,-57.91 -19.04,-58.15 -18.8,-58.34 -18.57,-58.48 -18.34,-58.58 -18.11,-58.67 -17.88,-58.74 -17.65,-58.81 -17.42,-58.88 -17.19,-58.94 -16.96,-59 -16.73,-59.03 -16.5,-59.04 -16.27,-58.99 -16.04,-58.88 -15.81,-58.69 -15.57,-58.39 -15.34,-57.97 -15.11,-57.41 -14.88,-56.72 -14.65,-55.86 -14.42,-54.86 -14.19,-53.72 -13.96,-52.43 -13.73,-51.03 -13.5,-49.54 -13.27,-47.97 -13.04,-46.35 -12.81,-44.72 -12.58,-43.08 -12.34,-41.47 -12.11,-39.89 -11.88,-38.36 -11.65,-36.88 -11.42,-35.45 -11.19,-34.05 -10.96,-32.68 -10.73,-31.32 -10.5,-29.95 -10.27,-28.55 -10.04,-27.12 -9.81,-25.63 -9.58,-24.08 -9.34,-22.47 -9.11,-20.8 -8.88,-19.07 -8.65,-17.3 -8.42,-15.49 -8.19,-13.67 -7.96,-11.85 -7.73,-10.05 -7.5,-8.29 -7.27,-6.59 -7.04,-4.97 -6.81,-3.44 -6.58,-2.02 -6.35,-0.71 -6.11,0.48 -5.88,1.55 -5.65,2.52 -5.42,3.38 -5.19,4.15 -4.96,4.86 -4.73,5.52 -4.5,6.15 -4.27,6.77 -4.04,7.4 -3.81,8.03 -3.58,8.68 -3.35,9.35 -3.11,10.02 -2.88,10.69 -2.65,11.35 -2.42,11.99 -2.19,12.59 -1.96,13.15 -1.73,13.66 -1.5,14.12 -1.27,14.53 -1.04,14.9 -0.81,15.22 -0.58,15.5 -0.35,15.74 -0.12,15.96 0.12,16.13 0.35,16.28 0.58,16.39 0.81,16.47 1.04,16.5 1.27,16.51 1.5,16.48 1.73,16.42 1.96,16.34 2.19,16.25 2.42,16.17 2.65,16.09 2.88,16.03 3.11,15.99 3.35,15.99 3.58,16.01 3.81,16.07 4.04,16.16 4.27,16.27 4.5,16.4 4.73,16.54 4.96,16.7 5.19,16.86 5.42,17.03 5.65,17.19 5.88,17.35 6.11,17.51 6.35,17.67 6.58,17.83 6.81,17.98 7.04,18.13 7.27,18.28 7.5,18.42 7.73,18.56 7.96,18.68 8.19,18.8 8.42,18.9 8.65,18.99 8.88,19.07 9.11,19.13 9.34,19.19 9.58,19.24 9.81,19.28 10.04,19.32 10.27,19.36 10.5,19.4 10.73,19.45 10.96,19.49 11.19,19.54 11.42,19.58 11.65,19.62 11.88,19.65 12.11,19.67 12.34,19.68 12.58,19.68 12.81,19.67 13.04,19.65 13.27,19.63 13.5,19.6 13.73,19.56 13.96,19.53 14.19,19.5 14.42,19.48 14.65,19.47 14.88,19.46 15.11,19.46 15.34,19.47 15.57,19.47 15.81,19.47 16.04,19.47 16.27,19.46 16.5,19.44 16.73,19.4 16.96,19.36 17.19,19.3 17.42,19.24 17.65,19.18 17.88,19.11 18.11,19.06 18.34,19.02 18.57,18.99 18.8,18.98 19.04,18.99 19.27,19.02 19.5,19.07 19.73,19.13 19.96,19.2 20.19,19.27 20.42,19.34 20.65,19.41 20.88,19.47 21.11,19.51 21.34,19.54 21.57,19.56 21.8,19.56 22.04,19.56 22.27,19.54 22.5,19.53 22.73,19.51 22.96,19.5 23.19,19.49 23.42,19.49 23.65,19.51 23.88,19.53 24.11,19.56 24.34,19.61 24.57,19.65 24.8,19.7 25.03,19.76 25.27,19.81 25.5,19.85 25.73,19.89 25.96,19.93 26.19,19.96 26.42,19.99 26.65,20.01 26.88,20.02 27.11,20.03 27.34,20.04 27.57,20.05 27.8,20.05 28.03,20.05 28.26,20.06 28.5,20.06 28.73,20.06 28.96,20.06 29.19,20.06 29.42,20.06 " class="primitive"/>
          </g>
        </g>
      </g>
    </g>
  </g>
  <g class="guide ylabels" font-size="2.82" font-family="'PT Sans Caption','Helvetica Neue','Helvetica',sans-serif" fill="#6C606B" id="img-1f933ac3-43">
    <g transform="translate(18.63,98.71)" id="img-1f933ac3-44">
      <g class="primitive">
        <text text-anchor="end" dy="0.35em">0</text>
      </g>
    </g>
    <g transform="translate(18.63,75.79)" id="img-1f933ac3-45">
      <g class="primitive">
        <text text-anchor="end" dy="0.35em">50</text>
      </g>
    </g>
    <g transform="translate(18.63,52.86)" id="img-1f933ac3-46">
      <g class="primitive">
        <text text-anchor="end" dy="0.35em">100</text>
      </g>
    </g>
    <g transform="translate(18.63,29.93)" id="img-1f933ac3-47">
      <g class="primitive">
        <text text-anchor="end" dy="0.35em">150</text>
      </g>
    </g>
    <g transform="translate(18.63,7)" id="img-1f933ac3-48">
      <g class="primitive">
        <text text-anchor="end" dy="0.35em">200</text>
      </g>
    </g>
  </g>
  <g font-size="3.88" font-family="'PT Sans','Helvetica Neue','Helvetica',sans-serif" fill="#564A55" stroke="#000000" stroke-opacity="0.000" id="img-1f933ac3-49">
    <g transform="translate(8.81,50.86)" id="img-1f933ac3-50">
      <g class="primitive">
        <text text-anchor="middle" dy="0.35em" transform="rotate(-90,0, 2)">Density</text>
      </g>
    </g>
  </g>
</g>
<defs>
  <clipPath id="img-1f933ac3-19">
    <path d="M19.63,5 L177.54,5 177.54,100.72 19.63,100.72 " />
  </clipPath>
</defs>
</svg>
