<?xml version="1.0" encoding="UTF-8"?>
<svg xmlns="http://www.w3.org/2000/svg"
     xmlns:xlink="http://www.w3.org/1999/xlink"
     xmlns:gadfly="http://www.gadflyjl.org/ns"
     version="1.2"
     width="300mm" height="120mm" viewBox="0 0 300 120"
     stroke="none"
     fill="#000000"
     stroke-width="0.3"
     font-size="3.88"
>
<defs>
  <marker id="arrow" markerWidth="15" markerHeight="7" refX="5" refY="3.5" orient="auto" markerUnits="strokeWidth">
    <path d="M0,0 L15,3.5 L0,7 z" stroke="context-stroke" fill="context-stroke"/>
  </marker>
</defs>
<g class="plotroot xscalable yscalable" id="img-1acbd0c5-1">
  <g font-size="3.88" font-family="'PT Sans','Helvetica Neue','Helvetica',sans-serif" fill="#564A55" stroke="#000000" stroke-opacity="0.000" id="img-1acbd0c5-2">
    <g transform="translate(148.59,108.39)">
      <g class="primitive">
        <text text-anchor="middle" dy="0.6em">Pheromone Value</text>
      </g>
    </g>
  </g>
  <g class="guide xlabels" font-size="2.82" font-family="'PT Sans Caption','Helvetica Neue','Helvetica',sans-serif" fill="#6C606B" id="img-1acbd0c5-3">
    <g transform="translate(21.63,101.72)">
      <g class="primitive">
        <text text-anchor="middle" dy="0.6em">0.00</text>
      </g>
    </g>
    <g transform="translate(64.26,101.72)">
      <g class="primitive">
        <text text-anchor="middle" dy="0.6em">0.01</text>
      </g>
    </g>
    <g transform="translate(106.88,101.72)">
      <g class="primitive">
        <text text-anchor="middle" dy="0.6em">0.02</text>
      </g>
    </g>
    <g transform="translate(149.51,101.72)">
      <g class="primitive">
        <text text-anchor="middle" dy="0.6em">0.03</text>
      </g>
    </g>
    <g transform="translate(192.14,101.72)">
      <g class="primitive">
        <text text-anchor="middle" dy="0.6em">0.04</text>
      </g>
    </g>
    <g transform="translate(234.76,101.72)">
      <g class="primitive">
        <text text-anchor="middle" dy="0.6em">0.05</text>
      </g>
    </g>
  </g>
  <g class="guide colorkey" id="img-1acbd0c5-4">
    <g fill="#4C404B" font-size="2.82" font-family="'PT Sans','Helvetica Neue','Helvetica',sans-serif" id="img-1acbd0c5-5">
      <g transform="translate(281.35,47.42)" id="img-1acbd0c5-6" class="color_Area_1">
        <g class="primitive">
          <text dy="0.35em">Area 1</text>
        </g>
      </g>
      <g transform="translate(281.35,51.04)" id="img-1acbd0c5-7" class="color_Area_2:_2x2">
        <g class="primitive">
          <text dy="0.35em">Area 2: 2x2</text>
        </g>
      </g>
      <g transform="translate(281.35,54.67)" id="img-1acbd0c5-8" class="color_Area_2:_4x4">
        <g class="primitive">
          <text dy="0.35em">Area 2: 4x4</text>
        </g>
      </g>
      <g transform="translate(281.35,58.3)" id="img-1acbd0c5-9" class="color_Area_3">
        <g class="primitive">
          <text dy="0.35em">Area 3</text>
        </g>
      </g>
      <g transform="translate(281.35,61.92)" id="img-1acbd0c5-10" class="color_Area_4">
        <g class="primitive">
          <text dy="0.35em">Area 4</text>
        </g>
      </g>
    </g>
    <g fill-opacity="1" id="img-1acbd0c5-11">
      <g transform="translate(279.45,47.42)" id="img-1acbd0c5-12" stroke="#FFFFFF" class="color_Area_1" fill="#FF6347">
        <path d="M-0.91,-0.91 L0.91,-0.91 0.91,0.91 -0.91,0.91  z" class="primitive"/>
      </g>
      <g transform="translate(279.45,51.04)" id="img-1acbd0c5-13" stroke="#FFFFFF" class="color_Area_2:_2x2" fill="#4169E1">
        <path d="M-0.91,-0.91 L0.91,-0.91 0.91,0.91 -0.91,0.91  z" class="primitive"/>
      </g>
      <g transform="translate(279.45,54.67)" id="img-1acbd0c5-14" stroke="#FFFFFF" class="color_Area_2:_4x4" fill="#404040">
        <path d="M-0.91,-0.91 L0.91,-0.91 0.91,0.91 -0.91,0.91  z" class="primitive"/>
      </g>
      <g transform="translate(279.45,58.3)" id="img-1acbd0c5-15" stroke="#FFFFFF" class="color_Area_3" fill="#B23AEE">
        <path d="M-0.91,-0.91 L0.91,-0.91 0.91,0.91 -0.91,0.91  z" class="primitive"/>
      </g>
      <g transform="translate(279.45,61.92)" id="img-1acbd0c5-16" stroke="#FFFFFF" class="color_Area_4" fill="#00CD66">
        <path d="M-0.91,-0.91 L0.91,-0.91 0.91,0.91 -0.91,0.91  z" class="primitive"/>
      </g>
    </g>
    <g fill="#362A35" font-size="3.88" font-family="'PT Sans','Helvetica Neue','Helvetica',sans-serif" stroke="#000000" stroke-opacity="0.000" id="img-1acbd0c5-17">
      <g transform="translate(278.54,43.6)" id="img-1acbd0c5-18">
        <g class="primitive">
          <text dy="-0em">Area</text>
        </g>
      </g>
    </g>
  </g>
  <g clip-path="url(#img-1acbd0c5-19)">
    <g id="img-1acbd0c5-20">
      <g pointer-events="visible" stroke-width="0.3" fill="#000000" fill-opacity="0.000" stroke="#000000" stroke-opacity="0.000" class="guide background" id="img-1acbd0c5-21">
        <g transform="translate(148.59,52.86)" id="img-1acbd0c5-22">
          <path d="M-128.95,-47.86 L128.95,-47.86 128.95,47.86 -128.95,47.86  z" class="primitive"/>
        </g>
      </g>
      <g class="guide ygridlines xfixed" stroke-dasharray="0.5,0.5" stroke-width="0.2" stroke="#D0D0E0" id="img-1acbd0c5-23">
        <g transform="translate(148.59,98.71)" id="img-1acbd0c5-24">
          <path fill="none" d="M-128.95,0 L128.95,0 " class="primitive"/>
        </g>
        <g transform="translate(148.59,75.79)" id="img-1acbd0c5-25">
          <path fill="none" d="M-128.95,0 L128.95,0 " class="primitive"/>
        </g>
        <g transform="translate(148.59,52.86)" id="img-1acbd0c5-26">
          <path fill="none" d="M-128.95,0 L128.95,0 " class="primitive"/>
        </g>
        <g transform="translate(148.59,29.93)" id="img-1acbd0c5-27">
          <path fill="none" d="M-128.95,0 L128.95,0 " class="primitive"/>
        </g>
        <g transform="translate(148.59,7)" id="img-1acbd0c5-28">
          <path fill="none" d="M-128.95,0 L128.95,0 " class="primitive"/>
        </g>
      </g>
      <g class="guide xgridlines yfixed" stroke-dasharray="0.5,0.5" stroke-width="0.2" stroke="#D0D0E0" id="img-1acbd0c5-29">
        <g transform="translate(21.63,52.86)" id="img-1acbd0c5-30">
          <path fill="none" d="M0,-47.86 L0,47.86 " class="primitive"/>
        </g>
        <g transform="translate(64.26,52.86)" id="img-1acbd0c5-31">
          <path fill="none" d="M0,-47.86 L0,47.86 " class="primitive"/>
        </g>
        <g transform="translate(106.88,52.86)" id="img-1acbd0c5-32">
          <path fill="none" d="M0,-47.86 L0,47.86 " class="primitive"/>
        </g>
        <g transform="translate(149.51,52.86)" id="img-1acbd0c5-33">
          <path fill="none" d="M0,-47.86 L0,47.86 " class="primitive"/>
        </g>
        <g transform="translate(192.14,52.86)" id="img-1acbd0c5-34">
          <path fill="none" d="M0,-47.86 L0,47.86 " class="primitive"/>
        </g>
        <g transform="translate(234.76,52.86)" id="img-1acbd0c5-35">
          <path fill="none" d="M0,-47.86 L0,47.86 " class="primitive"/>
        </g>
      </g>
      <g class="plotpanel" id="img-1acbd0c5-36">
        <metadata>
          <boundingbox value="19.63166666666666mm 5.0mm 257.9083333333333mm 95.715mm"/>
          <unitbox value="-0.0004691989900051192 204.3613367497138 0.0605051647569518 -208.7226734994276"/>
        </metadata>
        <g stroke-width="0.3" fill="#000000" fill-opacity="0.000" class="geometry" id="img-1acbd0c5-37">
          <g transform="translate(96.01,88.52)" id="img-1acbd0c5-38" stroke-dasharray="none" stroke="#FF6347" class="color_Area_1">
            <path fill="none" d="M-95.5,10.19 L-94.76,10.19 -94.01,10.19 -93.26,10.19 -92.51,10.18 -91.76,10.18 -91.01,10.17 -90.26,10.15 -89.51,10.13 -88.76,10.1 -88.01,10.05 -87.26,9.97 -86.52,9.87 -85.77,9.73 -85.02,9.53 -84.27,9.27 -83.52,8.93 -82.77,8.5 -82.02,7.95 -81.27,7.27 -80.52,6.46 -79.77,5.49 -79.03,4.37 -78.28,3.09 -77.53,1.67 -76.78,0.1 -76.03,-1.57 -75.28,-3.34 -74.53,-5.16 -73.78,-7.01 -73.03,-8.84 -72.28,-10.62 -71.53,-12.32 -70.79,-13.91 -70.04,-15.38 -69.29,-16.69 -68.54,-17.84 -67.79,-18.84 -67.04,-19.67 -66.29,-20.35 -65.54,-20.89 -64.79,-21.3 -64.04,-21.6 -63.3,-21.79 -62.55,-21.9 -61.8,-21.95 -61.05,-21.94 -60.3,-21.89 -59.55,-21.81 -58.8,-21.73 -58.05,-21.64 -57.3,-21.57 -56.55,-21.52 -55.8,-21.49 -55.06,-21.5 -54.31,-21.53 -53.56,-21.59 -52.81,-21.67 -52.06,-21.76 -51.31,-21.86 -50.56,-21.96 -49.81,-22.03 -49.06,-22.08 -48.31,-22.1 -47.57,-22.06 -46.82,-21.98 -46.07,-21.84 -45.32,-21.64 -44.57,-21.38 -43.82,-21.08 -43.07,-20.72 -42.32,-20.32 -41.57,-19.89 -40.82,-19.43 -40.07,-18.96 -39.33,-18.48 -38.58,-18.01 -37.83,-17.54 -37.08,-17.09 -36.33,-16.65 -35.58,-16.24 -34.83,-15.86 -34.08,-15.49 -33.33,-15.15 -32.58,-14.82 -31.83,-14.5 -31.09,-14.18 -30.34,-13.85 -29.59,-13.52 -28.84,-13.18 -28.09,-12.81 -27.34,-12.41 -26.59,-12 -25.84,-11.55 -25.09,-11.08 -24.34,-10.58 -23.6,-10.07 -22.85,-9.54 -22.1,-9 -21.35,-8.46 -20.6,-7.92 -19.85,-7.38 -19.1,-6.86 -18.35,-6.35 -17.6,-5.85 -16.85,-5.36 -16.1,-4.88 -15.36,-4.42 -14.61,-3.96 -13.86,-3.51 -13.11,-3.06 -12.36,-2.61 -11.61,-2.16 -10.86,-1.71 -10.11,-1.26 -9.36,-0.82 -8.61,-0.39 -7.87,0.03 -7.12,0.43 -6.37,0.81 -5.62,1.17 -4.87,1.49 -4.12,1.78 -3.37,2.03 -2.62,2.25 -1.87,2.44 -1.12,2.59 -0.37,2.72 0.37,2.83 1.12,2.92 1.87,3 2.62,3.09 3.37,3.18 4.12,3.28 4.87,3.39 5.62,3.52 6.37,3.67 7.12,3.84 7.87,4.03 8.61,4.23 9.36,4.45 10.11,4.67 10.86,4.9 11.61,5.13 12.36,5.35 13.11,5.56 13.86,5.77 14.61,5.97 15.36,6.15 16.1,6.32 16.85,6.48 17.6,6.64 18.35,6.78 19.1,6.92 19.85,7.06 20.6,7.19 21.35,7.33 22.1,7.46 22.85,7.6 23.6,7.73 24.34,7.87 25.09,8 25.84,8.14 26.59,8.27 27.34,8.39 28.09,8.51 28.84,8.63 29.59,8.74 30.34,8.84 31.09,8.93 31.83,9.02 32.58,9.1 33.33,9.18 34.08,9.25 34.83,9.32 35.58,9.39 36.33,9.46 37.08,9.52 37.83,9.59 38.58,9.66 39.33,9.72 40.07,9.78 40.82,9.83 41.57,9.89 42.32,9.93 43.07,9.97 43.82,10 44.57,10.03 45.32,10.05 46.07,10.06 46.82,10.07 47.57,10.07 48.31,10.06 49.06,10.05 49.81,10.03 50.56,10.01 51.31,9.99 52.06,9.97 52.81,9.95 53.56,9.93 54.31,9.91 55.06,9.89 55.8,9.87 56.55,9.86 57.3,9.85 58.05,9.84 58.8,9.83 59.55,9.82 60.3,9.82 61.05,9.81 61.8,9.8 62.55,9.79 63.3,9.78 64.04,9.77 64.79,9.76 65.54,9.75 66.29,9.74 67.04,9.73 67.79,9.72 68.54,9.71 69.29,9.71 70.04,9.71 70.79,9.72 71.53,9.73 72.28,9.75 73.03,9.77 73.78,9.79 74.53,9.82 75.28,9.85 76.03,9.88 76.78,9.91 77.53,9.95 78.28,9.98 79.03,10.01 79.77,10.04 80.52,10.07 81.27,10.09 82.02,10.11 82.77,10.13 83.52,10.14 84.27,10.16 85.02,10.17 85.77,10.17 86.52,10.18 87.26,10.18 88.01,10.19 88.76,10.19 89.51,10.19 90.26,10.19 91.01,10.19 91.76,10.19 92.51,10.19 93.26,10.19 94.01,10.19 94.76,10.19 95.5,10.19 " class="primitive"/>
          </g>
          <g transform="translate(96.8,88.61)" id="img-1acbd0c5-39" stroke-dasharray="none" stroke="#B23AEE" class="color_Area_3">
            <path fill="none" d="M-96.33,10.11 L-95.57,10.11 -94.82,10.1 -94.06,10.1 -93.3,10.1 -92.55,10.09 -91.79,10.08 -91.04,10.07 -90.28,10.05 -89.53,10.02 -88.77,9.97 -88.02,9.91 -87.26,9.81 -86.51,9.68 -85.75,9.5 -84.99,9.26 -84.24,8.95 -83.48,8.55 -82.73,8.05 -81.97,7.43 -81.22,6.68 -80.46,5.8 -79.71,4.77 -78.95,3.61 -78.19,2.31 -77.44,0.9 -76.68,-0.62 -75.93,-2.21 -75.17,-3.84 -74.42,-5.49 -73.66,-7.12 -72.91,-8.7 -72.15,-10.2 -71.4,-11.6 -70.64,-12.87 -69.88,-14.01 -69.13,-15.01 -68.37,-15.86 -67.62,-16.57 -66.86,-17.14 -66.11,-17.59 -65.35,-17.93 -64.6,-18.16 -63.84,-18.31 -63.08,-18.39 -62.33,-18.41 -61.57,-18.39 -60.82,-18.34 -60.06,-18.27 -59.31,-18.2 -58.55,-18.13 -57.8,-18.07 -57.04,-18.03 -56.28,-18.02 -55.53,-18.04 -54.77,-18.09 -54.02,-18.16 -53.26,-18.25 -52.51,-18.36 -51.75,-18.47 -51,-18.57 -50.24,-18.66 -49.49,-18.73 -48.73,-18.77 -47.97,-18.77 -47.22,-18.74 -46.46,-18.66 -45.71,-18.55 -44.95,-18.39 -44.2,-18.2 -43.44,-17.99 -42.69,-17.75 -41.93,-17.51 -41.17,-17.27 -40.42,-17.03 -39.66,-16.81 -38.91,-16.62 -38.15,-16.46 -37.4,-16.33 -36.64,-16.25 -35.89,-16.2 -35.13,-16.19 -34.38,-16.21 -33.62,-16.26 -32.86,-16.33 -32.11,-16.41 -31.35,-16.5 -30.6,-16.57 -29.84,-16.62 -29.09,-16.64 -28.33,-16.62 -27.58,-16.54 -26.82,-16.41 -26.06,-16.21 -25.31,-15.93 -24.55,-15.59 -23.8,-15.17 -23.04,-14.68 -22.29,-14.12 -21.53,-13.5 -20.78,-12.84 -20.02,-12.12 -19.27,-11.38 -18.51,-10.62 -17.75,-9.85 -17,-9.08 -16.24,-8.32 -15.49,-7.58 -14.73,-6.87 -13.98,-6.18 -13.22,-5.52 -12.47,-4.89 -11.71,-4.29 -10.95,-3.72 -10.2,-3.17 -9.44,-2.64 -8.69,-2.14 -7.93,-1.65 -7.18,-1.18 -6.42,-0.74 -5.67,-0.31 -4.91,0.09 -4.16,0.47 -3.4,0.82 -2.64,1.15 -1.89,1.46 -1.13,1.75 -0.38,2.01 0.38,2.26 1.13,2.5 1.89,2.73 2.64,2.95 3.4,3.17 4.16,3.38 4.91,3.6 5.67,3.82 6.42,4.04 7.18,4.26 7.93,4.48 8.69,4.71 9.44,4.93 10.2,5.14 10.95,5.34 11.71,5.53 12.47,5.71 13.22,5.87 13.98,6.02 14.73,6.15 15.49,6.28 16.24,6.39 17,6.49 17.75,6.58 18.51,6.67 19.27,6.76 20.02,6.85 20.78,6.94 21.53,7.03 22.29,7.13 23.04,7.23 23.8,7.33 24.55,7.44 25.31,7.55 26.06,7.65 26.82,7.76 27.58,7.87 28.33,7.97 29.09,8.08 29.84,8.18 30.6,8.28 31.35,8.37 32.11,8.46 32.86,8.55 33.62,8.63 34.38,8.7 35.13,8.77 35.89,8.84 36.64,8.91 37.4,8.97 38.15,9.03 38.91,9.09 39.66,9.15 40.42,9.22 41.17,9.28 41.93,9.34 42.69,9.41 43.44,9.47 44.2,9.52 44.95,9.58 45.71,9.62 46.46,9.67 47.22,9.7 47.97,9.73 48.73,9.76 49.49,9.78 50.24,9.79 51,9.79 51.75,9.8 52.51,9.8 53.26,9.79 54.02,9.79 54.77,9.78 55.53,9.77 56.28,9.76 57.04,9.75 57.8,9.74 58.55,9.73 59.31,9.72 60.06,9.72 60.82,9.72 61.57,9.71 62.33,9.72 63.08,9.72 63.84,9.72 64.6,9.73 65.35,9.74 66.11,9.75 66.86,9.75 67.62,9.76 68.37,9.76 69.13,9.76 69.88,9.76 70.64,9.77 71.4,9.76 72.15,9.77 72.91,9.77 73.66,9.77 74.42,9.78 75.17,9.79 75.93,9.8 76.68,9.82 77.44,9.84 78.19,9.87 78.95,9.89 79.71,9.92 80.46,9.94 81.22,9.97 81.97,9.99 82.73,10.01 83.48,10.03 84.24,10.05 84.99,10.06 85.75,10.07 86.51,10.08 87.26,10.09 88.02,10.09 88.77,10.1 89.53,10.1 90.28,10.1 91.04,10.1 91.79,10.1 92.55,10.11 93.3,10.11 94.06,10.11 94.82,10.11 95.57,10.11 96.33,10.11 " class="primitive"/>
          </g>
          <g transform="translate(58.5,78.62)" id="img-1acbd0c5-40" stroke-dasharray="none" stroke="#4169E1" class="color_Area_2:_2x2">
            <path fill="none" d="M-48.45,20.09 L-48.07,20.09 -47.69,20.09 -47.31,20.09 -46.93,20.08 -46.55,20.07 -46.17,20.06 -45.79,20.04 -45.41,20.01 -45.03,19.97 -44.65,19.91 -44.27,19.82 -43.89,19.7 -43.51,19.52 -43.13,19.29 -42.75,18.99 -42.37,18.58 -41.99,18.07 -41.61,17.41 -41.23,16.6 -40.85,15.6 -40.47,14.4 -40.09,12.98 -39.71,11.33 -39.33,9.45 -38.95,7.33 -38.57,4.98 -38.19,2.43 -37.81,-0.3 -37.43,-3.17 -37.05,-6.14 -36.67,-9.16 -36.29,-12.19 -35.91,-15.18 -35.53,-18.07 -35.15,-20.84 -34.77,-23.44 -34.39,-25.85 -34.01,-28.04 -33.63,-30.01 -33.25,-31.76 -32.87,-33.28 -32.49,-34.6 -32.11,-35.71 -31.73,-36.65 -31.35,-37.43 -30.97,-38.06 -30.59,-38.58 -30.21,-38.99 -29.83,-39.32 -29.45,-39.59 -29.07,-39.79 -28.69,-39.96 -28.31,-40.09 -27.93,-40.2 -27.55,-40.29 -27.17,-40.37 -26.79,-40.43 -26.41,-40.47 -26.03,-40.51 -25.65,-40.52 -25.27,-40.5 -24.89,-40.46 -24.51,-40.37 -24.13,-40.25 -23.75,-40.08 -23.37,-39.86 -22.99,-39.58 -22.61,-39.25 -22.23,-38.86 -21.85,-38.43 -21.47,-37.96 -21.09,-37.46 -20.71,-36.93 -20.33,-36.4 -19.95,-35.87 -19.57,-35.37 -19.19,-34.89 -18.81,-34.45 -18.43,-34.06 -18.05,-33.72 -17.67,-33.43 -17.29,-33.19 -16.91,-33 -16.53,-32.84 -16.15,-32.71 -15.77,-32.59 -15.39,-32.46 -15.01,-32.32 -14.63,-32.14 -14.25,-31.92 -13.87,-31.64 -13.49,-31.3 -13.11,-30.89 -12.73,-30.41 -12.35,-29.84 -11.97,-29.2 -11.59,-28.48 -11.21,-27.69 -10.83,-26.82 -10.45,-25.89 -10.07,-24.89 -9.69,-23.82 -9.31,-22.71 -8.93,-21.54 -8.55,-20.34 -8.17,-19.1 -7.79,-17.85 -7.41,-16.57 -7.03,-15.3 -6.65,-14.03 -6.27,-12.77 -5.89,-11.54 -5.51,-10.33 -5.13,-9.14 -4.75,-7.99 -4.37,-6.88 -3.99,-5.8 -3.61,-4.76 -3.23,-3.75 -2.85,-2.79 -2.47,-1.86 -2.09,-0.97 -1.71,-0.11 -1.33,0.7 -0.95,1.48 -0.57,2.23 -0.19,2.93 0.19,3.6 0.57,4.23 0.95,4.83 1.33,5.38 1.71,5.9 2.09,6.37 2.47,6.81 2.85,7.21 3.23,7.58 3.61,7.91 3.99,8.21 4.37,8.48 4.75,8.74 5.13,8.98 5.51,9.22 5.89,9.46 6.27,9.7 6.65,9.96 7.03,10.23 7.41,10.51 7.79,10.81 8.17,11.13 8.55,11.47 8.93,11.82 9.31,12.18 9.69,12.56 10.07,12.95 10.45,13.34 10.83,13.74 11.21,14.15 11.59,14.56 11.97,14.98 12.35,15.4 12.73,15.81 13.11,16.22 13.49,16.62 13.87,17.01 14.25,17.39 14.63,17.74 15.01,18.07 15.39,18.37 15.77,18.65 16.15,18.89 16.53,19.1 16.91,19.29 17.29,19.44 17.67,19.57 18.05,19.67 18.43,19.75 18.81,19.8 19.19,19.84 19.57,19.86 19.95,19.86 20.33,19.85 20.71,19.83 21.09,19.79 21.47,19.75 21.85,19.71 22.23,19.66 22.61,19.6 22.99,19.55 23.37,19.5 23.75,19.46 24.13,19.42 24.51,19.4 24.89,19.38 25.27,19.38 25.65,19.39 26.03,19.4 26.41,19.43 26.79,19.47 27.17,19.51 27.55,19.56 27.93,19.61 28.31,19.66 28.69,19.71 29.07,19.75 29.45,19.78 29.83,19.81 30.21,19.83 30.59,19.83 30.97,19.83 31.35,19.82 31.73,19.79 32.11,19.76 32.49,19.73 32.87,19.68 33.25,19.64 33.63,19.59 34.01,19.54 34.39,19.5 34.77,19.46 35.15,19.43 35.53,19.4 35.91,19.39 36.29,19.39 36.67,19.4 37.05,19.42 37.43,19.45 37.81,19.49 38.19,19.54 38.57,19.59 38.95,19.64 39.33,19.69 39.71,19.75 40.09,19.8 40.47,19.85 40.85,19.89 41.23,19.93 41.61,19.96 41.99,19.99 42.37,20.01 42.75,20.03 43.13,20.05 43.51,20.06 43.89,20.07 44.27,20.08 44.65,20.08 45.03,20.09 45.41,20.09 45.79,20.09 46.17,20.09 46.55,20.09 46.93,20.09 47.31,20.09 47.69,20.09 48.07,20.09 48.45,20.09 " class="primitive"/>
          </g>
          <g transform="translate(141.09,91.47)" id="img-1acbd0c5-41" stroke-dasharray="none" stroke="#00CD66" class="color_Area_4">
            <path fill="none" d="M-134.45,7.24 L-133.39,7.24 -132.34,7.23 -131.29,7.21 -130.23,7.15 -129.18,7.04 -128.12,6.8 -127.07,6.35 -126.01,5.55 -124.96,4.25 -123.9,2.27 -122.85,-0.51 -121.8,-4.11 -120.74,-8.46 -119.69,-13.32 -118.63,-18.36 -117.58,-23.21 -116.52,-27.55 -115.47,-31.16 -114.41,-33.97 -113.36,-36 -112.3,-37.38 -111.25,-38.25 -110.2,-38.75 -109.14,-38.97 -108.09,-38.98 -107.03,-38.79 -105.98,-38.44 -104.92,-37.94 -103.87,-37.36 -102.81,-36.78 -101.76,-36.3 -100.71,-36.01 -99.65,-35.94 -98.6,-36.09 -97.54,-36.39 -96.49,-36.75 -95.43,-37.04 -94.38,-37.17 -93.32,-37.06 -92.27,-36.65 -91.21,-35.92 -90.16,-34.87 -89.11,-33.5 -88.05,-31.83 -87,-29.89 -85.94,-27.73 -84.89,-25.41 -83.83,-23.01 -82.78,-20.59 -81.72,-18.23 -80.67,-15.97 -79.62,-13.88 -78.56,-11.99 -77.51,-10.34 -76.45,-8.94 -75.4,-7.79 -74.34,-6.86 -73.29,-6.08 -72.23,-5.38 -71.18,-4.69 -70.12,-3.96 -69.07,-3.18 -68.02,-2.37 -66.96,-1.55 -65.91,-0.79 -64.85,-0.12 -63.8,0.43 -62.74,0.86 -61.69,1.21 -60.63,1.49 -59.58,1.76 -58.53,2.03 -57.47,2.35 -56.42,2.72 -55.36,3.16 -54.31,3.63 -53.25,4.13 -52.2,4.61 -51.14,5.06 -50.09,5.45 -49.03,5.76 -47.98,5.99 -46.93,6.15 -45.87,6.24 -44.82,6.28 -43.76,6.28 -42.71,6.27 -41.65,6.25 -40.6,6.24 -39.54,6.26 -38.49,6.31 -37.43,6.4 -36.38,6.52 -35.33,6.66 -34.27,6.79 -33.22,6.89 -32.16,6.96 -31.11,6.99 -30.05,6.97 -29,6.93 -27.94,6.85 -26.89,6.78 -25.84,6.71 -24.78,6.66 -23.73,6.65 -22.67,6.66 -21.62,6.7 -20.56,6.74 -19.51,6.77 -18.45,6.76 -17.4,6.72 -16.34,6.64 -15.29,6.53 -14.24,6.41 -13.18,6.31 -12.13,6.24 -11.07,6.2 -10.02,6.21 -8.96,6.25 -7.91,6.31 -6.85,6.36 -5.8,6.41 -4.75,6.44 -3.69,6.46 -2.64,6.47 -1.58,6.48 -0.53,6.5 0.53,6.54 1.58,6.61 2.64,6.7 3.69,6.79 4.75,6.88 5.8,6.95 6.85,7 7.91,7.02 8.96,7.02 10.02,7.01 11.07,7.01 12.13,7.02 13.18,7.03 14.24,7.04 15.29,7.05 16.34,7.04 17.4,7.02 18.45,6.97 19.51,6.92 20.56,6.86 21.62,6.82 22.67,6.81 23.73,6.82 24.78,6.87 25.84,6.94 26.89,7.01 27.94,7.08 29,7.14 30.05,7.18 31.11,7.21 32.16,7.22 33.22,7.23 34.27,7.24 35.33,7.24 36.38,7.24 37.43,7.24 38.49,7.24 39.54,7.24 40.6,7.24 41.65,7.24 42.71,7.24 43.76,7.24 44.82,7.24 45.87,7.24 46.93,7.24 47.98,7.24 49.03,7.24 50.09,7.24 51.14,7.24 52.2,7.24 53.25,7.24 54.31,7.24 55.36,7.24 56.42,7.24 57.47,7.24 58.53,7.24 59.58,7.24 60.63,7.24 61.69,7.24 62.74,7.24 63.8,7.24 64.85,7.24 65.91,7.24 66.96,7.24 68.02,7.24 69.07,7.24 70.12,7.24 71.18,7.24 72.23,7.24 73.29,7.24 74.34,7.24 75.4,7.24 76.45,7.24 77.51,7.24 78.56,7.24 79.62,7.24 80.67,7.24 81.72,7.24 82.78,7.24 83.83,7.24 84.89,7.24 85.94,7.24 87,7.24 88.05,7.24 89.11,7.24 90.16,7.24 91.21,7.24 92.27,7.24 93.32,7.24 94.38,7.24 95.43,7.24 96.49,7.24 97.54,7.24 98.6,7.24 99.65,7.24 100.71,7.24 101.76,7.24 102.81,7.24 103.87,7.24 104.92,7.24 105.98,7.24 107.03,7.24 108.09,7.24 109.14,7.24 110.2,7.23 111.25,7.22 112.3,7.21 113.36,7.18 114.41,7.15 115.47,7.12 116.52,7.08 117.58,7.05 118.63,7.03 119.69,7.03 120.74,7.04 121.8,7.06 122.85,7.1 123.9,7.13 124.96,7.17 126.01,7.19 127.07,7.21 128.12,7.23 129.18,7.23 130.23,7.24 131.29,7.24 132.34,7.24 133.39,7.24 134.45,7.24 " class="primitive"/>
          </g>
          <g transform="translate(60.21,78.66)" id="img-1acbd0c5-42" stroke-dasharray="none" stroke="#404040" class="color_Area_2:_4x4">
            <path fill="none" d="M-48.53,20.06 L-48.15,20.06 -47.77,20.05 -47.39,20.05 -47.01,20.04 -46.63,20.02 -46.25,19.99 -45.87,19.95 -45.49,19.88 -45.11,19.77 -44.73,19.61 -44.35,19.37 -43.97,19.03 -43.58,18.56 -43.2,17.92 -42.82,17.06 -42.44,15.95 -42.06,14.52 -41.68,12.76 -41.3,10.61 -40.92,8.05 -40.54,5.08 -40.16,1.7 -39.78,-2.05 -39.4,-6.12 -39.02,-10.45 -38.64,-14.94 -38.26,-19.51 -37.87,-24.05 -37.49,-28.46 -37.11,-32.66 -36.73,-36.58 -36.35,-40.16 -35.97,-43.37 -35.59,-46.19 -35.21,-48.62 -34.83,-50.68 -34.45,-52.4 -34.07,-53.81 -33.69,-54.95 -33.31,-55.87 -32.93,-56.59 -32.55,-57.15 -32.17,-57.58 -31.78,-57.91 -31.4,-58.15 -31.02,-58.34 -30.64,-58.48 -30.26,-58.58 -29.88,-58.67 -29.5,-58.74 -29.12,-58.81 -28.74,-58.88 -28.36,-58.94 -27.98,-59 -27.6,-59.03 -27.22,-59.04 -26.84,-58.99 -26.46,-58.88 -26.07,-58.69 -25.69,-58.39 -25.31,-57.97 -24.93,-57.41 -24.55,-56.72 -24.17,-55.86 -23.79,-54.86 -23.41,-53.72 -23.03,-52.43 -22.65,-51.03 -22.27,-49.54 -21.89,-47.97 -21.51,-46.35 -21.13,-44.72 -20.75,-43.08 -20.36,-41.47 -19.98,-39.89 -19.6,-38.36 -19.22,-36.88 -18.84,-35.45 -18.46,-34.05 -18.08,-32.68 -17.7,-31.32 -17.32,-29.95 -16.94,-28.55 -16.56,-27.12 -16.18,-25.63 -15.8,-24.08 -15.42,-22.47 -15.04,-20.8 -14.66,-19.07 -14.27,-17.3 -13.89,-15.49 -13.51,-13.67 -13.13,-11.85 -12.75,-10.05 -12.37,-8.29 -11.99,-6.59 -11.61,-4.97 -11.23,-3.44 -10.85,-2.02 -10.47,-0.71 -10.09,0.48 -9.71,1.55 -9.33,2.52 -8.95,3.38 -8.56,4.15 -8.18,4.86 -7.8,5.52 -7.42,6.15 -7.04,6.77 -6.66,7.4 -6.28,8.03 -5.9,8.68 -5.52,9.35 -5.14,10.02 -4.76,10.69 -4.38,11.35 -4,11.99 -3.62,12.59 -3.24,13.15 -2.85,13.66 -2.47,14.12 -2.09,14.53 -1.71,14.9 -1.33,15.22 -0.95,15.5 -0.57,15.74 -0.19,15.96 0.19,16.13 0.57,16.28 0.95,16.39 1.33,16.47 1.71,16.5 2.09,16.51 2.47,16.48 2.85,16.42 3.24,16.34 3.62,16.25 4,16.17 4.38,16.09 4.76,16.03 5.14,15.99 5.52,15.99 5.9,16.01 6.28,16.07 6.66,16.16 7.04,16.27 7.42,16.4 7.8,16.54 8.18,16.7 8.56,16.86 8.95,17.03 9.33,17.19 9.71,17.35 10.09,17.51 10.47,17.67 10.85,17.83 11.23,17.98 11.61,18.13 11.99,18.28 12.37,18.42 12.75,18.56 13.13,18.68 13.51,18.8 13.89,18.9 14.27,18.99 14.66,19.07 15.04,19.13 15.42,19.19 15.8,19.24 16.18,19.28 16.56,19.32 16.94,19.36 17.32,19.4 17.7,19.45 18.08,19.49 18.46,19.54 18.84,19.58 19.22,19.62 19.6,19.65 19.98,19.67 20.36,19.68 20.75,19.68 21.13,19.67 21.51,19.65 21.89,19.63 22.27,19.6 22.65,19.56 23.03,19.53 23.41,19.5 23.79,19.48 24.17,19.47 24.55,19.46 24.93,19.46 25.31,19.47 25.69,19.47 26.07,19.47 26.46,19.47 26.84,19.46 27.22,19.44 27.6,19.4 27.98,19.36 28.36,19.3 28.74,19.24 29.12,19.18 29.5,19.11 29.88,19.06 30.26,19.02 30.64,18.99 31.02,18.98 31.4,18.99 31.78,19.02 32.17,19.07 32.55,19.13 32.93,19.2 33.31,19.27 33.69,19.34 34.07,19.41 34.45,19.47 34.83,19.51 35.21,19.54 35.59,19.56 35.97,19.56 36.35,19.56 36.73,19.54 37.11,19.53 37.49,19.51 37.87,19.5 38.26,19.49 38.64,19.49 39.02,19.51 39.4,19.53 39.78,19.56 40.16,19.61 40.54,19.65 40.92,19.7 41.3,19.76 41.68,19.81 42.06,19.85 42.44,19.89 42.82,19.93 43.2,19.96 43.58,19.99 43.97,20.01 44.35,20.02 44.73,20.03 45.11,20.04 45.49,20.05 45.87,20.05 46.25,20.05 46.63,20.06 47.01,20.06 47.39,20.06 47.77,20.06 48.15,20.06 48.53,20.06 " class="primitive"/>
          </g>
        </g>
      </g>
    </g>
  </g>
  <g class="guide ylabels" font-size="2.82" font-family="'PT Sans Caption','Helvetica Neue','Helvetica',sans-serif" fill="#6C606B" id="img-1acbd0c5-43">
    <g transform="translate(18.63,98.71)" id="img-1acbd0c5-44">
      <g class="primitive">
        <text text-anchor="end" dy="0.35em">0</text>
      </g>
    </g>
    <g transform="translate(18.63,75.79)" id="img-1acbd0c5-45">
      <g class="primitive">
        <text text-anchor="end" dy="0.35em">50</text>
      </g>
    </g>
    <g transform="translate(18.63,52.86)" id="img-1acbd0c5-46">
      <g class="primitive">
        <text text-anchor="end" dy="0.35em">100</text>
      </g>
    </g>
    <g transform="translate(18.63,29.93)" id="img-1acbd0c5-47">
      <g class="primitive">
        <text text-anchor="end" dy="0.35em">150</text>
      </g>
    </g>
    <g transform="translate(18.63,7)" id="img-1acbd0c5-48">
      <g class="primitive">
        <text text-anchor="end" dy="0.35em">200</text>
      </g>
    </g>
  </g>
  <g font-size="3.88" font-family="'PT Sans','Helvetica Neue','Helvetica',sans-serif" fill="#564A55" stroke="#000000" stroke-opacity="0.000" id="img-1acbd0c5-49">
    <g transform="translate(8.81,50.86)" id="img-1acbd0c5-50">
      <g class="primitive">
        <text text-anchor="middle" dy="0.35em" transform="rotate(-90,0, 2)">Density</text>
      </g>
    </g>
  </g>
</g>
<defs>
  <clipPath id="img-1acbd0c5-19">
    <path d="M19.63,5 L277.54,5 277.54,100.72 19.63,100.72 " />
  </clipPath>
</defs>
</svg>
