<?xml version="1.0" encoding="UTF-8"?>
<svg xmlns="http://www.w3.org/2000/svg"
     xmlns:xlink="http://www.w3.org/1999/xlink"
     xmlns:gadfly="http://www.gadflyjl.org/ns"
     version="1.2"
     width="200mm" height="120mm" viewBox="0 0 200 120"
     stroke="none"
     fill="#000000"
     stroke-width="0.3"
     font-size="3.88"
>
<defs>
  <marker id="arrow" markerWidth="15" markerHeight="7" refX="5" refY="3.5" orient="auto" markerUnits="strokeWidth">
    <path d="M0,0 L15,3.5 L0,7 z" stroke="context-stroke" fill="context-stroke"/>
  </marker>
</defs>
<g class="plotroot xscalable yscalable" id="img-7c4ea377-1">
  <g font-size="3.53" font-family="CMU Serif" fill="#564A55" stroke="#000000" stroke-opacity="0.000" id="img-7c4ea377-2">
    <g transform="translate(101.79,108.71)">
      <g class="primitive">
        <text text-anchor="middle" dy="0.6em">Proper Motion Declination (mas/yr)</text>
      </g>
    </g>
  </g>
  <g class="guide xlabels" font-size="3.53" font-family="CMU Serif" fill="#6C606B" id="img-7c4ea377-3">
    <g transform="translate(25.11,101.42)">
      <g class="primitive">
        <text text-anchor="middle" dy="0.6em">-500</text>
      </g>
    </g>
    <g transform="translate(63.45,101.42)">
      <g class="primitive">
        <text text-anchor="middle" dy="0.6em">0</text>
      </g>
    </g>
    <g transform="translate(101.79,101.42)">
      <g class="primitive">
        <text text-anchor="middle" dy="0.6em">500</text>
      </g>
    </g>
    <g transform="translate(140.14,101.42)">
      <g class="primitive">
        <text text-anchor="middle" dy="0.6em">1000</text>
      </g>
    </g>
    <g transform="translate(178.48,101.42)">
      <g class="primitive">
        <text text-anchor="middle" dy="0.6em">1500</text>
      </g>
    </g>
  </g>
  <g class="guide colorkey" id="img-7c4ea377-4">
    <g fill="#4C404B" font-size="3.53" font-family="CMU Serif" id="img-7c4ea377-5">
      <g transform="translate(184.62,48.42)" id="img-7c4ea377-6" class="color_Area_1">
        <g class="primitive">
          <text dy="0.35em">Area 1</text>
        </g>
      </g>
      <g transform="translate(184.62,52.71)" id="img-7c4ea377-7" class="color_Area_2">
        <g class="primitive">
          <text dy="0.35em">Area 2</text>
        </g>
      </g>
      <g transform="translate(184.62,57)" id="img-7c4ea377-8" class="color_Area_3">
        <g class="primitive">
          <text dy="0.35em">Area 3</text>
        </g>
      </g>
      <g transform="translate(184.62,61.29)" id="img-7c4ea377-9" class="color_Area_4">
        <g class="primitive">
          <text dy="0.35em">Area 4</text>
        </g>
      </g>
    </g>
    <g fill-opacity="1" id="img-7c4ea377-10">
      <g transform="translate(182.55,48.42)" id="img-7c4ea377-11" stroke="#FFFFFF" class="color_Area_1" fill="#FF6347">
        <path d="M-1.07,-1.07 L1.07,-1.07 1.07,1.07 -1.07,1.07  z" class="primitive"/>
      </g>
      <g transform="translate(182.55,52.71)" id="img-7c4ea377-12" stroke="#FFFFFF" class="color_Area_2" fill="#4169E1">
        <path d="M-1.07,-1.07 L1.07,-1.07 1.07,1.07 -1.07,1.07  z" class="primitive"/>
      </g>
      <g transform="translate(182.55,57)" id="img-7c4ea377-13" stroke="#FFFFFF" class="color_Area_3" fill="#B23AEE">
        <path d="M-1.07,-1.07 L1.07,-1.07 1.07,1.07 -1.07,1.07  z" class="primitive"/>
      </g>
      <g transform="translate(182.55,61.29)" id="img-7c4ea377-14" stroke="#FFFFFF" class="color_Area_4" fill="#00CD66">
        <path d="M-1.07,-1.07 L1.07,-1.07 1.07,1.07 -1.07,1.07  z" class="primitive"/>
      </g>
    </g>
    <g fill="#362A35" font-size="4.23" font-family="CMU Serif" stroke="#000000" stroke-opacity="0.000" id="img-7c4ea377-15">
      <g transform="translate(181.48,44.1)" id="img-7c4ea377-16">
        <g class="primitive">
          <text dy="-0em">Area</text>
        </g>
      </g>
    </g>
  </g>
  <g clip-path="url(#img-7c4ea377-17)">
    <g id="img-7c4ea377-18">
      <g pointer-events="visible" stroke-width="0.3" fill="#000000" fill-opacity="0.000" stroke="#000000" stroke-opacity="0.000" class="guide background" id="img-7c4ea377-19">
        <g transform="translate(101.79,52.71)" id="img-7c4ea377-20">
          <path d="M-78.69,-47.71 L78.69,-47.71 78.69,47.71 -78.69,47.71  z" class="primitive"/>
        </g>
      </g>
      <g class="guide ygridlines xfixed" stroke-dasharray="0.5,0.5" stroke-width="0.2" stroke="#D0D0E0" id="img-7c4ea377-21">
        <g transform="translate(101.79,98.42)" id="img-7c4ea377-22">
          <path fill="none" d="M-78.69,0 L78.69,0 " class="primitive"/>
        </g>
        <g transform="translate(101.79,67.94)" id="img-7c4ea377-23">
          <path fill="none" d="M-78.69,0 L78.69,0 " class="primitive"/>
        </g>
        <g transform="translate(101.79,37.47)" id="img-7c4ea377-24">
          <path fill="none" d="M-78.69,0 L78.69,0 " class="primitive"/>
        </g>
        <g transform="translate(101.79,7)" id="img-7c4ea377-25">
          <path fill="none" d="M-78.69,0 L78.69,0 " class="primitive"/>
        </g>
      </g>
      <g class="guide xgridlines yfixed" stroke-dasharray="0.5,0.5" stroke-width="0.2" stroke="#D0D0E0" id="img-7c4ea377-26">
        <g transform="translate(25.11,52.71)" id="img-7c4ea377-27">
          <path fill="none" d="M0,-47.71 L0,47.71 " class="primitive"/>
        </g>
        <g transform="translate(63.45,52.71)" id="img-7c4ea377-28">
          <path fill="none" d="M0,-47.71 L0,47.71 " class="primitive"/>
        </g>
        <g transform="translate(101.79,52.71)" id="img-7c4ea377-29">
          <path fill="none" d="M0,-47.71 L0,47.71 " class="primitive"/>
        </g>
        <g transform="translate(140.14,52.71)" id="img-7c4ea377-30">
          <path fill="none" d="M0,-47.71 L0,47.71 " class="primitive"/>
        </g>
        <g transform="translate(178.48,52.71)" id="img-7c4ea377-31">
          <path fill="none" d="M0,-47.71 L0,47.71 " class="primitive"/>
        </g>
      </g>
      <g class="plotpanel" id="img-7c4ea377-32">
        <metadata>
          <boundingbox value="23.10833333333332mm 5.0mm 157.37083333333334mm 95.41666666666667mm"/>
          <unitbox value="-526.0805781194816 0.0153281677301732 2052.1611562389635 -0.015656335460346397"/>
        </metadata>
        <g stroke-width="0.3" fill="#000000" fill-opacity="0.000" class="geometry" id="img-7c4ea377-33">
          <g transform="translate(113.2,94.16)" id="img-7c4ea377-34" stroke-dasharray="none" stroke="#FF6347" class="color_Area_1">
            <path fill="none" d="M-54.72,4.25 L-54.29,4.25 -53.87,4.24 -53.44,4.21 -53.01,4.14 -52.58,3.94 -52.15,3.49 -51.72,2.6 -51.29,1.05 -50.86,-1.35 -50.43,-4.65 -50,-8.64 -49.57,-12.93 -49.14,-16.99 -48.72,-20.41 -48.29,-22.94 -47.86,-24.6 -47.43,-25.57 -47,-26.07 -46.57,-26.3 -46.14,-26.39 -45.71,-26.42 -45.28,-26.43 -44.85,-26.43 -44.42,-26.42 -43.99,-26.41 -43.56,-26.38 -43.14,-26.33 -42.71,-26.25 -42.28,-26.1 -41.85,-25.84 -41.42,-25.43 -40.99,-24.83 -40.56,-24.01 -40.13,-22.99 -39.7,-21.81 -39.27,-20.53 -38.84,-19.2 -38.41,-17.87 -37.99,-16.57 -37.56,-15.34 -37.13,-14.18 -36.7,-13.07 -36.27,-11.99 -35.84,-10.91 -35.41,-9.84 -34.98,-8.78 -34.55,-7.76 -34.12,-6.8 -33.69,-5.93 -33.26,-5.14 -32.83,-4.44 -32.41,-3.81 -31.98,-3.24 -31.55,-2.7 -31.12,-2.2 -30.69,-1.73 -30.26,-1.28 -29.83,-0.87 -29.4,-0.51 -28.97,-0.19 -28.54,0.11 -28.11,0.4 -27.68,0.71 -27.25,1.01 -26.83,1.29 -26.4,1.54 -25.97,1.75 -25.54,1.92 -25.11,2.08 -24.68,2.24 -24.25,2.41 -23.82,2.56 -23.39,2.7 -22.96,2.8 -22.53,2.89 -22.1,2.95 -21.68,3.01 -21.25,3.07 -20.82,3.15 -20.39,3.24 -19.96,3.35 -19.53,3.48 -19.1,3.63 -18.67,3.76 -18.24,3.87 -17.81,3.95 -17.38,4 -16.95,4.03 -16.52,4.05 -16.1,4.07 -15.67,4.1 -15.24,4.11 -14.81,4.1 -14.38,4.07 -13.95,4.01 -13.52,3.94 -13.09,3.86 -12.66,3.81 -12.23,3.78 -11.8,3.78 -11.37,3.81 -10.94,3.85 -10.52,3.9 -10.09,3.95 -9.66,4 -9.23,4.04 -8.8,4.06 -8.37,4.08 -7.94,4.08 -7.51,4.08 -7.08,4.08 -6.65,4.09 -6.22,4.12 -5.79,4.15 -5.37,4.18 -4.94,4.21 -4.51,4.23 -4.08,4.24 -3.65,4.23 -3.22,4.23 -2.79,4.21 -2.36,4.2 -1.93,4.18 -1.5,4.18 -1.07,4.18 -0.64,4.19 -0.21,4.2 0.21,4.22 0.64,4.23 1.07,4.23 1.5,4.22 1.93,4.19 2.36,4.16 2.79,4.13 3.22,4.1 3.65,4.08 4.08,4.07 4.51,4.08 4.94,4.09 5.37,4.12 5.79,4.14 6.22,4.17 6.65,4.2 7.08,4.22 7.51,4.23 7.94,4.24 8.37,4.25 8.8,4.25 9.23,4.25 9.66,4.25 10.09,4.25 10.52,4.25 10.94,4.25 11.37,4.25 11.8,4.25 12.23,4.25 12.66,4.25 13.09,4.25 13.52,4.25 13.95,4.25 14.38,4.25 14.81,4.25 15.24,4.25 15.67,4.24 16.1,4.23 16.52,4.21 16.95,4.2 17.38,4.18 17.81,4.18 18.24,4.18 18.67,4.19 19.1,4.2 19.53,4.22 19.96,4.23 20.39,4.24 20.82,4.25 21.25,4.24 21.68,4.24 22.1,4.23 22.53,4.21 22.96,4.2 23.39,4.18 23.82,4.18 24.25,4.18 24.68,4.19 25.11,4.21 25.54,4.22 25.97,4.23 26.4,4.24 26.83,4.25 27.25,4.25 27.68,4.25 28.11,4.25 28.54,4.25 28.97,4.25 29.4,4.25 29.83,4.25 30.26,4.25 30.69,4.25 31.12,4.25 31.55,4.25 31.98,4.25 32.41,4.25 32.83,4.25 33.26,4.25 33.69,4.25 34.12,4.25 34.55,4.25 34.98,4.25 35.41,4.25 35.84,4.25 36.27,4.25 36.7,4.25 37.13,4.25 37.56,4.25 37.99,4.25 38.41,4.25 38.84,4.25 39.27,4.25 39.7,4.25 40.13,4.25 40.56,4.25 40.99,4.25 41.42,4.25 41.85,4.25 42.28,4.25 42.71,4.25 43.14,4.25 43.56,4.25 43.99,4.25 44.42,4.25 44.85,4.25 45.28,4.25 45.71,4.25 46.14,4.25 46.57,4.25 47,4.25 47.43,4.24 47.86,4.23 48.29,4.22 48.72,4.21 49.14,4.19 49.57,4.18 50,4.18 50.43,4.18 50.86,4.2 51.29,4.21 51.72,4.23 52.15,4.24 52.58,4.25 53.01,4.25 53.44,4.25 53.87,4.25 54.29,4.25 54.72,4.25 " class="primitive"/>
          </g>
          <g transform="translate(110.98,94.07)" id="img-7c4ea377-35" stroke-dasharray="none" stroke="#B23AEE" class="color_Area_3">
            <path fill="none" d="M-53.57,4.35 L-53.15,4.34 -52.73,4.34 -52.31,4.34 -51.89,4.33 -51.47,4.31 -51.05,4.25 -50.63,4.11 -50.21,3.8 -49.79,3.2 -49.37,2.15 -48.95,0.48 -48.53,-1.9 -48.11,-4.95 -47.69,-8.48 -47.27,-12.15 -46.85,-15.59 -46.43,-18.47 -46.01,-20.65 -45.59,-22.13 -45.16,-23.03 -44.74,-23.53 -44.32,-23.77 -43.9,-23.88 -43.48,-23.93 -43.06,-23.94 -42.64,-23.95 -42.22,-23.95 -41.8,-23.94 -41.38,-23.94 -40.96,-23.92 -40.54,-23.89 -40.12,-23.83 -39.7,-23.72 -39.28,-23.54 -38.86,-23.27 -38.44,-22.9 -38.02,-22.4 -37.6,-21.8 -37.18,-21.11 -36.76,-20.33 -36.34,-19.47 -35.92,-18.52 -35.5,-17.46 -35.08,-16.31 -34.66,-15.07 -34.24,-13.77 -33.82,-12.47 -33.4,-11.2 -32.98,-10.01 -32.56,-8.95 -32.14,-8.04 -31.72,-7.28 -31.3,-6.63 -30.88,-6.04 -30.46,-5.46 -30.04,-4.86 -29.62,-4.24 -29.2,-3.63 -28.78,-3.06 -28.36,-2.54 -27.94,-2.1 -27.52,-1.74 -27.1,-1.43 -26.68,-1.13 -26.26,-0.8 -25.84,-0.43 -25.42,-0 -25,0.46 -24.58,0.91 -24.16,1.32 -23.74,1.66 -23.32,1.92 -22.9,2.09 -22.48,2.2 -22.06,2.27 -21.64,2.33 -21.22,2.39 -20.8,2.45 -20.38,2.52 -19.96,2.61 -19.54,2.71 -19.12,2.84 -18.7,2.99 -18.28,3.16 -17.86,3.32 -17.44,3.45 -17.02,3.54 -16.6,3.57 -16.18,3.56 -15.76,3.52 -15.34,3.47 -14.91,3.43 -14.49,3.42 -14.07,3.44 -13.65,3.49 -13.23,3.55 -12.81,3.62 -12.39,3.69 -11.97,3.75 -11.55,3.79 -11.13,3.81 -10.71,3.8 -10.29,3.79 -9.87,3.79 -9.45,3.81 -9.03,3.85 -8.61,3.92 -8.19,4 -7.77,4.08 -7.35,4.15 -6.93,4.2 -6.51,4.23 -6.09,4.25 -5.67,4.25 -5.25,4.25 -4.83,4.25 -4.41,4.24 -3.99,4.22 -3.57,4.19 -3.15,4.16 -2.73,4.14 -2.31,4.12 -1.89,4.1 -1.47,4.09 -1.05,4.06 -0.63,4.02 -0.21,3.98 0.21,3.93 0.63,3.89 1.05,3.86 1.47,3.86 1.89,3.89 2.31,3.94 2.73,4.01 3.15,4.09 3.57,4.16 3.99,4.22 4.41,4.27 4.83,4.29 5.25,4.3 5.67,4.28 6.09,4.25 6.51,4.21 6.93,4.16 7.35,4.12 7.77,4.08 8.19,4.06 8.61,4.06 9.03,4.09 9.45,4.12 9.87,4.17 10.29,4.21 10.71,4.25 11.13,4.29 11.55,4.31 11.97,4.33 12.39,4.34 12.81,4.34 13.23,4.34 13.65,4.34 14.07,4.34 14.49,4.35 14.91,4.35 15.34,4.35 15.76,4.35 16.18,4.35 16.6,4.35 17.02,4.34 17.44,4.34 17.86,4.34 18.28,4.34 18.7,4.34 19.12,4.33 19.54,4.32 19.96,4.3 20.38,4.29 20.8,4.28 21.22,4.28 21.64,4.28 22.06,4.29 22.48,4.3 22.9,4.32 23.32,4.33 23.74,4.34 24.16,4.34 24.58,4.34 25,4.34 25.42,4.34 25.84,4.35 26.26,4.35 26.68,4.35 27.1,4.35 27.52,4.35 27.94,4.35 28.36,4.35 28.78,4.35 29.2,4.35 29.62,4.35 30.04,4.35 30.46,4.35 30.88,4.35 31.3,4.35 31.72,4.35 32.14,4.35 32.56,4.35 32.98,4.35 33.4,4.35 33.82,4.35 34.24,4.35 34.66,4.35 35.08,4.35 35.5,4.35 35.92,4.35 36.34,4.35 36.76,4.35 37.18,4.35 37.6,4.35 38.02,4.34 38.44,4.34 38.86,4.34 39.28,4.34 39.7,4.33 40.12,4.32 40.54,4.31 40.96,4.3 41.38,4.29 41.8,4.28 42.22,4.28 42.64,4.28 43.06,4.3 43.48,4.31 43.9,4.32 44.32,4.33 44.74,4.34 45.16,4.34 45.59,4.34 46.01,4.33 46.43,4.33 46.85,4.32 47.27,4.3 47.69,4.29 48.11,4.28 48.53,4.28 48.95,4.28 49.37,4.29 49.79,4.3 50.21,4.32 50.63,4.33 51.05,4.34 51.47,4.34 51.89,4.34 52.31,4.34 52.73,4.34 53.15,4.35 53.57,4.35 " class="primitive"/>
          </g>
          <g transform="translate(78.76,85.5)" id="img-7c4ea377-36" stroke-dasharray="none" stroke="#4169E1" class="color_Area_2">
            <path fill="none" d="M-18.02,12.92 L-17.88,12.92 -17.74,12.91 -17.59,12.91 -17.45,12.89 -17.31,12.86 -17.17,12.81 -17.03,12.69 -16.89,12.49 -16.75,12.12 -16.6,11.53 -16.46,10.58 -16.32,9.17 -16.18,7.15 -16.04,4.4 -15.9,0.85 -15.76,-3.51 -15.62,-8.62 -15.47,-14.31 -15.33,-20.34 -15.19,-26.4 -15.05,-32.21 -14.91,-37.51 -14.77,-42.09 -14.63,-45.88 -14.48,-48.84 -14.34,-51.05 -14.2,-52.61 -14.06,-53.66 -13.92,-54.34 -13.78,-54.75 -13.64,-54.98 -13.5,-55.11 -13.35,-55.16 -13.21,-55.18 -13.07,-55.16 -12.93,-55.11 -12.79,-55.04 -12.65,-54.93 -12.51,-54.78 -12.37,-54.58 -12.22,-54.32 -12.08,-53.98 -11.94,-53.57 -11.8,-53.06 -11.66,-52.45 -11.52,-51.73 -11.38,-50.9 -11.23,-49.94 -11.09,-48.85 -10.95,-47.62 -10.81,-46.23 -10.67,-44.66 -10.53,-42.9 -10.39,-40.92 -10.25,-38.71 -10.1,-36.29 -9.96,-33.68 -9.82,-30.92 -9.68,-28.09 -9.54,-25.25 -9.4,-22.49 -9.26,-19.86 -9.11,-17.43 -8.97,-15.21 -8.83,-13.23 -8.69,-11.46 -8.55,-9.88 -8.41,-8.46 -8.27,-7.19 -8.13,-6.02 -7.98,-4.95 -7.84,-3.99 -7.7,-3.14 -7.56,-2.43 -7.42,-1.87 -7.28,-1.45 -7.14,-1.15 -7,-0.95 -6.85,-0.78 -6.71,-0.59 -6.57,-0.33 -6.43,0.02 -6.29,0.5 -6.15,1.08 -6.01,1.75 -5.86,2.47 -5.72,3.2 -5.58,3.91 -5.44,4.57 -5.3,5.17 -5.16,5.69 -5.02,6.12 -4.88,6.47 -4.73,6.74 -4.59,6.95 -4.45,7.11 -4.31,7.23 -4.17,7.34 -4.03,7.46 -3.89,7.58 -3.74,7.72 -3.6,7.88 -3.46,8.05 -3.32,8.23 -3.18,8.39 -3.04,8.55 -2.9,8.7 -2.76,8.84 -2.61,8.98 -2.47,9.13 -2.33,9.28 -2.19,9.45 -2.05,9.61 -1.91,9.76 -1.77,9.89 -1.63,9.99 -1.48,10.07 -1.34,10.13 -1.2,10.18 -1.06,10.24 -0.92,10.34 -0.78,10.46 -0.64,10.63 -0.49,10.83 -0.35,11.05 -0.21,11.28 -0.07,11.49 0.07,11.69 0.21,11.85 0.35,11.97 0.49,12.05 0.64,12.09 0.78,12.09 0.92,12.07 1.06,12.03 1.2,11.99 1.34,11.95 1.48,11.93 1.63,11.94 1.77,11.97 1.91,12.02 2.05,12.09 2.19,12.17 2.33,12.22 2.47,12.26 2.61,12.25 2.76,12.22 2.9,12.15 3.04,12.07 3.18,12 3.32,11.94 3.46,11.91 3.6,11.93 3.74,11.99 3.89,12.09 4.03,12.21 4.17,12.34 4.31,12.48 4.45,12.59 4.59,12.69 4.73,12.77 4.88,12.82 5.02,12.86 5.16,12.89 5.3,12.9 5.44,12.91 5.58,12.91 5.72,12.92 5.86,12.92 6.01,12.92 6.15,12.92 6.29,12.92 6.43,12.92 6.57,12.92 6.71,12.92 6.85,12.91 7,12.91 7.14,12.9 7.28,12.89 7.42,12.88 7.56,12.86 7.7,12.83 7.84,12.79 7.98,12.75 8.13,12.7 8.27,12.66 8.41,12.62 8.55,12.6 8.69,12.59 8.83,12.59 8.97,12.61 9.11,12.65 9.26,12.69 9.4,12.73 9.54,12.78 9.68,12.82 9.82,12.85 9.96,12.87 10.1,12.89 10.25,12.9 10.39,12.91 10.53,12.91 10.67,12.92 10.81,12.92 10.95,12.92 11.09,12.92 11.23,12.92 11.38,12.92 11.52,12.92 11.66,12.92 11.8,12.92 11.94,12.92 12.08,12.92 12.22,12.92 12.37,12.92 12.51,12.92 12.65,12.92 12.79,12.92 12.93,12.92 13.07,12.92 13.21,12.92 13.35,12.91 13.5,12.91 13.64,12.89 13.78,12.88 13.92,12.85 14.06,12.8 14.2,12.74 14.34,12.65 14.48,12.54 14.63,12.42 14.77,12.29 14.91,12.16 15.05,12.05 15.19,11.98 15.33,11.94 15.47,11.95 15.62,12.01 15.76,12.1 15.9,12.22 16.04,12.35 16.18,12.48 16.32,12.6 16.46,12.69 16.6,12.77 16.75,12.82 16.89,12.86 17.03,12.88 17.17,12.9 17.31,12.91 17.45,12.91 17.59,12.92 17.74,12.92 17.88,12.92 18.02,12.92 " class="primitive"/>
          </g>
          <g transform="translate(86.51,89.55)" id="img-7c4ea377-37" stroke-dasharray="none" stroke="#00CD66" class="color_Area_4">
            <path fill="none" d="M-26.26,8.86 L-26.06,8.86 -25.85,8.86 -25.65,8.84 -25.44,8.81 -25.23,8.75 -25.03,8.6 -24.82,8.3 -24.62,7.75 -24.41,6.8 -24.2,5.26 -24,2.96 -23.79,-0.25 -23.59,-4.41 -23.38,-9.42 -23.17,-15.04 -22.97,-20.89 -22.76,-26.55 -22.56,-31.65 -22.35,-35.92 -22.14,-39.24 -21.94,-41.64 -21.73,-43.26 -21.53,-44.27 -21.32,-44.85 -21.11,-45.17 -20.91,-45.33 -20.7,-45.4 -20.5,-45.43 -20.29,-45.44 -20.08,-45.43 -19.88,-45.42 -19.67,-45.38 -19.47,-45.31 -19.26,-45.2 -19.05,-45.01 -18.85,-44.72 -18.64,-44.31 -18.44,-43.72 -18.23,-42.94 -18.02,-41.95 -17.82,-40.75 -17.61,-39.35 -17.41,-37.76 -17.2,-36.01 -16.99,-34.11 -16.79,-32.08 -16.58,-29.93 -16.38,-27.68 -16.17,-25.37 -15.96,-23.05 -15.76,-20.79 -15.55,-18.63 -15.35,-16.63 -15.14,-14.83 -14.93,-13.24 -14.73,-11.85 -14.52,-10.67 -14.32,-9.67 -14.11,-8.81 -13.9,-8.05 -13.7,-7.33 -13.49,-6.6 -13.29,-5.81 -13.08,-4.94 -12.87,-3.99 -12.67,-3 -12.46,-2.02 -12.26,-1.09 -12.05,-0.27 -11.84,0.44 -11.64,1.03 -11.43,1.54 -11.23,2 -11.02,2.44 -10.81,2.86 -10.61,3.28 -10.4,3.66 -10.2,4.01 -9.99,4.3 -9.78,4.56 -9.58,4.79 -9.37,5.02 -9.17,5.26 -8.96,5.53 -8.75,5.82 -8.55,6.13 -8.34,6.44 -8.14,6.74 -7.93,7 -7.72,7.22 -7.52,7.37 -7.31,7.47 -7.11,7.51 -6.9,7.51 -6.69,7.49 -6.49,7.46 -6.28,7.44 -6.08,7.45 -5.87,7.49 -5.66,7.56 -5.46,7.63 -5.25,7.7 -5.05,7.75 -4.84,7.77 -4.63,7.75 -4.43,7.72 -4.22,7.67 -4.02,7.63 -3.81,7.62 -3.6,7.63 -3.4,7.68 -3.19,7.76 -2.99,7.85 -2.78,7.94 -2.57,8.03 -2.37,8.1 -2.16,8.14 -1.96,8.17 -1.75,8.19 -1.54,8.18 -1.34,8.16 -1.13,8.12 -0.93,8.05 -0.72,7.96 -0.51,7.86 -0.31,7.75 -0.1,7.65 0.1,7.56 0.31,7.5 0.51,7.46 0.72,7.46 0.93,7.5 1.13,7.58 1.34,7.69 1.54,7.8 1.75,7.91 1.96,8 2.16,8.05 2.37,8.09 2.57,8.11 2.78,8.13 2.99,8.16 3.19,8.21 3.4,8.27 3.6,8.33 3.81,8.37 4.02,8.41 4.22,8.42 4.43,8.42 4.63,8.42 4.84,8.43 5.05,8.45 5.25,8.49 5.46,8.55 5.66,8.61 5.87,8.66 6.08,8.72 6.28,8.75 6.49,8.77 6.69,8.77 6.9,8.75 7.11,8.71 7.31,8.66 7.52,8.6 7.72,8.54 7.93,8.49 8.14,8.45 8.34,8.45 8.55,8.46 8.75,8.5 8.96,8.55 9.17,8.6 9.37,8.64 9.58,8.67 9.78,8.68 9.99,8.67 10.2,8.66 10.4,8.64 10.61,8.64 10.81,8.65 11.02,8.66 11.23,8.69 11.43,8.73 11.64,8.76 11.84,8.79 12.05,8.8 12.26,8.81 12.46,8.8 12.67,8.78 12.87,8.75 13.08,8.72 13.29,8.69 13.49,8.66 13.7,8.65 13.9,8.65 14.11,8.66 14.32,8.69 14.52,8.73 14.73,8.76 14.93,8.79 15.14,8.82 15.35,8.84 15.55,8.85 15.76,8.85 15.96,8.86 16.17,8.86 16.38,8.86 16.58,8.86 16.79,8.86 16.99,8.85 17.2,8.84 17.41,8.83 17.61,8.81 17.82,8.78 18.02,8.75 18.23,8.71 18.44,8.68 18.64,8.66 18.85,8.64 19.05,8.65 19.26,8.67 19.47,8.7 19.67,8.73 19.88,8.77 20.08,8.8 20.29,8.82 20.5,8.84 20.7,8.85 20.91,8.85 21.11,8.84 21.32,8.83 21.53,8.81 21.73,8.78 21.94,8.73 22.14,8.67 22.35,8.6 22.56,8.53 22.76,8.47 22.97,8.44 23.17,8.43 23.38,8.46 23.59,8.51 23.79,8.57 24,8.64 24.2,8.71 24.41,8.76 24.62,8.8 24.82,8.83 25.03,8.84 25.23,8.85 25.44,8.86 25.65,8.86 25.85,8.86 26.06,8.86 26.26,8.86 " class="primitive"/>
          </g>
        </g>
      </g>
    </g>
  </g>
  <g class="guide ylabels" font-size="3.53" font-family="CMU Serif" fill="#6C606B" id="img-7c4ea377-38">
    <g transform="translate(22.11,98.42)" id="img-7c4ea377-39">
      <g class="primitive">
        <text text-anchor="end" dy="0.35em">0.000</text>
      </g>
    </g>
    <g transform="translate(22.11,67.94)" id="img-7c4ea377-40">
      <g class="primitive">
        <text text-anchor="end" dy="0.35em">0.005</text>
      </g>
    </g>
    <g transform="translate(22.11,37.47)" id="img-7c4ea377-41">
      <g class="primitive">
        <text text-anchor="end" dy="0.35em">0.010</text>
      </g>
    </g>
    <g transform="translate(22.11,7)" id="img-7c4ea377-42">
      <g class="primitive">
        <text text-anchor="end" dy="0.35em">0.015</text>
      </g>
    </g>
  </g>
  <g font-size="3.53" font-family="CMU Serif" fill="#564A55" stroke="#000000" stroke-opacity="0.000" id="img-7c4ea377-43">
    <g transform="translate(8.65,50.71)" id="img-7c4ea377-44">
      <g class="primitive">
        <text text-anchor="middle" dy="0.35em" transform="rotate(-90,0, 2)">Density</text>
      </g>
    </g>
  </g>
</g>
<defs>
  <clipPath id="img-7c4ea377-17">
    <path d="M23.11,5 L180.48,5 180.48,100.42 23.11,100.42 " />
  </clipPath>
</defs>
</svg>
