<?xml version="1.0" encoding="UTF-8"?>
<svg xmlns="http://www.w3.org/2000/svg"
     xmlns:xlink="http://www.w3.org/1999/xlink"
     xmlns:gadfly="http://www.gadflyjl.org/ns"
     version="1.2"
     width="200mm" height="120mm" viewBox="0 0 200 120"
     stroke="none"
     fill="#000000"
     stroke-width="0.3"
     font-size="3.88"
>
<defs>
  <marker id="arrow" markerWidth="15" markerHeight="7" refX="5" refY="3.5" orient="auto" markerUnits="strokeWidth">
    <path d="M0,0 L15,3.5 L0,7 z" stroke="context-stroke" fill="context-stroke"/>
  </marker>
</defs>
<g class="plotroot xscalable yscalable" id="img-094387f6-1">
  <g font-size="3.53" font-family="CMU Serif" fill="#564A55" stroke="#000000" stroke-opacity="0.000" id="img-094387f6-2">
    <g transform="translate(101.79,108.71)">
      <g class="primitive">
        <text text-anchor="middle" dy="0.6em">Proper Motion Right Ascension (mas/yr)</text>
      </g>
    </g>
  </g>
  <g class="guide xlabels" font-size="3.53" font-family="CMU Serif" fill="#6C606B" id="img-094387f6-3">
    <g transform="translate(25.11,101.42)">
      <g class="primitive">
        <text text-anchor="middle" dy="0.6em">-2.00×10³</text>
      </g>
    </g>
    <g transform="translate(63.45,101.42)">
      <g class="primitive">
        <text text-anchor="middle" dy="0.6em">0</text>
      </g>
    </g>
    <g transform="translate(101.79,101.42)">
      <g class="primitive">
        <text text-anchor="middle" dy="0.6em">2.00×10³</text>
      </g>
    </g>
    <g transform="translate(140.14,101.42)">
      <g class="primitive">
        <text text-anchor="middle" dy="0.6em">4.00×10³</text>
      </g>
    </g>
    <g transform="translate(178.48,101.42)">
      <g class="primitive">
        <text text-anchor="middle" dy="0.6em">6.00×10³</text>
      </g>
    </g>
  </g>
  <g class="guide colorkey" id="img-094387f6-4">
    <g fill="#4C404B" font-size="3.53" font-family="CMU Serif" id="img-094387f6-5">
      <g transform="translate(184.62,48.42)" id="img-094387f6-6" class="color_Area_1">
        <g class="primitive">
          <text dy="0.35em">Area 1</text>
        </g>
      </g>
      <g transform="translate(184.62,52.71)" id="img-094387f6-7" class="color_Area_2">
        <g class="primitive">
          <text dy="0.35em">Area 2</text>
        </g>
      </g>
      <g transform="translate(184.62,57)" id="img-094387f6-8" class="color_Area_3">
        <g class="primitive">
          <text dy="0.35em">Area 3</text>
        </g>
      </g>
      <g transform="translate(184.62,61.29)" id="img-094387f6-9" class="color_Area_4">
        <g class="primitive">
          <text dy="0.35em">Area 4</text>
        </g>
      </g>
    </g>
    <g fill-opacity="1" id="img-094387f6-10">
      <g transform="translate(182.55,48.42)" id="img-094387f6-11" stroke="#FFFFFF" class="color_Area_1" fill="#FF6347">
        <path d="M-1.07,-1.07 L1.07,-1.07 1.07,1.07 -1.07,1.07  z" class="primitive"/>
      </g>
      <g transform="translate(182.55,52.71)" id="img-094387f6-12" stroke="#FFFFFF" class="color_Area_2" fill="#4169E1">
        <path d="M-1.07,-1.07 L1.07,-1.07 1.07,1.07 -1.07,1.07  z" class="primitive"/>
      </g>
      <g transform="translate(182.55,57)" id="img-094387f6-13" stroke="#FFFFFF" class="color_Area_3" fill="#B23AEE">
        <path d="M-1.07,-1.07 L1.07,-1.07 1.07,1.07 -1.07,1.07  z" class="primitive"/>
      </g>
      <g transform="translate(182.55,61.29)" id="img-094387f6-14" stroke="#FFFFFF" class="color_Area_4" fill="#00CD66">
        <path d="M-1.07,-1.07 L1.07,-1.07 1.07,1.07 -1.07,1.07  z" class="primitive"/>
      </g>
    </g>
    <g fill="#362A35" font-size="4.23" font-family="CMU Serif" stroke="#000000" stroke-opacity="0.000" id="img-094387f6-15">
      <g transform="translate(181.48,44.1)" id="img-094387f6-16">
        <g class="primitive">
          <text dy="-0em">Area</text>
        </g>
      </g>
    </g>
  </g>
  <g clip-path="url(#img-094387f6-17)">
    <g id="img-094387f6-18">
      <g pointer-events="visible" stroke-width="0.3" fill="#000000" fill-opacity="0.000" stroke="#000000" stroke-opacity="0.000" class="guide background" id="img-094387f6-19">
        <g transform="translate(101.79,52.71)" id="img-094387f6-20">
          <path d="M-78.69,-47.71 L78.69,-47.71 78.69,47.71 -78.69,47.71  z" class="primitive"/>
        </g>
      </g>
      <g class="guide ygridlines xfixed" stroke-dasharray="0.5,0.5" stroke-width="0.2" stroke="#D0D0E0" id="img-094387f6-21">
        <g transform="translate(101.79,98.42)" id="img-094387f6-22">
          <path fill="none" d="M-78.69,0 L78.69,0 " class="primitive"/>
        </g>
        <g transform="translate(101.79,52.71)" id="img-094387f6-23">
          <path fill="none" d="M-78.69,0 L78.69,0 " class="primitive"/>
        </g>
        <g transform="translate(101.79,7)" id="img-094387f6-24">
          <path fill="none" d="M-78.69,0 L78.69,0 " class="primitive"/>
        </g>
      </g>
      <g class="guide xgridlines yfixed" stroke-dasharray="0.5,0.5" stroke-width="0.2" stroke="#D0D0E0" id="img-094387f6-25">
        <g transform="translate(25.11,52.71)" id="img-094387f6-26">
          <path fill="none" d="M0,-47.71 L0,47.71 " class="primitive"/>
        </g>
        <g transform="translate(63.45,52.71)" id="img-094387f6-27">
          <path fill="none" d="M0,-47.71 L0,47.71 " class="primitive"/>
        </g>
        <g transform="translate(101.79,52.71)" id="img-094387f6-28">
          <path fill="none" d="M0,-47.71 L0,47.71 " class="primitive"/>
        </g>
        <g transform="translate(140.14,52.71)" id="img-094387f6-29">
          <path fill="none" d="M0,-47.71 L0,47.71 " class="primitive"/>
        </g>
        <g transform="translate(178.48,52.71)" id="img-094387f6-30">
          <path fill="none" d="M0,-47.71 L0,47.71 " class="primitive"/>
        </g>
      </g>
      <g class="plotpanel" id="img-094387f6-31">
        <metadata>
          <boundingbox value="23.10833333333332mm 5.0mm 157.37083333333334mm 95.41666666666667mm"/>
          <unitbox value="-2104.3223124779265 0.010218778486782133 8208.644624955854 -0.010437556973564266"/>
        </metadata>
        <g stroke-width="0.3" fill="#000000" fill-opacity="0.000" class="geometry" id="img-094387f6-32">
          <g transform="translate(101.77,96.22)" id="img-094387f6-33" stroke-dasharray="none" stroke="#FF6347" class="color_Area_1">
            <path fill="none" d="M-39.74,2.19 L-39.43,2.16 -39.12,1.71 -38.81,-1.12 -38.5,-10.12 -38.19,-23.84 -37.87,-33.82 -37.56,-37.39 -37.25,-38.04 -36.94,-38.09 -36.63,-38.07 -36.31,-37.87 -36,-37.08 -35.69,-35.16 -35.38,-31.94 -35.07,-27.57 -34.76,-22.84 -34.44,-18.88 -34.13,-15.71 -33.82,-12.31 -33.51,-8.56 -33.2,-5.7 -32.89,-4.1 -32.57,-3.15 -32.26,-2.43 -31.95,-1.55 -31.64,-0.76 -31.33,-0.41 -31.02,-0.27 -30.7,-0.01 -30.39,0.51 -30.08,0.94 -29.77,1.14 -29.46,1.32 -29.15,1.5 -28.83,1.6 -28.52,1.72 -28.21,1.79 -27.9,1.74 -27.59,1.58 -27.28,1.31 -26.96,1.13 -26.65,1.19 -26.34,1.46 -26.03,1.74 -25.72,1.92 -25.4,2.03 -25.09,2.08 -24.78,2.12 -24.47,2.13 -24.16,2.11 -23.85,2.1 -23.53,2.08 -23.22,2.03 -22.91,2.05 -22.6,2.13 -22.29,2.18 -21.98,2.18 -21.66,2.14 -21.35,2.05 -21.04,2.03 -20.73,2.11 -20.42,2.17 -20.11,2.19 -19.79,2.2 -19.48,2.2 -19.17,2.2 -18.86,2.2 -18.55,2.19 -18.24,2.18 -17.92,2.13 -17.61,2.1 -17.3,2.12 -16.99,2.12 -16.68,2.09 -16.37,2.09 -16.05,2.07 -15.74,2.05 -15.43,2.08 -15.12,2.14 -14.81,2.18 -14.49,2.19 -14.18,2.2 -13.87,2.2 -13.56,2.2 -13.25,2.2 -12.94,2.2 -12.62,2.2 -12.31,2.2 -12,2.2 -11.69,2.2 -11.38,2.2 -11.07,2.2 -10.75,2.2 -10.44,2.2 -10.13,2.2 -9.82,2.2 -9.51,2.2 -9.2,2.2 -8.88,2.2 -8.57,2.2 -8.26,2.2 -7.95,2.2 -7.64,2.2 -7.33,2.2 -7.01,2.2 -6.7,2.2 -6.39,2.2 -6.08,2.2 -5.77,2.2 -5.46,2.2 -5.14,2.19 -4.83,2.17 -4.52,2.13 -4.21,2.11 -3.9,2.14 -3.58,2.18 -3.27,2.19 -2.96,2.2 -2.65,2.2 -2.34,2.2 -2.03,2.2 -1.71,2.2 -1.4,2.2 -1.09,2.2 -0.78,2.2 -0.47,2.2 -0.16,2.2 0.16,2.2 0.47,2.2 0.78,2.2 1.09,2.2 1.4,2.2 1.71,2.2 2.03,2.2 2.34,2.2 2.65,2.2 2.96,2.2 3.27,2.2 3.58,2.2 3.9,2.2 4.21,2.2 4.52,2.2 4.83,2.2 5.14,2.2 5.46,2.2 5.77,2.2 6.08,2.2 6.39,2.2 6.7,2.2 7.01,2.2 7.33,2.2 7.64,2.2 7.95,2.2 8.26,2.2 8.57,2.2 8.88,2.2 9.2,2.2 9.51,2.2 9.82,2.2 10.13,2.2 10.44,2.2 10.75,2.2 11.07,2.2 11.38,2.2 11.69,2.2 12,2.2 12.31,2.2 12.62,2.2 12.94,2.2 13.25,2.2 13.56,2.2 13.87,2.2 14.18,2.2 14.49,2.2 14.81,2.2 15.12,2.2 15.43,2.2 15.74,2.2 16.05,2.2 16.37,2.2 16.68,2.2 16.99,2.2 17.3,2.2 17.61,2.2 17.92,2.2 18.24,2.2 18.55,2.2 18.86,2.2 19.17,2.2 19.48,2.2 19.79,2.2 20.11,2.2 20.42,2.2 20.73,2.2 21.04,2.2 21.35,2.2 21.66,2.2 21.98,2.2 22.29,2.2 22.6,2.2 22.91,2.2 23.22,2.2 23.53,2.2 23.85,2.2 24.16,2.2 24.47,2.2 24.78,2.2 25.09,2.2 25.4,2.2 25.72,2.2 26.03,2.2 26.34,2.2 26.65,2.2 26.96,2.2 27.28,2.2 27.59,2.2 27.9,2.2 28.21,2.2 28.52,2.2 28.83,2.2 29.15,2.2 29.46,2.2 29.77,2.2 30.08,2.2 30.39,2.2 30.7,2.2 31.02,2.2 31.33,2.2 31.64,2.2 31.95,2.2 32.26,2.2 32.57,2.2 32.89,2.2 33.2,2.2 33.51,2.2 33.82,2.2 34.13,2.2 34.44,2.2 34.76,2.2 35.07,2.2 35.38,2.2 35.69,2.2 36,2.2 36.31,2.2 36.63,2.2 36.94,2.2 37.25,2.2 37.56,2.19 37.87,2.17 38.19,2.13 38.5,2.11 38.81,2.15 39.12,2.18 39.43,2.19 39.74,2.2 " class="primitive"/>
          </g>
          <g transform="translate(117.42,96.85)" id="img-094387f6-34" stroke-dasharray="none" stroke="#B23AEE" class="color_Area_3">
            <path fill="none" d="M-55.78,1.56 L-55.34,1.51 -54.9,0.85 -54.47,-2.68 -54.03,-11.14 -53.59,-20.63 -53.15,-25.45 -52.72,-26.48 -52.28,-26.57 -51.84,-26.57 -51.4,-26.54 -50.97,-26.37 -50.53,-25.74 -50.09,-24.31 -49.65,-21.94 -49.22,-18.89 -48.78,-15.63 -48.34,-12.39 -47.9,-9.45 -47.47,-7.18 -47.03,-5.55 -46.59,-4.39 -46.15,-3.41 -45.72,-2.44 -45.28,-1.6 -44.84,-1 -44.4,-0.56 -43.97,-0.15 -43.53,0.14 -43.09,0.36 -42.65,0.53 -42.22,0.51 -41.78,0.52 -41.34,0.6 -40.9,0.7 -40.47,0.92 -40.03,1.05 -39.59,1.09 -39.15,1.19 -38.72,1.35 -38.28,1.43 -37.84,1.4 -37.4,1.32 -36.97,1.27 -36.53,1.36 -36.09,1.46 -35.65,1.47 -35.22,1.44 -34.78,1.41 -34.34,1.4 -33.9,1.42 -33.47,1.44 -33.03,1.45 -32.59,1.48 -32.15,1.52 -31.72,1.55 -31.28,1.56 -30.84,1.54 -30.4,1.51 -29.97,1.49 -29.53,1.5 -29.09,1.51 -28.65,1.49 -28.22,1.48 -27.78,1.5 -27.34,1.51 -26.9,1.53 -26.47,1.54 -26.03,1.53 -25.59,1.52 -25.15,1.55 -24.72,1.56 -24.28,1.56 -23.84,1.56 -23.4,1.56 -22.97,1.56 -22.53,1.56 -22.09,1.55 -21.65,1.52 -21.22,1.5 -20.78,1.5 -20.34,1.52 -19.9,1.54 -19.47,1.54 -19.03,1.52 -18.59,1.53 -18.16,1.55 -17.72,1.56 -17.28,1.56 -16.84,1.56 -16.41,1.56 -15.97,1.56 -15.53,1.56 -15.09,1.56 -14.66,1.56 -14.22,1.56 -13.78,1.54 -13.34,1.52 -12.91,1.53 -12.47,1.55 -12.03,1.56 -11.59,1.56 -11.16,1.56 -10.72,1.56 -10.28,1.56 -9.84,1.56 -9.41,1.55 -8.97,1.53 -8.53,1.52 -8.09,1.54 -7.66,1.56 -7.22,1.56 -6.78,1.56 -6.34,1.56 -5.91,1.56 -5.47,1.56 -5.03,1.56 -4.59,1.56 -4.16,1.56 -3.72,1.56 -3.28,1.56 -2.84,1.56 -2.41,1.56 -1.97,1.56 -1.53,1.56 -1.09,1.56 -0.66,1.56 -0.22,1.56 0.22,1.56 0.66,1.56 1.09,1.56 1.53,1.56 1.97,1.56 2.41,1.56 2.84,1.56 3.28,1.56 3.72,1.54 4.16,1.52 4.59,1.53 5.03,1.56 5.47,1.56 5.91,1.56 6.34,1.56 6.78,1.56 7.22,1.56 7.66,1.56 8.09,1.56 8.53,1.56 8.97,1.56 9.41,1.56 9.84,1.56 10.28,1.56 10.72,1.56 11.16,1.56 11.59,1.56 12.03,1.56 12.47,1.56 12.91,1.56 13.34,1.56 13.78,1.56 14.22,1.56 14.66,1.56 15.09,1.56 15.53,1.56 15.97,1.56 16.41,1.56 16.84,1.56 17.28,1.56 17.72,1.56 18.16,1.56 18.59,1.56 19.03,1.56 19.47,1.56 19.9,1.56 20.34,1.56 20.78,1.56 21.22,1.56 21.65,1.56 22.09,1.56 22.53,1.56 22.97,1.56 23.4,1.56 23.84,1.56 24.28,1.56 24.72,1.56 25.15,1.56 25.59,1.56 26.03,1.56 26.47,1.56 26.9,1.56 27.34,1.56 27.78,1.56 28.22,1.56 28.65,1.56 29.09,1.56 29.53,1.56 29.97,1.56 30.4,1.56 30.84,1.56 31.28,1.56 31.72,1.56 32.15,1.56 32.59,1.56 33.03,1.56 33.47,1.56 33.9,1.56 34.34,1.56 34.78,1.56 35.22,1.56 35.65,1.56 36.09,1.56 36.53,1.56 36.97,1.56 37.4,1.56 37.84,1.56 38.28,1.56 38.72,1.56 39.15,1.56 39.59,1.56 40.03,1.56 40.47,1.56 40.9,1.56 41.34,1.56 41.78,1.56 42.22,1.56 42.65,1.56 43.09,1.56 43.53,1.56 43.97,1.56 44.4,1.56 44.84,1.56 45.28,1.56 45.72,1.56 46.15,1.56 46.59,1.56 47.03,1.56 47.47,1.56 47.9,1.56 48.34,1.56 48.78,1.56 49.22,1.56 49.65,1.56 50.09,1.56 50.53,1.56 50.97,1.56 51.4,1.56 51.84,1.56 52.28,1.56 52.72,1.56 53.15,1.56 53.59,1.53 54.03,1.52 54.47,1.53 54.9,1.56 55.34,1.56 55.78,1.56 " class="primitive"/>
          </g>
          <g transform="translate(66.89,77.79)" id="img-094387f6-35" stroke-dasharray="none" stroke="#4169E1" class="color_Area_2">
            <path fill="none" d="M-4.23,20.62 L-4.2,20.62 -4.17,20.62 -4.13,20.62 -4.1,20.61 -4.07,20.6 -4.03,20.57 -4,20.53 -3.97,20.46 -3.93,20.34 -3.9,20.15 -3.87,19.84 -3.83,19.37 -3.8,18.67 -3.77,17.67 -3.73,16.29 -3.7,14.43 -3.67,12.01 -3.64,8.96 -3.6,5.25 -3.57,0.88 -3.54,-4.11 -3.5,-9.63 -3.47,-15.51 -3.44,-21.6 -3.4,-27.7 -3.37,-33.6 -3.34,-39.13 -3.3,-44.15 -3.27,-48.55 -3.24,-52.29 -3.2,-55.36 -3.17,-57.8 -3.14,-59.67 -3.1,-61.07 -3.07,-62.07 -3.04,-62.77 -3,-63.25 -2.97,-63.55 -2.94,-63.75 -2.9,-63.87 -2.87,-63.94 -2.84,-63.97 -2.81,-63.99 -2.77,-64 -2.74,-64 -2.71,-63.98 -2.67,-63.96 -2.64,-63.93 -2.61,-63.87 -2.57,-63.8 -2.54,-63.68 -2.51,-63.53 -2.47,-63.31 -2.44,-63.03 -2.41,-62.66 -2.37,-62.21 -2.34,-61.64 -2.31,-60.97 -2.27,-60.18 -2.24,-59.28 -2.21,-58.27 -2.17,-57.15 -2.14,-55.92 -2.11,-54.6 -2.07,-53.19 -2.04,-51.67 -2.01,-50.06 -1.98,-48.35 -1.94,-46.53 -1.91,-44.59 -1.88,-42.53 -1.84,-40.37 -1.81,-38.09 -1.78,-35.73 -1.74,-33.31 -1.71,-30.84 -1.68,-28.38 -1.64,-25.94 -1.61,-23.59 -1.58,-21.34 -1.54,-19.23 -1.51,-17.28 -1.48,-15.49 -1.44,-13.86 -1.41,-12.37 -1.38,-10.99 -1.34,-9.68 -1.31,-8.44 -1.28,-7.23 -1.24,-6.04 -1.21,-4.87 -1.18,-3.72 -1.15,-2.6 -1.11,-1.52 -1.08,-0.49 -1.05,0.49 -1.01,1.42 -0.98,2.3 -0.95,3.14 -0.91,3.95 -0.88,4.74 -0.85,5.5 -0.81,6.25 -0.78,6.99 -0.75,7.7 -0.71,8.39 -0.68,9.04 -0.65,9.64 -0.61,10.19 -0.58,10.67 -0.55,11.09 -0.51,11.42 -0.48,11.67 -0.45,11.84 -0.41,11.93 -0.38,11.94 -0.35,11.88 -0.32,11.77 -0.28,11.63 -0.25,11.49 -0.22,11.36 -0.18,11.28 -0.15,11.27 -0.12,11.35 -0.08,11.52 -0.05,11.8 -0.02,12.18 0.02,12.64 0.05,13.16 0.08,13.73 0.12,14.3 0.15,14.85 0.18,15.37 0.22,15.83 0.25,16.24 0.28,16.58 0.32,16.87 0.35,17.11 0.38,17.31 0.41,17.5 0.45,17.68 0.48,17.87 0.51,18.05 0.55,18.23 0.58,18.41 0.61,18.58 0.65,18.73 0.68,18.85 0.71,18.94 0.75,19 0.78,19.02 0.81,19.02 0.85,18.99 0.88,18.96 0.91,18.91 0.95,18.88 0.98,18.85 1.01,18.83 1.05,18.84 1.08,18.85 1.11,18.89 1.15,18.93 1.18,18.98 1.21,19.03 1.24,19.08 1.28,19.13 1.31,19.19 1.34,19.24 1.38,19.3 1.41,19.36 1.44,19.44 1.48,19.52 1.51,19.61 1.54,19.71 1.58,19.8 1.61,19.89 1.64,19.98 1.68,20.04 1.71,20.1 1.74,20.14 1.78,20.17 1.81,20.19 1.84,20.2 1.88,20.21 1.91,20.23 1.94,20.25 1.98,20.27 2.01,20.3 2.04,20.34 2.07,20.38 2.11,20.42 2.14,20.46 2.17,20.49 2.21,20.53 2.24,20.55 2.27,20.57 2.31,20.59 2.34,20.6 2.37,20.61 2.41,20.61 2.44,20.62 2.47,20.62 2.51,20.62 2.54,20.62 2.57,20.62 2.61,20.62 2.64,20.62 2.67,20.62 2.71,20.62 2.74,20.62 2.77,20.61 2.81,20.61 2.84,20.6 2.87,20.59 2.9,20.57 2.94,20.55 2.97,20.53 3,20.49 3.04,20.45 3.07,20.41 3.1,20.36 3.14,20.3 3.17,20.25 3.2,20.2 3.24,20.15 3.27,20.11 3.3,20.08 3.34,20.06 3.37,20.05 3.4,20.05 3.44,20.06 3.47,20.08 3.5,20.11 3.54,20.15 3.57,20.2 3.6,20.25 3.64,20.3 3.67,20.35 3.7,20.4 3.73,20.45 3.77,20.49 3.8,20.52 3.83,20.55 3.87,20.57 3.9,20.59 3.93,20.6 3.97,20.61 4,20.61 4.03,20.62 4.07,20.62 4.1,20.62 4.13,20.62 4.17,20.62 4.2,20.62 4.23,20.62 " class="primitive"/>
          </g>
          <g transform="translate(91.14,95.44)" id="img-094387f6-36" stroke-dasharray="none" stroke="#00CD66" class="color_Area_4">
            <path fill="none" d="M-29.33,2.98 L-29.1,2.97 -28.87,2.91 -28.64,2.65 -28.41,1.7 -28.18,-0.78 -27.95,-5.54 -27.72,-12.22 -27.49,-19.14 -27.26,-24.38 -27.03,-27.3 -26.8,-28.47 -26.57,-28.82 -26.34,-28.9 -26.11,-28.91 -25.88,-28.91 -25.65,-28.9 -25.42,-28.86 -25.19,-28.74 -24.96,-28.47 -24.73,-27.96 -24.5,-27.22 -24.27,-26.25 -24.04,-24.98 -23.81,-23.3 -23.58,-21.18 -23.35,-18.76 -23.12,-16.26 -22.89,-13.92 -22.66,-11.92 -22.43,-10.31 -22.2,-8.99 -21.97,-7.73 -21.74,-6.45 -21.51,-5.14 -21.28,-3.91 -21.05,-2.9 -20.82,-2.21 -20.59,-1.8 -20.36,-1.48 -20.13,-1.03 -19.9,-0.4 -19.67,0.26 -19.44,0.76 -19.21,1.06 -18.98,1.29 -18.75,1.51 -18.52,1.7 -18.29,1.84 -18.06,1.95 -17.83,2.04 -17.6,2.1 -17.37,2.11 -17.14,2.04 -16.91,1.92 -16.68,1.83 -16.45,1.83 -16.22,1.95 -15.99,2.07 -15.76,2.15 -15.53,2.21 -15.3,2.28 -15.07,2.37 -14.84,2.45 -14.61,2.51 -14.38,2.52 -14.15,2.49 -13.92,2.44 -13.69,2.41 -13.46,2.43 -13.23,2.47 -13,2.52 -12.77,2.57 -12.54,2.65 -12.31,2.73 -12.08,2.79 -11.85,2.81 -11.62,2.79 -11.39,2.75 -11.16,2.69 -10.93,2.63 -10.7,2.6 -10.47,2.64 -10.24,2.72 -10.01,2.81 -9.78,2.89 -9.55,2.93 -9.32,2.95 -9.09,2.94 -8.86,2.92 -8.63,2.9 -8.4,2.88 -8.17,2.86 -7.94,2.84 -7.71,2.82 -7.48,2.81 -7.25,2.81 -7.02,2.82 -6.79,2.84 -6.56,2.86 -6.33,2.85 -6.1,2.84 -5.87,2.83 -5.64,2.84 -5.41,2.88 -5.18,2.93 -4.95,2.96 -4.72,2.97 -4.49,2.98 -4.26,2.98 -4.03,2.98 -3.8,2.98 -3.57,2.98 -3.34,2.98 -3.11,2.98 -2.88,2.98 -2.65,2.98 -2.42,2.97 -2.19,2.97 -1.96,2.96 -1.73,2.94 -1.5,2.92 -1.27,2.92 -1.04,2.93 -0.81,2.95 -0.58,2.97 -0.35,2.97 -0.12,2.98 0.12,2.98 0.35,2.98 0.58,2.98 0.81,2.98 1.04,2.97 1.27,2.96 1.5,2.93 1.73,2.88 1.96,2.83 2.19,2.81 2.42,2.83 2.65,2.88 2.88,2.93 3.11,2.96 3.34,2.97 3.57,2.98 3.8,2.98 4.03,2.97 4.26,2.96 4.49,2.95 4.72,2.93 4.95,2.91 5.18,2.92 5.41,2.92 5.64,2.92 5.87,2.92 6.1,2.92 6.33,2.93 6.56,2.95 6.79,2.97 7.02,2.97 7.25,2.98 7.48,2.98 7.71,2.98 7.94,2.98 8.17,2.98 8.4,2.98 8.63,2.98 8.86,2.98 9.09,2.98 9.32,2.98 9.55,2.98 9.78,2.98 10.01,2.98 10.24,2.98 10.47,2.98 10.7,2.98 10.93,2.98 11.16,2.98 11.39,2.98 11.62,2.98 11.85,2.98 12.08,2.98 12.31,2.98 12.54,2.98 12.77,2.98 13,2.98 13.23,2.98 13.46,2.98 13.69,2.98 13.92,2.98 14.15,2.98 14.38,2.98 14.61,2.98 14.84,2.98 15.07,2.98 15.3,2.98 15.53,2.98 15.76,2.98 15.99,2.98 16.22,2.98 16.45,2.98 16.68,2.98 16.91,2.98 17.14,2.98 17.37,2.98 17.6,2.98 17.83,2.98 18.06,2.98 18.29,2.98 18.52,2.98 18.75,2.98 18.98,2.98 19.21,2.98 19.44,2.98 19.67,2.98 19.9,2.98 20.13,2.98 20.36,2.98 20.59,2.98 20.82,2.98 21.05,2.98 21.28,2.98 21.51,2.98 21.74,2.98 21.97,2.98 22.2,2.98 22.43,2.98 22.66,2.98 22.89,2.98 23.12,2.98 23.35,2.98 23.58,2.98 23.81,2.98 24.04,2.98 24.27,2.98 24.5,2.98 24.73,2.98 24.96,2.98 25.19,2.98 25.42,2.98 25.65,2.98 25.88,2.98 26.11,2.97 26.34,2.97 26.57,2.96 26.8,2.94 27.03,2.91 27.26,2.89 27.49,2.88 27.72,2.89 27.95,2.91 28.18,2.94 28.41,2.96 28.64,2.97 28.87,2.97 29.1,2.98 29.33,2.98 " class="primitive"/>
          </g>
        </g>
      </g>
    </g>
  </g>
  <g class="guide ylabels" font-size="3.53" font-family="CMU Serif" fill="#6C606B" id="img-094387f6-37">
    <g transform="translate(22.11,98.42)" id="img-094387f6-38">
      <g class="primitive">
        <text text-anchor="end" dy="0.35em">0.000</text>
      </g>
    </g>
    <g transform="translate(22.11,52.71)" id="img-094387f6-39">
      <g class="primitive">
        <text text-anchor="end" dy="0.35em">0.005</text>
      </g>
    </g>
    <g transform="translate(22.11,7)" id="img-094387f6-40">
      <g class="primitive">
        <text text-anchor="end" dy="0.35em">0.010</text>
      </g>
    </g>
  </g>
  <g font-size="3.53" font-family="CMU Serif" fill="#564A55" stroke="#000000" stroke-opacity="0.000" id="img-094387f6-41">
    <g transform="translate(8.65,50.71)" id="img-094387f6-42">
      <g class="primitive">
        <text text-anchor="middle" dy="0.35em" transform="rotate(-90,0, 2)">Density</text>
      </g>
    </g>
  </g>
</g>
<defs>
  <clipPath id="img-094387f6-17">
    <path d="M23.11,5 L180.48,5 180.48,100.42 23.11,100.42 " />
  </clipPath>
</defs>
</svg>
