<?xml version="1.0" encoding="UTF-8"?>
<svg xmlns="http://www.w3.org/2000/svg"
     xmlns:xlink="http://www.w3.org/1999/xlink"
     xmlns:gadfly="http://www.gadflyjl.org/ns"
     version="1.2"
     width="300mm" height="120mm" viewBox="0 0 300 120"
     stroke="none"
     fill="#000000"
     stroke-width="0.3"
     font-size="3.88"
>
<defs>
  <marker id="arrow" markerWidth="15" markerHeight="7" refX="5" refY="3.5" orient="auto" markerUnits="strokeWidth">
    <path d="M0,0 L15,3.5 L0,7 z" stroke="context-stroke" fill="context-stroke"/>
  </marker>
</defs>
<g class="plotroot xscalable yscalable" id="img-430a6107-1">
  <g font-size="4.59" font-family="CMU Serif" fill="#564A55" stroke="#000000" stroke-opacity="0.000" id="img-430a6107-2">
    <g transform="translate(226.81,107.72)">
      <g class="primitive">
        <text text-anchor="middle" dy="0.6em">Proper Motion Declination (mas/yr)</text>
      </g>
    </g>
  </g>
  <g class="guide xlabels" font-size="4.59" font-family="CMU Serif" fill="#6C606B" id="img-430a6107-3">
    <g transform="translate(179.16,99.44)">
      <g class="primitive">
        <text text-anchor="middle" dy="0.6em">0</text>
      </g>
    </g>
    <g transform="translate(214.29,99.44)">
      <g class="primitive">
        <text text-anchor="middle" dy="0.6em">500</text>
      </g>
    </g>
    <g transform="translate(249.41,99.44)">
      <g class="primitive">
        <text text-anchor="middle" dy="0.6em">1000</text>
      </g>
    </g>
  </g>
  <g class="guide colorkey" id="img-430a6107-4">
    <g fill="#4C404B" font-size="4.59" font-family="CMU Serif" id="img-430a6107-5">
      <g transform="translate(281.51,46.44)" id="img-430a6107-6" class="color_Area_1">
        <g class="primitive">
          <text dy="0.35em">Area 1</text>
        </g>
      </g>
      <g transform="translate(281.51,51.72)" id="img-430a6107-7" class="color_Area_2">
        <g class="primitive">
          <text dy="0.35em">Area 2</text>
        </g>
      </g>
      <g transform="translate(281.51,57)" id="img-430a6107-8" class="color_Area_3">
        <g class="primitive">
          <text dy="0.35em">Area 3</text>
        </g>
      </g>
      <g transform="translate(281.51,62.28)" id="img-430a6107-9" class="color_Area_4">
        <g class="primitive">
          <text dy="0.35em">Area 4</text>
        </g>
      </g>
    </g>
    <g fill-opacity="1" id="img-430a6107-10">
      <g transform="translate(279.19,46.44)" id="img-430a6107-11" stroke="#FFFFFF" class="color_Area_1" fill="#FF6347">
        <path d="M-1.32,-1.32 L1.32,-1.32 1.32,1.32 -1.32,1.32  z" class="primitive"/>
      </g>
      <g transform="translate(279.19,51.72)" id="img-430a6107-12" stroke="#FFFFFF" class="color_Area_2" fill="#4169E1">
        <path d="M-1.32,-1.32 L1.32,-1.32 1.32,1.32 -1.32,1.32  z" class="primitive"/>
      </g>
      <g transform="translate(279.19,57)" id="img-430a6107-13" stroke="#FFFFFF" class="color_Area_3" fill="#B23AEE">
        <path d="M-1.32,-1.32 L1.32,-1.32 1.32,1.32 -1.32,1.32  z" class="primitive"/>
      </g>
      <g transform="translate(279.19,62.28)" id="img-430a6107-14" stroke="#FFFFFF" class="color_Area_4" fill="#00CD66">
        <path d="M-1.32,-1.32 L1.32,-1.32 1.32,1.32 -1.32,1.32  z" class="primitive"/>
      </g>
    </g>
    <g fill="#362A35" font-size="5.29" font-family="CMU Serif" stroke="#000000" stroke-opacity="0.000" id="img-430a6107-15">
      <g transform="translate(277.87,41.63)" id="img-430a6107-16">
        <g class="primitive">
          <text dy="-0em">Area</text>
        </g>
      </g>
    </g>
  </g>
  <g clip-path="url(#img-430a6107-17)">
    <g id="img-430a6107-18">
      <g pointer-events="visible" stroke-width="0.3" fill="#000000" fill-opacity="0.000" stroke="#000000" stroke-opacity="0.000" class="guide background" id="img-430a6107-19">
        <g transform="translate(226.81,51.72)" id="img-430a6107-20">
          <path d="M-50.07,-46.72 L50.07,-46.72 50.07,46.72 -50.07,46.72  z" class="primitive"/>
        </g>
      </g>
      <g class="guide ygridlines xfixed" stroke-dasharray="0.5,0.5" stroke-width="0.2" stroke="#D0D0E0" id="img-430a6107-21">
        <g transform="translate(226.81,96.44)" id="img-430a6107-22">
          <path fill="none" d="M-50.07,0 L50.07,0 " class="primitive"/>
        </g>
        <g transform="translate(226.81,66.63)" id="img-430a6107-23">
          <path fill="none" d="M-50.07,0 L50.07,0 " class="primitive"/>
        </g>
        <g transform="translate(226.81,36.81)" id="img-430a6107-24">
          <path fill="none" d="M-50.07,0 L50.07,0 " class="primitive"/>
        </g>
        <g transform="translate(226.81,7)" id="img-430a6107-25">
          <path fill="none" d="M-50.07,0 L50.07,0 " class="primitive"/>
        </g>
      </g>
      <g class="guide xgridlines yfixed" stroke-dasharray="0.5,0.5" stroke-width="0.2" stroke="#D0D0E0" id="img-430a6107-26">
        <g transform="translate(179.16,51.72)" id="img-430a6107-27">
          <path fill="none" d="M0,-46.72 L0,46.72 " class="primitive"/>
        </g>
        <g transform="translate(214.29,51.72)" id="img-430a6107-28">
          <path fill="none" d="M0,-46.72 L0,46.72 " class="primitive"/>
        </g>
        <g transform="translate(249.41,51.72)" id="img-430a6107-29">
          <path fill="none" d="M0,-46.72 L0,46.72 " class="primitive"/>
        </g>
      </g>
      <g class="plotpanel" id="img-430a6107-30">
        <metadata>
          <boundingbox value="176.74083333333334mm 5.0mm 100.13208333333334mm 93.44166666666666mm"/>
          <unitbox value="-34.46956131460028 0.015335414143296375 1425.3582430084991 -0.01567082828659275"/>
        </metadata>
        <g stroke-width="0.3" fill="#000000" fill-opacity="0.000" class="geometry" id="img-430a6107-31">
          <g transform="translate(224.74,92.28)" id="img-430a6107-32" stroke-dasharray="none" stroke="#FF6347" class="color_Area_1">
            <path fill="none" d="M-50.13,4.16 L-49.74,4.16 -49.35,4.15 -48.95,4.12 -48.56,4.05 -48.17,3.85 -47.77,3.41 -47.38,2.55 -46.99,1.03 -46.59,-1.32 -46.2,-4.55 -45.81,-8.46 -45.41,-12.65 -45.02,-16.63 -44.63,-19.96 -44.23,-22.44 -43.84,-24.07 -43.45,-25.02 -43.05,-25.51 -42.66,-25.73 -42.27,-25.82 -41.88,-25.85 -41.48,-25.86 -41.09,-25.86 -40.7,-25.85 -40.3,-25.84 -39.91,-25.81 -39.52,-25.76 -39.12,-25.68 -38.73,-25.54 -38.34,-25.29 -37.94,-24.88 -37.55,-24.29 -37.16,-23.49 -36.76,-22.5 -36.37,-21.34 -35.98,-20.09 -35.58,-18.79 -35.19,-17.48 -34.8,-16.22 -34.4,-15.01 -34.01,-13.88 -33.62,-12.79 -33.22,-11.73 -32.83,-10.67 -32.44,-9.62 -32.05,-8.59 -31.65,-7.59 -31.26,-6.65 -30.87,-5.8 -30.47,-5.03 -30.08,-4.35 -29.69,-3.73 -29.29,-3.17 -28.9,-2.65 -28.51,-2.16 -28.11,-1.69 -27.72,-1.25 -27.33,-0.85 -26.93,-0.5 -26.54,-0.18 -26.15,0.11 -25.75,0.4 -25.36,0.69 -24.97,0.99 -24.57,1.27 -24.18,1.51 -23.79,1.71 -23.39,1.88 -23,2.04 -22.61,2.19 -22.22,2.35 -21.82,2.51 -21.43,2.64 -21.04,2.74 -20.64,2.83 -20.25,2.89 -19.86,2.95 -19.46,3.01 -19.07,3.08 -18.68,3.17 -18.28,3.28 -17.89,3.41 -17.5,3.55 -17.1,3.68 -16.71,3.79 -16.32,3.86 -15.92,3.91 -15.53,3.94 -15.14,3.96 -14.74,3.98 -14.35,4.01 -13.96,4.02 -13.57,4.02 -13.17,3.98 -12.78,3.92 -12.39,3.85 -11.99,3.78 -11.6,3.73 -11.21,3.7 -10.81,3.7 -10.42,3.73 -10.03,3.77 -9.63,3.81 -9.24,3.86 -8.85,3.91 -8.45,3.95 -8.06,3.98 -7.67,3.99 -7.27,3.99 -6.88,3.99 -6.49,3.99 -6.09,4.01 -5.7,4.03 -5.31,4.06 -4.91,4.09 -4.52,4.12 -4.13,4.14 -3.74,4.14 -3.34,4.14 -2.95,4.13 -2.56,4.12 -2.16,4.11 -1.77,4.09 -1.38,4.09 -0.98,4.09 -0.59,4.1 -0.2,4.11 0.2,4.13 0.59,4.14 0.98,4.14 1.38,4.13 1.77,4.1 2.16,4.07 2.56,4.04 2.95,4.01 3.34,3.99 3.74,3.98 4.13,3.99 4.52,4 4.91,4.03 5.31,4.06 5.7,4.08 6.09,4.11 6.49,4.13 6.88,4.14 7.27,4.15 7.67,4.16 8.06,4.16 8.45,4.16 8.85,4.16 9.24,4.16 9.63,4.16 10.03,4.16 10.42,4.16 10.81,4.16 11.21,4.16 11.6,4.16 11.99,4.16 12.39,4.16 12.78,4.16 13.17,4.16 13.57,4.16 13.96,4.15 14.35,4.15 14.74,4.14 15.14,4.12 15.53,4.11 15.92,4.09 16.32,4.09 16.71,4.09 17.1,4.1 17.5,4.11 17.89,4.13 18.28,4.14 18.68,4.15 19.07,4.15 19.46,4.15 19.86,4.15 20.25,4.14 20.64,4.12 21.04,4.11 21.43,4.09 21.82,4.09 22.22,4.09 22.61,4.1 23,4.11 23.39,4.13 23.79,4.14 24.18,4.15 24.57,4.16 24.97,4.16 25.36,4.16 25.75,4.16 26.15,4.16 26.54,4.16 26.93,4.16 27.33,4.16 27.72,4.16 28.11,4.16 28.51,4.16 28.9,4.16 29.29,4.16 29.69,4.16 30.08,4.16 30.47,4.16 30.87,4.16 31.26,4.16 31.65,4.16 32.05,4.16 32.44,4.16 32.83,4.16 33.22,4.16 33.62,4.16 34.01,4.16 34.4,4.16 34.8,4.16 35.19,4.16 35.58,4.16 35.98,4.16 36.37,4.16 36.76,4.16 37.16,4.16 37.55,4.16 37.94,4.16 38.34,4.16 38.73,4.16 39.12,4.16 39.52,4.16 39.91,4.16 40.3,4.16 40.7,4.16 41.09,4.16 41.48,4.16 41.88,4.16 42.27,4.16 42.66,4.16 43.05,4.16 43.45,4.15 43.84,4.14 44.23,4.13 44.63,4.11 45.02,4.1 45.41,4.09 45.81,4.09 46.2,4.09 46.59,4.11 46.99,4.12 47.38,4.14 47.77,4.15 48.17,4.15 48.56,4.16 48.95,4.16 49.35,4.16 49.74,4.16 50.13,4.16 " class="primitive"/>
          </g>
          <g transform="translate(222.71,92.19)" id="img-430a6107-33" stroke-dasharray="none" stroke="#B23AEE" class="color_Area_3">
            <path fill="none" d="M-49.07,4.25 L-48.69,4.25 -48.3,4.25 -47.92,4.25 -47.53,4.24 -47.15,4.22 -46.76,4.16 -46.38,4.02 -45.99,3.72 -45.61,3.13 -45.22,2.1 -44.84,0.47 -44.45,-1.86 -44.07,-4.84 -43.68,-8.3 -43.3,-11.89 -42.91,-15.25 -42.53,-18.07 -42.14,-20.2 -41.76,-21.65 -41.38,-22.54 -40.99,-23.02 -40.61,-23.26 -40.22,-23.37 -39.84,-23.41 -39.45,-23.42 -39.07,-23.43 -38.68,-23.43 -38.3,-23.43 -37.91,-23.42 -37.53,-23.4 -37.14,-23.37 -36.76,-23.31 -36.37,-23.21 -35.99,-23.03 -35.6,-22.77 -35.22,-22.4 -34.83,-21.92 -34.45,-21.33 -34.06,-20.65 -33.68,-19.89 -33.29,-19.05 -32.91,-18.12 -32.52,-17.09 -32.14,-15.96 -31.75,-14.74 -31.37,-13.47 -30.98,-12.2 -30.6,-10.95 -30.21,-9.8 -29.83,-8.76 -29.44,-7.87 -29.06,-7.12 -28.67,-6.49 -28.29,-5.91 -27.9,-5.34 -27.52,-4.75 -27.13,-4.15 -26.75,-3.55 -26.36,-2.99 -25.98,-2.49 -25.59,-2.06 -25.21,-1.7 -24.83,-1.4 -24.44,-1.1 -24.06,-0.79 -23.67,-0.42 -23.29,-0 -22.9,0.45 -22.52,0.89 -22.13,1.29 -21.75,1.63 -21.36,1.88 -20.98,2.05 -20.59,2.16 -20.21,2.23 -19.82,2.28 -19.44,2.33 -19.05,2.4 -18.67,2.47 -18.28,2.55 -17.9,2.66 -17.51,2.78 -17.13,2.93 -16.74,3.09 -16.36,3.25 -15.97,3.38 -15.59,3.46 -15.2,3.49 -14.82,3.48 -14.43,3.44 -14.05,3.39 -13.66,3.36 -13.28,3.35 -12.89,3.37 -12.51,3.41 -12.12,3.47 -11.74,3.54 -11.35,3.61 -10.97,3.67 -10.58,3.71 -10.2,3.72 -9.81,3.72 -9.43,3.71 -9.04,3.71 -8.66,3.72 -8.28,3.77 -7.89,3.84 -7.51,3.92 -7.12,4 -6.74,4.06 -6.35,4.11 -5.97,4.14 -5.58,4.16 -5.2,4.16 -4.81,4.16 -4.43,4.16 -4.04,4.14 -3.66,4.12 -3.27,4.1 -2.89,4.07 -2.5,4.05 -2.12,4.03 -1.73,4.01 -1.35,4 -0.96,3.97 -0.58,3.94 -0.19,3.89 0.19,3.84 0.58,3.8 0.96,3.78 1.35,3.78 1.73,3.81 2.12,3.86 2.5,3.93 2.89,4 3.27,4.07 3.66,4.13 4.04,4.18 4.43,4.2 4.81,4.2 5.2,4.19 5.58,4.16 5.97,4.12 6.35,4.07 6.74,4.03 7.12,3.99 7.51,3.97 7.89,3.98 8.28,4 8.66,4.03 9.04,4.08 9.43,4.12 9.81,4.16 10.2,4.19 10.58,4.22 10.97,4.23 11.35,4.24 11.74,4.25 12.12,4.25 12.51,4.25 12.89,4.25 13.28,4.25 13.66,4.25 14.05,4.25 14.43,4.25 14.82,4.25 15.2,4.25 15.59,4.25 15.97,4.25 16.36,4.25 16.74,4.25 17.13,4.24 17.51,4.24 17.9,4.22 18.28,4.21 18.67,4.2 19.05,4.19 19.44,4.18 19.82,4.19 20.21,4.2 20.59,4.21 20.98,4.22 21.36,4.23 21.75,4.24 22.13,4.25 22.52,4.25 22.9,4.25 23.29,4.25 23.67,4.25 24.06,4.25 24.44,4.25 24.83,4.25 25.21,4.25 25.59,4.25 25.98,4.25 26.36,4.25 26.75,4.25 27.13,4.25 27.52,4.25 27.9,4.25 28.29,4.25 28.67,4.25 29.06,4.25 29.44,4.25 29.83,4.25 30.21,4.25 30.6,4.25 30.98,4.25 31.37,4.25 31.75,4.25 32.14,4.25 32.52,4.25 32.91,4.25 33.29,4.25 33.68,4.25 34.06,4.25 34.45,4.25 34.83,4.25 35.22,4.25 35.6,4.25 35.99,4.25 36.37,4.24 36.76,4.23 37.14,4.22 37.53,4.21 37.91,4.19 38.3,4.19 38.68,4.19 39.07,4.19 39.45,4.2 39.84,4.22 40.22,4.23 40.61,4.24 40.99,4.24 41.38,4.25 41.76,4.24 42.14,4.24 42.53,4.23 42.91,4.22 43.3,4.21 43.68,4.2 44.07,4.19 44.45,4.18 44.84,4.19 45.22,4.2 45.61,4.21 45.99,4.22 46.38,4.24 46.76,4.24 47.15,4.25 47.53,4.25 47.92,4.25 48.3,4.25 48.69,4.25 49.07,4.25 " class="primitive"/>
          </g>
          <g transform="translate(193.19,83.8)" id="img-430a6107-34" stroke-dasharray="none" stroke="#4169E1" class="color_Area_2">
            <path fill="none" d="M-16.51,12.64 L-16.38,12.64 -16.25,12.64 -16.12,12.63 -15.99,12.62 -15.86,12.59 -15.73,12.53 -15.6,12.42 -15.47,12.22 -15.34,11.86 -15.21,11.28 -15.08,10.35 -14.95,8.97 -14.82,6.99 -14.69,4.31 -14.56,0.83 -14.43,-3.44 -14.31,-8.44 -14.18,-14 -14.05,-19.9 -13.92,-25.83 -13.79,-31.52 -13.66,-36.7 -13.53,-41.19 -13.4,-44.88 -13.27,-47.78 -13.14,-49.94 -13.01,-51.47 -12.88,-52.5 -12.75,-53.16 -12.62,-53.56 -12.49,-53.79 -12.36,-53.92 -12.23,-53.97 -12.1,-53.98 -11.97,-53.97 -11.85,-53.92 -11.72,-53.85 -11.59,-53.74 -11.46,-53.6 -11.33,-53.4 -11.2,-53.14 -11.07,-52.82 -10.94,-52.41 -10.81,-51.91 -10.68,-51.32 -10.55,-50.62 -10.42,-49.8 -10.29,-48.86 -10.16,-47.79 -10.03,-46.59 -9.9,-45.23 -9.77,-43.7 -9.64,-41.97 -9.52,-40.03 -9.39,-37.88 -9.26,-35.51 -9.13,-32.95 -9,-30.25 -8.87,-27.48 -8.74,-24.7 -8.61,-22 -8.48,-19.43 -8.35,-17.05 -8.22,-14.89 -8.09,-12.94 -7.96,-11.21 -7.83,-9.67 -7.7,-8.28 -7.57,-7.03 -7.44,-5.89 -7.31,-4.84 -7.18,-3.9 -7.06,-3.07 -6.93,-2.38 -6.8,-1.83 -6.67,-1.41 -6.54,-1.13 -6.41,-0.93 -6.28,-0.76 -6.15,-0.58 -6.02,-0.33 -5.89,0.02 -5.76,0.49 -5.63,1.06 -5.5,1.71 -5.37,2.42 -5.24,3.13 -5.11,3.83 -4.98,4.48 -4.85,5.06 -4.73,5.56 -4.6,5.99 -4.47,6.33 -4.34,6.59 -4.21,6.8 -4.08,6.95 -3.95,7.08 -3.82,7.19 -3.69,7.3 -3.56,7.42 -3.43,7.56 -3.3,7.71 -3.17,7.88 -3.04,8.05 -2.91,8.21 -2.78,8.37 -2.65,8.51 -2.52,8.65 -2.39,8.79 -2.27,8.93 -2.14,9.08 -2.01,9.24 -1.88,9.4 -1.75,9.55 -1.62,9.67 -1.49,9.77 -1.36,9.85 -1.23,9.91 -1.1,9.96 -0.97,10.02 -0.84,10.11 -0.71,10.24 -0.58,10.4 -0.45,10.59 -0.32,10.81 -0.19,11.03 -0.06,11.25 0.06,11.43 0.19,11.59 0.32,11.71 0.45,11.79 0.58,11.83 0.71,11.83 0.84,11.81 0.97,11.77 1.1,11.73 1.23,11.69 1.36,11.67 1.49,11.68 1.62,11.71 1.75,11.76 1.88,11.83 2.01,11.9 2.14,11.96 2.27,11.99 2.39,11.99 2.52,11.95 2.65,11.89 2.78,11.81 2.91,11.74 3.04,11.68 3.17,11.65 3.3,11.67 3.43,11.73 3.56,11.83 3.69,11.95 3.82,12.08 3.95,12.21 4.08,12.32 4.21,12.42 4.34,12.49 4.47,12.55 4.6,12.58 4.73,12.61 4.85,12.62 4.98,12.63 5.11,12.64 5.24,12.64 5.37,12.64 5.5,12.64 5.63,12.64 5.76,12.64 5.89,12.64 6.02,12.64 6.15,12.64 6.28,12.64 6.41,12.63 6.54,12.63 6.67,12.62 6.8,12.6 6.93,12.58 7.06,12.55 7.18,12.52 7.31,12.47 7.44,12.43 7.57,12.39 7.7,12.35 7.83,12.33 7.96,12.31 8.09,12.32 8.22,12.34 8.35,12.37 8.48,12.42 8.61,12.46 8.74,12.5 8.87,12.54 9,12.57 9.13,12.59 9.26,12.61 9.39,12.62 9.52,12.63 9.64,12.63 9.77,12.64 9.9,12.64 10.03,12.64 10.16,12.64 10.29,12.64 10.42,12.64 10.55,12.64 10.68,12.64 10.81,12.64 10.94,12.64 11.07,12.64 11.2,12.64 11.33,12.64 11.46,12.64 11.59,12.64 11.72,12.64 11.85,12.64 11.97,12.64 12.1,12.64 12.23,12.63 12.36,12.63 12.49,12.62 12.62,12.6 12.75,12.57 12.88,12.52 13.01,12.46 13.14,12.38 13.27,12.27 13.4,12.15 13.53,12.03 13.66,11.9 13.79,11.79 13.92,11.72 14.05,11.68 14.18,11.69 14.31,11.75 14.43,11.84 14.56,11.96 14.69,12.09 14.82,12.21 14.95,12.32 15.08,12.42 15.21,12.49 15.34,12.55 15.47,12.58 15.6,12.61 15.73,12.62 15.86,12.63 15.99,12.63 16.12,12.64 16.25,12.64 16.38,12.64 16.51,12.64 " class="primitive"/>
          </g>
          <g transform="translate(200.28,87.77)" id="img-430a6107-35" stroke-dasharray="none" stroke="#00CD66" class="color_Area_4">
            <path fill="none" d="M-24.06,8.67 L-23.87,8.67 -23.68,8.66 -23.49,8.65 -23.31,8.62 -23.12,8.56 -22.93,8.41 -22.74,8.12 -22.55,7.59 -22.36,6.65 -22.17,5.15 -21.98,2.9 -21.8,-0.24 -21.61,-4.31 -21.42,-9.22 -21.23,-14.71 -21.04,-20.44 -20.85,-25.98 -20.66,-30.97 -20.47,-35.14 -20.29,-38.39 -20.1,-40.74 -19.91,-42.32 -19.72,-43.31 -19.53,-43.88 -19.34,-44.19 -19.15,-44.35 -18.96,-44.42 -18.78,-44.45 -18.59,-44.46 -18.4,-44.45 -18.21,-44.44 -18.02,-44.4 -17.83,-44.33 -17.64,-44.22 -17.46,-44.04 -17.27,-43.76 -17.08,-43.35 -16.89,-42.78 -16.7,-42.01 -16.51,-41.05 -16.32,-39.87 -16.13,-38.5 -15.95,-36.95 -15.76,-35.23 -15.57,-33.37 -15.38,-31.39 -15.19,-29.28 -15,-27.08 -14.81,-24.82 -14.62,-22.56 -14.44,-20.34 -14.25,-18.23 -14.06,-16.28 -13.87,-14.51 -13.68,-12.95 -13.49,-11.6 -13.3,-10.44 -13.12,-9.46 -12.93,-8.62 -12.74,-7.88 -12.55,-7.17 -12.36,-6.46 -12.17,-5.68 -11.98,-4.83 -11.79,-3.9 -11.61,-2.94 -11.42,-1.97 -11.23,-1.07 -11.04,-0.26 -10.85,0.43 -10.66,1.01 -10.47,1.51 -10.28,1.96 -10.1,2.38 -9.91,2.8 -9.72,3.21 -9.53,3.58 -9.34,3.92 -9.15,4.21 -8.96,4.46 -8.77,4.69 -8.59,4.91 -8.4,5.15 -8.21,5.41 -8.02,5.7 -7.83,6 -7.64,6.3 -7.45,6.59 -7.27,6.85 -7.08,7.06 -6.89,7.21 -6.7,7.31 -6.51,7.35 -6.32,7.35 -6.13,7.33 -5.94,7.3 -5.76,7.28 -5.57,7.29 -5.38,7.33 -5.19,7.39 -5,7.47 -4.81,7.53 -4.62,7.58 -4.43,7.6 -4.25,7.58 -4.06,7.55 -3.87,7.51 -3.68,7.47 -3.49,7.45 -3.3,7.47 -3.11,7.51 -2.92,7.59 -2.74,7.68 -2.55,7.77 -2.36,7.85 -2.17,7.92 -1.98,7.97 -1.79,8 -1.6,8.01 -1.42,8.01 -1.23,7.99 -1.04,7.94 -0.85,7.88 -0.66,7.79 -0.47,7.69 -0.28,7.59 -0.09,7.49 0.09,7.4 0.28,7.33 0.47,7.3 0.66,7.3 0.85,7.34 1.04,7.42 1.23,7.52 1.42,7.63 1.6,7.74 1.79,7.82 1.98,7.88 2.17,7.91 2.36,7.93 2.55,7.95 2.74,7.98 2.92,8.03 3.11,8.09 3.3,8.15 3.49,8.19 3.68,8.22 3.87,8.24 4.06,8.24 4.25,8.24 4.43,8.25 4.62,8.27 4.81,8.31 5,8.36 5.19,8.42 5.38,8.48 5.57,8.53 5.76,8.56 5.94,8.58 6.13,8.58 6.32,8.56 6.51,8.53 6.7,8.47 6.89,8.41 7.08,8.35 7.27,8.3 7.45,8.27 7.64,8.26 7.83,8.28 8.02,8.32 8.21,8.37 8.4,8.42 8.59,8.46 8.77,8.48 8.96,8.49 9.15,8.49 9.34,8.47 9.53,8.46 9.72,8.45 9.91,8.46 10.1,8.48 10.28,8.51 10.47,8.54 10.66,8.57 10.85,8.6 11.04,8.61 11.23,8.62 11.42,8.61 11.61,8.59 11.79,8.56 11.98,8.53 12.17,8.5 12.36,8.47 12.55,8.46 12.74,8.46 12.93,8.48 13.12,8.5 13.3,8.54 13.49,8.57 13.68,8.6 13.87,8.63 14.06,8.65 14.25,8.66 14.44,8.66 14.62,8.67 14.81,8.67 15,8.67 15.19,8.67 15.38,8.67 15.57,8.66 15.76,8.65 15.95,8.64 16.13,8.62 16.32,8.59 16.51,8.56 16.7,8.52 16.89,8.49 17.08,8.47 17.27,8.46 17.46,8.46 17.64,8.48 17.83,8.51 18.02,8.54 18.21,8.58 18.4,8.61 18.59,8.63 18.78,8.65 18.96,8.66 19.15,8.66 19.34,8.65 19.53,8.64 19.72,8.62 19.91,8.59 20.1,8.54 20.29,8.48 20.47,8.41 20.66,8.34 20.85,8.29 21.04,8.26 21.23,8.25 21.42,8.27 21.61,8.32 21.8,8.39 21.98,8.45 22.17,8.52 22.36,8.57 22.55,8.61 22.74,8.64 22.93,8.65 23.12,8.66 23.31,8.67 23.49,8.67 23.68,8.67 23.87,8.67 24.06,8.67 " class="primitive"/>
          </g>
        </g>
      </g>
    </g>
  </g>
  <g class="guide ylabels" font-size="4.59" font-family="CMU Serif" fill="#6C606B" id="img-430a6107-36">
    <g transform="translate(175.74,96.44)" id="img-430a6107-37">
      <g class="primitive">
        <text text-anchor="end" dy="0.35em">0.000</text>
      </g>
    </g>
    <g transform="translate(175.74,66.63)" id="img-430a6107-38">
      <g class="primitive">
        <text text-anchor="end" dy="0.35em">0.005</text>
      </g>
    </g>
    <g transform="translate(175.74,36.81)" id="img-430a6107-39">
      <g class="primitive">
        <text text-anchor="end" dy="0.35em">0.010</text>
      </g>
    </g>
    <g transform="translate(175.74,7)" id="img-430a6107-40">
      <g class="primitive">
        <text text-anchor="end" dy="0.35em">0.015</text>
      </g>
    </g>
  </g>
  <g font-size="4.59" font-family="CMU Serif" fill="#564A55" stroke="#000000" stroke-opacity="0.000" id="img-430a6107-41">
    <g transform="translate(159.14,49.72)" id="img-430a6107-42">
      <g class="primitive">
        <text text-anchor="middle" dy="0.35em" transform="rotate(-90,0, 2)">Density</text>
      </g>
    </g>
  </g>
</g>
<g class="plotroot xscalable yscalable" id="img-430a6107-43">
  <g font-size="4.59" font-family="CMU Serif" fill="#564A55" stroke="#000000" stroke-opacity="0.000" id="img-430a6107-44">
    <g transform="translate(85.87,107.72)" id="img-430a6107-45">
      <g class="primitive">
        <text text-anchor="middle" dy="0.6em">Proper Motion Right Ascension (mas/yr)</text>
      </g>
    </g>
  </g>
  <g class="guide xlabels" font-size="4.59" font-family="CMU Serif" fill="#6C606B" id="img-430a6107-46">
    <g transform="translate(28.86,99.44)" id="img-430a6107-47">
      <g class="primitive">
        <text text-anchor="middle" dy="0.6em">0</text>
      </g>
    </g>
    <g transform="translate(68.74,99.44)" id="img-430a6107-48">
      <g class="primitive">
        <text text-anchor="middle" dy="0.6em">2.00×10³</text>
      </g>
    </g>
    <g transform="translate(108.61,99.44)" id="img-430a6107-49">
      <g class="primitive">
        <text text-anchor="middle" dy="0.6em">4.00×10³</text>
      </g>
    </g>
  </g>
  <g clip-path="url(#img-430a6107-50)">
    <g id="img-430a6107-51">
      <g pointer-events="visible" stroke-width="0.3" fill="#000000" fill-opacity="0.000" stroke="#000000" stroke-opacity="0.000" class="guide background" id="img-430a6107-52">
        <g transform="translate(85.87,51.72)" id="img-430a6107-53">
          <path d="M-59.13,-46.72 L59.13,-46.72 59.13,46.72 -59.13,46.72  z" class="primitive"/>
        </g>
      </g>
      <g class="guide ygridlines xfixed" stroke-dasharray="0.5,0.5" stroke-width="0.2" stroke="#D0D0E0" id="img-430a6107-54">
        <g transform="translate(85.87,96.44)" id="img-430a6107-55">
          <path fill="none" d="M-59.13,0 L59.13,0 " class="primitive"/>
        </g>
        <g transform="translate(85.87,66.63)" id="img-430a6107-56">
          <path fill="none" d="M-59.13,0 L59.13,0 " class="primitive"/>
        </g>
        <g transform="translate(85.87,36.81)" id="img-430a6107-57">
          <path fill="none" d="M-59.13,0 L59.13,0 " class="primitive"/>
        </g>
        <g transform="translate(85.87,7)" id="img-430a6107-58">
          <path fill="none" d="M-59.13,0 L59.13,0 " class="primitive"/>
        </g>
      </g>
      <g class="guide xgridlines yfixed" stroke-dasharray="0.5,0.5" stroke-width="0.2" stroke="#D0D0E0" id="img-430a6107-59">
        <g transform="translate(28.86,51.72)" id="img-430a6107-60">
          <path fill="none" d="M0,-46.72 L0,46.72 " class="primitive"/>
        </g>
        <g transform="translate(68.74,51.72)" id="img-430a6107-61">
          <path fill="none" d="M0,-46.72 L0,46.72 " class="primitive"/>
        </g>
        <g transform="translate(108.61,51.72)" id="img-430a6107-62">
          <path fill="none" d="M0,-46.72 L0,46.72 " class="primitive"/>
        </g>
      </g>
      <g class="plotpanel" id="img-430a6107-63">
        <metadata>
          <boundingbox value="26.740833333333327mm 5.0mm 118.25916666666667mm 93.44166666666666mm"/>
          <unitbox value="-106.31011252205923 0.015335414143296375 5931.295157549144 -0.01567082828659275"/>
        </metadata>
        <g stroke-width="0.3" fill="#000000" fill-opacity="0.000" class="geometry" id="img-430a6107-64">
          <g transform="translate(68.71,95.01)" id="img-430a6107-65" stroke-dasharray="none" stroke="#FF6347" class="color_Area_1">
            <path fill="none" d="M-41.33,1.43 L-41.01,1.41 -40.69,1.12 -40.36,-0.73 -40.04,-6.6 -39.71,-15.55 -39.39,-22.06 -39.06,-24.39 -38.74,-24.81 -38.42,-24.84 -38.09,-24.83 -37.77,-24.7 -37.44,-24.19 -37.12,-22.93 -36.79,-20.83 -36.47,-17.98 -36.15,-14.9 -35.82,-12.32 -35.5,-10.25 -35.17,-8.03 -34.85,-5.58 -34.53,-3.72 -34.2,-2.67 -33.88,-2.06 -33.55,-1.59 -33.23,-1.01 -32.9,-0.5 -32.58,-0.27 -32.26,-0.18 -31.93,-0 -31.61,0.33 -31.28,0.61 -30.96,0.75 -30.64,0.86 -30.31,0.98 -29.99,1.04 -29.66,1.12 -29.34,1.17 -29.01,1.13 -28.69,1.03 -28.37,0.85 -28.04,0.73 -27.72,0.78 -27.39,0.95 -27.07,1.14 -26.75,1.25 -26.42,1.32 -26.1,1.36 -25.77,1.39 -25.45,1.39 -25.12,1.38 -24.8,1.37 -24.48,1.36 -24.15,1.32 -23.83,1.34 -23.5,1.39 -23.18,1.42 -22.85,1.42 -22.53,1.39 -22.21,1.34 -21.88,1.33 -21.56,1.37 -21.23,1.42 -20.91,1.43 -20.59,1.43 -20.26,1.43 -19.94,1.43 -19.61,1.43 -19.29,1.43 -18.96,1.42 -18.64,1.39 -18.32,1.37 -17.99,1.38 -17.67,1.38 -17.34,1.36 -17.02,1.36 -16.7,1.35 -16.37,1.34 -16.05,1.36 -15.72,1.4 -15.4,1.42 -15.07,1.43 -14.75,1.43 -14.43,1.43 -14.1,1.43 -13.78,1.43 -13.45,1.43 -13.13,1.43 -12.81,1.43 -12.48,1.43 -12.16,1.43 -11.83,1.43 -11.51,1.43 -11.18,1.43 -10.86,1.43 -10.54,1.43 -10.21,1.43 -9.89,1.43 -9.56,1.43 -9.24,1.43 -8.92,1.43 -8.59,1.43 -8.27,1.43 -7.94,1.43 -7.62,1.43 -7.29,1.43 -6.97,1.43 -6.65,1.43 -6.32,1.43 -6,1.43 -5.67,1.43 -5.35,1.43 -5.02,1.42 -4.7,1.39 -4.38,1.38 -4.05,1.4 -3.73,1.42 -3.4,1.43 -3.08,1.43 -2.76,1.43 -2.43,1.43 -2.11,1.43 -1.78,1.43 -1.46,1.43 -1.13,1.43 -0.81,1.43 -0.49,1.43 -0.16,1.43 0.16,1.43 0.49,1.43 0.81,1.43 1.13,1.43 1.46,1.43 1.78,1.43 2.11,1.43 2.43,1.43 2.76,1.43 3.08,1.43 3.4,1.43 3.73,1.43 4.05,1.43 4.38,1.43 4.7,1.43 5.02,1.43 5.35,1.43 5.67,1.43 6,1.43 6.32,1.43 6.65,1.43 6.97,1.43 7.29,1.43 7.62,1.43 7.94,1.43 8.27,1.43 8.59,1.43 8.92,1.43 9.24,1.43 9.56,1.43 9.89,1.43 10.21,1.43 10.54,1.43 10.86,1.43 11.18,1.43 11.51,1.43 11.83,1.43 12.16,1.43 12.48,1.43 12.81,1.43 13.13,1.43 13.45,1.43 13.78,1.43 14.1,1.43 14.43,1.43 14.75,1.43 15.07,1.43 15.4,1.43 15.72,1.43 16.05,1.43 16.37,1.43 16.7,1.43 17.02,1.43 17.34,1.43 17.67,1.43 17.99,1.43 18.32,1.43 18.64,1.43 18.96,1.43 19.29,1.43 19.61,1.43 19.94,1.43 20.26,1.43 20.59,1.43 20.91,1.43 21.23,1.43 21.56,1.43 21.88,1.43 22.21,1.43 22.53,1.43 22.85,1.43 23.18,1.43 23.5,1.43 23.83,1.43 24.15,1.43 24.48,1.43 24.8,1.43 25.12,1.43 25.45,1.43 25.77,1.43 26.1,1.43 26.42,1.43 26.75,1.43 27.07,1.43 27.39,1.43 27.72,1.43 28.04,1.43 28.37,1.43 28.69,1.43 29.01,1.43 29.34,1.43 29.66,1.43 29.99,1.43 30.31,1.43 30.64,1.43 30.96,1.43 31.28,1.43 31.61,1.43 31.93,1.43 32.26,1.43 32.58,1.43 32.9,1.43 33.23,1.43 33.55,1.43 33.88,1.43 34.2,1.43 34.53,1.43 34.85,1.43 35.17,1.43 35.5,1.43 35.82,1.43 36.15,1.43 36.47,1.43 36.79,1.43 37.12,1.43 37.44,1.43 37.77,1.43 38.09,1.43 38.42,1.43 38.74,1.43 39.06,1.43 39.39,1.42 39.71,1.39 40.04,1.38 40.36,1.4 40.69,1.42 41.01,1.43 41.33,1.43 " class="primitive"/>
          </g>
          <g transform="translate(84.99,95.42)" id="img-430a6107-66" stroke-dasharray="none" stroke="#B23AEE" class="color_Area_3">
            <path fill="none" d="M-58.01,1.02 L-57.55,0.99 -57.1,0.56 -56.64,-1.75 -56.19,-7.27 -55.73,-13.46 -55.28,-16.6 -54.82,-17.27 -54.37,-17.33 -53.91,-17.33 -53.46,-17.31 -53,-17.2 -52.55,-16.79 -52.09,-15.86 -51.64,-14.31 -51.18,-12.32 -50.73,-10.19 -50.27,-8.08 -49.82,-6.17 -49.36,-4.69 -48.91,-3.62 -48.45,-2.86 -48,-2.23 -47.54,-1.59 -47.09,-1.05 -46.63,-0.65 -46.18,-0.36 -45.72,-0.1 -45.27,0.09 -44.81,0.23 -44.36,0.35 -43.9,0.33 -43.45,0.34 -42.99,0.39 -42.54,0.46 -42.08,0.6 -41.63,0.69 -41.17,0.71 -40.72,0.78 -40.26,0.88 -39.81,0.93 -39.35,0.91 -38.9,0.86 -38.44,0.83 -37.99,0.89 -37.53,0.95 -37.08,0.96 -36.63,0.94 -36.17,0.92 -35.72,0.91 -35.26,0.93 -34.81,0.94 -34.35,0.95 -33.9,0.96 -33.44,0.99 -32.99,1.01 -32.53,1.02 -32.08,1.01 -31.62,0.98 -31.17,0.97 -30.71,0.98 -30.26,0.99 -29.8,0.97 -29.35,0.96 -28.89,0.98 -28.44,0.98 -27.98,1 -27.53,1 -27.07,0.99 -26.62,0.99 -26.16,1.01 -25.71,1.02 -25.25,1.02 -24.8,1.02 -24.34,1.02 -23.89,1.02 -23.43,1.02 -22.98,1.01 -22.52,0.99 -22.07,0.98 -21.61,0.98 -21.16,0.99 -20.7,1.01 -20.25,1 -19.79,0.99 -19.34,1 -18.88,1.01 -18.43,1.02 -17.97,1.02 -17.52,1.02 -17.06,1.02 -16.61,1.02 -16.15,1.02 -15.7,1.02 -15.24,1.02 -14.79,1.02 -14.33,1 -13.88,0.99 -13.42,1 -12.97,1.01 -12.51,1.02 -12.06,1.02 -11.6,1.02 -11.15,1.02 -10.69,1.02 -10.24,1.02 -9.78,1.01 -9.33,1 -8.87,0.99 -8.42,1.01 -7.96,1.02 -7.51,1.02 -7.05,1.02 -6.6,1.02 -6.14,1.02 -5.69,1.02 -5.23,1.02 -4.78,1.02 -4.32,1.02 -3.87,1.02 -3.41,1.02 -2.96,1.02 -2.5,1.02 -2.05,1.02 -1.59,1.02 -1.14,1.02 -0.68,1.02 -0.23,1.02 0.23,1.02 0.68,1.02 1.14,1.02 1.59,1.02 2.05,1.02 2.5,1.02 2.96,1.02 3.41,1.02 3.87,1 4.32,0.99 4.78,1 5.23,1.02 5.69,1.02 6.14,1.02 6.6,1.02 7.05,1.02 7.51,1.02 7.96,1.02 8.42,1.02 8.87,1.02 9.33,1.02 9.78,1.02 10.24,1.02 10.69,1.02 11.15,1.02 11.6,1.02 12.06,1.02 12.51,1.02 12.97,1.02 13.42,1.02 13.88,1.02 14.33,1.02 14.79,1.02 15.24,1.02 15.7,1.02 16.15,1.02 16.61,1.02 17.06,1.02 17.52,1.02 17.97,1.02 18.43,1.02 18.88,1.02 19.34,1.02 19.79,1.02 20.25,1.02 20.7,1.02 21.16,1.02 21.61,1.02 22.07,1.02 22.52,1.02 22.98,1.02 23.43,1.02 23.89,1.02 24.34,1.02 24.8,1.02 25.25,1.02 25.71,1.02 26.16,1.02 26.62,1.02 27.07,1.02 27.53,1.02 27.98,1.02 28.44,1.02 28.89,1.02 29.35,1.02 29.8,1.02 30.26,1.02 30.71,1.02 31.17,1.02 31.62,1.02 32.08,1.02 32.53,1.02 32.99,1.02 33.44,1.02 33.9,1.02 34.35,1.02 34.81,1.02 35.26,1.02 35.72,1.02 36.17,1.02 36.63,1.02 37.08,1.02 37.53,1.02 37.99,1.02 38.44,1.02 38.9,1.02 39.35,1.02 39.81,1.02 40.26,1.02 40.72,1.02 41.17,1.02 41.63,1.02 42.08,1.02 42.54,1.02 42.99,1.02 43.45,1.02 43.9,1.02 44.36,1.02 44.81,1.02 45.27,1.02 45.72,1.02 46.18,1.02 46.63,1.02 47.09,1.02 47.54,1.02 48,1.02 48.45,1.02 48.91,1.02 49.36,1.02 49.82,1.02 50.27,1.02 50.73,1.02 51.18,1.02 51.64,1.02 52.09,1.02 52.55,1.02 53,1.02 53.46,1.02 53.91,1.02 54.37,1.02 54.82,1.02 55.28,1.02 55.73,1 56.19,0.99 56.64,1 57.1,1.02 57.55,1.02 58.01,1.02 " class="primitive"/>
          </g>
          <g transform="translate(32.43,82.99)" id="img-430a6107-67" stroke-dasharray="none" stroke="#4169E1" class="color_Area_2">
            <path fill="none" d="M-4.4,13.45 L-4.37,13.45 -4.33,13.45 -4.3,13.45 -4.26,13.44 -4.23,13.44 -4.19,13.42 -4.16,13.39 -4.13,13.35 -4.09,13.27 -4.06,13.14 -4.02,12.94 -3.99,12.63 -3.95,12.18 -3.92,11.53 -3.88,10.62 -3.85,9.41 -3.81,7.83 -3.78,5.84 -3.75,3.42 -3.71,0.57 -3.68,-2.68 -3.64,-6.28 -3.61,-10.12 -3.57,-14.09 -3.54,-18.07 -3.5,-21.92 -3.47,-25.53 -3.44,-28.8 -3.4,-31.67 -3.37,-34.11 -3.33,-36.11 -3.3,-37.7 -3.26,-38.92 -3.23,-39.83 -3.19,-40.49 -3.16,-40.95 -3.12,-41.25 -3.09,-41.45 -3.06,-41.58 -3.02,-41.66 -2.99,-41.7 -2.95,-41.73 -2.92,-41.74 -2.88,-41.74 -2.85,-41.74 -2.81,-41.73 -2.78,-41.72 -2.74,-41.7 -2.71,-41.66 -2.68,-41.61 -2.64,-41.54 -2.61,-41.44 -2.57,-41.3 -2.54,-41.11 -2.5,-40.87 -2.47,-40.57 -2.43,-40.21 -2.4,-39.77 -2.36,-39.26 -2.33,-38.67 -2.3,-38.01 -2.26,-37.27 -2.23,-36.48 -2.19,-35.61 -2.16,-34.69 -2.12,-33.71 -2.09,-32.66 -2.05,-31.54 -2.02,-30.35 -1.99,-29.08 -1.95,-27.74 -1.92,-26.33 -1.88,-24.85 -1.85,-23.31 -1.81,-21.73 -1.78,-20.12 -1.74,-18.51 -1.71,-16.92 -1.67,-15.38 -1.64,-13.92 -1.61,-12.54 -1.57,-11.27 -1.54,-10.11 -1.5,-9.04 -1.47,-8.07 -1.43,-7.17 -1.4,-6.32 -1.36,-5.5 -1.33,-4.71 -1.29,-3.94 -1.26,-3.18 -1.23,-2.43 -1.19,-1.7 -1.16,-0.99 -1.12,-0.32 -1.09,0.32 -1.05,0.92 -1.02,1.5 -0.98,2.05 -0.95,2.58 -0.91,3.09 -0.88,3.59 -0.85,4.08 -0.81,4.56 -0.78,5.02 -0.74,5.47 -0.71,5.89 -0.67,6.29 -0.64,6.65 -0.6,6.96 -0.57,7.23 -0.54,7.45 -0.5,7.61 -0.47,7.72 -0.43,7.78 -0.4,7.79 -0.36,7.75 -0.33,7.68 -0.29,7.59 -0.26,7.49 -0.22,7.41 -0.19,7.36 -0.16,7.35 -0.12,7.4 -0.09,7.52 -0.05,7.7 -0.02,7.94 0.02,8.25 0.05,8.59 0.09,8.95 0.12,9.32 0.16,9.69 0.19,10.02 0.22,10.33 0.26,10.59 0.29,10.81 0.33,11 0.36,11.16 0.4,11.29 0.43,11.42 0.47,11.54 0.5,11.65 0.54,11.77 0.57,11.89 0.6,12.01 0.64,12.12 0.67,12.22 0.71,12.3 0.74,12.35 0.78,12.39 0.81,12.41 0.85,12.4 0.88,12.39 0.91,12.36 0.95,12.34 0.98,12.31 1.02,12.29 1.05,12.28 1.09,12.29 1.12,12.3 1.16,12.32 1.19,12.35 1.23,12.38 1.26,12.41 1.29,12.45 1.33,12.48 1.36,12.51 1.4,12.55 1.43,12.59 1.47,12.63 1.5,12.68 1.54,12.73 1.57,12.79 1.61,12.85 1.64,12.92 1.67,12.98 1.71,13.03 1.74,13.07 1.78,13.11 1.81,13.14 1.85,13.16 1.88,13.17 1.92,13.18 1.95,13.18 1.99,13.19 2.02,13.21 2.05,13.22 2.09,13.24 2.12,13.27 2.16,13.29 2.19,13.32 2.23,13.34 2.26,13.37 2.3,13.39 2.33,13.4 2.36,13.42 2.4,13.43 2.43,13.44 2.47,13.44 2.5,13.45 2.54,13.45 2.57,13.45 2.61,13.45 2.64,13.45 2.68,13.45 2.71,13.45 2.74,13.45 2.78,13.45 2.81,13.45 2.85,13.45 2.88,13.45 2.92,13.44 2.95,13.44 2.99,13.43 3.02,13.42 3.06,13.41 3.09,13.39 3.12,13.37 3.16,13.34 3.19,13.31 3.23,13.28 3.26,13.24 3.3,13.21 3.33,13.18 3.37,13.14 3.4,13.12 3.44,13.1 3.47,13.08 3.5,13.08 3.54,13.08 3.57,13.08 3.61,13.1 3.64,13.12 3.68,13.14 3.71,13.17 3.75,13.21 3.78,13.24 3.81,13.27 3.85,13.31 3.88,13.34 3.92,13.36 3.95,13.39 3.99,13.4 4.02,13.42 4.06,13.43 4.09,13.44 4.13,13.44 4.16,13.45 4.19,13.45 4.23,13.45 4.26,13.45 4.3,13.45 4.33,13.45 4.37,13.45 4.4,13.45 " class="primitive"/>
          </g>
          <g transform="translate(57.66,94.5)" id="img-430a6107-68" stroke-dasharray="none" stroke="#00CD66" class="color_Area_4">
            <path fill="none" d="M-30.5,1.94 L-30.26,1.94 -30.02,1.9 -29.78,1.73 -29.54,1.11 -29.3,-0.51 -29.07,-3.61 -28.83,-7.97 -28.59,-12.48 -28.35,-15.9 -28.11,-17.8 -27.87,-18.57 -27.63,-18.8 -27.39,-18.85 -27.15,-18.86 -26.91,-18.86 -26.67,-18.85 -26.43,-18.83 -26.19,-18.75 -25.96,-18.57 -25.72,-18.24 -25.48,-17.76 -25.24,-17.12 -25,-16.3 -24.76,-15.2 -24.52,-13.82 -24.28,-12.24 -24.04,-10.61 -23.8,-9.08 -23.56,-7.77 -23.32,-6.73 -23.08,-5.86 -22.85,-5.04 -22.61,-4.2 -22.37,-3.35 -22.13,-2.55 -21.89,-1.89 -21.65,-1.44 -21.41,-1.17 -21.17,-0.97 -20.93,-0.67 -20.69,-0.26 -20.45,0.17 -20.21,0.49 -19.97,0.69 -19.74,0.84 -19.5,0.99 -19.26,1.11 -19.02,1.2 -18.78,1.27 -18.54,1.33 -18.3,1.37 -18.06,1.37 -17.82,1.33 -17.58,1.26 -17.34,1.19 -17.1,1.2 -16.86,1.27 -16.63,1.35 -16.39,1.4 -16.15,1.44 -15.91,1.49 -15.67,1.55 -15.43,1.6 -15.19,1.64 -14.95,1.64 -14.71,1.63 -14.47,1.59 -14.23,1.57 -13.99,1.58 -13.76,1.61 -13.52,1.64 -13.28,1.68 -13.04,1.73 -12.8,1.78 -12.56,1.82 -12.32,1.83 -12.08,1.82 -11.84,1.79 -11.6,1.75 -11.36,1.71 -11.12,1.7 -10.88,1.72 -10.65,1.77 -10.41,1.83 -10.17,1.88 -9.93,1.91 -9.69,1.92 -9.45,1.92 -9.21,1.9 -8.97,1.89 -8.73,1.88 -8.49,1.87 -8.25,1.85 -8.01,1.84 -7.77,1.84 -7.54,1.83 -7.3,1.84 -7.06,1.86 -6.82,1.86 -6.58,1.86 -6.34,1.85 -6.1,1.85 -5.86,1.86 -5.62,1.88 -5.38,1.91 -5.14,1.93 -4.9,1.94 -4.66,1.94 -4.43,1.94 -4.19,1.94 -3.95,1.94 -3.71,1.94 -3.47,1.94 -3.23,1.94 -2.99,1.94 -2.75,1.94 -2.51,1.94 -2.27,1.94 -2.03,1.93 -1.79,1.92 -1.55,1.9 -1.32,1.9 -1.08,1.91 -0.84,1.93 -0.6,1.93 -0.36,1.94 -0.12,1.94 0.12,1.94 0.36,1.94 0.6,1.94 0.84,1.94 1.08,1.94 1.32,1.93 1.55,1.91 1.79,1.88 2.03,1.84 2.27,1.83 2.51,1.85 2.75,1.88 2.99,1.91 3.23,1.93 3.47,1.94 3.71,1.94 3.95,1.94 4.19,1.94 4.43,1.93 4.66,1.92 4.9,1.91 5.14,1.9 5.38,1.9 5.62,1.91 5.86,1.91 6.1,1.9 6.34,1.9 6.58,1.91 6.82,1.93 7.06,1.93 7.3,1.94 7.54,1.94 7.77,1.94 8.01,1.94 8.25,1.94 8.49,1.94 8.73,1.94 8.97,1.94 9.21,1.94 9.45,1.94 9.69,1.94 9.93,1.94 10.17,1.94 10.41,1.94 10.65,1.94 10.88,1.94 11.12,1.94 11.36,1.94 11.6,1.94 11.84,1.94 12.08,1.94 12.32,1.94 12.56,1.94 12.8,1.94 13.04,1.94 13.28,1.94 13.52,1.94 13.76,1.94 13.99,1.94 14.23,1.94 14.47,1.94 14.71,1.94 14.95,1.94 15.19,1.94 15.43,1.94 15.67,1.94 15.91,1.94 16.15,1.94 16.39,1.94 16.63,1.94 16.86,1.94 17.1,1.94 17.34,1.94 17.58,1.94 17.82,1.94 18.06,1.94 18.3,1.94 18.54,1.94 18.78,1.94 19.02,1.94 19.26,1.94 19.5,1.94 19.74,1.94 19.97,1.94 20.21,1.94 20.45,1.94 20.69,1.94 20.93,1.94 21.17,1.94 21.41,1.94 21.65,1.94 21.89,1.94 22.13,1.94 22.37,1.94 22.61,1.94 22.85,1.94 23.08,1.94 23.32,1.94 23.56,1.94 23.8,1.94 24.04,1.94 24.28,1.94 24.52,1.94 24.76,1.94 25,1.94 25.24,1.94 25.48,1.94 25.72,1.94 25.96,1.94 26.19,1.94 26.43,1.94 26.67,1.94 26.91,1.94 27.15,1.94 27.39,1.94 27.63,1.93 27.87,1.92 28.11,1.9 28.35,1.88 28.59,1.88 28.83,1.88 29.07,1.9 29.3,1.92 29.54,1.93 29.78,1.94 30.02,1.94 30.26,1.94 30.5,1.94 " class="primitive"/>
          </g>
        </g>
      </g>
    </g>
  </g>
  <g class="guide ylabels" font-size="4.59" font-family="CMU Serif" fill="#6C606B" id="img-430a6107-69">
    <g transform="translate(25.74,96.44)" id="img-430a6107-70">
      <g class="primitive">
        <text text-anchor="end" dy="0.35em">0.000</text>
      </g>
    </g>
    <g transform="translate(25.74,66.63)" id="img-430a6107-71">
      <g class="primitive">
        <text text-anchor="end" dy="0.35em">0.005</text>
      </g>
    </g>
    <g transform="translate(25.74,36.81)" id="img-430a6107-72">
      <g class="primitive">
        <text text-anchor="end" dy="0.35em">0.010</text>
      </g>
    </g>
    <g transform="translate(25.74,7)" id="img-430a6107-73">
      <g class="primitive">
        <text text-anchor="end" dy="0.35em">0.015</text>
      </g>
    </g>
  </g>
  <g font-size="4.59" font-family="CMU Serif" fill="#564A55" stroke="#000000" stroke-opacity="0.000" id="img-430a6107-74">
    <g transform="translate(9.14,49.72)" id="img-430a6107-75">
      <g class="primitive">
        <text text-anchor="middle" dy="0.35em" transform="rotate(-90,0, 2)">Density</text>
      </g>
    </g>
  </g>
</g>
<defs>
  <clipPath id="img-430a6107-17">
    <path d="M176.74,5 L276.87,5 276.87,98.44 176.74,98.44 " />
  </clipPath>
  <clipPath id="img-430a6107-50">
    <path d="M26.74,5 L145,5 145,98.44 26.74,98.44 " />
  </clipPath>
</defs>
</svg>
